999
dxfrw 0.6.3
  0
SECTION
  2
HEADER
  9
$ACADVER
  1
AC1021
  9
$DWGCODEPAGE
  3
ANSI_1252
  9
$INSBASE
 10
0
 20
0
 30
0
  9
$EXTMIN
 10
-46.37096817860882
 20
-141.7338954750004
 30
0
  9
$EXTMAX
 10
42.21569376787328
 20
25.30809461113049
 30
0
  9
$LIMMIN
 10
0
 20
0
  9
$LIMMAX
 10
420
 20
297
  9
$ORTHOMODE
 70
    0
  9
$REGENMODE
 70
    1
  9
$FILLMODE
 70
    1
  9
$QTEXTMODE
 70
    0
  9
$MIRRTEXT
 70
    0
  9
$LTSCALE
 40
1
  9
$ATTMODE
 70
    0
  9
$TEXTSIZE
 40
2.5
  9
$TRACEWID
 40
15.68
  9
$TEXTSTYLE
  7
STANDARD
  9
$CLAYER
  8
ince
  9
$CELTYPE
  6
BYLAYER
  9
$CECOLOR
 62
  256
  9
$CELTSCALE
 40
1
  9
$DISPSILH
 70
    0
  9
$DIMSCALE
 40
2.5
  9
$DIMASZ
 40
2.5
  9
$DIMEXO
 40
0.625
  9
$DIMDLI
 40
3.75
  9
$DIMRND
 40
0
  9
$DIMDLE
 40
0
  9
$DIMEXE
 40
1.25
  9
$DIMTP
 40
0
  9
$DIMTM
 40
0
  9
$DIMTXT
 40
2
  9
$DIMCEN
 40
2.5
  9
$DIMTSZ
 40
0
  9
$DIMTOL
 70
    0
  9
$DIMLIM
 70
    0
  9
$DIMTIH
 70
    0
  9
$DIMTOH
 70
    0
  9
$DIMSE1
 70
    0
  9
$DIMSE2
 70
    0
  9
$DIMTAD
 70
    1
  9
$DIMZIN
 70
    8
  9
$DIMBLK
  1

  9
$DIMASO
 70
    1
  9
$DIMSHO
 70
    1
  9
$DIMPOST
  1

  9
$DIMAPOST
  1

  9
$DIMALT
 70
    0
  9
$DIMALTD
 70
    3
  9
$DIMALTF
 40
0.03937
  9
$DIMLFAC
 40
1
  9
$DIMTOFL
 70
    1
  9
$DIMTVP
 40
0
  9
$DIMTIX
 70
    0
  9
$DIMSOXD
 70
    0
  9
$DIMSAH
 70
    0
  9
$DIMBLK1
  1

  9
$DIMBLK2
  1

  9
$DIMSTYLE
  2
STANDARD
  9
$DIMCLRD
 70
    0
  9
$DIMCLRE
 70
    0
  9
$DIMCLRT
 70
    0
  9
$DIMTFAC
 40
1
  9
$DIMGAP
 40
0.625
  9
$DIMJUST
 70
    0
  9
$DIMSD1
 70
    0
  9
$DIMSD2
 70
    0
  9
$DIMTOLJ
 70
    0
  9
$DIMTZIN
 70
    8
  9
$DIMALTZ
 70
    0
  9
$DIMALTTZ
 70
    0
  9
$DIMUPT
 70
    0
  9
$DIMDEC
 70
    2
  9
$DIMTDEC
 70
    2
  9
$DIMALTU
 70
    2
  9
$DIMALTTD
 70
    3
  9
$DIMTXSTY
  7
standard
  9
$DIMAUNIT
 70
    0
  9
$DIMADEC
 70
    2
  9
$DIMALTRND
 40
0
  9
$DIMAZIN
 70
    0
  9
$DIMDSEP
 70
   44
  9
$DIMATFIT
 70
    3
  9
$DIMFRAC
 70
    0
  9
$DIMLDRBLK
  1
STANDARD
  9
$DIMLUNIT
 70
    2
  9
$DIMLWD
 70
   -2
  9
$DIMLWE
 70
   -2
  9
$DIMTMOVE
 70
    0
  9
$DIMFXL
 40
1
  9
$DIMFXLON
 70
    0
  9
$DIMJOGANG
 40
0.7854
  9
$DIMTFILL
 70
    0
  9
$DIMTFILLCLR
 70
    0
  9
$DIMARCSYM
 70
    0
  9
$DIMLTYPE
  6

  9
$DIMLTEX1
  6

  9
$DIMLTEX2
  6

  9
$LUNITS
 70
    2
  9
$LUPREC
 70
    4
  9
$SKETCHINC
 40
1
  9
$FILLETRAD
 40
0
  9
$AUNITS
 70
    0
  9
$AUPREC
 70
    2
  9
$MENU
  1
.
  9
$ELEVATION
 40
0
  9
$PELEVATION
 40
0
  9
$THICKNESS
 40
0
  9
$LIMCHECK
 70
    0
  9
$CHAMFERA
 40
0
  9
$CHAMFERB
 40
0
  9
$CHAMFERC
 40
0
  9
$CHAMFERD
 40
0
  9
$SKPOLY
 70
    0
  9
$USRTIMER
 70
    1
  9
$ANGBASE
 50
0
  9
$ANGDIR
 70
    0
  9
$PDMODE
 70
   34
  9
$PDSIZE
 40
0
  9
$PLINEWID
 40
0
  9
$SPLFRAME
 70
    0
  9
$SPLINETYPE
 70
    2
  9
$SPLINESEGS
 70
    8
  9
$HANDSEED
  5
20000
  9
$SURFTAB1
 70
    6
  9
$SURFTAB2
 70
    6
  9
$SURFTYPE
 70
    6
  9
$SURFU
 70
    6
  9
$SURFV
 70
    6
  9
$UCSBASE
  2

  9
$UCSNAME
  2

  9
$UCSORG
 10
0
 20
0
 30
0
  9
$UCSXDIR
 10
1
 20
0
 30
0
  9
$UCSYDIR
 10
0
 20
1
 30
0
  9
$UCSORTHOREF
  2

  9
$UCSORTHOVIEW
 70
    0
  9
$UCSORGTOP
 10
0
 20
0
 30
0
  9
$UCSORGBOTTOM
 10
0
 20
0
 30
0
  9
$UCSORGLEFT
 10
0
 20
0
 30
0
  9
$UCSORGRIGHT
 10
0
 20
0
 30
0
  9
$UCSORGFRONT
 10
0
 20
0
 30
0
  9
$UCSORGBACK
 10
0
 20
0
 30
0
  9
$PUCSBASE
  2

  9
$PUCSNAME
  2

  9
$PUCSORG
 10
0
 20
0
 30
0
  9
$PUCSXDIR
 10
1
 20
0
 30
0
  9
$PUCSYDIR
 10
0
 20
1
 30
0
  9
$PUCSORTHOREF
  2

  9
$PUCSORTHOVIEW
 70
    0
  9
$PUCSORGTOP
 10
0
 20
0
 30
0
  9
$PUCSORGBOTTOM
 10
0
 20
0
 30
0
  9
$PUCSORGLEFT
 10
0
 20
0
 30
0
  9
$PUCSORGRIGHT
 10
0
 20
0
 30
0
  9
$PUCSORGFRONT
 10
0
 20
0
 30
0
  9
$PUCSORGBACK
 10
0
 20
0
 30
0
  9
$USERI1
 70
    0
  9
$USERI2
 70
    0
  9
$USERI3
 70
    0
  9
$USERI4
 70
    0
  9
$USERI5
 70
    0
  9
$USERR1
 40
0
  9
$USERR2
 40
0
  9
$USERR3
 40
0
  9
$USERR4
 40
0
  9
$USERR5
 40
0
  9
$WORLDVIEW
 70
    1
  9
$SHADEDGE
 70
    3
  9
$SHADEDIF
 70
   70
  9
$TILEMODE
 70
    1
  9
$MAXACTVP
 70
   64
  9
$PINSBASE
 10
0
 20
0
 30
0
  9
$PLIMCHECK
 70
    0
  9
$PEXTMIN
 10
0
 20
0
 30
0
  9
$PEXTMAX
 10
0
 20
0
 30
0
  9
$SNAPSTYLE
 70
    0
  9
$PLIMMIN
 10
0
 20
0
  9
$PLIMMAX
 10
297
 20
210
  9
$UNITMODE
 70
    0
  9
$VISRETAIN
 70
    1
  9
$PLINEGEN
 70
    0
  9
$PSLTSCALE
 70
    1
  9
$TREEDEPTH
 70
 3020
  9
$CMLSTYLE
  2
Standard
  9
$CMLJUST
 70
    0
  9
$CMLSCALE
 40
20
  9
$PROXYGRAPHICS
 70
    1
  9
$MEASUREMENT
 70
    1
  9
$CELWEIGHT
370
   -1
  9
$ENDCAPS
280
    0
  9
$JOINSTYLE
280
    0
  9
$LWDISPLAY
290
    0
  9
$INSUNITS
 70
    0
  9
$HYPERLINKBASE
  1

  9
$STYLESHEET
  1

  9
$XEDIT
290
    1
  9
$CEPSNTYPE
380
    0
  9
$PSTYLEMODE
290
    1
  9
$EXTNAMES
290
    1
  9
$PSVPSCALE
 40
0
  9
$OLESTARTUP
290
    0
  9
$SORTENTS
280
  127
  9
$INDEXCTL
280
    0
  9
$HIDETEXT
280
    1
  9
$XCLIPFRAME
290
    0
  9
$HALOGAP
280
    0
  9
$OBSCOLOR
 70
  257
  9
$OBSLTYPE
280
    0
  9
$INTERSECTIONDISPLAY
280
    0
  9
$INTERSECTIONCOLOR
 70
  257
  9
$DIMASSOC
280
    1
  9
$PROJECTNAME
  1

  9
$CAMERADISPLAY
290
    0
  9
$LENSLENGTH
 40
50
  9
$CAMERAHEIGHT
 40
0
  9
$STEPSPERSEC
 40
2
  9
$STEPSIZE
 40
50
  9
$3DDWFPREC
 40
2
  9
$PSOLWIDTH
 40
5
  9
$PSOLHEIGHT
 40
80
  9
$LOFTANG1
 40
1.570796326794897
  9
$LOFTANG2
 40
1.570796326794897
  9
$LOFTMAG1
 40
0
  9
$LOFTMAG2
 40
0
  9
$LOFTPARAM
 70
    7
  9
$LOFTNORMALS
280
    1
  9
$LATITUDE
 40
1
  9
$LONGITUDE
 40
1
  9
$NORTHDIRECTION
 40
0
  9
$TIMEZONE
 70
-8000
  9
$LIGHTGLYPHDISPLAY
280
    1
  9
$TILEMODELIGHTSYNCH
280
    1
  9
$SOLIDHIST
280
    1
  9
$SHOWHIST
280
    1
  9
$DWFFRAME
280
    2
  9
$DGNFRAME
280
    0
  9
$REALWORLDSCALE
290
    1
  9
$INTERFERECOLOR
 62
    1
  9
$CSHADOW
280
    0
  9
$SHADOWPLANELOCATION
 40
0
  0
ENDSEC
  0
SECTION
  2
CLASSES
  0
ENDSEC
  0
SECTION
  2
TABLES
  0
TABLE
  2
VPORT
  5
8
330
0
100
AcDbSymbolTable
 70
    1
  0
VPORT
  5
31
330
2
100
AcDbSymbolTableRecord
100
AcDbViewportTableRecord
  2
*ACTIVE
 70
    0
 10
0
 20
0
 11
1
 21
1
 12
66.26062867366042
 22
13.61651124697508
 13
0
 23
0
 14
10
 24
10
 15
10
 25
10
 16
0
 26
0
 36
1
 17
0
 27
0
 37
0
 40
170.8776270571098
 41
1.57351290684624
 42
50
 43
0
 44
0
 50
0
 51
0
 71
    0
 72
  100
 73
    1
 74
    3
 75
    0
 76
    0
 77
    0
 78
    0
281
    0
 65
    1
110
0
120
0
130
0
111
1
121
0
131
0
112
0
122
1
132
0
 79
    0
146
0
348
10020
 60
    7
 61
    5
292
1
282
    1
141
0
142
0
 63
  250
421
3358443
  0
ENDTAB
  0
TABLE
  2
LTYPE
  5
5
330
0
100
AcDbSymbolTable
 70
    4
  0
LTYPE
  5
14
330
5
100
AcDbSymbolTableRecord
100
AcDbLinetypeTableRecord
  2
ByBlock
 70
    0
  3

 72
   65
 73
    0
 40
0
  0
LTYPE
  5
15
330
5
100
AcDbSymbolTableRecord
100
AcDbLinetypeTableRecord
  2
ByLayer
 70
    0
  3

 72
   65
 73
    0
 40
0
  0
LTYPE
  5
16
330
5
100
AcDbSymbolTableRecord
100
AcDbLinetypeTableRecord
  2
Continuous
 70
    0
  3
Solid line
 72
   65
 73
    0
 40
0
  0
LTYPE
  5
32
330
5
100
AcDbSymbolTableRecord
100
AcDbLinetypeTableRecord
  2
DOT
 70
    0
  3
Dot . . . . . . . . . . . . . . . . . . . . . .
 72
   65
 73
    2
 40
6.35
 49
0
 74
    0
 49
-6.35
 74
    0
  0
LTYPE
  5
33
330
5
100
AcDbSymbolTableRecord
100
AcDbLinetypeTableRecord
  2
DOTTINY
 70
    0
  3
Dot (.15x) .....................................
 72
   65
 73
    2
 40
0.9525
 49
0
 74
    0
 49
-0.9525
 74
    0
  0
LTYPE
  5
34
330
5
100
AcDbSymbolTableRecord
100
AcDbLinetypeTableRecord
  2
DOT2
 70
    0
  3
Dot (.5x) .....................................
 72
   65
 73
    2
 40
3.175
 49
0
 74
    0
 49
-3.175
 74
    0
  0
LTYPE
  5
35
330
5
100
AcDbSymbolTableRecord
100
AcDbLinetypeTableRecord
  2
DOTX2
 70
    0
  3
Dot (2x) .  .  .  .  .  .  .  .  .  .  .  .  .
 72
   65
 73
    2
 40
12.7
 49
0
 74
    0
 49
-12.7
 74
    0
  0
LTYPE
  5
36
330
5
100
AcDbSymbolTableRecord
100
AcDbLinetypeTableRecord
  2
DASHED
 70
    0
  3
Dashed _ _ _ _ _ _ _ _ _ _ _ _ _ _ _ _ _
 72
   65
 73
    2
 40
19.05
 49
12.7
 74
    0
 49
-6.35
 74
    0
  0
LTYPE
  5
37
330
5
100
AcDbSymbolTableRecord
100
AcDbLinetypeTableRecord
  2
DASHEDTINY
 70
    0
  3
Dashed (.15x) _ _ _ _ _ _ _ _ _ _ _ _ _ _ _ _ _
 72
   65
 73
    2
 40
2.8575
 49
1.905
 74
    0
 49
-0.9525
 74
    0
  0
LTYPE
  5
38
330
5
100
AcDbSymbolTableRecord
100
AcDbLinetypeTableRecord
  2
DASHED2
 70
    0
  3
Dashed (.5x) _ _ _ _ _ _ _ _ _ _ _ _ _ _ _ _ _
 72
   65
 73
    2
 40
9.524999999999999
 49
6.35
 74
    0
 49
-3.175
 74
    0
  0
LTYPE
  5
39
330
5
100
AcDbSymbolTableRecord
100
AcDbLinetypeTableRecord
  2
DASHEDX2
 70
    0
  3
Dashed (2x) ____  ____  ____  ____  ____  ___
 72
   65
 73
    2
 40
38.09999999999999
 49
25.4
 74
    0
 49
-12.7
 74
    0
  0
LTYPE
  5
3A
330
5
100
AcDbSymbolTableRecord
100
AcDbLinetypeTableRecord
  2
DASHDOT
 70
    0
  3
Dash dot __ . __ . __ . __ . __ . __ . __ . __
 72
   65
 73
    4
 40
25.4
 49
12.7
 74
    0
 49
-6.35
 74
    0
 49
0
 74
    0
 49
-6.35
 74
    0
  0
LTYPE
  5
3B
330
5
100
AcDbSymbolTableRecord
100
AcDbLinetypeTableRecord
  2
DASHDOTTINY
 70
    0
  3
Dash dot (.15x) _._._._._._._._._._._._._._._.
 72
   65
 73
    4
 40
3.81
 49
1.905
 74
    0
 49
-0.9525
 74
    0
 49
0
 74
    0
 49
-0.9525
 74
    0
  0
LTYPE
  5
3C
330
5
100
AcDbSymbolTableRecord
100
AcDbLinetypeTableRecord
  2
DASHDOT2
 70
    0
  3
Dash dot (.5x) _._._._._._._._._._._._._._._.
 72
   65
 73
    4
 40
12.7
 49
6.35
 74
    0
 49
-3.175
 74
    0
 49
0
 74
    0
 49
-3.175
 74
    0
  0
LTYPE
  5
3D
330
5
100
AcDbSymbolTableRecord
100
AcDbLinetypeTableRecord
  2
DASHDOTX2
 70
    0
  3
Dash dot (2x) ____  .  ____  .  ____  .  ___
 72
   65
 73
    4
 40
50.8
 49
25.4
 74
    0
 49
-12.7
 74
    0
 49
0
 74
    0
 49
-12.7
 74
    0
  0
LTYPE
  5
3E
330
5
100
AcDbSymbolTableRecord
100
AcDbLinetypeTableRecord
  2
DIVIDE
 70
    0
  3
Divide ____ . . ____ . . ____ . . ____ . . ____
 72
   65
 73
    6
 40
31.75
 49
12.7
 74
    0
 49
-6.35
 74
    0
 49
0
 74
    0
 49
-6.35
 74
    0
 49
0
 74
    0
 49
-6.35
 74
    0
  0
LTYPE
  5
3F
330
5
100
AcDbSymbolTableRecord
100
AcDbLinetypeTableRecord
  2
DIVIDETINY
 70
    0
  3
Divide (.15x) __..__..__..__..__..__..__..__.._
 72
   65
 73
    6
 40
4.7625
 49
1.905
 74
    0
 49
-0.9525
 74
    0
 49
0
 74
    0
 49
-0.9525
 74
    0
 49
0
 74
    0
 49
-0.9525
 74
    0
  0
LTYPE
  5
40
330
5
100
AcDbSymbolTableRecord
100
AcDbLinetypeTableRecord
  2
DIVIDE2
 70
    0
  3
Divide (.5x) __..__..__..__..__..__..__..__.._
 72
   65
 73
    6
 40
15.875
 49
6.35
 74
    0
 49
-3.175
 74
    0
 49
0
 74
    0
 49
-3.175
 74
    0
 49
0
 74
    0
 49
-3.175
 74
    0
  0
LTYPE
  5
41
330
5
100
AcDbSymbolTableRecord
100
AcDbLinetypeTableRecord
  2
DIVIDEX2
 70
    0
  3
Divide (2x) ________  .  .  ________  .  .  _
 72
   65
 73
    6
 40
63.5
 49
25.4
 74
    0
 49
-12.7
 74
    0
 49
0
 74
    0
 49
-12.7
 74
    0
 49
0
 74
    0
 49
-12.7
 74
    0
  0
LTYPE
  5
42
330
5
100
AcDbSymbolTableRecord
100
AcDbLinetypeTableRecord
  2
BORDER
 70
    0
  3
Border __ __ . __ __ . __ __ . __ __ . __ __ .
 72
   65
 73
    6
 40
44.45
 49
12.7
 74
    0
 49
-6.35
 74
    0
 49
12.7
 74
    0
 49
-6.35
 74
    0
 49
0
 74
    0
 49
-6.35
 74
    0
  0
LTYPE
  5
43
330
5
100
AcDbSymbolTableRecord
100
AcDbLinetypeTableRecord
  2
BORDERTINY
 70
    0
  3
Border (.15x) __.__.__.__.__.__.__.__.__.__.__.
 72
   65
 73
    6
 40
6.6675
 49
1.905
 74
    0
 49
-0.9525
 74
    0
 49
1.905
 74
    0
 49
-0.9525
 74
    0
 49
0
 74
    0
 49
-0.9525
 74
    0
  0
LTYPE
  5
44
330
5
100
AcDbSymbolTableRecord
100
AcDbLinetypeTableRecord
  2
BORDER2
 70
    0
  3
Border (.5x) __.__.__.__.__.__.__.__.__.__.__.
 72
   65
 73
    6
 40
22.225
 49
6.35
 74
    0
 49
-3.175
 74
    0
 49
6.35
 74
    0
 49
-3.175
 74
    0
 49
0
 74
    0
 49
-3.175
 74
    0
  0
LTYPE
  5
45
330
5
100
AcDbSymbolTableRecord
100
AcDbLinetypeTableRecord
  2
BORDERX2
 70
    0
  3
Border (2x) ____  ____  .  ____  ____  .  ___
 72
   65
 73
    6
 40
88.89999999999999
 49
25.4
 74
    0
 49
-12.7
 74
    0
 49
25.4
 74
    0
 49
-12.7
 74
    0
 49
0
 74
    0
 49
-12.7
 74
    0
  0
LTYPE
  5
46
330
5
100
AcDbSymbolTableRecord
100
AcDbLinetypeTableRecord
  2
CENTER
 70
    0
  3
Center ____ _ ____ _ ____ _ ____ _ ____ _ ____
 72
   65
 73
    4
 40
50.8
 49
31.75
 74
    0
 49
-6.35
 74
    0
 49
6.35
 74
    0
 49
-6.35
 74
    0
  0
LTYPE
  5
47
330
5
100
AcDbSymbolTableRecord
100
AcDbLinetypeTableRecord
  2
CENTERTINY
 70
    0
  3
Center (.15x) ___ _ ___ _ ___ _ ___ _ ___ _ ___
 72
   65
 73
    4
 40
7.62
 49
4.7625
 74
    0
 49
-0.9525
 74
    0
 49
0.9525
 74
    0
 49
-0.9525
 74
    0
  0
LTYPE
  5
48
330
5
100
AcDbSymbolTableRecord
100
AcDbLinetypeTableRecord
  2
CENTER2
 70
    0
  3
Center (.5x) ___ _ ___ _ ___ _ ___ _ ___ _ ___
 72
   65
 73
    4
 40
28.575
 49
19.05
 74
    0
 49
-3.175
 74
    0
 49
3.175
 74
    0
 49
-3.175
 74
    0
  0
LTYPE
  5
49
330
5
100
AcDbSymbolTableRecord
100
AcDbLinetypeTableRecord
  2
CENTERX2
 70
    0
  3
Center (2x) ________  __  ________  __  _____
 72
   65
 73
    4
 40
101.6
 49
63.5
 74
    0
 49
-12.7
 74
    0
 49
12.7
 74
    0
 49
-12.7
 74
    0
  0
ENDTAB
  0
TABLE
  2
LAYER
  5
2
330
0
100
AcDbSymbolTable
 70
    1
  0
LAYER
  5
10
330
2
100
AcDbSymbolTableRecord
100
AcDbLayerTableRecord
  2
0
 70
    0
 62
    7
  6
CONTINUOUS
370
   50
390
F
  0
LAYER
  5
4A
330
2
100
AcDbSymbolTableRecord
100
AcDbLayerTableRecord
  2
ince
 70
    0
 62
    7
  6
CONTINUOUS
370
   15
390
F
  0
LAYER
  5
4B
330
2
100
AcDbSymbolTableRecord
100
AcDbLayerTableRecord
  2
olcu
 70
    0
 62
    2
  6
CONTINUOUS
370
   15
390
F
  0
LAYER
  5
4C
330
2
100
AcDbSymbolTableRecord
100
AcDbLayerTableRecord
  2
ref
 70
    0
 62
  136
420
32896
  6
CENTERTINY
370
    0
390
F
  0
ENDTAB
  0
TABLE
  2
STYLE
  5
3
330
0
100
AcDbSymbolTable
 70
    3
  0
STYLE
  5
4D
330
2
100
AcDbSymbolTableRecord
100
AcDbTextStyleTableRecord
  2
Standard
 70
    0
 40
0
 41
1
 50
0
 71
    0
 42
1
  3
txt
  4

  0
ENDTAB
  0
TABLE
  2
VIEW
  5
6
330
0
100
AcDbSymbolTable
 70
    0
  0
ENDTAB
  0
TABLE
  2
UCS
  5
7
330
0
100
AcDbSymbolTable
 70
    0
  0
ENDTAB
  0
TABLE
  2
APPID
  5
9
330
0
100
AcDbSymbolTable
 70
    1
  0
APPID
  5
12
330
9
100
AcDbSymbolTableRecord
100
AcDbRegAppTableRecord
  2
ACAD
 70
    0
  0
APPID
  5
4E
330
9
100
AcDbSymbolTableRecord
100
AcDbRegAppTableRecord
  2
LibreCad
 70
    0
  0
ENDTAB
  0
TABLE
  2
DIMSTYLE
  5
A
330
0
100
AcDbSymbolTable
 70
    1
100
AcDbDimStyleTable
 71
    1
  0
DIMSTYLE
105
4F
330
A
100
AcDbSymbolTableRecord
100
AcDbDimStyleTableRecord
  2
Standard
 70
    0
 40
1
 41
2.5
 42
0.625
 43
0.38
 44
1.25
 45
0
 46
0
 47
0
 48
0
 49
1
140
2
141
0.09
142
0
143
25.4
144
1
145
0
146
1
147
0.625
148
0
 71
    0
 72
    0
 73
    0
 74
    1
 75
    0
 76
    0
 77
    0
 78
    9
 79
    2
170
    0
171
    2
172
    0
173
    0
174
    0
175
    0
176
    0
177
    0
178
    0
179
    2
271
    2
272
    4
273
    2
274
    2
275
    0
276
    0
277
    2
278
    0
279
    0
280
    0
281
    0
282
    0
283
    1
284
    0
285
    0
286
    0
288
    0
289
    3
340
standard
341

371
   -2
372
   -2
  0
ENDTAB
  0
TABLE
  2
BLOCK_RECORD
  5
1
330
0
100
AcDbSymbolTable
 70
    2
  0
BLOCK_RECORD
  5
1F
330
1
100
AcDbSymbolTableRecord
100
AcDbBlockTableRecord
  2
*Model_Space
 70
    0
280
    1
281
    0
  0
BLOCK_RECORD
  5
1E
330
1
100
AcDbSymbolTableRecord
100
AcDbBlockTableRecord
  2
*Paper_Space
 70
    0
280
    1
281
    0
  0
BLOCK_RECORD
  5
50
330
1
100
AcDbSymbolTableRecord
100
AcDbBlockTableRecord
  2
*D26
 70
    0
280
    1
281
    0
  0
BLOCK_RECORD
  5
53
330
1
100
AcDbSymbolTableRecord
100
AcDbBlockTableRecord
  2
*D10
 70
    0
280
    1
281
    0
  0
BLOCK_RECORD
  5
56
330
1
100
AcDbSymbolTableRecord
100
AcDbBlockTableRecord
  2
*D9
 70
    0
280
    1
281
    0
  0
BLOCK_RECORD
  5
59
330
1
100
AcDbSymbolTableRecord
100
AcDbBlockTableRecord
  2
*D28
 70
    0
280
    1
281
    0
  0
BLOCK_RECORD
  5
5C
330
1
100
AcDbSymbolTableRecord
100
AcDbBlockTableRecord
  2
*D16
 70
    0
280
    1
281
    0
  0
BLOCK_RECORD
  5
5F
330
1
100
AcDbSymbolTableRecord
100
AcDbBlockTableRecord
  2
*D21
 70
    0
280
    1
281
    0
  0
BLOCK_RECORD
  5
62
330
1
100
AcDbSymbolTableRecord
100
AcDbBlockTableRecord
  2
*D24
 70
    0
280
    1
281
    0
  0
BLOCK_RECORD
  5
65
330
1
100
AcDbSymbolTableRecord
100
AcDbBlockTableRecord
  2
*D27
 70
    0
280
    1
281
    0
  0
BLOCK_RECORD
  5
68
330
1
100
AcDbSymbolTableRecord
100
AcDbBlockTableRecord
  2
*D17
 70
    0
280
    1
281
    0
  0
BLOCK_RECORD
  5
6B
330
1
100
AcDbSymbolTableRecord
100
AcDbBlockTableRecord
  2
*D11
 70
    0
280
    1
281
    0
  0
BLOCK_RECORD
  5
6E
330
1
100
AcDbSymbolTableRecord
100
AcDbBlockTableRecord
  2
*D4
 70
    0
280
    1
281
    0
  0
BLOCK_RECORD
  5
71
330
1
100
AcDbSymbolTableRecord
100
AcDbBlockTableRecord
  2
*D22
 70
    0
280
    1
281
    0
  0
BLOCK_RECORD
  5
74
330
1
100
AcDbSymbolTableRecord
100
AcDbBlockTableRecord
  2
*D13
 70
    0
280
    1
281
    0
  0
BLOCK_RECORD
  5
77
330
1
100
AcDbSymbolTableRecord
100
AcDbBlockTableRecord
  2
*D32
 70
    0
280
    1
281
    0
  0
BLOCK_RECORD
  5
7A
330
1
100
AcDbSymbolTableRecord
100
AcDbBlockTableRecord
  2
*D5
 70
    0
280
    1
281
    0
  0
BLOCK_RECORD
  5
7D
330
1
100
AcDbSymbolTableRecord
100
AcDbBlockTableRecord
  2
*D8
 70
    0
280
    1
281
    0
  0
BLOCK_RECORD
  5
80
330
1
100
AcDbSymbolTableRecord
100
AcDbBlockTableRecord
  2
*D19
 70
    0
280
    1
281
    0
  0
BLOCK_RECORD
  5
83
330
1
100
AcDbSymbolTableRecord
100
AcDbBlockTableRecord
  2
*D23
 70
    0
280
    1
281
    0
  0
BLOCK_RECORD
  5
86
330
1
100
AcDbSymbolTableRecord
100
AcDbBlockTableRecord
  2
*D31
 70
    0
280
    1
281
    0
  0
BLOCK_RECORD
  5
89
330
1
100
AcDbSymbolTableRecord
100
AcDbBlockTableRecord
  2
*D6
 70
    0
280
    1
281
    0
  0
BLOCK_RECORD
  5
8C
330
1
100
AcDbSymbolTableRecord
100
AcDbBlockTableRecord
  2
*D7
 70
    0
280
    1
281
    0
  0
BLOCK_RECORD
  5
8F
330
1
100
AcDbSymbolTableRecord
100
AcDbBlockTableRecord
  2
*D15
 70
    0
280
    1
281
    0
  0
BLOCK_RECORD
  5
92
330
1
100
AcDbSymbolTableRecord
100
AcDbBlockTableRecord
  2
*D18
 70
    0
280
    1
281
    0
  0
BLOCK_RECORD
  5
95
330
1
100
AcDbSymbolTableRecord
100
AcDbBlockTableRecord
  2
*D29
 70
    0
280
    1
281
    0
  0
BLOCK_RECORD
  5
98
330
1
100
AcDbSymbolTableRecord
100
AcDbBlockTableRecord
  2
*D14
 70
    0
280
    1
281
    0
  0
BLOCK_RECORD
  5
9B
330
1
100
AcDbSymbolTableRecord
100
AcDbBlockTableRecord
  2
*D2
 70
    0
280
    1
281
    0
  0
BLOCK_RECORD
  5
9E
330
1
100
AcDbSymbolTableRecord
100
AcDbBlockTableRecord
  2
*D25
 70
    0
280
    1
281
    0
  0
BLOCK_RECORD
  5
A1
330
1
100
AcDbSymbolTableRecord
100
AcDbBlockTableRecord
  2
*D12
 70
    0
280
    1
281
    0
  0
BLOCK_RECORD
  5
A4
330
1
100
AcDbSymbolTableRecord
100
AcDbBlockTableRecord
  2
*D3
 70
    0
280
    1
281
    0
  0
BLOCK_RECORD
  5
A7
330
1
100
AcDbSymbolTableRecord
100
AcDbBlockTableRecord
  2
*D30
 70
    0
280
    1
281
    0
  0
BLOCK_RECORD
  5
AA
330
1
100
AcDbSymbolTableRecord
100
AcDbBlockTableRecord
  2
*D1
 70
    0
280
    1
281
    0
  0
BLOCK_RECORD
  5
AD
330
1
100
AcDbSymbolTableRecord
100
AcDbBlockTableRecord
  2
*D20
 70
    0
280
    1
281
    0
  0
ENDTAB
  0
ENDSEC
  0
SECTION
  2
BLOCKS
  0
BLOCK
  5
20
330
1F
100
AcDbEntity
  8
0
100
AcDbBlockBegin
  2
*Model_Space
 70
    0
 10
0
 20
0
 30
0
  3
*Model_Space
  1

  0
ENDBLK
  5
21
330
1F
100
AcDbEntity
  8
0
100
AcDbBlockEnd
  0
BLOCK
  5
1C
330
1B
100
AcDbEntity
  8
0
100
AcDbBlockBegin
  2
*Paper_Space
 70
    0
 10
0
 20
0
 30
0
  3
*Paper_Space
  1

  0
ENDBLK
  5
1D
330
1F
100
AcDbEntity
  8
0
100
AcDbBlockEnd
  0
BLOCK
  5
51
330
50
100
AcDbEntity
  8
0
100
AcDbBlockBegin
  2
*D26
 70
    1
 10
0
 20
0
  3
*D26
  1

  0
LINE
  5
B0
100
AcDbEntity
  8
olcu
  6
ByBlock
 62
    0
370
   -2
100
AcDbLine
 10
24.36350916285695
 20
-118
 11
24.36350916285695
 21
-102
  0
MTEXT
  5
B1
100
AcDbEntity
  8
olcu
  6
CONTINUOUS
 62
    0
370
   -2
100
AcDbMText
 10
22.73850916285695
 20
-110
 30
0
 40
2
 41
0.8888888888890129
 71
    5
 72
    1
  1
6
  7
standard
210
0
220
0
230
1
 50
90
 73
    2
 44
1
  0
SOLID
  5
B2
100
AcDbEntity
  8
olcu
  6
ByBlock
 62
    0
370
   -2
100
AcDbTrace
 10
24.36350916285695
 20
-113
 30
0
 11
24.77979382062979
 21
-115.5
 31
0
 12
23.94722450508411
 22
-115.5
 32
0
 13
23.94722450508411
 23
-115.5
 33
0
  0
SOLID
  5
B3
100
AcDbEntity
  8
olcu
  6
ByBlock
 62
    0
370
   -2
100
AcDbTrace
 10
24.36350916285695
 20
-107
 30
0
 11
23.94722450508411
 21
-104.5
 31
0
 12
24.77979382062979
 22
-104.5
 32
0
 13
24.77979382062979
 23
-104.5
 33
0
  0
LINE
  5
B4
100
AcDbEntity
  8
olcu
  6
ByBlock
 62
    0
370
   -2
100
AcDbLine
 10
8.824999999999994
 20
-113
 11
25.61350916285695
 21
-113
  0
LINE
  5
B5
100
AcDbEntity
  8
olcu
  6
ByBlock
 62
    0
370
   -2
100
AcDbLine
 10
8.824999999999992
 20
-107
 11
25.61350916285695
 21
-107
  0
ENDBLK
  5
52
330
50
100
AcDbEntity
  8
0
100
AcDbBlockEnd
  0
BLOCK
  5
54
330
53
100
AcDbEntity
  8
0
100
AcDbBlockBegin
  2
*D10
 70
    1
 10
0
 20
0
  3
*D10
  1

  0
LINE
  5
B6
100
AcDbEntity
  8
olcu
  6
ByBlock
 62
    0
370
   -2
100
AcDbLine
 10
-34.95300758438299
 20
-68.5
 11
-34.95300758438299
 21
-52.5
  0
MTEXT
  5
B7
100
AcDbEntity
  8
olcu
  6
CONTINUOUS
 62
    0
370
   -2
100
AcDbMText
 10
-36.57800758438299
 20
-60.5
 30
0
 40
2
 41
0.8888888888890129
 71
    5
 72
    1
  1
6
  7
standard
210
0
220
0
230
1
 50
90
 73
    2
 44
1
  0
SOLID
  5
B8
100
AcDbEntity
  8
olcu
  6
ByBlock
 62
    0
370
   -2
100
AcDbTrace
 10
-34.95300758438299
 20
-63.5
 30
0
 11
-34.53672292661015
 21
-66
 31
0
 12
-35.36929224215583
 22
-66
 32
0
 13
-35.36929224215583
 23
-66
 33
0
  0
SOLID
  5
B9
100
AcDbEntity
  8
olcu
  6
ByBlock
 62
    0
370
   -2
100
AcDbTrace
 10
-34.95300758438299
 20
-57.5
 30
0
 11
-35.36929224215583
 21
-55
 31
0
 12
-34.53672292661015
 22
-55
 32
0
 13
-34.53672292661015
 23
-55
 33
0
  0
LINE
  5
BA
100
AcDbEntity
  8
olcu
  6
ByBlock
 62
    0
370
   -2
100
AcDbLine
 10
-11.125
 20
-63.5
 11
-36.20300758438299
 21
-63.5
  0
LINE
  5
BB
100
AcDbEntity
  8
olcu
  6
ByBlock
 62
    0
370
   -2
100
AcDbLine
 10
-11.12500000000001
 20
-57.5
 11
-36.20300758438299
 21
-57.5
  0
ENDBLK
  5
55
330
53
100
AcDbEntity
  8
0
100
AcDbBlockEnd
  0
BLOCK
  5
57
330
56
100
AcDbEntity
  8
0
100
AcDbBlockBegin
  2
*D9
 70
    1
 10
0
 20
0
  3
*D9
  1

  0
LINE
  5
BC
100
AcDbEntity
  8
olcu
  6
ByBlock
 62
    0
370
   -2
100
AcDbLine
 10
-34.95874246632427
 20
-57.50000000000001
 11
-34.95874246632427
 21
-50.5
  0
MTEXT
  5
BD
100
AcDbEntity
  8
olcu
  6
CONTINUOUS
 62
    0
370
   -2
100
AcDbMText
 10
-36.58374246632427
 20
-54
 30
0
 40
2
 41
0.8888888888888888
 71
    5
 72
    1
  1
7
  7
standard
210
0
220
0
230
1
 50
90
 73
    2
 44
1
  0
SOLID
  5
BE
100
AcDbEntity
  8
olcu
  6
ByBlock
 62
    0
370
   -2
100
AcDbTrace
 10
-34.95874246632427
 20
-57.50000000000001
 30
0
 11
-35.37502712409712
 21
-55.00000000000001
 31
0
 12
-34.54245780855143
 22
-55.00000000000001
 32
0
 13
-34.54245780855143
 23
-55.00000000000001
 33
0
  0
SOLID
  5
BF
100
AcDbEntity
  8
olcu
  6
ByBlock
 62
    0
370
   -2
100
AcDbTrace
 10
-34.95874246632427
 20
-50.5
 30
0
 11
-34.54245780855143
 21
-53
 31
0
 12
-35.37502712409712
 22
-53
 32
0
 13
-35.37502712409712
 23
-53
 33
0
  0
LINE
  5
C0
100
AcDbEntity
  8
olcu
  6
ByBlock
 62
    0
370
   -2
100
AcDbLine
 10
-11.125
 20
-57.50000000000001
 11
-36.20874246632427
 21
-57.50000000000001
  0
LINE
  5
C1
100
AcDbEntity
  8
olcu
  6
ByBlock
 62
    0
370
   -2
100
AcDbLine
 10
-21.32500000000001
 20
-50.5
 11
-36.20874246632427
 21
-50.5
  0
ENDBLK
  5
58
330
56
100
AcDbEntity
  8
0
100
AcDbBlockEnd
  0
BLOCK
  5
5A
330
59
100
AcDbEntity
  8
0
100
AcDbBlockBegin
  2
*D28
 70
    1
 10
0
 20
0
  3
*D28
  1

  0
LINE
  5
C2
100
AcDbEntity
  8
olcu
  6
ByBlock
 62
    0
370
   -2
100
AcDbLine
 10
24.36350916285695
 20
-92
 11
24.36350916285695
 21
-83
  0
MTEXT
  5
C3
100
AcDbEntity
  8
olcu
  6
CONTINUOUS
 62
    0
370
   -2
100
AcDbMText
 10
22.73850916285695
 20
-87.5
 30
0
 40
2
 41
0.8888888888890129
 71
    5
 72
    1
  1
9
  7
standard
210
0
220
0
230
1
 50
90
 73
    2
 44
1
  0
SOLID
  5
C4
100
AcDbEntity
  8
olcu
  6
ByBlock
 62
    0
370
   -2
100
AcDbTrace
 10
24.36350916285695
 20
-92
 30
0
 11
23.94722450508411
 21
-89.5
 31
0
 12
24.77979382062979
 22
-89.5
 32
0
 13
24.77979382062979
 23
-89.5
 33
0
  0
SOLID
  5
C5
100
AcDbEntity
  8
olcu
  6
ByBlock
 62
    0
370
   -2
100
AcDbTrace
 10
24.36350916285695
 20
-83
 30
0
 11
24.77979382062979
 21
-85.5
 31
0
 12
23.94722450508411
 22
-85.5
 32
0
 13
23.94722450508411
 23
-85.5
 33
0
  0
LINE
  5
C6
100
AcDbEntity
  8
olcu
  6
ByBlock
 62
    0
370
   -2
100
AcDbLine
 10
8.825000000000006
 20
-92
 11
25.61350916285695
 21
-92
  0
LINE
  5
C7
100
AcDbEntity
  8
olcu
  6
ByBlock
 62
    0
370
   -2
100
AcDbLine
 10
8.824999999999994
 20
-83
 11
25.61350916285695
 21
-83
  0
ENDBLK
  5
5B
330
59
100
AcDbEntity
  8
0
100
AcDbBlockEnd
  0
BLOCK
  5
5D
330
5C
100
AcDbEntity
  8
0
100
AcDbBlockBegin
  2
*D16
 70
    1
 10
0
 20
0
  3
*D16
  1

  0
LINE
  5
C8
100
AcDbEntity
  8
olcu
  6
ByBlock
 62
    0
370
   -2
100
AcDbLine
 10
-10
 20
-75.04270200054066
 11
2.999999999999997
 21
-75.04270200054066
  0
MTEXT
  5
C9
100
AcDbEntity
  8
olcu
  6
CONTINUOUS
 62
    0
370
   -2
100
AcDbMText
 10
-3.500000000000002
 20
-73.41770200054066
 30
0
 40
2
 41
0.8888888888890129
 71
    5
 72
    1
  1
3
  7
standard
210
0
220
0
230
1
 50
0
 73
    2
 44
1
  0
SOLID
  5
CA
100
AcDbEntity
  8
olcu
  6
ByBlock
 62
    0
370
   -2
100
AcDbTrace
 10
-5.000000000000002
 20
-75.04270200054066
 30
0
 11
-7.500000000000002
 21
-75.45898665831349
 31
0
 12
-7.500000000000002
 22
-74.62641734276782
 32
0
 13
-7.500000000000002
 23
-74.62641734276782
 33
0
  0
SOLID
  5
CB
100
AcDbEntity
  8
olcu
  6
ByBlock
 62
    0
370
   -2
100
AcDbTrace
 10
-2.000000000000003
 20
-75.04270200054066
 30
0
 11
0.4999999999999974
 21
-74.62641734276782
 31
0
 12
0.4999999999999973
 22
-75.45898665831349
 32
0
 13
0.4999999999999973
 23
-75.45898665831349
 33
0
  0
LINE
  5
CC
100
AcDbEntity
  8
olcu
  6
ByBlock
 62
    0
370
   -2
100
AcDbLine
 10
-5.000000000000002
 20
-64.125
 11
-5.000000000000002
 21
-76.29270200054066
  0
LINE
  5
CD
100
AcDbEntity
  8
olcu
  6
ByBlock
 62
    0
370
   -2
100
AcDbLine
 10
-2.000000000000003
 20
-64.125
 11
-2.000000000000003
 21
-76.29270200054066
  0
ENDBLK
  5
5E
330
5C
100
AcDbEntity
  8
0
100
AcDbBlockEnd
  0
BLOCK
  5
60
330
5F
100
AcDbEntity
  8
0
100
AcDbBlockBegin
  2
*D21
 70
    1
 10
0
 20
0
  3
*D21
  1

  0
LINE
  5
CE
100
AcDbEntity
  8
olcu
  6
ByBlock
 62
    0
370
   -2
100
AcDbLine
 10
40.89240987920088
 20
-26
 11
40.89240987920088
 21
-37
  0
MTEXT
  5
CF
100
AcDbEntity
  8
olcu
  6
CONTINUOUS
 62
    0
370
   -2
100
AcDbMText
 10
39.26740987920088
 20
-31.5
 30
0
 40
2
 41
1.555555555555555
 71
    5
 72
    1
  1
11
  7
standard
210
0
220
0
230
1
 50
90
 73
    2
 44
1
  0
SOLID
  5
D0
100
AcDbEntity
  8
olcu
  6
ByBlock
 62
    0
370
   -2
100
AcDbTrace
 10
40.89240987920088
 20
-26
 30
0
 11
41.30869453697372
 21
-28.5
 31
0
 12
40.47612522142803
 22
-28.5
 32
0
 13
40.47612522142803
 23
-28.5
 33
0
  0
SOLID
  5
D1
100
AcDbEntity
  8
olcu
  6
ByBlock
 62
    0
370
   -2
100
AcDbTrace
 10
40.89240987920088
 20
-37
 30
0
 11
40.47612522142803
 21
-34.5
 31
0
 12
41.30869453697372
 22
-34.5
 32
0
 13
41.30869453697372
 23
-34.5
 33
0
  0
LINE
  5
D2
100
AcDbEntity
  8
olcu
  6
ByBlock
 62
    0
370
   -2
100
AcDbLine
 10
29.625
 20
-26
 11
42.14240987920088
 21
-26
  0
LINE
  5
D3
100
AcDbEntity
  8
olcu
  6
ByBlock
 62
    0
370
   -2
100
AcDbLine
 10
10.125
 20
-37
 11
42.14240987920088
 21
-37
  0
ENDBLK
  5
61
330
5F
100
AcDbEntity
  8
0
100
AcDbBlockEnd
  0
BLOCK
  5
63
330
62
100
AcDbEntity
  8
0
100
AcDbBlockBegin
  2
*D24
 70
    1
 10
0
 20
0
  3
*D24
  1

  0
LINE
  5
D4
100
AcDbEntity
  8
olcu
  6
ByBlock
 62
    0
370
   -2
100
AcDbLine
 10
18.19999999999999
 20
-112
 11
18.19999999999999
 21
-99
  0
MTEXT
  5
D5
100
AcDbEntity
  8
olcu
  6
CONTINUOUS
 62
    0
370
   -2
100
AcDbMText
 10
16.57499999999999
 20
-105.5
 30
0
 40
2
 41
0.8888888888890129
 71
    5
 72
    1
  1
3
  7
standard
210
0
220
0
230
1
 50
90
 73
    2
 44
1
  0
SOLID
  5
D6
100
AcDbEntity
  8
olcu
  6
ByBlock
 62
    0
370
   -2
100
AcDbTrace
 10
18.19999999999999
 20
-107
 30
0
 11
18.61628465777283
 21
-109.5
 31
0
 12
17.78371534222715
 22
-109.5
 32
0
 13
17.78371534222715
 23
-109.5
 33
0
  0
SOLID
  5
D7
100
AcDbEntity
  8
olcu
  6
ByBlock
 62
    0
370
   -2
100
AcDbTrace
 10
18.19999999999999
 20
-104
 30
0
 11
17.78371534222715
 21
-101.5
 31
0
 12
18.61628465777283
 22
-101.5
 32
0
 13
18.61628465777283
 23
-101.5
 33
0
  0
LINE
  5
D8
100
AcDbEntity
  8
olcu
  6
ByBlock
 62
    0
370
   -2
100
AcDbLine
 10
8.824999999999994
 20
-107
 11
19.44999999999999
 21
-107
  0
LINE
  5
D9
100
AcDbEntity
  8
olcu
  6
ByBlock
 62
    0
370
   -2
100
AcDbLine
 10
8.824999999999992
 20
-104
 11
19.44999999999999
 21
-104
  0
ENDBLK
  5
64
330
62
100
AcDbEntity
  8
0
100
AcDbBlockEnd
  0
BLOCK
  5
66
330
65
100
AcDbEntity
  8
0
100
AcDbBlockBegin
  2
*D27
 70
    1
 10
0
 20
0
  3
*D27
  1

  0
LINE
  5
DA
100
AcDbEntity
  8
olcu
  6
ByBlock
 62
    0
370
   -2
100
AcDbLine
 10
24.36350916285695
 20
-104
 11
24.36350916285695
 21
-95
  0
MTEXT
  5
DB
100
AcDbEntity
  8
olcu
  6
CONTINUOUS
 62
    0
370
   -2
100
AcDbMText
 10
22.73850916285695
 20
-99.5
 30
0
 40
2
 41
0.8888888888890129
 71
    5
 72
    1
  1
9
  7
standard
210
0
220
0
230
1
 50
90
 73
    2
 44
1
  0
SOLID
  5
DC
100
AcDbEntity
  8
olcu
  6
ByBlock
 62
    0
370
   -2
100
AcDbTrace
 10
24.36350916285695
 20
-104
 30
0
 11
23.94722450508411
 21
-101.5
 31
0
 12
24.77979382062979
 22
-101.5
 32
0
 13
24.77979382062979
 23
-101.5
 33
0
  0
SOLID
  5
DD
100
AcDbEntity
  8
olcu
  6
ByBlock
 62
    0
370
   -2
100
AcDbTrace
 10
24.36350916285695
 20
-95
 30
0
 11
24.77979382062979
 21
-97.5
 31
0
 12
23.94722450508411
 22
-97.5
 32
0
 13
23.94722450508411
 23
-97.5
 33
0
  0
LINE
  5
DE
100
AcDbEntity
  8
olcu
  6
ByBlock
 62
    0
370
   -2
100
AcDbLine
 10
8.824999999999994
 20
-104
 11
25.61350916285695
 21
-104
  0
LINE
  5
DF
100
AcDbEntity
  8
olcu
  6
ByBlock
 62
    0
370
   -2
100
AcDbLine
 10
8.82499999999999
 20
-95
 11
25.61350916285695
 21
-95
  0
ENDBLK
  5
67
330
65
100
AcDbEntity
  8
0
100
AcDbBlockEnd
  0
BLOCK
  5
69
330
68
100
AcDbEntity
  8
0
100
AcDbBlockBegin
  2
*D17
 70
    1
 10
0
 20
0
  3
*D17
  1

  0
LINE
  5
E0
100
AcDbEntity
  8
olcu
  6
ByBlock
 62
    0
370
   -2
100
AcDbLine
 10
-13.2
 20
-69.91282979347245
 11
-3.552713678800501e-015
 21
-69.91282979347245
  0
MTEXT
  5
E1
100
AcDbEntity
  8
olcu
  6
CONTINUOUS
 62
    0
370
   -2
100
AcDbMText
 10
-15.60946828722184
 20
-69.39984257276564
 30
0
 40
2
 41
3.111111111111235
 71
    5
 72
    1
  1
3.2
  7
standard
210
0
220
0
230
1
 50
0
 73
    2
 44
1
  0
SOLID
  5
E2
100
AcDbEntity
  8
olcu
  6
ByBlock
 62
    0
370
   -2
100
AcDbTrace
 10
-8.200000000000003
 20
-69.91282979347245
 30
0
 11
-10.7
 21
-70.32911445124529
 31
0
 12
-10.7
 22
-69.49654513569962
 32
0
 13
-10.7
 23
-69.49654513569962
 33
0
  0
SOLID
  5
E3
100
AcDbEntity
  8
olcu
  6
ByBlock
 62
    0
370
   -2
100
AcDbTrace
 10
-5.000000000000004
 20
-69.91282979347245
 30
0
 11
-2.500000000000004
 21
-69.49654513569962
 31
0
 12
-2.500000000000004
 22
-70.32911445124529
 32
0
 13
-2.500000000000004
 23
-70.32911445124529
 33
0
  0
LINE
  5
E4
100
AcDbEntity
  8
olcu
  6
ByBlock
 62
    0
370
   -2
100
AcDbLine
 10
-8.200000000000003
 20
-64.125
 11
-8.200000000000003
 21
-71.16282979347245
  0
LINE
  5
E5
100
AcDbEntity
  8
olcu
  6
ByBlock
 62
    0
370
   -2
100
AcDbLine
 10
-5.000000000000004
 20
-64.125
 11
-5.000000000000004
 21
-71.16282979347245
  0
ENDBLK
  5
6A
330
68
100
AcDbEntity
  8
0
100
AcDbBlockEnd
  0
BLOCK
  5
6C
330
6B
100
AcDbEntity
  8
0
100
AcDbBlockBegin
  2
*D11
 70
    1
 10
0
 20
0
  3
*D11
  1

  0
LINE
  5
E6
100
AcDbEntity
  8
olcu
  6
ByBlock
 62
    0
370
   -2
100
AcDbLine
 10
-43.74596817860881
 20
0
 11
-43.74596817860882
 21
-118.5
  0
MTEXT
  5
E7
100
AcDbEntity
  8
olcu
  6
CONTINUOUS
 62
    0
370
   -2
100
AcDbMText
 10
-45.37096817860882
 20
-59.25
 30
0
 40
2
 41
5.333333333333457
 71
    5
 72
    1
  1
118.5
  7
standard
210
0
220
0
230
1
 50
90
 73
    2
 44
1
  0
SOLID
  5
E8
100
AcDbEntity
  8
olcu
  6
ByBlock
 62
    0
370
   -2
100
AcDbTrace
 10
-43.74596817860881
 20
0
 30
0
 11
-43.32968352083597
 21
-2.5
 31
0
 12
-44.16225283638165
 22
-2.5
 32
0
 13
-44.16225283638165
 23
-2.5
 33
0
  0
SOLID
  5
E9
100
AcDbEntity
  8
olcu
  6
ByBlock
 62
    0
370
   -2
100
AcDbTrace
 10
-43.74596817860882
 20
-118.5
 30
0
 11
-44.16225283638166
 21
-116
 31
0
 12
-43.32968352083598
 22
-116
 32
0
 13
-43.32968352083598
 23
-116
 33
0
  0
LINE
  5
EA
100
AcDbEntity
  8
olcu
  6
ByBlock
 62
    0
370
   -2
100
AcDbLine
 10
-0.625
 20
7.653789711389858e-017
 11
-44.99596817860881
 21
1.530757942277972e-016
  0
LINE
  5
EB
100
AcDbEntity
  8
olcu
  6
ByBlock
 62
    0
370
   -2
100
AcDbLine
 10
-8.825000000000006
 20
-118.5
 11
-44.99596817860882
 21
-118.5
  0
ENDBLK
  5
6D
330
6B
100
AcDbEntity
  8
0
100
AcDbBlockEnd
  0
BLOCK
  5
6F
330
6E
100
AcDbEntity
  8
0
100
AcDbBlockBegin
  2
*D4
 70
    1
 10
0
 20
0
  3
*D4
  1

  0
LINE
  5
EC
100
AcDbEntity
  8
olcu
  6
ByBlock
 62
    0
370
   -2
100
AcDbLine
 10
-20.70000000000001
 20
16.92230867814497
 11
20.7
 21
16.92230867814497
  0
MTEXT
  5
ED
100
AcDbEntity
  8
olcu
  6
CONTINUOUS
 62
    0
370
   -2
100
AcDbMText
 10
-5.229571251952683e-015
 20
18.54730867814497
 30
0
 40
2
 41
4.666666666666666
 71
    5
 72
    1
  1
41.4
  7
standard
210
0
220
0
230
1
 50
0
 73
    2
 44
1
  0
SOLID
  5
EE
100
AcDbEntity
  8
olcu
  6
ByBlock
 62
    0
370
   -2
100
AcDbTrace
 10
-20.70000000000001
 20
16.92230867814497
 30
0
 11
-18.20000000000001
 21
17.33859333591781
 31
0
 12
-18.20000000000001
 22
16.50602402037213
 32
0
 13
-18.20000000000001
 23
16.50602402037213
 33
0
  0
SOLID
  5
EF
100
AcDbEntity
  8
olcu
  6
ByBlock
 62
    0
370
   -2
100
AcDbTrace
 10
20.7
 20
16.92230867814497
 30
0
 11
18.2
 21
16.50602402037213
 31
0
 12
18.2
 22
17.33859333591781
 32
0
 13
18.2
 23
17.33859333591781
 33
0
  0
LINE
  5
F0
100
AcDbEntity
  8
olcu
  6
ByBlock
 62
    0
370
   -2
100
AcDbLine
 10
-20.7
 20
-25.375
 11
-20.70000000000001
 21
18.17230867814497
  0
LINE
  5
F1
100
AcDbEntity
  8
olcu
  6
ByBlock
 62
    0
370
   -2
100
AcDbLine
 10
20.7
 20
-25.375
 11
20.7
 21
18.17230867814497
  0
ENDBLK
  5
70
330
6E
100
AcDbEntity
  8
0
100
AcDbBlockEnd
  0
BLOCK
  5
72
330
71
100
AcDbEntity
  8
0
100
AcDbBlockBegin
  2
*D22
 70
    1
 10
0
 20
0
  3
*D22
  1

  0
LINE
  5
F2
100
AcDbEntity
  8
olcu
  6
ByBlock
 62
    0
370
   -2
100
AcDbLine
 10
40.96569376787328
 20
-37
 11
40.96569376787328
 21
-48
  0
MTEXT
  5
F3
100
AcDbEntity
  8
olcu
  6
CONTINUOUS
 62
    0
370
   -2
100
AcDbMText
 10
39.34069376787328
 20
-42.5
 30
0
 40
2
 41
1.555555555555555
 71
    5
 72
    1
  1
11
  7
standard
210
0
220
0
230
1
 50
90
 73
    2
 44
1
  0
SOLID
  5
F4
100
AcDbEntity
  8
olcu
  6
ByBlock
 62
    0
370
   -2
100
AcDbTrace
 10
40.96569376787328
 20
-37
 30
0
 11
41.38197842564612
 21
-39.5
 31
0
 12
40.54940911010044
 22
-39.5
 32
0
 13
40.54940911010044
 23
-39.5
 33
0
  0
SOLID
  5
F5
100
AcDbEntity
  8
olcu
  6
ByBlock
 62
    0
370
   -2
100
AcDbTrace
 10
40.96569376787328
 20
-48
 30
0
 11
40.54940911010044
 21
-45.5
 31
0
 12
41.38197842564612
 22
-45.5
 32
0
 13
41.38197842564612
 23
-45.5
 33
0
  0
LINE
  5
F6
100
AcDbEntity
  8
olcu
  6
ByBlock
 62
    0
370
   -2
100
AcDbLine
 10
10.125
 20
-37
 11
42.21569376787328
 21
-37
  0
LINE
  5
F7
100
AcDbEntity
  8
olcu
  6
ByBlock
 62
    0
370
   -2
100
AcDbLine
 10
10.125
 20
-48
 11
42.21569376787328
 21
-48
  0
ENDBLK
  5
73
330
71
100
AcDbEntity
  8
0
100
AcDbBlockEnd
  0
BLOCK
  5
75
330
74
100
AcDbEntity
  8
0
100
AcDbBlockBegin
  2
*D13
 70
    1
 10
0
 20
0
  3
*D13
  1

  0
LINE
  5
F8
100
AcDbEntity
  8
olcu
  6
ByBlock
 62
    0
370
   -2
100
AcDbLine
 10
-10.5
 20
-54.57707683044204
 11
10.5
 21
-54.57707683044204
  0
MTEXT
  5
F9
100
AcDbEntity
  8
olcu
  6
CONTINUOUS
 62
    0
370
   -2
100
AcDbMText
 10
-3.453214412552433e-015
 20
-52.95207683044204
 30
0
 40
2
 41
2
 71
    5
 72
    1
  1
21
  7
standard
210
0
220
0
230
1
 50
0
 73
    2
 44
1
  0
SOLID
  5
FA
100
AcDbEntity
  8
olcu
  6
ByBlock
 62
    0
370
   -2
100
AcDbTrace
 10
-10.5
 20
-54.57707683044204
 30
0
 11
-8.000000000000004
 21
-54.1607921726692
 31
0
 12
-8.000000000000004
 22
-54.99336148821488
 32
0
 13
-8.000000000000004
 23
-54.99336148821488
 33
0
  0
SOLID
  5
FB
100
AcDbEntity
  8
olcu
  6
ByBlock
 62
    0
370
   -2
100
AcDbTrace
 10
10.5
 20
-54.57707683044204
 30
0
 11
7.999999999999996
 21
-54.99336148821488
 31
0
 12
7.999999999999996
 22
-54.1607921726692
 32
0
 13
7.999999999999996
 23
-54.1607921726692
 33
0
  0
LINE
  5
FC
100
AcDbEntity
  8
olcu
  6
ByBlock
 62
    0
370
   -2
100
AcDbLine
 10
-10.5
 20
-56.875
 11
-10.5
 21
-53.32707683044204
  0
LINE
  5
FD
100
AcDbEntity
  8
olcu
  6
ByBlock
 62
    0
370
   -2
100
AcDbLine
 10
10.5
 20
-56.87499999999999
 11
10.5
 21
-53.32707683044204
  0
ENDBLK
  5
76
330
74
100
AcDbEntity
  8
0
100
AcDbBlockEnd
  0
BLOCK
  5
78
330
77
100
AcDbEntity
  8
0
100
AcDbBlockBegin
  2
*D32
 70
    1
 10
0
 20
0
  3
*D32
  1

  0
LINE
  5
FE
100
AcDbEntity
  8
olcu
  6
ByBlock
 62
    0
370
   -2
100
AcDbLine
 10
8.777424707819549
 20
-92.23917714522818
 11
13.20601494164903
 21
-94.07355928227341
  0
LINE
  5
FF
100
AcDbEntity
  8
olcu
  6
ByBlock
 62
    0
370
   -2
100
AcDbLine
 10
8.777424707819549
 20
-82.76082285477182
 11
13.20601494164904
 21
-80.92644071772659
  0
ARC
  5
100
100
AcDbEntity
  8
olcu
  6
ByBlock
 62
    0
370
   -2
100
AcDbCircle
 10
-2.663961030678947
 20
-87.5
 40
15.92753821127551
100
AcDbArc
 50
337.5
 51
22.5
  0
SOLID
  5
101
100
AcDbEntity
  8
olcu
  6
ByBlock
 62
    0
370
   -2
100
AcDbTrace
 10
12.05116552600993
 20
-93.59520499181704
 30
0
 11
12.4279466211892
 21
-91.0889470396875
 31
0
 12
13.2197518130373
 22
-91.34627213242159
 32
0
 13
13.2197518130373
 23
-91.34627213242159
 33
0
  0
SOLID
  5
102
100
AcDbEntity
  8
olcu
  6
ByBlock
 62
    0
370
   -2
100
AcDbTrace
 10
12.05116552600993
 20
-81.40479500818296
 30
0
 11
13.2197518130373
 21
-83.65372786757843
 31
0
 12
12.4279466211892
 22
-83.9110529603125
 32
0
 13
12.4279466211892
 23
-83.9110529603125
 33
0
  0
MTEXT
  5
103
100
AcDbEntity
  8
olcu
  6
CONTINUOUS
 62
    0
370
   -2
100
AcDbMText
 10
12.63857718059656
 20
-87.5
 30
0
 40
2
 41
4.000000000000124
 71
    8
 72
    1
  1
45%%D
  7
standard
210
0
220
0
230
1
 50
90
 73
    2
 44
1
  0
ENDBLK
  5
79
330
77
100
AcDbEntity
  8
0
100
AcDbBlockEnd
  0
BLOCK
  5
7B
330
7A
100
AcDbEntity
  8
0
100
AcDbBlockBegin
  2
*D5
 70
    1
 10
0
 20
0
  3
*D5
  1

  0
LINE
  5
104
100
AcDbEntity
  8
olcu
  6
ByBlock
 62
    0
370
   -2
100
AcDbLine
 10
-29
 20
22.68309461113049
 11
29
 21
22.68309461113049
  0
MTEXT
  5
105
100
AcDbEntity
  8
olcu
  6
CONTINUOUS
 62
    0
370
   -2
100
AcDbMText
 10
-1.676857573152182e-015
 20
24.30809461113049
 30
0
 40
2
 41
2.444444444444568
 71
    5
 72
    1
  1
58
  7
standard
210
0
220
0
230
1
 50
0
 73
    2
 44
1
  0
SOLID
  5
106
100
AcDbEntity
  8
olcu
  6
ByBlock
 62
    0
370
   -2
100
AcDbTrace
 10
-29
 20
22.68309461113049
 30
0
 11
-26.5
 21
23.09937926890333
 31
0
 12
-26.5
 22
22.26680995335765
 32
0
 13
-26.5
 23
22.26680995335765
 33
0
  0
SOLID
  5
107
100
AcDbEntity
  8
olcu
  6
ByBlock
 62
    0
370
   -2
100
AcDbTrace
 10
29
 20
22.68309461113049
 30
0
 11
26.5
 21
22.26680995335765
 31
0
 12
26.5
 22
23.09937926890333
 32
0
 13
26.5
 23
23.09937926890333
 33
0
  0
LINE
  5
108
100
AcDbEntity
  8
olcu
  6
ByBlock
 62
    0
370
   -2
100
AcDbLine
 10
-29
 20
-25.375
 11
-29
 21
23.93309461113049
  0
LINE
  5
109
100
AcDbEntity
  8
olcu
  6
ByBlock
 62
    0
370
   -2
100
AcDbLine
 10
29
 20
-25.375
 11
29
 21
23.93309461113049
  0
ENDBLK
  5
7C
330
7A
100
AcDbEntity
  8
0
100
AcDbBlockEnd
  0
BLOCK
  5
7E
330
7D
100
AcDbEntity
  8
0
100
AcDbBlockBegin
  2
*D8
 70
    1
 10
0
 20
0
  3
*D8
  1

  0
LINE
  5
10A
100
AcDbEntity
  8
olcu
  6
ByBlock
 62
    0
370
   -2
100
AcDbLine
 10
-35.00848051454871
 20
-50.5
 11
-35.00848051454871
 21
-26
  0
MTEXT
  5
10B
100
AcDbEntity
  8
olcu
  6
CONTINUOUS
 62
    0
370
   -2
100
AcDbMText
 10
-36.63348051454871
 20
-38.25
 30
0
 40
2
 41
4.888888888889013
 71
    5
 72
    1
  1
24.5
  7
standard
210
0
220
0
230
1
 50
90
 73
    2
 44
1
  0
SOLID
  5
10C
100
AcDbEntity
  8
olcu
  6
ByBlock
 62
    0
370
   -2
100
AcDbTrace
 10
-35.00848051454871
 20
-50.5
 30
0
 11
-35.42476517232155
 21
-48
 31
0
 12
-34.59219585677587
 22
-48
 32
0
 13
-34.59219585677587
 23
-48
 33
0
  0
SOLID
  5
10D
100
AcDbEntity
  8
olcu
  6
ByBlock
 62
    0
370
   -2
100
AcDbTrace
 10
-35.00848051454871
 20
-26
 30
0
 11
-34.59219585677587
 21
-28.5
 31
0
 12
-35.42476517232155
 22
-28.5
 32
0
 13
-35.42476517232155
 23
-28.5
 33
0
  0
LINE
  5
10E
100
AcDbEntity
  8
olcu
  6
ByBlock
 62
    0
370
   -2
100
AcDbLine
 10
-21.32500000000001
 20
-50.5
 11
-36.25848051454871
 21
-50.5
  0
LINE
  5
10F
100
AcDbEntity
  8
olcu
  6
ByBlock
 62
    0
370
   -2
100
AcDbLine
 10
-21.325
 20
-26
 11
-36.25848051454871
 21
-26
  0
ENDBLK
  5
7F
330
7D
100
AcDbEntity
  8
0
100
AcDbBlockEnd
  0
BLOCK
  5
81
330
80
100
AcDbEntity
  8
0
100
AcDbBlockBegin
  2
*D19
 70
    1
 10
0
 20
0
  3
*D19
  1

  0
LINE
  5
110
100
AcDbEntity
  8
olcu
  6
ByBlock
 62
    0
370
   -2
100
AcDbLine
 10
-9.500000000000002
 20
-20.22635327358323
 11
9.499999999999998
 21
-20.22635327358323
  0
MTEXT
  5
111
100
AcDbEntity
  8
olcu
  6
CONTINUOUS
 62
    0
370
   -2
100
AcDbMText
 10
-1.676857573152182e-015
 20
-18.60135327358323
 30
0
 40
2
 41
2
 71
    5
 72
    1
  1
19
  7
standard
210
0
220
0
230
1
 50
0
 73
    2
 44
1
  0
SOLID
  5
112
100
AcDbEntity
  8
olcu
  6
ByBlock
 62
    0
370
   -2
100
AcDbTrace
 10
-9.500000000000002
 20
-20.22635327358323
 30
0
 11
-7.000000000000002
 21
-19.81006861581039
 31
0
 12
-7.000000000000002
 22
-20.64263793135607
 32
0
 13
-7.000000000000002
 23
-20.64263793135607
 33
0
  0
SOLID
  5
113
100
AcDbEntity
  8
olcu
  6
ByBlock
 62
    0
370
   -2
100
AcDbTrace
 10
9.499999999999998
 20
-20.22635327358323
 30
0
 11
6.999999999999998
 21
-20.64263793135607
 31
0
 12
6.999999999999998
 22
-19.81006861581039
 32
0
 13
6.999999999999998
 23
-19.81006861581039
 33
0
  0
LINE
  5
114
100
AcDbEntity
  8
olcu
  6
ByBlock
 62
    0
370
   -2
100
AcDbLine
 10
-9.500000000000002
 20
-27.575
 11
-9.500000000000002
 21
-18.97635327358323
  0
LINE
  5
115
100
AcDbEntity
  8
olcu
  6
ByBlock
 62
    0
370
   -2
100
AcDbLine
 10
9.499999999999998
 20
-27.575
 11
9.499999999999998
 21
-18.97635327358323
  0
ENDBLK
  5
82
330
80
100
AcDbEntity
  8
0
100
AcDbBlockEnd
  0
BLOCK
  5
84
330
83
100
AcDbEntity
  8
0
100
AcDbBlockBegin
  2
*D23
 70
    1
 10
0
 20
0
  3
*D23
  1

  0
LINE
  5
116
100
AcDbEntity
  8
olcu
  6
ByBlock
 62
    0
370
   -2
100
AcDbLine
 10
36.12895711549469
 20
-44.2
 11
36.12895711549469
 21
-32
  0
MTEXT
  5
117
100
AcDbEntity
  8
olcu
  6
CONTINUOUS
 62
    0
370
   -2
100
AcDbMText
 10
34.50395711549469
 20
-34.81944444444444
 30
0
 40
2
 41
3.111111111111111
 71
    5
 72
    1
  1
2.2
  7
standard
210
0
220
0
230
1
 50
90
 73
    2
 44
1
  0
SOLID
  5
118
100
AcDbEntity
  8
olcu
  6
ByBlock
 62
    0
370
   -2
100
AcDbTrace
 10
36.12895711549469
 20
-39.2
 30
0
 11
36.54524177326753
 21
-41.7
 31
0
 12
35.71267245772184
 22
-41.7
 32
0
 13
35.71267245772184
 23
-41.7
 33
0
  0
SOLID
  5
119
100
AcDbEntity
  8
olcu
  6
ByBlock
 62
    0
370
   -2
100
AcDbTrace
 10
36.12895711549469
 20
-37
 30
0
 11
35.71267245772184
 21
-34.5
 31
0
 12
36.54524177326753
 22
-34.5
 32
0
 13
36.54524177326753
 23
-34.5
 33
0
  0
LINE
  5
11A
100
AcDbEntity
  8
olcu
  6
ByBlock
 62
    0
370
   -2
100
AcDbLine
 10
10.125
 20
-39.2
 11
37.37895711549469
 21
-39.2
  0
LINE
  5
11B
100
AcDbEntity
  8
olcu
  6
ByBlock
 62
    0
370
   -2
100
AcDbLine
 10
10.125
 20
-37
 11
37.37895711549469
 21
-37
  0
ENDBLK
  5
85
330
83
100
AcDbEntity
  8
0
100
AcDbBlockEnd
  0
BLOCK
  5
87
330
86
100
AcDbEntity
  8
0
100
AcDbBlockBegin
  2
*D31
 70
    1
 10
0
 20
0
  3
*D31
  1

  0
LINE
  5
11C
100
AcDbEntity
  8
olcu
  6
ByBlock
 62
    0
370
   -2
100
AcDbLine
 10
8.777424707819547
 20
-104.2391771452282
 11
13.05340472154359
 21
-106.010346059349
  0
LINE
  5
11D
100
AcDbEntity
  8
olcu
  6
ByBlock
 62
    0
370
   -2
100
AcDbLine
 10
8.777424707819547
 20
-94.76082285477182
 11
13.05340472154359
 21
-92.98965394065102
  0
ARC
  5
11E
100
AcDbEntity
  8
olcu
  6
ByBlock
 62
    0
370
   -2
100
AcDbCircle
 10
-2.663961030678931
 20
-99.5
 40
15.76235409934845
100
AcDbArc
 50
337.5
 51
22.50000000000002
  0
SOLID
  5
11F
100
AcDbEntity
  8
olcu
  6
ByBlock
 62
    0
370
   -2
100
AcDbTrace
 10
11.89855530590448
 20
-105.5319917688926
 30
0
 11
12.27327500656209
 21
-103.0254247815101
 31
0
 12
13.06529156714691
 22
-103.2820985685386
 32
0
 13
13.06529156714691
 23
-103.2820985685386
 33
0
  0
SOLID
  5
120
100
AcDbEntity
  8
olcu
  6
ByBlock
 62
    0
370
   -2
100
AcDbTrace
 10
11.89855530590448
 20
-93.46800823110739
 30
0
 11
13.06529156714691
 21
-95.71790143146137
 31
0
 12
12.27327500656209
 22
-95.97457521848996
 32
0
 13
12.27327500656209
 23
-95.97457521848996
 33
0
  0
MTEXT
  5
121
100
AcDbEntity
  8
olcu
  6
CONTINUOUS
 62
    0
370
   -2
100
AcDbMText
 10
12.47339306866952
 20
-99.5
 30
0
 40
2
 41
4.000000000000124
 71
    8
 72
    1
  1
45%%D
  7
standard
210
0
220
0
230
1
 50
90
 73
    2
 44
1
  0
ENDBLK
  5
88
330
86
100
AcDbEntity
  8
0
100
AcDbBlockEnd
  0
BLOCK
  5
8A
330
89
100
AcDbEntity
  8
0
100
AcDbBlockBegin
  2
*D6
 70
    1
 10
0
 20
0
  3
*D6
  1

  0
LINE
  5
122
100
AcDbEntity
  8
olcu
  6
ByBlock
 62
    0
370
   -2
100
AcDbLine
 10
-34.92476471872473
 20
5.000000000000003
 11
-34.92476471872473
 21
-9.599999999999998
  0
MTEXT
  5
123
100
AcDbEntity
  8
olcu
  6
CONTINUOUS
 62
    0
370
   -2
100
AcDbMText
 10
-36.54976471872473
 20
-2.299999999999998
 30
0
 40
2
 41
3.333333333333457
 71
    5
 72
    1
  1
4.6
  7
standard
210
0
220
0
230
1
 50
90
 73
    2
 44
1
  0
SOLID
  5
124
100
AcDbEntity
  8
olcu
  6
ByBlock
 62
    0
370
   -2
100
AcDbTrace
 10
-34.92476471872473
 20
2.664535259100376e-015
 30
0
 11
-35.34104937649757
 21
2.500000000000003
 31
0
 12
-34.50848006095189
 22
2.500000000000003
 32
0
 13
-34.50848006095189
 23
2.500000000000003
 33
0
  0
SOLID
  5
125
100
AcDbEntity
  8
olcu
  6
ByBlock
 62
    0
370
   -2
100
AcDbTrace
 10
-34.92476471872473
 20
-4.599999999999999
 30
0
 11
-34.50848006095189
 21
-7.099999999999999
 31
0
 12
-35.34104937649757
 22
-7.099999999999999
 32
0
 13
-35.34104937649757
 23
-7.099999999999999
 33
0
  0
LINE
  5
126
100
AcDbEntity
  8
olcu
  6
ByBlock
 62
    0
370
   -2
100
AcDbLine
 10
-0.625
 20
7.653789711389858e-017
 11
-36.17476471872473
 21
2.817611053328173e-015
  0
LINE
  5
127
100
AcDbEntity
  8
olcu
  6
ByBlock
 62
    0
370
   -2
100
AcDbLine
 10
-17.625
 20
-4.6
 11
-36.17476471872473
 21
-4.599999999999999
  0
ENDBLK
  5
8B
330
89
100
AcDbEntity
  8
0
100
AcDbBlockEnd
  0
BLOCK
  5
8D
330
8C
100
AcDbEntity
  8
0
100
AcDbBlockBegin
  2
*D7
 70
    1
 10
0
 20
0
  3
*D7
  1

  0
LINE
  5
128
100
AcDbEntity
  8
olcu
  6
ByBlock
 62
    0
370
   -2
100
AcDbLine
 10
-34.97620944721951
 20
-26
 11
-34.97620944721951
 21
-4.599999999999999
  0
MTEXT
  5
129
100
AcDbEntity
  8
olcu
  6
CONTINUOUS
 62
    0
370
   -2
100
AcDbMText
 10
-36.60120944721951
 20
-15.3
 30
0
 40
2
 41
4.444444444444445
 71
    5
 72
    1
  1
21.4
  7
standard
210
0
220
0
230
1
 50
90
 73
    2
 44
1
  0
SOLID
  5
12A
100
AcDbEntity
  8
olcu
  6
ByBlock
 62
    0
370
   -2
100
AcDbTrace
 10
-34.97620944721951
 20
-26
 30
0
 11
-35.39249410499235
 21
-23.5
 31
0
 12
-34.55992478944667
 22
-23.5
 32
0
 13
-34.55992478944667
 23
-23.5
 33
0
  0
SOLID
  5
12B
100
AcDbEntity
  8
olcu
  6
ByBlock
 62
    0
370
   -2
100
AcDbTrace
 10
-34.97620944721951
 20
-4.599999999999999
 30
0
 11
-34.55992478944667
 21
-7.099999999999999
 31
0
 12
-35.39249410499235
 22
-7.099999999999999
 32
0
 13
-35.39249410499235
 23
-7.099999999999999
 33
0
  0
LINE
  5
12C
100
AcDbEntity
  8
olcu
  6
ByBlock
 62
    0
370
   -2
100
AcDbLine
 10
-29.625
 20
-26
 11
-36.22620944721951
 21
-26
  0
LINE
  5
12D
100
AcDbEntity
  8
olcu
  6
ByBlock
 62
    0
370
   -2
100
AcDbLine
 10
-17.625
 20
-4.6
 11
-36.22620944721951
 21
-4.599999999999999
  0
ENDBLK
  5
8E
330
8C
100
AcDbEntity
  8
0
100
AcDbBlockEnd
  0
BLOCK
  5
90
330
8F
100
AcDbEntity
  8
0
100
AcDbBlockBegin
  2
*D15
 70
    1
 10
0
 20
0
  3
*D15
  1

  0
LINE
  5
12E
100
AcDbEntity
  8
olcu
  6
ByBlock
 62
    0
370
   -2
100
AcDbLine
 10
-8.200000000000008
 20
-140.4838954750004
 11
8.199999999999992
 21
-140.4838954750004
  0
MTEXT
  5
12F
100
AcDbEntity
  8
olcu
  6
CONTINUOUS
 62
    0
370
   -2
100
AcDbMText
 10
-7.894106511053059e-015
 20
-138.8588954750004
 30
0
 40
2
 41
4.444444444444568
 71
    5
 72
    1
  1
16.4
  7
standard
210
0
220
0
230
1
 50
0
 73
    2
 44
1
  0
SOLID
  5
130
100
AcDbEntity
  8
olcu
  6
ByBlock
 62
    0
370
   -2
100
AcDbTrace
 10
-8.200000000000008
 20
-140.4838954750004
 30
0
 11
-5.700000000000008
 21
-140.0676108172276
 31
0
 12
-5.700000000000008
 22
-140.9001801327733
 32
0
 13
-5.700000000000008
 23
-140.9001801327733
 33
0
  0
SOLID
  5
131
100
AcDbEntity
  8
olcu
  6
ByBlock
 62
    0
370
   -2
100
AcDbTrace
 10
8.199999999999992
 20
-140.4838954750004
 30
0
 11
5.699999999999992
 21
-140.9001801327733
 31
0
 12
5.699999999999992
 22
-140.0676108172276
 32
0
 13
5.699999999999992
 23
-140.0676108172276
 33
0
  0
LINE
  5
132
100
AcDbEntity
  8
olcu
  6
ByBlock
 62
    0
370
   -2
100
AcDbLine
 10
-8.200000000000006
 20
-119.125
 11
-8.200000000000008
 21
-141.7338954750004
  0
LINE
  5
133
100
AcDbEntity
  8
olcu
  6
ByBlock
 62
    0
370
   -2
100
AcDbLine
 10
8.199999999999992
 20
-116.125
 11
8.199999999999992
 21
-141.7338954750004
  0
ENDBLK
  5
91
330
8F
100
AcDbEntity
  8
0
100
AcDbBlockEnd
  0
BLOCK
  5
93
330
92
100
AcDbEntity
  8
0
100
AcDbBlockBegin
  2
*D18
 70
    1
 10
0
 20
0
  3
*D18
  1

  0
LINE
  5
134
100
AcDbEntity
  8
olcu
  6
ByBlock
 62
    0
370
   -2
100
AcDbLine
 10
-6.000000000000003
 20
-26
 11
5.999999999999998
 21
-26
  0
MTEXT
  5
135
100
AcDbEntity
  8
olcu
  6
CONTINUOUS
 62
    0
370
   -2
100
AcDbMText
 10
-1.954413329308471e-015
 20
-24.375
 30
0
 40
2
 41
0.8888888888888888
 71
    5
 72
    1
  1
2
  7
standard
210
0
220
0
230
1
 50
0
 73
    2
 44
1
  0
SOLID
  5
136
100
AcDbEntity
  8
olcu
  6
ByBlock
 62
    0
370
   -2
100
AcDbTrace
 10
-1.000000000000002
 20
-26
 30
0
 11
-3.500000000000003
 21
-26.41628465777284
 31
0
 12
-3.500000000000003
 22
-25.58371534222716
 32
0
 13
-3.500000000000003
 23
-25.58371534222716
 33
0
  0
SOLID
  5
137
100
AcDbEntity
  8
olcu
  6
ByBlock
 62
    0
370
   -2
100
AcDbTrace
 10
0.9999999999999983
 20
-26
 30
0
 11
3.499999999999998
 21
-25.58371534222716
 31
0
 12
3.499999999999998
 22
-26.41628465777284
 32
0
 13
3.499999999999998
 23
-26.41628465777284
 33
0
  0
LINE
  5
138
100
AcDbEntity
  8
olcu
  6
ByBlock
 62
    0
370
   -2
100
AcDbLine
 10
-1.000000000000002
 20
-27.575
 11
-1.000000000000003
 21
-24.75
  0
LINE
  5
139
100
AcDbEntity
  8
olcu
  6
ByBlock
 62
    0
370
   -2
100
AcDbLine
 10
0.9999999999999983
 20
-27.575
 11
0.9999999999999984
 21
-24.75
  0
ENDBLK
  5
94
330
92
100
AcDbEntity
  8
0
100
AcDbBlockEnd
  0
BLOCK
  5
96
330
95
100
AcDbEntity
  8
0
100
AcDbBlockBegin
  2
*D29
 70
    1
 10
0
 20
0
  3
*D29
  1

  0
LINE
  5
13A
100
AcDbEntity
  8
olcu
  6
ByBlock
 62
    0
370
   -2
100
AcDbLine
 10
18.19999999999999
 20
-120.5
 11
18.19999999999999
 21
-108
  0
MTEXT
  5
13B
100
AcDbEntity
  8
olcu
  6
CONTINUOUS
 62
    0
370
   -2
100
AcDbMText
 10
16.48461026867329
 20
-121.530369412146
 30
0
 40
2
 41
3.111111111111235
 71
    5
 72
    1
  1
2.5
  7
standard
210
0
220
0
230
1
 50
90
 73
    2
 44
1
  0
SOLID
  5
13C
100
AcDbEntity
  8
olcu
  6
ByBlock
 62
    0
370
   -2
100
AcDbTrace
 10
18.19999999999999
 20
-115.5
 30
0
 11
18.61628465777283
 21
-118
 31
0
 12
17.78371534222715
 22
-118
 32
0
 13
17.78371534222715
 23
-118
 33
0
  0
SOLID
  5
13D
100
AcDbEntity
  8
olcu
  6
ByBlock
 62
    0
370
   -2
100
AcDbTrace
 10
18.19999999999999
 20
-113
 30
0
 11
17.78371534222715
 21
-110.5
 31
0
 12
18.61628465777283
 22
-110.5
 32
0
 13
18.61628465777283
 23
-110.5
 33
0
  0
LINE
  5
13E
100
AcDbEntity
  8
olcu
  6
ByBlock
 62
    0
370
   -2
100
AcDbLine
 10
8.824999999999992
 20
-115.5
 11
19.44999999999999
 21
-115.5
  0
LINE
  5
13F
100
AcDbEntity
  8
olcu
  6
ByBlock
 62
    0
370
   -2
100
AcDbLine
 10
8.825000000000008
 20
-113
 11
19.44999999999999
 21
-113
  0
ENDBLK
  5
97
330
95
100
AcDbEntity
  8
0
100
AcDbBlockEnd
  0
BLOCK
  5
99
330
98
100
AcDbEntity
  8
0
100
AcDbBlockBegin
  2
*D14
 70
    1
 10
0
 20
0
  3
*D14
  1

  0
LINE
  5
140
100
AcDbEntity
  8
olcu
  6
ByBlock
 62
    0
370
   -2
100
AcDbLine
 10
-0.933954401053767
 20
-125.6442840676895
 11
-4.915111643995987
 21
-130.0658071252039
  0
LINE
  5
141
100
AcDbEntity
  8
olcu
  6
ByBlock
 62
    0
370
   -2
100
AcDbLine
 10
8.199999999999992
 20
-125.625
 11
8.199999999999989
 21
-135.1002268008082
  0
ARC
  5
142
100
AcDbEntity
  8
olcu
  6
ByBlock
 62
    0
370
   -2
100
AcDbCircle
 10
8.199999999999992
 20
-115.5
 40
18.35022680080825
100
AcDbArc
 50
228
 51
270
  0
SOLID
  5
143
100
AcDbEntity
  8
olcu
  6
ByBlock
 62
    0
370
   -2
100
AcDbTrace
 10
-4.078698386047414
 20
-129.1368760933572
 30
0
 11
-1.854436047885786
 21
-130.3517629059175
 31
0
 12
-2.368127632930072
 22
-131.006967164636
 32
0
 13
-2.368127632930072
 23
-131.006967164636
 33
0
  0
SOLID
  5
144
100
AcDbEntity
  8
olcu
  6
ByBlock
 62
    0
370
   -2
100
AcDbTrace
 10
8.199999999999989
 20
-133.8502268008082
 30
0
 11
5.677463023736809
 21
-134.0953800583474
 31
0
 12
5.734133003345098
 22
-133.2647416420679
 32
0
 13
5.734133003345098
 23
-133.2647416420679
 33
0
  0
MTEXT
  5
145
100
AcDbEntity
  8
olcu
  6
CONTINUOUS
 62
    0
370
   -2
100
AcDbMText
 10
1.847846816168929
 20
-132.0479247964582
 30
0
 40
2
 41
4
 71
    8
 72
    1
  1
42%%D
  7
standard
210
0
220
0
230
1
 50
-21.00000000000003
 73
    2
 44
1
  0
ENDBLK
  5
9A
330
98
100
AcDbEntity
  8
0
100
AcDbBlockEnd
  0
BLOCK
  5
9C
330
9B
100
AcDbEntity
  8
0
100
AcDbBlockBegin
  2
*D2
 70
    1
 10
0
 20
0
  3
*D2
  1

  0
LINE
  5
146
100
AcDbEntity
  8
olcu
  6
ByBlock
 62
    0
370
   -2
100
AcDbLine
 10
0
 20
5.224987241329215
 11
-10
 21
5.224987241329215
  0
MTEXT
  5
147
100
AcDbEntity
  8
olcu
  6
CONTINUOUS
 62
    0
370
   -2
100
AcDbMText
 10
-5
 20
6.849987241329215
 30
0
 40
2
 41
2
 71
    5
 72
    1
  1
10
  7
standard
210
0
220
0
230
1
 50
0
 73
    2
 44
1
  0
SOLID
  5
148
100
AcDbEntity
  8
olcu
  6
ByBlock
 62
    0
370
   -2
100
AcDbTrace
 10
0
 20
5.224987241329215
 30
0
 11
-2.5
 21
4.808702583556374
 31
0
 12
-2.5
 22
5.641271899102056
 32
0
 13
-2.5
 23
5.641271899102056
 33
0
  0
SOLID
  5
149
100
AcDbEntity
  8
olcu
  6
ByBlock
 62
    0
370
   -2
100
AcDbTrace
 10
-10
 20
5.224987241329215
 30
0
 11
-7.5
 21
5.641271899102055
 31
0
 12
-7.5
 22
4.808702583556374
 32
0
 13
-7.5
 23
4.808702583556374
 33
0
  0
LINE
  5
14A
100
AcDbEntity
  8
olcu
  6
ByBlock
 62
    0
370
   -2
100
AcDbLine
 10
3.826894855694929e-017
 20
0.625
 11
7.653789711389858e-017
 21
6.474987241329215
  0
LINE
  5
14B
100
AcDbEntity
  8
olcu
  6
ByBlock
 62
    0
370
   -2
100
AcDbLine
 10
-10
 20
-3.975
 11
-10
 21
6.474987241329215
  0
ENDBLK
  5
9D
330
9B
100
AcDbEntity
  8
0
100
AcDbBlockEnd
  0
BLOCK
  5
9F
330
9E
100
AcDbEntity
  8
0
100
AcDbBlockBegin
  2
*D25
 70
    1
 10
0
 20
0
  3
*D25
  1

  0
LINE
  5
14C
100
AcDbEntity
  8
olcu
  6
ByBlock
 62
    0
370
   -2
100
AcDbLine
 10
18.19999999999999
 20
-99.99999999999999
 11
18.19999999999999
 21
-87
  0
MTEXT
  5
14D
100
AcDbEntity
  8
olcu
  6
CONTINUOUS
 62
    0
370
   -2
100
AcDbMText
 10
16.57499999999999
 20
-93.5
 30
0
 40
2
 41
0.8888888888890129
 71
    5
 72
    1
  1
3
  7
standard
210
0
220
0
230
1
 50
90
 73
    2
 44
1
  0
SOLID
  5
14E
100
AcDbEntity
  8
olcu
  6
ByBlock
 62
    0
370
   -2
100
AcDbTrace
 10
18.19999999999999
 20
-94.99999999999999
 30
0
 11
18.61628465777283
 21
-97.49999999999999
 31
0
 12
17.78371534222715
 22
-97.49999999999999
 32
0
 13
17.78371534222715
 23
-97.49999999999999
 33
0
  0
SOLID
  5
14F
100
AcDbEntity
  8
olcu
  6
ByBlock
 62
    0
370
   -2
100
AcDbTrace
 10
18.19999999999999
 20
-92
 30
0
 11
17.78371534222715
 21
-89.5
 31
0
 12
18.61628465777283
 22
-89.5
 32
0
 13
18.61628465777283
 23
-89.5
 33
0
  0
LINE
  5
150
100
AcDbEntity
  8
olcu
  6
ByBlock
 62
    0
370
   -2
100
AcDbLine
 10
8.824999999999994
 20
-94.99999999999999
 11
19.44999999999999
 21
-94.99999999999999
  0
LINE
  5
151
100
AcDbEntity
  8
olcu
  6
ByBlock
 62
    0
370
   -2
100
AcDbLine
 10
8.824999999999992
 20
-92
 11
19.44999999999999
 21
-92
  0
ENDBLK
  5
A0
330
9E
100
AcDbEntity
  8
0
100
AcDbBlockEnd
  0
BLOCK
  5
A2
330
A1
100
AcDbEntity
  8
0
100
AcDbBlockBegin
  2
*D12
 70
    1
 10
0
 20
0
  3
*D12
  1

  0
LINE
  5
152
100
AcDbEntity
  8
olcu
  6
ByBlock
 62
    0
370
   -2
100
AcDbLine
 10
-8.671693487639239
 20
-118.0899631068809
 11
-18.41207206195082
 21
-109.6227811909225
  0
ARC
  5
153
100
AcDbEntity
  8
olcu
  6
ByBlock
 62
    0
370
   -2
100
AcDbCircle
 10
-8.200000000000006
 20
-118.5
 40
12.28112817109922
100
AcDbArc
 50
90
 51
139
  0
SOLID
  5
154
100
AcDbEntity
  8
olcu
  6
ByBlock
 62
    0
370
   -2
100
AcDbTrace
 10
-8.200000000000006
 20
-106.2188718289008
 30
0
 11
-10.64476441905665
 21
-106.8870184083365
 31
0
 12
-10.7293589013912
 22
-106.0587579186675
 32
0
 13
-10.7293589013912
 23
-106.0587579186675
 33
0
  0
SOLID
  5
155
100
AcDbEntity
  8
olcu
  6
ByBlock
 62
    0
370
   -2
100
AcDbTrace
 10
-17.46868508667236
 20
-110.4428549771607
 30
0
 11
-15.93011584383713
 21
-108.4288794059835
 31
0
 12
-15.36051869130228
 22
-109.0361114448388
 32
0
 13
-15.36051869130228
 23
-109.0361114448388
 33
0
  0
MTEXT
  5
156
100
AcDbEntity
  8
olcu
  6
CONTINUOUS
 62
    0
370
   -2
100
AcDbMText
 10
-13.55208414141018
 20
-106.755923207331
 30
0
 40
2
 41
4
 71
    8
 72
    1
  1
49%%D
  7
standard
210
0
220
0
230
1
 50
384.5
 73
    2
 44
1
  0
ENDBLK
  5
A3
330
A1
100
AcDbEntity
  8
0
100
AcDbBlockEnd
  0
BLOCK
  5
A5
330
A4
100
AcDbEntity
  8
0
100
AcDbBlockBegin
  2
*D3
 70
    1
 10
0
 20
0
  3
*D3
  1

  0
LINE
  5
157
100
AcDbEntity
  8
olcu
  6
ByBlock
 62
    0
370
   -2
100
AcDbLine
 10
0
 20
10.92497332277927
 11
-17
 21
10.92497332277927
  0
MTEXT
  5
158
100
AcDbEntity
  8
olcu
  6
CONTINUOUS
 62
    0
370
   -2
100
AcDbMText
 10
-8.5
 20
12.54997332277927
 30
0
 40
2
 41
2
 71
    5
 72
    1
  1
17
  7
standard
210
0
220
0
230
1
 50
0
 73
    2
 44
1
  0
SOLID
  5
159
100
AcDbEntity
  8
olcu
  6
ByBlock
 62
    0
370
   -2
100
AcDbTrace
 10
0
 20
10.92497332277927
 30
0
 11
-2.5
 21
10.50868866500643
 31
0
 12
-2.5
 22
11.34125798055211
 32
0
 13
-2.5
 23
11.34125798055211
 33
0
  0
SOLID
  5
15A
100
AcDbEntity
  8
olcu
  6
ByBlock
 62
    0
370
   -2
100
AcDbTrace
 10
-17
 20
10.92497332277927
 30
0
 11
-14.5
 21
11.34125798055211
 31
0
 12
-14.5
 22
10.50868866500643
 32
0
 13
-14.5
 23
10.50868866500643
 33
0
  0
LINE
  5
15B
100
AcDbEntity
  8
olcu
  6
ByBlock
 62
    0
370
   -2
100
AcDbLine
 10
3.826894855694929e-017
 20
0.625
 11
7.653789711389858e-017
 21
12.17497332277927
  0
LINE
  5
15C
100
AcDbEntity
  8
olcu
  6
ByBlock
 62
    0
370
   -2
100
AcDbLine
 10
-17
 20
-3.975
 11
-17
 21
12.17497332277927
  0
ENDBLK
  5
A6
330
A4
100
AcDbEntity
  8
0
100
AcDbBlockEnd
  0
BLOCK
  5
A8
330
A7
100
AcDbEntity
  8
0
100
AcDbBlockBegin
  2
*D30
 70
    1
 10
0
 20
0
  3
*D30
  1

  0
LINE
  5
15D
100
AcDbEntity
  8
olcu
  6
ByBlock
 62
    0
370
   -2
100
AcDbLine
 10
8.711970027680612
 20
-113.3584852727194
 11
34.40655607271369
 21
-131.3500281126295
  0
LINE
  5
15E
100
AcDbEntity
  8
olcu
  6
ByBlock
 62
    0
370
   -2
100
AcDbLine
 10
8.711970027680614
 20
-106.6415147272806
 11
34.4065560727137
 21
-88.64997188737051
  0
ARC
  5
15F
100
AcDbEntity
  8
olcu
  6
ByBlock
 62
    0
370
   -2
100
AcDbCircle
 10
3.915555979773643
 20
-110
 40
35.97263809938435
100
AcDbArc
 50
325.0000000000001
 51
34.99999999999986
  0
SOLID
  5
160
100
AcDbEntity
  8
olcu
  6
ByBlock
 62
    0
370
   -2
100
AcDbTrace
 10
33.38261601735245
 20
-130.6330575671907
 30
0
 11
34.39545488782954
 21
-128.309816223992
 31
0
 12
35.09363463653752
 22
-128.7633762571544
 32
0
 13
35.09363463653752
 23
-128.7633762571544
 33
0
  0
SOLID
  5
161
100
AcDbEntity
  8
olcu
  6
ByBlock
 62
    0
370
   -2
100
AcDbTrace
 10
33.38261601735245
 20
-89.36694243280931
 30
0
 11
35.09363463653752
 21
-91.23662374284561
 31
0
 12
34.39545488782955
 22
-91.69018377600801
 32
0
 13
34.39545488782955
 23
-91.69018377600801
 33
0
  0
MTEXT
  5
162
100
AcDbEntity
  8
olcu
  6
CONTINUOUS
 62
    0
370
   -2
100
AcDbMText
 10
39.26319407915799
 20
-110
 30
0
 40
2
 41
3.777777777777778
 71
    8
 72
    1
  1
70%%D
  7
standard
210
0
220
0
230
1
 50
89.99999999999997
 73
    2
 44
1
  0
ENDBLK
  5
A9
330
A7
100
AcDbEntity
  8
0
100
AcDbBlockEnd
  0
BLOCK
  5
AB
330
AA
100
AcDbEntity
  8
0
100
AcDbBlockBegin
  2
*D1
 70
    1
 10
0
 20
0
  3
*D1
  1

  0
LINE
  5
163
100
AcDbEntity
  8
olcu
  6
ByBlock
 62
    0
370
   -2
100
AcDbLine
 10
30.77930840089029
 20
-63.5
 11
30.77930840089029
 21
-115.5
  0
MTEXT
  5
164
100
AcDbEntity
  8
olcu
  6
CONTINUOUS
 62
    0
370
   -2
100
AcDbMText
 10
29.15430840089029
 20
-89.5
 30
0
 40
2
 41
2.444444444444568
 71
    5
 72
    1
  1
52
  7
standard
210
0
220
0
230
1
 50
90
 73
    2
 44
1
  0
SOLID
  5
165
100
AcDbEntity
  8
olcu
  6
ByBlock
 62
    0
370
   -2
100
AcDbTrace
 10
30.77930840089029
 20
-63.5
 30
0
 11
31.19559305866313
 21
-66
 31
0
 12
30.36302374311745
 22
-66
 32
0
 13
30.36302374311745
 23
-66
 33
0
  0
SOLID
  5
166
100
AcDbEntity
  8
olcu
  6
ByBlock
 62
    0
370
   -2
100
AcDbTrace
 10
30.77930840089029
 20
-115.5
 30
0
 11
30.36302374311745
 21
-113
 31
0
 12
31.19559305866313
 22
-113
 32
0
 13
31.19559305866313
 23
-113
 33
0
  0
LINE
  5
167
100
AcDbEntity
  8
olcu
  6
ByBlock
 62
    0
370
   -2
100
AcDbLine
 10
11.125
 20
-63.5
 11
32.02930840089029
 21
-63.5
  0
LINE
  5
168
100
AcDbEntity
  8
olcu
  6
ByBlock
 62
    0
370
   -2
100
AcDbLine
 10
8.824999999999992
 20
-115.5
 11
32.02930840089029
 21
-115.5
  0
ENDBLK
  5
AC
330
AA
100
AcDbEntity
  8
0
100
AcDbBlockEnd
  0
BLOCK
  5
AE
330
AD
100
AcDbEntity
  8
0
100
AcDbBlockBegin
  2
*D20
 70
    1
 10
0
 20
0
  3
*D20
  1

  0
LINE
  5
169
100
AcDbEntity
  8
olcu
  6
ByBlock
 62
    0
370
   -2
100
AcDbLine
 10
36.20224100416709
 20
-33.2
 11
36.20224100416709
 21
-21
  0
MTEXT
  5
16A
100
AcDbEntity
  8
olcu
  6
CONTINUOUS
 62
    0
370
   -2
100
AcDbMText
 10
34.57724100416709
 20
-23.81944444444444
 30
0
 40
2
 41
3.111111111111111
 71
    5
 72
    1
  1
2.2
  7
standard
210
0
220
0
230
1
 50
90
 73
    2
 44
1
  0
SOLID
  5
16B
100
AcDbEntity
  8
olcu
  6
ByBlock
 62
    0
370
   -2
100
AcDbTrace
 10
36.20224100416709
 20
-28.2
 30
0
 11
36.61852566193993
 21
-30.7
 31
0
 12
35.78595634639424
 22
-30.7
 32
0
 13
35.78595634639424
 23
-30.7
 33
0
  0
SOLID
  5
16C
100
AcDbEntity
  8
olcu
  6
ByBlock
 62
    0
370
   -2
100
AcDbTrace
 10
36.20224100416709
 20
-26
 30
0
 11
35.78595634639424
 21
-23.5
 31
0
 12
36.61852566193993
 22
-23.5
 32
0
 13
36.61852566193993
 23
-23.5
 33
0
  0
LINE
  5
16D
100
AcDbEntity
  8
olcu
  6
ByBlock
 62
    0
370
   -2
100
AcDbLine
 10
10.125
 20
-28.2
 11
37.45224100416709
 21
-28.2
  0
LINE
  5
16E
100
AcDbEntity
  8
olcu
  6
ByBlock
 62
    0
370
   -2
100
AcDbLine
 10
29.625
 20
-26
 11
37.45224100416709
 21
-26
  0
ENDBLK
  5
AF
330
AD
100
AcDbEntity
  8
0
100
AcDbBlockEnd
  0
ENDSEC
  0
SECTION
  2
ENTITIES
  0
LINE
  5
16F
100
AcDbEntity
  8
ref
  6
ByLayer
 62
  256
370
   -1
100
AcDbLine
 10
-29
 20
0
 11
29
 21
0
  0
LINE
  5
170
100
AcDbEntity
  8
ref
  6
ByLayer
 62
  256
370
   -1
100
AcDbLine
 10
-29
 20
-26
 11
29
 21
-26
  0
LINE
  5
171
100
AcDbEntity
  8
0
  6
ByLayer
 62
  256
370
   -1
100
AcDbLine
 10
0
 20
0
 11
29
 21
-26
  0
LINE
  5
172
100
AcDbEntity
  8
ref
  6
ByLayer
 62
  256
370
   -1
100
AcDbLine
 10
29
 20
-7.102716852169788e-015
 11
29
 21
-26
  0
LINE
  5
173
100
AcDbEntity
  8
ref
  6
ByLayer
 62
  256
370
   -1
100
AcDbLine
 10
-10
 20
3.673819061467132e-015
 11
-10
 21
-26
  0
LINE
  5
174
100
AcDbEntity
  8
ref
  6
ByLayer
 62
  256
370
   -1
100
AcDbLine
 10
-17
 20
6.245492404494124e-015
 11
-17
 21
-26
  0
LINE
  5
175
100
AcDbEntity
  8
ref
  6
ByLayer
 62
  256
370
   -1
100
AcDbLine
 10
-29
 20
1.065407527825468e-014
 11
-29
 21
-26
  0
LINE
  5
176
100
AcDbEntity
  8
ref
  6
ByLayer
 62
  256
370
   -1
100
AcDbLine
 10
-29
 20
-4.6
 11
29
 21
-4.6
  0
LINE
  5
177
100
AcDbEntity
  8
0
  6
ByLayer
 62
  256
370
   -1
100
AcDbLine
 10
-17
 20
-15.24137931034483
 11
-17
 21
-4.6
  0
LINE
  5
178
100
AcDbEntity
  8
0
  6
ByLayer
 62
  256
370
   -1
100
AcDbLine
 10
-17
 20
-4.6
 11
-10
 21
-4.6
  0
LINE
  5
179
100
AcDbEntity
  8
0
  6
ByLayer
 62
  256
370
   -1
100
AcDbLine
 10
-10
 20
-4.6
 11
-10
 21
-8.96551724137931
  0
LINE
  5
17A
100
AcDbEntity
  8
0
  6
ByLayer
 62
  256
370
   -1
100
AcDbLine
 10
-17
 20
-15.24137931034483
 11
-29
 21
-26
  0
LINE
  5
17B
100
AcDbEntity
  8
0
  6
ByLayer
 62
  256
370
   -1
100
AcDbLine
 10
0
 20
0
 11
-10
 21
-8.96551724137931
  0
LINE
  5
17C
100
AcDbEntity
  8
ref
  6
ByLayer
 62
  256
370
   -1
100
AcDbLine
 10
20.7
 20
-5.069870304824641e-015
 11
20.69999999999999
 21
-125
  0
LINE
  5
17D
100
AcDbEntity
  8
ref
  6
ByLayer
 62
  256
370
   -1
100
AcDbLine
 10
-20.7
 20
7.604805457236962e-015
 11
-20.70000000000001
 21
-125
  0
LINE
  5
17E
100
AcDbEntity
  8
0
  6
ByLayer
 62
  256
370
   -1
100
AcDbLine
 10
-29
 20
-26
 11
-20.7
 21
-26
  0
LINE
  5
17F
100
AcDbEntity
  8
0
  6
ByLayer
 62
  256
370
   -1
100
AcDbLine
 10
20.7
 20
-26
 11
29
 21
-26
  0
LINE
  5
180
100
AcDbEntity
  8
ref
  6
ByLayer
 62
  256
370
   -1
100
AcDbLine
 10
20.7
 20
-50.5
 11
28.99999999999999
 21
-50.5
  0
LINE
  5
181
100
AcDbEntity
  8
ref
  6
ByLayer
 62
  256
370
   -1
100
AcDbLine
 10
-29
 20
-50.5
 11
-20.7
 21
-50.5
  0
LINE
  5
182
100
AcDbEntity
  8
ref
  6
ByLayer
 62
  256
370
   -1
100
AcDbLine
 10
-29
 20
-57.5
 11
-10.5
 21
-57.5
  0
LINE
  5
183
100
AcDbEntity
  8
ref
  6
ByLayer
 62
  256
370
   -1
100
AcDbLine
 10
10.5
 20
-57.5
 11
28.99999999999999
 21
-57.5
  0
LINE
  5
184
100
AcDbEntity
  8
0
  6
ByLayer
 62
  256
370
   -1
100
AcDbLine
 10
-20.7
 20
-26
 11
-20.7
 21
-50.5
  0
LINE
  5
185
100
AcDbEntity
  8
0
  6
ByLayer
 62
  256
370
   -1
100
AcDbLine
 10
20.7
 20
-26
 11
20.7
 21
-50.5
  0
LINE
  5
186
100
AcDbEntity
  8
0
  6
ByLayer
 62
  256
370
   -1
100
AcDbLine
 10
-20.7
 20
-50.5
 11
-10.5
 21
-57.5
  0
LINE
  5
187
100
AcDbEntity
  8
0
  6
ByLayer
 62
  256
370
   -1
100
AcDbLine
 10
-10.5
 20
-57.5
 11
-10.5
 21
-63.5
  0
LINE
  5
188
100
AcDbEntity
  8
0
  6
ByLayer
 62
  256
370
   -1
100
AcDbLine
 10
20.7
 20
-50.5
 11
10.5
 21
-57.5
  0
LINE
  5
189
100
AcDbEntity
  8
0
  6
ByLayer
 62
  256
370
   -1
100
AcDbLine
 10
10.5
 20
-57.5
 11
10.5
 21
-63.5
  0
LINE
  5
18A
100
AcDbEntity
  8
ref
  6
ByLayer
 62
  256
370
   -1
100
AcDbLine
 10
-29
 20
-63.5
 11
-3.888125173386048e-015
 21
-63.5
  0
LINE
  5
18B
100
AcDbEntity
  8
ref
  6
ByLayer
 62
  256
370
   -1
100
AcDbLine
 10
-3.888125173386048e-015
 20
-63.5
 11
28.99999999999999
 21
-63.5
  0
LINE
  5
18C
100
AcDbEntity
  8
ref
  6
ByLayer
 62
  256
370
   -1
100
AcDbLine
 10
-8.200000000000003
 20
-63.5
 11
-8.200000000000006
 21
-125
  0
LINE
  5
18D
100
AcDbEntity
  8
ref
  6
ByLayer
 62
  256
370
   -1
100
AcDbLine
 10
8.199999999999996
 20
-63.5
 11
8.199999999999992
 21
-125
  0
LINE
  5
18E
100
AcDbEntity
  8
ref
  6
ByLayer
 62
  256
370
   -1
100
AcDbLine
 10
-29.00000000000002
 20
-118.5
 11
28.99999999999998
 21
-118.5
  0
LINE
  5
18F
100
AcDbEntity
  8
0
  6
ByLayer
 62
  256
370
   -1
100
AcDbLine
 10
-10.5
 20
-63.5
 11
-8.200000000000003
 21
-63.5
  0
LINE
  5
190
100
AcDbEntity
  8
0
  6
ByLayer
 62
  256
370
   -1
100
AcDbLine
 10
-8.200000000000003
 20
-63.5
 11
-8.200000000000006
 21
-118.5
  0
LINE
  5
191
100
AcDbEntity
  8
0
  6
ByLayer
 62
  256
370
   -1
100
AcDbLine
 10
10.5
 20
-63.5
 11
8.199999999999996
 21
-63.5
  0
LINE
  5
192
100
AcDbEntity
  8
ref
  6
ByLayer
 62
  256
370
   -1
100
AcDbLine
 10
0
 20
0
 11
-7.833379515292531e-015
 21
-127.9330209392123
  0
DIMENSION
  5
193
100
AcDbEntity
  8
olcu
  6
ByLayer
 62
  256
370
   -1
100
AcDbDimension
  2
*D1
 10
30.77930840089029
 20
-115.5
 30
0
 11
29.15430840089029
 21
-89.5
 31
0
 70
   32
 71
    5
  3
Standard
 53
0
210
0
220
0
230
1
100
AcDbAlignedDimension
 13
10.5
 23
-63.5
 33
0
 14
8.199999999999992
 24
-115.5
 34
0
 50
90
100
AcDbRotatedDimension
  0
LINE
  5
194
100
AcDbEntity
  8
ref
  6
ByLayer
 62
  256
370
   -1
100
AcDbLine
 10
8.199999999999992
 20
-115.5
 11
18.19999999999999
 21
-115.5
  0
LINE
  5
195
100
AcDbEntity
  8
ref
  6
ByLayer
 62
  256
370
   -1
100
AcDbLine
 10
8.199999999999992
 20
-113
 11
18.19999999999999
 21
-113
  0
LINE
  5
196
100
AcDbEntity
  8
ref
  6
ByLayer
 62
  256
370
   -1
100
AcDbLine
 10
8.199999999999992
 20
-107
 11
18.19999999999999
 21
-107
  0
LINE
  5
197
100
AcDbEntity
  8
ref
  6
ByLayer
 62
  256
370
   -1
100
AcDbLine
 10
8.199999999999992
 20
-104
 11
18.19999999999999
 21
-104
  0
LINE
  5
198
100
AcDbEntity
  8
ref
  6
ByLayer
 62
  256
370
   -1
100
AcDbLine
 10
8.199999999999992
 20
-95
 11
18.19999999999999
 21
-95
  0
LINE
  5
199
100
AcDbEntity
  8
ref
  6
ByLayer
 62
  256
370
   -1
100
AcDbLine
 10
8.199999999999992
 20
-92
 11
18.19999999999999
 21
-92
  0
LINE
  5
19A
100
AcDbEntity
  8
ref
  6
ByLayer
 62
  256
370
   -1
100
AcDbLine
 10
8.199999999999992
 20
-83
 11
18.19999999999999
 21
-83
  0
LINE
  5
19B
100
AcDbEntity
  8
0
  6
ByLayer
 62
  256
370
   -1
100
AcDbLine
 10
-5.000000000000004
 20
-63.5
 11
-2.000000000000003
 21
-63.5
  0
LINE
  5
19C
100
AcDbEntity
  8
ince
  6
ByLayer
 62
  256
370
   -1
100
AcDbLine
 10
-8.200000000000003
 20
-63.5
 11
-5.000000000000004
 21
-63.5
  0
LINE
  5
19D
100
AcDbEntity
  8
0
  6
ByLayer
 62
  256
370
   -1
100
AcDbLine
 10
8.199999999999992
 20
-113
 11
3.915555979773628
 21
-110
  0
LINE
  5
19E
100
AcDbEntity
  8
0
  6
ByLayer
 62
  256
370
   -1
100
AcDbLine
 10
8.199999999999994
 20
-107
 11
3.915555979773628
 21
-110
  0
LINE
  5
19F
100
AcDbEntity
  8
0
  6
ByLayer
 62
  256
370
   -1
100
AcDbLine
 10
3.915555979773643
 20
-102.2253251795939
 11
3.915555979773643
 21
-96.77467482040606
  0
LINE
  5
1A0
100
AcDbEntity
  8
0
  6
ByLayer
 62
  256
370
   -1
100
AcDbLine
 10
3.915555979773643
 20
-90.22532517959394
 11
3.915555979773643
 21
-84.77467482040606
  0
LINE
  5
1A1
100
AcDbEntity
  8
0
  6
ByLayer
 62
  256
370
   -1
100
AcDbLine
 10
8.199999999999992
 20
-104
 11
3.915555979773642
 21
-102.2253251795939
  0
LINE
  5
1A2
100
AcDbEntity
  8
0
  6
ByLayer
 62
  256
370
   -1
100
AcDbLine
 10
8.199999999999992
 20
-95
 11
3.915555979773642
 21
-96.77467482040606
  0
LINE
  5
1A3
100
AcDbEntity
  8
0
  6
ByLayer
 62
  256
370
   -1
100
AcDbLine
 10
8.199999999999994
 20
-83
 11
3.915555979773642
 21
-84.77467482040606
  0
LINE
  5
1A4
100
AcDbEntity
  8
0
  6
ByLayer
 62
  256
370
   -1
100
AcDbLine
 10
8.199999999999994
 20
-92
 11
3.915555979773642
 21
-90.22532517959394
  0
LINE
  5
1A5
100
AcDbEntity
  8
0
  6
ByLayer
 62
  256
370
   -1
100
AcDbLine
 10
8.199999999999992
 20
-104
 11
8.199999999999994
 21
-107
  0
LINE
  5
1A6
100
AcDbEntity
  8
0
  6
ByLayer
 62
  256
370
   -1
100
AcDbLine
 10
8.199999999999996
 20
-63.5
 11
8.199999999999994
 21
-83
  0
LINE
  5
1A7
100
AcDbEntity
  8
0
  6
ByLayer
 62
  256
370
   -1
100
AcDbLine
 10
8.199999999999994
 20
-113
 11
8.199999999999992
 21
-115.5
  0
LINE
  5
1A8
100
AcDbEntity
  8
0
  6
ByLayer
 62
  256
370
   -1
100
AcDbLine
 10
8.199999999999994
 20
-92
 11
8.199999999999992
 21
-95
  0
LINE
  5
1A9
100
AcDbEntity
  8
ref
  6
ByLayer
 62
  256
370
   -1
100
AcDbLine
 10
-29
 20
-28.2
 11
29
 21
-28.2
  0
LINE
  5
1AA
100
AcDbEntity
  8
ref
  6
ByLayer
 62
  256
370
   -1
100
AcDbLine
 10
-29.00000000000001
 20
-37
 11
28.99999999999999
 21
-37
  0
LINE
  5
1AB
100
AcDbEntity
  8
ref
  6
ByLayer
 62
  256
370
   -1
100
AcDbLine
 10
-29.00000000000001
 20
-39.2
 11
28.99999999999999
 21
-39.2
  0
LINE
  5
1AC
100
AcDbEntity
  8
ref
  6
ByLayer
 62
  256
370
   -1
100
AcDbLine
 10
-29.00000000000001
 20
-48
 11
28.99999999999999
 21
-48
  0
LINE
  5
1AD
100
AcDbEntity
  8
ref
  6
ByLayer
 62
  256
370
   -1
100
AcDbLine
 10
0.9999999999999984
 20
-26
 11
0.999999999999996
 21
-63.5
  0
LINE
  5
1AE
100
AcDbEntity
  8
ref
  6
ByLayer
 62
  256
370
   -1
100
AcDbLine
 10
-1.000000000000002
 20
-26
 11
-1.000000000000004
 21
-63.5
  0
DIMENSION
  5
1AF
100
AcDbEntity
  8
olcu
  6
ByLayer
 62
  256
370
   -1
100
AcDbDimension
  2
*D2
 10
-10
 20
5.224987241329215
 30
0
 11
-5
 21
6.849987241329215
 31
0
 70
   32
 71
    5
  3
Standard
 53
0
210
0
220
0
230
1
100
AcDbAlignedDimension
 13
0
 23
0
 33
0
 14
-10
 24
-4.6
 34
0
100
AcDbRotatedDimension
  0
DIMENSION
  5
1B0
100
AcDbEntity
  8
olcu
  6
ByLayer
 62
  256
370
   -1
100
AcDbDimension
  2
*D3
 10
-17
 20
10.92497332277927
 30
0
 11
-8.5
 21
12.54997332277927
 31
0
 70
   32
 71
    5
  3
Standard
 53
0
210
0
220
0
230
1
100
AcDbAlignedDimension
 13
0
 23
0
 33
0
 14
-17
 24
-4.6
 34
0
100
AcDbRotatedDimension
  0
DIMENSION
  5
1B1
100
AcDbEntity
  8
olcu
  6
ByLayer
 62
  256
370
   -1
100
AcDbDimension
  2
*D4
 10
20.7
 20
16.92230867814497
 30
0
 11
-5.229571251952683e-015
 21
18.54730867814497
 31
0
 70
   32
 71
    5
  3
Standard
 53
0
210
0
220
0
230
1
100
AcDbAlignedDimension
 13
-20.7
 23
-26
 33
0
 14
20.7
 24
-26
 34
0
100
AcDbRotatedDimension
  0
DIMENSION
  5
1B2
100
AcDbEntity
  8
olcu
  6
ByLayer
 62
  256
370
   -1
100
AcDbDimension
  2
*D5
 10
28.9839542253334
 20
22.68309461113049
 30
0
 11
-1.676857573152182e-015
 21
24.30809461113049
 31
0
 70
   32
 71
    5
  3
Standard
 53
0
210
0
220
0
230
1
100
AcDbAlignedDimension
 13
-29
 23
-26
 33
0
 14
29
 24
-26
 34
0
100
AcDbRotatedDimension
  0
DIMENSION
  5
1B3
100
AcDbEntity
  8
olcu
  6
ByLayer
 62
  256
370
   -1
100
AcDbDimension
  2
*D6
 10
-34.92476471872473
 20
-4.599999999999997
 30
0
 11
-36.54976471872473
 21
-2.299999999999998
 31
0
 70
   32
 71
    5
  3
Standard
 53
0
210
0
220
0
230
1
100
AcDbAlignedDimension
 13
0
 23
0
 33
0
 14
-17
 24
-4.6
 34
0
 50
90
100
AcDbRotatedDimension
  0
DIMENSION
  5
1B4
100
AcDbEntity
  8
olcu
  6
ByLayer
 62
  256
370
   -1
100
AcDbDimension
  2
*D7
 10
-34.97620944721951
 20
-4.599999999999997
 30
0
 11
-36.60120944721951
 21
-15.3
 31
0
 70
   32
 71
    5
  3
Standard
 53
0
210
0
220
0
230
1
100
AcDbAlignedDimension
 13
-29
 23
-26
 33
0
 14
-17
 24
-4.6
 34
0
 50
90
100
AcDbRotatedDimension
  0
DIMENSION
  5
1B5
100
AcDbEntity
  8
olcu
  6
ByLayer
 62
  256
370
   -1
100
AcDbDimension
  2
*D8
 10
-35.00848051454871
 20
-26
 30
0
 11
-36.63348051454871
 21
-38.25
 31
0
 70
   32
 71
    5
  3
Standard
 53
0
210
0
220
0
230
1
100
AcDbAlignedDimension
 13
-20.70000000000001
 23
-50.5
 33
0
 14
-20.7
 24
-26
 34
0
 50
90
100
AcDbRotatedDimension
  0
DIMENSION
  5
1B6
100
AcDbEntity
  8
olcu
  6
ByLayer
 62
  256
370
   -1
100
AcDbDimension
  2
*D9
 10
-34.95874246632427
 20
-50.5
 30
0
 11
-36.58374246632427
 21
-54
 31
0
 70
   32
 71
    5
  3
Standard
 53
0
210
0
220
0
230
1
100
AcDbAlignedDimension
 13
-10.5
 23
-57.50000000000001
 33
0
 14
-20.70000000000001
 24
-50.5
 34
0
 50
90
100
AcDbRotatedDimension
  0
DIMENSION
  5
1B7
100
AcDbEntity
  8
olcu
  6
ByLayer
 62
  256
370
   -1
100
AcDbDimension
  2
*D10
 10
-34.95300758438299
 20
-57.5
 30
0
 11
-36.57800758438299
 21
-60.5
 31
0
 70
   32
 71
    5
  3
Standard
 53
0
210
0
220
0
230
1
100
AcDbAlignedDimension
 13
-10.5
 23
-63.5
 33
0
 14
-10.50000000000001
 24
-57.5
 34
0
 50
90
100
AcDbRotatedDimension
  0
DIMENSION
  5
1B8
100
AcDbEntity
  8
olcu
  6
ByLayer
 62
  256
370
   -1
100
AcDbDimension
  2
*D11
 10
-43.74596817860882
 20
-118.5
 30
0
 11
-45.37096817860882
 21
-59.25
 31
0
 70
   32
 71
    5
  3
Standard
 53
0
210
0
220
0
230
1
100
AcDbAlignedDimension
 13
0
 23
0
 33
0
 14
-8.200000000000006
 24
-118.5
 34
0
 50
90
100
AcDbRotatedDimension
  0
DIMENSION
  5
1B9
100
AcDbEntity
  8
olcu
  6
ByLayer
 62
  256
370
   -1
100
AcDbDimension
  2
*D12
 10
-8.200000000000006
 20
-118.5
 30
0
 11
0
 21
0
 31
0
 70
   34
 71
    5
  3
Standard
 53
0
210
0
220
0
230
1
100
AcDb2LineAngularDimension
 13
-8.200000000000006
 23
-118.5
 33
0
 14
-8.200000000000003
 24
-63.5
 34
0
 15
-0.652904197772286
 25
-125.0605902899051
 35
0
 16
-14.05091269180635
 26
-107.702179394534
 36
0
  0
LINE
  5
1BA
100
AcDbEntity
  8
0
  6
ByLayer
 62
  256
370
   -1
100
AcDbLine
 10
-5.000000000000003
 20
-63.5
 11
-5.000000000000007
 21
-121.2817175610119
  0
LINE
  5
1BB
100
AcDbEntity
  8
0
  6
ByLayer
 62
  256
370
   -1
100
AcDbLine
 10
-2.000000000000003
 20
-63.5
 11
-2.000000000000007
 21
-123.8895777744606
  0
LINE
  5
1BC
100
AcDbEntity
  8
0
  6
ByLayer
 62
  256
370
   -1
100
AcDbLine
 10
-0.5157477720794807
 20
-125.1798185517661
 11
8.199999999999992
 21
-115.5
  0
LINE
  5
1BD
100
AcDbEntity
  8
0
  6
ByLayer
 62
  256
370
   -1
100
AcDbLine
 10
-8.200000000000006
 20
-118.5
 11
-5.000000000000007
 21
-121.2817175610119
  0
LINE
  5
1BE
100
AcDbEntity
  8
0
  6
ByLayer
 62
  256
370
   -1
100
AcDbLine
 10
-2.000000000000007
 20
-123.8895777744606
 11
-0.5157477720794807
 21
-125.1798185517661
  0
LINE
  5
1BF
100
AcDbEntity
  8
ince
  6
ByLayer
 62
  256
370
   -1
100
AcDbLine
 10
-5.000000000000006
 20
-121.2817175610119
 11
-2.000000000000007
 21
-123.8895777744606
  0
DIMENSION
  5
1C0
100
AcDbEntity
  8
olcu
  6
ByLayer
 62
  256
370
   -1
100
AcDbDimension
  2
*D13
 10
10.5
 20
-54.57707683044204
 30
0
 11
-3.453214412552433e-015
 21
-52.95207683044204
 31
0
 70
   32
 71
    5
  3
Standard
 53
0
210
0
220
0
230
1
100
AcDbAlignedDimension
 13
-10.5
 23
-57.5
 33
0
 14
10.5
 24
-57.49999999999999
 34
0
100
AcDbRotatedDimension
  0
DIMENSION
  5
1C1
100
AcDbEntity
  8
olcu
  6
ByLayer
 62
  256
370
   -1
100
AcDbDimension
  2
*D14
 10
8.199999999999992
 20
-125
 30
0
 11
0
 21
0
 31
0
 70
   34
 71
    5
  3
Standard
 53
0
210
0
220
0
230
1
100
AcDb2LineAngularDimension
 13
8.199999999999992
 23
-115.5
 33
0
 14
-0.5157477720794807
 24
-125.1798185517661
 34
0
 15
8.199999999999996
 25
-63.5
 35
0
 16
4.16618907102611
 26
-133.4013740542561
 36
0
  0
DIMENSION
  5
1C2
100
AcDbEntity
  8
olcu
  6
ByLayer
 62
  256
370
   -1
100
AcDbDimension
  2
*D15
 10
8.19999999999999
 20
-140.4838954750004
 30
0
 11
-7.894106511053059e-015
 21
-138.8588954750004
 31
0
 70
   32
 71
    5
  3
Standard
 53
0
210
0
220
0
230
1
100
AcDbAlignedDimension
 13
-8.200000000000006
 23
-118.5
 33
0
 14
8.199999999999992
 24
-115.5
 34
0
100
AcDbRotatedDimension
  0
DIMENSION
  5
1C3
100
AcDbEntity
  8
olcu
  6
ByLayer
 62
  256
370
   -1
100
AcDbDimension
  2
*D16
 10
-2.000000000000004
 20
-75.04270200054066
 30
0
 11
-3.500000000000002
 21
-73.41770200054066
 31
0
 70
   32
 71
    5
  3
Standard
 53
0
210
0
220
0
230
1
100
AcDbAlignedDimension
 13
-5.000000000000002
 23
-63.5
 33
0
 14
-2.000000000000003
 24
-63.5
 34
0
100
AcDbRotatedDimension
  0
DIMENSION
  5
1C4
100
AcDbEntity
  8
olcu
  6
ByLayer
 62
  256
370
   -1
100
AcDbDimension
  2
*D17
 10
-5.000000000000004
 20
-69.91282979347245
 30
0
 11
-15.60946828722184
 21
-69.39984257276564
 31
0
 70
   32
 71
    5
  3
Standard
 53
0
210
0
220
0
230
1
100
AcDbAlignedDimension
 13
-8.200000000000003
 23
-63.5
 33
0
 14
-5.000000000000004
 24
-63.5
 34
0
100
AcDbRotatedDimension
  0
DIMENSION
  5
1C5
100
AcDbEntity
  8
olcu
  6
ByLayer
 62
  256
370
   -1
100
AcDbDimension
  2
*D18
 10
0.9999999999999984
 20
-26
 30
0
 11
-1.954413329308471e-015
 21
-24.375
 31
0
 70
   32
 71
    5
  3
Standard
 53
0
210
0
220
0
230
1
100
AcDbAlignedDimension
 13
-1.000000000000002
 23
-28.2
 33
0
 14
0.9999999999999983
 24
-28.2
 34
0
100
AcDbRotatedDimension
  0
LINE
  5
1C6
100
AcDbEntity
  8
ref
  6
ByLayer
 62
  256
370
   -1
100
AcDbLine
 10
9.499999999999998
 20
-28.2
 11
9.499999999999998
 21
-48
  0
LINE
  5
1C7
100
AcDbEntity
  8
ref
  6
ByLayer
 62
  256
370
   -1
100
AcDbLine
 10
-9.500000000000002
 20
-28.2
 11
-9.500000000000002
 21
-48
  0
DIMENSION
  5
1C8
100
AcDbEntity
  8
olcu
  6
ByLayer
 62
  256
370
   -1
100
AcDbDimension
  2
*D19
 10
9.499999999999998
 20
-20.22635327358323
 30
0
 11
-1.676857573152182e-015
 21
-18.60135327358323
 31
0
 70
   32
 71
    5
  3
Standard
 53
0
210
0
220
0
230
1
100
AcDbAlignedDimension
 13
-9.500000000000002
 23
-28.2
 33
0
 14
9.499999999999998
 24
-28.2
 34
0
100
AcDbRotatedDimension
  0
LWPOLYLINE
  5
1C9
100
AcDbEntity
  8
0
  6
ByLayer
 62
  256
370
   -1
100
AcDbPolyline
 90
    4
 70
    1
 43
0
 10
-9.500000000000002
 20
-28.2
 10
-1.000000000000002
 20
-28.2
 10
-1.000000000000002
 20
-37
 10
-9.500000000000002
 20
-37
  0
LWPOLYLINE
  5
1CA
100
AcDbEntity
  8
0
  6
ByLayer
 62
  256
370
   -1
100
AcDbPolyline
 90
    4
 70
    1
 43
0
 10
-9.500000000000002
 20
-39.2
 10
-1.000000000000003
 20
-39.2
 10
-1.000000000000003
 20
-48
 10
-9.500000000000002
 20
-48
  0
LWPOLYLINE
  5
1CB
100
AcDbEntity
  8
0
  6
ByLayer
 62
  256
370
   -1
100
AcDbPolyline
 90
    4
 70
    1
 43
0
 10
0.9999999999999983
 20
-28.2
 10
9.499999999999998
 20
-28.2
 10
9.499999999999998
 20
-37
 10
0.9999999999999983
 20
-37
  0
LWPOLYLINE
  5
1CC
100
AcDbEntity
  8
0
  6
ByLayer
 62
  256
370
   -1
100
AcDbPolyline
 90
    4
 70
    1
 43
0
 10
0.9999999999999977
 20
-39.2
 10
9.499999999999998
 20
-39.2
 10
9.499999999999998
 20
-48
 10
0.9999999999999977
 20
-48
  0
DIMENSION
  5
1CD
100
AcDbEntity
  8
olcu
  6
ByLayer
 62
  256
370
   -1
100
AcDbDimension
  2
*D20
 10
36.20224100416709
 20
-26
 30
0
 11
34.57724100416709
 21
-27.1
 31
0
 70
   32
 71
    5
  3
Standard
 53
0
210
0
220
0
230
1
100
AcDbAlignedDimension
 13
9.499999999999998
 23
-28.2
 33
0
 14
29
 24
-26
 34
0
 50
90
100
AcDbRotatedDimension
  0
DIMENSION
  5
1CE
100
AcDbEntity
  8
olcu
  6
ByLayer
 62
  256
370
   -1
100
AcDbDimension
  2
*D21
 10
40.89240987920088
 20
-37.00000000000001
 30
0
 11
39.26740987920088
 21
-31.5
 31
0
 70
   32
 71
    5
  3
Standard
 53
0
210
0
220
0
230
1
100
AcDbAlignedDimension
 13
29
 23
-26
 33
0
 14
9.499999999999998
 24
-37
 34
0
 50
90
100
AcDbRotatedDimension
  0
DIMENSION
  5
1CF
100
AcDbEntity
  8
olcu
  6
ByLayer
 62
  256
370
   -1
100
AcDbDimension
  2
*D22
 10
40.96569376787328
 20
-48.14751485776878
 30
0
 11
39.34069376787328
 21
-42.5
 31
0
 70
   32
 71
    5
  3
Standard
 53
0
210
0
220
0
230
1
100
AcDbAlignedDimension
 13
9.499999999999998
 23
-37
 33
0
 14
9.499999999999998
 24
-48
 34
0
 50
90
100
AcDbRotatedDimension
  0
DIMENSION
  5
1D0
100
AcDbEntity
  8
olcu
  6
ByLayer
 62
  256
370
   -1
100
AcDbDimension
  2
*D23
 10
36.12895711549469
 20
-36.86179600221871
 30
0
 11
34.50395711549469
 21
-38.1
 31
0
 70
   32
 71
    5
  3
Standard
 53
0
210
0
220
0
230
1
100
AcDbAlignedDimension
 13
9.499999999999998
 23
-39.2
 33
0
 14
9.499999999999998
 24
-37
 34
0
 50
90
100
AcDbRotatedDimension
  0
DIMENSION
  5
1D1
100
AcDbEntity
  8
olcu
  6
ByLayer
 62
  256
370
   -1
100
AcDbDimension
  2
*D24
 10
18.19999999999999
 20
-104
 30
0
 11
16.57499999999999
 21
-105.5
 31
0
 70
   32
 71
    5
  3
Standard
 53
0
210
0
220
0
230
1
100
AcDbAlignedDimension
 13
8.199999999999994
 23
-107
 33
0
 14
8.199999999999992
 24
-104
 34
0
 50
90
100
AcDbRotatedDimension
  0
DIMENSION
  5
1D2
100
AcDbEntity
  8
olcu
  6
ByLayer
 62
  256
370
   -1
100
AcDbDimension
  2
*D25
 10
18.19999999999999
 20
-92
 30
0
 11
16.57499999999999
 21
-93.5
 31
0
 70
   32
 71
    5
  3
Standard
 53
0
210
0
220
0
230
1
100
AcDbAlignedDimension
 13
8.199999999999994
 23
-94.99999999999999
 33
0
 14
8.199999999999992
 24
-92
 34
0
 50
90
100
AcDbRotatedDimension
  0
DIMENSION
  5
1D3
100
AcDbEntity
  8
olcu
  6
ByLayer
 62
  256
370
   -1
100
AcDbDimension
  2
*D26
 10
24.36350916285695
 20
-107
 30
0
 11
22.73850916285695
 21
-110
 31
0
 70
   32
 71
    5
  3
Standard
 53
0
210
0
220
0
230
1
100
AcDbAlignedDimension
 13
8.199999999999994
 23
-113
 33
0
 14
8.199999999999992
 24
-107
 34
0
 50
90
100
AcDbRotatedDimension
  0
DIMENSION
  5
1D4
100
AcDbEntity
  8
olcu
  6
ByLayer
 62
  256
370
   -1
100
AcDbDimension
  2
*D27
 10
24.36350916285695
 20
-95
 30
0
 11
22.73850916285695
 21
-99.5
 31
0
 70
   32
 71
    5
  3
Standard
 53
0
210
0
220
0
230
1
100
AcDbAlignedDimension
 13
8.199999999999994
 23
-104
 33
0
 14
8.19999999999999
 24
-95
 34
0
 50
90
100
AcDbRotatedDimension
  0
DIMENSION
  5
1D5
100
AcDbEntity
  8
olcu
  6
ByLayer
 62
  256
370
   -1
100
AcDbDimension
  2
*D28
 10
24.36350916285695
 20
-83
 30
0
 11
22.73850916285695
 21
-87.5
 31
0
 70
   32
 71
    5
  3
Standard
 53
0
210
0
220
0
230
1
100
AcDbAlignedDimension
 13
8.200000000000006
 23
-92
 33
0
 14
8.199999999999994
 24
-83
 34
0
 50
90
100
AcDbRotatedDimension
  0
DIMENSION
  5
1D6
100
AcDbEntity
  8
olcu
  6
ByLayer
 62
  256
370
   -1
100
AcDbDimension
  2
*D29
 10
18.19999999999999
 20
-113
 30
0
 11
16.48461026867329
 21
-124.9609249677016
 31
0
 70
   32
 71
    5
  3
Standard
 53
0
210
0
220
0
230
1
100
AcDbAlignedDimension
 13
8.199999999999992
 23
-115.5
 33
0
 14
8.200000000000008
 24
-113
 34
0
 50
90
100
AcDbRotatedDimension
  0
DIMENSION
  5
1D7
100
AcDbEntity
  8
olcu
  6
ByLayer
 62
  256
370
   -1
100
AcDbDimension
  2
*D30
 10
8.199999999999994
 20
-107
 30
0
 11
0
 21
0
 31
0
 70
   34
 71
    5
  3
Standard
 53
0
210
0
220
0
230
1
100
AcDb2LineAngularDimension
 13
3.915555979773628
 23
-110
 33
0
 14
8.199999999999992
 24
-113
 34
0
 15
3.915555979773628
 25
-110
 35
0
 16
39.88517771903143
 26
-110.4658366280063
 36
0
  0
DIMENSION
  5
1D8
100
AcDbEntity
  8
olcu
  6
ByLayer
 62
  256
370
   -1
100
AcDbDimension
  2
*D31
 10
8.199999999999992
 20
-95
 30
0
 11
0
 21
0
 31
0
 70
   34
 71
    5
  3
Standard
 53
0
210
0
220
0
230
1
100
AcDb2LineAngularDimension
 13
3.915555979773642
 23
-102.2253251795939
 33
0
 14
8.199999999999992
 24
-104
 34
0
 15
3.915555979773642
 25
-96.77467482040606
 35
0
 16
13.07400124756849
 26
-98.62344419361452
 36
0
  0
DIMENSION
  5
1D9
100
AcDbEntity
  8
olcu
  6
ByLayer
 62
  256
370
   -1
100
AcDbDimension
  2
*D32
 10
8.199999999999994
 20
-83
 30
0
 11
0
 21
0
 31
0
 70
   34
 71
    5
  3
Standard
 53
0
210
0
220
0
230
1
100
AcDb2LineAngularDimension
 13
3.915555979773642
 23
-90.22532517959394
 33
0
 14
8.199999999999994
 24
-92
 34
0
 15
3.915555979773642
 25
-84.77467482040606
 35
0
 16
13.26347952651876
 26
-87.4442257355487
 36
0
  0
ENDSEC
  0
SECTION
  2
OBJECTS
  0
DICTIONARY
  5
C
330
0
100
AcDbDictionary
281
    1
  3
ACAD_GROUP
350
D
  0
DICTIONARY
  5
D
330
C
100
AcDbDictionary
281
    1
  0
PLOTSETTINGS
  5
1DA
100
AcDbPlotSettings
  6
1x1
 40
0
 41
0
 42
0
 43
0
  0
ENDSEC
  0
EOF
