999
dxfrw 0.6.3
  0
SECTION
  2
HEADER
  9
$ACADVER
  1
AC1021
  9
$DWGCODEPAGE
  3
ANSI_1252
  9
$INSBASE
 10
0
 20
0
 30
0
  9
$EXTMIN
 10
-58.8
 20
-58.8
 30
0
  9
$EXTMAX
 10
58.8
 20
58.8
 30
0
  9
$LIMMIN
 10
0
 20
0
  9
$LIMMAX
 10
420
 20
297
  9
$ORTHOMODE
 70
    0
  9
$REGENMODE
 70
    1
  9
$FILLMODE
 70
    1
  9
$QTEXTMODE
 70
    0
  9
$MIRRTEXT
 70
    0
  9
$LTSCALE
 40
1
  9
$ATTMODE
 70
    0
  9
$TEXTSIZE
 40
2.5
  9
$TRACEWID
 40
15.68
  9
$TEXTSTYLE
  7
STANDARD
  9
$CLAYER
  8
olcu
  9
$CELTYPE
  6
BYLAYER
  9
$CECOLOR
 62
  256
  9
$CELTSCALE
 40
1
  9
$DISPSILH
 70
    0
  9
$DIMSCALE
 40
1
  9
$DIMASZ
 40
2.5
  9
$DIMEXO
 40
0.625
  9
$DIMDLI
 40
3.75
  9
$DIMRND
 40
0
  9
$DIMDLE
 40
0
  9
$DIMEXE
 40
1.25
  9
$DIMTP
 40
0
  9
$DIMTM
 40
0
  9
$DIMTXT
 40
2
  9
$DIMCEN
 40
2.5
  9
$DIMTSZ
 40
0
  9
$DIMTOL
 70
    0
  9
$DIMLIM
 70
    0
  9
$DIMTIH
 70
    0
  9
$DIMTOH
 70
    0
  9
$DIMSE1
 70
    0
  9
$DIMSE2
 70
    0
  9
$DIMTAD
 70
    1
  9
$DIMZIN
 70
    8
  9
$DIMBLK
  1

  9
$DIMASO
 70
    1
  9
$DIMSHO
 70
    1
  9
$DIMPOST
  1

  9
$DIMAPOST
  1

  9
$DIMALT
 70
    0
  9
$DIMALTD
 70
    3
  9
$DIMALTF
 40
0.03937
  9
$DIMLFAC
 40
1
  9
$DIMTOFL
 70
    1
  9
$DIMTVP
 40
0
  9
$DIMTIX
 70
    0
  9
$DIMSOXD
 70
    0
  9
$DIMSAH
 70
    0
  9
$DIMBLK1
  1

  9
$DIMBLK2
  1

  9
$DIMSTYLE
  2
STANDARD
  9
$DIMCLRD
 70
    0
  9
$DIMCLRE
 70
    0
  9
$DIMCLRT
 70
    0
  9
$DIMTFAC
 40
1
  9
$DIMGAP
 40
0.625
  9
$DIMJUST
 70
    0
  9
$DIMSD1
 70
    0
  9
$DIMSD2
 70
    0
  9
$DIMTOLJ
 70
    0
  9
$DIMTZIN
 70
    8
  9
$DIMALTZ
 70
    0
  9
$DIMALTTZ
 70
    0
  9
$DIMUPT
 70
    0
  9
$DIMDEC
 70
    2
  9
$DIMTDEC
 70
    2
  9
$DIMALTU
 70
    2
  9
$DIMALTTD
 70
    3
  9
$DIMTXSTY
  7
standard
  9
$DIMAUNIT
 70
    0
  9
$DIMADEC
 70
    1
  9
$DIMALTRND
 40
0
  9
$DIMAZIN
 70
    3
  9
$DIMDSEP
 70
   44
  9
$DIMATFIT
 70
    3
  9
$DIMFRAC
 70
    0
  9
$DIMLDRBLK
  1
STANDARD
  9
$DIMLUNIT
 70
    2
  9
$DIMLWD
 70
   -2
  9
$DIMLWE
 70
   -2
  9
$DIMTMOVE
 70
    0
  9
$DIMFXL
 40
1
  9
$DIMFXLON
 70
    0
  9
$DIMJOGANG
 40
0.7854
  9
$DIMTFILL
 70
    0
  9
$DIMTFILLCLR
 70
    0
  9
$DIMARCSYM
 70
    0
  9
$DIMLTYPE
  6

  9
$DIMLTEX1
  6

  9
$DIMLTEX2
  6

  9
$LUNITS
 70
    2
  9
$LUPREC
 70
    4
  9
$SKETCHINC
 40
1
  9
$FILLETRAD
 40
0
  9
$AUNITS
 70
    0
  9
$AUPREC
 70
    2
  9
$MENU
  1
.
  9
$ELEVATION
 40
0
  9
$PELEVATION
 40
0
  9
$THICKNESS
 40
0
  9
$LIMCHECK
 70
    0
  9
$CHAMFERA
 40
0
  9
$CHAMFERB
 40
0
  9
$CHAMFERC
 40
0
  9
$CHAMFERD
 40
0
  9
$SKPOLY
 70
    0
  9
$USRTIMER
 70
    1
  9
$ANGBASE
 50
0
  9
$ANGDIR
 70
    0
  9
$PDMODE
 70
   34
  9
$PDSIZE
 40
0
  9
$PLINEWID
 40
0
  9
$SPLFRAME
 70
    0
  9
$SPLINETYPE
 70
    2
  9
$SPLINESEGS
 70
    8
  9
$HANDSEED
  5
20000
  9
$SURFTAB1
 70
    6
  9
$SURFTAB2
 70
    6
  9
$SURFTYPE
 70
    6
  9
$SURFU
 70
    6
  9
$SURFV
 70
    6
  9
$UCSBASE
  2

  9
$UCSNAME
  2

  9
$UCSORG
 10
0
 20
0
 30
0
  9
$UCSXDIR
 10
1
 20
0
 30
0
  9
$UCSYDIR
 10
0
 20
1
 30
0
  9
$UCSORTHOREF
  2

  9
$UCSORTHOVIEW
 70
    0
  9
$UCSORGTOP
 10
0
 20
0
 30
0
  9
$UCSORGBOTTOM
 10
0
 20
0
 30
0
  9
$UCSORGLEFT
 10
0
 20
0
 30
0
  9
$UCSORGRIGHT
 10
0
 20
0
 30
0
  9
$UCSORGFRONT
 10
0
 20
0
 30
0
  9
$UCSORGBACK
 10
0
 20
0
 30
0
  9
$PUCSBASE
  2

  9
$PUCSNAME
  2

  9
$PUCSORG
 10
0
 20
0
 30
0
  9
$PUCSXDIR
 10
1
 20
0
 30
0
  9
$PUCSYDIR
 10
0
 20
1
 30
0
  9
$PUCSORTHOREF
  2

  9
$PUCSORTHOVIEW
 70
    0
  9
$PUCSORGTOP
 10
0
 20
0
 30
0
  9
$PUCSORGBOTTOM
 10
0
 20
0
 30
0
  9
$PUCSORGLEFT
 10
0
 20
0
 30
0
  9
$PUCSORGRIGHT
 10
0
 20
0
 30
0
  9
$PUCSORGFRONT
 10
0
 20
0
 30
0
  9
$PUCSORGBACK
 10
0
 20
0
 30
0
  9
$USERI1
 70
    0
  9
$USERI2
 70
    0
  9
$USERI3
 70
    0
  9
$USERI4
 70
    0
  9
$USERI5
 70
    0
  9
$USERR1
 40
0
  9
$USERR2
 40
0
  9
$USERR3
 40
0
  9
$USERR4
 40
0
  9
$USERR5
 40
0
  9
$WORLDVIEW
 70
    1
  9
$SHADEDGE
 70
    3
  9
$SHADEDIF
 70
   70
  9
$TILEMODE
 70
    1
  9
$MAXACTVP
 70
   64
  9
$PINSBASE
 10
0
 20
0
 30
0
  9
$PLIMCHECK
 70
    0
  9
$PEXTMIN
 10
0
 20
0
 30
0
  9
$PEXTMAX
 10
0
 20
0
 30
0
  9
$GRIDMODE
 70
    0
  9
$SNAPSTYLE
 70
    0
  9
$GRIDUNIT
 10
0
 20
0
  9
$PLIMMIN
 10
0
 20
0
  9
$PLIMMAX
 10
297
 20
210
  9
$UNITMODE
 70
    0
  9
$VISRETAIN
 70
    1
  9
$PLINEGEN
 70
    0
  9
$PSLTSCALE
 70
    1
  9
$TREEDEPTH
 70
 3020
  9
$CMLSTYLE
  2
Standard
  9
$CMLJUST
 70
    0
  9
$CMLSCALE
 40
20
  9
$PROXYGRAPHICS
 70
    1
  9
$MEASUREMENT
 70
    1
  9
$CELWEIGHT
370
   -1
  9
$ENDCAPS
280
    0
  9
$JOINSTYLE
280
    0
  9
$LWDISPLAY
290
    0
  9
$INSUNITS
 70
    4
  9
$HYPERLINKBASE
  1

  9
$STYLESHEET
  1

  9
$XEDIT
290
    1
  9
$CEPSNTYPE
380
    0
  9
$PSTYLEMODE
290
    1
  9
$EXTNAMES
290
    1
  9
$PSVPSCALE
 40
1
  9
$OLESTARTUP
290
    0
  9
$SORTENTS
280
  127
  9
$INDEXCTL
280
    0
  9
$HIDETEXT
280
    1
  9
$XCLIPFRAME
290
    0
  9
$HALOGAP
280
    0
  9
$OBSCOLOR
 70
  257
  9
$OBSLTYPE
280
    0
  9
$INTERSECTIONDISPLAY
280
    0
  9
$INTERSECTIONCOLOR
 70
  257
  9
$DIMASSOC
280
    1
  9
$PROJECTNAME
  1

  9
$CAMERADISPLAY
290
    0
  9
$LENSLENGTH
 40
50
  9
$CAMERAHEIGHT
 40
0
  9
$STEPSPERSEC
 40
2
  9
$STEPSIZE
 40
50
  9
$3DDWFPREC
 40
2
  9
$PSOLWIDTH
 40
5
  9
$PSOLHEIGHT
 40
80
  9
$LOFTANG1
 40
1.570796326794897
  9
$LOFTANG2
 40
1.570796326794897
  9
$LOFTMAG1
 40
0
  9
$LOFTMAG2
 40
0
  9
$LOFTPARAM
 70
    7
  9
$LOFTNORMALS
280
    1
  9
$LATITUDE
 40
1
  9
$LONGITUDE
 40
1
  9
$NORTHDIRECTION
 40
0
  9
$TIMEZONE
 70
-8000
  9
$LIGHTGLYPHDISPLAY
280
    1
  9
$TILEMODELIGHTSYNCH
280
    1
  9
$SOLIDHIST
280
    1
  9
$SHOWHIST
280
    1
  9
$DWFFRAME
280
    2
  9
$DGNFRAME
280
    0
  9
$REALWORLDSCALE
290
    1
  9
$INTERFERECOLOR
 62
    1
  9
$CSHADOW
280
    0
  9
$SHADOWPLANELOCATION
 40
0
  0
ENDSEC
  0
SECTION
  2
CLASSES
  0
ENDSEC
  0
SECTION
  2
TABLES
  0
TABLE
  2
VPORT
  5
8
330
0
100
AcDbSymbolTable
 70
    1
  0
VPORT
  5
31
330
2
100
AcDbSymbolTableRecord
100
AcDbViewportTableRecord
  2
*ACTIVE
 70
    0
 10
0
 20
0
 11
1
 21
1
 12
45.88598130841121
 22
30.08691588785047
 13
0
 23
0
 14
10
 24
10
 15
10
 25
10
 16
0
 26
0
 36
1
 17
0
 27
0
 37
0
 40
120.3476635514019
 41
1.523972602739726
 42
50
 43
0
 44
0
 50
0
 51
0
 71
    0
 72
  100
 73
    1
 74
    3
 75
    0
 76
    0
 77
    0
 78
    0
281
    0
 65
    1
110
0
120
0
130
0
111
1
121
0
131
0
112
0
122
1
132
0
 79
    0
146
0
348
10020
 60
    7
 61
    5
292
1
282
    1
141
0
142
0
 63
  250
421
3358443
  0
ENDTAB
  0
TABLE
  2
LTYPE
  5
5
330
0
100
AcDbSymbolTable
 70
    4
  0
LTYPE
  5
14
330
5
100
AcDbSymbolTableRecord
100
AcDbLinetypeTableRecord
  2
ByBlock
 70
    0
  3

 72
   65
 73
    0
 40
0
  0
LTYPE
  5
15
330
5
100
AcDbSymbolTableRecord
100
AcDbLinetypeTableRecord
  2
ByLayer
 70
    0
  3

 72
   65
 73
    0
 40
0
  0
LTYPE
  5
16
330
5
100
AcDbSymbolTableRecord
100
AcDbLinetypeTableRecord
  2
Continuous
 70
    0
  3
Solid line
 72
   65
 73
    0
 40
0
  0
LTYPE
  5
32
330
5
100
AcDbSymbolTableRecord
100
AcDbLinetypeTableRecord
  2
DOT
 70
    0
  3
Dot . . . . . . . . . . . . . . . . . . . . . .
 72
   65
 73
    2
 40
6.35
 49
0
 74
    0
 49
-6.35
 74
    0
  0
LTYPE
  5
33
330
5
100
AcDbSymbolTableRecord
100
AcDbLinetypeTableRecord
  2
DOTTINY
 70
    0
  3
Dot (.15x) .....................................
 72
   65
 73
    2
 40
0.9525
 49
0
 74
    0
 49
-0.9525
 74
    0
  0
LTYPE
  5
34
330
5
100
AcDbSymbolTableRecord
100
AcDbLinetypeTableRecord
  2
DOT2
 70
    0
  3
Dot (.5x) .....................................
 72
   65
 73
    2
 40
3.175
 49
0
 74
    0
 49
-3.175
 74
    0
  0
LTYPE
  5
35
330
5
100
AcDbSymbolTableRecord
100
AcDbLinetypeTableRecord
  2
DOTX2
 70
    0
  3
Dot (2x) .  .  .  .  .  .  .  .  .  .  .  .  .
 72
   65
 73
    2
 40
12.7
 49
0
 74
    0
 49
-12.7
 74
    0
  0
LTYPE
  5
36
330
5
100
AcDbSymbolTableRecord
100
AcDbLinetypeTableRecord
  2
DASHED
 70
    0
  3
Dashed _ _ _ _ _ _ _ _ _ _ _ _ _ _ _ _ _
 72
   65
 73
    2
 40
19.05
 49
12.7
 74
    0
 49
-6.35
 74
    0
  0
LTYPE
  5
37
330
5
100
AcDbSymbolTableRecord
100
AcDbLinetypeTableRecord
  2
DASHEDTINY
 70
    0
  3
Dashed (.15x) _ _ _ _ _ _ _ _ _ _ _ _ _ _ _ _ _
 72
   65
 73
    2
 40
2.8575
 49
1.905
 74
    0
 49
-0.9525
 74
    0
  0
LTYPE
  5
38
330
5
100
AcDbSymbolTableRecord
100
AcDbLinetypeTableRecord
  2
DASHED2
 70
    0
  3
Dashed (.5x) _ _ _ _ _ _ _ _ _ _ _ _ _ _ _ _ _
 72
   65
 73
    2
 40
9.524999999999999
 49
6.35
 74
    0
 49
-3.175
 74
    0
  0
LTYPE
  5
39
330
5
100
AcDbSymbolTableRecord
100
AcDbLinetypeTableRecord
  2
DASHEDX2
 70
    0
  3
Dashed (2x) ____  ____  ____  ____  ____  ___
 72
   65
 73
    2
 40
38.09999999999999
 49
25.4
 74
    0
 49
-12.7
 74
    0
  0
LTYPE
  5
3A
330
5
100
AcDbSymbolTableRecord
100
AcDbLinetypeTableRecord
  2
DASHDOT
 70
    0
  3
Dash dot __ . __ . __ . __ . __ . __ . __ . __
 72
   65
 73
    4
 40
25.4
 49
12.7
 74
    0
 49
-6.35
 74
    0
 49
0
 74
    0
 49
-6.35
 74
    0
  0
LTYPE
  5
3B
330
5
100
AcDbSymbolTableRecord
100
AcDbLinetypeTableRecord
  2
DASHDOTTINY
 70
    0
  3
Dash dot (.15x) _._._._._._._._._._._._._._._.
 72
   65
 73
    4
 40
3.81
 49
1.905
 74
    0
 49
-0.9525
 74
    0
 49
0
 74
    0
 49
-0.9525
 74
    0
  0
LTYPE
  5
3C
330
5
100
AcDbSymbolTableRecord
100
AcDbLinetypeTableRecord
  2
DASHDOT2
 70
    0
  3
Dash dot (.5x) _._._._._._._._._._._._._._._.
 72
   65
 73
    4
 40
12.7
 49
6.35
 74
    0
 49
-3.175
 74
    0
 49
0
 74
    0
 49
-3.175
 74
    0
  0
LTYPE
  5
3D
330
5
100
AcDbSymbolTableRecord
100
AcDbLinetypeTableRecord
  2
DASHDOTX2
 70
    0
  3
Dash dot (2x) ____  .  ____  .  ____  .  ___
 72
   65
 73
    4
 40
50.8
 49
25.4
 74
    0
 49
-12.7
 74
    0
 49
0
 74
    0
 49
-12.7
 74
    0
  0
LTYPE
  5
3E
330
5
100
AcDbSymbolTableRecord
100
AcDbLinetypeTableRecord
  2
DIVIDE
 70
    0
  3
Divide ____ . . ____ . . ____ . . ____ . . ____
 72
   65
 73
    6
 40
31.75
 49
12.7
 74
    0
 49
-6.35
 74
    0
 49
0
 74
    0
 49
-6.35
 74
    0
 49
0
 74
    0
 49
-6.35
 74
    0
  0
LTYPE
  5
3F
330
5
100
AcDbSymbolTableRecord
100
AcDbLinetypeTableRecord
  2
DIVIDETINY
 70
    0
  3
Divide (.15x) __..__..__..__..__..__..__..__.._
 72
   65
 73
    6
 40
4.7625
 49
1.905
 74
    0
 49
-0.9525
 74
    0
 49
0
 74
    0
 49
-0.9525
 74
    0
 49
0
 74
    0
 49
-0.9525
 74
    0
  0
LTYPE
  5
40
330
5
100
AcDbSymbolTableRecord
100
AcDbLinetypeTableRecord
  2
DIVIDE2
 70
    0
  3
Divide (.5x) __..__..__..__..__..__..__..__.._
 72
   65
 73
    6
 40
15.875
 49
6.35
 74
    0
 49
-3.175
 74
    0
 49
0
 74
    0
 49
-3.175
 74
    0
 49
0
 74
    0
 49
-3.175
 74
    0
  0
LTYPE
  5
41
330
5
100
AcDbSymbolTableRecord
100
AcDbLinetypeTableRecord
  2
DIVIDEX2
 70
    0
  3
Divide (2x) ________  .  .  ________  .  .  _
 72
   65
 73
    6
 40
63.5
 49
25.4
 74
    0
 49
-12.7
 74
    0
 49
0
 74
    0
 49
-12.7
 74
    0
 49
0
 74
    0
 49
-12.7
 74
    0
  0
LTYPE
  5
42
330
5
100
AcDbSymbolTableRecord
100
AcDbLinetypeTableRecord
  2
BORDER
 70
    0
  3
Border __ __ . __ __ . __ __ . __ __ . __ __ .
 72
   65
 73
    6
 40
44.45
 49
12.7
 74
    0
 49
-6.35
 74
    0
 49
12.7
 74
    0
 49
-6.35
 74
    0
 49
0
 74
    0
 49
-6.35
 74
    0
  0
LTYPE
  5
43
330
5
100
AcDbSymbolTableRecord
100
AcDbLinetypeTableRecord
  2
BORDERTINY
 70
    0
  3
Border (.15x) __.__.__.__.__.__.__.__.__.__.__.
 72
   65
 73
    6
 40
6.6675
 49
1.905
 74
    0
 49
-0.9525
 74
    0
 49
1.905
 74
    0
 49
-0.9525
 74
    0
 49
0
 74
    0
 49
-0.9525
 74
    0
  0
LTYPE
  5
44
330
5
100
AcDbSymbolTableRecord
100
AcDbLinetypeTableRecord
  2
BORDER2
 70
    0
  3
Border (.5x) __.__.__.__.__.__.__.__.__.__.__.
 72
   65
 73
    6
 40
22.225
 49
6.35
 74
    0
 49
-3.175
 74
    0
 49
6.35
 74
    0
 49
-3.175
 74
    0
 49
0
 74
    0
 49
-3.175
 74
    0
  0
LTYPE
  5
45
330
5
100
AcDbSymbolTableRecord
100
AcDbLinetypeTableRecord
  2
BORDERX2
 70
    0
  3
Border (2x) ____  ____  .  ____  ____  .  ___
 72
   65
 73
    6
 40
88.89999999999999
 49
25.4
 74
    0
 49
-12.7
 74
    0
 49
25.4
 74
    0
 49
-12.7
 74
    0
 49
0
 74
    0
 49
-12.7
 74
    0
  0
LTYPE
  5
46
330
5
100
AcDbSymbolTableRecord
100
AcDbLinetypeTableRecord
  2
CENTER
 70
    0
  3
Center ____ _ ____ _ ____ _ ____ _ ____ _ ____
 72
   65
 73
    4
 40
50.8
 49
31.75
 74
    0
 49
-6.35
 74
    0
 49
6.35
 74
    0
 49
-6.35
 74
    0
  0
LTYPE
  5
47
330
5
100
AcDbSymbolTableRecord
100
AcDbLinetypeTableRecord
  2
CENTERTINY
 70
    0
  3
Center (.15x) ___ _ ___ _ ___ _ ___ _ ___ _ ___
 72
   65
 73
    4
 40
7.619999999999999
 49
4.7625
 74
    0
 49
-0.9525
 74
    0
 49
0.9525
 74
    0
 49
-0.9525
 74
    0
  0
LTYPE
  5
48
330
5
100
AcDbSymbolTableRecord
100
AcDbLinetypeTableRecord
  2
CENTER2
 70
    0
  3
Center (.5x) ___ _ ___ _ ___ _ ___ _ ___ _ ___
 72
   65
 73
    4
 40
28.575
 49
19.05
 74
    0
 49
-3.175
 74
    0
 49
3.175
 74
    0
 49
-3.175
 74
    0
  0
LTYPE
  5
49
330
5
100
AcDbSymbolTableRecord
100
AcDbLinetypeTableRecord
  2
CENTERX2
 70
    0
  3
Center (2x) ________  __  ________  __  _____
 72
   65
 73
    4
 40
101.6
 49
63.5
 74
    0
 49
-12.7
 74
    0
 49
12.7
 74
    0
 49
-12.7
 74
    0
  0
ENDTAB
  0
TABLE
  2
LAYER
  5
2
330
0
100
AcDbSymbolTable
 70
    1
  0
LAYER
  5
10
330
2
100
AcDbSymbolTableRecord
100
AcDbLayerTableRecord
  2
0
 70
    0
 62
    7
  6
CONTINUOUS
370
   50
390
F
  0
LAYER
  5
4A
330
2
100
AcDbSymbolTableRecord
100
AcDbLayerTableRecord
  2
olcu
 70
    1
 62
    2
  6
CONTINUOUS
370
    0
390
F
  0
LAYER
  5
4B
330
2
100
AcDbSymbolTableRecord
100
AcDbLayerTableRecord
  2
ref
 70
    1
 62
  136
420
32896
  6
CENTER
370
    0
390
F
  0
ENDTAB
  0
TABLE
  2
STYLE
  5
3
330
0
100
AcDbSymbolTable
 70
    3
  0
STYLE
  5
4C
330
2
100
AcDbSymbolTableRecord
100
AcDbTextStyleTableRecord
  2
Standard
 70
    0
 40
0
 41
1
 50
0
 71
    0
 42
1
  3
txt
  4

  0
ENDTAB
  0
TABLE
  2
VIEW
  5
6
330
0
100
AcDbSymbolTable
 70
    0
  0
ENDTAB
  0
TABLE
  2
UCS
  5
7
330
0
100
AcDbSymbolTable
 70
    0
  0
ENDTAB
  0
TABLE
  2
APPID
  5
9
330
0
100
AcDbSymbolTable
 70
    1
  0
APPID
  5
12
330
9
100
AcDbSymbolTableRecord
100
AcDbRegAppTableRecord
  2
ACAD
 70
    0
  0
APPID
  5
4D
330
9
100
AcDbSymbolTableRecord
100
AcDbRegAppTableRecord
  2
LibreCad
 70
    0
  0
ENDTAB
  0
TABLE
  2
DIMSTYLE
  5
A
330
0
100
AcDbSymbolTable
 70
    1
100
AcDbDimStyleTable
 71
    1
  0
DIMSTYLE
105
4E
330
A
100
AcDbSymbolTableRecord
100
AcDbDimStyleTableRecord
  2
Standard
 70
    0
 40
1
 41
2.5
 42
0.625
 43
0.38
 44
1.25
 45
0
 46
0
 47
0
 48
0
 49
1
140
2
141
0.09
142
0
143
25.4
144
1
145
0
146
1
147
0.625
148
0
 71
    0
 72
    0
 73
    0
 74
    1
 75
    0
 76
    0
 77
    0
 78
    8
 79
    3
170
    0
171
    2
172
    0
173
    0
174
    0
175
    0
176
    0
177
    0
178
    0
179
    1
271
    2
272
    4
273
    2
274
    2
275
    0
276
    0
277
    2
278
   44
279
    0
280
    0
281
    0
282
    0
283
    1
284
    0
285
    0
286
    0
288
    0
289
    3
340
standard
341

371
   -2
372
   -2
  0
ENDTAB
  0
TABLE
  2
BLOCK_RECORD
  5
1
330
0
100
AcDbSymbolTable
 70
    2
  0
BLOCK_RECORD
  5
1F
330
1
100
AcDbSymbolTableRecord
100
AcDbBlockTableRecord
  2
*Model_Space
 70
    0
280
    1
281
    0
  0
BLOCK_RECORD
  5
1E
330
1
100
AcDbSymbolTableRecord
100
AcDbBlockTableRecord
  2
*Paper_Space
 70
    0
280
    1
281
    0
  0
BLOCK_RECORD
  5
4F
330
1
100
AcDbSymbolTableRecord
100
AcDbBlockTableRecord
  2
*D15
 70
    0
280
    1
281
    0
  0
BLOCK_RECORD
  5
52
330
1
100
AcDbSymbolTableRecord
100
AcDbBlockTableRecord
  2
*D3
 70
    0
280
    1
281
    0
  0
BLOCK_RECORD
  5
55
330
1
100
AcDbSymbolTableRecord
100
AcDbBlockTableRecord
  2
*D14
 70
    0
280
    1
281
    0
  0
BLOCK_RECORD
  5
58
330
1
100
AcDbSymbolTableRecord
100
AcDbBlockTableRecord
  2
*D20
 70
    0
280
    1
281
    0
  0
BLOCK_RECORD
  5
5B
330
1
100
AcDbSymbolTableRecord
100
AcDbBlockTableRecord
  2
*D1
 70
    0
280
    1
281
    0
  0
BLOCK_RECORD
  5
5E
330
1
100
AcDbSymbolTableRecord
100
AcDbBlockTableRecord
  2
*D13
 70
    0
280
    1
281
    0
  0
BLOCK_RECORD
  5
61
330
1
100
AcDbSymbolTableRecord
100
AcDbBlockTableRecord
  2
*D6
 70
    0
280
    1
281
    0
  0
BLOCK_RECORD
  5
64
330
1
100
AcDbSymbolTableRecord
100
AcDbBlockTableRecord
  2
*D16
 70
    0
280
    1
281
    0
  0
BLOCK_RECORD
  5
67
330
1
100
AcDbSymbolTableRecord
100
AcDbBlockTableRecord
  2
*D4
 70
    0
280
    1
281
    0
  0
BLOCK_RECORD
  5
6A
330
1
100
AcDbSymbolTableRecord
100
AcDbBlockTableRecord
  2
*D19
 70
    0
280
    1
281
    0
  0
BLOCK_RECORD
  5
6D
330
1
100
AcDbSymbolTableRecord
100
AcDbBlockTableRecord
  2
*D18
 70
    0
280
    1
281
    0
  0
BLOCK_RECORD
  5
70
330
1
100
AcDbSymbolTableRecord
100
AcDbBlockTableRecord
  2
*D8
 70
    0
280
    1
281
    0
  0
BLOCK_RECORD
  5
73
330
1
100
AcDbSymbolTableRecord
100
AcDbBlockTableRecord
  2
*D11
 70
    0
280
    1
281
    0
  0
BLOCK_RECORD
  5
76
330
1
100
AcDbSymbolTableRecord
100
AcDbBlockTableRecord
  2
*D23
 70
    0
280
    1
281
    0
  0
BLOCK_RECORD
  5
79
330
1
100
AcDbSymbolTableRecord
100
AcDbBlockTableRecord
  2
*D2
 70
    0
280
    1
281
    0
  0
BLOCK_RECORD
  5
7C
330
1
100
AcDbSymbolTableRecord
100
AcDbBlockTableRecord
  2
*D21
 70
    0
280
    1
281
    0
  0
BLOCK_RECORD
  5
7F
330
1
100
AcDbSymbolTableRecord
100
AcDbBlockTableRecord
  2
*D12
 70
    0
280
    1
281
    0
  0
BLOCK_RECORD
  5
82
330
1
100
AcDbSymbolTableRecord
100
AcDbBlockTableRecord
  2
*D17
 70
    0
280
    1
281
    0
  0
BLOCK_RECORD
  5
85
330
1
100
AcDbSymbolTableRecord
100
AcDbBlockTableRecord
  2
*D10
 70
    0
280
    1
281
    0
  0
BLOCK_RECORD
  5
88
330
1
100
AcDbSymbolTableRecord
100
AcDbBlockTableRecord
  2
*D7
 70
    0
280
    1
281
    0
  0
BLOCK_RECORD
  5
8B
330
1
100
AcDbSymbolTableRecord
100
AcDbBlockTableRecord
  2
*D22
 70
    0
280
    1
281
    0
  0
BLOCK_RECORD
  5
8E
330
1
100
AcDbSymbolTableRecord
100
AcDbBlockTableRecord
  2
*D9
 70
    0
280
    1
281
    0
  0
BLOCK_RECORD
  5
91
330
1
100
AcDbSymbolTableRecord
100
AcDbBlockTableRecord
  2
*D5
 70
    0
280
    1
281
    0
  0
ENDTAB
  0
ENDSEC
  0
SECTION
  2
BLOCKS
  0
BLOCK
  5
20
330
1F
100
AcDbEntity
  8
0
100
AcDbBlockBegin
  2
*Model_Space
 70
    0
 10
0
 20
0
 30
0
  3
*Model_Space
  1

  0
ENDBLK
  5
21
330
1F
100
AcDbEntity
  8
0
100
AcDbBlockEnd
  0
BLOCK
  5
1C
330
1B
100
AcDbEntity
  8
0
100
AcDbBlockBegin
  2
*Paper_Space
 70
    0
 10
0
 20
0
 30
0
  3
*Paper_Space
  1

  0
ENDBLK
  5
1D
330
1F
100
AcDbEntity
  8
0
100
AcDbBlockEnd
  0
BLOCK
  5
50
330
4F
100
AcDbEntity
  8
0
100
AcDbBlockBegin
  2
*D15
 70
    1
 10
0
 20
0
  3
*D15
  1

  0
LINE
  5
94
100
AcDbEntity
  8
olcu
  6
ByBlock
 62
    0
370
   -2
100
AcDbLine
 10
-7.999999999999992
 20
-7.999999999999999
 11
-5.13110062251576e-15
 21
-7.999999999999999
  0
SOLID
  5
95
100
AcDbEntity
  8
olcu
  6
ByBlock
 62
    0
370
   -2
100
AcDbTrace
 10
-7.999999999999992
 20
-7.999999999999999
 30
0
 11
-5.499999999999992
 21
-7.583715342227159
 31
0
 12
-5.499999999999992
 22
-8.41628465777284
 32
0
 13
-5.499999999999992
 23
-8.41628465777284
 33
0
  0
SOLID
  5
96
100
AcDbEntity
  8
olcu
  6
ByBlock
 62
    0
370
   -2
100
AcDbTrace
 10
-5.13110062251576e-15
 20
-7.999999999999999
 30
0
 11
-2.500000000000005
 21
-8.41628465777284
 31
0
 12
-2.500000000000005
 22
-7.583715342227158
 32
0
 13
-2.500000000000005
 23
-7.583715342227158
 33
0
  0
MTEXT
  5
97
100
AcDbEntity
  8
olcu
  6
CONTINUOUS
 62
    0
370
   -2
100
AcDbMText
 10
-3.999999999999999
 20
-6.374999999999999
 30
0
 40
2
 41
0.8888888888888888
 71
    5
 72
    1
  1
8
  7
standard
210
0
220
0
230
1
 50
0
 73
    2
 44
1
  0
LINE
  5
98
100
AcDbEntity
  8
olcu
  6
ByBlock
 62
    0
370
   -2
100
AcDbLine
 10
-7.999999999999993
 20
-0.6249999999999858
 11
-7.999999999999992
 21
-9.25
  0
LINE
  5
99
100
AcDbEntity
  8
olcu
  6
ByBlock
 62
    0
370
   -2
100
AcDbLine
 10
-5.245911259935824e-15
 20
-0.6249999999999921
 11
-5.360721897355889e-15
 21
-9.25
  0
ENDBLK
  5
51
330
4F
100
AcDbEntity
  8
0
100
AcDbBlockEnd
  0
BLOCK
  5
53
330
52
100
AcDbEntity
  8
0
100
AcDbBlockBegin
  2
*D3
 70
    1
 10
0
 20
0
  3
*D3
  1

  0
LINE
  5
9A
100
AcDbEntity
  8
olcu
  6
ByBlock
 62
    0
370
   -2
100
AcDbLine
 10
16.5
 20
83.79999999999998
 11
55
 21
83.79999999999998
  0
SOLID
  5
9B
100
AcDbEntity
  8
olcu
  6
ByBlock
 62
    0
370
   -2
100
AcDbTrace
 10
16.5
 20
83.79999999999998
 30
0
 11
19
 21
84.21628465777282
 31
0
 12
19
 22
83.38371534222715
 32
0
 13
19
 23
83.38371534222715
 33
0
  0
SOLID
  5
9C
100
AcDbEntity
  8
olcu
  6
ByBlock
 62
    0
370
   -2
100
AcDbTrace
 10
55
 20
83.79999999999998
 30
0
 11
52.5
 21
83.38371534222715
 31
0
 12
52.5
 22
84.21628465777282
 32
0
 13
52.5
 23
84.21628465777282
 33
0
  0
MTEXT
  5
9D
100
AcDbEntity
  8
olcu
  6
CONTINUOUS
 62
    0
370
   -2
100
AcDbMText
 10
35.75
 20
85.42499999999998
 30
0
 40
2
 41
4.777777777778025
 71
    5
 72
    1
  1
38,5
  7
standard
210
0
220
0
230
1
 50
0
 73
    2
 44
1
  0
LINE
  5
9E
100
AcDbEntity
  8
olcu
  6
ByBlock
 62
    0
370
   -2
100
AcDbLine
 10
16.5
 20
84.425
 11
16.5
 21
85.04999999999998
  0
LINE
  5
9F
100
AcDbEntity
  8
olcu
  6
ByBlock
 62
    0
370
   -2
100
AcDbLine
 10
55
 20
84.42499999999998
 11
55
 21
85.04999999999998
  0
ENDBLK
  5
54
330
52
100
AcDbEntity
  8
0
100
AcDbBlockEnd
  0
BLOCK
  5
56
330
55
100
AcDbEntity
  8
0
100
AcDbBlockBegin
  2
*D14
 70
    1
 10
0
 20
0
  3
*D14
  1

  0
LINE
  5
A0
100
AcDbEntity
  8
olcu
  6
ByBlock
 62
    0
370
   -2
100
AcDbLine
 10
16.2557930446942
 20
67.87531553340777
 11
38.07700226301426
 21
16.46776817129335
  0
LINE
  5
A1
100
AcDbEntity
  8
olcu
  6
ByBlock
 62
    0
370
   -2
100
AcDbLine
 10
-84.42499999999998
 20
1.822983972599113e-14
 11
27.17722428531724
 21
4.562509051117252e-15
  0
ARC
  5
A2
100
AcDbEntity
  8
olcu
  6
ByBlock
 62
    0
370
   -2
100
AcDbCircle
 10
45.06715513090639
 20
2.371624396415424e-15
 40
16.63993084558917
100
AcDbArc
 50
113
 51
180
  0
SOLID
  5
A3
100
AcDbEntity
  8
olcu
  6
ByBlock
 62
    0
370
   -2
100
AcDbTrace
 10
38.56541617362586
 20
15.3171371044778
 30
0
 11
36.53491007017078
 21
13.80045062397871
 31
0
 12
36.15299974069805
 22
14.54025881900647
 32
0
 13
36.15299974069805
 23
14.54025881900647
 33
0
  0
SOLID
  5
A4
100
AcDbEntity
  8
olcu
  6
ByBlock
 62
    0
370
   -2
100
AcDbTrace
 10
28.42722428531722
 20
4.409428201223833e-15
 30
0
 11
28.19973832241145
 21
2.52419156423951
 31
0
 12
29.02995961057498
 22
2.461707343285042
 32
0
 13
29.02995961057498
 23
2.461707343285042
 33
0
  0
MTEXT
  5
A5
100
AcDbEntity
  8
olcu
  6
CONTINUOUS
 62
    0
370
   -2
100
AcDbMText
 10
30.67017407979946
 20
9.529153882535654
 30
0
 40
2
 41
3.777777777777901
 71
    8
 72
    1
  1
67%%D
  7
standard
210
0
220
0
230
1
 50
416.5
 73
    2
 44
1
  0
ENDBLK
  5
57
330
55
100
AcDbEntity
  8
0
100
AcDbBlockEnd
  0
BLOCK
  5
59
330
58
100
AcDbEntity
  8
0
100
AcDbBlockBegin
  2
*D20
 70
    1
 10
0
 20
0
  3
*D20
  1

  0
LINE
  5
A6
100
AcDbEntity
  8
olcu
  6
ByBlock
 62
    0
370
   -2
100
AcDbLine
 10
-17.26293934731933
 20
12.98616201981208
 11
-25.03820588664346
 21
23.88668368371648
  0
LINE
  5
A7
100
AcDbEntity
  8
olcu
  6
ByBlock
 62
    0
370
   -2
100
AcDbLine
 10
-17.47948990910425
 20
12.71146894172433
 11
-29.89392921807727
 21
17.72722800158831
  0
ARC
  5
A8
100
AcDbEntity
  8
olcu
  6
ByBlock
 62
    0
370
   -2
100
AcDbCircle
 10
-16.89999999999999
 20
12.47733982083938
 40
12.76440410558971
100
AcDbArc
 50
125.5
 51
158
  0
SOLID
  5
A9
100
AcDbEntity
  8
olcu
  6
ByBlock
 62
    0
370
   -2
100
AcDbTrace
 10
-24.31232719200479
 20
22.86903928577108
 30
0
 11
-25.92220827627134
 21
20.91159814723899
 31
0
 12
-26.46963802020097
 22
21.53888782565666
 32
0
 13
-26.46963802020097
 23
21.53888782565666
 33
0
  0
SOLID
  5
AA
100
AcDbEntity
  8
olcu
  6
ByBlock
 62
    0
370
   -2
100
AcDbTrace
 10
-28.73494939986879
 20
17.25896975981842
 30
0
 11
-27.94516434171901
 21
19.66719160969447
 31
0
 12
-27.20741179129254
 22
19.28132526038755
 32
0
 13
-27.20741179129254
 23
19.28132526038755
 33
0
  0
MTEXT
  5
AB
100
AcDbEntity
  8
olcu
  6
CONTINUOUS
 62
    0
370
   -2
100
AcDbMText
 10
-27.41492573852375
 20
20.76663888747423
 30
0
 40
2
 41
6.111111111111359
 71
    8
 72
    1
  1
32,5%%D
  7
standard
210
0
220
0
230
1
 50
411.75
 73
    2
 44
1
  0
ENDBLK
  5
5A
330
58
100
AcDbEntity
  8
0
100
AcDbBlockEnd
  0
BLOCK
  5
5C
330
5B
100
AcDbEntity
  8
0
100
AcDbBlockBegin
  2
*D1
 70
    1
 10
0
 20
0
  3
*D1
  1

  0
LINE
  5
AC
100
AcDbEntity
  8
olcu
  6
ByBlock
 62
    0
370
   -2
100
AcDbLine
 10
-6.999999999999996
 20
90.11152992941493
 11
5.000000000000005
 21
90.11152992941493
  0
SOLID
  5
AD
100
AcDbEntity
  8
olcu
  6
ByBlock
 62
    0
370
   -2
100
AcDbTrace
 10
-1.999999999999995
 20
90.11152992941493
 30
0
 11
-4.499999999999996
 21
89.69524527164209
 31
0
 12
-4.499999999999996
 22
90.52781458718776
 32
0
 13
-4.499999999999996
 23
90.52781458718776
 33
0
  0
SOLID
  5
AE
100
AcDbEntity
  8
olcu
  6
ByBlock
 62
    0
370
   -2
100
AcDbTrace
 10
5.13110062251576e-15
 20
90.11152992941493
 30
0
 11
2.500000000000005
 21
90.52781458718776
 31
0
 12
2.500000000000005
 22
89.69524527164209
 32
0
 13
2.500000000000005
 23
89.69524527164209
 33
0
  0
MTEXT
  5
AF
100
AcDbEntity
  8
olcu
  6
CONTINUOUS
 62
    0
370
   -2
100
AcDbMText
 10
-0.999999999999995
 20
91.73652992941493
 30
0
 40
2
 41
0.8888888888888888
 71
    5
 72
    1
  1
2
  7
standard
210
0
220
0
230
1
 50
0
 73
    2
 44
1
  0
LINE
  5
B0
100
AcDbEntity
  8
olcu
  6
ByBlock
 62
    0
370
   -2
100
AcDbLine
 10
-1.999999999999995
 20
84.425
 11
-1.999999999999996
 21
91.36152992941493
  0
LINE
  5
B1
100
AcDbEntity
  8
olcu
  6
ByBlock
 62
    0
370
   -2
100
AcDbLine
 10
5.169370834989115e-15
 20
84.425
 11
5.20764104746247e-15
 21
91.36152992941493
  0
ENDBLK
  5
5D
330
5B
100
AcDbEntity
  8
0
100
AcDbBlockEnd
  0
BLOCK
  5
5F
330
5E
100
AcDbEntity
  8
0
100
AcDbBlockBegin
  2
*D13
 70
    1
 10
0
 20
0
  3
*D13
  1

  0
SOLID
  5
B2
100
AcDbEntity
  8
olcu
  6
ByBlock
 62
    0
370
   -2
100
AcDbTrace
 10
32.69999999999999
 20
-19.00000000000003
 30
0
 11
33.08339376660491
 21
-21.50525490440108
 31
0
 12
32.25089635132986
 22
-21.49431329809396
 32
0
 13
32.25089635132986
 23
-21.49431329809396
 33
0
  0
LINE
  5
B3
100
AcDbEntity
  8
olcu
  6
ByBlock
 62
    0
370
   -2
100
AcDbLine
 10
31.81948758032618
 20
-85.99421391343286
 11
32.69999999999999
 21
-19.00000000000004
  0
MTEXT
  5
B4
100
AcDbEntity
  8
olcu
  6
CONTINUOUS
 62
    0
370
   -2
100
AcDbMText
 10
30.63488412435222
 20
-52.47575124504526
 30
0
 40
2
 41
2.444444444444568
 71
    5
 72
    1
  1
67
  7
standard
210
0
220
0
230
1
 50
89.24699854067067
 73
    2
 44
1
  0
ENDBLK
  5
60
330
5E
100
AcDbEntity
  8
0
100
AcDbBlockEnd
  0
BLOCK
  5
62
330
61
100
AcDbEntity
  8
0
100
AcDbBlockBegin
  2
*D6
 70
    1
 10
0
 20
0
  3
*D6
  1

  0
LINE
  5
B5
100
AcDbEntity
  8
olcu
  6
ByBlock
 62
    0
370
   -2
100
AcDbLine
 10
83.8
 20
37.6
 11
83.8
 21
0
  0
SOLID
  5
B6
100
AcDbEntity
  8
olcu
  6
ByBlock
 62
    0
370
   -2
100
AcDbTrace
 10
83.8
 20
37.6
 30
0
 11
84.21628465777283
 21
35.1
 31
0
 12
83.38371534222716
 22
35.1
 32
0
 13
83.38371534222716
 23
35.1
 33
0
  0
SOLID
  5
B7
100
AcDbEntity
  8
olcu
  6
ByBlock
 62
    0
370
   -2
100
AcDbTrace
 10
83.8
 20
0
 30
0
 11
83.38371534222716
 21
2.5
 31
0
 12
84.21628465777283
 22
2.5
 32
0
 13
84.21628465777283
 23
2.5
 33
0
  0
MTEXT
  5
B8
100
AcDbEntity
  8
olcu
  6
CONTINUOUS
 62
    0
370
   -2
100
AcDbMText
 10
82.175
 20
18.8
 30
0
 40
2
 41
4.777777777778025
 71
    5
 72
    1
  1
37,6
  7
standard
210
0
220
0
230
1
 50
90
 73
    2
 44
1
  0
LINE
  5
B9
100
AcDbEntity
  8
olcu
  6
ByBlock
 62
    0
370
   -2
100
AcDbLine
 10
83.17500000000001
 20
37.6
 11
82.55
 21
37.6
  0
LINE
  5
BA
100
AcDbEntity
  8
olcu
  6
ByBlock
 62
    0
370
   -2
100
AcDbLine
 10
83.175
 20
7.654042494670958e-17
 11
82.55
 21
1.530808498934192e-16
  0
ENDBLK
  5
63
330
61
100
AcDbEntity
  8
0
100
AcDbBlockEnd
  0
BLOCK
  5
65
330
64
100
AcDbEntity
  8
0
100
AcDbBlockBegin
  2
*D16
 70
    1
 10
0
 20
0
  3
*D16
  1

  0
LINE
  5
BB
100
AcDbEntity
  8
olcu
  6
ByBlock
 62
    0
370
   -2
100
AcDbLine
 10
-16.90000000000001
 20
-13.14321517412554
 11
-5.13110062251576e-15
 21
-13.14321517412554
  0
SOLID
  5
BC
100
AcDbEntity
  8
olcu
  6
ByBlock
 62
    0
370
   -2
100
AcDbTrace
 10
-16.90000000000001
 20
-13.14321517412554
 30
0
 11
-14.40000000000001
 21
-12.7269305163527
 31
0
 12
-14.40000000000001
 22
-13.55949983189838
 32
0
 13
-14.40000000000001
 23
-13.55949983189838
 33
0
  0
SOLID
  5
BD
100
AcDbEntity
  8
olcu
  6
ByBlock
 62
    0
370
   -2
100
AcDbTrace
 10
-5.13110062251576e-15
 20
-13.14321517412554
 30
0
 11
-2.500000000000005
 21
-13.55949983189838
 31
0
 12
-2.500000000000005
 22
-12.7269305163527
 32
0
 13
-2.500000000000005
 23
-12.7269305163527
 33
0
  0
MTEXT
  5
BE
100
AcDbEntity
  8
olcu
  6
CONTINUOUS
 62
    0
370
   -2
100
AcDbMText
 10
-8.450000000000005
 20
-11.51821517412554
 30
0
 40
2
 41
4.333333333333456
 71
    5
 72
    1
  1
16,9
  7
standard
210
0
220
0
230
1
 50
0
 73
    2
 44
1
  0
LINE
  5
BF
100
AcDbEntity
  8
olcu
  6
ByBlock
 62
    0
370
   -2
100
AcDbLine
 10
-16.90000000000001
 20
11.85233982083939
 11
-16.90000000000001
 21
-14.39321517412554
  0
LINE
  5
C0
100
AcDbEntity
  8
olcu
  6
ByBlock
 62
    0
370
   -2
100
AcDbLine
 10
-5.245911259935824e-15
 20
-0.6249999999999949
 11
-5.360721897355889e-15
 21
-14.39321517412554
  0
ENDBLK
  5
66
330
64
100
AcDbEntity
  8
0
100
AcDbBlockEnd
  0
BLOCK
  5
68
330
67
100
AcDbEntity
  8
0
100
AcDbBlockBegin
  2
*D4
 70
    1
 10
0
 20
0
  3
*D4
  1

  0
SOLID
  5
C1
100
AcDbEntity
  8
olcu
  6
ByBlock
 62
    0
370
   -2
100
AcDbTrace
 10
-22.56964990023567
 20
41.37410371541265
 30
0
 11
-20.7228772415814
 21
43.1098236419976
 31
0
 12
-20.26007682482233
 22
42.41773445740083
 32
0
 13
-20.26007682482233
 23
42.41773445740083
 33
0
  0
LINE
  5
C2
100
AcDbEntity
  8
olcu
  6
ByBlock
 62
    0
370
   -2
100
AcDbLine
 10
16.5
 20
67.5
 11
-22.56964990023567
 21
41.37410371541264
  0
MTEXT
  5
C3
100
AcDbEntity
  8
olcu
  6
CONTINUOUS
 62
    0
370
   -2
100
AcDbMText
 10
-3.938113917404102
 20
55.7878642212783
 30
0
 40
2
 41
2.666666666666667
 71
    5
 72
    1
  1
47
  7
standard
210
0
220
0
230
1
 50
33.77066836274464
 73
    2
 44
1
  0
ENDBLK
  5
69
330
67
100
AcDbEntity
  8
0
100
AcDbBlockEnd
  0
BLOCK
  5
6B
330
6A
100
AcDbEntity
  8
0
100
AcDbBlockBegin
  2
*D19
 70
    1
 10
0
 20
0
  3
*D19
  1

  0
SOLID
  5
C4
100
AcDbEntity
  8
olcu
  6
ByBlock
 62
    0
370
   -2
100
AcDbTrace
 10
-38.00000000000001
 20
-36.65842331579466
 30
0
 11
-35.53729496453695
 21
-37.25706914147286
 31
0
 12
-35.86416376312009
 22
-38.02279001339749
 32
0
 13
-35.86416376312009
 23
-38.02279001339749
 33
0
  0
LINE
  5
C5
100
AcDbEntity
  8
olcu
  6
ByBlock
 62
    0
370
   -2
100
AcDbLine
 10
40.17520162983068
 20
-70.0296362115723
 11
-38.00000000000001
 21
-36.65842331579466
  0
MTEXT
  5
C6
100
AcDbEntity
  8
olcu
  6
CONTINUOUS
 62
    0
370
   -2
100
AcDbMText
 10
1.725579884981671
 20
-51.84950385017201
 30
0
 40
2
 41
2.444444444444568
 71
    5
 72
    1
  1
85
  7
standard
210
0
220
0
230
1
 50
336.8834679322479
 73
    2
 44
1
  0
ENDBLK
  5
6C
330
6A
100
AcDbEntity
  8
0
100
AcDbBlockEnd
  0
BLOCK
  5
6E
330
6D
100
AcDbEntity
  8
0
100
AcDbBlockBegin
  2
*D18
 70
    1
 10
0
 20
0
  3
*D18
  1

  0
SOLID
  5
C7
100
AcDbEntity
  8
olcu
  6
ByBlock
 62
    0
370
   -2
100
AcDbTrace
 10
4.220330444500518
 20
24.8037928301833
 30
0
 11
2.917388896621963
 21
26.97764568608429
 31
0
 12
3.692114431775976
 22
27.28255880546181
 32
0
 13
3.692114431775976
 23
27.28255880546181
 33
0
  0
LINE
  5
C8
100
AcDbEntity
  8
olcu
  6
ByBlock
 62
    0
370
   -2
100
AcDbLine
 10
-2.114745031383983
 20
40.90000000000002
 11
4.220330444500518
 21
24.8037928301833
  0
MTEXT
  5
C9
100
AcDbEntity
  8
olcu
  6
CONTINUOUS
 62
    0
370
   -2
100
AcDbMText
 10
2.564893826691605
 20
33.44702262228766
 30
0
 40
2
 41
4.333333333333457
 71
    5
 72
    1
  1
17,3
  7
standard
210
0
220
0
230
1
 50
291.4833917296893
 73
    2
 44
1
  0
ENDBLK
  5
6F
330
6D
100
AcDbEntity
  8
0
100
AcDbBlockEnd
  0
BLOCK
  5
71
330
70
100
AcDbEntity
  8
0
100
AcDbBlockBegin
  2
*D8
 70
    1
 10
0
 20
0
  3
*D8
  1

  0
LINE
  5
CA
100
AcDbEntity
  8
olcu
  6
ByBlock
 62
    0
370
   -2
100
AcDbLine
 10
3.552713678800501e-15
 20
83.8
 11
-16.9
 21
83.8
  0
SOLID
  5
CB
100
AcDbEntity
  8
olcu
  6
ByBlock
 62
    0
370
   -2
100
AcDbTrace
 10
3.552713678800501e-15
 20
83.8
 30
0
 11
-2.499999999999996
 21
83.38371534222716
 31
0
 12
-2.499999999999996
 22
84.21628465777283
 32
0
 13
-2.499999999999996
 23
84.21628465777283
 33
0
  0
SOLID
  5
CC
100
AcDbEntity
  8
olcu
  6
ByBlock
 62
    0
370
   -2
100
AcDbTrace
 10
-16.9
 20
83.8
 30
0
 11
-14.4
 21
84.21628465777283
 31
0
 12
-14.4
 22
83.38371534222716
 32
0
 13
-14.4
 23
83.38371534222716
 33
0
  0
MTEXT
  5
CD
100
AcDbEntity
  8
olcu
  6
CONTINUOUS
 62
    0
370
   -2
100
AcDbMText
 10
-8.449999999999998
 20
85.425
 30
0
 40
2
 41
4.333333333333456
 71
    5
 72
    1
  1
16,9
  7
standard
210
0
220
0
230
1
 50
360
 73
    2
 44
1
  0
LINE
  5
CE
100
AcDbEntity
  8
olcu
  6
ByBlock
 62
    0
370
   -2
100
AcDbLine
 10
5.169370834989115e-15
 20
84.425
 11
3.62925410374721e-15
 21
85.05
  0
LINE
  5
CF
100
AcDbEntity
  8
olcu
  6
ByBlock
 62
    0
370
   -2
100
AcDbLine
 10
-16.9
 20
84.425
 11
-16.9
 21
85.05
  0
ENDBLK
  5
72
330
70
100
AcDbEntity
  8
0
100
AcDbBlockEnd
  0
BLOCK
  5
74
330
73
100
AcDbEntity
  8
0
100
AcDbBlockBegin
  2
*D11
 70
    1
 10
0
 20
0
  3
*D11
  1

  0
LINE
  5
D0
100
AcDbEntity
  8
olcu
  6
ByBlock
 62
    0
370
   -2
100
AcDbLine
 10
8.148052835072884
 20
37.96945762128757
 11
8.447790216212837
 21
37.88350931030625
  0
LINE
  5
D1
100
AcDbEntity
  8
olcu
  6
ByBlock
 62
    0
370
   -2
100
AcDbLine
 10
16.25579304469421
 20
67.87531553340777
 11
22.32738611348939
 21
53.57153863796756
  0
ARC
  5
D2
100
AcDbEntity
  8
olcu
  6
ByBlock
 62
    0
370
   -2
100
AcDbCircle
 10
31.83290689945903
 20
31.17793500595411
 40
23.07752369313875
100
AcDbArc
 50
113
 51
164.0000000000001
  0
SOLID
  5
D3
100
AcDbEntity
  8
olcu
  6
ByBlock
 62
    0
370
   -2
100
AcDbTrace
 10
9.649367336135736
 20
37.53896261553501
 30
0
 11
10.07419438880044
 21
40.03752518061543
 31
0
 12
10.86091349685562
 22
39.76504635536645
 32
0
 13
10.86091349685562
 23
39.76504635536645
 33
0
  0
SOLID
  5
D4
100
AcDbEntity
  8
olcu
  6
ByBlock
 62
    0
370
   -2
100
AcDbTrace
 10
22.81580002410098
 20
52.42090757115201
 30
0
 11
20.75395951001191
 21
50.94710072805554
 31
0
 12
20.38763475946432
 22
51.69474893565351
 32
0
 13
20.38763475946432
 23
51.69474893565351
 33
0
  0
MTEXT
  5
D5
100
AcDbEntity
  8
olcu
  6
CONTINUOUS
 62
    0
370
   -2
100
AcDbMText
 10
14.08076618234589
 20
46.88370239833636
 30
0
 40
2
 41
3.333333333333457
 71
    8
 72
    1
  1
51%%D
  7
standard
210
0
220
0
230
1
 50
408.5000000000001
 73
    2
 44
1
  0
ENDBLK
  5
75
330
73
100
AcDbEntity
  8
0
100
AcDbBlockEnd
  0
BLOCK
  5
77
330
76
100
AcDbEntity
  8
0
100
AcDbBlockBegin
  2
*D23
 70
    1
 10
0
 20
0
  3
*D23
  1

  0
LINE
  5
D6
100
AcDbEntity
  8
olcu
  6
ByBlock
 62
    0
370
   -2
100
AcDbLine
 10
-60.34009943600524
 20
67.5
 11
-60.34009943600524
 21
58.8
  0
SOLID
  5
D7
100
AcDbEntity
  8
olcu
  6
ByBlock
 62
    0
370
   -2
100
AcDbTrace
 10
-60.34009943600524
 20
67.5
 30
0
 11
-59.9238147782324
 21
65
 31
0
 12
-60.75638409377808
 22
65
 32
0
 13
-60.75638409377808
 23
65
 33
0
  0
SOLID
  5
D8
100
AcDbEntity
  8
olcu
  6
ByBlock
 62
    0
370
   -2
100
AcDbTrace
 10
-60.34009943600524
 20
58.8
 30
0
 11
-60.75638409377808
 21
61.3
 31
0
 12
-59.9238147782324
 22
61.3
 32
0
 13
-59.9238147782324
 23
61.3
 33
0
  0
MTEXT
  5
D9
100
AcDbEntity
  8
olcu
  6
CONTINUOUS
 62
    0
370
   -2
100
AcDbMText
 10
-61.96509943600524
 20
63.15
 30
0
 40
2
 41
3.222222222222222
 71
    5
 72
    1
  1
8,7
  7
standard
210
0
220
0
230
1
 50
90
 73
    2
 44
1
  0
LINE
  5
DA
100
AcDbEntity
  8
olcu
  6
ByBlock
 62
    0
370
   -2
100
AcDbLine
 10
-50.625
 20
67.5
 11
-61.59009943600524
 21
67.5
  0
LINE
  5
DB
100
AcDbEntity
  8
olcu
  6
ByBlock
 62
    0
370
   -2
100
AcDbLine
 10
-50.625
 20
58.8
 11
-61.59009943600524
 21
58.8
  0
ENDBLK
  5
78
330
76
100
AcDbEntity
  8
0
100
AcDbBlockEnd
  0
BLOCK
  5
7A
330
79
100
AcDbEntity
  8
0
100
AcDbBlockBegin
  2
*D2
 70
    1
 10
0
 20
0
  3
*D2
  1

  0
LINE
  5
DC
100
AcDbEntity
  8
olcu
  6
ByBlock
 62
    0
370
   -2
100
AcDbLine
 10
7.105427357601002e-15
 20
83.8
 11
16.5
 21
83.8
  0
SOLID
  5
DD
100
AcDbEntity
  8
olcu
  6
ByBlock
 62
    0
370
   -2
100
AcDbTrace
 10
7.105427357601002e-15
 20
83.8
 30
0
 11
2.500000000000007
 21
84.21628465777283
 31
0
 12
2.500000000000007
 22
83.38371534222716
 32
0
 13
2.500000000000007
 23
83.38371534222716
 33
0
  0
SOLID
  5
DE
100
AcDbEntity
  8
olcu
  6
ByBlock
 62
    0
370
   -2
100
AcDbTrace
 10
16.5
 20
83.8
 30
0
 11
14
 21
83.38371534222716
 31
0
 12
14
 22
84.21628465777283
 32
0
 13
14
 23
84.21628465777283
 33
0
  0
MTEXT
  5
DF
100
AcDbEntity
  8
olcu
  6
CONTINUOUS
 62
    0
370
   -2
100
AcDbMText
 10
8.250000000000004
 20
85.425
 30
0
 40
2
 41
4.333333333333581
 71
    5
 72
    1
  1
16,5
  7
standard
210
0
220
0
230
1
 50
0
 73
    2
 44
1
  0
LINE
  5
E0
100
AcDbEntity
  8
olcu
  6
ByBlock
 62
    0
370
   -2
100
AcDbLine
 10
5.169370834989115e-15
 20
84.425
 11
7.181967782547711e-15
 21
85.05
  0
LINE
  5
E1
100
AcDbEntity
  8
olcu
  6
ByBlock
 62
    0
370
   -2
100
AcDbLine
 10
16.5
 20
84.425
 11
16.5
 21
85.05
  0
ENDBLK
  5
7B
330
79
100
AcDbEntity
  8
0
100
AcDbBlockEnd
  0
BLOCK
  5
7D
330
7C
100
AcDbEntity
  8
0
100
AcDbBlockBegin
  2
*D21
 70
    1
 10
0
 20
0
  3
*D21
  1

  0
LINE
  5
E2
100
AcDbEntity
  8
olcu
  6
ByBlock
 62
    0
370
   -2
100
AcDbLine
 10
-60.40693823773599
 20
1.4210854715202e-14
 11
-60.40693823773599
 21
40.90000000000003
  0
SOLID
  5
E3
100
AcDbEntity
  8
olcu
  6
ByBlock
 62
    0
370
   -2
100
AcDbTrace
 10
-60.40693823773599
 20
1.4210854715202e-14
 30
0
 11
-60.82322289550883
 21
2.500000000000014
 31
0
 12
-59.99065357996315
 22
2.500000000000014
 32
0
 13
-59.99065357996315
 23
2.500000000000014
 33
0
  0
SOLID
  5
E4
100
AcDbEntity
  8
olcu
  6
ByBlock
 62
    0
370
   -2
100
AcDbTrace
 10
-60.40693823773599
 20
40.90000000000003
 30
0
 11
-59.99065357996315
 21
38.40000000000003
 31
0
 12
-60.82322289550883
 22
38.40000000000003
 32
0
 13
-60.82322289550883
 23
38.40000000000003
 33
0
  0
MTEXT
  5
E5
100
AcDbEntity
  8
olcu
  6
CONTINUOUS
 62
    0
370
   -2
100
AcDbMText
 10
-62.03193823773599
 20
20.45000000000002
 30
0
 40
2
 41
5
 71
    5
 72
    1
  1
40,9
  7
standard
210
0
220
0
230
1
 50
90
 73
    2
 44
1
  0
LINE
  5
E6
100
AcDbEntity
  8
olcu
  6
ByBlock
 62
    0
370
   -2
100
AcDbLine
 10
-0.625
 20
5.20764104746247e-15
 11
-61.65693823773599
 21
1.436393556509542e-14
  0
LINE
  5
E7
100
AcDbEntity
  8
olcu
  6
ByBlock
 62
    0
370
   -2
100
AcDbLine
 10
-2.739745031383983
 20
40.90000000000002
 11
-61.65693823773599
 21
40.90000000000003
  0
ENDBLK
  5
7E
330
7C
100
AcDbEntity
  8
0
100
AcDbBlockEnd
  0
BLOCK
  5
80
330
7F
100
AcDbEntity
  8
0
100
AcDbBlockBegin
  2
*D12
 70
    1
 10
0
 20
0
  3
*D12
  1

  0
SOLID
  5
E8
100
AcDbEntity
  8
olcu
  6
ByBlock
 62
    0
370
   -2
100
AcDbTrace
 10
7.125795986814445
 20
23.17569446718879
 30
0
 11
9.399413845626981
 21
24.29549567650487
 31
0
 12
9.639598529320468
 22
23.49832381115383
 32
0
 13
9.639598529320468
 23
23.49832381115383
 33
0
  0
LINE
  5
E9
100
AcDbEntity
  8
olcu
  6
ByBlock
 62
    0
370
   -2
100
AcDbLine
 10
55
 20
37.6
 11
7.125795986814431
 21
23.17569446718883
  0
MTEXT
  5
EA
100
AcDbEntity
  8
olcu
  6
CONTINUOUS
 62
    0
370
   -2
100
AcDbMText
 10
30.59410806359085
 20
31.94375886402295
 30
0
 40
2
 41
2.444444444444568
 71
    5
 72
    1
  1
50
  7
standard
210
0
220
0
230
1
 50
16.76734336537604
 73
    2
 44
1
  0
ENDBLK
  5
81
330
7F
100
AcDbEntity
  8
0
100
AcDbBlockEnd
  0
BLOCK
  5
83
330
82
100
AcDbEntity
  8
0
100
AcDbBlockBegin
  2
*D17
 70
    1
 10
0
 20
0
  3
*D17
  1

  0
LINE
  5
EB
100
AcDbEntity
  8
olcu
  6
ByBlock
 62
    0
370
   -2
100
AcDbLine
 10
37.33278871670139
 20
-9.434129120884958
 11
48.68616317693464
 21
-14.02119015454626
  0
LINE
  5
EC
100
AcDbEntity
  8
olcu
  6
ByBlock
 62
    0
370
   -2
100
AcDbLine
 10
84.42500000000001
 20
4.27494772032965e-15
 11
51.41160645365409
 21
4.27494772032965e-15
  0
ARC
  5
ED
100
AcDbEntity
  8
olcu
  6
ByBlock
 62
    0
370
   -2
100
AcDbCircle
 10
13.98249975616721
 20
4.27494772032965e-15
 40
36.17910669748687
100
AcDbArc
 50
338
 51
0
  0
SOLID
  5
EE
100
AcDbEntity
  8
olcu
  6
ByBlock
 62
    0
370
   -2
100
AcDbTrace
 10
47.52718335872616
 20
-13.55293191277637
 30
0
 11
47.99194172009591
 21
-11.06148803786489
 31
0
 12
48.77419946639297
 22
-11.34652221747576
 32
0
 13
48.77419946639297
 23
-11.34652221747576
 33
0
  0
SOLID
  5
EF
100
AcDbEntity
  8
olcu
  6
ByBlock
 62
    0
370
   -2
100
AcDbTrace
 10
50.16160645365408
 20
4.27494772032965e-15
 30
0
 11
50.49128403543106
 21
-2.512887902070188
 31
0
 12
49.65921159992349
 22
-2.484128081891522
 32
0
 13
49.65921159992349
 23
-2.484128081891522
 33
0
  0
MTEXT
  5
F0
100
AcDbEntity
  8
olcu
  6
CONTINUOUS
 62
    0
370
   -2
100
AcDbMText
 10
48.88337737361897
 20
-6.784043380457945
 30
0
 40
2
 41
3.777777777777778
 71
    8
 72
    1
  1
22%%D
  7
standard
210
0
220
0
230
1
 50
79.00000000000003
 73
    2
 44
1
  0
ENDBLK
  5
84
330
82
100
AcDbEntity
  8
0
100
AcDbBlockEnd
  0
BLOCK
  5
86
330
85
100
AcDbEntity
  8
0
100
AcDbBlockBegin
  2
*D10
 70
    1
 10
0
 20
0
  3
*D10
  1

  0
LINE
  5
F1
100
AcDbEntity
  8
olcu
  6
ByBlock
 62
    0
370
   -2
100
AcDbLine
 10
83.8
 20
-9.199999999999999
 11
83.8
 21
-19
  0
SOLID
  5
F2
100
AcDbEntity
  8
olcu
  6
ByBlock
 62
    0
370
   -2
100
AcDbTrace
 10
83.8
 20
-9.199999999999999
 30
0
 11
84.21628465777283
 21
-11.7
 31
0
 12
83.38371534222716
 22
-11.7
 32
0
 13
83.38371534222716
 23
-11.7
 33
0
  0
SOLID
  5
F3
100
AcDbEntity
  8
olcu
  6
ByBlock
 62
    0
370
   -2
100
AcDbTrace
 10
83.8
 20
-19
 30
0
 11
83.38371534222716
 21
-16.5
 31
0
 12
84.21628465777283
 22
-16.5
 32
0
 13
84.21628465777283
 23
-16.5
 33
0
  0
MTEXT
  5
F4
100
AcDbEntity
  8
olcu
  6
CONTINUOUS
 62
    0
370
   -2
100
AcDbMText
 10
82.175
 20
-14.1
 30
0
 40
2
 41
3.222222222222346
 71
    5
 72
    1
  1
9,8
  7
standard
210
0
220
0
230
1
 50
90
 73
    2
 44
1
  0
LINE
  5
F5
100
AcDbEntity
  8
olcu
  6
ByBlock
 62
    0
370
   -2
100
AcDbLine
 10
83.175
 20
-9.199999999999999
 11
82.55
 21
-9.199999999999999
  0
LINE
  5
F6
100
AcDbEntity
  8
olcu
  6
ByBlock
 62
    0
370
   -2
100
AcDbLine
 10
83.175
 20
-19
 11
82.55
 21
-19
  0
ENDBLK
  5
87
330
85
100
AcDbEntity
  8
0
100
AcDbBlockEnd
  0
BLOCK
  5
89
330
88
100
AcDbEntity
  8
0
100
AcDbBlockBegin
  2
*D7
 70
    1
 10
0
 20
0
  3
*D7
  1

  0
LINE
  5
F7
100
AcDbEntity
  8
olcu
  6
ByBlock
 62
    0
370
   -2
100
AcDbLine
 10
83.8
 20
-14
 11
83.8
 21
-28
  0
SOLID
  5
F8
100
AcDbEntity
  8
olcu
  6
ByBlock
 62
    0
370
   -2
100
AcDbTrace
 10
83.8
 20
-19
 30
0
 11
83.38371534222716
 21
-16.5
 31
0
 12
84.21628465777283
 22
-16.5
 32
0
 13
84.21628465777283
 23
-16.5
 33
0
  0
SOLID
  5
F9
100
AcDbEntity
  8
olcu
  6
ByBlock
 62
    0
370
   -2
100
AcDbTrace
 10
83.8
 20
-23
 30
0
 11
84.21628465777283
 21
-25.5
 31
0
 12
83.38371534222716
 22
-25.5
 32
0
 13
83.38371534222716
 23
-25.5
 33
0
  0
MTEXT
  5
FA
100
AcDbEntity
  8
olcu
  6
CONTINUOUS
 62
    0
370
   -2
100
AcDbMText
 10
82.175
 20
-21
 30
0
 40
2
 41
1.111111111111111
 71
    5
 72
    1
  1
4
  7
standard
210
0
220
0
230
1
 50
90
 73
    2
 44
1
  0
LINE
  5
FB
100
AcDbEntity
  8
olcu
  6
ByBlock
 62
    0
370
   -2
100
AcDbLine
 10
83.175
 20
-19
 11
82.55
 21
-19
  0
LINE
  5
FC
100
AcDbEntity
  8
olcu
  6
ByBlock
 62
    0
370
   -2
100
AcDbLine
 10
83.175
 20
-23
 11
82.55
 21
-23
  0
ENDBLK
  5
8A
330
88
100
AcDbEntity
  8
0
100
AcDbBlockEnd
  0
BLOCK
  5
8C
330
8B
100
AcDbEntity
  8
0
100
AcDbBlockBegin
  2
*D22
 70
    1
 10
0
 20
0
  3
*D22
  1

  0
LINE
  5
FD
100
AcDbEntity
  8
olcu
  6
ByBlock
 62
    0
370
   -2
100
AcDbLine
 10
-70.39548708019626
 20
67.3
 11
-70.39548708019626
 21
7.438494264988549e-15
  0
SOLID
  5
FE
100
AcDbEntity
  8
olcu
  6
ByBlock
 62
    0
370
   -2
100
AcDbTrace
 10
-70.39548708019626
 20
67.3
 30
0
 11
-69.97920242242343
 21
64.8
 31
0
 12
-70.8117717379691
 22
64.8
 32
0
 13
-70.8117717379691
 23
64.8
 33
0
  0
SOLID
  5
FF
100
AcDbEntity
  8
olcu
  6
ByBlock
 62
    0
370
   -2
100
AcDbTrace
 10
-70.39548708019626
 20
7.438494264988549e-15
 30
0
 11
-70.8117717379691
 21
2.500000000000008
 31
0
 12
-69.97920242242343
 22
2.500000000000008
 32
0
 13
-69.97920242242343
 23
2.500000000000008
 33
0
  0
MTEXT
  5
100
100
AcDbEntity
  8
olcu
  6
CONTINUOUS
 62
    0
370
   -2
100
AcDbMText
 10
-72.02048708019626
 20
33.65000000000001
 30
0
 40
2
 41
4.777777777778025
 71
    5
 72
    1
  1
67,3
  7
standard
210
0
220
0
230
1
 50
90
 73
    2
 44
1
  0
LINE
  5
101
100
AcDbEntity
  8
olcu
  6
ByBlock
 62
    0
370
   -2
100
AcDbLine
 10
-50.625
 20
67.3
 11
-71.64548708019626
 21
67.3
  0
LINE
  5
102
100
AcDbEntity
  8
olcu
  6
ByBlock
 62
    0
370
   -2
100
AcDbLine
 10
-38.625
 20
7.534393119724986e-15
 11
-71.64548708019626
 21
7.591575114881968e-15
  0
ENDBLK
  5
8D
330
8B
100
AcDbEntity
  8
0
100
AcDbBlockEnd
  0
BLOCK
  5
8F
330
8E
100
AcDbEntity
  8
0
100
AcDbBlockBegin
  2
*D9
 70
    1
 10
0
 20
0
  3
*D9
  1

  0
LINE
  5
103
100
AcDbEntity
  8
olcu
  6
ByBlock
 62
    0
370
   -2
100
AcDbLine
 10
83.8
 20
0
 11
83.8
 21
-9.199999999999999
  0
SOLID
  5
104
100
AcDbEntity
  8
olcu
  6
ByBlock
 62
    0
370
   -2
100
AcDbTrace
 10
83.8
 20
0
 30
0
 11
84.21628465777283
 21
-2.5
 31
0
 12
83.38371534222716
 22
-2.5
 32
0
 13
83.38371534222716
 23
-2.5
 33
0
  0
SOLID
  5
105
100
AcDbEntity
  8
olcu
  6
ByBlock
 62
    0
370
   -2
100
AcDbTrace
 10
83.8
 20
-9.199999999999999
 30
0
 11
83.38371534222716
 21
-6.699999999999999
 31
0
 12
84.21628465777283
 22
-6.699999999999999
 32
0
 13
84.21628465777283
 23
-6.699999999999999
 33
0
  0
MTEXT
  5
106
100
AcDbEntity
  8
olcu
  6
CONTINUOUS
 62
    0
370
   -2
100
AcDbMText
 10
82.175
 20
-4.6
 30
0
 40
2
 41
3.222222222222346
 71
    5
 72
    1
  1
9,2
  7
standard
210
0
220
0
230
1
 50
90
 73
    2
 44
1
  0
LINE
  5
107
100
AcDbEntity
  8
olcu
  6
ByBlock
 62
    0
370
   -2
100
AcDbLine
 10
83.175
 20
7.654042494670958e-17
 11
82.55
 21
1.530808498934192e-16
  0
LINE
  5
108
100
AcDbEntity
  8
olcu
  6
ByBlock
 62
    0
370
   -2
100
AcDbLine
 10
83.175
 20
-9.199999999999999
 11
82.55
 21
-9.199999999999999
  0
ENDBLK
  5
90
330
8E
100
AcDbEntity
  8
0
100
AcDbBlockEnd
  0
BLOCK
  5
92
330
91
100
AcDbEntity
  8
0
100
AcDbBlockBegin
  2
*D5
 70
    1
 10
0
 20
0
  3
*D5
  1

  0
LINE
  5
109
100
AcDbEntity
  8
olcu
  6
ByBlock
 62
    0
370
   -2
100
AcDbLine
 10
-83.8
 20
58.8
 11
-83.8
 21
-58.8
  0
SOLID
  5
10A
100
AcDbEntity
  8
olcu
  6
ByBlock
 62
    0
370
   -2
100
AcDbTrace
 10
-83.8
 20
58.8
 30
0
 11
-83.38371534222716
 21
56.3
 31
0
 12
-84.21628465777283
 22
56.3
 32
0
 13
-84.21628465777283
 23
56.3
 33
0
  0
SOLID
  5
10B
100
AcDbEntity
  8
olcu
  6
ByBlock
 62
    0
370
   -2
100
AcDbTrace
 10
-83.8
 20
-58.8
 30
0
 11
-84.21628465777283
 21
-56.3
 31
0
 12
-83.38371534222716
 22
-56.3
 32
0
 13
-83.38371534222716
 23
-56.3
 33
0
  0
MTEXT
  5
10C
100
AcDbEntity
  8
olcu
  6
CONTINUOUS
 62
    0
370
   -2
100
AcDbMText
 10
-85.425
 20
1.990051048614449e-16
 30
0
 40
2
 41
5.444444444444568
 71
    5
 72
    1
  1
117,6
  7
standard
210
0
220
0
230
1
 50
90
 73
    2
 44
1
  0
LINE
  5
10D
100
AcDbEntity
  8
olcu
  6
ByBlock
 62
    0
370
   -2
100
AcDbLine
 10
-0.6249999999999964
 20
58.8
 11
-85.05
 21
58.8
  0
LINE
  5
10E
100
AcDbEntity
  8
olcu
  6
ByBlock
 62
    0
370
   -2
100
AcDbLine
 10
-0.6250000000000178
 20
-58.8
 11
-85.05
 21
-58.8
  0
ENDBLK
  5
93
330
91
100
AcDbEntity
  8
0
100
AcDbBlockEnd
  0
ENDSEC
  0
SECTION
  2
ENTITIES
  0
LINE
  5
10F
100
AcDbEntity
  8
ref
  6
ByLayer
 62
  256
370
   -1
100
AcDbLine
 10
5.13110062251576e-15
 20
83.8
 11
-1.539330186754728e-14
 21
-83.8
  0
LINE
  5
110
100
AcDbEntity
  8
ref
  6
ByLayer
 62
  256
370
   -1
100
AcDbLine
 10
83.8
 20
0
 11
-83.8
 21
1.026220124503152e-14
  0
LINE
  5
111
100
AcDbEntity
  8
ref
  6
ByLayer
 62
  256
370
   -1
100
AcDbLine
 10
-37.99999999999999
 20
83.80000000000001
 11
-38.00000000000001
 21
-83.79999999999998
  0
LINE
  5
112
100
AcDbEntity
  8
ref
  6
ByLayer
 62
  256
370
   -1
100
AcDbLine
 10
-8
 20
0
 11
-8
 21
-8
  0
LINE
  5
113
100
AcDbEntity
  8
ref
  6
ByLayer
 62
  256
370
   -1
100
AcDbLine
 10
-16.9
 20
83.8
 11
-16.90000000000001
 21
-83.8
  0
LINE
  5
114
100
AcDbEntity
  8
ref
  6
ByLayer
 62
  256
370
   -1
100
AcDbLine
 10
83.8
 20
-23
 11
-83.8
 21
-22.99999999999999
  0
LINE
  5
115
100
AcDbEntity
  8
ref
  6
ByLayer
 62
  256
370
   -1
100
AcDbLine
 10
8.999999999999991
 20
-22.99999999999999
 11
8.999999999999984
 21
-83.8
  0
LINE
  5
116
100
AcDbEntity
  8
ref
  6
ByLayer
 62
  256
370
   -1
100
AcDbLine
 10
5.999999999999988
 20
-58.49307651337891
 11
5.999999999999985
 21
-83.8
  0
ARC
  5
117
100
AcDbEntity
  8
0
  6
ByLayer
 62
  256
370
   -1
100
AcDbCircle
 10
87.25815543761969
 20
-47.48797883659149
 40
82
100
AcDbArc
 50
162.6244302453399
 51
187.7128542577261
  0
LINE
  5
118
100
AcDbEntity
  8
ref
  6
ByLayer
 62
  256
370
   -1
100
AcDbLine
 10
83.8
 20
-19
 11
-83.8
 21
-18.99999999999999
  0
LINE
  5
119
100
AcDbEntity
  8
ref
  6
ByLayer
 62
  256
370
   -1
100
AcDbLine
 10
32.69999999999999
 20
-19
 11
32.69999999999998
 21
-83.8
  0
ARC
  5
11A
100
AcDbEntity
  8
0
  6
ByLayer
 62
  256
370
   -1
100
AcDbCircle
 10
0
 20
0
 40
58.8
100
AcDbArc
 50
281.7068488777879
 51
275.8567019099183
  0
ARC
  5
11B
100
AcDbEntity
  8
0
  6
ByLayer
 62
  256
370
   -1
100
AcDbCircle
 10
87.25815543761969
 20
-47.48797883659149
 40
76
100
AcDbArc
 50
183.0727118413204
 51
187.7128542577261
  0
LINE
  5
11C
100
AcDbEntity
  8
ref
  6
ByLayer
 62
  256
370
   -1
100
AcDbLine
 10
16.5
 20
83.8
 11
16.5
 21
50.15565770678319
  0
LINE
  5
11D
100
AcDbEntity
  8
ref
  6
ByLayer
 62
  256
370
   -1
100
AcDbLine
 10
-50
 20
58.8
 11
2.069584737959816e-15
 21
58.8
  0
LINE
  5
11E
100
AcDbEntity
  8
ref
  6
ByLayer
 62
  256
370
   -1
100
AcDbLine
 10
16.5
 20
67.3
 11
55.57311284892738
 21
-24.75048534524403
  0
LINE
  5
11F
100
AcDbEntity
  8
ref
  6
ByLayer
 62
  256
370
   -1
100
AcDbLine
 10
83.80000000000001
 20
37.6
 11
45.2070790916644
 21
37.6
  0
LINE
  5
120
100
AcDbEntity
  8
ref
  6
ByLayer
 62
  256
370
   -1
100
AcDbLine
 10
55
 20
83.79999999999998
 11
55
 21
37.6
  0
ARC
  5
121
100
AcDbEntity
  8
0
  6
ByLayer
 62
  256
370
   -1
100
AcDbCircle
 10
0
 20
0
 40
52.8
100
AcDbArc
 50
90.16698701736895
 51
118.8927233743806
  0
ARC
  5
122
100
AcDbEntity
  8
0
  6
ByLayer
 62
  256
370
   -1
100
AcDbCircle
 10
0
 20
0
 40
52.8
100
AcDbArc
 50
282.4326611306748
 51
82.1501020704233
  0
LINE
  5
123
100
AcDbEntity
  8
ref
  6
ByLayer
 62
  256
370
   -1
100
AcDbLine
 10
-1.999999999999995
 20
83.8
 11
-2.000000000000016
 21
-83.8
  0
LINE
  5
124
100
AcDbEntity
  8
ref
  6
ByLayer
 62
  256
370
   -1
100
AcDbLine
 10
5.109018851098931
 20
40.90000000000001
 11
-2.114745031383976
 21
40.90000000000001
  0
DIMENSION
  5
125
100
AcDbEntity
  8
olcu
  6
ByLayer
 62
  256
370
   -1
100
AcDbDimension
  2
*D1
 10
5.517570368804796e-15
 20
90.11152992941493
 30
0
 11
-0.999999999999995
 21
91.73652992941493
 31
0
 70
   32
 71
    5
 72
    0
  3
Standard
 53
0
210
0
220
0
230
1
100
AcDbAlignedDimension
 13
-1.999999999999995
 23
83.8
 33
0
 14
5.13110062251576e-15
 24
83.8
 34
0
100
AcDbRotatedDimension
  0
DIMENSION
  5
126
100
AcDbEntity
  8
olcu
  6
ByLayer
 62
  256
370
   -1
100
AcDbDimension
  2
*D2
 10
16.5
 20
83.8
 30
0
 11
8.250000000000004
 21
85.425
 31
0
 70
   32
 71
    5
 72
    0
  3
Standard
 53
0
210
0
220
0
230
1
100
AcDbAlignedDimension
 13
5.13110062251576e-15
 23
83.8
 33
0
 14
16.5
 24
83.8
 34
0
100
AcDbRotatedDimension
  0
DIMENSION
  5
127
100
AcDbEntity
  8
olcu
  6
ByLayer
 62
  256
370
   -1
100
AcDbDimension
  2
*D3
 10
55
 20
83.79999999999998
 30
0
 11
35.75
 21
85.42499999999998
 31
0
 70
   32
 71
    5
 72
    0
  3
Standard
 53
0
210
0
220
0
230
1
100
AcDbAlignedDimension
 13
16.5
 23
83.8
 33
0
 14
55
 24
83.79999999999998
 34
0
100
AcDbRotatedDimension
  0
LINE
  5
128
100
AcDbEntity
  8
ref
  6
ByLayer
 62
  256
370
   -1
100
AcDbLine
 10
-50
 20
67.5
 11
16.5
 21
67.5
  0
ARC
  5
129
100
AcDbEntity
  8
0
  6
ByLayer
 62
  256
370
   -1
100
AcDbCircle
 10
0
 20
0
 40
52.8
100
AcDbArc
 50
125.3333868286138
 51
223.970532639608
  0
ARC
  5
12A
100
AcDbEntity
  8
0
  6
ByLayer
 62
  256
370
   -1
100
AcDbCircle
 10
16.5
 20
67.5
 40
53
100
AcDbArc
 50
207.4427880993627
 51
292.9047350855241
  0
ARC
  5
12B
100
AcDbEntity
  8
0
  6
ByLayer
 62
  256
370
   -1
100
AcDbCircle
 10
16.5
 20
67.5
 40
47
100
AcDbArc
 50
206.8512819188692
 51
248.8079077596518
  0
ARC
  5
12C
100
AcDbEntity
  8
0
  6
ByLayer
 62
  256
370
   -1
100
AcDbCircle
 10
16.5
 20
67.5
 40
47
100
AcDbArc
 50
259.2361731049978
 51
292.9047350855241
  0
ARC
  5
12D
100
AcDbEntity
  8
0
  6
ByLayer
 62
  256
370
   -1
100
AcDbCircle
 10
55
 20
37.6
 40
57.21
100
AcDbArc
 50
164.5924059718878
 51
194.0838393939371
  0
LINE
  5
12E
100
AcDbEntity
  8
0
  6
ByLayer
 62
  256
370
   -1
100
AcDbLine
 10
34.79240367458711
 20
24.20579752662082
 11
37.12760414368334
 21
18.67887806193411
  0
DIMENSION
  5
12F
100
AcDbEntity
  8
olcu
  6
ByLayer
 62
  256
370
   -1
100
AcDbDimension
  2
*D4
 10
16.5
 20
67.5
 30
0
 11
-3.938113917404102
 21
55.7878642212783
 31
0
 70
   36
 71
    5
  3
Standard
 53
0
210
0
220
0
230
1
100
AcDbRadialDimension
 15
-22.56964990023567
 25
41.37410371541265
 35
0
 40
0
  0
DIMENSION
  5
130
100
AcDbEntity
  8
olcu
  6
ByLayer
 62
  256
370
   -1
100
AcDbDimension
  2
*D5
 10
-83.8
 20
-58.79999999999998
 30
0
 11
-85.425
 21
1.990051048614449e-16
 31
0
 70
   32
 71
    5
  3
Standard
 53
0
210
0
220
0
230
1
100
AcDbAlignedDimension
 13
3.552713678800501e-15
 23
58.8
 33
0
 14
-1.77635683940025e-14
 24
-58.8
 34
0
 50
90
100
AcDbRotatedDimension
  0
DIMENSION
  5
131
100
AcDbEntity
  8
olcu
  6
ByLayer
 62
  256
370
   -1
100
AcDbDimension
  2
*D6
 10
83.8
 20
0
 30
0
 11
82.175
 21
18.8
 31
0
 70
   32
 71
    5
  3
Standard
 53
0
210
0
220
0
230
1
100
AcDbAlignedDimension
 13
83.80000000000001
 23
37.6
 33
0
 14
83.8
 24
0
 34
0
 50
90
100
AcDbRotatedDimension
  0
DIMENSION
  5
132
100
AcDbEntity
  8
olcu
  6
ByLayer
 62
  256
370
   -1
100
AcDbDimension
  2
*D7
 10
83.8
 20
-23
 30
0
 11
82.175
 21
-21
 31
0
 70
   32
 71
    5
  3
Standard
 53
0
210
0
220
0
230
1
100
AcDbAlignedDimension
 13
83.8
 23
-19
 33
0
 14
83.8
 24
-23
 34
0
 50
90
100
AcDbRotatedDimension
  0
LINE
  5
133
100
AcDbEntity
  8
ref
  6
ByLayer
 62
  256
370
   -1
100
AcDbLine
 10
83.8
 20
-9.199999999999999
 11
36.07441061023871
 21
-9.199999999999998
  0
DIMENSION
  5
134
100
AcDbEntity
  8
olcu
  6
ByLayer
 62
  256
370
   -1
100
AcDbDimension
  2
*D8
 10
-16.9
 20
83.8
 30
0
 11
-8.449999999999998
 21
85.425
 31
0
 70
   32
 71
    5
  3
Standard
 53
0
210
0
220
0
230
1
100
AcDbAlignedDimension
 13
5.13110062251576e-15
 23
83.8
 33
0
 14
-16.9
 24
83.8
 34
0
100
AcDbRotatedDimension
  0
DIMENSION
  5
135
100
AcDbEntity
  8
olcu
  6
ByLayer
 62
  256
370
   -1
100
AcDbDimension
  2
*D9
 10
83.8
 20
-9.199999999999999
 30
0
 11
82.175
 21
-4.6
 31
0
 70
   32
 71
    5
  3
Standard
 53
0
210
0
220
0
230
1
100
AcDbAlignedDimension
 13
83.8
 23
0
 33
0
 14
83.8
 24
-9.199999999999999
 34
0
 50
90
100
AcDbRotatedDimension
  0
DIMENSION
  5
136
100
AcDbEntity
  8
olcu
  6
ByLayer
 62
  256
370
   -1
100
AcDbDimension
  2
*D10
 10
83.8
 20
-19
 30
0
 11
82.175
 21
-14.1
 31
0
 70
   32
 71
    5
  3
Standard
 53
0
210
0
220
0
230
1
100
AcDbAlignedDimension
 13
83.8
 23
-9.199999999999999
 33
0
 14
83.8
 24
-19
 34
0
 50
90
100
AcDbRotatedDimension
  0
ARC
  5
137
100
AcDbEntity
  8
0
  6
ByLayer
 62
  256
370
   -1
100
AcDbCircle
 10
55
 20
37.6
 40
50
100
AcDbArc
 50
162.896152255582
 51
186.0218308268804
  0
ARC
  5
138
100
AcDbEntity
  8
0
  6
ByLayer
 62
  256
370
   -1
100
AcDbCircle
 10
55
 20
37.6
 40
50
100
AcDbArc
 50
193.598985509142
 51
198.9935089788118
  0
ARC
  5
139
100
AcDbEntity
  8
0
  6
ByLayer
 62
  256
370
   -1
100
AcDbCircle
 10
-2.114745031383983
 20
40.90000000000002
 40
11.29800758870259
100
AcDbArc
 50
310.8555890769524
 51
344.0598026571743
  0
ARC
  5
13A
100
AcDbEntity
  8
0
  6
ByLayer
 62
  256
370
   -1
100
AcDbCircle
 10
-2.114745031383983
 20
40.90000000000002
 40
17.29800758870259
100
AcDbArc
 50
299.4944452493752
 51
344.0390594581931
  0
LINE
  5
13B
100
AcDbEntity
  8
0
  6
ByLayer
 62
  256
370
   -1
100
AcDbLine
 10
8.748841395034336
 20
37.79718427390195
 11
14.51641362260329
 21
36.14335955061591
  0
LINE
  5
13C
100
AcDbEntity
  8
ref
  6
ByLayer
 62
  256
370
   -1
100
AcDbLine
 10
-2.114745031383983
 20
40.90000000000002
 11
8.74884139503434
 21
37.79718427390195
  0
DIMENSION
  5
13D
100
AcDbEntity
  8
olcu
  6
ByLayer
 62
  256
370
   -1
100
AcDbDimension
  2
*D11
 10
55.57311284892738
 20
-24.75048534524403
 30
0
 11
0
 21
0
 31
0
 70
   34
 71
    5
  3
Standard
 53
0
210
0
220
0
230
1
100
AcDb2LineAngularDimension
 13
14.51641362260329
 23
36.14335955061591
 33
0
 14
8.748841395034336
 24
37.79718427390195
 34
0
 15
16.5
 25
67.3
 35
0
 16
10.65012862815852
 26
40.33555503062751
 36
0
  0
DIMENSION
  5
13E
100
AcDbEntity
  8
olcu
  6
ByLayer
 62
  256
370
   -1
100
AcDbDimension
  2
*D12
 10
55
 20
37.6
 30
0
 11
30.59410806359085
 21
31.94375886402295
 31
0
 70
   36
 71
    5
  3
Standard
 53
0
210
0
220
0
230
1
100
AcDbRadialDimension
 15
7.125795986814445
 25
23.17569446718879
 35
0
 40
0
  0
DIMENSION
  5
13F
100
AcDbEntity
  8
olcu
  6
ByLayer
 62
  256
370
   -1
100
AcDbDimension
  2
*D13
 10
31.81948758032618
 20
-85.99421391343286
 30
0
 11
30.63488412435222
 21
-52.47575124504526
 31
0
 70
   36
 71
    5
  3
Standard
 53
0
210
0
220
0
230
1
100
AcDbRadialDimension
 15
32.69999999999999
 25
-19.00000000000003
 35
0
 40
0
  0
DIMENSION
  5
140
100
AcDbEntity
  8
olcu
  6
ByLayer
 62
  256
370
   -1
100
AcDbDimension
  2
*D14
 10
-83.8
 20
1.026220124503152e-14
 30
0
 11
0
 21
0
 31
0
 70
   34
 71
    5
  3
Standard
 53
0
210
0
220
0
230
1
100
AcDb2LineAngularDimension
 13
55.57311284892738
 23
-24.75048534524403
 33
0
 14
16.5
 24
67.3
 34
0
 15
83.8
 25
0
 35
0
 16
34.50267937526426
 26
12.85609390734369
 36
0
  0
ARC
  5
141
100
AcDbEntity
  8
0
  6
ByLayer
 62
  256
370
   -1
100
AcDbCircle
 10
40.17520162983068
 20
-70.0296362115723
 40
85
100
AcDbArc
 50
124.5250905543365
 51
156.8834679322479
  0
DIMENSION
  5
142
100
AcDbEntity
  8
olcu
  6
ByLayer
 62
  256
370
   -1
100
AcDbDimension
  2
*D15
 10
-5.620959342174702e-15
 20
-7.999999999999999
 30
0
 11
-3.999999999999999
 21
-6.374999999999999
 31
0
 70
   32
 71
    5
  3
Standard
 53
0
210
0
220
0
230
1
100
AcDbAlignedDimension
 13
-7.999999999999993
 23
1.4210854715202e-14
 33
0
 14
-5.13110062251576e-15
 24
7.8907591241896e-15
 34
0
100
AcDbRotatedDimension
  0
LINE
  5
143
100
AcDbEntity
  8
0
  6
ByLayer
 62
  256
370
   -1
100
AcDbLine
 10
-8
 20
0
 11
-16.89999999999999
 21
12.47733982083938
  0
LINE
  5
144
100
AcDbEntity
  8
0
  6
ByLayer
 62
  256
370
   -1
100
AcDbLine
 10
-16.90000000000001
 20
12.47733982083939
 11
36.75329880759715
 21
-9.199999999999999
  0
LINE
  5
145
100
AcDbEntity
  8
0
  6
ByLayer
 62
  256
370
   -1
100
AcDbLine
 10
33.37466487356067
 20
-19.01226542291336
 11
36.75329880759715
 21
-9.199999999999998
  0
ARC
  5
146
100
AcDbEntity
  8
0
  6
ByLayer
 62
  256
370
   -1
100
AcDbCircle
 10
31.81948758032618
 20
-85.99421391343286
 40
67
100
AcDbArc
 50
88.66995375291313
 51
109.9127855433534
  0
DIMENSION
  5
147
100
AcDbEntity
  8
olcu
  6
ByLayer
 62
  256
370
   -1
100
AcDbDimension
  2
*D16
 10
-5.935890442190649e-15
 20
-13.14321517412554
 30
0
 11
-8.450000000000005
 21
-11.51821517412554
 31
0
 70
   32
 71
    5
  3
Standard
 53
0
210
0
220
0
230
1
100
AcDbAlignedDimension
 13
-16.90000000000001
 23
12.47733982083939
 33
0
 14
-5.13110062251576e-15
 24
5.13110062251576e-15
 34
0
100
AcDbRotatedDimension
  0
DIMENSION
  5
148
100
AcDbEntity
  8
olcu
  6
ByLayer
 62
  256
370
   -1
100
AcDbDimension
  2
*D17
 10
-83.8
 20
1.026220124503152e-14
 30
0
 11
0
 21
0
 31
0
 70
   34
 71
    5
  3
Standard
 53
0
210
0
220
0
230
1
100
AcDb2LineAngularDimension
 13
36.75329880759715
 23
-9.199999999999999
 33
0
 14
-16.90000000000001
 24
12.47733982083939
 34
0
 15
83.8
 25
0
 35
0
 16
48.97232344003477
 26
-9.199999999999998
 36
0
  0
DIMENSION
  5
149
100
AcDbEntity
  8
olcu
  6
ByLayer
 62
  256
370
   -1
100
AcDbDimension
  2
*D18
 10
-2.114745031383983
 20
40.90000000000002
 30
0
 11
2.564893826691605
 21
33.44702262228766
 31
0
 70
   36
 71
    5
  3
Standard
 53
0
210
0
220
0
230
1
100
AcDbRadialDimension
 15
4.220330444500518
 25
24.8037928301833
 35
0
 40
0
  0
DIMENSION
  5
14A
100
AcDbEntity
  8
olcu
  6
ByLayer
 62
  256
370
   -1
100
AcDbDimension
  2
*D19
 10
40.17520162983068
 20
-70.0296362115723
 30
0
 11
1.725579884981671
 21
-51.84950385017201
 31
0
 70
   36
 71
    5
  3
Standard
 53
0
210
0
220
0
230
1
100
AcDbRadialDimension
 15
-38.00000000000001
 25
-36.65842331579466
 35
0
 40
0
  0
DIMENSION
  5
14B
100
AcDbEntity
  8
olcu
  6
ByLayer
 62
  256
370
   -1
100
AcDbDimension
  2
*D20
 10
36.75329880759715
 20
-9.199999999999999
 30
0
 11
0
 21
0
 31
0
 70
   34
 71
    5
  3
Standard
 53
0
210
0
220
0
230
1
100
AcDb2LineAngularDimension
 13
-16.89999999999999
 23
12.47733982083938
 33
0
 14
-8
 24
0
 34
0
 15
-16.90000000000001
 25
12.47733982083939
 35
0
 16
-27.11177542953505
 26
20.13564607924533
 36
0
  0
DIMENSION
  5
14C
100
AcDbEntity
  8
olcu
  6
ByLayer
 62
  256
370
   -1
100
AcDbDimension
  2
*D21
 10
-60.40693823773599
 20
40.90000000000003
 30
0
 11
-62.03193823773599
 21
20.45000000000002
 31
0
 70
   32
 71
    5
  3
Standard
 53
0
210
0
220
0
230
1
100
AcDbAlignedDimension
 13
0
 23
5.13110062251576e-15
 33
0
 14
-2.114745031383983
 24
40.90000000000002
 34
0
 50
90
100
AcDbRotatedDimension
  0
DIMENSION
  5
14D
100
AcDbEntity
  8
olcu
  6
ByLayer
 62
  256
370
   -1
100
AcDbDimension
  2
*D22
 10
-70.39548708019626
 20
0.6341935772990654
 30
0
 11
-72.02048708019626
 21
33.65000000000001
 31
0
 70
   32
 71
    5
 72
    0
  3
Standard
 53
0
210
0
220
0
230
1
100
AcDbAlignedDimension
 13
-50
 23
67.3
 33
0
 14
-38
 24
7.457852694778276e-15
 34
0
 50
90
100
AcDbRotatedDimension
  0
DIMENSION
  5
14E
100
AcDbEntity
  8
olcu
  6
ByLayer
 62
  256
370
   -1
100
AcDbDimension
  2
*D23
 10
-60.34009943600524
 20
56.41554012309433
 30
0
 11
-61.96509943600524
 21
63.15
 31
0
 70
   32
 71
    5
  3
Standard
 53
0
210
0
220
0
230
1
100
AcDbAlignedDimension
 13
-50
 23
67.5
 33
0
 14
-50
 24
58.8
 34
0
 50
90
100
AcDbRotatedDimension
  0
ENDSEC
  0
SECTION
  2
OBJECTS
  0
DICTIONARY
  5
C
330
0
100
AcDbDictionary
281
    1
  3
ACAD_GROUP
350
D
  0
DICTIONARY
  5
D
330
C
100
AcDbDictionary
281
    1
  0
ENDSEC
  0
EOF
