999
dxfrw 0.6.3
  0
SECTION
  2
HEADER
  9
$ACADVER
  1
AC1021
  9
$DWGCODEPAGE
  3
ANSI_1252
  9
$INSBASE
 10
0
 20
0
 30
0
  9
$EXTMIN
 10
68.07463395421951
 20
96.7499999999999
 30
0
  9
$EXTMAX
 10
365.6493802340646
 20
171.9499999999999
 30
0
  9
$LIMMIN
 10
0
 20
0
  9
$LIMMAX
 10
420
 20
297
  9
$ORTHOMODE
 70
    0
  9
$REGENMODE
 70
    1
  9
$FILLMODE
 70
    1
  9
$QTEXTMODE
 70
    0
  9
$MIRRTEXT
 70
    0
  9
$LTSCALE
 40
1
  9
$ATTMODE
 70
    0
  9
$TEXTSIZE
 40
2.5
  9
$TRACEWID
 40
15.68
  9
$TEXTSTYLE
  7
STANDARD
  9
$CLAYER
  8
referans_cizgiler
  9
$CELTYPE
  6
BYLAYER
  9
$CECOLOR
 62
  256
  9
$CELTSCALE
 40
1
  9
$DISPSILH
 70
    0
  9
$DIMSCALE
 40
2.5
  9
$DIMASZ
 40
2.5
  9
$DIMEXO
 40
0.625
  9
$DIMDLI
 40
3.75
  9
$DIMRND
 40
0
  9
$DIMDLE
 40
0
  9
$DIMEXE
 40
1.25
  9
$DIMTP
 40
0
  9
$DIMTM
 40
0
  9
$DIMTXT
 40
1.5
  9
$DIMCEN
 40
2.5
  9
$DIMTSZ
 40
0
  9
$DIMTOL
 70
    0
  9
$DIMLIM
 70
    0
  9
$DIMTIH
 70
    0
  9
$DIMTOH
 70
    0
  9
$DIMSE1
 70
    0
  9
$DIMSE2
 70
    0
  9
$DIMTAD
 70
    1
  9
$DIMZIN
 70
    8
  9
$DIMBLK
  1

  9
$DIMASO
 70
    1
  9
$DIMSHO
 70
    1
  9
$DIMPOST
  1

  9
$DIMAPOST
  1

  9
$DIMALT
 70
    0
  9
$DIMALTD
 70
    3
  9
$DIMALTF
 40
0.03937
  9
$DIMLFAC
 40
1
  9
$DIMTOFL
 70
    1
  9
$DIMTVP
 40
0
  9
$DIMTIX
 70
    0
  9
$DIMSOXD
 70
    0
  9
$DIMSAH
 70
    0
  9
$DIMBLK1
  1

  9
$DIMBLK2
  1

  9
$DIMSTYLE
  2
STANDARD
  9
$DIMCLRD
 70
    0
  9
$DIMCLRE
 70
    0
  9
$DIMCLRT
 70
    0
  9
$DIMTFAC
 40
1
  9
$DIMGAP
 40
0.625
  9
$DIMJUST
 70
    0
  9
$DIMSD1
 70
    0
  9
$DIMSD2
 70
    0
  9
$DIMTOLJ
 70
    0
  9
$DIMTZIN
 70
    8
  9
$DIMALTZ
 70
    0
  9
$DIMALTTZ
 70
    0
  9
$DIMUPT
 70
    0
  9
$DIMDEC
 70
    2
  9
$DIMTDEC
 70
    2
  9
$DIMALTU
 70
    2
  9
$DIMALTTD
 70
    3
  9
$DIMTXSTY
  7
standard
  9
$DIMAUNIT
 70
    0
  9
$DIMADEC
 70
    2
  9
$DIMALTRND
 40
0
  9
$DIMAZIN
 70
    0
  9
$DIMDSEP
 70
   44
  9
$DIMATFIT
 70
    3
  9
$DIMFRAC
 70
    0
  9
$DIMLDRBLK
  1
STANDARD
  9
$DIMLUNIT
 70
    2
  9
$DIMLWD
 70
   -2
  9
$DIMLWE
 70
   -2
  9
$DIMTMOVE
 70
    0
  9
$DIMFXL
 40
1
  9
$DIMFXLON
 70
    0
  9
$DIMJOGANG
 40
0.7854
  9
$DIMTFILL
 70
    0
  9
$DIMTFILLCLR
 70
    0
  9
$DIMARCSYM
 70
    0
  9
$DIMLTYPE
  6

  9
$DIMLTEX1
  6

  9
$DIMLTEX2
  6

  9
$LUNITS
 70
    2
  9
$LUPREC
 70
    4
  9
$SKETCHINC
 40
1
  9
$FILLETRAD
 40
0
  9
$AUNITS
 70
    0
  9
$AUPREC
 70
    2
  9
$MENU
  1
.
  9
$ELEVATION
 40
0
  9
$PELEVATION
 40
0
  9
$THICKNESS
 40
0
  9
$LIMCHECK
 70
    0
  9
$CHAMFERA
 40
0
  9
$CHAMFERB
 40
0
  9
$CHAMFERC
 40
0
  9
$CHAMFERD
 40
0
  9
$SKPOLY
 70
    0
  9
$USRTIMER
 70
    1
  9
$ANGBASE
 50
0
  9
$ANGDIR
 70
    0
  9
$PDMODE
 70
   34
  9
$PDSIZE
 40
0
  9
$PLINEWID
 40
0
  9
$SPLFRAME
 70
    0
  9
$SPLINETYPE
 70
    2
  9
$SPLINESEGS
 70
    8
  9
$HANDSEED
  5
20000
  9
$SURFTAB1
 70
    6
  9
$SURFTAB2
 70
    6
  9
$SURFTYPE
 70
    6
  9
$SURFU
 70
    6
  9
$SURFV
 70
    6
  9
$UCSBASE
  2

  9
$UCSNAME
  2

  9
$UCSORG
 10
0
 20
0
 30
0
  9
$UCSXDIR
 10
1
 20
0
 30
0
  9
$UCSYDIR
 10
0
 20
1
 30
0
  9
$UCSORTHOREF
  2

  9
$UCSORTHOVIEW
 70
    0
  9
$UCSORGTOP
 10
0
 20
0
 30
0
  9
$UCSORGBOTTOM
 10
0
 20
0
 30
0
  9
$UCSORGLEFT
 10
0
 20
0
 30
0
  9
$UCSORGRIGHT
 10
0
 20
0
 30
0
  9
$UCSORGFRONT
 10
0
 20
0
 30
0
  9
$UCSORGBACK
 10
0
 20
0
 30
0
  9
$PUCSBASE
  2

  9
$PUCSNAME
  2

  9
$PUCSORG
 10
0
 20
0
 30
0
  9
$PUCSXDIR
 10
1
 20
0
 30
0
  9
$PUCSYDIR
 10
0
 20
1
 30
0
  9
$PUCSORTHOREF
  2

  9
$PUCSORTHOVIEW
 70
    0
  9
$PUCSORGTOP
 10
0
 20
0
 30
0
  9
$PUCSORGBOTTOM
 10
0
 20
0
 30
0
  9
$PUCSORGLEFT
 10
0
 20
0
 30
0
  9
$PUCSORGRIGHT
 10
0
 20
0
 30
0
  9
$PUCSORGFRONT
 10
0
 20
0
 30
0
  9
$PUCSORGBACK
 10
0
 20
0
 30
0
  9
$USERI1
 70
    0
  9
$USERI2
 70
    0
  9
$USERI3
 70
    0
  9
$USERI4
 70
    0
  9
$USERI5
 70
    0
  9
$USERR1
 40
0
  9
$USERR2
 40
0
  9
$USERR3
 40
0
  9
$USERR4
 40
0
  9
$USERR5
 40
0
  9
$WORLDVIEW
 70
    1
  9
$SHADEDGE
 70
    3
  9
$SHADEDIF
 70
   70
  9
$TILEMODE
 70
    1
  9
$MAXACTVP
 70
   64
  9
$PINSBASE
 10
0
 20
0
 30
0
  9
$PLIMCHECK
 70
    0
  9
$PEXTMIN
 10
0
 20
0
 30
0
  9
$PEXTMAX
 10
0
 20
0
 30
0
  9
$GRIDMODE
 70
    0
  9
$SNAPSTYLE
 70
    0
  9
$GRIDUNIT
 10
0
 20
0
  9
$PLIMMIN
 10
0
 20
0
  9
$PLIMMAX
 10
297
 20
210
  9
$UNITMODE
 70
    0
  9
$VISRETAIN
 70
    1
  9
$PLINEGEN
 70
    0
  9
$PSLTSCALE
 70
    1
  9
$TREEDEPTH
 70
 3020
  9
$CMLSTYLE
  2
Standard
  9
$CMLJUST
 70
    0
  9
$CMLSCALE
 40
20
  9
$PROXYGRAPHICS
 70
    1
  9
$MEASUREMENT
 70
    1
  9
$CELWEIGHT
370
   -1
  9
$ENDCAPS
280
    0
  9
$JOINSTYLE
280
    0
  9
$LWDISPLAY
290
    0
  9
$INSUNITS
 70
    0
  9
$HYPERLINKBASE
  1

  9
$STYLESHEET
  1

  9
$XEDIT
290
    1
  9
$CEPSNTYPE
380
    0
  9
$PSTYLEMODE
290
    1
  9
$EXTNAMES
290
    1
  9
$PSVPSCALE
 40
0
  9
$OLESTARTUP
290
    0
  9
$SORTENTS
280
  127
  9
$INDEXCTL
280
    0
  9
$HIDETEXT
280
    1
  9
$XCLIPFRAME
290
    0
  9
$HALOGAP
280
    0
  9
$OBSCOLOR
 70
  257
  9
$OBSLTYPE
280
    0
  9
$INTERSECTIONDISPLAY
280
    0
  9
$INTERSECTIONCOLOR
 70
  257
  9
$DIMASSOC
280
    1
  9
$PROJECTNAME
  1

  9
$CAMERADISPLAY
290
    0
  9
$LENSLENGTH
 40
50
  9
$CAMERAHEIGHT
 40
0
  9
$STEPSPERSEC
 40
2
  9
$STEPSIZE
 40
50
  9
$3DDWFPREC
 40
2
  9
$PSOLWIDTH
 40
5
  9
$PSOLHEIGHT
 40
80
  9
$LOFTANG1
 40
1.570796326794897
  9
$LOFTANG2
 40
1.570796326794897
  9
$LOFTMAG1
 40
0
  9
$LOFTMAG2
 40
0
  9
$LOFTPARAM
 70
    7
  9
$LOFTNORMALS
280
    1
  9
$LATITUDE
 40
1
  9
$LONGITUDE
 40
1
  9
$NORTHDIRECTION
 40
0
  9
$TIMEZONE
 70
-8000
  9
$LIGHTGLYPHDISPLAY
280
    1
  9
$TILEMODELIGHTSYNCH
280
    1
  9
$SOLIDHIST
280
    1
  9
$SHOWHIST
280
    1
  9
$DWFFRAME
280
    2
  9
$DGNFRAME
280
    0
  9
$REALWORLDSCALE
290
    1
  9
$INTERFERECOLOR
 62
    1
  9
$CSHADOW
280
    0
  9
$SHADOWPLANELOCATION
 40
0
  0
ENDSEC
  0
SECTION
  2
CLASSES
  0
ENDSEC
  0
SECTION
  2
TABLES
  0
TABLE
  2
VPORT
  5
8
330
0
100
AcDbSymbolTable
 70
    1
  0
VPORT
  5
31
330
2
100
AcDbSymbolTableRecord
100
AcDbViewportTableRecord
  2
*ACTIVE
 70
    0
 10
0
 20
0
 11
1
 21
1
 12
183.8627234618815
 22
112.8068524870744
 13
0
 23
0
 14
10
 24
10
 15
10
 25
10
 16
0
 26
0
 36
1
 17
0
 27
0
 37
0
 40
182.6181142569087
 41
1.654275092936803
 42
50
 43
0
 44
0
 50
0
 51
0
 71
    0
 72
  100
 73
    1
 74
    3
 75
    0
 76
    0
 77
    0
 78
    0
281
    0
 65
    1
110
0
120
0
130
0
111
1
121
0
131
0
112
0
122
1
132
0
 79
    0
146
0
348
10020
 60
    7
 61
    5
292
1
282
    1
141
0
142
0
 63
  250
421
3358443
  0
ENDTAB
  0
TABLE
  2
LTYPE
  5
5
330
0
100
AcDbSymbolTable
 70
    4
  0
LTYPE
  5
14
330
5
100
AcDbSymbolTableRecord
100
AcDbLinetypeTableRecord
  2
ByBlock
 70
    0
  3

 72
   65
 73
    0
 40
0
  0
LTYPE
  5
15
330
5
100
AcDbSymbolTableRecord
100
AcDbLinetypeTableRecord
  2
ByLayer
 70
    0
  3

 72
   65
 73
    0
 40
0
  0
LTYPE
  5
16
330
5
100
AcDbSymbolTableRecord
100
AcDbLinetypeTableRecord
  2
Continuous
 70
    0
  3
Solid line
 72
   65
 73
    0
 40
0
  0
LTYPE
  5
32
330
5
100
AcDbSymbolTableRecord
100
AcDbLinetypeTableRecord
  2
DOT
 70
    0
  3
Dot . . . . . . . . . . . . . . . . . . . . . .
 72
   65
 73
    2
 40
6.35
 49
0
 74
    0
 49
-6.35
 74
    0
  0
LTYPE
  5
33
330
5
100
AcDbSymbolTableRecord
100
AcDbLinetypeTableRecord
  2
DOTTINY
 70
    0
  3
Dot (.15x) .....................................
 72
   65
 73
    2
 40
0.9525
 49
0
 74
    0
 49
-0.9525
 74
    0
  0
LTYPE
  5
34
330
5
100
AcDbSymbolTableRecord
100
AcDbLinetypeTableRecord
  2
DOT2
 70
    0
  3
Dot (.5x) .....................................
 72
   65
 73
    2
 40
3.175
 49
0
 74
    0
 49
-3.175
 74
    0
  0
LTYPE
  5
35
330
5
100
AcDbSymbolTableRecord
100
AcDbLinetypeTableRecord
  2
DOTX2
 70
    0
  3
Dot (2x) .  .  .  .  .  .  .  .  .  .  .  .  .
 72
   65
 73
    2
 40
12.7
 49
0
 74
    0
 49
-12.7
 74
    0
  0
LTYPE
  5
36
330
5
100
AcDbSymbolTableRecord
100
AcDbLinetypeTableRecord
  2
DASHED
 70
    0
  3
Dashed _ _ _ _ _ _ _ _ _ _ _ _ _ _ _ _ _
 72
   65
 73
    2
 40
19.05
 49
12.7
 74
    0
 49
-6.35
 74
    0
  0
LTYPE
  5
37
330
5
100
AcDbSymbolTableRecord
100
AcDbLinetypeTableRecord
  2
DASHEDTINY
 70
    0
  3
Dashed (.15x) _ _ _ _ _ _ _ _ _ _ _ _ _ _ _ _ _
 72
   65
 73
    2
 40
2.8575
 49
1.905
 74
    0
 49
-0.9525
 74
    0
  0
LTYPE
  5
38
330
5
100
AcDbSymbolTableRecord
100
AcDbLinetypeTableRecord
  2
DASHED2
 70
    0
  3
Dashed (.5x) _ _ _ _ _ _ _ _ _ _ _ _ _ _ _ _ _
 72
   65
 73
    2
 40
9.524999999999999
 49
6.35
 74
    0
 49
-3.175
 74
    0
  0
LTYPE
  5
39
330
5
100
AcDbSymbolTableRecord
100
AcDbLinetypeTableRecord
  2
DASHEDX2
 70
    0
  3
Dashed (2x) ____  ____  ____  ____  ____  ___
 72
   65
 73
    2
 40
38.09999999999999
 49
25.4
 74
    0
 49
-12.7
 74
    0
  0
LTYPE
  5
3A
330
5
100
AcDbSymbolTableRecord
100
AcDbLinetypeTableRecord
  2
DASHDOT
 70
    0
  3
Dash dot __ . __ . __ . __ . __ . __ . __ . __
 72
   65
 73
    4
 40
25.4
 49
12.7
 74
    0
 49
-6.35
 74
    0
 49
0
 74
    0
 49
-6.35
 74
    0
  0
LTYPE
  5
3B
330
5
100
AcDbSymbolTableRecord
100
AcDbLinetypeTableRecord
  2
DASHDOTTINY
 70
    0
  3
Dash dot (.15x) _._._._._._._._._._._._._._._.
 72
   65
 73
    4
 40
3.81
 49
1.905
 74
    0
 49
-0.9525
 74
    0
 49
0
 74
    0
 49
-0.9525
 74
    0
  0
LTYPE
  5
3C
330
5
100
AcDbSymbolTableRecord
100
AcDbLinetypeTableRecord
  2
DASHDOT2
 70
    0
  3
Dash dot (.5x) _._._._._._._._._._._._._._._.
 72
   65
 73
    4
 40
12.7
 49
6.35
 74
    0
 49
-3.175
 74
    0
 49
0
 74
    0
 49
-3.175
 74
    0
  0
LTYPE
  5
3D
330
5
100
AcDbSymbolTableRecord
100
AcDbLinetypeTableRecord
  2
DASHDOTX2
 70
    0
  3
Dash dot (2x) ____  .  ____  .  ____  .  ___
 72
   65
 73
    4
 40
50.8
 49
25.4
 74
    0
 49
-12.7
 74
    0
 49
0
 74
    0
 49
-12.7
 74
    0
  0
LTYPE
  5
3E
330
5
100
AcDbSymbolTableRecord
100
AcDbLinetypeTableRecord
  2
DIVIDE
 70
    0
  3
Divide ____ . . ____ . . ____ . . ____ . . ____
 72
   65
 73
    6
 40
31.75
 49
12.7
 74
    0
 49
-6.35
 74
    0
 49
0
 74
    0
 49
-6.35
 74
    0
 49
0
 74
    0
 49
-6.35
 74
    0
  0
LTYPE
  5
3F
330
5
100
AcDbSymbolTableRecord
100
AcDbLinetypeTableRecord
  2
DIVIDETINY
 70
    0
  3
Divide (.15x) __..__..__..__..__..__..__..__.._
 72
   65
 73
    6
 40
4.7625
 49
1.905
 74
    0
 49
-0.9525
 74
    0
 49
0
 74
    0
 49
-0.9525
 74
    0
 49
0
 74
    0
 49
-0.9525
 74
    0
  0
LTYPE
  5
40
330
5
100
AcDbSymbolTableRecord
100
AcDbLinetypeTableRecord
  2
DIVIDE2
 70
    0
  3
Divide (.5x) __..__..__..__..__..__..__..__.._
 72
   65
 73
    6
 40
15.875
 49
6.35
 74
    0
 49
-3.175
 74
    0
 49
0
 74
    0
 49
-3.175
 74
    0
 49
0
 74
    0
 49
-3.175
 74
    0
  0
LTYPE
  5
41
330
5
100
AcDbSymbolTableRecord
100
AcDbLinetypeTableRecord
  2
DIVIDEX2
 70
    0
  3
Divide (2x) ________  .  .  ________  .  .  _
 72
   65
 73
    6
 40
63.5
 49
25.4
 74
    0
 49
-12.7
 74
    0
 49
0
 74
    0
 49
-12.7
 74
    0
 49
0
 74
    0
 49
-12.7
 74
    0
  0
LTYPE
  5
42
330
5
100
AcDbSymbolTableRecord
100
AcDbLinetypeTableRecord
  2
BORDER
 70
    0
  3
Border __ __ . __ __ . __ __ . __ __ . __ __ .
 72
   65
 73
    6
 40
44.45
 49
12.7
 74
    0
 49
-6.35
 74
    0
 49
12.7
 74
    0
 49
-6.35
 74
    0
 49
0
 74
    0
 49
-6.35
 74
    0
  0
LTYPE
  5
43
330
5
100
AcDbSymbolTableRecord
100
AcDbLinetypeTableRecord
  2
BORDERTINY
 70
    0
  3
Border (.15x) __.__.__.__.__.__.__.__.__.__.__.
 72
   65
 73
    6
 40
6.6675
 49
1.905
 74
    0
 49
-0.9525
 74
    0
 49
1.905
 74
    0
 49
-0.9525
 74
    0
 49
0
 74
    0
 49
-0.9525
 74
    0
  0
LTYPE
  5
44
330
5
100
AcDbSymbolTableRecord
100
AcDbLinetypeTableRecord
  2
BORDER2
 70
    0
  3
Border (.5x) __.__.__.__.__.__.__.__.__.__.__.
 72
   65
 73
    6
 40
22.225
 49
6.35
 74
    0
 49
-3.175
 74
    0
 49
6.35
 74
    0
 49
-3.175
 74
    0
 49
0
 74
    0
 49
-3.175
 74
    0
  0
LTYPE
  5
45
330
5
100
AcDbSymbolTableRecord
100
AcDbLinetypeTableRecord
  2
BORDERX2
 70
    0
  3
Border (2x) ____  ____  .  ____  ____  .  ___
 72
   65
 73
    6
 40
88.89999999999999
 49
25.4
 74
    0
 49
-12.7
 74
    0
 49
25.4
 74
    0
 49
-12.7
 74
    0
 49
0
 74
    0
 49
-12.7
 74
    0
  0
LTYPE
  5
46
330
5
100
AcDbSymbolTableRecord
100
AcDbLinetypeTableRecord
  2
CENTER
 70
    0
  3
Center ____ _ ____ _ ____ _ ____ _ ____ _ ____
 72
   65
 73
    4
 40
50.8
 49
31.75
 74
    0
 49
-6.35
 74
    0
 49
6.35
 74
    0
 49
-6.35
 74
    0
  0
LTYPE
  5
47
330
5
100
AcDbSymbolTableRecord
100
AcDbLinetypeTableRecord
  2
CENTERTINY
 70
    0
  3
Center (.15x) ___ _ ___ _ ___ _ ___ _ ___ _ ___
 72
   65
 73
    4
 40
7.619999999999999
 49
4.7625
 74
    0
 49
-0.9525
 74
    0
 49
0.9525
 74
    0
 49
-0.9525
 74
    0
  0
LTYPE
  5
48
330
5
100
AcDbSymbolTableRecord
100
AcDbLinetypeTableRecord
  2
CENTER2
 70
    0
  3
Center (.5x) ___ _ ___ _ ___ _ ___ _ ___ _ ___
 72
   65
 73
    4
 40
28.575
 49
19.05
 74
    0
 49
-3.175
 74
    0
 49
3.175
 74
    0
 49
-3.175
 74
    0
  0
LTYPE
  5
49
330
5
100
AcDbSymbolTableRecord
100
AcDbLinetypeTableRecord
  2
CENTERX2
 70
    0
  3
Center (2x) ________  __  ________  __  _____
 72
   65
 73
    4
 40
101.6
 49
63.5
 74
    0
 49
-12.7
 74
    0
 49
12.7
 74
    0
 49
-12.7
 74
    0
  0
ENDTAB
  0
TABLE
  2
LAYER
  5
2
330
0
100
AcDbSymbolTable
 70
    1
  0
LAYER
  5
10
330
2
100
AcDbSymbolTableRecord
100
AcDbLayerTableRecord
  2
0
 70
    0
 62
    7
  6
CONTINUOUS
370
  100
390
F
  0
LAYER
  5
4A
330
2
100
AcDbSymbolTableRecord
100
AcDbLayerTableRecord
  2
olcu
 70
    1
 62
   13
420
16146769
  6
CONTINUOUS
370
    0
390
F
  0
LAYER
  5
4B
330
2
100
AcDbSymbolTableRecord
100
AcDbLayerTableRecord
  2
referans_cizgiler
 70
    1
 62
    4
  6
DASHEDTINY
370
    5
390
F
  0
ENDTAB
  0
TABLE
  2
STYLE
  5
3
330
0
100
AcDbSymbolTable
 70
    3
  0
STYLE
  5
4C
330
2
100
AcDbSymbolTableRecord
100
AcDbTextStyleTableRecord
  2
Standard
 70
    0
 40
0
 41
1
 50
0
 71
    0
 42
1
  3
txt
  4

  0
ENDTAB
  0
TABLE
  2
VIEW
  5
6
330
0
100
AcDbSymbolTable
 70
    0
  0
ENDTAB
  0
TABLE
  2
UCS
  5
7
330
0
100
AcDbSymbolTable
 70
    0
  0
ENDTAB
  0
TABLE
  2
APPID
  5
9
330
0
100
AcDbSymbolTable
 70
    1
  0
APPID
  5
12
330
9
100
AcDbSymbolTableRecord
100
AcDbRegAppTableRecord
  2
ACAD
 70
    0
  0
APPID
  5
4D
330
9
100
AcDbSymbolTableRecord
100
AcDbRegAppTableRecord
  2
LibreCad
 70
    0
  0
ENDTAB
  0
TABLE
  2
DIMSTYLE
  5
A
330
0
100
AcDbSymbolTable
 70
    1
100
AcDbDimStyleTable
 71
    1
  0
DIMSTYLE
105
4E
330
A
100
AcDbSymbolTableRecord
100
AcDbDimStyleTableRecord
  2
Standard
 70
    0
 40
2.5
 41
2.5
 42
0.625
 43
0.38
 44
1.25
 45
0
 46
0
 47
0
 48
0
 49
1
140
1.5
141
0.09
142
0
143
25.4
144
1
145
0
146
1
147
0.625
148
0
 71
    0
 72
    0
 73
    0
 74
    1
 75
    0
 76
    0
 77
    0
 78
    8
 79
    0
170
    0
171
    2
172
    0
173
    0
174
    0
175
    0
176
    0
177
    0
178
    0
179
    2
271
    2
272
    4
273
    2
274
    2
275
    0
276
    0
277
    2
278
   44
279
    0
280
    0
281
    0
282
    0
283
    1
284
    0
285
    0
286
    0
288
    0
289
    3
340
standard
341

371
   -2
372
   -2
  0
ENDTAB
  0
TABLE
  2
BLOCK_RECORD
  5
1
330
0
100
AcDbSymbolTable
 70
    2
  0
BLOCK_RECORD
  5
1F
330
1
100
AcDbSymbolTableRecord
100
AcDbBlockTableRecord
  2
*Model_Space
 70
    0
280
    1
281
    0
  0
BLOCK_RECORD
  5
1E
330
1
100
AcDbSymbolTableRecord
100
AcDbBlockTableRecord
  2
*Paper_Space
 70
    0
280
    1
281
    0
  0
BLOCK_RECORD
  5
4F
330
1
100
AcDbSymbolTableRecord
100
AcDbBlockTableRecord
  2
*D9
 70
    0
280
    1
281
    0
  0
BLOCK_RECORD
  5
52
330
1
100
AcDbSymbolTableRecord
100
AcDbBlockTableRecord
  2
*D6
 70
    0
280
    1
281
    0
  0
BLOCK_RECORD
  5
55
330
1
100
AcDbSymbolTableRecord
100
AcDbBlockTableRecord
  2
*D16
 70
    0
280
    1
281
    0
  0
BLOCK_RECORD
  5
58
330
1
100
AcDbSymbolTableRecord
100
AcDbBlockTableRecord
  2
*D5
 70
    0
280
    1
281
    0
  0
BLOCK_RECORD
  5
5B
330
1
100
AcDbSymbolTableRecord
100
AcDbBlockTableRecord
  2
*D14
 70
    0
280
    1
281
    0
  0
BLOCK_RECORD
  5
5E
330
1
100
AcDbSymbolTableRecord
100
AcDbBlockTableRecord
  2
*D15
 70
    0
280
    1
281
    0
  0
BLOCK_RECORD
  5
61
330
1
100
AcDbSymbolTableRecord
100
AcDbBlockTableRecord
  2
*D2
 70
    0
280
    1
281
    0
  0
BLOCK_RECORD
  5
64
330
1
100
AcDbSymbolTableRecord
100
AcDbBlockTableRecord
  2
*D12
 70
    0
280
    1
281
    0
  0
BLOCK_RECORD
  5
67
330
1
100
AcDbSymbolTableRecord
100
AcDbBlockTableRecord
  2
*D17
 70
    0
280
    1
281
    0
  0
BLOCK_RECORD
  5
6A
330
1
100
AcDbSymbolTableRecord
100
AcDbBlockTableRecord
  2
*D3
 70
    0
280
    1
281
    0
  0
BLOCK_RECORD
  5
6D
330
1
100
AcDbSymbolTableRecord
100
AcDbBlockTableRecord
  2
*D4
 70
    0
280
    1
281
    0
  0
BLOCK_RECORD
  5
70
330
1
100
AcDbSymbolTableRecord
100
AcDbBlockTableRecord
  2
*D11
 70
    0
280
    1
281
    0
  0
BLOCK_RECORD
  5
73
330
1
100
AcDbSymbolTableRecord
100
AcDbBlockTableRecord
  2
*D13
 70
    0
280
    1
281
    0
  0
BLOCK_RECORD
  5
76
330
1
100
AcDbSymbolTableRecord
100
AcDbBlockTableRecord
  2
*D10
 70
    0
280
    1
281
    0
  0
BLOCK_RECORD
  5
79
330
1
100
AcDbSymbolTableRecord
100
AcDbBlockTableRecord
  2
*D1
 70
    0
280
    1
281
    0
  0
BLOCK_RECORD
  5
7C
330
1
100
AcDbSymbolTableRecord
100
AcDbBlockTableRecord
  2
*D7
 70
    0
280
    1
281
    0
  0
BLOCK_RECORD
  5
7F
330
1
100
AcDbSymbolTableRecord
100
AcDbBlockTableRecord
  2
*D8
 70
    0
280
    1
281
    0
  0
ENDTAB
  0
ENDSEC
  0
SECTION
  2
BLOCKS
  0
BLOCK
  5
20
330
1F
100
AcDbEntity
  8
0
100
AcDbBlockBegin
  2
*Model_Space
 70
    0
 10
0
 20
0
 30
0
  3
*Model_Space
  1

  0
ENDBLK
  5
21
330
1F
100
AcDbEntity
  8
0
100
AcDbBlockEnd
  0
BLOCK
  5
1C
330
1B
100
AcDbEntity
  8
0
100
AcDbBlockBegin
  2
*Paper_Space
 70
    0
 10
0
 20
0
 30
0
  3
*Paper_Space
  1

  0
ENDBLK
  5
1D
330
1F
100
AcDbEntity
  8
0
100
AcDbBlockEnd
  0
BLOCK
  5
50
330
4F
100
AcDbEntity
  8
0
100
AcDbBlockBegin
  2
*D9
 70
    1
 10
0
 20
0
  3
*D9
  1

  0
SOLID
  5
82
100
AcDbEntity
  8
olcu
  6
ByBlock
 62
    0
370
   -2
100
AcDbTrace
 10
179.1634691534367
 20
170.6907476155189
 30
0
 11
183.0026827162015
 21
175.7311860831861
 31
0
 12
184.4288466951615
 22
174.2151454463485
 32
0
 13
184.4288466951615
 23
174.2151454463485
 33
0
  0
LINE
  5
83
100
AcDbEntity
  8
olcu
  6
ByBlock
 62
    0
370
   -2
100
AcDbLine
 10
176.25
 20
167.9499999999999
 11
189.7854921086746
 21
180.6830566304318
  0
MTEXT
  5
84
100
AcDbEntity
  8
olcu
  6
CONTINUOUS
 62
    0
370
   -2
100
AcDbMText
 10
182.119150648969
 20
178.19066467671
 30
0
 40
3.75
 41
2.083333333333333
 71
    5
 72
    1
  1
4
  7
standard
210
0
220
0
230
1
 50
43.25030785227278
 73
    2
 44
1
  0
ENDBLK
  5
51
330
4F
100
AcDbEntity
  8
0
100
AcDbBlockEnd
  0
BLOCK
  5
53
330
52
100
AcDbEntity
  8
0
100
AcDbBlockBegin
  2
*D6
 70
    1
 10
0
 20
0
  3
*D6
  1

  0
LINE
  5
85
100
AcDbEntity
  8
olcu
  6
ByBlock
 62
    0
370
   -2
100
AcDbLine
 10
207.6552283853011
 20
114.95
 11
207.6552283853011
 21
141.25
  0
SOLID
  5
86
100
AcDbEntity
  8
olcu
  6
ByBlock
 62
    0
370
   -2
100
AcDbTrace
 10
207.6552283853011
 20
127.45
 30
0
 11
208.6959400297332
 21
121.2
 31
0
 12
206.614516740869
 22
121.2
 32
0
 13
206.614516740869
 23
121.2
 33
0
  0
SOLID
  5
87
100
AcDbEntity
  8
olcu
  6
ByBlock
 62
    0
370
   -2
100
AcDbTrace
 10
207.6552283853011
 20
128.75
 30
0
 11
206.614516740869
 21
135
 31
0
 12
208.6959400297332
 22
135
 32
0
 13
208.6959400297332
 23
135
 33
0
  0
MTEXT
  5
88
100
AcDbEntity
  8
olcu
  6
CONTINUOUS
 62
    0
370
   -2
100
AcDbMText
 10
204.2177283853011
 20
132.9166666666668
 30
0
 40
3.75
 41
5.208333333333567
 71
    5
 72
    1
  1
1,3
  7
standard
210
0
220
0
230
1
 50
90
 73
    2
 44
1
  0
LINE
  5
89
100
AcDbEntity
  8
olcu
  6
ByBlock
 62
    0
370
   -2
100
AcDbLine
 10
176.8125
 20
127.45
 11
210.7802283853011
 21
127.45
  0
LINE
  5
8A
100
AcDbEntity
  8
olcu
  6
ByBlock
 62
    0
370
   -2
100
AcDbLine
 10
182.8147320983727
 20
128.75
 11
210.7802283853011
 21
128.75
  0
ENDBLK
  5
54
330
52
100
AcDbEntity
  8
0
100
AcDbBlockEnd
  0
BLOCK
  5
56
330
55
100
AcDbEntity
  8
0
100
AcDbBlockBegin
  2
*D16
 70
    1
 10
0
 20
0
  3
*D16
  1

  0
LINE
  5
8B
100
AcDbEntity
  8
olcu
  6
ByBlock
 62
    0
370
   -2
100
AcDbLine
 10
35.73270832489608
 20
147.75
 11
35.73270832489607
 21
45.75000000000001
  0
SOLID
  5
8C
100
AcDbEntity
  8
olcu
  6
ByBlock
 62
    0
370
   -2
100
AcDbTrace
 10
35.73270832489608
 20
147.75
 30
0
 11
36.77341996932818
 21
141.5
 31
0
 12
34.69199668046398
 22
141.5
 32
0
 13
34.69199668046398
 23
141.5
 33
0
  0
SOLID
  5
8D
100
AcDbEntity
  8
olcu
  6
ByBlock
 62
    0
370
   -2
100
AcDbTrace
 10
35.73270832489607
 20
45.75000000000001
 30
0
 11
34.69199668046397
 21
52.00000000000001
 31
0
 12
36.77341996932817
 22
52.00000000000001
 32
0
 13
36.77341996932817
 23
52.00000000000001
 33
0
  0
MTEXT
  5
8E
100
AcDbEntity
  8
olcu
  6
CONTINUOUS
 62
    0
370
   -2
100
AcDbMText
 10
32.29520832489608
 20
96.75
 30
0
 40
3.75
 41
10.41666666666667
 71
    5
 72
    1
  1
%%C102
  7
standard
210
0
220
0
230
1
 50
90
 73
    2
 44
1
  0
LINE
  5
8F
100
AcDbEntity
  8
olcu
  6
ByBlock
 62
    0
370
   -2
100
AcDbLine
 10
123.6875
 20
147.75
 11
32.60770832489608
 21
147.75
  0
LINE
  5
90
100
AcDbEntity
  8
olcu
  6
ByBlock
 62
    0
370
   -2
100
AcDbLine
 10
123.6875
 20
45.75
 11
32.60770832489607
 21
45.75000000000001
  0
ENDBLK
  5
57
330
55
100
AcDbEntity
  8
0
100
AcDbBlockEnd
  0
BLOCK
  5
59
330
58
100
AcDbEntity
  8
0
100
AcDbBlockBegin
  2
*D5
 70
    1
 10
0
 20
0
  3
*D5
  1

  0
LINE
  5
91
100
AcDbEntity
  8
olcu
  6
ByBlock
 62
    0
370
   -2
100
AcDbLine
 10
74.25
 20
206.7631708442481
 11
176.25
 21
206.7631708442481
  0
SOLID
  5
92
100
AcDbEntity
  8
olcu
  6
ByBlock
 62
    0
370
   -2
100
AcDbTrace
 10
74.25
 20
206.7631708442481
 30
0
 11
80.5
 21
207.8038824886802
 31
0
 12
80.5
 22
205.722459199816
 32
0
 13
80.5
 23
205.722459199816
 33
0
  0
SOLID
  5
93
100
AcDbEntity
  8
olcu
  6
ByBlock
 62
    0
370
   -2
100
AcDbTrace
 10
176.25
 20
206.7631708442481
 30
0
 11
170
 21
205.722459199816
 31
0
 12
170
 22
207.8038824886802
 32
0
 13
170
 23
207.8038824886802
 33
0
  0
MTEXT
  5
94
100
AcDbEntity
  8
olcu
  6
CONTINUOUS
 62
    0
370
   -2
100
AcDbMText
 10
125.25
 20
210.2006708442481
 30
0
 40
3.75
 41
6.666666666666667
 71
    5
 72
    1
  1
102
  7
standard
210
0
220
0
230
1
 50
0
 73
    2
 44
1
  0
LINE
  5
95
100
AcDbEntity
  8
olcu
  6
ByBlock
 62
    0
370
   -2
100
AcDbLine
 10
74.25
 20
169.5125
 11
74.25
 21
209.8881708442481
  0
LINE
  5
96
100
AcDbEntity
  8
olcu
  6
ByBlock
 62
    0
370
   -2
100
AcDbLine
 10
176.25
 20
169.5125
 11
176.25
 21
209.8881708442481
  0
ENDBLK
  5
5A
330
58
100
AcDbEntity
  8
0
100
AcDbBlockEnd
  0
BLOCK
  5
5C
330
5B
100
AcDbEntity
  8
0
100
AcDbBlockBegin
  2
*D14
 70
    1
 10
0
 20
0
  3
*D14
  1

  0
LINE
  5
97
100
AcDbEntity
  8
olcu
  6
ByBlock
 62
    0
370
   -2
100
AcDbLine
 10
130.7512915791781
 20
112.4296443545046
 11
119.7487084208219
 21
99.47035564549537
  0
SOLID
  5
98
100
AcDbEntity
  8
olcu
  6
ByBlock
 62
    0
370
   -2
100
AcDbTrace
 10
130.7512915791781
 20
112.4296443545046
 30
0
 11
127.4995702805485
 21
106.9916401872668
 31
0
 12
125.9128782025457
 22
108.3387597651179
 32
0
 13
125.9128782025457
 23
108.3387597651179
 33
0
  0
SOLID
  5
99
100
AcDbEntity
  8
olcu
  6
ByBlock
 62
    0
370
   -2
100
AcDbTrace
 10
119.7487084208219
 20
99.47035564549537
 30
0
 11
123.0004297194515
 21
104.9083598127331
 31
0
 12
124.5871217974542
 22
103.5612402348821
 32
0
 13
124.5871217974542
 23
103.5612402348821
 33
0
  0
MTEXT
  5
9A
100
AcDbEntity
  8
olcu
  6
CONTINUOUS
 62
    0
370
   -2
100
AcDbMText
 10
116.0068629648547
 20
95.77107934993272
 30
0
 40
3.75
 41
7.5
 71
    5
 72
    1
  1
%%C17
  7
standard
210
0
220
0
230
1
 50
49.66836520210215
 73
    2
 44
1
  0
ENDBLK
  5
5D
330
5B
100
AcDbEntity
  8
0
100
AcDbBlockEnd
  0
BLOCK
  5
5F
330
5E
100
AcDbEntity
  8
0
100
AcDbBlockBegin
  2
*D15
 70
    1
 10
0
 20
0
  3
*D15
  1

  0
LINE
  5
9B
100
AcDbEntity
  8
olcu
  6
ByBlock
 62
    0
370
   -2
100
AcDbLine
 10
49.8595930114829
 20
128.75
 11
49.85959301148289
 21
64.74999999999997
  0
SOLID
  5
9C
100
AcDbEntity
  8
olcu
  6
ByBlock
 62
    0
370
   -2
100
AcDbTrace
 10
49.8595930114829
 20
128.75
 30
0
 11
50.900304655915
 21
122.5
 31
0
 12
48.8188813670508
 22
122.5
 32
0
 13
48.8188813670508
 23
122.5
 33
0
  0
SOLID
  5
9D
100
AcDbEntity
  8
olcu
  6
ByBlock
 62
    0
370
   -2
100
AcDbTrace
 10
49.85959301148289
 20
64.74999999999997
 30
0
 11
48.81888136705079
 21
70.99999999999997
 31
0
 12
50.90030465591499
 22
70.99999999999997
 32
0
 13
50.90030465591499
 23
70.99999999999997
 33
0
  0
MTEXT
  5
9E
100
AcDbEntity
  8
olcu
  6
CONTINUOUS
 62
    0
370
   -2
100
AcDbMText
 10
46.4220930114829
 20
96.74999999999999
 30
0
 40
3.75
 41
5.000000000000233
 71
    5
 72
    1
  1
64
  7
standard
210
0
220
0
230
1
 50
90
 73
    2
 44
1
  0
LINE
  5
9F
100
AcDbEntity
  8
olcu
  6
ByBlock
 62
    0
370
   -2
100
AcDbLine
 10
123.6875
 20
128.75
 11
46.7345930114829
 21
128.75
  0
LINE
  5
A0
100
AcDbEntity
  8
olcu
  6
ByBlock
 62
    0
370
   -2
100
AcDbLine
 10
123.6875
 20
64.74999999999997
 11
46.73459301148289
 21
64.74999999999997
  0
ENDBLK
  5
60
330
5E
100
AcDbEntity
  8
0
100
AcDbBlockEnd
  0
BLOCK
  5
62
330
61
100
AcDbEntity
  8
0
100
AcDbBlockBegin
  2
*D2
 70
    1
 10
0
 20
0
  3
*D2
  1

  0
LINE
  5
A1
100
AcDbEntity
  8
olcu
  6
ByBlock
 62
    0
370
   -2
100
AcDbLine
 10
216.8709318919899
 20
127.45
 11
216.8709318919899
 21
167.95
  0
SOLID
  5
A2
100
AcDbEntity
  8
olcu
  6
ByBlock
 62
    0
370
   -2
100
AcDbTrace
 10
216.8709318919899
 20
127.45
 30
0
 11
215.8302202475578
 21
133.7
 31
0
 12
217.911643536422
 22
133.7
 32
0
 13
217.911643536422
 23
133.7
 33
0
  0
SOLID
  5
A3
100
AcDbEntity
  8
olcu
  6
ByBlock
 62
    0
370
   -2
100
AcDbTrace
 10
216.8709318919899
 20
167.95
 30
0
 11
217.911643536422
 21
161.7
 31
0
 12
215.8302202475578
 22
161.7
 32
0
 13
215.8302202475578
 23
161.7
 33
0
  0
MTEXT
  5
A4
100
AcDbEntity
  8
olcu
  6
CONTINUOUS
 62
    0
370
   -2
100
AcDbMText
 10
213.4334318919899
 20
147.7
 30
0
 40
3.75
 41
9.375000000000233
 71
    5
 72
    1
  1
40,5
  7
standard
210
0
220
0
230
1
 50
90
 73
    2
 44
1
  0
LINE
  5
A5
100
AcDbEntity
  8
olcu
  6
ByBlock
 62
    0
370
   -2
100
AcDbLine
 10
176.8125
 20
127.45
 11
219.9959318919899
 21
127.45
  0
LINE
  5
A6
100
AcDbEntity
  8
olcu
  6
ByBlock
 62
    0
370
   -2
100
AcDbLine
 10
177.8125
 20
167.95
 11
219.9959318919899
 21
167.95
  0
ENDBLK
  5
63
330
61
100
AcDbEntity
  8
0
100
AcDbBlockEnd
  0
BLOCK
  5
65
330
64
100
AcDbEntity
  8
0
100
AcDbBlockBegin
  2
*D12
 70
    1
 10
0
 20
0
  3
*D12
  1

  0
LINE
  5
A7
100
AcDbEntity
  8
olcu
  6
ByBlock
 62
    0
370
   -2
100
AcDbLine
 10
86.12477677931224
 20
120.7247187203902
 11
108.3752232206878
 21
134.1752812796098
  0
SOLID
  5
A8
100
AcDbEntity
  8
olcu
  6
ByBlock
 62
    0
370
   -2
100
AcDbTrace
 10
86.12477677931224
 20
120.7247187203902
 30
0
 11
90.93505113235281
 21
124.8486539011777
 31
0
 12
92.01183244616375
 22
123.0674001546121
 32
0
 13
92.01183244616375
 23
123.0674001546121
 33
0
  0
SOLID
  5
A9
100
AcDbEntity
  8
olcu
  6
ByBlock
 62
    0
370
   -2
100
AcDbTrace
 10
108.3752232206878
 20
134.1752812796098
 30
0
 11
103.5649488676472
 21
130.0513460988223
 31
0
 12
102.4881675538363
 22
131.8325998453879
 32
0
 13
102.4881675538363
 23
131.8325998453879
 33
0
  0
MTEXT
  5
AA
100
AcDbEntity
  8
olcu
  6
CONTINUOUS
 62
    0
370
   -2
100
AcDbMText
 10
113.8478764934902
 20
138.9206482692653
 30
0
 40
3.75
 41
8.333333333333567
 71
    5
 72
    1
  1
%%C26
  7
standard
210
0
220
0
230
1
 50
31.15327807421571
 73
    2
 44
1
  0
ENDBLK
  5
66
330
64
100
AcDbEntity
  8
0
100
AcDbBlockEnd
  0
BLOCK
  5
68
330
67
100
AcDbEntity
  8
0
100
AcDbBlockBegin
  2
*D17
 70
    1
 10
0
 20
0
  3
*D17
  1

  0
LINE
  5
AB
100
AcDbEntity
  8
olcu
  6
ByBlock
 62
    0
370
   -2
100
AcDbLine
 10
22.43681685516731
 20
161.25
 11
22.4368168551673
 21
32.25000000000001
  0
SOLID
  5
AC
100
AcDbEntity
  8
olcu
  6
ByBlock
 62
    0
370
   -2
100
AcDbTrace
 10
22.43681685516731
 20
161.25
 30
0
 11
23.47752849959941
 21
155
 31
0
 12
21.39610521073521
 22
155
 32
0
 13
21.39610521073521
 23
155
 33
0
  0
SOLID
  5
AD
100
AcDbEntity
  8
olcu
  6
ByBlock
 62
    0
370
   -2
100
AcDbTrace
 10
22.4368168551673
 20
32.25000000000001
 30
0
 11
21.3961052107352
 21
38.50000000000001
 31
0
 12
23.4775284995994
 22
38.50000000000001
 32
0
 13
23.4775284995994
 23
38.50000000000001
 33
0
  0
MTEXT
  5
AE
100
AcDbEntity
  8
olcu
  6
CONTINUOUS
 62
    0
370
   -2
100
AcDbMText
 10
18.99931685516731
 20
96.74999999999999
 30
0
 40
3.75
 41
10.41666666666667
 71
    5
 72
    1
  1
%%C129
  7
standard
210
0
220
0
230
1
 50
90
 73
    2
 44
1
  0
LINE
  5
AF
100
AcDbEntity
  8
olcu
  6
ByBlock
 62
    0
370
   -2
100
AcDbLine
 10
123.6875
 20
161.25
 11
19.31181685516731
 21
161.25
  0
LINE
  5
B0
100
AcDbEntity
  8
olcu
  6
ByBlock
 62
    0
370
   -2
100
AcDbLine
 10
123.6875
 20
32.25
 11
19.3118168551673
 21
32.25000000000001
  0
ENDBLK
  5
69
330
67
100
AcDbEntity
  8
0
100
AcDbBlockEnd
  0
BLOCK
  5
6B
330
6A
100
AcDbEntity
  8
0
100
AcDbBlockBegin
  2
*D3
 70
    1
 10
0
 20
0
  3
*D3
  1

  0
LINE
  5
B1
100
AcDbEntity
  8
olcu
  6
ByBlock
 62
    0
370
   -2
100
AcDbLine
 10
108.75
 20
185.2098568453868
 11
141.75
 21
185.2098568453868
  0
SOLID
  5
B2
100
AcDbEntity
  8
olcu
  6
ByBlock
 62
    0
370
   -2
100
AcDbTrace
 10
108.75
 20
185.2098568453868
 30
0
 11
115
 21
186.2505684898189
 31
0
 12
115
 22
184.1691452009547
 32
0
 13
115
 23
184.1691452009547
 33
0
  0
SOLID
  5
B3
100
AcDbEntity
  8
olcu
  6
ByBlock
 62
    0
370
   -2
100
AcDbTrace
 10
141.75
 20
185.2098568453868
 30
0
 11
135.5
 21
184.1691452009547
 31
0
 12
135.5
 22
186.2505684898189
 32
0
 13
135.5
 23
186.2505684898189
 33
0
  0
MTEXT
  5
B4
100
AcDbEntity
  8
olcu
  6
CONTINUOUS
 62
    0
370
   -2
100
AcDbMText
 10
125.25
 20
188.6473568453868
 30
0
 40
3.75
 41
4.583333333333799
 71
    5
 72
    1
  1
33
  7
standard
210
0
220
0
230
1
 50
0
 73
    2
 44
1
  0
LINE
  5
B5
100
AcDbEntity
  8
olcu
  6
ByBlock
 62
    0
370
   -2
100
AcDbLine
 10
108.75
 20
160.6663290724795
 11
108.75
 21
188.3348568453868
  0
LINE
  5
B6
100
AcDbEntity
  8
olcu
  6
ByBlock
 62
    0
370
   -2
100
AcDbLine
 10
141.75
 20
160.6663290724797
 11
141.75
 21
188.3348568453868
  0
ENDBLK
  5
6C
330
6A
100
AcDbEntity
  8
0
100
AcDbBlockEnd
  0
BLOCK
  5
6E
330
6D
100
AcDbEntity
  8
0
100
AcDbBlockBegin
  2
*D4
 70
    1
 10
0
 20
0
  3
*D4
  1

  0
LINE
  5
B7
100
AcDbEntity
  8
olcu
  6
ByBlock
 62
    0
370
   -2
100
AcDbLine
 10
97.25
 20
194.4257566242103
 11
153.25
 21
194.4257566242103
  0
SOLID
  5
B8
100
AcDbEntity
  8
olcu
  6
ByBlock
 62
    0
370
   -2
100
AcDbTrace
 10
97.25
 20
194.4257566242103
 30
0
 11
103.5
 21
195.4664682686424
 31
0
 12
103.5
 22
193.3850449797782
 32
0
 13
103.5
 23
193.3850449797782
 33
0
  0
SOLID
  5
B9
100
AcDbEntity
  8
olcu
  6
ByBlock
 62
    0
370
   -2
100
AcDbTrace
 10
153.25
 20
194.4257566242103
 30
0
 11
147
 21
193.3850449797782
 31
0
 12
147
 22
195.4664682686424
 32
0
 13
147
 23
195.4664682686424
 33
0
  0
MTEXT
  5
BA
100
AcDbEntity
  8
olcu
  6
CONTINUOUS
 62
    0
370
   -2
100
AcDbMText
 10
125.25
 20
197.8632566242103
 30
0
 40
3.75
 41
4.583333333333799
 71
    5
 72
    1
  1
56
  7
standard
210
0
220
0
230
1
 50
0
 73
    2
 44
1
  0
LINE
  5
BB
100
AcDbEntity
  8
olcu
  6
ByBlock
 62
    0
370
   -2
100
AcDbLine
 10
97.25
 20
156.4180074842309
 11
97.25
 21
197.5507566242103
  0
LINE
  5
BC
100
AcDbEntity
  8
olcu
  6
ByBlock
 62
    0
370
   -2
100
AcDbLine
 10
153.25
 20
156.4180074842308
 11
153.25
 21
197.5507566242103
  0
ENDBLK
  5
6F
330
6D
100
AcDbEntity
  8
0
100
AcDbBlockEnd
  0
BLOCK
  5
71
330
70
100
AcDbEntity
  8
0
100
AcDbBlockBegin
  2
*D11
 70
    1
 10
0
 20
0
  3
*D11
  1

  0
SOLID
  5
BD
100
AcDbEntity
  8
olcu
  6
ByBlock
 62
    0
370
   -2
100
AcDbTrace
 10
94.54215867026093
 20
166.3855987109339
 30
0
 11
93.1606845415032
 21
160.2019824584139
 31
0
 12
91.23146791106882
 22
160.9832929602514
 32
0
 13
91.23146791106882
 23
160.9832929602514
 33
0
  0
LINE
  5
BE
100
AcDbEntity
  8
olcu
  6
ByBlock
 62
    0
370
   -2
100
AcDbLine
 10
60.7585714770221
 20
82.96696028787626
 11
94.54215867026093
 21
166.3855987109339
  0
MTEXT
  5
BF
100
AcDbEntity
  8
olcu
  6
CONTINUOUS
 62
    0
370
   -2
100
AcDbMText
 10
74.46423652276084
 20
125.9666248435913
 30
0
 40
3.75
 41
4.583333333333567
 71
    5
 72
    1
  1
90
  7
standard
210
0
220
0
230
1
 50
67.95261980495005
 73
    2
 44
1
  0
ENDBLK
  5
72
330
70
100
AcDbEntity
  8
0
100
AcDbBlockEnd
  0
BLOCK
  5
74
330
73
100
AcDbEntity
  8
0
100
AcDbBlockBegin
  2
*D13
 70
    1
 10
0
 20
0
  3
*D13
  1

  0
LINE
  5
C0
100
AcDbEntity
  8
olcu
  6
ByBlock
 62
    0
370
   -2
100
AcDbLine
 10
112.4262729361318
 20
116.0184323136311
 11
82.07372706386818
 21
138.8815676863689
  0
SOLID
  5
C1
100
AcDbEntity
  8
olcu
  6
ByBlock
 62
    0
370
   -2
100
AcDbTrace
 10
102.4418828465714
 20
123.5392005283475
 30
0
 11
108.060233975842
 21
120.6100861032899
 31
0
 12
106.8079218068612
 22
118.9475467386887
 32
0
 13
106.8079218068612
 23
118.9475467386887
 33
0
  0
SOLID
  5
C2
100
AcDbEntity
  8
olcu
  6
ByBlock
 62
    0
370
   -2
100
AcDbTrace
 10
92.05811715342858
 20
131.3607994716525
 30
0
 11
86.43976602415798
 21
134.2899138967101
 31
0
 12
87.6920781931388
 22
135.9524532613113
 32
0
 13
87.6920781931388
 23
135.9524532613113
 33
0
  0
MTEXT
  5
C3
100
AcDbEntity
  8
olcu
  6
CONTINUOUS
 62
    0
370
   -2
100
AcDbMText
 10
114.6985148863038
 20
119.4957911743241
 30
0
 40
3.75
 41
7.500000000000233
 71
    5
 72
    1
  1
%%C13
  7
standard
210
0
220
0
230
1
 50
323.0110163457696
 73
    2
 44
1
  0
ENDBLK
  5
75
330
73
100
AcDbEntity
  8
0
100
AcDbBlockEnd
  0
BLOCK
  5
77
330
76
100
AcDbEntity
  8
0
100
AcDbBlockBegin
  2
*D10
 70
    1
 10
0
 20
0
  3
*D10
  1

  0
SOLID
  5
C4
100
AcDbEntity
  8
olcu
  6
ByBlock
 62
    0
370
   -2
100
AcDbTrace
 10
68.51887791853302
 20
155.8045209263538
 30
0
 11
74.83520728750425
 21
156.3040847656458
 31
0
 12
74.65627313661247
 22
154.2303669745587
 32
0
 13
74.65627313661247
 23
154.2303669745587
 33
0
  0
LINE
  5
C5
100
AcDbEntity
  8
olcu
  6
ByBlock
 62
    0
370
   -2
100
AcDbLine
 10
188.0746339542195
 20
145.4884558463237
 11
68.51887791853301
 21
155.8045209263538
  0
MTEXT
  5
C6
100
AcDbEntity
  8
olcu
  6
CONTINUOUS
 62
    0
370
   -2
100
AcDbMText
 10
128.5922682173146
 20
154.0712626477777
 30
0
 40
3.75
 41
6.666666666666668
 71
    5
 72
    1
  1
120
  7
standard
210
0
220
0
230
1
 50
355.0683545396706
 73
    2
 44
1
  0
ENDBLK
  5
78
330
76
100
AcDbEntity
  8
0
100
AcDbBlockEnd
  0
BLOCK
  5
7A
330
79
100
AcDbEntity
  8
0
100
AcDbBlockBegin
  2
*D1
 70
    1
 10
0
 20
0
  3
*D1
  1

  0
LINE
  5
C7
100
AcDbEntity
  8
olcu
  6
ByBlock
 62
    0
370
   -2
100
AcDbLine
 10
216.8709318919899
 20
96.75
 11
216.8709318919899
 21
127.45
  0
SOLID
  5
C8
100
AcDbEntity
  8
olcu
  6
ByBlock
 62
    0
370
   -2
100
AcDbTrace
 10
216.8709318919899
 20
96.75
 30
0
 11
215.8302202475578
 21
103
 31
0
 12
217.911643536422
 22
103
 32
0
 13
217.911643536422
 23
103
 33
0
  0
SOLID
  5
C9
100
AcDbEntity
  8
olcu
  6
ByBlock
 62
    0
370
   -2
100
AcDbTrace
 10
216.8709318919899
 20
127.45
 30
0
 11
217.911643536422
 21
121.2
 31
0
 12
215.8302202475578
 22
121.2
 32
0
 13
215.8302202475578
 23
121.2
 33
0
  0
MTEXT
  5
CA
100
AcDbEntity
  8
olcu
  6
CONTINUOUS
 62
    0
370
   -2
100
AcDbMText
 10
213.4334318919899
 20
112.1
 30
0
 40
3.75
 41
8.958333333333567
 71
    5
 72
    1
  1
30,7
  7
standard
210
0
220
0
230
1
 50
90
 73
    2
 44
1
  0
LINE
  5
CB
100
AcDbEntity
  8
olcu
  6
ByBlock
 62
    0
370
   -2
100
AcDbLine
 10
176.8125
 20
96.75
 11
219.9959318919899
 21
96.75
  0
LINE
  5
CC
100
AcDbEntity
  8
olcu
  6
ByBlock
 62
    0
370
   -2
100
AcDbLine
 10
176.8125
 20
127.45
 11
219.9959318919899
 21
127.45
  0
ENDBLK
  5
7B
330
79
100
AcDbEntity
  8
0
100
AcDbBlockEnd
  0
BLOCK
  5
7D
330
7C
100
AcDbEntity
  8
0
100
AcDbBlockBegin
  2
*D7
 70
    1
 10
0
 20
0
  3
*D7
  1

  0
LINE
  5
CD
100
AcDbEntity
  8
olcu
  6
ByBlock
 62
    0
370
   -2
100
AcDbLine
 10
199.6065761223053
 20
84.25
 11
199.6065761223053
 21
118.45
  0
SOLID
  5
CE
100
AcDbEntity
  8
olcu
  6
ByBlock
 62
    0
370
   -2
100
AcDbTrace
 10
199.6065761223053
 20
96.75
 30
0
 11
200.6472877667374
 21
90.5
 31
0
 12
198.5658644778732
 22
90.5
 32
0
 13
198.5658644778732
 23
90.5
 33
0
  0
SOLID
  5
CF
100
AcDbEntity
  8
olcu
  6
ByBlock
 62
    0
370
   -2
100
AcDbTrace
 10
199.6065761223053
 20
105.95
 30
0
 11
198.5658644778732
 21
112.2
 31
0
 12
200.6472877667374
 22
112.2
 32
0
 13
200.6472877667374
 23
112.2
 33
0
  0
MTEXT
  5
D0
100
AcDbEntity
  8
olcu
  6
CONTINUOUS
 62
    0
370
   -2
100
AcDbMText
 10
196.1690761223053
 20
101.35
 30
0
 40
3.75
 41
6.041666666666901
 71
    5
 72
    1
  1
9,2
  7
standard
210
0
220
0
230
1
 50
90
 73
    2
 44
1
  0
LINE
  5
D1
100
AcDbEntity
  8
olcu
  6
ByBlock
 62
    0
370
   -2
100
AcDbLine
 10
176.8125
 20
96.75
 11
202.7315761223053
 21
96.75
  0
LINE
  5
D2
100
AcDbEntity
  8
olcu
  6
ByBlock
 62
    0
370
   -2
100
AcDbLine
 10
176.8125
 20
105.95
 11
202.7315761223053
 21
105.95
  0
ENDBLK
  5
7E
330
7C
100
AcDbEntity
  8
0
100
AcDbBlockEnd
  0
BLOCK
  5
80
330
7F
100
AcDbEntity
  8
0
100
AcDbBlockBegin
  2
*D8
 70
    1
 10
0
 20
0
  3
*D8
  1

  0
LINE
  5
D3
100
AcDbEntity
  8
olcu
  6
ByBlock
 62
    0
370
   -2
100
AcDbLine
 10
207.7702091319157
 20
84.25
 11
207.7702091319157
 21
119.45
  0
SOLID
  5
D4
100
AcDbEntity
  8
olcu
  6
ByBlock
 62
    0
370
   -2
100
AcDbTrace
 10
207.7702091319157
 20
96.75
 30
0
 11
208.8109207763478
 21
90.5
 31
0
 12
206.7294974874836
 22
90.5
 32
0
 13
206.7294974874836
 23
90.5
 33
0
  0
SOLID
  5
D5
100
AcDbEntity
  8
olcu
  6
ByBlock
 62
    0
370
   -2
100
AcDbTrace
 10
207.7702091319157
 20
106.95
 30
0
 11
206.7294974874836
 21
113.2
 31
0
 12
208.8109207763478
 22
113.2
 32
0
 13
208.8109207763478
 23
113.2
 33
0
  0
MTEXT
  5
D6
100
AcDbEntity
  8
olcu
  6
CONTINUOUS
 62
    0
370
   -2
100
AcDbMText
 10
204.3327091319157
 20
101.85
 30
0
 40
3.75
 41
8.125
 71
    5
 72
    1
  1
10,2
  7
standard
210
0
220
0
230
1
 50
90
 73
    2
 44
1
  0
LINE
  5
D7
100
AcDbEntity
  8
olcu
  6
ByBlock
 62
    0
370
   -2
100
AcDbLine
 10
176.8125
 20
96.75
 11
210.8952091319157
 21
96.75
  0
LINE
  5
D8
100
AcDbEntity
  8
olcu
  6
ByBlock
 62
    0
370
   -2
100
AcDbLine
 10
176.8125
 20
106.95
 11
210.8952091319157
 21
106.95
  0
ENDBLK
  5
81
330
7F
100
AcDbEntity
  8
0
100
AcDbBlockEnd
  0
ENDSEC
  0
SECTION
  2
ENTITIES
  0
HATCH
  5
D9
100
AcDbEntity
  8
0
  6
ByLayer
 62
  256
370
   -1
100
AcDbHatch
 10
0
 20
0
 30
0
210
0
220
0
230
1
  2
SOLID
 70
    1
 71
    0
 91
    1
 92
    0
 93
    1
 72
    2
 10
308.4740141882841
 20
105.95
 40
8.5
 50
0
 51
360
 73
    1
 97
    0
 75
    0
 76
    1
 98
    0
  0
HATCH
  5
DA
100
AcDbEntity
  8
0
  6
ByLayer
 62
  256
370
   -1
100
AcDbHatch
 10
0
 20
0
 30
0
210
0
220
0
230
1
  2
SOLID
 70
    1
 71
    0
 91
    1
 92
    0
 93
    4
 72
    2
 10
371.2986481425036
 20
145.4884558463237
 40
120
 50
169.0294639257715
 51
188.0181698855883
 73
    1
 72
    2
 10
308.4740141882841
 20
96.75
 40
64.49999999999989
 50
209.7438975586842
 51
255.1781789379499
 73
    0
 72
    2
 10
243.9825856653062
 20
82.96696028787626
 40
90
 50
57.77549794347318
 51
81.37859261718079
 73
    1
 72
    2
 10
257.4740141882841
 20
167.9499999999999
 40
4
 50
89.9999999999998
 51
174.6212406003705
 73
    1
 97
    0
 75
    0
 76
    1
 98
    0
  0
HATCH
  5
DB
100
AcDbEntity
  8
0
  6
ByLayer
 62
  256
370
   -1
100
AcDbHatch
 10
0
 20
0
 30
0
210
0
220
0
230
1
  2
SOLID
 70
    1
 71
    0
 91
    1
 92
    0
 93
    4
 72
    2
 10
308.4740141882841
 20
96.75
 40
64.49999999999989
 50
29.74389755868422
 51
75.17817893794988
 73
    1
 72
    2
 10
372.965442711262
 20
82.96696028787626
 40
90
 50
237.7754979434732
 51
261.3785926171807
 73
    0
 72
    2
 10
359.4740141882841
 20
167.9499999999999
 40
4
 50
269.9999999999998
 51
354.6212406003705
 73
    0
 72
    2
 10
245.6493802340646
 20
145.4884558463237
 40
120
 50
349.0294639257715
 51
8.018169885588273
 73
    0
 97
    0
 75
    0
 76
    1
 98
    0
  0
HATCH
  5
DC
100
AcDbEntity
  8
0
  6
ByLayer
 62
  256
370
   -1
100
AcDbHatch
 10
0
 20
0
 30
0
210
0
220
0
230
1
  2
SOLID
 70
    1
 71
    0
 91
    1
 92
    0
 93
    4
 72
    2
 10
308.4740141882841
 20
96.75
 40
32.00000000000001
 50
7.628149668580678
 51
33.74210591405909
 73
    1
 72
    2
 10
336.4740141882841
 20
127.45
 40
13
 50
263.8597061219845
 51
358.405664465139
 73
    1
 72
    2
 10
308.4740141882841
 20
96.75
 40
51
 50
323.4967277999191
 51
349.5565494668053
 73
    0
 72
    2
 10
348.4740141882841
 20
106.95
 40
10.2
 50
5.375065840071739
 51
144.2993633955662
 73
    0
 97
    0
 75
    0
 76
    1
 98
    0
  0
HATCH
  5
DD
100
AcDbEntity
  8
0
  6
ByLayer
 62
  256
370
   -1
100
AcDbHatch
 10
0
 20
0
 30
0
210
0
220
0
230
1
  2
SOLID
 70
    1
 71
    0
 91
    1
 92
    0
 93
    1
 72
    2
 10
336.4740141882842
 20
127.45
 40
6.5
 50
0
 51
360
 73
    1
 97
    0
 75
    0
 76
    1
 98
    0
  0
HATCH
  5
DE
100
AcDbEntity
  8
0
  6
ByLayer
 62
  256
370
   -1
100
AcDbHatch
 10
0
 20
0
 30
0
210
0
220
0
230
1
  2
SOLID
 70
    1
 71
    0
 91
    1
 92
    0
 93
    4
 72
    2
 10
280.4740141882841
 20
127.45
 40
13
 50
348.5925972617688
 51
83.13855560492351
 73
    1
 72
    2
 10
308.4740141882841
 20
96.75
 40
50.99999999999999
 50
238.7638366601346
 51
301.2361633398654
 73
    0
 72
    2
 10
336.4740141882841
 20
127.45
 40
13
 50
96.86144439507649
 51
191.4074027382312
 73
    1
 72
    2
 10
308.4740141882841
 20
96.75
 40
31.99999999999998
 50
61.52500294615652
 51
118.4749970538435
 73
    1
 97
    0
 75
    0
 76
    1
 98
    0
  0
HATCH
  5
DF
100
AcDbEntity
  8
0
  6
ByLayer
 62
  256
370
   -1
100
AcDbHatch
 10
0
 20
0
 30
0
210
0
220
0
230
1
  2
SOLID
 70
    1
 71
    0
 91
    1
 92
    0
 93
    1
 72
    2
 10
280.4740141882841
 20
127.45
 40
6.5
 50
0
 51
360
 73
    1
 97
    0
 75
    0
 76
    1
 98
    0
  0
HATCH
  5
E0
100
AcDbEntity
  8
0
  6
ByLayer
 62
  256
370
   -1
100
AcDbHatch
 10
0
 20
0
 30
0
210
0
220
0
230
1
  2
SOLID
 70
    1
 71
    0
 91
    1
 92
    0
 93
    4
 72
    2
 10
280.4740141882841
 20
127.45
 40
13
 50
181.5943355348609
 51
276.1402938780155
 73
    1
 72
    2
 10
308.4740141882841
 20
96.75
 40
32.00000000000001
 50
146.257894085941
 51
172.3718503314194
 73
    1
 72
    2
 10
268.4740141882841
 20
106.9499999999999
 40
10.2
 50
35.70063660443372
 51
174.6249341599282
 73
    0
 72
    2
 10
308.4740141882841
 20
96.75
 40
51
 50
190.4434505331946
 51
216.5032722000809
 73
    0
 97
    0
 75
    0
 76
    1
 98
    0
  0
CIRCLE
  5
E1
100
AcDbEntity
  8
referans_cizgiler
  6
ByLayer
 62
  256
370
   -1
100
AcDbCircle
 10
125.25
 20
96.75
 40
32
  0
CIRCLE
  5
E2
100
AcDbEntity
  8
referans_cizgiler
  6
ByLayer
 62
  256
370
   -1
100
AcDbCircle
 10
125.25
 20
96.75
 40
51
  0
LINE
  5
E3
100
AcDbEntity
  8
referans_cizgiler
  6
ByLayer
 62
  256
370
   -1
100
AcDbLine
 10
75.25
 20
96.75
 11
175.25
 21
96.75
  0
CIRCLE
  5
E4
100
AcDbEntity
  8
referans_cizgiler
  6
ByLayer
 62
  256
370
   -1
100
AcDbCircle
 10
125.25
 20
96.75
 40
64.5
  0
LINE
  5
E5
100
AcDbEntity
  8
referans_cizgiler
  6
ByLayer
 62
  256
370
   -1
100
AcDbLine
 10
75.25
 20
105.95
 11
175.25
 21
105.95
  0
CIRCLE
  5
E6
100
AcDbEntity
  8
0
  6
ByLayer
 62
  256
370
   -1
100
AcDbCircle
 10
125.25
 20
105.95
 40
8.5
  0
LINE
  5
E7
100
AcDbEntity
  8
referans_cizgiler
  6
ByLayer
 62
  256
370
   -1
100
AcDbLine
 10
75.25
 20
127.45
 11
175.25
 21
127.45
  0
CIRCLE
  5
E8
100
AcDbEntity
  8
0
  6
ByLayer
 62
  256
370
   -1
100
AcDbCircle
 10
97.25
 20
127.45
 40
6.5
  0
CIRCLE
  5
E9
100
AcDbEntity
  8
0
  6
ByLayer
 62
  256
370
   -1
100
AcDbCircle
 10
153.25
 20
127.45
 40
6.5
  0
ARC
  5
EA
100
AcDbEntity
  8
0
  6
ByLayer
 62
  256
370
   -1
100
AcDbCircle
 10
97.25
 20
127.45
 40
13
100
AcDbArc
 50
348.5925972617688
 51
83.13855560492351
  0
ARC
  5
EB
100
AcDbEntity
  8
0
  6
ByLayer
 62
  256
370
   -1
100
AcDbCircle
 10
153.25
 20
127.45
 40
13
100
AcDbArc
 50
263.8597061219845
 51
5.088887490341627e-14
  0
ARC
  5
EC
100
AcDbEntity
  8
0
  6
ByLayer
 62
  256
370
   -1
100
AcDbCircle
 10
153.25
 20
127.45
 40
13
100
AcDbArc
 50
96.86144439507649
 51
191.4074027382312
  0
ARC
  5
ED
100
AcDbEntity
  8
0
  6
ByLayer
 62
  256
370
   -1
100
AcDbCircle
 10
125.25
 20
96.75
 40
50.99999999999999
100
AcDbArc
 50
58.76383666013462
 51
121.2361633398654
  0
ARC
  5
EE
100
AcDbEntity
  8
0
  6
ByLayer
 62
  256
370
   -1
100
AcDbCircle
 10
125.25
 20
96.75
 40
31.99999999999998
100
AcDbArc
 50
61.52500294615652
 51
118.4749970538435
  0
ARC
  5
EF
100
AcDbEntity
  8
0
  6
ByLayer
 62
  256
370
   -1
100
AcDbCircle
 10
97.25
 20
127.45
 40
13
100
AcDbArc
 50
181.5943355348609
 51
276.1402938780155
  0
ARC
  5
F0
100
AcDbEntity
  8
0
  6
ByLayer
 62
  256
370
   -1
100
AcDbCircle
 10
125.25
 20
96.75
 40
32.00000000000001
100
AcDbArc
 50
61.52500294615652
 51
118.4749970538435
  0
LINE
  5
F1
100
AcDbEntity
  8
referans_cizgiler
  6
ByLayer
 62
  256
370
   -1
100
AcDbLine
 10
69.24776790162728
 20
128.75
 11
181.2522320983727
 21
128.75
  0
LINE
  5
F2
100
AcDbEntity
  8
referans_cizgiler
  6
ByLayer
 62
  256
370
   -1
100
AcDbLine
 10
74.25
 20
167.95
 11
176.25
 21
167.95
  0
ARC
  5
F3
100
AcDbEntity
  8
0
  6
ByLayer
 62
  256
370
   -1
100
AcDbCircle
 10
188.0746339542195
 20
145.4884558463237
 40
120
100
AcDbArc
 50
169.0294639257715
 51
188.0181698855883
  0
CIRCLE
  5
F4
100
AcDbEntity
  8
referans_cizgiler
  6
ByLayer
 62
  256
370
   -1
100
AcDbCircle
 10
176.25
 20
167.9499999999999
 40
4
  0
ARC
  5
F5
100
AcDbEntity
  8
0
  6
ByLayer
 62
  256
370
   -1
100
AcDbCircle
 10
125.25
 20
96.75
 40
64.49999999999989
100
AcDbArc
 50
104.8218210620501
 51
150.2561024413158
  0
ARC
  5
F6
100
AcDbEntity
  8
0
  6
ByLayer
 62
  256
370
   -1
100
AcDbCircle
 10
125.25
 20
96.75
 40
64.49999999999989
100
AcDbArc
 50
29.74389755868422
 51
75.17817893794988
  0
ARC
  5
F7
100
AcDbEntity
  8
0
  6
ByLayer
 62
  256
370
   -1
100
AcDbCircle
 10
60.7585714770221
 20
82.96696028787626
 40
90
100
AcDbArc
 50
57.77549794347318
 51
81.37859261718079
  0
ARC
  5
F8
100
AcDbEntity
  8
0
  6
ByLayer
 62
  256
370
   -1
100
AcDbCircle
 10
74.25
 20
167.9499999999999
 40
4
100
AcDbArc
 50
89.9999999999998
 51
174.6212406003705
  0
ARC
  5
F9
100
AcDbEntity
  8
referans_cizgiler
  6
ByLayer
 62
  256
370
   -1
100
AcDbCircle
 10
74.25
 20
167.9499999999999
 40
4
100
AcDbArc
 50
174.6212406003705
 51
449.9999999999998
  0
ARC
  5
FA
100
AcDbEntity
  8
0
  6
ByLayer
 62
  256
370
   -1
100
AcDbCircle
 10
62.42536604578052
 20
145.4884558463237
 40
120
100
AcDbArc
 50
351.9818301144117
 51
10.97053607422851
  0
ARC
  5
FB
100
AcDbEntity
  8
0
  6
ByLayer
 62
  256
370
   -1
100
AcDbCircle
 10
189.7414285229779
 20
82.96696028787626
 40
90
100
AcDbArc
 50
98.62140738281926
 51
122.2245020565268
  0
ARC
  5
FC
100
AcDbEntity
  8
0
  6
ByLayer
 62
  256
370
   -1
100
AcDbCircle
 10
176.25
 20
167.9499999999999
 40
4
100
AcDbArc
 50
5.378759399629495
 51
90.0000000000002
  0
DIMENSION
  5
FD
100
AcDbEntity
  8
olcu
  6
ByLayer
 62
  256
370
   -1
100
AcDbDimension
  2
*D1
 10
216.8709318919899
 20
127.45
 30
0
 11
213.4334318919899
 21
112.1
 31
0
 70
   32
 71
    5
  3
Standard
 53
0
210
0
220
0
230
1
100
AcDbAlignedDimension
 13
175.25
 23
96.75
 33
0
 14
175.25
 24
127.45
 34
0
 50
90
100
AcDbRotatedDimension
  0
DIMENSION
  5
FE
100
AcDbEntity
  8
olcu
  6
ByLayer
 62
  256
370
   -1
100
AcDbDimension
  2
*D2
 10
216.8709318919899
 20
167.95
 30
0
 11
213.4334318919899
 21
147.7
 31
0
 70
   32
 71
    5
  3
Standard
 53
0
210
0
220
0
230
1
100
AcDbAlignedDimension
 13
175.25
 23
127.45
 33
0
 14
176.25
 24
167.95
 34
0
 50
90
100
AcDbRotatedDimension
  0
DIMENSION
  5
FF
100
AcDbEntity
  8
olcu
  6
ByLayer
 62
  256
370
   -1
100
AcDbDimension
  2
*D3
 10
141.75
 20
185.2098568453868
 30
0
 11
125.25
 21
188.6473568453868
 31
0
 70
   32
 71
    5
  3
Standard
 53
0
210
0
220
0
230
1
100
AcDbAlignedDimension
 13
108.75
 23
159.1038290724795
 33
0
 14
141.75
 24
159.1038290724797
 34
0
100
AcDbRotatedDimension
  0
DIMENSION
  5
100
100
AcDbEntity
  8
olcu
  6
ByLayer
 62
  256
370
   -1
100
AcDbDimension
  2
*D4
 10
153.25
 20
194.4257566242103
 30
0
 11
125.25
 21
197.8632566242103
 31
0
 70
   32
 71
    5
  3
Standard
 53
0
210
0
220
0
230
1
100
AcDbAlignedDimension
 13
97.25
 23
154.8555074842309
 33
0
 14
153.25
 24
154.8555074842308
 34
0
100
AcDbRotatedDimension
  0
DIMENSION
  5
101
100
AcDbEntity
  8
olcu
  6
ByLayer
 62
  256
370
   -1
100
AcDbDimension
  2
*D5
 10
176.25
 20
206.7631708442481
 30
0
 11
125.25
 21
210.2006708442481
 31
0
 70
   32
 71
    5
  3
Standard
 53
0
210
0
220
0
230
1
100
AcDbAlignedDimension
 13
74.25
 23
167.95
 33
0
 14
176.25
 24
167.95
 34
0
100
AcDbRotatedDimension
  0
LINE
  5
102
100
AcDbEntity
  8
referans_cizgiler
  6
ByLayer
 62
  256
370
   -1
100
AcDbLine
 10
97.25
 20
96.75
 11
97.25
 21
154.8555074842309
  0
LINE
  5
103
100
AcDbEntity
  8
referans_cizgiler
  6
ByLayer
 62
  256
370
   -1
100
AcDbLine
 10
74.25
 20
96.75
 11
74.25
 21
167.95
  0
LINE
  5
104
100
AcDbEntity
  8
referans_cizgiler
  6
ByLayer
 62
  256
370
   -1
100
AcDbLine
 10
108.75
 20
96.75
 11
108.75
 21
159.1038290724796
  0
LINE
  5
105
100
AcDbEntity
  8
referans_cizgiler
  6
ByLayer
 62
  256
370
   -1
100
AcDbLine
 10
141.75
 20
96.75
 11
141.75
 21
159.1038290724797
  0
LINE
  5
106
100
AcDbEntity
  8
referans_cizgiler
  6
ByLayer
 62
  256
370
   -1
100
AcDbLine
 10
153.25
 20
96.75
 11
153.25
 21
154.8555074842308
  0
LINE
  5
107
100
AcDbEntity
  8
referans_cizgiler
  6
ByLayer
 62
  256
370
   -1
100
AcDbLine
 10
176.25
 20
96.75
 11
176.25
 21
167.95
  0
DIMENSION
  5
108
100
AcDbEntity
  8
olcu
  6
ByLayer
 62
  256
370
   -1
100
AcDbDimension
  2
*D6
 10
207.6552283853011
 20
128.75
 30
0
 11
204.2177283853011
 21
128.1
 31
0
 70
   32
 71
    5
  3
Standard
 53
0
210
0
220
0
230
1
100
AcDbAlignedDimension
 13
175.25
 23
127.45
 33
0
 14
181.2522320983727
 24
128.75
 34
0
 50
90
100
AcDbRotatedDimension
  0
LINE
  5
109
100
AcDbEntity
  8
referans_cizgiler
  6
ByLayer
 62
  256
370
   -1
100
AcDbLine
 10
75.25
 20
106.95
 11
175.25
 21
106.95
  0
DIMENSION
  5
10A
100
AcDbEntity
  8
olcu
  6
ByLayer
 62
  256
370
   -1
100
AcDbDimension
  2
*D7
 10
199.6065761223053
 20
105.7822868850927
 30
0
 11
196.1690761223053
 21
101.35
 31
0
 70
   32
 71
    5
  3
Standard
 53
0
210
0
220
0
230
1
100
AcDbAlignedDimension
 13
175.25
 23
96.75
 33
0
 14
175.25
 24
105.95
 34
0
 50
90
100
AcDbRotatedDimension
  0
DIMENSION
  5
10B
100
AcDbEntity
  8
olcu
  6
ByLayer
 62
  256
370
   -1
100
AcDbDimension
  2
*D8
 10
207.7702091319157
 20
106.95
 30
0
 11
204.3327091319157
 21
101.85
 31
0
 70
   32
 71
    5
  3
Standard
 53
0
210
0
220
0
230
1
100
AcDbAlignedDimension
 13
175.25
 23
96.75
 33
0
 14
175.25
 24
106.95
 34
0
 50
90
100
AcDbRotatedDimension
  0
LINE
  5
10C
100
AcDbEntity
  8
referans_cizgiler
  6
ByLayer
 62
  256
370
   -1
100
AcDbLine
 10
165.25
 20
46.74999999999999
 11
165.25
 21
146.75
  0
ARC
  5
10D
100
AcDbEntity
  8
0
  6
ByLayer
 62
  256
370
   -1
100
AcDbCircle
 10
125.25
 20
96.75
 40
32.00000000000001
100
AcDbArc
 50
7.628149668580678
 51
33.74210591405909
  0
ARC
  5
10E
100
AcDbEntity
  8
0
  6
ByLayer
 62
  256
370
   -1
100
AcDbCircle
 10
125.25
 20
96.75
 40
51
100
AcDbArc
 50
10.44345053319469
 51
36.50327220008096
  0
ARC
  5
10F
100
AcDbEntity
  8
0
  6
ByLayer
 62
  256
370
   -1
100
AcDbCircle
 10
165.25
 20
106.95
 40
10.2
100
AcDbArc
 50
215.7006366044338
 51
354.6249341599283
  0
ARC
  5
110
100
AcDbEntity
  8
0
  6
ByLayer
 62
  256
370
   -1
100
AcDbCircle
 10
125.25
 20
96.75
 40
32.00000000000001
100
AcDbArc
 50
146.257894085941
 51
172.3718503314194
  0
ARC
  5
111
100
AcDbEntity
  8
0
  6
ByLayer
 62
  256
370
   -1
100
AcDbCircle
 10
125.25
 20
96.75
 40
51
100
AcDbArc
 50
143.4967277999191
 51
169.5565494668054
  0
ARC
  5
112
100
AcDbEntity
  8
0
  6
ByLayer
 62
  256
370
   -1
100
AcDbCircle
 10
85.25
 20
106.9499999999999
 40
10.2
100
AcDbArc
 50
185.3750658400718
 51
324.2993633955663
  0
CIRCLE
  5
113
100
AcDbEntity
  8
0
  6
ByLayer
 62
  256
370
   -1
100
AcDbCircle
 10
308.4740141882841
 20
105.95
 40
8.5
  0
ARC
  5
114
100
AcDbEntity
  8
0
  6
ByLayer
 62
  256
370
   -1
100
AcDbCircle
 10
280.4740141882841
 20
127.45
 40
13
100
AcDbArc
 50
348.5925972617688
 51
83.13855560492351
  0
ARC
  5
115
100
AcDbEntity
  8
0
  6
ByLayer
 62
  256
370
   -1
100
AcDbCircle
 10
336.4740141882841
 20
127.45
 40
13
100
AcDbArc
 50
96.86144439507649
 51
191.4074027382312
  0
ARC
  5
116
100
AcDbEntity
  8
0
  6
ByLayer
 62
  256
370
   -1
100
AcDbCircle
 10
308.4740141882841
 20
96.75
 40
50.99999999999999
100
AcDbArc
 50
58.76383666013462
 51
121.2361633398654
  0
ARC
  5
117
100
AcDbEntity
  8
0
  6
ByLayer
 62
  256
370
   -1
100
AcDbCircle
 10
308.4740141882841
 20
96.75
 40
31.99999999999998
100
AcDbArc
 50
61.52500294615652
 51
118.4749970538435
  0
ARC
  5
118
100
AcDbEntity
  8
0
  6
ByLayer
 62
  256
370
   -1
100
AcDbCircle
 10
280.4740141882841
 20
127.45
 40
13
100
AcDbArc
 50
181.5943355348609
 51
276.1402938780155
  0
ARC
  5
119
100
AcDbEntity
  8
0
  6
ByLayer
 62
  256
370
   -1
100
AcDbCircle
 10
371.2986481425036
 20
145.4884558463237
 40
120
100
AcDbArc
 50
169.0294639257715
 51
188.0181698855883
  0
ARC
  5
11A
100
AcDbEntity
  8
0
  6
ByLayer
 62
  256
370
   -1
100
AcDbCircle
 10
308.4740141882841
 20
96.75
 40
64.49999999999989
100
AcDbArc
 50
104.8218210620501
 51
150.2561024413158
  0
ARC
  5
11B
100
AcDbEntity
  8
0
  6
ByLayer
 62
  256
370
   -1
100
AcDbCircle
 10
308.4740141882841
 20
96.75
 40
64.49999999999989
100
AcDbArc
 50
29.74389755868422
 51
75.17817893794988
  0
ARC
  5
11C
100
AcDbEntity
  8
0
  6
ByLayer
 62
  256
370
   -1
100
AcDbCircle
 10
243.9825856653062
 20
82.96696028787626
 40
90
100
AcDbArc
 50
57.77549794347318
 51
81.37859261718079
  0
ARC
  5
11D
100
AcDbEntity
  8
0
  6
ByLayer
 62
  256
370
   -1
100
AcDbCircle
 10
257.4740141882841
 20
167.9499999999999
 40
4
100
AcDbArc
 50
89.9999999999998
 51
174.6212406003705
  0
ARC
  5
11E
100
AcDbEntity
  8
0
  6
ByLayer
 62
  256
370
   -1
100
AcDbCircle
 10
245.6493802340646
 20
145.4884558463237
 40
120
100
AcDbArc
 50
351.9818301144117
 51
10.97053607422851
  0
ARC
  5
11F
100
AcDbEntity
  8
0
  6
ByLayer
 62
  256
370
   -1
100
AcDbCircle
 10
372.965442711262
 20
82.96696028787626
 40
90
100
AcDbArc
 50
98.62140738281926
 51
122.2245020565268
  0
ARC
  5
120
100
AcDbEntity
  8
0
  6
ByLayer
 62
  256
370
   -1
100
AcDbCircle
 10
359.4740141882841
 20
167.9499999999999
 40
4
100
AcDbArc
 50
5.378759399629495
 51
90.0000000000002
  0
ARC
  5
121
100
AcDbEntity
  8
0
  6
ByLayer
 62
  256
370
   -1
100
AcDbCircle
 10
308.4740141882841
 20
96.75
 40
32.00000000000001
100
AcDbArc
 50
7.628149668580678
 51
33.74210591405909
  0
ARC
  5
122
100
AcDbEntity
  8
0
  6
ByLayer
 62
  256
370
   -1
100
AcDbCircle
 10
308.4740141882841
 20
96.75
 40
51
100
AcDbArc
 50
10.44345053319469
 51
36.50327220008096
  0
ARC
  5
123
100
AcDbEntity
  8
0
  6
ByLayer
 62
  256
370
   -1
100
AcDbCircle
 10
348.4740141882841
 20
106.95
 40
10.2
100
AcDbArc
 50
215.7006366044338
 51
354.6249341599283
  0
ARC
  5
124
100
AcDbEntity
  8
0
  6
ByLayer
 62
  256
370
   -1
100
AcDbCircle
 10
308.4740141882841
 20
96.75
 40
32.00000000000001
100
AcDbArc
 50
146.257894085941
 51
172.3718503314194
  0
ARC
  5
125
100
AcDbEntity
  8
0
  6
ByLayer
 62
  256
370
   -1
100
AcDbCircle
 10
308.4740141882841
 20
96.75
 40
51
100
AcDbArc
 50
143.4967277999191
 51
169.5565494668054
  0
ARC
  5
126
100
AcDbEntity
  8
0
  6
ByLayer
 62
  256
370
   -1
100
AcDbCircle
 10
268.4740141882841
 20
106.9499999999999
 40
10.2
100
AcDbArc
 50
185.3750658400718
 51
324.2993633955663
  0
ARC
  5
127
100
AcDbEntity
  8
0
  6
ByLayer
 62
  256
370
   -1
100
AcDbCircle
 10
336.4740141882841
 20
127.45
 40
13
100
AcDbArc
 50
263.8597061219845
 51
358.405664465139
  0
DIMENSION
  5
128
100
AcDbEntity
  8
olcu
  6
ByLayer
 62
  256
370
   -1
100
AcDbDimension
  2
*D9
 10
176.25
 20
167.9499999999999
 30
0
 11
182.119150648969
 21
178.19066467671
 31
0
 70
   36
 71
    5
 72
    0
  3
Standard
 53
0
210
0
220
0
230
1
100
AcDbRadialDimension
 15
179.1634691534367
 25
170.6907476155189
 35
0
 40
0
  0
DIMENSION
  5
129
100
AcDbEntity
  8
olcu
  6
ByLayer
 62
  256
370
   -1
100
AcDbDimension
  2
*D10
 10
188.0746339542195
 20
145.4884558463237
 30
0
 11
128.5922682173146
 21
154.0712626477777
 31
0
 70
   36
 71
    5
 72
    0
  3
Standard
 53
0
210
0
220
0
230
1
100
AcDbRadialDimension
 15
68.51887791853302
 25
155.8045209263538
 35
0
 40
0
  0
DIMENSION
  5
12A
100
AcDbEntity
  8
olcu
  6
ByLayer
 62
  256
370
   -1
100
AcDbDimension
  2
*D11
 10
60.7585714770221
 20
82.96696028787626
 30
0
 11
74.46423652276084
 21
125.9666248435913
 31
0
 70
   36
 71
    5
 72
    0
  3
Standard
 53
0
210
0
220
0
230
1
100
AcDbRadialDimension
 15
94.54215867026093
 25
166.3855987109339
 35
0
 40
0
  0
LINE
  5
12B
100
AcDbEntity
  8
referans_cizgiler
  6
ByLayer
 62
  256
370
   -1
100
AcDbLine
 10
125.25
 20
32.25000000000001
 11
125.25
 21
161.25
  0
DIMENSION
  5
12C
100
AcDbEntity
  8
olcu
  6
ByLayer
 62
  256
370
   -1
100
AcDbDimension
  2
*D12
 10
86.12477677931224
 20
120.7247187203902
 30
0
 11
113.8478764934902
 21
138.9206482692653
 31
0
 70
   35
  1
%%C<>
 71
    5
 72
    0
  3
Standard
 53
0
210
0
220
0
230
1
100
AcDbDiametricDimension
 15
108.3752232206878
 25
134.1752812796098
 35
0
 40
0
  0
DIMENSION
  5
12D
100
AcDbEntity
  8
olcu
  6
ByLayer
 62
  256
370
   -1
100
AcDbDimension
  2
*D13
 10
102.4418828465714
 20
123.5392005283475
 30
0
 11
114.6985148863038
 21
119.4957911743241
 31
0
 70
   35
  1
%%C<>
 71
    5
 72
    0
  3
Standard
 53
0
210
0
220
0
230
1
100
AcDbDiametricDimension
 15
92.05811715342858
 25
131.3607994716525
 35
0
 40
0
  0
DIMENSION
  5
12E
100
AcDbEntity
  8
olcu
  6
ByLayer
 62
  256
370
   -1
100
AcDbDimension
  2
*D14
 10
130.7512915791781
 20
112.4296443545046
 30
0
 11
116.0068629648547
 21
95.77107934993272
 31
0
 70
   35
  1
%%C<>
 71
    5
 72
    0
  3
Standard
 53
0
210
0
220
0
230
1
100
AcDbDiametricDimension
 15
119.7487084208219
 25
99.47035564549537
 35
0
 40
0
  0
DIMENSION
  5
12F
100
AcDbEntity
  8
olcu
  6
ByLayer
 62
  256
370
   -1
100
AcDbDimension
  2
*D15
 10
49.85959301148289
 20
64.54047317597508
 30
0
 11
46.4220930114829
 21
96.74999999999999
 31
0
 70
   32
 71
    5
 72
    0
  3
Standard
 53
0
210
0
220
0
230
1
100
AcDbAlignedDimension
 13
125.25
 23
128.75
 33
0
 14
125.25
 24
64.74999999999997
 34
0
 50
90
100
AcDbRotatedDimension
  0
DIMENSION
  5
130
100
AcDbEntity
  8
olcu
  6
ByLayer
 62
  256
370
   -1
100
AcDbDimension
  2
*D16
 10
35.73270832489607
 20
43.76564275452387
 30
0
 11
32.29520832489608
 21
96.75
 31
0
 70
   32
  1
%%C<>
 71
    5
 72
    0
  3
Standard
 53
0
210
0
220
0
230
1
100
AcDbAlignedDimension
 13
125.25
 23
147.75
 33
0
 14
125.25
 24
45.75
 34
0
 50
90
100
AcDbRotatedDimension
  0
DIMENSION
  5
131
100
AcDbEntity
  8
olcu
  6
ByLayer
 62
  256
370
   -1
100
AcDbDimension
  2
*D17
 10
22.4368168551673
 20
33.79372415222729
 30
0
 11
18.99931685516731
 21
96.74999999999999
 31
0
 70
   32
  1
%%C<>
 71
    5
 72
    0
  3
Standard
 53
0
210
0
220
0
230
1
100
AcDbAlignedDimension
 13
125.25
 23
161.25
 33
0
 14
125.25
 24
32.25
 34
0
 50
90
100
AcDbRotatedDimension
  0
ENDSEC
  0
SECTION
  2
OBJECTS
  0
DICTIONARY
  5
C
330
0
100
AcDbDictionary
281
    1
  3
ACAD_GROUP
350
D
  0
DICTIONARY
  5
D
330
C
100
AcDbDictionary
281
    1
  0
ENDSEC
  0
EOF
