999
dxfrw 0.6.3
  0
SECTION
  2
HEADER
  9
$ACADVER
  1
AC1021
  9
$DWGCODEPAGE
  3
ANSI_1252
  9
$INSBASE
 10
0
 20
0
 30
0
  9
$EXTMIN
 10
-147.5268375061208
 20
-72.86079943746353
 30
0
  9
$EXTMAX
 10
147.5268375061207
 20
150
 30
0
  9
$LIMMIN
 10
0
 20
0
  9
$LIMMAX
 10
420
 20
297
  9
$ORTHOMODE
 70
    0
  9
$REGENMODE
 70
    1
  9
$FILLMODE
 70
    1
  9
$QTEXTMODE
 70
    0
  9
$MIRRTEXT
 70
    0
  9
$LTSCALE
 40
1
  9
$ATTMODE
 70
    0
  9
$TEXTSIZE
 40
2.5
  9
$TRACEWID
 40
15.68
  9
$TEXTSTYLE
  7
STANDARD
  9
$CLAYER
  8
olcu
  9
$CELTYPE
  6
BYLAYER
  9
$CECOLOR
 62
  256
  9
$CELTSCALE
 40
1
  9
$DISPSILH
 70
    0
  9
$DIMSCALE
 40
2.5
  9
$DIMASZ
 40
2.5
  9
$DIMEXO
 40
0.625
  9
$DIMDLI
 40
3.75
  9
$DIMRND
 40
0
  9
$DIMDLE
 40
0
  9
$DIMEXE
 40
1.25
  9
$DIMTP
 40
0
  9
$DIMTM
 40
0
  9
$DIMTXT
 40
1.5
  9
$DIMCEN
 40
2.5
  9
$DIMTSZ
 40
0
  9
$DIMTOL
 70
    0
  9
$DIMLIM
 70
    0
  9
$DIMTIH
 70
    0
  9
$DIMTOH
 70
    0
  9
$DIMSE1
 70
    0
  9
$DIMSE2
 70
    0
  9
$DIMTAD
 70
    1
  9
$DIMZIN
 70
    8
  9
$DIMBLK
  1

  9
$DIMASO
 70
    1
  9
$DIMSHO
 70
    1
  9
$DIMPOST
  1

  9
$DIMAPOST
  1

  9
$DIMALT
 70
    0
  9
$DIMALTD
 70
    3
  9
$DIMALTF
 40
0.03937
  9
$DIMLFAC
 40
1
  9
$DIMTOFL
 70
    1
  9
$DIMTVP
 40
0
  9
$DIMTIX
 70
    0
  9
$DIMSOXD
 70
    0
  9
$DIMSAH
 70
    0
  9
$DIMBLK1
  1

  9
$DIMBLK2
  1

  9
$DIMSTYLE
  2
STANDARD
  9
$DIMCLRD
 70
    0
  9
$DIMCLRE
 70
    0
  9
$DIMCLRT
 70
    0
  9
$DIMTFAC
 40
1
  9
$DIMGAP
 40
0.625
  9
$DIMJUST
 70
    0
  9
$DIMSD1
 70
    0
  9
$DIMSD2
 70
    0
  9
$DIMTOLJ
 70
    0
  9
$DIMTZIN
 70
    8
  9
$DIMALTZ
 70
    0
  9
$DIMALTTZ
 70
    0
  9
$DIMUPT
 70
    0
  9
$DIMDEC
 70
    2
  9
$DIMTDEC
 70
    2
  9
$DIMALTU
 70
    2
  9
$DIMALTTD
 70
    3
  9
$DIMTXSTY
  7
standard
  9
$DIMAUNIT
 70
    0
  9
$DIMADEC
 70
    1
  9
$DIMALTRND
 40
0
  9
$DIMAZIN
 70
    0
  9
$DIMDSEP
 70
   44
  9
$DIMATFIT
 70
    3
  9
$DIMFRAC
 70
    0
  9
$DIMLDRBLK
  1
STANDARD
  9
$DIMLUNIT
 70
    2
  9
$DIMLWD
 70
   -2
  9
$DIMLWE
 70
   -2
  9
$DIMTMOVE
 70
    0
  9
$DIMFXL
 40
1
  9
$DIMFXLON
 70
    0
  9
$DIMJOGANG
 40
0.7854
  9
$DIMTFILL
 70
    0
  9
$DIMTFILLCLR
 70
    0
  9
$DIMARCSYM
 70
    0
  9
$DIMLTYPE
  6

  9
$DIMLTEX1
  6

  9
$DIMLTEX2
  6

  9
$LUNITS
 70
    2
  9
$LUPREC
 70
    4
  9
$SKETCHINC
 40
1
  9
$FILLETRAD
 40
0
  9
$AUNITS
 70
    0
  9
$AUPREC
 70
    2
  9
$MENU
  1
.
  9
$ELEVATION
 40
0
  9
$PELEVATION
 40
0
  9
$THICKNESS
 40
0
  9
$LIMCHECK
 70
    0
  9
$CHAMFERA
 40
0
  9
$CHAMFERB
 40
0
  9
$CHAMFERC
 40
0
  9
$CHAMFERD
 40
0
  9
$SKPOLY
 70
    0
  9
$USRTIMER
 70
    1
  9
$ANGBASE
 50
0
  9
$ANGDIR
 70
    0
  9
$PDMODE
 70
   34
  9
$PDSIZE
 40
0
  9
$PLINEWID
 40
0
  9
$SPLFRAME
 70
    0
  9
$SPLINETYPE
 70
    2
  9
$SPLINESEGS
 70
    8
  9
$HANDSEED
  5
20000
  9
$SURFTAB1
 70
    6
  9
$SURFTAB2
 70
    6
  9
$SURFTYPE
 70
    6
  9
$SURFU
 70
    6
  9
$SURFV
 70
    6
  9
$UCSBASE
  2

  9
$UCSNAME
  2

  9
$UCSORG
 10
0
 20
0
 30
0
  9
$UCSXDIR
 10
1
 20
0
 30
0
  9
$UCSYDIR
 10
0
 20
1
 30
0
  9
$UCSORTHOREF
  2

  9
$UCSORTHOVIEW
 70
    0
  9
$UCSORGTOP
 10
0
 20
0
 30
0
  9
$UCSORGBOTTOM
 10
0
 20
0
 30
0
  9
$UCSORGLEFT
 10
0
 20
0
 30
0
  9
$UCSORGRIGHT
 10
0
 20
0
 30
0
  9
$UCSORGFRONT
 10
0
 20
0
 30
0
  9
$UCSORGBACK
 10
0
 20
0
 30
0
  9
$PUCSBASE
  2

  9
$PUCSNAME
  2

  9
$PUCSORG
 10
0
 20
0
 30
0
  9
$PUCSXDIR
 10
1
 20
0
 30
0
  9
$PUCSYDIR
 10
0
 20
1
 30
0
  9
$PUCSORTHOREF
  2

  9
$PUCSORTHOVIEW
 70
    0
  9
$PUCSORGTOP
 10
0
 20
0
 30
0
  9
$PUCSORGBOTTOM
 10
0
 20
0
 30
0
  9
$PUCSORGLEFT
 10
0
 20
0
 30
0
  9
$PUCSORGRIGHT
 10
0
 20
0
 30
0
  9
$PUCSORGFRONT
 10
0
 20
0
 30
0
  9
$PUCSORGBACK
 10
0
 20
0
 30
0
  9
$USERI1
 70
    0
  9
$USERI2
 70
    0
  9
$USERI3
 70
    0
  9
$USERI4
 70
    0
  9
$USERI5
 70
    0
  9
$USERR1
 40
0
  9
$USERR2
 40
0
  9
$USERR3
 40
0
  9
$USERR4
 40
0
  9
$USERR5
 40
0
  9
$WORLDVIEW
 70
    1
  9
$SHADEDGE
 70
    3
  9
$SHADEDIF
 70
   70
  9
$TILEMODE
 70
    1
  9
$MAXACTVP
 70
   64
  9
$PINSBASE
 10
0
 20
0
 30
0
  9
$PLIMCHECK
 70
    0
  9
$PEXTMIN
 10
0
 20
0
 30
0
  9
$PEXTMAX
 10
0
 20
0
 30
0
  9
$GRIDMODE
 70
    0
  9
$SNAPSTYLE
 70
    0
  9
$GRIDUNIT
 10
0
 20
0
  9
$PLIMMIN
 10
0
 20
0
  9
$PLIMMAX
 10
297
 20
210
  9
$UNITMODE
 70
    0
  9
$VISRETAIN
 70
    1
  9
$PLINEGEN
 70
    0
  9
$PSLTSCALE
 70
    1
  9
$TREEDEPTH
 70
 3020
  9
$CMLSTYLE
  2
Standard
  9
$CMLJUST
 70
    0
  9
$CMLSCALE
 40
20
  9
$PROXYGRAPHICS
 70
    1
  9
$MEASUREMENT
 70
    1
  9
$CELWEIGHT
370
   -1
  9
$ENDCAPS
280
    0
  9
$JOINSTYLE
280
    0
  9
$LWDISPLAY
290
    0
  9
$INSUNITS
 70
    4
  9
$HYPERLINKBASE
  1

  9
$STYLESHEET
  1

  9
$XEDIT
290
    1
  9
$CEPSNTYPE
380
    0
  9
$PSTYLEMODE
290
    1
  9
$EXTNAMES
290
    1
  9
$PSVPSCALE
 40
1
  9
$OLESTARTUP
290
    0
  9
$SORTENTS
280
  127
  9
$INDEXCTL
280
    0
  9
$HIDETEXT
280
    1
  9
$XCLIPFRAME
290
    0
  9
$HALOGAP
280
    0
  9
$OBSCOLOR
 70
  257
  9
$OBSLTYPE
280
    0
  9
$INTERSECTIONDISPLAY
280
    0
  9
$INTERSECTIONCOLOR
 70
  257
  9
$DIMASSOC
280
    1
  9
$PROJECTNAME
  1

  9
$CAMERADISPLAY
290
    0
  9
$LENSLENGTH
 40
50
  9
$CAMERAHEIGHT
 40
0
  9
$STEPSPERSEC
 40
2
  9
$STEPSIZE
 40
50
  9
$3DDWFPREC
 40
2
  9
$PSOLWIDTH
 40
5
  9
$PSOLHEIGHT
 40
80
  9
$LOFTANG1
 40
1.570796326794897
  9
$LOFTANG2
 40
1.570796326794897
  9
$LOFTMAG1
 40
0
  9
$LOFTMAG2
 40
0
  9
$LOFTPARAM
 70
    7
  9
$LOFTNORMALS
280
    1
  9
$LATITUDE
 40
1
  9
$LONGITUDE
 40
1
  9
$NORTHDIRECTION
 40
0
  9
$TIMEZONE
 70
-8000
  9
$LIGHTGLYPHDISPLAY
280
    1
  9
$TILEMODELIGHTSYNCH
280
    1
  9
$SOLIDHIST
280
    1
  9
$SHOWHIST
280
    1
  9
$DWFFRAME
280
    2
  9
$DGNFRAME
280
    0
  9
$REALWORLDSCALE
290
    1
  9
$INTERFERECOLOR
 62
    1
  9
$CSHADOW
280
    0
  9
$SHADOWPLANELOCATION
 40
0
  0
ENDSEC
  0
SECTION
  2
CLASSES
  0
ENDSEC
  0
SECTION
  2
TABLES
  0
TABLE
  2
VPORT
  5
8
330
0
100
AcDbSymbolTable
 70
    1
  0
VPORT
  5
31
330
2
100
AcDbSymbolTableRecord
100
AcDbViewportTableRecord
  2
*ACTIVE
 70
    0
 10
0
 20
0
 11
1
 21
1
 12
89.68164202391615
 22
76.37651966944071
 13
0
 23
0
 14
10
 24
10
 15
10
 25
10
 16
0
 26
0
 36
1
 17
0
 27
0
 37
0
 40
227.9781541891849
 41
1.57351290684624
 42
50
 43
0
 44
0
 50
0
 51
0
 71
    0
 72
  100
 73
    1
 74
    3
 75
    0
 76
    0
 77
    0
 78
    0
281
    0
 65
    1
110
0
120
0
130
0
111
1
121
0
131
0
112
0
122
1
132
0
 79
    0
146
0
348
10020
 60
    7
 61
    5
292
1
282
    1
141
0
142
0
 63
  250
421
3358443
  0
ENDTAB
  0
TABLE
  2
LTYPE
  5
5
330
0
100
AcDbSymbolTable
 70
    4
  0
LTYPE
  5
14
330
5
100
AcDbSymbolTableRecord
100
AcDbLinetypeTableRecord
  2
ByBlock
 70
    0
  3

 72
   65
 73
    0
 40
0
  0
LTYPE
  5
15
330
5
100
AcDbSymbolTableRecord
100
AcDbLinetypeTableRecord
  2
ByLayer
 70
    0
  3

 72
   65
 73
    0
 40
0
  0
LTYPE
  5
16
330
5
100
AcDbSymbolTableRecord
100
AcDbLinetypeTableRecord
  2
Continuous
 70
    0
  3
Solid line
 72
   65
 73
    0
 40
0
  0
LTYPE
  5
32
330
5
100
AcDbSymbolTableRecord
100
AcDbLinetypeTableRecord
  2
DOT
 70
    0
  3
Dot . . . . . . . . . . . . . . . . . . . . . .
 72
   65
 73
    2
 40
6.35
 49
0
 74
    0
 49
-6.35
 74
    0
  0
LTYPE
  5
33
330
5
100
AcDbSymbolTableRecord
100
AcDbLinetypeTableRecord
  2
DOTTINY
 70
    0
  3
Dot (.15x) .....................................
 72
   65
 73
    2
 40
0.9525
 49
0
 74
    0
 49
-0.9525
 74
    0
  0
LTYPE
  5
34
330
5
100
AcDbSymbolTableRecord
100
AcDbLinetypeTableRecord
  2
DOT2
 70
    0
  3
Dot (.5x) .....................................
 72
   65
 73
    2
 40
3.175
 49
0
 74
    0
 49
-3.175
 74
    0
  0
LTYPE
  5
35
330
5
100
AcDbSymbolTableRecord
100
AcDbLinetypeTableRecord
  2
DOTX2
 70
    0
  3
Dot (2x) .  .  .  .  .  .  .  .  .  .  .  .  .
 72
   65
 73
    2
 40
12.7
 49
0
 74
    0
 49
-12.7
 74
    0
  0
LTYPE
  5
36
330
5
100
AcDbSymbolTableRecord
100
AcDbLinetypeTableRecord
  2
DASHED
 70
    0
  3
Dashed _ _ _ _ _ _ _ _ _ _ _ _ _ _ _ _ _
 72
   65
 73
    2
 40
19.05
 49
12.7
 74
    0
 49
-6.35
 74
    0
  0
LTYPE
  5
37
330
5
100
AcDbSymbolTableRecord
100
AcDbLinetypeTableRecord
  2
DASHEDTINY
 70
    0
  3
Dashed (.15x) _ _ _ _ _ _ _ _ _ _ _ _ _ _ _ _ _
 72
   65
 73
    2
 40
2.8575
 49
1.905
 74
    0
 49
-0.9525
 74
    0
  0
LTYPE
  5
38
330
5
100
AcDbSymbolTableRecord
100
AcDbLinetypeTableRecord
  2
DASHED2
 70
    0
  3
Dashed (.5x) _ _ _ _ _ _ _ _ _ _ _ _ _ _ _ _ _
 72
   65
 73
    2
 40
9.524999999999999
 49
6.35
 74
    0
 49
-3.175
 74
    0
  0
LTYPE
  5
39
330
5
100
AcDbSymbolTableRecord
100
AcDbLinetypeTableRecord
  2
DASHEDX2
 70
    0
  3
Dashed (2x) ____  ____  ____  ____  ____  ___
 72
   65
 73
    2
 40
38.09999999999999
 49
25.4
 74
    0
 49
-12.7
 74
    0
  0
LTYPE
  5
3A
330
5
100
AcDbSymbolTableRecord
100
AcDbLinetypeTableRecord
  2
DASHDOT
 70
    0
  3
Dash dot __ . __ . __ . __ . __ . __ . __ . __
 72
   65
 73
    4
 40
25.4
 49
12.7
 74
    0
 49
-6.35
 74
    0
 49
0
 74
    0
 49
-6.35
 74
    0
  0
LTYPE
  5
3B
330
5
100
AcDbSymbolTableRecord
100
AcDbLinetypeTableRecord
  2
DASHDOTTINY
 70
    0
  3
Dash dot (.15x) _._._._._._._._._._._._._._._.
 72
   65
 73
    4
 40
3.81
 49
1.905
 74
    0
 49
-0.9525
 74
    0
 49
0
 74
    0
 49
-0.9525
 74
    0
  0
LTYPE
  5
3C
330
5
100
AcDbSymbolTableRecord
100
AcDbLinetypeTableRecord
  2
DASHDOT2
 70
    0
  3
Dash dot (.5x) _._._._._._._._._._._._._._._.
 72
   65
 73
    4
 40
12.7
 49
6.35
 74
    0
 49
-3.175
 74
    0
 49
0
 74
    0
 49
-3.175
 74
    0
  0
LTYPE
  5
3D
330
5
100
AcDbSymbolTableRecord
100
AcDbLinetypeTableRecord
  2
DASHDOTX2
 70
    0
  3
Dash dot (2x) ____  .  ____  .  ____  .  ___
 72
   65
 73
    4
 40
50.8
 49
25.4
 74
    0
 49
-12.7
 74
    0
 49
0
 74
    0
 49
-12.7
 74
    0
  0
LTYPE
  5
3E
330
5
100
AcDbSymbolTableRecord
100
AcDbLinetypeTableRecord
  2
DIVIDE
 70
    0
  3
Divide ____ . . ____ . . ____ . . ____ . . ____
 72
   65
 73
    6
 40
31.75
 49
12.7
 74
    0
 49
-6.35
 74
    0
 49
0
 74
    0
 49
-6.35
 74
    0
 49
0
 74
    0
 49
-6.35
 74
    0
  0
LTYPE
  5
3F
330
5
100
AcDbSymbolTableRecord
100
AcDbLinetypeTableRecord
  2
DIVIDETINY
 70
    0
  3
Divide (.15x) __..__..__..__..__..__..__..__.._
 72
   65
 73
    6
 40
4.7625
 49
1.905
 74
    0
 49
-0.9525
 74
    0
 49
0
 74
    0
 49
-0.9525
 74
    0
 49
0
 74
    0
 49
-0.9525
 74
    0
  0
LTYPE
  5
40
330
5
100
AcDbSymbolTableRecord
100
AcDbLinetypeTableRecord
  2
DIVIDE2
 70
    0
  3
Divide (.5x) __..__..__..__..__..__..__..__.._
 72
   65
 73
    6
 40
15.875
 49
6.35
 74
    0
 49
-3.175
 74
    0
 49
0
 74
    0
 49
-3.175
 74
    0
 49
0
 74
    0
 49
-3.175
 74
    0
  0
LTYPE
  5
41
330
5
100
AcDbSymbolTableRecord
100
AcDbLinetypeTableRecord
  2
DIVIDEX2
 70
    0
  3
Divide (2x) ________  .  .  ________  .  .  _
 72
   65
 73
    6
 40
63.5
 49
25.4
 74
    0
 49
-12.7
 74
    0
 49
0
 74
    0
 49
-12.7
 74
    0
 49
0
 74
    0
 49
-12.7
 74
    0
  0
LTYPE
  5
42
330
5
100
AcDbSymbolTableRecord
100
AcDbLinetypeTableRecord
  2
BORDER
 70
    0
  3
Border __ __ . __ __ . __ __ . __ __ . __ __ .
 72
   65
 73
    6
 40
44.45
 49
12.7
 74
    0
 49
-6.35
 74
    0
 49
12.7
 74
    0
 49
-6.35
 74
    0
 49
0
 74
    0
 49
-6.35
 74
    0
  0
LTYPE
  5
43
330
5
100
AcDbSymbolTableRecord
100
AcDbLinetypeTableRecord
  2
BORDERTINY
 70
    0
  3
Border (.15x) __.__.__.__.__.__.__.__.__.__.__.
 72
   65
 73
    6
 40
6.6675
 49
1.905
 74
    0
 49
-0.9525
 74
    0
 49
1.905
 74
    0
 49
-0.9525
 74
    0
 49
0
 74
    0
 49
-0.9525
 74
    0
  0
LTYPE
  5
44
330
5
100
AcDbSymbolTableRecord
100
AcDbLinetypeTableRecord
  2
BORDER2
 70
    0
  3
Border (.5x) __.__.__.__.__.__.__.__.__.__.__.
 72
   65
 73
    6
 40
22.225
 49
6.35
 74
    0
 49
-3.175
 74
    0
 49
6.35
 74
    0
 49
-3.175
 74
    0
 49
0
 74
    0
 49
-3.175
 74
    0
  0
LTYPE
  5
45
330
5
100
AcDbSymbolTableRecord
100
AcDbLinetypeTableRecord
  2
BORDERX2
 70
    0
  3
Border (2x) ____  ____  .  ____  ____  .  ___
 72
   65
 73
    6
 40
88.89999999999999
 49
25.4
 74
    0
 49
-12.7
 74
    0
 49
25.4
 74
    0
 49
-12.7
 74
    0
 49
0
 74
    0
 49
-12.7
 74
    0
  0
LTYPE
  5
46
330
5
100
AcDbSymbolTableRecord
100
AcDbLinetypeTableRecord
  2
CENTER
 70
    0
  3
Center ____ _ ____ _ ____ _ ____ _ ____ _ ____
 72
   65
 73
    4
 40
50.8
 49
31.75
 74
    0
 49
-6.35
 74
    0
 49
6.35
 74
    0
 49
-6.35
 74
    0
  0
LTYPE
  5
47
330
5
100
AcDbSymbolTableRecord
100
AcDbLinetypeTableRecord
  2
CENTERTINY
 70
    0
  3
Center (.15x) ___ _ ___ _ ___ _ ___ _ ___ _ ___
 72
   65
 73
    4
 40
7.62
 49
4.7625
 74
    0
 49
-0.9525
 74
    0
 49
0.9525
 74
    0
 49
-0.9525
 74
    0
  0
LTYPE
  5
48
330
5
100
AcDbSymbolTableRecord
100
AcDbLinetypeTableRecord
  2
CENTER2
 70
    0
  3
Center (.5x) ___ _ ___ _ ___ _ ___ _ ___ _ ___
 72
   65
 73
    4
 40
28.575
 49
19.05
 74
    0
 49
-3.175
 74
    0
 49
3.175
 74
    0
 49
-3.175
 74
    0
  0
LTYPE
  5
49
330
5
100
AcDbSymbolTableRecord
100
AcDbLinetypeTableRecord
  2
CENTERX2
 70
    0
  3
Center (2x) ________  __  ________  __  _____
 72
   65
 73
    4
 40
101.6
 49
63.5
 74
    0
 49
-12.7
 74
    0
 49
12.7
 74
    0
 49
-12.7
 74
    0
  0
ENDTAB
  0
TABLE
  2
LAYER
  5
2
330
0
100
AcDbSymbolTable
 70
    1
  0
LAYER
  5
10
330
2
100
AcDbSymbolTableRecord
100
AcDbLayerTableRecord
  2
0
 70
    0
 62
    7
  6
CONTINUOUS
370
   50
390
F
  0
LAYER
  5
4A
330
2
100
AcDbSymbolTableRecord
100
AcDbLayerTableRecord
  2
olcu
 70
    0
 62
    2
  6
CONTINUOUS
370
   -3
390
F
  0
LAYER
  5
4B
330
2
100
AcDbSymbolTableRecord
100
AcDbLayerTableRecord
  2
ref
 70
    0
 62
  136
420
32896
  6
CENTERTINY
370
    0
390
F
  0
ENDTAB
  0
TABLE
  2
STYLE
  5
3
330
0
100
AcDbSymbolTable
 70
    3
  0
STYLE
  5
4C
330
2
100
AcDbSymbolTableRecord
100
AcDbTextStyleTableRecord
  2
Standard
 70
    0
 40
0
 41
1
 50
0
 71
    0
 42
1
  3
txt
  4

  0
ENDTAB
  0
TABLE
  2
VIEW
  5
6
330
0
100
AcDbSymbolTable
 70
    0
  0
ENDTAB
  0
TABLE
  2
UCS
  5
7
330
0
100
AcDbSymbolTable
 70
    0
  0
ENDTAB
  0
TABLE
  2
APPID
  5
9
330
0
100
AcDbSymbolTable
 70
    1
  0
APPID
  5
12
330
9
100
AcDbSymbolTableRecord
100
AcDbRegAppTableRecord
  2
ACAD
 70
    0
  0
APPID
  5
4D
330
9
100
AcDbSymbolTableRecord
100
AcDbRegAppTableRecord
  2
LibreCad
 70
    0
  0
ENDTAB
  0
TABLE
  2
DIMSTYLE
  5
A
330
0
100
AcDbSymbolTable
 70
    1
100
AcDbDimStyleTable
 71
    1
  0
DIMSTYLE
105
4E
330
A
100
AcDbSymbolTableRecord
100
AcDbDimStyleTableRecord
  2
Standard
 70
    0
 40
2.5
 41
2.5
 42
0.625
 43
0.38
 44
1.25
 45
0
 46
0
 47
0
 48
0
 49
1
140
1.5
141
0.09
142
0
143
25.4
144
1
145
0
146
1
147
0.625
148
0
 71
    0
 72
    0
 73
    0
 74
    1
 75
    0
 76
    0
 77
    0
 78
    8
 79
    0
170
    0
171
    2
172
    0
173
    0
174
    0
175
    0
176
    0
177
    0
178
    0
179
    1
271
    2
272
    4
273
    2
274
    2
275
    0
276
    0
277
    2
278
   44
279
    0
280
    0
281
    0
282
    0
283
    1
284
    0
285
    0
286
    0
288
    0
289
    3
340
standard
341

371
   -2
372
   -2
  0
ENDTAB
  0
TABLE
  2
BLOCK_RECORD
  5
1
330
0
100
AcDbSymbolTable
 70
    2
  0
BLOCK_RECORD
  5
1F
330
1
100
AcDbSymbolTableRecord
100
AcDbBlockTableRecord
  2
*Model_Space
 70
    0
280
    1
281
    0
  0
BLOCK_RECORD
  5
1E
330
1
100
AcDbSymbolTableRecord
100
AcDbBlockTableRecord
  2
*Paper_Space
 70
    0
280
    1
281
    0
  0
BLOCK_RECORD
  5
4F
330
1
100
AcDbSymbolTableRecord
100
AcDbBlockTableRecord
  2
*D6
 70
    0
280
    1
281
    0
  0
BLOCK_RECORD
  5
52
330
1
100
AcDbSymbolTableRecord
100
AcDbBlockTableRecord
  2
*D9
 70
    0
280
    1
281
    0
  0
BLOCK_RECORD
  5
55
330
1
100
AcDbSymbolTableRecord
100
AcDbBlockTableRecord
  2
*D1
 70
    0
280
    1
281
    0
  0
BLOCK_RECORD
  5
58
330
1
100
AcDbSymbolTableRecord
100
AcDbBlockTableRecord
  2
*D7
 70
    0
280
    1
281
    0
  0
BLOCK_RECORD
  5
5B
330
1
100
AcDbSymbolTableRecord
100
AcDbBlockTableRecord
  2
*D15
 70
    0
280
    1
281
    0
  0
BLOCK_RECORD
  5
5E
330
1
100
AcDbSymbolTableRecord
100
AcDbBlockTableRecord
  2
*D3
 70
    0
280
    1
281
    0
  0
BLOCK_RECORD
  5
61
330
1
100
AcDbSymbolTableRecord
100
AcDbBlockTableRecord
  2
*D10
 70
    0
280
    1
281
    0
  0
BLOCK_RECORD
  5
64
330
1
100
AcDbSymbolTableRecord
100
AcDbBlockTableRecord
  2
*D2
 70
    0
280
    1
281
    0
  0
BLOCK_RECORD
  5
67
330
1
100
AcDbSymbolTableRecord
100
AcDbBlockTableRecord
  2
*D14
 70
    0
280
    1
281
    0
  0
BLOCK_RECORD
  5
6A
330
1
100
AcDbSymbolTableRecord
100
AcDbBlockTableRecord
  2
*D12
 70
    0
280
    1
281
    0
  0
BLOCK_RECORD
  5
6D
330
1
100
AcDbSymbolTableRecord
100
AcDbBlockTableRecord
  2
*D16
 70
    0
280
    1
281
    0
  0
BLOCK_RECORD
  5
70
330
1
100
AcDbSymbolTableRecord
100
AcDbBlockTableRecord
  2
*D5
 70
    0
280
    1
281
    0
  0
BLOCK_RECORD
  5
73
330
1
100
AcDbSymbolTableRecord
100
AcDbBlockTableRecord
  2
*D8
 70
    0
280
    1
281
    0
  0
BLOCK_RECORD
  5
76
330
1
100
AcDbSymbolTableRecord
100
AcDbBlockTableRecord
  2
*D11
 70
    0
280
    1
281
    0
  0
BLOCK_RECORD
  5
79
330
1
100
AcDbSymbolTableRecord
100
AcDbBlockTableRecord
  2
*D4
 70
    0
280
    1
281
    0
  0
BLOCK_RECORD
  5
7C
330
1
100
AcDbSymbolTableRecord
100
AcDbBlockTableRecord
  2
*D13
 70
    0
280
    1
281
    0
  0
ENDTAB
  0
ENDSEC
  0
SECTION
  2
BLOCKS
  0
BLOCK
  5
20
330
1F
100
AcDbEntity
  8
0
100
AcDbBlockBegin
  2
*Model_Space
 70
    0
 10
0
 20
0
 30
0
  3
*Model_Space
  1

  0
ENDBLK
  5
21
330
1F
100
AcDbEntity
  8
0
100
AcDbBlockEnd
  0
BLOCK
  5
1C
330
1B
100
AcDbEntity
  8
0
100
AcDbBlockBegin
  2
*Paper_Space
 70
    0
 10
0
 20
0
 30
0
  3
*Paper_Space
  1

  0
ENDBLK
  5
1D
330
1F
100
AcDbEntity
  8
0
100
AcDbBlockEnd
  0
BLOCK
  5
50
330
4F
100
AcDbEntity
  8
0
100
AcDbBlockBegin
  2
*D6
 70
    1
 10
0
 20
0
  3
*D6
  1

  0
LINE
  5
7F
100
AcDbEntity
  8
olcu
  6
ByBlock
 62
    0
370
   -2
100
AcDbLine
 10
-89.99999999999999
 20
-69.73579943746353
 11
90.00000000000001
 21
-69.73579943746353
  0
MTEXT
  5
80
100
AcDbEntity
  8
olcu
  6
CONTINUOUS
 62
    0
370
   -2
100
AcDbMText
 10
1.442133393226522e-014
 20
-66.29829943746353
 30
0
 40
3.75
 41
6.666666666666668
 71
    5
 72
    1
  1
180
  7
standard
210
0
220
0
230
1
 50
0
 73
    2
 44
1
  0
SOLID
  5
81
100
AcDbEntity
  8
olcu
  6
ByBlock
 62
    0
370
   -2
100
AcDbTrace
 10
-89.99999999999999
 20
-69.73579943746353
 30
0
 11
-83.74999999999999
 21
-68.69508779303142
 31
0
 12
-83.74999999999999
 22
-70.77651108189563
 32
0
 13
-83.74999999999999
 23
-70.77651108189563
 33
0
  0
SOLID
  5
82
100
AcDbEntity
  8
olcu
  6
ByBlock
 62
    0
370
   -2
100
AcDbTrace
 10
90.00000000000001
 20
-69.73579943746353
 30
0
 11
83.75000000000001
 21
-70.77651108189563
 31
0
 12
83.75000000000001
 22
-68.69508779303142
 32
0
 13
83.75000000000001
 23
-68.69508779303142
 33
0
  0
LINE
  5
83
100
AcDbEntity
  8
olcu
  6
ByBlock
 62
    0
370
   -2
100
AcDbLine
 10
-90
 20
-1.562499999999989
 11
-89.99999999999999
 21
-72.86079943746353
  0
LINE
  5
84
100
AcDbEntity
  8
olcu
  6
ByBlock
 62
    0
370
   -2
100
AcDbLine
 10
90.00000000000001
 20
-1.562500000000002
 11
90.00000000000001
 21
-72.86079943746353
  0
ENDBLK
  5
51
330
4F
100
AcDbEntity
  8
0
100
AcDbBlockEnd
  0
BLOCK
  5
53
330
52
100
AcDbEntity
  8
0
100
AcDbBlockBegin
  2
*D9
 70
    1
 10
0
 20
0
  3
*D9
  1

  0
LINE
  5
85
100
AcDbEntity
  8
olcu
  6
ByBlock
 62
    0
370
   -2
100
AcDbLine
 10
-14.5
 20
8.41652792169122
 11
14.5
 21
8.41652792169122
  0
MTEXT
  5
86
100
AcDbEntity
  8
olcu
  6
CONTINUOUS
 62
    0
370
   -2
100
AcDbMText
 10
2.104792170632211e-016
 20
11.85402792169122
 30
0
 40
3.75
 41
4.583333333333334
 71
    5
 72
    1
  1
29
  7
standard
210
0
220
0
230
1
 50
0
 73
    2
 44
1
  0
SOLID
  5
87
100
AcDbEntity
  8
olcu
  6
ByBlock
 62
    0
370
   -2
100
AcDbTrace
 10
-14.5
 20
8.41652792169122
 30
0
 11
-8.25
 21
9.45723956612332
 31
0
 12
-8.25
 22
7.375816277259117
 32
0
 13
-8.25
 23
7.375816277259117
 33
0
  0
SOLID
  5
88
100
AcDbEntity
  8
olcu
  6
ByBlock
 62
    0
370
   -2
100
AcDbTrace
 10
14.5
 20
8.41652792169122
 30
0
 11
8.25
 21
7.375816277259118
 31
0
 12
8.25
 22
9.45723956612332
 32
0
 13
8.25
 23
9.45723956612332
 33
0
  0
LINE
  5
89
100
AcDbEntity
  8
olcu
  6
ByBlock
 62
    0
370
   -2
100
AcDbLine
 10
-14.5
 20
-4.4375
 11
-14.5
 21
11.54152792169122
  0
LINE
  5
8A
100
AcDbEntity
  8
olcu
  6
ByBlock
 62
    0
370
   -2
100
AcDbLine
 10
14.5
 20
-4.4375
 11
14.5
 21
11.54152792169122
  0
ENDBLK
  5
54
330
52
100
AcDbEntity
  8
0
100
AcDbBlockEnd
  0
BLOCK
  5
56
330
55
100
AcDbEntity
  8
0
100
AcDbBlockBegin
  2
*D1
 70
    1
 10
0
 20
0
  3
*D1
  1

  0
LINE
  5
8B
100
AcDbEntity
  8
olcu
  6
ByBlock
 62
    0
370
   -2
100
AcDbLine
 10
-38
 20
64.31525775000183
 11
38
 21
64.31525775000183
  0
MTEXT
  5
8C
100
AcDbEntity
  8
olcu
  6
CONTINUOUS
 62
    0
370
   -2
100
AcDbMText
 10
2.104792170632211e-016
 20
67.75275775000183
 30
0
 40
3.75
 41
4.583333333333567
 71
    5
 72
    1
  1
76
  7
standard
210
0
220
0
230
1
 50
0
 73
    2
 44
1
  0
SOLID
  5
8D
100
AcDbEntity
  8
olcu
  6
ByBlock
 62
    0
370
   -2
100
AcDbTrace
 10
-38
 20
64.31525775000183
 30
0
 11
-31.75
 21
65.35596939443394
 31
0
 12
-31.75
 22
63.27454610556973
 32
0
 13
-31.75
 23
63.27454610556973
 33
0
  0
SOLID
  5
8E
100
AcDbEntity
  8
olcu
  6
ByBlock
 62
    0
370
   -2
100
AcDbTrace
 10
38
 20
64.31525775000183
 30
0
 11
31.75
 21
63.27454610556973
 31
0
 12
31.75
 22
65.35596939443394
 32
0
 13
31.75
 23
65.35596939443394
 33
0
  0
LINE
  5
8F
100
AcDbEntity
  8
olcu
  6
ByBlock
 62
    0
370
   -2
100
AcDbLine
 10
-38
 20
32.61361606727492
 11
-38
 21
67.44025775000183
  0
LINE
  5
90
100
AcDbEntity
  8
olcu
  6
ByBlock
 62
    0
370
   -2
100
AcDbLine
 10
38
 20
32.61361606727493
 11
38
 21
67.44025775000183
  0
ENDBLK
  5
57
330
55
100
AcDbEntity
  8
0
100
AcDbBlockEnd
  0
BLOCK
  5
59
330
58
100
AcDbEntity
  8
0
100
AcDbBlockBegin
  2
*D7
 70
    1
 10
0
 20
0
  3
*D7
  1

  0
ARC
  5
91
100
AcDbEntity
  8
olcu
  6
ByBlock
 62
    0
370
   -2
100
AcDbCircle
 10
5.842548667089886e-015
 20
-25
 40
44.95783007989745
100
AcDbArc
 50
25
 51
155
  0
SOLID
  5
92
100
AcDbEntity
  8
olcu
  6
ByBlock
 62
    0
370
   -2
100
AcDbTrace
 10
40.7456314896816
 20
-6.000000000000007
 30
0
 11
36.80685097970623
 21
-1.036977854059615
 31
0
 12
38.62761107154189
 22
-0.0284365334361727
 32
0
 13
38.62761107154189
 23
-0.0284365334361727
 33
0
  0
SOLID
  5
93
100
AcDbEntity
  8
olcu
  6
ByBlock
 62
    0
370
   -2
100
AcDbTrace
 10
-40.74563148968159
 20
-6.000000000000004
 30
0
 11
-38.62761107154187
 21
-0.02843653343617225
 31
0
 12
-36.80685097970621
 22
-1.036977854059616
 32
0
 13
-36.80685097970621
 23
-1.036977854059616
 33
0
  0
MTEXT
  5
94
100
AcDbEntity
  8
olcu
  6
CONTINUOUS
 62
    0
370
   -2
100
AcDbMText
 10
8.69100325697772e-015
 20
21.52033007989745
 30
0
 40
3.75
 41
13.5416666666669
 71
    8
 72
    1
  1
130,0%%D
  7
standard
210
0
220
0
230
1
 50
360
 73
    2
 44
1
  0
ENDBLK
  5
5A
330
58
100
AcDbEntity
  8
0
100
AcDbBlockEnd
  0
BLOCK
  5
5C
330
5B
100
AcDbEntity
  8
0
100
AcDbBlockBegin
  2
*D15
 70
    1
 10
0
 20
0
  3
*D15
  1

  0
LINE
  5
95
100
AcDbEntity
  8
olcu
  6
ByBlock
 62
    0
370
   -2
100
AcDbLine
 10
82.17077121383667
 20
110.7419614266257
 11
102.5483199668566
 21
93.64316778366965
  0
LINE
  5
96
100
AcDbEntity
  8
olcu
  6
ByBlock
 62
    0
370
   -2
100
AcDbLine
 10
89.90217742106991
 20
119.9558925499011
 11
110.2797261740898
 21
102.857098906945
  0
LINE
  5
97
100
AcDbEntity
  8
olcu
  6
ByBlock
 62
    0
370
   -2
100
AcDbLine
 10
92.11958596102804
 20
86.07632352495285
 11
115.9206824104247
 21
114.4413657262027
  0
MTEXT
  5
98
100
AcDbEntity
  8
olcu
  6
CONTINUOUS
 62
    0
370
   -2
100
AcDbMText
 10
101.3868564125049
 20
102.4684270338753
 30
0
 40
3.75
 41
3.75
 71
    5
 72
    1
  1
12
  7
standard
210
0
220
0
230
1
 50
50.00000000000002
 73
    2
 44
1
  0
SOLID
  5
99
100
AcDbEntity
  8
olcu
  6
ByBlock
 62
    0
370
   -2
100
AcDbTrace
 10
100.1544310821098
 20
95.65187906394009
 30
0
 11
96.93423989367533
 21
90.19514474414902
 31
0
 12
95.33977714946248
 22
91.53305784474394
 32
0
 13
95.33977714946248
 23
91.53305784474394
 33
0
  0
SOLID
  5
9A
100
AcDbEntity
  8
olcu
  6
ByBlock
 62
    0
370
   -2
100
AcDbTrace
 10
107.885837289343
 20
104.8658101872155
 30
0
 11
111.1060284777774
 21
110.3225445070065
 31
0
 12
112.7004912219903
 22
108.9846314064116
 32
0
 13
112.7004912219903
 23
108.9846314064116
 33
0
  0
ENDBLK
  5
5D
330
5B
100
AcDbEntity
  8
0
100
AcDbBlockEnd
  0
BLOCK
  5
5F
330
5E
100
AcDbEntity
  8
0
100
AcDbBlockBegin
  2
*D3
 70
    1
 10
0
 20
0
  3
*D3
  1

  0
LINE
  5
9B
100
AcDbEntity
  8
olcu
  6
ByBlock
 62
    0
370
   -2
100
AcDbLine
 10
-125
 20
90
 11
-125
 21
0
  0
MTEXT
  5
9C
100
AcDbEntity
  8
olcu
  6
CONTINUOUS
 62
    0
370
   -2
100
AcDbMText
 10
-128.4375
 20
45
 30
0
 40
3.75
 41
4.583333333333567
 71
    5
 72
    1
  1
90
  7
standard
210
0
220
0
230
1
 50
90
 73
    2
 44
1
  0
SOLID
  5
9D
100
AcDbEntity
  8
olcu
  6
ByBlock
 62
    0
370
   -2
100
AcDbTrace
 10
-125
 20
90
 30
0
 11
-123.9592883555679
 21
83.75
 31
0
 12
-126.0407116444321
 22
83.75
 32
0
 13
-126.0407116444321
 23
83.75
 33
0
  0
SOLID
  5
9E
100
AcDbEntity
  8
olcu
  6
ByBlock
 62
    0
370
   -2
100
AcDbTrace
 10
-125
 20
0
 30
0
 11
-126.0407116444321
 21
6.25
 31
0
 12
-123.9592883555679
 22
6.25
 32
0
 13
-123.9592883555679
 23
6.25
 33
0
  0
LINE
  5
9F
100
AcDbEntity
  8
olcu
  6
ByBlock
 62
    0
370
   -2
100
AcDbLine
 10
-1.562499999999992
 20
90
 11
-128.125
 21
90
  0
LINE
  5
A0
100
AcDbEntity
  8
olcu
  6
ByBlock
 62
    0
370
   -2
100
AcDbLine
 10
-126.5625
 20
1.913447427847464e-016
 11
-128.125
 21
3.826894855694929e-016
  0
ENDBLK
  5
60
330
5E
100
AcDbEntity
  8
0
100
AcDbBlockEnd
  0
BLOCK
  5
62
330
61
100
AcDbEntity
  8
0
100
AcDbBlockBegin
  2
*D10
 70
    1
 10
0
 20
0
  3
*D10
  1

  0
SOLID
  5
A1
100
AcDbEntity
  8
olcu
  6
ByBlock
 62
    0
370
   -2
100
AcDbTrace
 10
-14.49999999999999
 20
-18.23853895675252
 30
0
 11
-10.02721914957813
 21
-22.72627916658598
 31
0
 12
-11.72278085042186
 22
-23.93350467412721
 32
0
 13
-11.72278085042186
 23
-23.93350467412721
 33
0
  0
LINE
  5
A2
100
AcDbEntity
  8
olcu
  6
ByBlock
 62
    0
370
   -2
100
AcDbLine
 10
0
 20
-38.60395081116882
 11
-14.49999999999999
 21
-18.23853895675252
  0
MTEXT
  5
A3
100
AcDbEntity
  8
olcu
  6
CONTINUOUS
 62
    0
370
   -2
100
AcDbMText
 10
-4.449755870017754
 20
-26.42749488396067
 30
0
 40
3.75
 41
4.583333333333567
 71
    5
 72
    1
  1
25
  7
standard
210
0
220
0
230
1
 50
305.4505426391754
 73
    2
 44
1
  0
ENDBLK
  5
63
330
61
100
AcDbEntity
  8
0
100
AcDbBlockEnd
  0
BLOCK
  5
65
330
64
100
AcDbEntity
  8
0
100
AcDbBlockBegin
  2
*D2
 70
    1
 10
0
 20
0
  3
*D2
  1

  0
LINE
  5
A4
100
AcDbEntity
  8
olcu
  6
ByBlock
 62
    0
370
   -2
100
AcDbLine
 10
-49.99999999999999
 20
133.8015915000038
 11
50.00000000000001
 21
133.8015915000038
  0
MTEXT
  5
A5
100
AcDbEntity
  8
olcu
  6
CONTINUOUS
 62
    0
370
   -2
100
AcDbMText
 10
7.315906574664223e-015
 20
137.2390915000038
 30
0
 40
3.75
 41
6.666666666666668
 71
    5
 72
    1
  1
100
  7
standard
210
0
220
0
230
1
 50
0
 73
    2
 44
1
  0
SOLID
  5
A6
100
AcDbEntity
  8
olcu
  6
ByBlock
 62
    0
370
   -2
100
AcDbTrace
 10
-49.99999999999999
 20
133.8015915000038
 30
0
 11
-43.74999999999999
 21
134.8423031444359
 31
0
 12
-43.74999999999999
 22
132.7608798555717
 32
0
 13
-43.74999999999999
 23
132.7608798555717
 33
0
  0
SOLID
  5
A7
100
AcDbEntity
  8
olcu
  6
ByBlock
 62
    0
370
   -2
100
AcDbTrace
 10
50.00000000000001
 20
133.8015915000038
 30
0
 11
43.75000000000001
 21
132.7608798555717
 31
0
 12
43.75000000000001
 22
134.8423031444359
 32
0
 13
43.75000000000001
 23
134.8423031444359
 33
0
  0
LINE
  5
A8
100
AcDbEntity
  8
olcu
  6
ByBlock
 62
    0
370
   -2
100
AcDbLine
 10
-49.99999999999999
 20
126.5625
 11
-49.99999999999999
 21
136.9265915000038
  0
LINE
  5
A9
100
AcDbEntity
  8
olcu
  6
ByBlock
 62
    0
370
   -2
100
AcDbLine
 10
50.00000000000001
 20
126.5625
 11
50.00000000000001
 21
136.9265915000038
  0
ENDBLK
  5
66
330
64
100
AcDbEntity
  8
0
100
AcDbBlockEnd
  0
BLOCK
  5
68
330
67
100
AcDbEntity
  8
0
100
AcDbBlockBegin
  2
*D14
 70
    1
 10
0
 20
0
  3
*D14
  1

  0
LINE
  5
AA
100
AcDbEntity
  8
olcu
  6
ByBlock
 62
    0
370
   -2
100
AcDbLine
 10
65.23463945985407
 20
62.24208168419592
 11
88.07432022495574
 21
43.20737053044273
  0
LINE
  5
AB
100
AcDbEntity
  8
olcu
  6
ByBlock
 62
    0
370
   -2
100
AcDbLine
 10
103.6943362162863
 20
108.3897321078971
 11
126.534016981388
 21
89.35502095414395
  0
LINE
  5
AC
100
AcDbEntity
  8
olcu
  6
ByBlock
 62
    0
370
   -2
100
AcDbLine
 10
85.6737137020594
 20
45.20804874600553
 11
124.1334104584916
 21
91.35569916970675
  0
MTEXT
  5
AD
100
AcDbEntity
  8
olcu
  6
CONTINUOUS
 62
    0
370
   -2
100
AcDbMText
 10
102.2628949050896
 20
70.48261999497521
 30
0
 40
3.75
 41
4.583333333333567
 71
    5
 72
    1
  1
60
  7
standard
210
0
220
0
230
1
 50
50.19199529230352
 73
    2
 44
1
  0
SOLID
  5
AE
100
AcDbEntity
  8
olcu
  6
ByBlock
 62
    0
370
   -2
100
AcDbTrace
 10
85.6737137020594
 20
45.20804874600553
 30
0
 11
88.87560160132008
 21
50.67554310882152
 31
0
 12
90.47453866504992
 22
49.3429804747749
 32
0
 13
90.47453866504992
 23
49.3429804747749
 33
0
  0
SOLID
  5
AF
100
AcDbEntity
  8
olcu
  6
ByBlock
 62
    0
370
   -2
100
AcDbTrace
 10
124.1334104584916
 20
91.35569916970675
 30
0
 11
120.9315225592309
 21
85.88820480689077
 31
0
 12
119.3325854955011
 22
87.22076744093738
 32
0
 13
119.3325854955011
 23
87.22076744093738
 33
0
  0
ENDBLK
  5
69
330
67
100
AcDbEntity
  8
0
100
AcDbBlockEnd
  0
BLOCK
  5
6B
330
6A
100
AcDbEntity
  8
0
100
AcDbBlockBegin
  2
*D12
 70
    1
 10
0
 20
0
  3
*D12
  1

  0
SOLID
  5
B0
100
AcDbEntity
  8
olcu
  6
ByBlock
 62
    0
370
   -2
100
AcDbTrace
 10
-40.72913096574999
 20
54.8947610016271
 30
0
 11
-44.62712035024732
 21
49.89963743106323
 31
0
 12
-46.03542894712072
 22
51.43227887752053
 32
0
 13
-46.03542894712072
 23
51.43227887752053
 33
0
  0
LINE
  5
B1
100
AcDbEntity
  8
olcu
  6
ByBlock
 62
    0
370
   -2
100
AcDbLine
 10
-107
 20
-6
 11
-40.72913096574999
 21
54.8947610016271
  0
MTEXT
  5
B2
100
AcDbEntity
  8
olcu
  6
CONTINUOUS
 62
    0
370
   -2
100
AcDbMText
 10
-76.19040704890936
 20
26.97855952642726
 30
0
 40
3.75
 41
4.583333333333567
 71
    5
 72
    1
  1
90
  7
standard
210
0
220
0
230
1
 50
42.57918091271142
 73
    2
 44
1
  0
ENDBLK
  5
6C
330
6A
100
AcDbEntity
  8
0
100
AcDbBlockEnd
  0
BLOCK
  5
6E
330
6D
100
AcDbEntity
  8
0
100
AcDbBlockBegin
  2
*D16
 70
    1
 10
0
 20
0
  3
*D16
  1

  0
LINE
  5
B3
100
AcDbEntity
  8
olcu
  6
ByBlock
 62
    0
370
   -2
100
AcDbLine
 10
89.70958861883173
 20
122.1571926324097
 11
103.5132542750797
 21
138.6077607692126
  0
LINE
  5
B4
100
AcDbEntity
  8
olcu
  6
ByBlock
 62
    0
370
   -2
100
AcDbLine
 10
112.6909219124011
 20
102.8735643418135
 11
126.4945875686491
 21
119.3241324786164
  0
LINE
  5
B5
100
AcDbEntity
  8
olcu
  6
ByBlock
 62
    0
370
   -2
100
AcDbLine
 10
101.5045429948093
 20
136.2138718844658
 11
124.4858762883786
 21
116.9302435938696
  0
MTEXT
  5
B6
100
AcDbEntity
  8
olcu
  6
CONTINUOUS
 62
    0
370
   -2
100
AcDbMText
 10
115.2047920498915
 20
129.2053355123892
 30
0
 40
3.75
 41
4.583333333333567
 71
    5
 72
    1
  1
30
  7
standard
210
0
220
0
230
1
 50
320
 73
    2
 44
1
  0
SOLID
  5
B7
100
AcDbEntity
  8
olcu
  6
ByBlock
 62
    0
370
   -2
100
AcDbTrace
 10
101.5045429948093
 20
136.2138718844658
 30
0
 11
106.9612773146004
 21
132.9936806960313
 31
0
 12
105.6233642140055
 22
131.3992179518185
 32
0
 13
105.6233642140055
 23
131.3992179518185
 33
0
  0
SOLID
  5
B8
100
AcDbEntity
  8
olcu
  6
ByBlock
 62
    0
370
   -2
100
AcDbTrace
 10
124.4858762883786
 20
116.9302435938696
 30
0
 11
119.0291419685876
 21
120.150434782304
 31
0
 12
120.3670550691825
 22
121.7448975265169
 32
0
 13
120.3670550691825
 23
121.7448975265169
 33
0
  0
ENDBLK
  5
6F
330
6D
100
AcDbEntity
  8
0
100
AcDbBlockEnd
  0
BLOCK
  5
71
330
70
100
AcDbEntity
  8
0
100
AcDbBlockBegin
  2
*D5
 70
    1
 10
0
 20
0
  3
*D5
  1

  0
LINE
  5
B9
100
AcDbEntity
  8
olcu
  6
ByBlock
 62
    0
370
   -2
100
AcDbLine
 10
-107
 20
-56
 11
-3.428897790702656e-015
 21
-56
  0
MTEXT
  5
BA
100
AcDbEntity
  8
olcu
  6
CONTINUOUS
 62
    0
370
   -2
100
AcDbMText
 10
-53.5
 20
-52.5625
 30
0
 40
3.75
 41
6.666666666666667
 71
    5
 72
    1
  1
107
  7
standard
210
0
220
0
230
1
 50
0
 73
    2
 44
1
  0
SOLID
  5
BB
100
AcDbEntity
  8
olcu
  6
ByBlock
 62
    0
370
   -2
100
AcDbTrace
 10
-107
 20
-56
 30
0
 11
-100.75
 21
-54.9592883555679
 31
0
 12
-100.75
 22
-57.0407116444321
 32
0
 13
-100.75
 23
-57.0407116444321
 33
0
  0
SOLID
  5
BC
100
AcDbEntity
  8
olcu
  6
ByBlock
 62
    0
370
   -2
100
AcDbTrace
 10
-3.428897790702656e-015
 20
-56
 30
0
 11
-6.250000000000004
 21
-57.0407116444321
 31
0
 12
-6.250000000000004
 22
-54.9592883555679
 32
0
 13
-6.250000000000004
 23
-54.9592883555679
 33
0
  0
LINE
  5
BD
100
AcDbEntity
  8
olcu
  6
ByBlock
 62
    0
370
   -2
100
AcDbLine
 10
-107
 20
-32.92778303853506
 11
-107
 21
-59.125
  0
LINE
  5
BE
100
AcDbEntity
  8
olcu
  6
ByBlock
 62
    0
370
   -2
100
AcDbLine
 10
-3.715914904879776e-015
 20
-57.5625
 11
-4.002932019056896e-015
 21
-59.125
  0
ENDBLK
  5
72
330
70
100
AcDbEntity
  8
0
100
AcDbBlockEnd
  0
BLOCK
  5
74
330
73
100
AcDbEntity
  8
0
100
AcDbBlockBegin
  2
*D8
 70
    1
 10
0
 20
0
  3
*D8
  1

  0
SOLID
  5
BF
100
AcDbEntity
  8
olcu
  6
ByBlock
 62
    0
370
   -2
100
AcDbTrace
 10
4.648576005204247
 20
-22.82007540167256
 30
0
 11
8.47536696558409
 21
-27.86995180336911
 31
0
 12
6.632505051329719
 22
-28.83751723909785
 32
0
 13
6.632505051329719
 23
-28.83751723909785
 33
0
  0
LINE
  5
C0
100
AcDbEntity
  8
olcu
  6
ByBlock
 62
    0
370
   -2
100
AcDbLine
 10
-4.917941054394248e-015
 20
-13.96622081037509
 11
12.20251201366116
 21
-37.20758911253095
  0
MTEXT
  5
C1
100
AcDbEntity
  8
olcu
  6
CONTINUOUS
 62
    0
370
   -2
100
AcDbMText
 10
11.46905652519121
 20
-28.41588425531279
 30
0
 40
3.75
 41
3.75
 71
    5
 72
    1
  1
10
  7
standard
210
0
220
0
230
1
 50
297.7010065898772
 73
    2
 44
1
  0
ENDBLK
  5
75
330
73
100
AcDbEntity
  8
0
100
AcDbBlockEnd
  0
BLOCK
  5
77
330
76
100
AcDbEntity
  8
0
100
AcDbBlockBegin
  2
*D11
 70
    1
 10
0
 20
0
  3
*D11
  1

  0
LINE
  5
C2
100
AcDbEntity
  8
olcu
  6
ByBlock
 62
    0
370
   -2
100
AcDbLine
 10
77.87907893438326
 20
-13.60395081116883
 11
77.87907893438326
 21
19.39111606727492
  0
MTEXT
  5
C3
100
AcDbEntity
  8
olcu
  6
CONTINUOUS
 62
    0
370
   -2
100
AcDbMText
 10
74.44157893438326
 20
2.893582628053049
 30
0
 40
3.75
 41
4.583333333333798
 71
    5
 72
    1
  1
33
  7
standard
210
0
220
0
230
1
 50
90
 73
    2
 44
1
  0
SOLID
  5
C4
100
AcDbEntity
  8
olcu
  6
ByBlock
 62
    0
370
   -2
100
AcDbTrace
 10
77.87907893438326
 20
-13.60395081116883
 30
0
 11
76.83836728995117
 21
-7.353950811168826
 31
0
 12
78.91979057881537
 22
-7.353950811168826
 32
0
 13
78.91979057881537
 23
-7.353950811168826
 33
0
  0
SOLID
  5
C5
100
AcDbEntity
  8
olcu
  6
ByBlock
 62
    0
370
   -2
100
AcDbTrace
 10
77.87907893438326
 20
19.39111606727492
 30
0
 11
78.91979057881537
 21
13.14111606727492
 31
0
 12
76.83836728995115
 22
13.14111606727492
 32
0
 13
76.83836728995115
 23
13.14111606727492
 33
0
  0
LINE
  5
C6
100
AcDbEntity
  8
olcu
  6
ByBlock
 62
    0
370
   -2
100
AcDbLine
 10
14.0625
 20
-13.60395081116882
 11
81.00407893438326
 21
-13.60395081116883
  0
LINE
  5
C7
100
AcDbEntity
  8
olcu
  6
ByBlock
 62
    0
370
   -2
100
AcDbLine
 10
49.5625
 20
19.39111606727492
 11
81.00407893438326
 21
19.39111606727492
  0
ENDBLK
  5
78
330
76
100
AcDbEntity
  8
0
100
AcDbBlockEnd
  0
BLOCK
  5
7A
330
79
100
AcDbEntity
  8
0
100
AcDbBlockBegin
  2
*D4
 70
    1
 10
0
 20
0
  3
*D4
  1

  0
LINE
  5
C8
100
AcDbEntity
  8
olcu
  6
ByBlock
 62
    0
370
   -2
100
AcDbLine
 10
-125
 20
12.5
 11
-125
 21
-18.5
  0
MTEXT
  5
C9
100
AcDbEntity
  8
olcu
  6
CONTINUOUS
 62
    0
370
   -2
100
AcDbMText
 10
-128.4375
 20
-3
 30
0
 40
3.75
 41
1.666666666666899
 71
    5
 72
    1
  1
6
  7
standard
210
0
220
0
230
1
 50
90
 73
    2
 44
1
  0
SOLID
  5
CA
100
AcDbEntity
  8
olcu
  6
ByBlock
 62
    0
370
   -2
100
AcDbTrace
 10
-125
 20
0
 30
0
 11
-126.0407116444321
 21
6.25
 31
0
 12
-123.9592883555679
 22
6.25
 32
0
 13
-123.9592883555679
 23
6.25
 33
0
  0
SOLID
  5
CB
100
AcDbEntity
  8
olcu
  6
ByBlock
 62
    0
370
   -2
100
AcDbTrace
 10
-125
 20
-6
 30
0
 11
-123.9592883555679
 21
-12.25
 31
0
 12
-126.0407116444321
 22
-12.25
 32
0
 13
-126.0407116444321
 23
-12.25
 33
0
  0
LINE
  5
CC
100
AcDbEntity
  8
olcu
  6
ByBlock
 62
    0
370
   -2
100
AcDbLine
 10
-126.5625
 20
1.913447427847464e-016
 11
-128.125
 21
3.826894855694929e-016
  0
LINE
  5
CD
100
AcDbEntity
  8
olcu
  6
ByBlock
 62
    0
370
   -2
100
AcDbLine
 10
-126.5625
 20
-6
 11
-128.125
 21
-6
  0
ENDBLK
  5
7B
330
79
100
AcDbEntity
  8
0
100
AcDbBlockEnd
  0
BLOCK
  5
7D
330
7C
100
AcDbEntity
  8
0
100
AcDbBlockBegin
  2
*D13
 70
    1
 10
0
 20
0
  3
*D13
  1

  0
LINE
  5
CE
100
AcDbEntity
  8
olcu
  6
ByBlock
 62
    0
370
   -2
100
AcDbLine
 10
23.45914529963402
 20
9.653891381418862
 11
52.54085470036598
 21
29.12834075313099
  0
MTEXT
  5
CF
100
AcDbEntity
  8
olcu
  6
CONTINUOUS
 62
    0
370
   -2
100
AcDbMText
 10
36.08733086527828
 20
22.24735538341824
 30
0
 40
3.75
 41
3.75
 71
    5
 72
    1
  1
10
  7
standard
210
0
220
0
230
1
 50
33.80808287063731
 73
    2
 44
1
  0
SOLID
  5
D0
100
AcDbEntity
  8
olcu
  6
ByBlock
 62
    0
370
   -2
100
AcDbTrace
 10
33.84547008560972
 20
16.60905187131605
 30
0
 11
29.23137301348028
 21
12.26673809455796
 31
0
 12
28.07324237176346
 22
13.99620515817695
 32
0
 13
28.07324237176346
 23
13.99620515817695
 33
0
  0
SOLID
  5
D1
100
AcDbEntity
  8
olcu
  6
ByBlock
 62
    0
370
   -2
100
AcDbTrace
 10
42.15452991439028
 20
22.1731802632338
 30
0
 11
46.76862698651973
 21
26.51549403999189
 31
0
 12
47.92675762823654
 22
24.7860269763729
 32
0
 13
47.92675762823654
 23
24.7860269763729
 33
0
  0
ENDBLK
  5
7E
330
7C
100
AcDbEntity
  8
0
100
AcDbBlockEnd
  0
ENDSEC
  0
SECTION
  2
ENTITIES
  0
LINE
  5
D2
100
AcDbEntity
  8
ref
  6
ByLayer
 62
  256
370
   -1
100
AcDbLine
 10
-125
 20
0
 11
125
 21
0
  0
ARC
  5
D3
100
AcDbEntity
  8
0
  6
ByLayer
 62
  256
370
   -1
100
AcDbCircle
 10
0
 20
0
 40
90
100
AcDbArc
 50
10.41877957762984
 51
169.5812204223703
  0
LINE
  5
D4
100
AcDbEntity
  8
ref
  6
ByLayer
 62
  256
370
   -1
100
AcDbLine
 10
-125
 20
-6
 11
125
 21
-6
  0
LINE
  5
D5
100
AcDbEntity
  8
ref
  6
ByLayer
 62
  256
370
   -1
100
AcDbLine
 10
-107
 20
-31.36528303853506
 11
-107
 21
19.36528303853515
  0
ARC
  5
D6
100
AcDbEntity
  8
0
  6
ByLayer
 62
  256
370
   -1
100
AcDbCircle
 10
-107
 20
-6
 40
90
100
AcDbArc
 50
353.1264089738645
 51
56.6698820566049
  0
ARC
  5
D7
100
AcDbEntity
  8
0
  6
ByLayer
 62
  256
370
   -1
100
AcDbCircle
 10
107
 20
-6
 40
90
100
AcDbArc
 50
123.3301179433951
 51
186.8735910261355
  0
LINE
  5
D8
100
AcDbEntity
  8
0
  6
ByLayer
 62
  256
370
   -1
100
AcDbLine
 10
-4.226182983934407
 20
-23.02929850982704
 11
-88.51610250367241
 21
16.27573646749529
  0
LINE
  5
D9
100
AcDbEntity
  8
0
  6
ByLayer
 62
  256
370
   -1
100
AcDbLine
 10
4.226182830625396
 20
-23.02929858131621
 11
88.51610250367243
 21
16.27573646749531
  0
ARC
  5
DA
100
AcDbEntity
  8
0
  6
ByLayer
 62
  256
370
   -1
100
AcDbCircle
 10
-4.917941054394248e-015
 20
-13.96622081037509
 40
10
100
AcDbArc
 50
244.9999976828541
 51
295.0000013479433
  0
ARC
  5
DB
100
AcDbEntity
  8
0
  6
ByLayer
 62
  256
370
   -1
100
AcDbCircle
 10
-4.917941054394248e-015
 20
-13.96622081037509
 40
8.5
100
AcDbArc
 50
244.9999976828541
 51
295.0000013479433
  0
LINE
  5
DC
100
AcDbEntity
  8
ref
  6
ByLayer
 62
  256
370
   -1
100
AcDbLine
 10
14.5
 20
-18.23853895675252
 11
14.5
 21
-6
  0
LINE
  5
DD
100
AcDbEntity
  8
ref
  6
ByLayer
 62
  256
370
   -1
100
AcDbLine
 10
-14.5
 20
-18.23853895675252
 11
-14.5
 21
-6
  0
LINE
  5
DE
100
AcDbEntity
  8
ref
  6
ByLayer
 62
  256
370
   -1
100
AcDbLine
 10
-49.99999999999999
 20
74.83314773547883
 11
-49.99999999999999
 21
125
  0
LINE
  5
DF
100
AcDbEntity
  8
ref
  6
ByLayer
 62
  256
370
   -1
100
AcDbLine
 10
50
 20
74.83314773547882
 11
50.00000000000001
 21
125
  0
ARC
  5
E0
100
AcDbEntity
  8
ref
  6
ByLayer
 62
  256
370
   -1
100
AcDbCircle
 10
0
 20
0
 40
150
100
AcDbArc
 50
10.41877957762984
 51
169.5812204223703
  0
LINE
  5
E1
100
AcDbEntity
  8
ref
  6
ByLayer
 62
  256
370
   -1
100
AcDbLine
 10
-49.99999999999999
 20
74.83314773547883
 11
-88.7052329786965
 21
120.9602481900363
  0
LINE
  5
E2
100
AcDbEntity
  8
ref
  6
ByLayer
 62
  256
370
   -1
100
AcDbLine
 10
50
 20
74.83314773547882
 11
88.70523297869651
 21
120.9602481900363
  0
LINE
  5
E3
100
AcDbEntity
  8
ref
  6
ByLayer
 62
  256
370
   -1
100
AcDbLine
 10
33.7262248131969
 20
83.44184657502313
 11
73.45208699483013
 21
130.785285548887
  0
LINE
  5
E4
100
AcDbEntity
  8
ref
  6
ByLayer
 62
  256
370
   -1
100
AcDbLine
 10
63.89211633315161
 20
63.38609840076153
 11
102.5558217602558
 21
109.4637082465172
  0
ARC
  5
E5
100
AcDbEntity
  8
ref
  6
ByLayer
 62
  256
370
   -1
100
AcDbCircle
 10
0
 20
0
 40
138
100
AcDbArc
 50
46.59329434744074
 51
61.62155111681031
  0
ARC
  5
E6
100
AcDbEntity
  8
ref
  6
ByLayer
 62
  256
370
   -1
100
AcDbCircle
 10
74.20432971687848
 20
103.6787446319036
 40
16.50268772566739
100
AcDbArc
 50
342.2365853545483
 51
477.7634199741826
  0
ARC
  5
E7
100
AcDbEntity
  8
0
  6
ByLayer
 62
  256
370
   -1
100
AcDbCircle
 10
101.0090250463938
 20
35.02712873825078
 40
82.89125472831599
100
AcDbArc
 50
110.0059566553099
 51
144.2623231402897
  0
ARC
  5
E8
100
AcDbEntity
  8
0
  6
ByLayer
 62
  256
370
   -1
100
AcDbCircle
 10
75.87571482089467
 20
105.6706238342232
 40
7.931254233501411
100
AcDbArc
 50
346.0052612216681
 51
473.9947387783275
  0
ARC
  5
E9
100
AcDbEntity
  8
0
  6
ByLayer
 62
  256
370
   -1
100
AcDbCircle
 10
1.941099631105487
 20
118.1549884157175
 40
82.89125472831599
100
AcDbArc
 50
318.5118486508903
 51
350.415625324915
  0
ARC
  5
EA
100
AcDbEntity
  8
0
  6
ByLayer
 62
  256
370
   -1
100
AcDbCircle
 10
75.87571482089467
 20
105.6706238342232
 40
19.93125423350141
100
AcDbArc
 50
346.0052612216681
 51
473.9947387783275
  0
ARC
  5
EB
100
AcDbEntity
  8
0
  6
ByLayer
 62
  256
370
   -1
100
AcDbCircle
 10
101.0090250463938
 20
35.02712873825078
 40
94.89125472831599
100
AcDbArc
 50
110.0059566553099
 51
146.5629755497146
  0
ARC
  5
EC
100
AcDbEntity
  8
0
  6
ByLayer
 62
  256
370
   -1
100
AcDbCircle
 10
1.941099631105487
 20
118.1549884157175
 40
94.89125472831599
100
AcDbArc
 50
317.5305279682249
 51
350.415625324915
  0
ARC
  5
ED
100
AcDbEntity
  8
0
  6
ByLayer
 62
  256
370
   -1
100
AcDbCircle
 10
-101.0090250463938
 20
35.02712873825079
 40
82.89125472831599
100
AcDbArc
 50
35.73767685971033
 51
69.99404334469013
  0
ARC
  5
EE
100
AcDbEntity
  8
0
  6
ByLayer
 62
  256
370
   -1
100
AcDbCircle
 10
-75.87571482089466
 20
105.6706238342233
 40
7.931254233501411
100
AcDbArc
 50
66.00526122167253
 51
193.9947387783319
  0
ARC
  5
EF
100
AcDbEntity
  8
0
  6
ByLayer
 62
  256
370
   -1
100
AcDbCircle
 10
-1.941099631105466
 20
118.1549884157175
 40
82.89125472831599
100
AcDbArc
 50
189.5843746750849
 51
221.4881513491097
  0
ARC
  5
F0
100
AcDbEntity
  8
0
  6
ByLayer
 62
  256
370
   -1
100
AcDbCircle
 10
-75.87571482089466
 20
105.6706238342233
 40
19.93125423350141
100
AcDbArc
 50
66.00526122167253
 51
193.9947387783319
  0
ARC
  5
F1
100
AcDbEntity
  8
0
  6
ByLayer
 62
  256
370
   -1
100
AcDbCircle
 10
-101.0090250463938
 20
35.02712873825079
 40
94.89125472831599
100
AcDbArc
 50
33.43702445028545
 51
69.99404334469013
  0
ARC
  5
F2
100
AcDbEntity
  8
0
  6
ByLayer
 62
  256
370
   -1
100
AcDbCircle
 10
-1.941099631105466
 20
118.1549884157175
 40
94.89125472831599
100
AcDbArc
 50
189.5843746750849
 51
222.4694720317751
  0
DIMENSION
  5
F3
100
AcDbEntity
  8
olcu
  6
ByLayer
 62
  256
370
   -1
100
AcDbDimension
  2
*D1
 10
38
 20
64.31525775000183
 30
0
 11
2.104792170632211e-016
 21
67.75275775000183
 31
0
 70
   32
 71
    5
  3
Standard
 53
0
210
0
220
0
230
1
100
AcDbAlignedDimension
 13
-38
 23
31.05111606727492
 33
0
 14
38
 24
31.05111606727493
 34
0
100
AcDbRotatedDimension
  0
DIMENSION
  5
F4
100
AcDbEntity
  8
olcu
  6
ByLayer
 62
  256
370
   -1
100
AcDbDimension
  2
*D2
 10
50.00000000000001
 20
133.8015915000038
 30
0
 11
7.315906574664223e-015
 21
137.2390915000038
 31
0
 70
   32
 71
    5
  3
Standard
 53
0
210
0
220
0
230
1
100
AcDbAlignedDimension
 13
-49.99999999999999
 23
125
 33
0
 14
50.00000000000001
 24
125
 34
0
100
AcDbRotatedDimension
  0
DIMENSION
  5
F5
100
AcDbEntity
  8
olcu
  6
ByLayer
 62
  256
370
   -1
100
AcDbDimension
  2
*D3
 10
-125
 20
0
 30
0
 11
-128.4375
 21
45
 31
0
 70
   32
 71
    5
  3
Standard
 53
0
210
0
220
0
230
1
100
AcDbAlignedDimension
 13
8.007483565108942e-015
 23
90
 33
0
 14
-125
 24
0
 34
0
 50
90
100
AcDbRotatedDimension
  0
DIMENSION
  5
F6
100
AcDbEntity
  8
olcu
  6
ByLayer
 62
  256
370
   -1
100
AcDbDimension
  2
*D4
 10
-125
 20
-6
 30
0
 11
-128.4375
 21
-3
 31
0
 70
   32
 71
    5
  3
Standard
 53
0
210
0
220
0
230
1
100
AcDbAlignedDimension
 13
-125
 23
0
 33
0
 14
-125
 24
-6
 34
0
 50
90
100
AcDbRotatedDimension
  0
LINE
  5
F7
100
AcDbEntity
  8
ref
  6
ByLayer
 62
  256
370
   -1
100
AcDbLine
 10
-3.428897790702656e-015
 20
-56
 11
7.653789711389858e-015
 21
125
  0
DIMENSION
  5
F8
100
AcDbEntity
  8
olcu
  6
ByLayer
 62
  256
370
   -1
100
AcDbDimension
  2
*D5
 10
-3.428897790702656e-015
 20
-56
 30
0
 11
-53.5
 21
-52.5625
 31
0
 70
   32
 71
    5
  3
Standard
 53
0
210
0
220
0
230
1
100
AcDbAlignedDimension
 13
-107
 23
-31.36528303853506
 33
0
 14
-3.428897790702656e-015
 24
-56
 34
0
100
AcDbRotatedDimension
  0
ARC
  5
F9
100
AcDbEntity
  8
ref
  6
ByLayer
 62
  256
370
   -1
100
AcDbCircle
 10
0
 20
0
 40
90
100
AcDbArc
 50
169.5812204223703
 51
180
  0
ARC
  5
FA
100
AcDbEntity
  8
ref
  6
ByLayer
 62
  256
370
   -1
100
AcDbCircle
 10
0
 20
0
 40
90
100
AcDbArc
 50
0
 51
10.41877957762984
  0
DIMENSION
  5
FB
100
AcDbEntity
  8
olcu
  6
ByLayer
 62
  256
370
   -1
100
AcDbDimension
  2
*D6
 10
90.00000000000001
 20
-69.73579943746353
 30
0
 11
1.442133393226522e-014
 21
-66.29829943746353
 31
0
 70
   32
 71
    5
  3
Standard
 53
0
210
0
220
0
230
1
100
AcDbAlignedDimension
 13
-90
 23
1.10214571844014e-014
 33
0
 14
90.00000000000001
 24
-2.040034807748725e-015
 34
0
100
AcDbRotatedDimension
  0
DIMENSION
  5
FC
100
AcDbEntity
  8
olcu
  6
ByLayer
 62
  256
370
   -1
100
AcDbDimension
  2
*D7
 10
-88.51610250367241
 20
16.27573646749529
 30
0
 11
0
 21
0
 31
0
 70
   34
 71
    5
  3
Standard
 53
0
210
0
220
0
230
1
100
AcDb2LineAngularDimension
 13
4.226182830625396
 23
-23.02929858131621
 33
0
 14
88.51610250367243
 24
16.27573646749531
 34
0
 15
-4.226182983934407
 25
-23.02929850982704
 35
0
 16
40.7456314896816
 26
-6
 36
0
  0
DIMENSION
  5
FD
100
AcDbEntity
  8
olcu
  6
ByLayer
 62
  256
370
   -1
100
AcDbDimension
  2
*D8
 10
-4.917941054394248e-015
 20
-13.96622081037509
 30
0
 11
11.46905652519121
 21
-28.41588425531279
 31
0
 70
   36
 71
    5
  3
Standard
 53
0
210
0
220
0
230
1
100
AcDbRadialDimension
 15
4.648576005204247
 25
-22.82007540167256
 35
0
 40
0
  0
DIMENSION
  5
FE
100
AcDbEntity
  8
olcu
  6
ByLayer
 62
  256
370
   -1
100
AcDbDimension
  2
*D9
 10
14.5
 20
8.41652792169122
 30
0
 11
2.104792170632211e-016
 21
11.85402792169122
 31
0
 70
   32
 71
    5
  3
Standard
 53
0
210
0
220
0
230
1
100
AcDbAlignedDimension
 13
-14.5
 23
-6
 33
0
 14
14.5
 24
-6
 34
0
100
AcDbRotatedDimension
  0
CIRCLE
  5
FF
100
AcDbEntity
  8
ref
  6
ByLayer
 62
  256
370
   -1
100
AcDbCircle
 10
-14.5
 20
-18.23853895675252
 40
25
  0
CIRCLE
  5
100
100
AcDbEntity
  8
ref
  6
ByLayer
 62
  256
370
   -1
100
AcDbCircle
 10
14.5
 20
-18.23853895675252
 40
25
  0
ARC
  5
101
100
AcDbEntity
  8
0
  6
ByLayer
 62
  256
370
   -1
100
AcDbCircle
 10
0
 20
-38.60395081116882
 40
25
100
AcDbArc
 50
54.5494573608246
 51
125.4505426391754
  0
LINE
  5
102
100
AcDbEntity
  8
0
  6
ByLayer
 62
  256
370
   -1
100
AcDbLine
 10
-3.592255591323358
 20
-21.66983682927206
 11
-11.37527220273376
 21
-18.04055657982383
  0
ARC
  5
103
100
AcDbEntity
  8
0
  6
ByLayer
 62
  256
370
   -1
100
AcDbCircle
 10
0
 20
-38.60395081116882
 40
23.5
100
AcDbArc
 50
61.04947943614684
 51
118.9505205638532
  0
LINE
  5
104
100
AcDbEntity
  8
0
  6
ByLayer
 62
  256
370
   -1
100
AcDbLine
 10
3.592255438014347
 20
-21.66983690076123
 11
11.37527220273376
 21
-18.04055657982382
  0
DIMENSION
  5
105
100
AcDbEntity
  8
olcu
  6
ByLayer
 62
  256
370
   -1
100
AcDbDimension
  2
*D10
 10
0
 20
-38.60395081116882
 30
0
 11
-4.449755870017754
 21
-26.42749488396067
 31
0
 70
   36
 71
    5
  3
Standard
 53
0
210
0
220
0
230
1
100
AcDbRadialDimension
 15
-14.49999999999999
 25
-18.23853895675252
 35
0
 40
0
  0
LINE
  5
106
100
AcDbEntity
  8
ref
  6
ByLayer
 62
  256
370
   -1
100
AcDbLine
 10
-12.5
 20
-13.60395081116882
 11
12.5
 21
-13.60395081116882
  0
CIRCLE
  5
107
100
AcDbEntity
  8
0
  6
ByLayer
 62
  256
370
   -1
100
AcDbCircle
 10
38
 20
19.39111606727493
 40
5
  0
CIRCLE
  5
108
100
AcDbEntity
  8
0
  6
ByLayer
 62
  256
370
   -1
100
AcDbCircle
 10
-38
 20
19.39111606727492
 40
5
  0
CIRCLE
  5
109
100
AcDbEntity
  8
ref
  6
ByLayer
 62
  256
370
   -1
100
AcDbCircle
 10
38
 20
19.39111606727493
 40
10
  0
CIRCLE
  5
10A
100
AcDbEntity
  8
ref
  6
ByLayer
 62
  256
370
   -1
100
AcDbCircle
 10
-38
 20
19.39111606727493
 40
10
  0
LINE
  5
10B
100
AcDbEntity
  8
ref
  6
ByLayer
 62
  256
370
   -1
100
AcDbLine
 10
-38
 20
9.391116067274927
 11
-38
 21
29.39111606727493
  0
LINE
  5
10C
100
AcDbEntity
  8
ref
  6
ByLayer
 62
  256
370
   -1
100
AcDbLine
 10
38
 20
9.391116067274947
 11
38
 21
29.39111606727494
  0
LINE
  5
10D
100
AcDbEntity
  8
ref
  6
ByLayer
 62
  256
370
   -1
100
AcDbLine
 10
-48.00000000000001
 20
19.39111606727492
 11
47.99999999999996
 21
19.39111606727492
  0
DIMENSION
  5
10E
100
AcDbEntity
  8
olcu
  6
ByLayer
 62
  256
370
   -1
100
AcDbDimension
  2
*D11
 10
77.87907893438326
 20
19.39111606727492
 30
0
 11
74.44157893438326
 21
2.893582628053049
 31
0
 70
   32
 71
    5
  3
Standard
 53
0
210
0
220
0
230
1
100
AcDbAlignedDimension
 13
12.5
 23
-13.60395081116882
 33
0
 14
48
 24
19.39111606727492
 34
0
 50
90
100
AcDbRotatedDimension
  0
DIMENSION
  5
10F
100
AcDbEntity
  8
olcu
  6
ByLayer
 62
  256
370
   -1
100
AcDbDimension
  2
*D12
 10
-107
 20
-6
 30
0
 11
-76.19040704890936
 21
26.97855952642726
 31
0
 70
   36
 71
    5
  3
Standard
 53
0
210
0
220
0
230
1
100
AcDbRadialDimension
 15
-40.72913096574999
 25
54.8947610016271
 35
0
 40
0
  0
DIMENSION
  5
110
100
AcDbEntity
  8
olcu
  6
ByLayer
 62
  256
370
   -1
100
AcDbDimension
  2
*D13
 10
33.84547008560972
 20
16.60905187131605
 30
0
 11
36.08733086527828
 21
22.24735538341824
 31
0
 70
   35
 71
    5
  3
Standard
 53
0
210
0
220
0
230
1
100
AcDbDiametricDimension
 15
42.15452991439028
 25
22.1731802632338
 35
0
 40
0
  0
DIMENSION
  5
111
100
AcDbEntity
  8
olcu
  6
ByLayer
 62
  256
370
   -1
100
AcDbDimension
  2
*D14
 10
124.1334104584916
 20
91.35569916970675
 30
0
 11
102.2628949050896
 21
70.48261999497521
 31
0
 70
   33
  1
60
 71
    5
  3
Standard
 53
0
210
0
220
0
230
1
100
AcDbAlignedDimension
 13
64.0343361984059
 23
63.24242079197732
 33
0
 14
102.4940329548381
 24
109.3900712156785
 34
0
  0
DIMENSION
  5
112
100
AcDbEntity
  8
olcu
  6
ByLayer
 62
  256
370
   -1
100
AcDbDimension
  2
*D15
 10
107.885837289343
 20
104.8658101872155
 30
0
 11
101.3868564125049
 21
102.4684270338753
 31
0
 70
   33
  1
12
 71
    5
  3
Standard
 53
0
210
0
220
0
230
1
100
AcDbAlignedDimension
 13
80.97382677146327
 23
111.7463170667609
 33
0
 14
88.7052329786965
 24
120.9602481900363
 34
0
  0
LINE
  5
113
100
AcDbEntity
  8
ref
  6
ByLayer
 62
  256
370
   -1
100
AcDbLine
 10
88.67229980501978
 20
120.9152729531661
 11
112.8675916390106
 21
98.80101794286989
  0
LINE
  5
114
100
AcDbEntity
  8
ref
  6
ByLayer
 62
  256
370
   -1
100
AcDbLine
 10
72.98133329356934
 20
55.54951944488263
 11
111.6865662722658
 21
101.6766198994401
  0
DIMENSION
  5
115
100
AcDbEntity
  8
olcu
  6
ByLayer
 62
  256
370
   -1
100
AcDbDimension
  2
*D16
 10
124.4858762883786
 20
116.9302435938696
 30
0
 11
115.2047920498915
 21
129.2053355123892
 31
0
 70
   33
 71
    5
  3
Standard
 53
0
210
0
220
0
230
1
100
AcDbAlignedDimension
 13
88.70523297869651
 23
120.9602481900363
 33
0
 14
111.6865662722658
 24
101.6766198994401
 34
0
  0
ENDSEC
  0
SECTION
  2
OBJECTS
  0
DICTIONARY
  5
C
330
0
100
AcDbDictionary
281
    1
  3
ACAD_GROUP
350
D
  0
DICTIONARY
  5
D
330
C
100
AcDbDictionary
281
    1
  0
PLOTSETTINGS
  5
116
100
AcDbPlotSettings
  6
1x1
 40
0
 41
0
 42
0
 43
0
  0
ENDSEC
  0
EOF
