999
dxfrw 0.6.3
  0
SECTION
  2
HEADER
  9
$ACADVER
  1
AC1021
  9
$DWGCODEPAGE
  3
ANSI_1252
  9
$INSBASE
 10
0
 20
0
 30
0
  9
$EXTMIN
 10
-247.625
 20
-55.54112891478653
 30
0
  9
$EXTMAX
 10
220
 20
212.4009359067784
 30
0
  9
$LIMMIN
 10
0
 20
0
  9
$LIMMAX
 10
420
 20
297
  9
$ORTHOMODE
 70
    0
  9
$REGENMODE
 70
    1
  9
$FILLMODE
 70
    1
  9
$QTEXTMODE
 70
    0
  9
$MIRRTEXT
 70
    0
  9
$LTSCALE
 40
1
  9
$ATTMODE
 70
    0
  9
$TEXTSIZE
 40
2.5
  9
$TRACEWID
 40
15.68
  9
$TEXTSTYLE
  7
STANDARD
  9
$CLAYER
  8
0
  9
$CELTYPE
  6
BYLAYER
  9
$CECOLOR
 62
  256
  9
$CELTSCALE
 40
1
  9
$DISPSILH
 70
    0
  9
$DIMSCALE
 40
1
  9
$DIMASZ
 40
7
  9
$DIMEXO
 40
0.625
  9
$DIMDLI
 40
3.75
  9
$DIMRND
 40
0
  9
$DIMDLE
 40
0
  9
$DIMEXE
 40
1.25
  9
$DIMTP
 40
0
  9
$DIMTM
 40
0
  9
$DIMTXT
 40
7
  9
$DIMCEN
 40
2.5
  9
$DIMTSZ
 40
0
  9
$DIMTOL
 70
    0
  9
$DIMLIM
 70
    0
  9
$DIMTIH
 70
    0
  9
$DIMTOH
 70
    0
  9
$DIMSE1
 70
    0
  9
$DIMSE2
 70
    0
  9
$DIMTAD
 70
    1
  9
$DIMZIN
 70
    8
  9
$DIMBLK
  1

  9
$DIMASO
 70
    1
  9
$DIMSHO
 70
    1
  9
$DIMPOST
  1

  9
$DIMAPOST
  1

  9
$DIMALT
 70
    0
  9
$DIMALTD
 70
    3
  9
$DIMALTF
 40
0.03937
  9
$DIMLFAC
 40
1
  9
$DIMTOFL
 70
    1
  9
$DIMTVP
 40
0
  9
$DIMTIX
 70
    0
  9
$DIMSOXD
 70
    0
  9
$DIMSAH
 70
    0
  9
$DIMBLK1
  1

  9
$DIMBLK2
  1

  9
$DIMSTYLE
  2
STANDARD
  9
$DIMCLRD
 70
    0
  9
$DIMCLRE
 70
    0
  9
$DIMCLRT
 70
    0
  9
$DIMTFAC
 40
1
  9
$DIMGAP
 40
0.625
  9
$DIMJUST
 70
    0
  9
$DIMSD1
 70
    0
  9
$DIMSD2
 70
    0
  9
$DIMTOLJ
 70
    0
  9
$DIMTZIN
 70
    8
  9
$DIMALTZ
 70
    0
  9
$DIMALTTZ
 70
    0
  9
$DIMUPT
 70
    0
  9
$DIMDEC
 70
    2
  9
$DIMTDEC
 70
    2
  9
$DIMALTU
 70
    2
  9
$DIMALTTD
 70
    3
  9
$DIMTXSTY
  7
standard
  9
$DIMAUNIT
 70
    0
  9
$DIMADEC
 70
    0
  9
$DIMALTRND
 40
0
  9
$DIMAZIN
 70
    0
  9
$DIMDSEP
 70
   44
  9
$DIMATFIT
 70
    3
  9
$DIMFRAC
 70
    0
  9
$DIMLDRBLK
  1
STANDARD
  9
$DIMLUNIT
 70
    2
  9
$DIMLWD
 70
   -2
  9
$DIMLWE
 70
   -2
  9
$DIMTMOVE
 70
    0
  9
$DIMFXL
 40
1
  9
$DIMFXLON
 70
    0
  9
$DIMJOGANG
 40
0.7854
  9
$DIMTFILL
 70
    0
  9
$DIMTFILLCLR
 70
    0
  9
$DIMARCSYM
 70
    0
  9
$DIMLTYPE
  6

  9
$DIMLTEX1
  6

  9
$DIMLTEX2
  6

  9
$LUNITS
 70
    2
  9
$LUPREC
 70
    4
  9
$SKETCHINC
 40
1
  9
$FILLETRAD
 40
0
  9
$AUNITS
 70
    0
  9
$AUPREC
 70
    2
  9
$MENU
  1
.
  9
$ELEVATION
 40
0
  9
$PELEVATION
 40
0
  9
$THICKNESS
 40
0
  9
$LIMCHECK
 70
    0
  9
$CHAMFERA
 40
0
  9
$CHAMFERB
 40
0
  9
$CHAMFERC
 40
0
  9
$CHAMFERD
 40
0
  9
$SKPOLY
 70
    0
  9
$USRTIMER
 70
    1
  9
$ANGBASE
 50
0
  9
$ANGDIR
 70
    0
  9
$PDMODE
 70
   34
  9
$PDSIZE
 40
0
  9
$PLINEWID
 40
0
  9
$SPLFRAME
 70
    0
  9
$SPLINETYPE
 70
    2
  9
$SPLINESEGS
 70
    8
  9
$HANDSEED
  5
20000
  9
$SURFTAB1
 70
    6
  9
$SURFTAB2
 70
    6
  9
$SURFTYPE
 70
    6
  9
$SURFU
 70
    6
  9
$SURFV
 70
    6
  9
$UCSBASE
  2

  9
$UCSNAME
  2

  9
$UCSORG
 10
0
 20
0
 30
0
  9
$UCSXDIR
 10
1
 20
0
 30
0
  9
$UCSYDIR
 10
0
 20
1
 30
0
  9
$UCSORTHOREF
  2

  9
$UCSORTHOVIEW
 70
    0
  9
$UCSORGTOP
 10
0
 20
0
 30
0
  9
$UCSORGBOTTOM
 10
0
 20
0
 30
0
  9
$UCSORGLEFT
 10
0
 20
0
 30
0
  9
$UCSORGRIGHT
 10
0
 20
0
 30
0
  9
$UCSORGFRONT
 10
0
 20
0
 30
0
  9
$UCSORGBACK
 10
0
 20
0
 30
0
  9
$PUCSBASE
  2

  9
$PUCSNAME
  2

  9
$PUCSORG
 10
0
 20
0
 30
0
  9
$PUCSXDIR
 10
1
 20
0
 30
0
  9
$PUCSYDIR
 10
0
 20
1
 30
0
  9
$PUCSORTHOREF
  2

  9
$PUCSORTHOVIEW
 70
    0
  9
$PUCSORGTOP
 10
0
 20
0
 30
0
  9
$PUCSORGBOTTOM
 10
0
 20
0
 30
0
  9
$PUCSORGLEFT
 10
0
 20
0
 30
0
  9
$PUCSORGRIGHT
 10
0
 20
0
 30
0
  9
$PUCSORGFRONT
 10
0
 20
0
 30
0
  9
$PUCSORGBACK
 10
0
 20
0
 30
0
  9
$USERI1
 70
    0
  9
$USERI2
 70
    0
  9
$USERI3
 70
    0
  9
$USERI4
 70
    0
  9
$USERI5
 70
    0
  9
$USERR1
 40
0
  9
$USERR2
 40
0
  9
$USERR3
 40
0
  9
$USERR4
 40
0
  9
$USERR5
 40
0
  9
$WORLDVIEW
 70
    1
  9
$SHADEDGE
 70
    3
  9
$SHADEDIF
 70
   70
  9
$TILEMODE
 70
    1
  9
$MAXACTVP
 70
   64
  9
$PINSBASE
 10
0
 20
0
 30
0
  9
$PLIMCHECK
 70
    0
  9
$PEXTMIN
 10
0
 20
0
 30
0
  9
$PEXTMAX
 10
0
 20
0
 30
0
  9
$GRIDMODE
 70
    1
  9
$SNAPSTYLE
 70
    0
  9
$GRIDUNIT
 10
0
 20
0
  9
$PLIMMIN
 10
0
 20
0
  9
$PLIMMAX
 10
210
 20
297
  9
$UNITMODE
 70
    0
  9
$VISRETAIN
 70
    1
  9
$PLINEGEN
 70
    0
  9
$PSLTSCALE
 70
    1
  9
$TREEDEPTH
 70
 3020
  9
$CMLSTYLE
  2
Standard
  9
$CMLJUST
 70
    0
  9
$CMLSCALE
 40
20
  9
$PROXYGRAPHICS
 70
    1
  9
$MEASUREMENT
 70
    1
  9
$CELWEIGHT
370
   -1
  9
$ENDCAPS
280
    0
  9
$JOINSTYLE
280
    0
  9
$LWDISPLAY
290
    0
  9
$INSUNITS
 70
    4
  9
$HYPERLINKBASE
  1

  9
$STYLESHEET
  1

  9
$XEDIT
290
    1
  9
$CEPSNTYPE
380
    0
  9
$PSTYLEMODE
290
    1
  9
$EXTNAMES
290
    1
  9
$PSVPSCALE
 40
1
  9
$OLESTARTUP
290
    0
  9
$SORTENTS
280
  127
  9
$INDEXCTL
280
    0
  9
$HIDETEXT
280
    1
  9
$XCLIPFRAME
290
    0
  9
$HALOGAP
280
    0
  9
$OBSCOLOR
 70
  257
  9
$OBSLTYPE
280
    0
  9
$INTERSECTIONDISPLAY
280
    0
  9
$INTERSECTIONCOLOR
 70
  257
  9
$DIMASSOC
280
    1
  9
$PROJECTNAME
  1

  9
$CAMERADISPLAY
290
    0
  9
$LENSLENGTH
 40
50
  9
$CAMERAHEIGHT
 40
0
  9
$STEPSPERSEC
 40
2
  9
$STEPSIZE
 40
50
  9
$3DDWFPREC
 40
2
  9
$PSOLWIDTH
 40
5
  9
$PSOLHEIGHT
 40
80
  9
$LOFTANG1
 40
1.570796326794897
  9
$LOFTANG2
 40
1.570796326794897
  9
$LOFTMAG1
 40
0
  9
$LOFTMAG2
 40
0
  9
$LOFTPARAM
 70
    7
  9
$LOFTNORMALS
280
    1
  9
$LATITUDE
 40
1
  9
$LONGITUDE
 40
1
  9
$NORTHDIRECTION
 40
0
  9
$TIMEZONE
 70
-8000
  9
$LIGHTGLYPHDISPLAY
280
    1
  9
$TILEMODELIGHTSYNCH
280
    1
  9
$SOLIDHIST
280
    1
  9
$SHOWHIST
280
    1
  9
$DWFFRAME
280
    2
  9
$DGNFRAME
280
    0
  9
$REALWORLDSCALE
290
    1
  9
$INTERFERECOLOR
 62
    1
  9
$CSHADOW
280
    0
  9
$SHADOWPLANELOCATION
 40
0
  0
ENDSEC
  0
SECTION
  2
CLASSES
  0
ENDSEC
  0
SECTION
  2
TABLES
  0
TABLE
  2
VPORT
  5
8
330
0
100
AcDbSymbolTable
 70
    1
  0
VPORT
  5
31
330
2
100
AcDbSymbolTableRecord
100
AcDbViewportTableRecord
  2
*ACTIVE
 70
    0
 10
0
 20
0
 11
1
 21
1
 12
111.7123088128186
 22
108.3064457392571
 13
0
 23
0
 14
10
 24
10
 15
10
 25
10
 16
0
 26
0
 36
1
 17
0
 27
0
 37
0
 40
275.874908958485
 41
1.719753086419753
 42
50
 43
0
 44
0
 50
0
 51
0
 71
    0
 72
  100
 73
    1
 74
    3
 75
    0
 76
    1
 77
    0
 78
    0
281
    0
 65
    1
110
0
120
0
130
0
111
1
121
0
131
0
112
0
122
1
132
0
 79
    0
146
0
348
10020
 60
    7
 61
    5
292
1
282
    1
141
0
142
0
 63
  250
421
3358443
  0
ENDTAB
  0
TABLE
  2
LTYPE
  5
5
330
0
100
AcDbSymbolTable
 70
    4
  0
LTYPE
  5
14
330
5
100
AcDbSymbolTableRecord
100
AcDbLinetypeTableRecord
  2
ByBlock
 70
    0
  3

 72
   65
 73
    0
 40
0
  0
LTYPE
  5
15
330
5
100
AcDbSymbolTableRecord
100
AcDbLinetypeTableRecord
  2
ByLayer
 70
    0
  3

 72
   65
 73
    0
 40
0
  0
LTYPE
  5
16
330
5
100
AcDbSymbolTableRecord
100
AcDbLinetypeTableRecord
  2
Continuous
 70
    0
  3
Solid line
 72
   65
 73
    0
 40
0
  0
LTYPE
  5
32
330
5
100
AcDbSymbolTableRecord
100
AcDbLinetypeTableRecord
  2
DOT
 70
    0
  3
Dot . . . . . . . . . . . . . . . . . . . . . .
 72
   65
 73
    2
 40
6.35
 49
0
 74
    0
 49
-6.35
 74
    0
  0
LTYPE
  5
33
330
5
100
AcDbSymbolTableRecord
100
AcDbLinetypeTableRecord
  2
DOTTINY
 70
    0
  3
Dot (.15x) .....................................
 72
   65
 73
    2
 40
0.9525
 49
0
 74
    0
 49
-0.9525
 74
    0
  0
LTYPE
  5
34
330
5
100
AcDbSymbolTableRecord
100
AcDbLinetypeTableRecord
  2
DOT2
 70
    0
  3
Dot (.5x) .....................................
 72
   65
 73
    2
 40
3.175
 49
0
 74
    0
 49
-3.175
 74
    0
  0
LTYPE
  5
35
330
5
100
AcDbSymbolTableRecord
100
AcDbLinetypeTableRecord
  2
DOTX2
 70
    0
  3
Dot (2x) .  .  .  .  .  .  .  .  .  .  .  .  .
 72
   65
 73
    2
 40
12.7
 49
0
 74
    0
 49
-12.7
 74
    0
  0
LTYPE
  5
36
330
5
100
AcDbSymbolTableRecord
100
AcDbLinetypeTableRecord
  2
DASHED
 70
    0
  3
Dashed _ _ _ _ _ _ _ _ _ _ _ _ _ _ _ _ _
 72
   65
 73
    2
 40
19.05
 49
12.7
 74
    0
 49
-6.35
 74
    0
  0
LTYPE
  5
37
330
5
100
AcDbSymbolTableRecord
100
AcDbLinetypeTableRecord
  2
DASHEDTINY
 70
    0
  3
Dashed (.15x) _ _ _ _ _ _ _ _ _ _ _ _ _ _ _ _ _
 72
   65
 73
    2
 40
2.8575
 49
1.905
 74
    0
 49
-0.9525
 74
    0
  0
LTYPE
  5
38
330
5
100
AcDbSymbolTableRecord
100
AcDbLinetypeTableRecord
  2
DASHED2
 70
    0
  3
Dashed (.5x) _ _ _ _ _ _ _ _ _ _ _ _ _ _ _ _ _
 72
   65
 73
    2
 40
9.524999999999999
 49
6.35
 74
    0
 49
-3.175
 74
    0
  0
LTYPE
  5
39
330
5
100
AcDbSymbolTableRecord
100
AcDbLinetypeTableRecord
  2
DASHEDX2
 70
    0
  3
Dashed (2x) ____  ____  ____  ____  ____  ___
 72
   65
 73
    2
 40
38.09999999999999
 49
25.4
 74
    0
 49
-12.7
 74
    0
  0
LTYPE
  5
3A
330
5
100
AcDbSymbolTableRecord
100
AcDbLinetypeTableRecord
  2
DASHDOT
 70
    0
  3
Dash dot __ . __ . __ . __ . __ . __ . __ . __
 72
   65
 73
    4
 40
25.4
 49
12.7
 74
    0
 49
-6.35
 74
    0
 49
0
 74
    0
 49
-6.35
 74
    0
  0
LTYPE
  5
3B
330
5
100
AcDbSymbolTableRecord
100
AcDbLinetypeTableRecord
  2
DASHDOTTINY
 70
    0
  3
Dash dot (.15x) _._._._._._._._._._._._._._._.
 72
   65
 73
    4
 40
3.81
 49
1.905
 74
    0
 49
-0.9525
 74
    0
 49
0
 74
    0
 49
-0.9525
 74
    0
  0
LTYPE
  5
3C
330
5
100
AcDbSymbolTableRecord
100
AcDbLinetypeTableRecord
  2
DASHDOT2
 70
    0
  3
Dash dot (.5x) _._._._._._._._._._._._._._._.
 72
   65
 73
    4
 40
12.7
 49
6.35
 74
    0
 49
-3.175
 74
    0
 49
0
 74
    0
 49
-3.175
 74
    0
  0
LTYPE
  5
3D
330
5
100
AcDbSymbolTableRecord
100
AcDbLinetypeTableRecord
  2
DASHDOTX2
 70
    0
  3
Dash dot (2x) ____  .  ____  .  ____  .  ___
 72
   65
 73
    4
 40
50.8
 49
25.4
 74
    0
 49
-12.7
 74
    0
 49
0
 74
    0
 49
-12.7
 74
    0
  0
LTYPE
  5
3E
330
5
100
AcDbSymbolTableRecord
100
AcDbLinetypeTableRecord
  2
DIVIDE
 70
    0
  3
Divide ____ . . ____ . . ____ . . ____ . . ____
 72
   65
 73
    6
 40
31.75
 49
12.7
 74
    0
 49
-6.35
 74
    0
 49
0
 74
    0
 49
-6.35
 74
    0
 49
0
 74
    0
 49
-6.35
 74
    0
  0
LTYPE
  5
3F
330
5
100
AcDbSymbolTableRecord
100
AcDbLinetypeTableRecord
  2
DIVIDETINY
 70
    0
  3
Divide (.15x) __..__..__..__..__..__..__..__.._
 72
   65
 73
    6
 40
4.7625
 49
1.905
 74
    0
 49
-0.9525
 74
    0
 49
0
 74
    0
 49
-0.9525
 74
    0
 49
0
 74
    0
 49
-0.9525
 74
    0
  0
LTYPE
  5
40
330
5
100
AcDbSymbolTableRecord
100
AcDbLinetypeTableRecord
  2
DIVIDE2
 70
    0
  3
Divide (.5x) __..__..__..__..__..__..__..__.._
 72
   65
 73
    6
 40
15.875
 49
6.35
 74
    0
 49
-3.175
 74
    0
 49
0
 74
    0
 49
-3.175
 74
    0
 49
0
 74
    0
 49
-3.175
 74
    0
  0
LTYPE
  5
41
330
5
100
AcDbSymbolTableRecord
100
AcDbLinetypeTableRecord
  2
DIVIDEX2
 70
    0
  3
Divide (2x) ________  .  .  ________  .  .  _
 72
   65
 73
    6
 40
63.5
 49
25.4
 74
    0
 49
-12.7
 74
    0
 49
0
 74
    0
 49
-12.7
 74
    0
 49
0
 74
    0
 49
-12.7
 74
    0
  0
LTYPE
  5
42
330
5
100
AcDbSymbolTableRecord
100
AcDbLinetypeTableRecord
  2
BORDER
 70
    0
  3
Border __ __ . __ __ . __ __ . __ __ . __ __ .
 72
   65
 73
    6
 40
44.45
 49
12.7
 74
    0
 49
-6.35
 74
    0
 49
12.7
 74
    0
 49
-6.35
 74
    0
 49
0
 74
    0
 49
-6.35
 74
    0
  0
LTYPE
  5
43
330
5
100
AcDbSymbolTableRecord
100
AcDbLinetypeTableRecord
  2
BORDERTINY
 70
    0
  3
Border (.15x) __.__.__.__.__.__.__.__.__.__.__.
 72
   65
 73
    6
 40
6.6675
 49
1.905
 74
    0
 49
-0.9525
 74
    0
 49
1.905
 74
    0
 49
-0.9525
 74
    0
 49
0
 74
    0
 49
-0.9525
 74
    0
  0
LTYPE
  5
44
330
5
100
AcDbSymbolTableRecord
100
AcDbLinetypeTableRecord
  2
BORDER2
 70
    0
  3
Border (.5x) __.__.__.__.__.__.__.__.__.__.__.
 72
   65
 73
    6
 40
22.225
 49
6.35
 74
    0
 49
-3.175
 74
    0
 49
6.35
 74
    0
 49
-3.175
 74
    0
 49
0
 74
    0
 49
-3.175
 74
    0
  0
LTYPE
  5
45
330
5
100
AcDbSymbolTableRecord
100
AcDbLinetypeTableRecord
  2
BORDERX2
 70
    0
  3
Border (2x) ____  ____  .  ____  ____  .  ___
 72
   65
 73
    6
 40
88.89999999999999
 49
25.4
 74
    0
 49
-12.7
 74
    0
 49
25.4
 74
    0
 49
-12.7
 74
    0
 49
0
 74
    0
 49
-12.7
 74
    0
  0
LTYPE
  5
46
330
5
100
AcDbSymbolTableRecord
100
AcDbLinetypeTableRecord
  2
CENTER
 70
    0
  3
Center ____ _ ____ _ ____ _ ____ _ ____ _ ____
 72
   65
 73
    4
 40
50.8
 49
31.75
 74
    0
 49
-6.35
 74
    0
 49
6.35
 74
    0
 49
-6.35
 74
    0
  0
LTYPE
  5
47
330
5
100
AcDbSymbolTableRecord
100
AcDbLinetypeTableRecord
  2
CENTERTINY
 70
    0
  3
Center (.15x) ___ _ ___ _ ___ _ ___ _ ___ _ ___
 72
   65
 73
    4
 40
7.619999999999999
 49
4.7625
 74
    0
 49
-0.9525
 74
    0
 49
0.9525
 74
    0
 49
-0.9525
 74
    0
  0
LTYPE
  5
48
330
5
100
AcDbSymbolTableRecord
100
AcDbLinetypeTableRecord
  2
CENTER2
 70
    0
  3
Center (.5x) ___ _ ___ _ ___ _ ___ _ ___ _ ___
 72
   65
 73
    4
 40
28.575
 49
19.05
 74
    0
 49
-3.175
 74
    0
 49
3.175
 74
    0
 49
-3.175
 74
    0
  0
LTYPE
  5
49
330
5
100
AcDbSymbolTableRecord
100
AcDbLinetypeTableRecord
  2
CENTERX2
 70
    0
  3
Center (2x) ________  __  ________  __  _____
 72
   65
 73
    4
 40
101.6
 49
63.5
 74
    0
 49
-12.7
 74
    0
 49
12.7
 74
    0
 49
-12.7
 74
    0
  0
ENDTAB
  0
TABLE
  2
LAYER
  5
2
330
0
100
AcDbSymbolTable
 70
    1
  0
LAYER
  5
10
330
2
100
AcDbSymbolTableRecord
100
AcDbLayerTableRecord
  2
0
 70
    0
 62
    7
  6
CONTINUOUS
370
  100
390
F
  0
LAYER
  5
4A
330
2
100
AcDbSymbolTableRecord
100
AcDbLayerTableRecord
  2
Olcu
 70
    0
 62
    2
  6
CONTINUOUS
370
    0
390
F
  0
LAYER
  5
4B
330
2
100
AcDbSymbolTableRecord
100
AcDbLayerTableRecord
  2
ref.
 70
    1
 62
    3
  6
CONTINUOUS
370
    0
390
F
  0
ENDTAB
  0
TABLE
  2
STYLE
  5
3
330
0
100
AcDbSymbolTable
 70
    3
  0
STYLE
  5
4C
330
2
100
AcDbSymbolTableRecord
100
AcDbTextStyleTableRecord
  2
Standard
 70
    0
 40
0
 41
1
 50
0
 71
    0
 42
1
  3
txt
  4

  0
ENDTAB
  0
TABLE
  2
VIEW
  5
6
330
0
100
AcDbSymbolTable
 70
    0
  0
ENDTAB
  0
TABLE
  2
UCS
  5
7
330
0
100
AcDbSymbolTable
 70
    0
  0
ENDTAB
  0
TABLE
  2
APPID
  5
9
330
0
100
AcDbSymbolTable
 70
    1
  0
APPID
  5
12
330
9
100
AcDbSymbolTableRecord
100
AcDbRegAppTableRecord
  2
ACAD
 70
    0
  0
APPID
  5
4D
330
9
100
AcDbSymbolTableRecord
100
AcDbRegAppTableRecord
  2
LibreCad
 70
    0
  0
ENDTAB
  0
TABLE
  2
DIMSTYLE
  5
A
330
0
100
AcDbSymbolTable
 70
    1
100
AcDbDimStyleTable
 71
    1
  0
DIMSTYLE
105
4E
330
A
100
AcDbSymbolTableRecord
100
AcDbDimStyleTableRecord
  2
Standard
 70
    0
 40
1
 41
7
 42
0.625
 43
0.38
 44
1.25
 45
0
 46
0
 47
0
 48
0
 49
1
140
7
141
0.09
142
0
143
25.4
144
1
145
0
146
1
147
0.625
148
0
 71
    0
 72
    0
 73
    0
 74
    1
 75
    0
 76
    0
 77
    0
 78
    8
 79
    0
170
    0
171
    2
172
    0
173
    0
174
    0
175
    0
176
    0
177
    0
178
    0
179
    0
271
    2
272
    4
273
    2
274
    2
275
    0
276
    0
277
    2
278
   44
279
    0
280
    0
281
    0
282
    0
283
    1
284
    0
285
    0
286
    0
288
    0
289
    3
340
standard
341

371
   -2
372
   -2
  0
ENDTAB
  0
TABLE
  2
BLOCK_RECORD
  5
1
330
0
100
AcDbSymbolTable
 70
    2
  0
BLOCK_RECORD
  5
1F
330
1
100
AcDbSymbolTableRecord
100
AcDbBlockTableRecord
  2
*Model_Space
 70
    0
280
    1
281
    0
  0
BLOCK_RECORD
  5
1E
330
1
100
AcDbSymbolTableRecord
100
AcDbBlockTableRecord
  2
*Paper_Space
 70
    0
280
    1
281
    0
  0
BLOCK_RECORD
  5
4F
330
1
100
AcDbSymbolTableRecord
100
AcDbBlockTableRecord
  2
*D9
 70
    0
280
    1
281
    0
  0
BLOCK_RECORD
  5
52
330
1
100
AcDbSymbolTableRecord
100
AcDbBlockTableRecord
  2
*D4
 70
    0
280
    1
281
    0
  0
BLOCK_RECORD
  5
55
330
1
100
AcDbSymbolTableRecord
100
AcDbBlockTableRecord
  2
*D11
 70
    0
280
    1
281
    0
  0
BLOCK_RECORD
  5
58
330
1
100
AcDbSymbolTableRecord
100
AcDbBlockTableRecord
  2
*D1
 70
    0
280
    1
281
    0
  0
BLOCK_RECORD
  5
5B
330
1
100
AcDbSymbolTableRecord
100
AcDbBlockTableRecord
  2
*D14
 70
    0
280
    1
281
    0
  0
BLOCK_RECORD
  5
5E
330
1
100
AcDbSymbolTableRecord
100
AcDbBlockTableRecord
  2
*D2
 70
    0
280
    1
281
    0
  0
BLOCK_RECORD
  5
61
330
1
100
AcDbSymbolTableRecord
100
AcDbBlockTableRecord
  2
*D7
 70
    0
280
    1
281
    0
  0
BLOCK_RECORD
  5
64
330
1
100
AcDbSymbolTableRecord
100
AcDbBlockTableRecord
  2
*D10
 70
    0
280
    1
281
    0
  0
BLOCK_RECORD
  5
67
330
1
100
AcDbSymbolTableRecord
100
AcDbBlockTableRecord
  2
*D13
 70
    0
280
    1
281
    0
  0
BLOCK_RECORD
  5
6A
330
1
100
AcDbSymbolTableRecord
100
AcDbBlockTableRecord
  2
*D6
 70
    0
280
    1
281
    0
  0
BLOCK_RECORD
  5
6D
330
1
100
AcDbSymbolTableRecord
100
AcDbBlockTableRecord
  2
*D3
 70
    0
280
    1
281
    0
  0
BLOCK_RECORD
  5
70
330
1
100
AcDbSymbolTableRecord
100
AcDbBlockTableRecord
  2
*D5
 70
    0
280
    1
281
    0
  0
BLOCK_RECORD
  5
73
330
1
100
AcDbSymbolTableRecord
100
AcDbBlockTableRecord
  2
*D8
 70
    0
280
    1
281
    0
  0
BLOCK_RECORD
  5
76
330
1
100
AcDbSymbolTableRecord
100
AcDbBlockTableRecord
  2
*D12
 70
    0
280
    1
281
    0
  0
ENDTAB
  0
ENDSEC
  0
SECTION
  2
BLOCKS
  0
BLOCK
  5
20
330
1F
100
AcDbEntity
  8
0
100
AcDbBlockBegin
  2
*Model_Space
 70
    0
 10
0
 20
0
 30
0
  3
*Model_Space
  1

  0
ENDBLK
  5
21
330
1F
100
AcDbEntity
  8
0
100
AcDbBlockEnd
  0
BLOCK
  5
1C
330
1B
100
AcDbEntity
  8
0
100
AcDbBlockBegin
  2
*Paper_Space
 70
    0
 10
0
 20
0
 30
0
  3
*Paper_Space
  1

  0
ENDBLK
  5
1D
330
1F
100
AcDbEntity
  8
0
100
AcDbBlockEnd
  0
BLOCK
  5
50
330
4F
100
AcDbEntity
  8
0
100
AcDbBlockBegin
  2
*D9
 70
    1
 10
0
 20
0
  3
*D9
  1

  0
LINE
  5
79
100
AcDbEntity
  8
Olcu
  6
ByBlock
 62
    0
370
   -2
100
AcDbLine
 10
-240
 20
74.99999999999994
 11
-240
 21
9.592326932761353e-14
  0
MTEXT
  5
7A
100
AcDbEntity
  8
Olcu
  6
CONTINUOUS
 62
    0
370
   -2
100
AcDbMText
 10
-244.125
 20
37.50000000000002
 30
0
 40
7
 41
8.555555555555991
 71
    5
 72
    1
  1
75
  7
standard
210
0
220
0
230
1
 50
90
 73
    2
 44
1
  0
SOLID
  5
7B
100
AcDbEntity
  8
Olcu
  6
ByBlock
 62
    0
370
   -2
100
AcDbTrace
 10
-240
 20
74.99999999999994
 30
0
 11
-238.834402958236
 21
67.99999999999994
 31
0
 12
-241.165597041764
 22
67.99999999999994
 32
0
 13
-241.165597041764
 23
67.99999999999994
 33
0
  0
SOLID
  5
7C
100
AcDbEntity
  8
Olcu
  6
ByBlock
 62
    0
370
   -2
100
AcDbTrace
 10
-240
 20
9.592326932761353e-14
 30
0
 11
-241.165597041764
 21
7.000000000000096
 31
0
 12
-238.834402958236
 22
7.000000000000096
 32
0
 13
-238.834402958236
 23
7.000000000000096
 33
0
  0
LINE
  5
7D
100
AcDbEntity
  8
Olcu
  6
ByBlock
 62
    0
370
   -2
100
AcDbLine
 10
-140.625
 20
74.99999999999994
 11
-241.25
 21
74.99999999999994
  0
LINE
  5
7E
100
AcDbEntity
  8
Olcu
  6
ByBlock
 62
    0
370
   -2
100
AcDbLine
 10
-0.6249999999999895
 20
9.599980975256024e-14
 11
-241.25
 21
9.607635017750695e-14
  0
ENDBLK
  5
51
330
4F
100
AcDbEntity
  8
0
100
AcDbBlockEnd
  0
BLOCK
  5
53
330
52
100
AcDbEntity
  8
0
100
AcDbBlockBegin
  2
*D4
 70
    1
 10
0
 20
0
  3
*D4
  1

  0
LINE
  5
7F
100
AcDbEntity
  8
Olcu
  6
ByBlock
 62
    0
370
   -2
100
AcDbLine
 10
-12.00000000000002
 20
176.0027925445938
 11
12.00000000000001
 21
176.0027925445938
  0
MTEXT
  5
80
100
AcDbEntity
  8
Olcu
  6
CONTINUOUS
 62
    0
370
   -2
100
AcDbMText
 10
-7.741022374976986e-15
 20
180.1277925445938
 30
0
 40
7
 41
9.333333333333334
 71
    5
 72
    1
  1
24
  7
standard
210
0
220
0
230
1
 50
0
 73
    2
 44
1
  0
SOLID
  5
81
100
AcDbEntity
  8
Olcu
  6
ByBlock
 62
    0
370
   -2
100
AcDbTrace
 10
-12.00000000000002
 20
176.0027925445938
 30
0
 11
-5.00000000000002
 21
177.1683895863578
 31
0
 12
-5.00000000000002
 22
174.8371955028298
 32
0
 13
-5.00000000000002
 23
174.8371955028298
 33
0
  0
SOLID
  5
82
100
AcDbEntity
  8
Olcu
  6
ByBlock
 62
    0
370
   -2
100
AcDbTrace
 10
12.00000000000001
 20
176.0027925445938
 30
0
 11
5.000000000000011
 21
174.8371955028298
 31
0
 12
5.000000000000011
 22
177.1683895863578
 32
0
 13
5.000000000000011
 23
177.1683895863578
 33
0
  0
LINE
  5
83
100
AcDbEntity
  8
Olcu
  6
ByBlock
 62
    0
370
   -2
100
AcDbLine
 10
-12.00000000000002
 20
128.120454169735
 11
-12.00000000000002
 21
177.2527925445938
  0
LINE
  5
84
100
AcDbEntity
  8
Olcu
  6
ByBlock
 62
    0
370
   -2
100
AcDbLine
 10
12.00000000000001
 20
128.1204541697351
 11
12.00000000000001
 21
177.2527925445938
  0
ENDBLK
  5
54
330
52
100
AcDbEntity
  8
0
100
AcDbBlockEnd
  0
BLOCK
  5
56
330
55
100
AcDbEntity
  8
0
100
AcDbBlockBegin
  2
*D11
 70
    1
 10
0
 20
0
  3
*D11
  1

  0
LINE
  5
85
100
AcDbEntity
  8
Olcu
  6
ByBlock
 62
    0
370
   -2
100
AcDbLine
 10
44.15574564925217
 20
116.6821976764376
 11
82.21431088268669
 21
122.0309802019199
  0
ARC
  5
86
100
AcDbEntity
  8
Olcu
  6
ByBlock
 62
    0
370
   -2
100
AcDbCircle
 10
281.2242275187099
 20
150
 40
202.2157010236879
100
AcDbArc
 50
180
 51
188
  0
SOLID
  5
87
100
AcDbEntity
  8
Olcu
  6
ByBlock
 62
    0
370
   -2
100
AcDbTrace
 10
79.00852649502201
 20
150
 30
0
 11
80.29510065295158
 21
143.0212219264461
 31
0
 12
77.96425574506264
 22
142.9808750499405
 32
0
 13
77.96425574506264
 23
142.9808750499405
 33
0
  0
SOLID
  5
88
100
AcDbEntity
  8
Olcu
  6
ByBlock
 62
    0
370
   -2
100
AcDbTrace
 10
80.97647579675973
 20
121.8570138257199
 30
0
 11
78.96549443262818
 21
128.6624947357573
 31
0
 12
81.27927091801681
 22
128.9469314259682
 32
0
 13
81.27927091801681
 23
128.9469314259682
 33
0
  0
MTEXT
  5
89
100
AcDbEntity
  8
Olcu
  6
CONTINUOUS
 62
    0
370
   -2
100
AcDbMText
 10
80.12459131080251
 20
135.9377435569813
 30
0
 40
7
 41
7.777777777777779
 71
    8
 72
    1
  1
8%%D
  7
standard
210
0
220
0
230
1
 50
-86
 73
    2
 44
1
  0
ENDBLK
  5
57
330
55
100
AcDbEntity
  8
0
100
AcDbBlockEnd
  0
BLOCK
  5
59
330
58
100
AcDbEntity
  8
0
100
AcDbBlockBegin
  2
*D1
 70
    1
 10
0
 20
0
  3
*D1
  1

  0
SOLID
  5
8A
100
AcDbEntity
  8
Olcu
  6
ByBlock
 62
    0
370
   -2
100
AcDbTrace
 10
32.49544276355019
 20
51.79165416467199
 30
0
 11
37.89540922936137
 21
47.18741930620924
 31
0
 12
36.11206948686341
 22
45.6860315422046
 32
0
 13
36.11206948686341
 23
45.6860315422046
 33
0
  0
LINE
  5
8B
100
AcDbEntity
  8
Olcu
  6
ByBlock
 62
    0
370
   -2
100
AcDbLine
 10
96.89967982872452
 20
-24.7073278419719
 11
32.49544276355019
 21
51.79165416467198
  0
MTEXT
  5
8C
100
AcDbEntity
  8
Olcu
  6
CONTINUOUS
 62
    0
370
   -2
100
AcDbMText
 10
67.85314430391141
 20
16.19883794028849
 30
0
 40
7
 41
12.44444444444445
 71
    5
 72
    1
  1
100
  7
standard
210
0
220
0
230
1
 50
310.0939136285017
 73
    2
 44
1
  0
ENDBLK
  5
5A
330
58
100
AcDbEntity
  8
0
100
AcDbBlockEnd
  0
BLOCK
  5
5C
330
5B
100
AcDbEntity
  8
0
100
AcDbBlockBegin
  2
*D14
 70
    1
 10
0
 20
0
  3
*D14
  1

  0
LINE
  5
8D
100
AcDbEntity
  8
Olcu
  6
ByBlock
 62
    0
370
   -2
100
AcDbLine
 10
-40
 20
164
 11
-40
 21
126.0000000000001
  0
MTEXT
  5
8E
100
AcDbEntity
  8
Olcu
  6
CONTINUOUS
 62
    0
370
   -2
100
AcDbMText
 10
-44.125
 20
145.0000000000001
 30
0
 40
7
 41
7
 71
    5
 72
    1
  1
10
  7
standard
210
0
220
0
230
1
 50
90
 73
    2
 44
1
  0
SOLID
  5
8F
100
AcDbEntity
  8
Olcu
  6
ByBlock
 62
    0
370
   -2
100
AcDbTrace
 10
-40
 20
150
 30
0
 11
-41.16559704176395
 21
157
 31
0
 12
-38.83440295823605
 22
157
 32
0
 13
-38.83440295823605
 23
157
 33
0
  0
SOLID
  5
90
100
AcDbEntity
  8
Olcu
  6
ByBlock
 62
    0
370
   -2
100
AcDbTrace
 10
-40
 20
140.0000000000001
 30
0
 11
-38.83440295823605
 21
133.0000000000001
 31
0
 12
-41.16559704176395
 22
133.0000000000001
 32
0
 13
-41.16559704176395
 23
133.0000000000001
 33
0
  0
LINE
  5
91
100
AcDbEntity
  8
Olcu
  6
ByBlock
 62
    0
370
   -2
100
AcDbLine
 10
-66.37500000000003
 20
150
 11
-38.75
 21
150
  0
LINE
  5
92
100
AcDbEntity
  8
Olcu
  6
ByBlock
 62
    0
370
   -2
100
AcDbLine
 10
-15.74273343832104
 20
140.0000000000001
 11
-41.25
 21
140.0000000000001
  0
ENDBLK
  5
5D
330
5B
100
AcDbEntity
  8
0
100
AcDbBlockEnd
  0
BLOCK
  5
5F
330
5E
100
AcDbEntity
  8
0
100
AcDbBlockBegin
  2
*D2
 70
    1
 10
0
 20
0
  3
*D2
  1

  0
SOLID
  5
93
100
AcDbEntity
  8
Olcu
  6
ByBlock
 62
    0
370
   -2
100
AcDbTrace
 10
6.440013609019682
 20
129.300618162688
 30
0
 11
6.075767561991234
 21
122.2135918976744
 31
0
 12
3.798919971838949
 22
122.7140226184472
 32
0
 13
3.798919971838949
 23
122.7140226184472
 33
0
  0
LINE
  5
94
100
AcDbEntity
  8
Olcu
  6
ByBlock
 62
    0
370
   -2
100
AcDbLine
 10
0
 20
100
 11
6.44001360901968
 21
129.300618162688
  0
MTEXT
  5
95
100
AcDbEntity
  8
Olcu
  6
CONTINUOUS
 62
    0
370
   -2
100
AcDbMText
 10
-0.808828192859758
 20
115.5358109525842
 30
0
 40
7
 41
8.555555555555991
 71
    5
 72
    1
  1
30
  7
standard
210
0
220
0
230
1
 50
77.60400127623871
 73
    2
 44
1
  0
ENDBLK
  5
60
330
5E
100
AcDbEntity
  8
0
100
AcDbBlockEnd
  0
BLOCK
  5
62
330
61
100
AcDbEntity
  8
0
100
AcDbBlockBegin
  2
*D7
 70
    1
 10
0
 20
0
  3
*D7
  1

  0
SOLID
  5
96
100
AcDbEntity
  8
Olcu
  6
ByBlock
 62
    0
370
   -2
100
AcDbTrace
 10
151.1340551962217
 20
101.2387802857924
 30
0
 11
157.151920162491
 21
97.47794025841588
 31
0
 12
155.6085362801688
 22
95.73081918451646
 32
0
 13
155.6085362801688
 23
95.73081918451646
 33
0
  0
LINE
  5
97
100
AcDbEntity
  8
Olcu
  6
ByBlock
 62
    0
370
   -2
100
AcDbLine
 10
184.8594532147743
 20
71.4462052294095
 11
151.1340551962217
 21
101.2387802857924
  0
MTEXT
  5
98
100
AcDbEntity
  8
Olcu
  6
CONTINUOUS
 62
    0
370
   -2
100
AcDbMText
 10
170.727740252333
 20
89.43398757596827
 30
0
 40
7
 41
9.333333333333767
 71
    5
 72
    1
  1
45
  7
standard
210
0
220
0
230
1
 50
318.5430422942014
 73
    2
 44
1
  0
ENDBLK
  5
63
330
61
100
AcDbEntity
  8
0
100
AcDbBlockEnd
  0
BLOCK
  5
65
330
64
100
AcDbEntity
  8
0
100
AcDbBlockBegin
  2
*D10
 70
    1
 10
0
 20
0
  3
*D10
  1

  0
ARC
  5
99
100
AcDbEntity
  8
Olcu
  6
ByBlock
 62
    0
370
   -2
100
AcDbCircle
 10
-220
 20
149.9999999999999
 40
72.80109889280516
100
AcDbArc
 50
325.0000000000001
 51
5.088887490341627e-14
  0
SOLID
  5
9A
100
AcDbEntity
  8
Olcu
  6
ByBlock
 62
    0
370
   -2
100
AcDbTrace
 10
-160.3648310154736
 20
108.2430051346247
 30
0
 11
-157.6158282900065
 21
114.7852983471874
 31
0
 12
-155.6441735294607
 22
113.5414963692612
 32
0
 13
-155.6441735294607
 23
113.5414963692612
 33
0
  0
SOLID
  5
9B
100
AcDbEntity
  8
Olcu
  6
ByBlock
 62
    0
370
   -2
100
AcDbTrace
 10
-147.1989011071948
 20
149.9999999999999
 30
0
 11
-146.3710545975394
 21
142.952072175439
 31
0
 12
-148.6995551312978
 22
143.0641039537985
 32
0
 13
-148.6995551312978
 23
143.0641039537985
 33
0
  0
MTEXT
  5
9C
100
AcDbEntity
  8
Olcu
  6
CONTINUOUS
 62
    0
370
   -2
100
AcDbMText
 10
-151.1644310470514
 20
128.2962284773395
 30
0
 40
7
 41
13.22222222222309
 71
    8
 72
    1
  1
35%%D
  7
standard
210
0
220
0
230
1
 50
72.50000000000004
 73
    2
 44
1
  0
ENDBLK
  5
66
330
64
100
AcDbEntity
  8
0
100
AcDbBlockEnd
  0
BLOCK
  5
68
330
67
100
AcDbEntity
  8
0
100
AcDbBlockBegin
  2
*D13
 70
    1
 10
0
 20
0
  3
*D13
  1

  0
LINE
  5
9D
100
AcDbEntity
  8
Olcu
  6
ByBlock
 62
    0
370
   -2
100
AcDbLine
 10
110
 20
113
 11
110
 21
150
  0
MTEXT
  5
9E
100
AcDbEntity
  8
Olcu
  6
CONTINUOUS
 62
    0
370
   -2
100
AcDbMText
 10
105.875
 20
131.5
 30
0
 40
7
 41
8.555555555555991
 71
    5
 72
    1
  1
37
  7
standard
210
0
220
0
230
1
 50
90
 73
    2
 44
1
  0
SOLID
  5
9F
100
AcDbEntity
  8
Olcu
  6
ByBlock
 62
    0
370
   -2
100
AcDbTrace
 10
110
 20
113
 30
0
 11
108.8344029582361
 21
120
 31
0
 12
111.165597041764
 22
120
 32
0
 13
111.165597041764
 23
120
 33
0
  0
SOLID
  5
A0
100
AcDbEntity
  8
Olcu
  6
ByBlock
 62
    0
370
   -2
100
AcDbTrace
 10
110
 20
150
 30
0
 11
111.165597041764
 21
143
 31
0
 12
108.834402958236
 22
143
 32
0
 13
108.834402958236
 23
143
 33
0
  0
LINE
  5
A1
100
AcDbEntity
  8
Olcu
  6
ByBlock
 62
    0
370
   -2
100
AcDbLine
 10
18.58054779049429
 20
113
 11
111.25
 21
113
  0
LINE
  5
A2
100
AcDbEntity
  8
Olcu
  6
ByBlock
 62
    0
370
   -2
100
AcDbLine
 10
67.625
 20
150
 11
111.25
 21
150
  0
ENDBLK
  5
69
330
67
100
AcDbEntity
  8
0
100
AcDbBlockEnd
  0
BLOCK
  5
6B
330
6A
100
AcDbEntity
  8
0
100
AcDbBlockBegin
  2
*D6
 70
    1
 10
0
 20
0
  3
*D6
  1

  0
LINE
  5
A3
100
AcDbEntity
  8
Olcu
  6
ByBlock
 62
    0
370
   -2
100
AcDbLine
 10
0
 20
-54.29112891478653
 11
220
 21
-54.29112891478653
  0
MTEXT
  5
A4
100
AcDbEntity
  8
Olcu
  6
CONTINUOUS
 62
    0
370
   -2
100
AcDbMText
 10
110
 20
-50.16612891478653
 30
0
 40
7
 41
14
 71
    5
 72
    1
  1
220
  7
standard
210
0
220
0
230
1
 50
0
 73
    2
 44
1
  0
SOLID
  5
A5
100
AcDbEntity
  8
Olcu
  6
ByBlock
 62
    0
370
   -2
100
AcDbTrace
 10
0
 20
-54.29112891478653
 30
0
 11
7
 21
-53.12553187302258
 31
0
 12
7
 22
-55.45672595655049
 32
0
 13
7
 23
-55.45672595655049
 33
0
  0
SOLID
  5
A6
100
AcDbEntity
  8
Olcu
  6
ByBlock
 62
    0
370
   -2
100
AcDbTrace
 10
220
 20
-54.29112891478653
 30
0
 11
213
 21
-55.45672595655049
 31
0
 12
213
 22
-53.12553187302258
 32
0
 13
213
 23
-53.12553187302258
 33
0
  0
LINE
  5
A7
100
AcDbEntity
  8
Olcu
  6
ByBlock
 62
    0
370
   -2
100
AcDbLine
 10
1.409604407778194e-14
 20
-0.6249999999999893
 11
-2.296212748401287e-16
 21
-55.54112891478653
  0
LINE
  5
A8
100
AcDbEntity
  8
Olcu
  6
ByBlock
 62
    0
370
   -2
100
AcDbLine
 10
220
 20
149.375
 11
220
 21
-55.54112891478653
  0
ENDBLK
  5
6C
330
6A
100
AcDbEntity
  8
0
100
AcDbBlockEnd
  0
BLOCK
  5
6E
330
6D
100
AcDbEntity
  8
0
100
AcDbBlockBegin
  2
*D3
 70
    1
 10
0
 20
0
  3
*D3
  1

  0
LINE
  5
A9
100
AcDbEntity
  8
Olcu
  6
ByBlock
 62
    0
370
   -2
100
AcDbLine
 10
-67.00000000000006
 20
204.7759359067784
 11
67
 21
204.7759359067784
  0
MTEXT
  5
AA
100
AcDbEntity
  8
Olcu
  6
CONTINUOUS
 62
    0
370
   -2
100
AcDbMText
 10
-2.816912602807986e-14
 20
208.9009359067784
 30
0
 40
7
 41
13.22222222222265
 71
    5
 72
    1
  1
134
  7
standard
210
0
220
0
230
1
 50
0
 73
    2
 44
1
  0
SOLID
  5
AB
100
AcDbEntity
  8
Olcu
  6
ByBlock
 62
    0
370
   -2
100
AcDbTrace
 10
-67.00000000000006
 20
204.7759359067784
 30
0
 11
-60.00000000000006
 21
205.9415329485423
 31
0
 12
-60.00000000000006
 22
203.6103388650144
 32
0
 13
-60.00000000000006
 23
203.6103388650144
 33
0
  0
SOLID
  5
AC
100
AcDbEntity
  8
Olcu
  6
ByBlock
 62
    0
370
   -2
100
AcDbTrace
 10
67
 20
204.7759359067784
 30
0
 11
60
 21
203.6103388650144
 31
0
 12
60
 22
205.9415329485423
 32
0
 13
60
 23
205.9415329485423
 33
0
  0
LINE
  5
AD
100
AcDbEntity
  8
Olcu
  6
ByBlock
 62
    0
370
   -2
100
AcDbLine
 10
-67.00000000000003
 20
150.625
 11
-67.00000000000006
 21
206.0259359067784
  0
LINE
  5
AE
100
AcDbEntity
  8
Olcu
  6
ByBlock
 62
    0
370
   -2
100
AcDbLine
 10
67
 20
150.625
 11
67
 21
206.0259359067784
  0
ENDBLK
  5
6F
330
6D
100
AcDbEntity
  8
0
100
AcDbBlockEnd
  0
BLOCK
  5
71
330
70
100
AcDbEntity
  8
0
100
AcDbBlockBegin
  2
*D5
 70
    1
 10
0
 20
0
  3
*D5
  1

  0
LINE
  5
AF
100
AcDbEntity
  8
Olcu
  6
ByBlock
 62
    0
370
   -2
100
AcDbLine
 10
5.684341886080801e-14
 20
-27.6921194464683
 11
140
 21
-27.6921194464683
  0
MTEXT
  5
B0
100
AcDbEntity
  8
Olcu
  6
CONTINUOUS
 62
    0
370
   -2
100
AcDbMText
 10
70.00000000000003
 20
-23.5671194464683
 30
0
 40
7
 41
13.22222222222222
 71
    5
 72
    1
  1
140
  7
standard
210
0
220
0
230
1
 50
0
 73
    2
 44
1
  0
SOLID
  5
B1
100
AcDbEntity
  8
Olcu
  6
ByBlock
 62
    0
370
   -2
100
AcDbTrace
 10
5.684341886080801e-14
 20
-27.6921194464683
 30
0
 11
7.000000000000057
 21
-26.52652240470435
 31
0
 12
7.000000000000057
 22
-28.85771648823226
 32
0
 13
7.000000000000057
 23
-28.85771648823226
 33
0
  0
SOLID
  5
B2
100
AcDbEntity
  8
Olcu
  6
ByBlock
 62
    0
370
   -2
100
AcDbTrace
 10
140
 20
-27.6921194464683
 30
0
 11
133
 21
-28.85771648823225
 31
0
 12
133
 22
-26.52652240470435
 32
0
 13
133
 23
-26.52652240470435
 33
0
  0
LINE
  5
B3
100
AcDbEntity
  8
Olcu
  6
ByBlock
 62
    0
370
   -2
100
AcDbLine
 10
2.523854893799644e-14
 20
-0.6249999999999041
 11
5.772402061059305e-14
 21
-28.9421194464683
  0
LINE
  5
B4
100
AcDbEntity
  8
Olcu
  6
ByBlock
 62
    0
370
   -2
100
AcDbLine
 10
140
 20
74.375
 11
140
 21
-28.9421194464683
  0
ENDBLK
  5
72
330
70
100
AcDbEntity
  8
0
100
AcDbBlockEnd
  0
BLOCK
  5
74
330
73
100
AcDbEntity
  8
0
100
AcDbBlockBegin
  2
*D8
 70
    1
 10
0
 20
0
  3
*D8
  1

  0
LINE
  5
B5
100
AcDbEntity
  8
Olcu
  6
ByBlock
 62
    0
370
   -2
100
AcDbLine
 10
-240
 20
149.9999999999999
 11
-240
 21
74.99999999999994
  0
MTEXT
  5
B6
100
AcDbEntity
  8
Olcu
  6
CONTINUOUS
 62
    0
370
   -2
100
AcDbMText
 10
-244.125
 20
112.4999999999999
 30
0
 40
7
 41
8.555555555555991
 71
    5
 72
    1
  1
75
  7
standard
210
0
220
0
230
1
 50
90
 73
    2
 44
1
  0
SOLID
  5
B7
100
AcDbEntity
  8
Olcu
  6
ByBlock
 62
    0
370
   -2
100
AcDbTrace
 10
-240
 20
149.9999999999999
 30
0
 11
-238.834402958236
 21
142.9999999999999
 31
0
 12
-241.165597041764
 22
142.9999999999999
 32
0
 13
-241.165597041764
 23
142.9999999999999
 33
0
  0
SOLID
  5
B8
100
AcDbEntity
  8
Olcu
  6
ByBlock
 62
    0
370
   -2
100
AcDbTrace
 10
-240
 20
74.99999999999994
 30
0
 11
-241.165597041764
 21
81.99999999999994
 31
0
 12
-238.834402958236
 22
81.99999999999994
 32
0
 13
-238.834402958236
 23
81.99999999999994
 33
0
  0
LINE
  5
B9
100
AcDbEntity
  8
Olcu
  6
ByBlock
 62
    0
370
   -2
100
AcDbLine
 10
-220.625
 20
149.9999999999999
 11
-241.25
 21
149.9999999999999
  0
LINE
  5
BA
100
AcDbEntity
  8
Olcu
  6
ByBlock
 62
    0
370
   -2
100
AcDbLine
 10
-140.625
 20
74.99999999999994
 11
-241.25
 21
74.99999999999994
  0
ENDBLK
  5
75
330
73
100
AcDbEntity
  8
0
100
AcDbBlockEnd
  0
BLOCK
  5
77
330
76
100
AcDbEntity
  8
0
100
AcDbBlockBegin
  2
*D12
 70
    1
 10
0
 20
0
  3
*D12
  1

  0
LINE
  5
BB
100
AcDbEntity
  8
Olcu
  6
ByBlock
 62
    0
370
   -2
100
AcDbLine
 10
130.2225463982867
 20
100
 11
130.2225463982867
 21
150
  0
MTEXT
  5
BC
100
AcDbEntity
  8
Olcu
  6
CONTINUOUS
 62
    0
370
   -2
100
AcDbMText
 10
126.0975463982867
 20
125
 30
0
 40
7
 41
8.555555555555991
 71
    5
 72
    1
  1
50
  7
standard
210
0
220
0
230
1
 50
90
 73
    2
 44
1
  0
SOLID
  5
BD
100
AcDbEntity
  8
Olcu
  6
ByBlock
 62
    0
370
   -2
100
AcDbTrace
 10
130.2225463982867
 20
100
 30
0
 11
129.0569493565228
 21
107
 31
0
 12
131.3881434400507
 22
107
 32
0
 13
131.3881434400507
 23
107
 33
0
  0
SOLID
  5
BE
100
AcDbEntity
  8
Olcu
  6
ByBlock
 62
    0
370
   -2
100
AcDbTrace
 10
130.2225463982867
 20
150
 30
0
 11
131.3881434400507
 21
143
 31
0
 12
129.0569493565228
 22
143
 32
0
 13
129.0569493565228
 23
143
 33
0
  0
LINE
  5
BF
100
AcDbEntity
  8
Olcu
  6
ByBlock
 62
    0
370
   -2
100
AcDbLine
 10
0.625
 20
100
 11
131.4725463982867
 21
100
  0
LINE
  5
C0
100
AcDbEntity
  8
Olcu
  6
ByBlock
 62
    0
370
   -2
100
AcDbLine
 10
67.625
 20
150
 11
131.4725463982867
 21
150
  0
ENDBLK
  5
78
330
76
100
AcDbEntity
  8
0
100
AcDbBlockEnd
  0
ENDSEC
  0
SECTION
  2
ENTITIES
  0
ARC
  5
C1
100
AcDbEntity
  8
0
  6
ByLayer
 62
  256
370
   -1
100
AcDbCircle
 10
96.89967982872452
 20
-24.7073278419719
 40
100
100
AcDbArc
 50
94.38464375707422
 51
165.6956087889711
  0
ARC
  5
C2
100
AcDbEntity
  8
0
  6
ByLayer
 62
  256
370
   -1
100
AcDbCircle
 10
184.8594532147743
 20
71.4462052294095
 40
45
100
AcDbArc
 50
135.8759364556626
 51
175.4704513260084
  0
LINE
  5
C3
100
AcDbEntity
  8
0
  6
ByLayer
 62
  256
370
   -1
100
AcDbLine
 10
220
 20
150
 11
152.5569250436429
 21
102.7758505155163
  0
LINE
  5
C4
100
AcDbEntity
  8
0
  6
ByLayer
 62
  256
370
   -1
100
AcDbLine
 10
140
 20
75
 11
89.25449999999999
 21
75
  0
LINE
  5
C5
100
AcDbEntity
  8
0
  6
ByLayer
 62
  256
370
   -1
100
AcDbLine
 10
220
 20
150
 11
67
 21
150
  0
ARC
  5
C6
100
AcDbEntity
  8
0
  6
ByLayer
 62
  256
370
   -1
100
AcDbCircle
 10
0
 20
100
 40
30
100
AcDbArc
 50
66.42182152179817
 51
90.00000000000003
  0
DIMENSION
  5
C7
100
AcDbEntity
  8
Olcu
  6
ByLayer
 62
  256
370
   -1
100
AcDbDimension
  2
*D1
 10
96.89967982872452
 20
-24.7073278419719
 30
0
 11
67.85314430391141
 21
16.19883794028849
 31
0
 70
   36
 71
    5
 72
    0
  3
Standard
 53
0
210
0
220
0
230
1
100
AcDbRadialDimension
 15
32.49544276355019
 25
51.79165416467199
 35
0
 40
0
  0
DIMENSION
  5
C8
100
AcDbEntity
  8
Olcu
  6
ByLayer
 62
  256
370
   -1
100
AcDbDimension
  2
*D2
 10
0
 20
100
 30
0
 11
-0.808828192859758
 21
115.5358109525842
 31
0
 70
   36
 71
    5
 72
    0
  3
Standard
 53
0
210
0
220
0
230
1
100
AcDbRadialDimension
 15
6.440013609019682
 25
129.300618162688
 35
0
 40
0
  0
LINE
  5
C9
100
AcDbEntity
  8
ref.
  6
ByLayer
 62
  256
370
   -1
100
AcDbLine
 10
220
 20
113
 11
-13
 21
113
  0
CIRCLE
  5
CA
100
AcDbEntity
  8
ref.
  6
ByLayer
 62
  256
370
   -1
100
AcDbCircle
 10
284.844998680707
 20
190
 40
40
  0
CIRCLE
  5
CB
100
AcDbEntity
  8
ref.
  6
ByLayer
 62
  256
370
   -1
100
AcDbCircle
 10
284.844998680707
 20
190
 40
40
  0
ARC
  5
CC
100
AcDbEntity
  8
0
  6
ByLayer
 62
  256
370
   -1
100
AcDbCircle
 10
-96.89967982872447
 20
-24.70732784197192
 40
100
100
AcDbArc
 50
14.3043912110289
 51
85.6153562429258
  0
ARC
  5
CD
100
AcDbEntity
  8
0
  6
ByLayer
 62
  256
370
   -1
100
AcDbCircle
 10
-184.8594532147743
 20
71.44620522940941
 40
45
100
AcDbArc
 50
4.529548673991589
 51
44.1240635443374
  0
LINE
  5
CE
100
AcDbEntity
  8
0
  6
ByLayer
 62
  256
370
   -1
100
AcDbLine
 10
-220
 20
149.9999999999999
 11
-152.5569250436429
 21
102.7758505155163
  0
LINE
  5
CF
100
AcDbEntity
  8
0
  6
ByLayer
 62
  256
370
   -1
100
AcDbLine
 10
-140
 20
74.99999999999994
 11
-89.25449999999999
 21
74.99999999999997
  0
LINE
  5
D0
100
AcDbEntity
  8
0
  6
ByLayer
 62
  256
370
   -1
100
AcDbLine
 10
-220
 20
149.9999999999999
 11
-67.00000000000003
 21
150
  0
ARC
  5
D1
100
AcDbEntity
  8
0
  6
ByLayer
 62
  256
370
   -1
100
AcDbCircle
 10
-1.11114610495696e-14
 20
100
 40
30
100
AcDbArc
 50
90
 51
113.5781784782019
  0
DIMENSION
  5
D2
100
AcDbEntity
  8
Olcu
  6
ByLayer
 62
  256
370
   -1
100
AcDbDimension
  2
*D3
 10
67
 20
204.7759359067784
 30
0
 11
-2.816912602807986e-14
 21
208.9009359067784
 31
0
 70
   32
 71
    5
 72
    0
  3
Standard
 53
0
210
0
220
0
230
1
100
AcDbAlignedDimension
 13
-67.00000000000003
 23
150
 33
0
 14
67
 24
150
 34
0
100
AcDbRotatedDimension
  0
DIMENSION
  5
D3
100
AcDbEntity
  8
Olcu
  6
ByLayer
 62
  256
370
   -1
100
AcDbDimension
  2
*D4
 10
12.39456285525308
 20
176.0027925445938
 30
0
 11
-7.741022374976986e-15
 21
180.1277925445938
 31
0
 70
   32
 71
    5
 72
    0
  3
Standard
 53
0
210
0
220
0
230
1
100
AcDbAlignedDimension
 13
-12.00000000000002
 23
127.495454169735
 33
0
 14
12.00000000000001
 24
127.4954541697351
 34
0
100
AcDbRotatedDimension
  0
LINE
  5
D4
100
AcDbEntity
  8
ref.
  6
ByLayer
 62
  256
370
   -1
100
AcDbLine
 10
-220
 20
139.9999999999999
 11
72.99999999999997
 21
140.0000000000002
  0
LINE
  5
D5
100
AcDbEntity
  8
0
  6
ByLayer
 62
  256
370
   -1
100
AcDbLine
 10
-12.00000000000002
 20
127.495454169735
 11
-15.11773343832104
 21
140.0000000000001
  0
LINE
  5
D6
100
AcDbEntity
  8
0
  6
ByLayer
 62
  256
370
   -1
100
AcDbLine
 10
12
 20
127.495454169735
 11
15.11773343832101
 21
140.0000000000001
  0
LINE
  5
D7
100
AcDbEntity
  8
0
  6
ByLayer
 62
  256
370
   -1
100
AcDbLine
 10
-17.95554779049431
 20
113
 11
-15.11773343832104
 21
140.0000000000001
  0
LINE
  5
D8
100
AcDbEntity
  8
0
  6
ByLayer
 62
  256
370
   -1
100
AcDbLine
 10
17.95554779049429
 20
113
 11
15.11773343832101
 21
140.0000000000001
  0
ARC
  5
D9
100
AcDbEntity
  8
0
  6
ByLayer
 62
  256
370
   -1
100
AcDbCircle
 10
27.11799795996394
 20
153.0701650246459
 40
40
100
AcDbArc
 50
294.2344102392578
 51
355.5979831150063
  0
ARC
  5
DA
100
AcDbEntity
  8
0
  6
ByLayer
 62
  256
370
   -1
100
AcDbCircle
 10
-27.11799795996397
 20
153.0701650246459
 40
40
100
AcDbArc
 50
184.4020168849937
 51
245.7655897607421
  0
LINE
  5
DB
100
AcDbEntity
  8
0
  6
ByLayer
 62
  256
370
   -1
100
AcDbLine
 10
-17.95554779049431
 20
113
 11
-43.53682810628882
 21
116.5952144883376
  0
LINE
  5
DC
100
AcDbEntity
  8
0
  6
ByLayer
 62
  256
370
   -1
100
AcDbLine
 10
17.95554779049429
 20
113
 11
43.53682810628869
 21
116.5952144883376
  0
DIMENSION
  5
DD
100
AcDbEntity
  8
Olcu
  6
ByLayer
 62
  256
370
   -1
100
AcDbDimension
  2
*D5
 10
140
 20
-27.6921194464683
 30
0
 11
70.00000000000003
 21
-23.5671194464683
 31
0
 70
   32
 71
    5
 72
    0
  3
Standard
 53
0
210
0
220
0
230
1
100
AcDbAlignedDimension
 13
2.479824806310393e-14
 23
9.592326932761353e-14
 33
0
 14
140
 24
75
 34
0
100
AcDbRotatedDimension
  0
DIMENSION
  5
DE
100
AcDbEntity
  8
Olcu
  6
ByLayer
 62
  256
370
   -1
100
AcDbDimension
  2
*D6
 10
220
 20
-54.29112891478653
 30
0
 11
110
 21
-50.16612891478653
 31
0
 70
   32
 71
    5
 72
    0
  3
Standard
 53
0
210
0
220
0
230
1
100
AcDbAlignedDimension
 13
1.4210854715202e-14
 23
1.06581410364015e-14
 33
0
 14
220
 24
150
 34
0
100
AcDbRotatedDimension
  0
DIMENSION
  5
DF
100
AcDbEntity
  8
Olcu
  6
ByLayer
 62
  256
370
   -1
100
AcDbDimension
  2
*D7
 10
184.8594532147743
 20
71.4462052294095
 30
0
 11
170.727740252333
 21
89.43398757596827
 31
0
 70
   36
 71
    5
 72
    0
  3
Standard
 53
0
210
0
220
0
230
1
100
AcDbRadialDimension
 15
151.1340551962217
 25
101.2387802857924
 35
0
 40
0
  0
DIMENSION
  5
E0
100
AcDbEntity
  8
Olcu
  6
ByLayer
 62
  256
370
   -1
100
AcDbDimension
  2
*D8
 10
-240
 20
74.99999999999996
 30
0
 11
-244.125
 21
112.4999999999999
 31
0
 70
   32
 71
    5
 72
    0
  3
Standard
 53
0
210
0
220
0
230
1
100
AcDbAlignedDimension
 13
-220
 23
149.9999999999999
 33
0
 14
-140
 24
74.99999999999994
 34
0
 50
90
100
AcDbRotatedDimension
  0
DIMENSION
  5
E1
100
AcDbEntity
  8
Olcu
  6
ByLayer
 62
  256
370
   -1
100
AcDbDimension
  2
*D9
 10
-240
 20
1.2531479250715e-13
 30
0
 11
-244.125
 21
37.50000000000002
 31
0
 70
   32
 71
    5
 72
    0
  3
Standard
 53
0
210
0
220
0
230
1
100
AcDbAlignedDimension
 13
-140
 23
74.99999999999994
 33
0
 14
1.058739334790193e-14
 24
9.592326932761353e-14
 34
0
 50
90
100
AcDbRotatedDimension
  0
DIMENSION
  5
E2
100
AcDbEntity
  8
Olcu
  6
ByLayer
 62
  256
370
   -1
100
AcDbDimension
  2
*D10
 10
-67.00000000000003
 20
150
 30
0
 11
0
 21
0
 31
0
 70
   34
 71
    5
 72
    0
  3
Standard
 53
0
210
0
220
0
230
1
100
AcDb2LineAngularDimension
 13
-220
 23
149.9999999999999
 33
0
 14
-152.5569250436429
 24
102.7758505155163
 34
0
 15
-220
 25
149.9999999999999
 35
0
 16
-150
 26
130
 36
0
  0
DIMENSION
  5
E3
100
AcDbEntity
  8
Olcu
  6
ByLayer
 62
  256
370
   -1
100
AcDbDimension
  2
*D11
 10
17.95554779049429
 20
113
 30
0
 11
0
 21
0
 31
0
 70
   34
 71
    5
 72
    0
  3
Standard
 53
0
210
0
220
0
230
1
100
AcDb2LineAngularDimension
 13
220
 23
150
 33
0
 14
67
 24
150
 34
0
 15
43.53682810628869
 25
116.5952144883376
 35
0
 16
80
 26
130
 36
0
  0
DIMENSION
  5
E4
100
AcDbEntity
  8
Olcu
  6
ByLayer
 62
  256
370
   -1
100
AcDbDimension
  2
*D12
 10
130.2225463982867
 20
150
 30
0
 11
126.0975463982867
 21
125
 31
0
 70
   32
 71
    5
 72
    0
  3
Standard
 53
0
210
0
220
0
230
1
100
AcDbAlignedDimension
 13
0
 23
100
 33
0
 14
67
 24
150
 34
0
 50
90
100
AcDbRotatedDimension
  0
DIMENSION
  5
E5
100
AcDbEntity
  8
Olcu
  6
ByLayer
 62
  256
370
   -1
100
AcDbDimension
  2
*D13
 10
110
 20
150
 30
0
 11
105.875
 21
131.5
 31
0
 70
   32
 71
    5
 72
    0
  3
Standard
 53
0
210
0
220
0
230
1
100
AcDbAlignedDimension
 13
17.95554779049429
 23
113
 33
0
 14
67
 24
150
 34
0
 50
90
100
AcDbRotatedDimension
  0
DIMENSION
  5
E6
100
AcDbEntity
  8
Olcu
  6
ByLayer
 62
  256
370
   -1
100
AcDbDimension
  2
*D14
 10
-40
 20
140
 30
0
 11
-44.125
 21
145.0000000000001
 31
0
 70
   32
 71
    5
 72
    0
  3
Standard
 53
0
210
0
220
0
230
1
100
AcDbAlignedDimension
 13
-67.00000000000003
 23
150
 33
0
 14
-15.11773343832104
 24
140.0000000000001
 34
0
 50
90
100
AcDbRotatedDimension
  0
ENDSEC
  0
SECTION
  2
OBJECTS
  0
DICTIONARY
  5
C
330
0
100
AcDbDictionary
281
    1
  3
ACAD_GROUP
350
D
  0
DICTIONARY
  5
D
330
C
100
AcDbDictionary
281
    1
  0
PLOTSETTINGS
  5
E7
100
AcDbPlotSettings
  6
1x1
 40
0
 41
0
 42
0
 43
0
  0
ENDSEC
  0
EOF
