999
dxfrw 0.6.3
  0
SECTION
  2
HEADER
  9
$ACADVER
  1
AC1021
  9
$DWGCODEPAGE
  3
ANSI_1252
  9
$INSBASE
 10
0
 20
0
 30
0
  9
$EXTMIN
 10
4.595942140242749
 20
-419.7706223982237
 30
0
  9
$EXTMAX
 10
1723.424779039221
 20
339.3600742595922
 30
0
  9
$LIMMIN
 10
0
 20
0
  9
$LIMMAX
 10
420
 20
297
  9
$ORTHOMODE
 70
    0
  9
$REGENMODE
 70
    1
  9
$FILLMODE
 70
    1
  9
$QTEXTMODE
 70
    0
  9
$MIRRTEXT
 70
    0
  9
$LTSCALE
 40
1
  9
$ATTMODE
 70
    0
  9
$TEXTSIZE
 40
2.5
  9
$TRACEWID
 40
15.68
  9
$TEXTSTYLE
  7
STANDARD
  9
$CLAYER
  8
Aciklama
  9
$CELTYPE
  6
BYLAYER
  9
$CECOLOR
 62
  256
  9
$CELTSCALE
 40
1
  9
$DISPSILH
 70
    0
  9
$DIMSCALE
 40
1
  9
$DIMASZ
 40
2.5
  9
$DIMEXO
 40
0.625
  9
$DIMDLI
 40
3.75
  9
$DIMRND
 40
0
  9
$DIMDLE
 40
0
  9
$DIMEXE
 40
1.25
  9
$DIMTP
 40
0
  9
$DIMTM
 40
0
  9
$DIMTXT
 40
2.5
  9
$DIMCEN
 40
2.5
  9
$DIMTSZ
 40
0
  9
$DIMTOL
 70
    0
  9
$DIMLIM
 70
    0
  9
$DIMTIH
 70
    0
  9
$DIMTOH
 70
    0
  9
$DIMSE1
 70
    0
  9
$DIMSE2
 70
    0
  9
$DIMTAD
 70
    1
  9
$DIMZIN
 70
    8
  9
$DIMBLK
  1

  9
$DIMASO
 70
    1
  9
$DIMSHO
 70
    1
  9
$DIMPOST
  1

  9
$DIMAPOST
  1

  9
$DIMALT
 70
    0
  9
$DIMALTD
 70
    3
  9
$DIMALTF
 40
0.03937
  9
$DIMLFAC
 40
1
  9
$DIMTOFL
 70
    1
  9
$DIMTVP
 40
0
  9
$DIMTIX
 70
    0
  9
$DIMSOXD
 70
    0
  9
$DIMSAH
 70
    0
  9
$DIMBLK1
  1

  9
$DIMBLK2
  1

  9
$DIMSTYLE
  2
STANDARD
  9
$DIMCLRD
 70
    0
  9
$DIMCLRE
 70
    0
  9
$DIMCLRT
 70
    0
  9
$DIMTFAC
 40
1
  9
$DIMGAP
 40
0.625
  9
$DIMJUST
 70
    0
  9
$DIMSD1
 70
    0
  9
$DIMSD2
 70
    0
  9
$DIMTOLJ
 70
    0
  9
$DIMTZIN
 70
    8
  9
$DIMALTZ
 70
    0
  9
$DIMALTTZ
 70
    0
  9
$DIMUPT
 70
    0
  9
$DIMDEC
 70
    2
  9
$DIMTDEC
 70
    2
  9
$DIMALTU
 70
    2
  9
$DIMALTTD
 70
    3
  9
$DIMTXSTY
  7
STANDARD
  9
$DIMAUNIT
 70
    0
  9
$DIMADEC
 70
    0
  9
$DIMALTRND
 40
0
  9
$DIMAZIN
 70
    0
  9
$DIMDSEP
 70
   44
  9
$DIMATFIT
 70
    3
  9
$DIMFRAC
 70
    0
  9
$DIMLDRBLK
  1
STANDARD
  9
$DIMLUNIT
 70
    2
  9
$DIMLWD
 70
   -2
  9
$DIMLWE
 70
   -2
  9
$DIMTMOVE
 70
    0
  9
$DIMFXL
 40
1
  9
$DIMFXLON
 70
    0
  9
$DIMJOGANG
 40
0.7854
  9
$DIMTFILL
 70
    0
  9
$DIMTFILLCLR
 70
    0
  9
$DIMARCSYM
 70
    0
  9
$DIMLTYPE
  6

  9
$DIMLTEX1
  6

  9
$DIMLTEX2
  6

  9
$LUNITS
 70
    2
  9
$LUPREC
 70
    4
  9
$SKETCHINC
 40
1
  9
$FILLETRAD
 40
0
  9
$AUNITS
 70
    0
  9
$AUPREC
 70
    2
  9
$MENU
  1
.
  9
$ELEVATION
 40
0
  9
$PELEVATION
 40
0
  9
$THICKNESS
 40
0
  9
$LIMCHECK
 70
    0
  9
$CHAMFERA
 40
0
  9
$CHAMFERB
 40
0
  9
$CHAMFERC
 40
0
  9
$CHAMFERD
 40
0
  9
$SKPOLY
 70
    0
  9
$USRTIMER
 70
    1
  9
$ANGBASE
 50
0
  9
$ANGDIR
 70
    0
  9
$PDMODE
 70
   34
  9
$PDSIZE
 40
0
  9
$PLINEWID
 40
0
  9
$SPLFRAME
 70
    0
  9
$SPLINETYPE
 70
    2
  9
$SPLINESEGS
 70
    8
  9
$HANDSEED
  5
20000
  9
$SURFTAB1
 70
    6
  9
$SURFTAB2
 70
    6
  9
$SURFTYPE
 70
    6
  9
$SURFU
 70
    6
  9
$SURFV
 70
    6
  9
$UCSBASE
  2

  9
$UCSNAME
  2

  9
$UCSORG
 10
0
 20
0
 30
0
  9
$UCSXDIR
 10
1
 20
0
 30
0
  9
$UCSYDIR
 10
0
 20
1
 30
0
  9
$UCSORTHOREF
  2

  9
$UCSORTHOVIEW
 70
    0
  9
$UCSORGTOP
 10
0
 20
0
 30
0
  9
$UCSORGBOTTOM
 10
0
 20
0
 30
0
  9
$UCSORGLEFT
 10
0
 20
0
 30
0
  9
$UCSORGRIGHT
 10
0
 20
0
 30
0
  9
$UCSORGFRONT
 10
0
 20
0
 30
0
  9
$UCSORGBACK
 10
0
 20
0
 30
0
  9
$PUCSBASE
  2

  9
$PUCSNAME
  2

  9
$PUCSORG
 10
0
 20
0
 30
0
  9
$PUCSXDIR
 10
1
 20
0
 30
0
  9
$PUCSYDIR
 10
0
 20
1
 30
0
  9
$PUCSORTHOREF
  2

  9
$PUCSORTHOVIEW
 70
    0
  9
$PUCSORGTOP
 10
0
 20
0
 30
0
  9
$PUCSORGBOTTOM
 10
0
 20
0
 30
0
  9
$PUCSORGLEFT
 10
0
 20
0
 30
0
  9
$PUCSORGRIGHT
 10
0
 20
0
 30
0
  9
$PUCSORGFRONT
 10
0
 20
0
 30
0
  9
$PUCSORGBACK
 10
0
 20
0
 30
0
  9
$USERI1
 70
    0
  9
$USERI2
 70
    0
  9
$USERI3
 70
    0
  9
$USERI4
 70
    0
  9
$USERI5
 70
    0
  9
$USERR1
 40
0
  9
$USERR2
 40
0
  9
$USERR3
 40
0
  9
$USERR4
 40
0
  9
$USERR5
 40
0
  9
$WORLDVIEW
 70
    1
  9
$SHADEDGE
 70
    3
  9
$SHADEDIF
 70
   70
  9
$TILEMODE
 70
    1
  9
$MAXACTVP
 70
   64
  9
$PINSBASE
 10
0
 20
0
 30
0
  9
$PLIMCHECK
 70
    0
  9
$PEXTMIN
 10
0
 20
0
 30
0
  9
$PEXTMAX
 10
0
 20
0
 30
0
  9
$GRIDMODE
 70
    1
  9
$SNAPSTYLE
 70
    0
  9
$PLIMMIN
 10
0
 20
0
  9
$PLIMMAX
 10
297
 20
210
  9
$UNITMODE
 70
    0
  9
$VISRETAIN
 70
    1
  9
$PLINEGEN
 70
    0
  9
$PSLTSCALE
 70
    1
  9
$TREEDEPTH
 70
 3020
  9
$CMLSTYLE
  2
Standard
  9
$CMLJUST
 70
    0
  9
$CMLSCALE
 40
20
  9
$PROXYGRAPHICS
 70
    1
  9
$MEASUREMENT
 70
    1
  9
$CELWEIGHT
370
   -1
  9
$ENDCAPS
280
    0
  9
$JOINSTYLE
280
    0
  9
$LWDISPLAY
290
    0
  9
$INSUNITS
 70
    4
  9
$HYPERLINKBASE
  1

  9
$STYLESHEET
  1

  9
$XEDIT
290
    1
  9
$CEPSNTYPE
380
    0
  9
$PSTYLEMODE
290
    1
  9
$EXTNAMES
290
    1
  9
$PSVPSCALE
 40
1
  9
$OLESTARTUP
290
    0
  9
$SORTENTS
280
  127
  9
$INDEXCTL
280
    0
  9
$HIDETEXT
280
    1
  9
$XCLIPFRAME
290
    0
  9
$HALOGAP
280
    0
  9
$OBSCOLOR
 70
  257
  9
$OBSLTYPE
280
    0
  9
$INTERSECTIONDISPLAY
280
    0
  9
$INTERSECTIONCOLOR
 70
  257
  9
$DIMASSOC
280
    1
  9
$PROJECTNAME
  1

  9
$CAMERADISPLAY
290
    0
  9
$LENSLENGTH
 40
50
  9
$CAMERAHEIGHT
 40
0
  9
$STEPSPERSEC
 40
2
  9
$STEPSIZE
 40
50
  9
$3DDWFPREC
 40
2
  9
$PSOLWIDTH
 40
5
  9
$PSOLHEIGHT
 40
80
  9
$LOFTANG1
 40
1.570796326794897
  9
$LOFTANG2
 40
1.570796326794897
  9
$LOFTMAG1
 40
0
  9
$LOFTMAG2
 40
0
  9
$LOFTPARAM
 70
    7
  9
$LOFTNORMALS
280
    1
  9
$LATITUDE
 40
1
  9
$LONGITUDE
 40
1
  9
$NORTHDIRECTION
 40
0
  9
$TIMEZONE
 70
-8000
  9
$LIGHTGLYPHDISPLAY
280
    1
  9
$TILEMODELIGHTSYNCH
280
    1
  9
$SOLIDHIST
280
    1
  9
$SHOWHIST
280
    1
  9
$DWFFRAME
280
    2
  9
$DGNFRAME
280
    0
  9
$REALWORLDSCALE
290
    1
  9
$INTERFERECOLOR
 62
    1
  9
$CSHADOW
280
    0
  9
$SHADOWPLANELOCATION
 40
0
  0
ENDSEC
  0
SECTION
  2
CLASSES
  0
ENDSEC
  0
SECTION
  2
TABLES
  0
TABLE
  2
VPORT
  5
8
330
0
100
AcDbSymbolTable
 70
    1
  0
VPORT
  5
31
330
2
100
AcDbSymbolTableRecord
100
AcDbViewportTableRecord
  2
*ACTIVE
 70
    0
 10
0
 20
0
 11
1
 21
1
 12
867.9690795826003
 22
320.4707670634771
 13
0
 23
0
 14
10
 24
10
 15
10
 25
10
 16
0
 26
0
 36
1
 17
0
 27
0
 37
0
 40
1116.054252442828
 41
1.563679245283019
 42
50
 43
0
 44
0
 50
0
 51
0
 71
    0
 72
  100
 73
    1
 74
    3
 75
    0
 76
    1
 77
    0
 78
    0
281
    0
 65
    1
110
0
120
0
130
0
111
1
121
0
131
0
112
0
122
1
132
0
 79
    0
146
0
348
10020
 60
    7
 61
    5
292
1
282
    1
141
0
142
0
 63
  250
421
3358443
  0
ENDTAB
  0
TABLE
  2
LTYPE
  5
5
330
0
100
AcDbSymbolTable
 70
    4
  0
LTYPE
  5
14
330
5
100
AcDbSymbolTableRecord
100
AcDbLinetypeTableRecord
  2
ByBlock
 70
    0
  3

 72
   65
 73
    0
 40
0
  0
LTYPE
  5
15
330
5
100
AcDbSymbolTableRecord
100
AcDbLinetypeTableRecord
  2
ByLayer
 70
    0
  3

 72
   65
 73
    0
 40
0
  0
LTYPE
  5
16
330
5
100
AcDbSymbolTableRecord
100
AcDbLinetypeTableRecord
  2
Continuous
 70
    0
  3
Solid line
 72
   65
 73
    0
 40
0
  0
LTYPE
  5
32
330
5
100
AcDbSymbolTableRecord
100
AcDbLinetypeTableRecord
  2
DOT
 70
    0
  3
Dot . . . . . . . . . . . . . . . . . . . . . .
 72
   65
 73
    2
 40
6.35
 49
0
 74
    0
 49
-6.35
 74
    0
  0
LTYPE
  5
33
330
5
100
AcDbSymbolTableRecord
100
AcDbLinetypeTableRecord
  2
DOTTINY
 70
    0
  3
Dot (.15x) .....................................
 72
   65
 73
    2
 40
0.9525
 49
0
 74
    0
 49
-0.9525
 74
    0
  0
LTYPE
  5
34
330
5
100
AcDbSymbolTableRecord
100
AcDbLinetypeTableRecord
  2
DOT2
 70
    0
  3
Dot (.5x) .....................................
 72
   65
 73
    2
 40
3.175
 49
0
 74
    0
 49
-3.175
 74
    0
  0
LTYPE
  5
35
330
5
100
AcDbSymbolTableRecord
100
AcDbLinetypeTableRecord
  2
DOTX2
 70
    0
  3
Dot (2x) .  .  .  .  .  .  .  .  .  .  .  .  .
 72
   65
 73
    2
 40
12.7
 49
0
 74
    0
 49
-12.7
 74
    0
  0
LTYPE
  5
36
330
5
100
AcDbSymbolTableRecord
100
AcDbLinetypeTableRecord
  2
DASHED
 70
    0
  3
Dashed _ _ _ _ _ _ _ _ _ _ _ _ _ _ _ _ _
 72
   65
 73
    2
 40
19.05
 49
12.7
 74
    0
 49
-6.35
 74
    0
  0
LTYPE
  5
37
330
5
100
AcDbSymbolTableRecord
100
AcDbLinetypeTableRecord
  2
DASHEDTINY
 70
    0
  3
Dashed (.15x) _ _ _ _ _ _ _ _ _ _ _ _ _ _ _ _ _
 72
   65
 73
    2
 40
2.8575
 49
1.905
 74
    0
 49
-0.9525
 74
    0
  0
LTYPE
  5
38
330
5
100
AcDbSymbolTableRecord
100
AcDbLinetypeTableRecord
  2
DASHED2
 70
    0
  3
Dashed (.5x) _ _ _ _ _ _ _ _ _ _ _ _ _ _ _ _ _
 72
   65
 73
    2
 40
9.524999999999999
 49
6.35
 74
    0
 49
-3.175
 74
    0
  0
LTYPE
  5
39
330
5
100
AcDbSymbolTableRecord
100
AcDbLinetypeTableRecord
  2
DASHEDX2
 70
    0
  3
Dashed (2x) ____  ____  ____  ____  ____  ___
 72
   65
 73
    2
 40
38.09999999999999
 49
25.4
 74
    0
 49
-12.7
 74
    0
  0
LTYPE
  5
3A
330
5
100
AcDbSymbolTableRecord
100
AcDbLinetypeTableRecord
  2
DASHDOT
 70
    0
  3
Dash dot __ . __ . __ . __ . __ . __ . __ . __
 72
   65
 73
    4
 40
25.4
 49
12.7
 74
    0
 49
-6.35
 74
    0
 49
0
 74
    0
 49
-6.35
 74
    0
  0
LTYPE
  5
3B
330
5
100
AcDbSymbolTableRecord
100
AcDbLinetypeTableRecord
  2
DASHDOTTINY
 70
    0
  3
Dash dot (.15x) _._._._._._._._._._._._._._._.
 72
   65
 73
    4
 40
3.81
 49
1.905
 74
    0
 49
-0.9525
 74
    0
 49
0
 74
    0
 49
-0.9525
 74
    0
  0
LTYPE
  5
3C
330
5
100
AcDbSymbolTableRecord
100
AcDbLinetypeTableRecord
  2
DASHDOT2
 70
    0
  3
Dash dot (.5x) _._._._._._._._._._._._._._._.
 72
   65
 73
    4
 40
12.7
 49
6.35
 74
    0
 49
-3.175
 74
    0
 49
0
 74
    0
 49
-3.175
 74
    0
  0
LTYPE
  5
3D
330
5
100
AcDbSymbolTableRecord
100
AcDbLinetypeTableRecord
  2
DASHDOTX2
 70
    0
  3
Dash dot (2x) ____  .  ____  .  ____  .  ___
 72
   65
 73
    4
 40
50.8
 49
25.4
 74
    0
 49
-12.7
 74
    0
 49
0
 74
    0
 49
-12.7
 74
    0
  0
LTYPE
  5
3E
330
5
100
AcDbSymbolTableRecord
100
AcDbLinetypeTableRecord
  2
DIVIDE
 70
    0
  3
Divide ____ . . ____ . . ____ . . ____ . . ____
 72
   65
 73
    6
 40
31.75
 49
12.7
 74
    0
 49
-6.35
 74
    0
 49
0
 74
    0
 49
-6.35
 74
    0
 49
0
 74
    0
 49
-6.35
 74
    0
  0
LTYPE
  5
3F
330
5
100
AcDbSymbolTableRecord
100
AcDbLinetypeTableRecord
  2
DIVIDETINY
 70
    0
  3
Divide (.15x) __..__..__..__..__..__..__..__.._
 72
   65
 73
    6
 40
4.7625
 49
1.905
 74
    0
 49
-0.9525
 74
    0
 49
0
 74
    0
 49
-0.9525
 74
    0
 49
0
 74
    0
 49
-0.9525
 74
    0
  0
LTYPE
  5
40
330
5
100
AcDbSymbolTableRecord
100
AcDbLinetypeTableRecord
  2
DIVIDE2
 70
    0
  3
Divide (.5x) __..__..__..__..__..__..__..__.._
 72
   65
 73
    6
 40
15.875
 49
6.35
 74
    0
 49
-3.175
 74
    0
 49
0
 74
    0
 49
-3.175
 74
    0
 49
0
 74
    0
 49
-3.175
 74
    0
  0
LTYPE
  5
41
330
5
100
AcDbSymbolTableRecord
100
AcDbLinetypeTableRecord
  2
DIVIDEX2
 70
    0
  3
Divide (2x) ________  .  .  ________  .  .  _
 72
   65
 73
    6
 40
63.5
 49
25.4
 74
    0
 49
-12.7
 74
    0
 49
0
 74
    0
 49
-12.7
 74
    0
 49
0
 74
    0
 49
-12.7
 74
    0
  0
LTYPE
  5
42
330
5
100
AcDbSymbolTableRecord
100
AcDbLinetypeTableRecord
  2
BORDER
 70
    0
  3
Border __ __ . __ __ . __ __ . __ __ . __ __ .
 72
   65
 73
    6
 40
44.45
 49
12.7
 74
    0
 49
-6.35
 74
    0
 49
12.7
 74
    0
 49
-6.35
 74
    0
 49
0
 74
    0
 49
-6.35
 74
    0
  0
LTYPE
  5
43
330
5
100
AcDbSymbolTableRecord
100
AcDbLinetypeTableRecord
  2
BORDERTINY
 70
    0
  3
Border (.15x) __.__.__.__.__.__.__.__.__.__.__.
 72
   65
 73
    6
 40
6.6675
 49
1.905
 74
    0
 49
-0.9525
 74
    0
 49
1.905
 74
    0
 49
-0.9525
 74
    0
 49
0
 74
    0
 49
-0.9525
 74
    0
  0
LTYPE
  5
44
330
5
100
AcDbSymbolTableRecord
100
AcDbLinetypeTableRecord
  2
BORDER2
 70
    0
  3
Border (.5x) __.__.__.__.__.__.__.__.__.__.__.
 72
   65
 73
    6
 40
22.225
 49
6.35
 74
    0
 49
-3.175
 74
    0
 49
6.35
 74
    0
 49
-3.175
 74
    0
 49
0
 74
    0
 49
-3.175
 74
    0
  0
LTYPE
  5
45
330
5
100
AcDbSymbolTableRecord
100
AcDbLinetypeTableRecord
  2
BORDERX2
 70
    0
  3
Border (2x) ____  ____  .  ____  ____  .  ___
 72
   65
 73
    6
 40
88.89999999999999
 49
25.4
 74
    0
 49
-12.7
 74
    0
 49
25.4
 74
    0
 49
-12.7
 74
    0
 49
0
 74
    0
 49
-12.7
 74
    0
  0
LTYPE
  5
46
330
5
100
AcDbSymbolTableRecord
100
AcDbLinetypeTableRecord
  2
CENTER
 70
    0
  3
Center ____ _ ____ _ ____ _ ____ _ ____ _ ____
 72
   65
 73
    4
 40
50.8
 49
31.75
 74
    0
 49
-6.35
 74
    0
 49
6.35
 74
    0
 49
-6.35
 74
    0
  0
LTYPE
  5
47
330
5
100
AcDbSymbolTableRecord
100
AcDbLinetypeTableRecord
  2
CENTERTINY
 70
    0
  3
Center (.15x) ___ _ ___ _ ___ _ ___ _ ___ _ ___
 72
   65
 73
    4
 40
7.62
 49
4.7625
 74
    0
 49
-0.9525
 74
    0
 49
0.9525
 74
    0
 49
-0.9525
 74
    0
  0
LTYPE
  5
48
330
5
100
AcDbSymbolTableRecord
100
AcDbLinetypeTableRecord
  2
CENTER2
 70
    0
  3
Center (.5x) ___ _ ___ _ ___ _ ___ _ ___ _ ___
 72
   65
 73
    4
 40
28.575
 49
19.05
 74
    0
 49
-3.175
 74
    0
 49
3.175
 74
    0
 49
-3.175
 74
    0
  0
LTYPE
  5
49
330
5
100
AcDbSymbolTableRecord
100
AcDbLinetypeTableRecord
  2
CENTERX2
 70
    0
  3
Center (2x) ________  __  ________  __  _____
 72
   65
 73
    4
 40
101.6
 49
63.5
 74
    0
 49
-12.7
 74
    0
 49
12.7
 74
    0
 49
-12.7
 74
    0
  0
ENDTAB
  0
TABLE
  2
LAYER
  5
2
330
0
100
AcDbSymbolTable
 70
    1
  0
LAYER
  5
10
330
2
100
AcDbSymbolTableRecord
100
AcDbLayerTableRecord
  2
0
 70
    5
 62
    7
  6
CONTINUOUS
370
    0
390
F
  0
LAYER
  5
4A
330
2
100
AcDbSymbolTableRecord
100
AcDbLayerTableRecord
  2
Aciklama
 70
    0
 62
    4
  6
CONTINUOUS
370
    0
390
F
  0
LAYER
  5
4B
330
2
100
AcDbSymbolTableRecord
100
AcDbLayerTableRecord
  2
Cizim
 70
    0
 62
    2
  6
CONTINUOUS
370
  100
390
F
  0
ENDTAB
  0
TABLE
  2
STYLE
  5
3
330
0
100
AcDbSymbolTable
 70
    3
  0
STYLE
  5
4C
330
2
100
AcDbSymbolTableRecord
100
AcDbTextStyleTableRecord
  2
OpenGostTypeA-Regular
 70
    0
 40
0
 41
1
 50
0
 71
    0
 42
1
  3
OpenGostTypeA-Regular
  4

  0
STYLE
  5
4D
330
2
100
AcDbSymbolTableRecord
100
AcDbTextStyleTableRecord
  2
Standard
 70
    0
 40
0
 41
1
 50
0
 71
    0
 42
1
  3
txt
  4

  0
ENDTAB
  0
TABLE
  2
VIEW
  5
6
330
0
100
AcDbSymbolTable
 70
    0
  0
ENDTAB
  0
TABLE
  2
UCS
  5
7
330
0
100
AcDbSymbolTable
 70
    0
  0
ENDTAB
  0
TABLE
  2
APPID
  5
9
330
0
100
AcDbSymbolTable
 70
    1
  0
APPID
  5
12
330
9
100
AcDbSymbolTableRecord
100
AcDbRegAppTableRecord
  2
ACAD
 70
    0
  0
APPID
  5
4E
330
9
100
AcDbSymbolTableRecord
100
AcDbRegAppTableRecord
  2
LibreCad
 70
    0
  0
ENDTAB
  0
TABLE
  2
DIMSTYLE
  5
A
330
0
100
AcDbSymbolTable
 70
    1
100
AcDbDimStyleTable
 71
    1
  0
DIMSTYLE
105
4F
330
A
100
AcDbSymbolTableRecord
100
AcDbDimStyleTableRecord
  2
Standard
 70
    0
 40
1
 41
2.5
 42
0.625
 43
0.38
 44
1.25
 45
0
 46
0
 47
0
 48
0
 49
1
140
2.5
141
0.09
142
0
143
25.4
144
1
145
0
146
1
147
0.625
148
0
 71
    0
 72
    0
 73
    0
 74
    1
 75
    0
 76
    0
 77
    0
 78
    8
 79
    0
170
    0
171
    2
172
    0
173
    0
174
    0
175
    0
176
    0
177
    0
178
    0
179
    0
271
    2
272
    4
273
    2
274
    2
275
    0
276
    0
277
    2
278
   44
279
    0
280
    0
281
    0
282
    0
283
    1
284
    0
285
    0
286
    0
288
    0
289
    3
340
STANDARD
341

371
   -2
372
   -2
  0
ENDTAB
  0
TABLE
  2
BLOCK_RECORD
  5
1
330
0
100
AcDbSymbolTable
 70
    2
  0
BLOCK_RECORD
  5
1F
330
1
100
AcDbSymbolTableRecord
100
AcDbBlockTableRecord
  2
*Model_Space
 70
    0
280
    1
281
    0
  0
BLOCK_RECORD
  5
1E
330
1
100
AcDbSymbolTableRecord
100
AcDbBlockTableRecord
  2
*Paper_Space
 70
    0
280
    1
281
    0
  0
ENDTAB
  0
ENDSEC
  0
SECTION
  2
BLOCKS
  0
BLOCK
  5
20
330
1F
100
AcDbEntity
  8
0
100
AcDbBlockBegin
  2
*Model_Space
 70
    0
 10
0
 20
0
 30
0
  3
*Model_Space
  1

  0
ENDBLK
  5
21
330
1F
100
AcDbEntity
  8
0
100
AcDbBlockEnd
  0
BLOCK
  5
1C
330
1B
100
AcDbEntity
  8
0
100
AcDbBlockBegin
  2
*Paper_Space
 70
    0
 10
0
 20
0
 30
0
  3
*Paper_Space
  1

  0
ENDBLK
  5
1D
330
1F
100
AcDbEntity
  8
0
100
AcDbBlockEnd
  0
ENDSEC
  0
SECTION
  2
ENTITIES
  0
IMAGE
  5
52
100
AcDbEntity
  8
0
  6
ByLayer
 62
  256
370
   -1
100
AcDbRasterImage
 10
0
 20
0
 30
0
 11
1
 21
0
 31
0
 12
6.123031769111886e-017
 22
1
 32
0
 13
1734
 23
354
340
50
 70
    1
280
    0
281
   50
282
   50
283
    0
360
51
  0
LINE
  5
53
100
AcDbEntity
  8
Cizim
  6
ByLayer
 62
  256
370
   -1
100
AcDbLine
 10
4.595942140242749
 20
150.41265186249
 11
199.7145766396395
 21
68.10350625996074
  0
LINE
  5
54
100
AcDbEntity
  8
Cizim
  6
ByLayer
 62
  256
370
   -1
100
AcDbLine
 10
199.7145766396395
 20
68.10350625996074
 11
212.6667772166872
 21
172.138923798183
  0
LINE
  5
55
100
AcDbEntity
  8
Cizim
  6
ByLayer
 62
  256
370
   -1
100
AcDbLine
 10
153.3373423153717
 20
198.0433249522785
 11
483.9014915843359
 21
305.1442306238886
  0
LINE
  5
56
100
AcDbEntity
  8
Cizim
  6
ByLayer
 62
  256
370
   -1
100
AcDbLine
 10
212.6667772166872
 20
172.138923798183
 11
651.4864237347552
 21
217.8604117955452
  0
LINE
  5
57
100
AcDbEntity
  8
Cizim
  6
ByLayer
 62
  256
370
   -1
100
AcDbLine
 10
4.595942140242749
 20
150.41265186249
 11
100.6929141635002
 21
224.7833519500545
  0
LINE
  5
58
100
AcDbEntity
  8
Cizim
  6
ByLayer
 62
  256
370
   -1
100
AcDbLine
 10
212.6667772166872
 20
172.138923798183
 11
153.3373423153717
 21
198.0433249522785
  0
LINE
  5
59
100
AcDbEntity
  8
Cizim
  6
ByLayer
 62
  256
370
   -1
100
AcDbLine
 10
153.3373423153717
 20
198.0433249522785
 11
68.10350625996074
 21
200.9680154051602
  0
LINE
  5
5A
100
AcDbEntity
  8
Cizim
  6
ByLayer
 62
  256
370
   -1
100
AcDbLine
 10
1663.353086382238
 20
19.02894750652245
 11
1717.854399359303
 21
75.35708643712402
  0
LINE
  5
5B
100
AcDbEntity
  8
Cizim
  6
ByLayer
 62
  256
370
   -1
100
AcDbLine
 10
1641.798269179271
 20
12.81198607042593
 11
1496.22865853718
 21
48.47707955796466
  0
LINE
  5
5C
100
AcDbEntity
  8
Cizim
  6
ByLayer
 62
  256
370
   -1
100
AcDbLine
 10
896.5108178186729
 20
153.3388500918401
 11
970.2705697992635
 21
148.7116425537564
  0
ARC
  5
5D
100
AcDbEntity
  8
Cizim
  6
ByLayer
 62
  256
370
   -1
100
AcDbCircle
 10
715.5391527115448
 20
-2617.973623969531
 40
2778.387204629432
100
AcDbArc
 50
73.68090457082914
 51
84.73955250186535
  0
LINE
  5
5E
100
AcDbEntity
  8
Cizim
  6
ByLayer
 62
  256
370
   -1
100
AcDbLine
 10
687.2974884822773
 20
107.3611901583145
 11
754.4150646772499
 21
113.180633181
  0
LINE
  5
5F
100
AcDbEntity
  8
Cizim
  6
ByLayer
 62
  256
370
   -1
100
AcDbLine
 10
663.1576780629561
 20
114.3223921715182
 11
199.7145766396395
 21
68.10350625996072
  0
ARC
  5
60
100
AcDbEntity
  8
Cizim
  6
ByLayer
 62
  256
370
   -1
100
AcDbCircle
 10
666.5171832274942
 20
80.63617360535675
 40
33.85332474422207
100
AcDbArc
 50
52.13278991702306
 51
95.69523997276117
  0
ARC
  5
61
100
AcDbEntity
  8
Cizim
  6
ByLayer
 62
  256
370
   -1
100
AcDbCircle
 10
1703.625000000049
 20
89.12500000000256
 40
19.79977903917169
100
AcDbArc
 50
315.9443000917403
 51
57.29769968721077
  0
ARC
  5
62
100
AcDbEntity
  8
Cizim
  6
ByLayer
 62
  256
370
   -1
100
AcDbCircle
 10
1647.160117065866
 20
34.69674881320012
 40
22.53202727378282
100
AcDbArc
 50
256.2334533726737
 51
315.9443200935767
  0
LINE
  5
63
100
AcDbEntity
  8
Cizim
  6
ByLayer
 62
  256
370
   -1
100
AcDbLine
 10
862.938862365958
 20
112.1012430584078
 11
872.0084466524444
 21
78.92770159447052
  0
LINE
  5
64
100
AcDbEntity
  8
Cizim
  6
ByLayer
 62
  256
370
   -1
100
AcDbLine
 10
865.179203054062
 20
64.0623817790501
 11
850.9355305571012
 21
57.31108724493043
  0
LINE
  5
65
100
AcDbEntity
  8
Cizim
  6
ByLayer
 62
  256
370
   -1
100
AcDbLine
 10
762.4990833554446
 20
111.4659030616843
 11
837.796162356626
 21
58.43698888662286
  0
ARC
  5
66
100
AcDbEntity
  8
Cizim
  6
ByLayer
 62
  256
370
   -1
100
AcDbCircle
 10
756.4547507297639
 20
102.8834042814371
 40
10.49729689981245
100
AcDbArc
 50
54.84439700921479
 51
101.204175338925
  0
ARC
  5
67
100
AcDbEntity
  8
Cizim
  6
ByLayer
 62
  256
370
   -1
100
AcDbCircle
 10
845.3308469004563
 20
69.13567555919624
 40
13.08561682508446
100
AcDbArc
 50
234.8443402413716
 51
295.3602744006478
  0
ARC
  5
68
100
AcDbEntity
  8
Cizim
  6
ByLayer
 62
  256
370
   -1
100
AcDbCircle
 10
859.7250254080493
 20
75.56943716486278
 40
12.73422072395579
100
AcDbArc
 50
295.3602744006478
 51
375.2908889903766
  0
ARC
  5
69
100
AcDbEntity
  8
Cizim
  6
ByLayer
 62
  256
370
   -1
100
AcDbCircle
 10
894.4645422638697
 20
120.7203050700331
 40
32.68266701151902
100
AcDbArc
 50
86.41033920495718
 51
195.2908889903765
  0
LINE
  5
6A
100
AcDbEntity
  8
Cizim
  6
ByLayer
 62
  256
370
   -1
100
AcDbLine
 10
100.6929141635002
 20
224.7833519500545
 11
182.7611413587666
 21
250.726735877673
  0
LINE
  5
6B
100
AcDbEntity
  8
Cizim
  6
ByLayer
 62
  256
370
   -1
100
AcDbLine
 10
1714.322307900507
 20
105.7862980791683
 11
1655.429066315721
 21
144.8981289648927
  0
ARC
  5
6C
100
AcDbEntity
  8
Cizim
  6
ByLayer
 62
  256
370
   -1
100
AcDbCircle
 10
834.4894417613166
 20
-2101.062762767218
 40
2440.42283702681
100
AcDbArc
 50
84.39919985594686
 51
105.4891258067131
  0
ARC
  5
6D
100
AcDbEntity
  8
Cizim
  6
ByLayer
 62
  256
370
   -1
100
AcDbCircle
 10
943.3873869958556
 20
-1104.668334985232
 40
1438.200160241081
100
AcDbArc
 50
60.32416980135078
 51
84.84273318982346
  0
ARC
  5
6E
100
AcDbEntity
  8
Cizim
  6
ByLayer
 62
  256
370
   -1
100
AcDbCircle
 10
657.7431209788066
 20
165.8140428610462
 40
52.42109098129969
100
AcDbArc
 50
40.71624764360585
 51
96.85485497425731
  0
ARC
  5
6F
100
AcDbEntity
  8
Cizim
  6
ByLayer
 62
  256
370
   -1
100
AcDbCircle
 10
542.3434336162819
 20
42.7937398127376
 40
220.8679485978853
100
AcDbArc
 50
18.50085628978466
 51
45.38210258461414
  0
ARC
  5
70
100
AcDbEntity
  8
Cizim
  6
ByLayer
 62
  256
370
   -1
100
AcDbCircle
 10
834.4894417613166
 20
-2101.062762767218
 40
2431.613457326959
100
AcDbArc
 50
84.39919985594686
 51
98.28974821326601
  0
ARC
  5
71
100
AcDbEntity
  8
Cizim
  6
ByLayer
 62
  256
370
   -1
100
AcDbCircle
 10
943.3873869958556
 20
-1104.668334985232
 40
1429.39078054123
100
AcDbArc
 50
60.32416980135078
 51
84.84273318982346
  0
LINE
  5
72
100
AcDbEntity
  8
Cizim
  6
ByLayer
 62
  256
370
   -1
100
AcDbLine
 10
1709.4600797208
 20
98.46492313089448
 11
1650.566838136013
 21
137.5767540166188
  0
ARC
  5
73
100
AcDbEntity
  8
Cizim
  6
ByLayer
 62
  256
370
   -1
100
AcDbCircle
 10
1703.625000000049
 20
89.12500000000256
 40
11.01093417737368
100
AcDbArc
 50
315.9443000917403
 51
57.29769968721077
  0
LINE
  5
74
100
AcDbEntity
  8
Cizim
  6
ByLayer
 62
  256
370
   -1
100
AcDbLine
 10
1657.03685511533
 20
25.14033168588205
 11
1711.538168092395
 21
81.46847061648363
  0
ARC
  5
75
100
AcDbEntity
  8
Cizim
  6
ByLayer
 62
  256
370
   -1
100
AcDbCircle
 10
1647.160117065866
 20
34.69674881320012
 40
13.74318241198208
100
AcDbArc
 50
256.2334533726737
 51
315.9443200935767
  0
LINE
  5
76
100
AcDbEntity
  8
Cizim
  6
ByLayer
 62
  256
370
   -1
100
AcDbLine
 10
1643.889712114045
 20
21.34835886309756
 11
1498.320101471953
 21
57.01345235063629
  0
ARC
  5
77
100
AcDbEntity
  8
Cizim
  6
ByLayer
 62
  256
370
   -1
100
AcDbCircle
 10
715.5391527115448
 20
-2617.973623969531
 40
2787.167356335489
100
AcDbArc
 50
73.68090457082914
 51
84.73955250186535
  0
LINE
  5
78
100
AcDbEntity
  8
Cizim
  6
ByLayer
 62
  256
370
   -1
100
AcDbLine
 10
897.060313103195
 20
162.0980500125844
 11
970.8200650837856
 21
157.4708424745006
  0
ARC
  5
79
100
AcDbEntity
  8
Cizim
  6
ByLayer
 62
  256
370
   -1
100
AcDbCircle
 10
894.4645422638697
 20
120.7203050700331
 40
41.45908588935743
100
AcDbArc
 50
86.41033920495718
 51
195.2908889903765
  0
ARC
  5
7A
100
AcDbEntity
  8
Cizim
  6
ByLayer
 62
  256
370
   -1
100
AcDbCircle
 10
845.4212263383133
 20
70.19041130855466
 40
5
100
AcDbArc
 50
234.8443970092153
 51
295.3602744006478
  0
LINE
  5
7B
100
AcDbEntity
  8
Cizim
  6
ByLayer
 62
  256
370
   -1
100
AcDbLine
 10
860.5710385837325
 20
71.83797995533907
 11
847.5627698863029
 21
65.67224893519273
  0
LINE
  5
7C
100
AcDbEntity
  8
Cizim
  6
ByLayer
 62
  256
370
   -1
100
AcDbLine
 10
854.473134275432
 20
109.7867288077371
 11
863.2524918687127
 21
77.67474065615514
  0
ARC
  5
7D
100
AcDbEntity
  8
Cizim
  6
ByLayer
 62
  256
370
   -1
100
AcDbCircle
 10
858.4294950357429
 20
76.35614232870105
 40
5
100
AcDbArc
 50
295.3602744006475
 51
15.29088899037659
  0
LINE
  5
7E
100
AcDbEntity
  8
Cizim
  6
ByLayer
 62
  256
370
   -1
100
AcDbLine
 10
756.2416645485944
 20
113.3785382244703
 11
771.5972118283186
 21
113.6903069877244
  0
LINE
  5
7F
100
AcDbEntity
  8
Cizim
  6
ByLayer
 62
  256
370
   -1
100
AcDbLine
 10
777.5581928947511
 20
111.8682806308056
 11
842.5422315440494
 21
66.10245473165699
  0
ARC
  5
80
100
AcDbEntity
  8
Cizim
  6
ByLayer
 62
  256
370
   -1
100
AcDbCircle
 10
771.8002033062231
 20
103.6923674770103
 40
10
100
AcDbArc
 50
54.84439700921479
 51
91.16313538480284
  0
ARC
  5
81
100
AcDbEntity
  8
Cizim
  6
ByLayer
 62
  256
370
   -1
100
AcDbCircle
 10
880.7247602994885
 20
-3274.93737182441
 40
3602.006799935636
100
AcDbArc
 50
96.32495824694448
 51
99.32044505182864
  0
LINE
  5
82
100
AcDbEntity
  8
Cizim
  6
ByLayer
 62
  256
370
   -1
100
AcDbLine
 10
559.2407781216825
 20
229.521037834413
 11
662.2832353024147
 21
239.6881759410397
  0
LINE
  5
83
100
AcDbEntity
  8
Cizim
  6
ByLayer
 62
  256
370
   -1
100
AcDbLine
 10
553.339624389802
 20
231.8448136760127
 11
515.7003991226827
 21
274.5719250090249
  0
LINE
  5
84
100
AcDbEntity
  8
Cizim
  6
ByLayer
 62
  256
370
   -1
100
AcDbLine
 10
717.3577267199942
 20
286.8281760757934
 11
698.1711004350108
 21
260.3051572965361
  0
ARC
  5
85
100
AcDbEntity
  8
Cizim
  6
ByLayer
 62
  256
370
   -1
100
AcDbCircle
 10
558.5579184766236
 20
236.4417204295053
 40
6.954289674500512
100
AcDbArc
 50
221.3775147360308
 51
275.6351006762951
  0
ARC
  5
86
100
AcDbEntity
  8
Cizim
  6
ByLayer
 62
  256
370
   -1
100
AcDbCircle
 10
657.3341518467389
 20
289.8464126756191
 40
50.40180690583781
100
AcDbArc
 50
275.635100676295
 51
324.118200781702
  0
LINE
  5
87
100
AcDbEntity
  8
Cizim
  6
ByLayer
 62
  256
370
   -1
100
AcDbLine
 10
350.0889774103674
 20
208.4967988340539
 11
515.4535909654036
 21
225.3942282623192
  0
ARC
  5
88
100
AcDbEntity
  8
Cizim
  6
ByLayer
 62
  256
370
   -1
100
AcDbCircle
 10
348.7380962662174
 20
221.7170309000907
 40
13.28907128980374
100
AcDbArc
 50
107.9762333067475
 51
275.8344137279506
  0
ARC
  5
89
100
AcDbEntity
  8
Cizim
  6
ByLayer
 62
  256
370
   -1
100
AcDbCircle
 10
514.6667968027668
 20
233.0940925052281
 40
7.739958295338906
100
AcDbArc
 50
270
 51
42.87777544875272
  0
LINE
  5
8A
100
AcDbEntity
  8
Cizim
  6
ByLayer
 62
  256
370
   -1
100
AcDbLine
 10
344.6367961492867
 20
234.3573929635899
 11
479.4808113155938
 21
278.108970045859
  0
LINE
  5
8B
100
AcDbEntity
  8
Cizim
  6
ByLayer
 62
  256
370
   -1
100
AcDbLine
 10
520.3386894867532
 20
238.3606461976277
 11
484.6879545543265
 21
276.7552310537123
  0
ARC
  5
8C
100
AcDbEntity
  8
Cizim
  6
ByLayer
 62
  256
370
   -1
100
AcDbCircle
 10
481.0239214500384
 20
273.3530462541048
 40
5
100
AcDbArc
 50
42.87779807590264
 51
107.9762070458982
  0
LINE
  5
8D
100
AcDbEntity
  8
Cizim
  6
ByLayer
 62
  256
370
   -1
100
AcDbLine
 10
1169.432097903199
 20
157.9296969865259
 11
1259.566329921403
 21
242.0584800687339
  0
LINE
  5
8E
100
AcDbEntity
  8
Cizim
  6
ByLayer
 62
  256
370
   -1
100
AcDbLine
 10
1160.43809765549
 20
155.1120776902785
 11
1043.550275774687
 21
172.0330094307851
  0
LINE
  5
8F
100
AcDbEntity
  8
Cizim
  6
ByLayer
 62
  256
370
   -1
100
AcDbLine
 10
946.8438996226879
 20
284.6615819066784
 11
1032.361698832238
 21
178.4156759959456
  0
ARC
  5
90
100
AcDbEntity
  8
Cizim
  6
ByLayer
 62
  256
370
   -1
100
AcDbCircle
 10
945.6932461593148
 20
-944.5378662666158
 40
1250
100
AcDbArc
 50
75.76111310279259
 51
89.48661131814802
  0
ARC
  5
91
100
AcDbEntity
  8
Cizim
  6
ByLayer
 62
  256
370
   -1
100
AcDbCircle
 10
956.7792137404872
 20
292.6585601481142
 40
12.7539063668094
100
AcDbArc
 50
89.48657310465421
 51
218.8307418116497
  0
ARC
  5
92
100
AcDbEntity
  8
Cizim
  6
ByLayer
 62
  256
370
   -1
100
AcDbCircle
 10
1046.071733226928
 20
189.4509432702081
 40
17.59949337105979
100
AcDbArc
 50
218.8307418116494
 51
261.7630009660763
  0
ARC
  5
93
100
AcDbEntity
  8
Cizim
  6
ByLayer
 62
  256
370
   -1
100
AcDbCircle
 10
1161.998848382455
 20
165.8935615808498
 40
10.89386697708244
100
AcDbArc
 50
261.7628964562822
 51
313.026328634808
  0
ARC
  5
94
100
AcDbEntity
  8
Cizim
  6
ByLayer
 62
  256
370
   -1
100
AcDbCircle
 10
1249.533119291333
 20
252.8079013926403
 40
14.70426381517242
100
AcDbArc
 50
313.026375862317
 51
75.76107914689021
  0
ARC
  5
95
100
AcDbEntity
  8
Cizim
  6
ByLayer
 62
  256
370
   -1
100
AcDbCircle
 10
729.9435666523016
 20
-945.7735747772849
 40
1250
100
AcDbArc
 50
90.97999311414718
 51
99.67349750806029
  0
ARC
  5
96
100
AcDbEntity
  8
Cizim
  6
ByLayer
 62
  256
370
   -1
100
AcDbCircle
 10
521.114080212486
 20
279.3409523480207
 40
7.214677033809777
100
AcDbArc
 50
99.67351500020216
 51
221.3775451073569
  0
ARC
  5
97
100
AcDbEntity
  8
Cizim
  6
ByLayer
 62
  256
370
   -1
100
AcDbCircle
 10
708.5644759874187
 20
293.1891720483946
 40
10.85281199548795
100
AcDbArc
 50
324.1182248094928
 51
450.9885857533126
  0
LINE
  5
98
100
AcDbEntity
  8
Cizim
  6
ByLayer
 62
  256
370
   -1
100
AcDbLine
 10
1232.823080867598
 20
142.0614017018745
 11
1510.421470277212
 21
77.20419610622039
  0
LINE
  5
99
100
AcDbEntity
  8
Cizim
  6
ByLayer
 62
  256
370
   -1
100
AcDbLine
 10
1314.772011924247
 20
246.3159725209045
 11
1226.930761969615
 21
164.0815677018525
  0
ARC
  5
9A
100
AcDbEntity
  8
Cizim
  6
ByLayer
 62
  256
370
   -1
100
AcDbCircle
 10
1322.461441594142
 20
238.1022678661663
 40
11.25132315790185
100
AcDbArc
 50
75.12668448014936
 51
133.111785976786
  0
ARC
  5
9B
100
AcDbEntity
  8
Cizim
  6
ByLayer
 62
  256
370
   -1
100
AcDbCircle
 10
1235.763457735236
 20
154.6466476312519
 40
12.92417236137962
100
AcDbArc
 50
133.1118755388715
 51
256.8494879936259
  0
ARC
  5
9C
100
AcDbEntity
  8
Cizim
  6
ByLayer
 62
  256
370
   -1
100
AcDbCircle
 10
1513.35158582101
 20
89.74552205870377
 40
12.87906959940966
100
AcDbArc
 50
256.8495350820386
 51
14.45993293127589
  0
ARC
  5
9D
100
AcDbEntity
  8
Cizim
  6
ByLayer
 62
  256
370
   -1
100
AcDbCircle
 10
1004.497892714593
 20
-959.1435155726274
 40
1250
100
AcDbArc
 50
66.80484718852665
 51
75.12676972391489
  0
LINE
  5
9E
100
AcDbEntity
  8
Cizim
  6
ByLayer
 62
  256
370
   -1
100
AcDbLine
 10
1525.822678628089
 20
92.96146328074775
 11
1502.572663519932
 21
183.1226559643448
  0
ARC
  5
9F
100
AcDbEntity
  8
Cizim
  6
ByLayer
 62
  256
370
   -1
100
AcDbCircle
 10
1492.889438570475
 20
180.6256268138917
 40
10
100
AcDbArc
 50
14.45993293127613
 51
66.8048471885263
  0
ARC
  5
A0
100
AcDbEntity
  8
Cizim
  6
ByLayer
 62
  256
370
   -1
100
AcDbCircle
 10
1580.498078339167
 20
69.93802119436452
 40
10
100
AcDbArc
 50
195.0491020057698
 51
256.3540487207798
  0
LINE
  5
A1
100
AcDbEntity
  8
Cizim
  6
ByLayer
 62
  256
370
   -1
100
AcDbLine
 10
1578.13886282711
 20
60.2203001566072
 11
1634.864983824011
 21
46.44864072383363
  0
ARC
  5
A2
100
AcDbEntity
  8
Cizim
  6
ByLayer
 62
  256
370
   -1
100
AcDbCircle
 10
1637.224199336067
 20
56.1663617615909
 40
10
100
AcDbArc
 50
256.3540487207796
 51
314.6649407813903
  0
LINE
  5
A3
100
AcDbEntity
  8
Cizim
  6
ByLayer
 62
  256
370
   -1
100
AcDbLine
 10
1551.756516282953
 20
142.1037797622232
 11
1570.841041680709
 21
67.34155379091115
  0
LINE
  5
A4
100
AcDbEntity
  8
Cizim
  6
ByLayer
 62
  256
370
   -1
100
AcDbLine
 10
1670.889228283569
 20
75.82266438753769
 11
1644.253795674182
 21
49.05406429008661
  0
ARC
  5
A5
100
AcDbEntity
  8
Cizim
  6
ByLayer
 62
  256
370
   -1
100
AcDbCircle
 10
978.6550181185897
 20
-945.244805486808
 40
1250
100
AcDbArc
 50
56.49151237518529
 51
61.77966737278938
  0
ARC
  5
A6
100
AcDbEntity
  8
Cizim
  6
ByLayer
 62
  256
370
   -1
100
AcDbCircle
 10
1563.838185515149
 20
145.1878629380988
 40
12.46909381117598
100
AcDbArc
 50
61.77962066042804
 51
194.3200560925998
  0
ARC
  5
A7
100
AcDbEntity
  8
Cizim
  6
ByLayer
 62
  256
370
   -1
100
AcDbCircle
 10
1661.131082044241
 20
85.53226614496828
 40
13.76581942043448
100
AcDbArc
 50
315.1428715929025
 51
416.491479669016
  0
LINE
  5
A8
100
AcDbEntity
  8
Cizim
  6
ByLayer
 62
  256
370
   -1
100
AcDbLine
 10
342.4764419610642
 20
241.0156862720459
 11
477.3204571273713
 21
284.767263354315
  0
ARC
  5
A9
100
AcDbEntity
  8
Cizim
  6
ByLayer
 62
  256
370
   -1
100
AcDbCircle
 10
481.0239214500384
 20
273.3530462541048
 40
12
100
AcDbArc
 50
42.87779807590264
 51
107.9762070458982
  0
LINE
  5
AA
100
AcDbEntity
  8
Cizim
  6
ByLayer
 62
  256
370
   -1
100
AcDbLine
 10
525.4683358327566
 20
243.1237049170783
 11
489.8176009003299
 21
281.5182897731628
  0
LINE
  5
AB
100
AcDbEntity
  8
Cizim
  6
ByLayer
 62
  256
370
   -1
100
AcDbLine
 10
548.0870306214276
 20
227.2176916002041
 11
510.4478053543083
 21
269.9448029332164
  0
ARC
  5
AC
100
AcDbEntity
  8
Cizim
  6
ByLayer
 62
  256
370
   -1
100
AcDbCircle
 10
521.114080212486
 20
279.3409523480207
 40
14.21467703380978
100
AcDbArc
 50
99.67351500020216
 51
221.3775451073569
  0
ARC
  5
AD
100
AcDbEntity
  8
Cizim
  6
ByLayer
 62
  256
370
   -1
100
AcDbCircle
 10
729.9435666523016
 20
-945.7735747772849
 40
1257
100
AcDbArc
 50
90.97999311414718
 51
99.67349750806029
  0
ARC
  5
AE
100
AcDbEntity
  8
Cizim
  6
ByLayer
 62
  256
370
   -1
100
AcDbCircle
 10
558.5579184766236
 20
236.4417204295053
 40
13.95428967450051
100
AcDbArc
 50
221.3775147360308
 51
275.6351006762951
  0
LINE
  5
AF
100
AcDbEntity
  8
Cizim
  6
ByLayer
 62
  256
370
   -1
100
AcDbLine
 10
559.9281261815339
 20
222.5548658120883
 11
662.9705833622661
 21
232.7220039187151
  0
ARC
  5
B0
100
AcDbEntity
  8
Cizim
  6
ByLayer
 62
  256
370
   -1
100
AcDbCircle
 10
514.6667968027668
 20
233.0940925052281
 40
14.73995829533891
100
AcDbArc
 50
270
 51
42.87777544875272
  0
LINE
  5
B1
100
AcDbEntity
  8
Cizim
  6
ByLayer
 62
  256
370
   -1
100
AcDbLine
 10
350.800552192595
 20
201.5330598003668
 11
516.1651657476312
 21
218.4304892286321
  0
ARC
  5
B2
100
AcDbEntity
  8
Cizim
  6
ByLayer
 62
  256
370
   -1
100
AcDbCircle
 10
348.7380962662174
 20
221.7170309000907
 40
20.28907128980374
100
AcDbArc
 50
107.9762333067475
 51
275.8344137279506
  0
ARC
  5
B3
100
AcDbEntity
  8
Cizim
  6
ByLayer
 62
  256
370
   -1
100
AcDbCircle
 10
657.3341518467389
 20
289.8464126756191
 40
57.40180690583781
100
AcDbArc
 50
275.635100676295
 51
324.118200781702
  0
LINE
  5
B4
100
AcDbEntity
  8
Cizim
  6
ByLayer
 62
  256
370
   -1
100
AcDbLine
 10
723.0293218009394
 20
282.72537103073
 11
703.8426955159561
 21
256.2023522514727
  0
ARC
  5
B5
100
AcDbEntity
  8
Cizim
  6
ByLayer
 62
  256
370
   -1
100
AcDbCircle
 10
708.5644759874187
 20
293.1891720483946
 40
17.85281199548795
100
AcDbArc
 50
324.1182248094928
 51
450.9885857533126
  0
ARC
  5
B6
100
AcDbEntity
  8
Cizim
  6
ByLayer
 62
  256
370
   -1
100
AcDbCircle
 10
956.7792137404872
 20
292.6585601481142
 40
19.7539063668094
100
AcDbArc
 50
89.48657310465421
 51
218.8307418116497
  0
ARC
  5
B7
100
AcDbEntity
  8
Cizim
  6
ByLayer
 62
  256
370
   -1
100
AcDbCircle
 10
945.6932461593148
 20
-944.5378662666158
 40
1257
100
AcDbArc
 50
75.76111310279259
 51
89.48661131814802
  0
ARC
  5
B8
100
AcDbEntity
  8
Cizim
  6
ByLayer
 62
  256
370
   -1
100
AcDbCircle
 10
1249.533119291333
 20
252.8079013926403
 40
21.70426381517242
100
AcDbArc
 50
313.026375862317
 51
75.76107914689021
  0
LINE
  5
B9
100
AcDbEntity
  8
Cizim
  6
ByLayer
 62
  256
370
   -1
100
AcDbLine
 10
1174.20843184914
 20
152.8124092247474
 11
1264.342663867344
 21
236.9411923069554
  0
ARC
  5
BA
100
AcDbEntity
  8
Cizim
  6
ByLayer
 62
  256
370
   -1
100
AcDbCircle
 10
1161.998848382455
 20
165.8935615808498
 40
17.89386697708244
100
AcDbArc
 50
261.7628964562822
 51
313.026328634808
  0
LINE
  5
BB
100
AcDbEntity
  8
Cizim
  6
ByLayer
 62
  256
370
   -1
100
AcDbLine
 10
1159.435216391038
 20
148.1842909463457
 11
1042.547394510235
 21
165.1052226868523
  0
ARC
  5
BC
100
AcDbEntity
  8
Cizim
  6
ByLayer
 62
  256
370
   -1
100
AcDbCircle
 10
1046.071733226928
 20
189.4509432702081
 40
24.59949337105979
100
AcDbArc
 50
218.8307418116494
 51
261.7630009660763
  0
LINE
  5
BD
100
AcDbEntity
  8
Cizim
  6
ByLayer
 62
  256
370
   -1
100
AcDbLine
 10
941.390888064944
 20
280.2724288048703
 11
1026.908687274494
 21
174.0265228941375
  0
ARC
  5
BE
100
AcDbEntity
  8
Cizim
  6
ByLayer
 62
  256
370
   -1
100
AcDbCircle
 10
1235.763457735236
 20
154.6466476312519
 40
19.92417236137963
100
AcDbArc
 50
133.1118755388715
 51
256.8494879936259
  0
LINE
  5
BF
100
AcDbEntity
  8
Cizim
  6
ByLayer
 62
  256
370
   -1
100
AcDbLine
 10
1309.988040569601
 20
251.42612105866
 11
1222.146790614969
 21
169.191716239608
  0
LINE
  5
C0
100
AcDbEntity
  8
Cizim
  6
ByLayer
 62
  256
370
   -1
100
AcDbLine
 10
1231.230511726772
 20
135.2449712920716
 11
1508.828901136385
 21
70.38776569641753
  0
ARC
  5
C1
100
AcDbEntity
  8
Cizim
  6
ByLayer
 62
  256
370
   -1
100
AcDbCircle
 10
1513.35158582101
 20
89.74552205870377
 40
19.87906959940966
100
AcDbArc
 50
256.8495350820386
 51
14.45993293127589
  0
LINE
  5
C2
100
AcDbEntity
  8
Cizim
  6
ByLayer
 62
  256
370
   -1
100
AcDbLine
 10
1532.600936092709
 20
94.70938368606491
 11
1509.350920984552
 21
184.870576369662
  0
ARC
  5
C3
100
AcDbEntity
  8
Cizim
  6
ByLayer
 62
  256
370
   -1
100
AcDbCircle
 10
1492.889438570475
 20
180.6256268138917
 40
17
100
AcDbArc
 50
14.45993293127613
 51
66.8048471885263
  0
ARC
  5
C4
100
AcDbEntity
  8
Cizim
  6
ByLayer
 62
  256
370
   -1
100
AcDbCircle
 10
1004.497892714593
 20
-959.1435155726274
 40
1257
100
AcDbArc
 50
66.80484718852665
 51
75.12676972391489
  0
ARC
  5
C5
100
AcDbEntity
  8
Cizim
  6
ByLayer
 62
  256
370
   -1
100
AcDbCircle
 10
1322.461441594142
 20
238.1022678661663
 40
18.25132315790185
100
AcDbArc
 50
75.12668448014936
 51
133.111785976786
  0
ARC
  5
C6
100
AcDbEntity
  8
Cizim
  6
ByLayer
 62
  256
370
   -1
100
AcDbCircle
 10
1563.838185515149
 20
145.1878629380988
 40
19.46909381117598
100
AcDbArc
 50
61.77962066042804
 51
194.3200560925998
  0
ARC
  5
C7
100
AcDbEntity
  8
Cizim
  6
ByLayer
 62
  256
370
   -1
100
AcDbCircle
 10
978.6550181185897
 20
-945.244805486808
 40
1257
100
AcDbArc
 50
56.49151237518529
 51
61.77966737278938
  0
ARC
  5
C8
100
AcDbEntity
  8
Cizim
  6
ByLayer
 62
  256
370
   -1
100
AcDbCircle
 10
1661.131082044241
 20
85.53226614496828
 40
20.76581942043448
100
AcDbArc
 50
315.1428715929025
 51
416.491479669016
  0
LINE
  5
C9
100
AcDbEntity
  8
Cizim
  6
ByLayer
 62
  256
370
   -1
100
AcDbLine
 10
1675.851302940302
 20
70.88527488487422
 11
1649.215870330914
 21
44.11667478742315
  0
ARC
  5
CA
100
AcDbEntity
  8
Cizim
  6
ByLayer
 62
  256
370
   -1
100
AcDbCircle
 10
1637.224199336067
 20
56.1663617615909
 40
17
100
AcDbArc
 50
256.3540487207796
 51
314.6649407813903
  0
LINE
  5
CB
100
AcDbEntity
  8
Cizim
  6
ByLayer
 62
  256
370
   -1
100
AcDbLine
 10
1576.487411968671
 20
53.41789543017708
 11
1633.213532965571
 21
39.64623599740352
  0
ARC
  5
CC
100
AcDbEntity
  8
Cizim
  6
ByLayer
 62
  256
370
   -1
100
AcDbCircle
 10
1580.498078339167
 20
69.93802119436452
 40
17
100
AcDbArc
 50
195.0491020057698
 51
256.3540487207798
  0
LINE
  5
CD
100
AcDbEntity
  8
Cizim
  6
ByLayer
 62
  256
370
   -1
100
AcDbLine
 10
1544.974011803793
 20
140.3724123863696
 11
1564.058537201548
 21
65.6101864150575
  0
MTEXT
  5
CE
100
AcDbEntity
  8
Aciklama
  6
ByLayer
 62
  256
370
   -1
100
AcDbMText
 10
203.9957654818848
 20
-68.43728906489039
 30
0
 40
25
 41
780.5555812699255
 71
    1
 72
    1
  1
Çizen: Mustafa Halil ( @AcikKaynakci )\P__________\P\PReferans;\P	Sanatçi: Edon GURAZIU \P	Model Adi : ETI Akula \P	EDON-TECH Products\P	https://www.artstation.com/artwork/W2m0OD
  7
OpenGostTypeA-Regular
210
0
220
0
230
1
 50
0
 73
    2
 44
1
  0
ENDSEC
  0
SECTION
  2
OBJECTS
  0
DICTIONARY
  5
C
330
0
100
AcDbDictionary
281
    1
  3
ACAD_GROUP
350
D
  3
ACAD_IMAGE_DICT
350
CF
  0
DICTIONARY
  5
D
330
C
100
AcDbDictionary
281
    1
  0
IMAGEDEF_REACTOR
  5
51
330
52
100
AcDbRasterImageDefReactor
 90
    2
330
52
  0
DICTIONARY
  5
CF
330
C
100
AcDbDictionary
281
    1
  3
edon-guraziu-shopify-knife-square_
350
50
  0
IMAGEDEF
  5
50
102
{ACAD_REACTORS
330
51
102
}
100
AcDbRasterImageDef
 90
    0
  1
E:/Diger/LibreCAD/ETI Akula/edon-guraziu-shopify-knife-square_.png
 10
1734
 20
354
 11
1
 21
1
280
    1
281
    0
  0
ENDSEC
  0
EOF
