999
dxfrw 0.6.3
  0
SECTION
  2
HEADER
  9
$ACADVER
  1
AC1021
  9
$DWGCODEPAGE
  3
ANSI_1252
  9
$INSBASE
 10
0
 20
0
 30
0
  9
$EXTMIN
 10
1.417601050139432
 20
-72.42340245686692
 30
0
  9
$EXTMAX
 10
248.3096835115643
 20
120.6783086111994
 30
0
  9
$LIMMIN
 10
0
 20
0
  9
$LIMMAX
 10
420
 20
297
  9
$ORTHOMODE
 70
    0
  9
$REGENMODE
 70
    1
  9
$FILLMODE
 70
    1
  9
$QTEXTMODE
 70
    0
  9
$MIRRTEXT
 70
    0
  9
$LTSCALE
 40
1
  9
$ATTMODE
 70
    0
  9
$TEXTSIZE
 40
2.5
  9
$TRACEWID
 40
15.68
  9
$TEXTSTYLE
  7
STANDARD
  9
$CLAYER
  8
Tarama
  9
$CELTYPE
  6
BYLAYER
  9
$CECOLOR
 62
  256
  9
$CELTSCALE
 40
1
  9
$DISPSILH
 70
    0
  9
$DIMSCALE
 40
1
  9
$DIMASZ
 40
2.5
  9
$DIMEXO
 40
0.625
  9
$DIMDLI
 40
3.75
  9
$DIMRND
 40
0
  9
$DIMDLE
 40
0
  9
$DIMEXE
 40
1.25
  9
$DIMTP
 40
0
  9
$DIMTM
 40
0
  9
$DIMTXT
 40
2.5
  9
$DIMCEN
 40
2.5
  9
$DIMTSZ
 40
0
  9
$DIMTOL
 70
    0
  9
$DIMLIM
 70
    0
  9
$DIMTIH
 70
    0
  9
$DIMTOH
 70
    0
  9
$DIMSE1
 70
    0
  9
$DIMSE2
 70
    0
  9
$DIMTAD
 70
    1
  9
$DIMZIN
 70
    8
  9
$DIMBLK
  1

  9
$DIMASO
 70
    1
  9
$DIMSHO
 70
    1
  9
$DIMPOST
  1

  9
$DIMAPOST
  1

  9
$DIMALT
 70
    0
  9
$DIMALTD
 70
    3
  9
$DIMALTF
 40
0.03937
  9
$DIMLFAC
 40
1
  9
$DIMTOFL
 70
    1
  9
$DIMTVP
 40
0
  9
$DIMTIX
 70
    0
  9
$DIMSOXD
 70
    0
  9
$DIMSAH
 70
    0
  9
$DIMBLK1
  1

  9
$DIMBLK2
  1

  9
$DIMSTYLE
  2
STANDARD
  9
$DIMCLRD
 70
    0
  9
$DIMCLRE
 70
    0
  9
$DIMCLRT
 70
    0
  9
$DIMTFAC
 40
1
  9
$DIMGAP
 40
0.625
  9
$DIMJUST
 70
    0
  9
$DIMSD1
 70
    0
  9
$DIMSD2
 70
    0
  9
$DIMTOLJ
 70
    0
  9
$DIMTZIN
 70
    8
  9
$DIMALTZ
 70
    0
  9
$DIMALTTZ
 70
    0
  9
$DIMUPT
 70
    0
  9
$DIMDEC
 70
    2
  9
$DIMTDEC
 70
    2
  9
$DIMALTU
 70
    2
  9
$DIMALTTD
 70
    3
  9
$DIMTXSTY
  7
STANDARD
  9
$DIMAUNIT
 70
    0
  9
$DIMADEC
 70
    0
  9
$DIMALTRND
 40
0
  9
$DIMAZIN
 70
    0
  9
$DIMDSEP
 70
   44
  9
$DIMATFIT
 70
    3
  9
$DIMFRAC
 70
    0
  9
$DIMLDRBLK
  1
STANDARD
  9
$DIMLUNIT
 70
    2
  9
$DIMLWD
 70
   -2
  9
$DIMLWE
 70
   -2
  9
$DIMTMOVE
 70
    0
  9
$DIMFXL
 40
1
  9
$DIMFXLON
 70
    0
  9
$DIMJOGANG
 40
0.7854
  9
$DIMTFILL
 70
    0
  9
$DIMTFILLCLR
 70
    0
  9
$DIMARCSYM
 70
    0
  9
$DIMLTYPE
  6

  9
$DIMLTEX1
  6

  9
$DIMLTEX2
  6

  9
$LUNITS
 70
    2
  9
$LUPREC
 70
    4
  9
$SKETCHINC
 40
1
  9
$FILLETRAD
 40
0
  9
$AUNITS
 70
    0
  9
$AUPREC
 70
    2
  9
$MENU
  1
.
  9
$ELEVATION
 40
0
  9
$PELEVATION
 40
0
  9
$THICKNESS
 40
0
  9
$LIMCHECK
 70
    0
  9
$CHAMFERA
 40
0
  9
$CHAMFERB
 40
0
  9
$CHAMFERC
 40
0
  9
$CHAMFERD
 40
0
  9
$SKPOLY
 70
    0
  9
$USRTIMER
 70
    1
  9
$ANGBASE
 50
0
  9
$ANGDIR
 70
    0
  9
$PDMODE
 70
   34
  9
$PDSIZE
 40
0
  9
$PLINEWID
 40
0
  9
$SPLFRAME
 70
    0
  9
$SPLINETYPE
 70
    2
  9
$SPLINESEGS
 70
    8
  9
$HANDSEED
  5
20000
  9
$SURFTAB1
 70
    6
  9
$SURFTAB2
 70
    6
  9
$SURFTYPE
 70
    6
  9
$SURFU
 70
    6
  9
$SURFV
 70
    6
  9
$UCSBASE
  2

  9
$UCSNAME
  2

  9
$UCSORG
 10
0
 20
0
 30
0
  9
$UCSXDIR
 10
1
 20
0
 30
0
  9
$UCSYDIR
 10
0
 20
1
 30
0
  9
$UCSORTHOREF
  2

  9
$UCSORTHOVIEW
 70
    0
  9
$UCSORGTOP
 10
0
 20
0
 30
0
  9
$UCSORGBOTTOM
 10
0
 20
0
 30
0
  9
$UCSORGLEFT
 10
0
 20
0
 30
0
  9
$UCSORGRIGHT
 10
0
 20
0
 30
0
  9
$UCSORGFRONT
 10
0
 20
0
 30
0
  9
$UCSORGBACK
 10
0
 20
0
 30
0
  9
$PUCSBASE
  2

  9
$PUCSNAME
  2

  9
$PUCSORG
 10
0
 20
0
 30
0
  9
$PUCSXDIR
 10
1
 20
0
 30
0
  9
$PUCSYDIR
 10
0
 20
1
 30
0
  9
$PUCSORTHOREF
  2

  9
$PUCSORTHOVIEW
 70
    0
  9
$PUCSORGTOP
 10
0
 20
0
 30
0
  9
$PUCSORGBOTTOM
 10
0
 20
0
 30
0
  9
$PUCSORGLEFT
 10
0
 20
0
 30
0
  9
$PUCSORGRIGHT
 10
0
 20
0
 30
0
  9
$PUCSORGFRONT
 10
0
 20
0
 30
0
  9
$PUCSORGBACK
 10
0
 20
0
 30
0
  9
$USERI1
 70
    0
  9
$USERI2
 70
    0
  9
$USERI3
 70
    0
  9
$USERI4
 70
    0
  9
$USERI5
 70
    0
  9
$USERR1
 40
0
  9
$USERR2
 40
0
  9
$USERR3
 40
0
  9
$USERR4
 40
0
  9
$USERR5
 40
0
  9
$WORLDVIEW
 70
    1
  9
$SHADEDGE
 70
    3
  9
$SHADEDIF
 70
   70
  9
$TILEMODE
 70
    1
  9
$MAXACTVP
 70
   64
  9
$PINSBASE
 10
0
 20
0
 30
0
  9
$PLIMCHECK
 70
    0
  9
$PEXTMIN
 10
0
 20
0
 30
0
  9
$PEXTMAX
 10
0
 20
0
 30
0
  9
$GRIDMODE
 70
    1
  9
$SNAPSTYLE
 70
    0
  9
$PLIMMIN
 10
0
 20
0
  9
$PLIMMAX
 10
297
 20
210
  9
$UNITMODE
 70
    0
  9
$VISRETAIN
 70
    1
  9
$PLINEGEN
 70
    0
  9
$PSLTSCALE
 70
    1
  9
$TREEDEPTH
 70
 3020
  9
$CMLSTYLE
  2
Standard
  9
$CMLJUST
 70
    0
  9
$CMLSCALE
 40
20
  9
$PROXYGRAPHICS
 70
    1
  9
$MEASUREMENT
 70
    1
  9
$CELWEIGHT
370
   -1
  9
$ENDCAPS
280
    0
  9
$JOINSTYLE
280
    0
  9
$LWDISPLAY
290
    0
  9
$INSUNITS
 70
    4
  9
$HYPERLINKBASE
  1

  9
$STYLESHEET
  1

  9
$XEDIT
290
    1
  9
$CEPSNTYPE
380
    0
  9
$PSTYLEMODE
290
    1
  9
$EXTNAMES
290
    1
  9
$PSVPSCALE
 40
1
  9
$OLESTARTUP
290
    0
  9
$SORTENTS
280
  127
  9
$INDEXCTL
280
    0
  9
$HIDETEXT
280
    1
  9
$XCLIPFRAME
290
    0
  9
$HALOGAP
280
    0
  9
$OBSCOLOR
 70
  257
  9
$OBSLTYPE
280
    0
  9
$INTERSECTIONDISPLAY
280
    0
  9
$INTERSECTIONCOLOR
 70
  257
  9
$DIMASSOC
280
    1
  9
$PROJECTNAME
  1

  9
$CAMERADISPLAY
290
    0
  9
$LENSLENGTH
 40
50
  9
$CAMERAHEIGHT
 40
0
  9
$STEPSPERSEC
 40
2
  9
$STEPSIZE
 40
50
  9
$3DDWFPREC
 40
2
  9
$PSOLWIDTH
 40
5
  9
$PSOLHEIGHT
 40
80
  9
$LOFTANG1
 40
1.570796326794897
  9
$LOFTANG2
 40
1.570796326794897
  9
$LOFTMAG1
 40
0
  9
$LOFTMAG2
 40
0
  9
$LOFTPARAM
 70
    7
  9
$LOFTNORMALS
280
    1
  9
$LATITUDE
 40
1
  9
$LONGITUDE
 40
1
  9
$NORTHDIRECTION
 40
0
  9
$TIMEZONE
 70
-8000
  9
$LIGHTGLYPHDISPLAY
280
    1
  9
$TILEMODELIGHTSYNCH
280
    1
  9
$SOLIDHIST
280
    1
  9
$SHOWHIST
280
    1
  9
$DWFFRAME
280
    2
  9
$DGNFRAME
280
    0
  9
$REALWORLDSCALE
290
    1
  9
$INTERFERECOLOR
 62
    1
  9
$CSHADOW
280
    0
  9
$SHADOWPLANELOCATION
 40
0
  0
ENDSEC
  0
SECTION
  2
CLASSES
  0
ENDSEC
  0
SECTION
  2
TABLES
  0
TABLE
  2
VPORT
  5
8
330
0
100
AcDbSymbolTable
 70
    1
  0
VPORT
  5
31
330
2
100
AcDbSymbolTableRecord
100
AcDbViewportTableRecord
  2
*ACTIVE
 70
    0
 10
0
 20
0
 11
1
 21
1
 12
139.8121688228331
 22
61.56866149996318
 13
0
 23
0
 14
10
 24
10
 15
10
 25
10
 16
0
 26
0
 36
1
 17
0
 27
0
 37
0
 40
197.7660036059423
 41
1.563679245283019
 42
50
 43
0
 44
0
 50
0
 51
0
 71
    0
 72
  100
 73
    1
 74
    3
 75
    0
 76
    1
 77
    0
 78
    0
281
    0
 65
    1
110
0
120
0
130
0
111
1
121
0
131
0
112
0
122
1
132
0
 79
    0
146
0
348
10020
 60
    7
 61
    5
292
1
282
    1
141
0
142
0
 63
  250
421
3358443
  0
ENDTAB
  0
TABLE
  2
LTYPE
  5
5
330
0
100
AcDbSymbolTable
 70
    4
  0
LTYPE
  5
14
330
5
100
AcDbSymbolTableRecord
100
AcDbLinetypeTableRecord
  2
ByBlock
 70
    0
  3

 72
   65
 73
    0
 40
0
  0
LTYPE
  5
15
330
5
100
AcDbSymbolTableRecord
100
AcDbLinetypeTableRecord
  2
ByLayer
 70
    0
  3

 72
   65
 73
    0
 40
0
  0
LTYPE
  5
16
330
5
100
AcDbSymbolTableRecord
100
AcDbLinetypeTableRecord
  2
Continuous
 70
    0
  3
Solid line
 72
   65
 73
    0
 40
0
  0
LTYPE
  5
32
330
5
100
AcDbSymbolTableRecord
100
AcDbLinetypeTableRecord
  2
DOT
 70
    0
  3
Dot . . . . . . . . . . . . . . . . . . . . . .
 72
   65
 73
    2
 40
6.35
 49
0
 74
    0
 49
-6.35
 74
    0
  0
LTYPE
  5
33
330
5
100
AcDbSymbolTableRecord
100
AcDbLinetypeTableRecord
  2
DOTTINY
 70
    0
  3
Dot (.15x) .....................................
 72
   65
 73
    2
 40
0.9525
 49
0
 74
    0
 49
-0.9525
 74
    0
  0
LTYPE
  5
34
330
5
100
AcDbSymbolTableRecord
100
AcDbLinetypeTableRecord
  2
DOT2
 70
    0
  3
Dot (.5x) .....................................
 72
   65
 73
    2
 40
3.175
 49
0
 74
    0
 49
-3.175
 74
    0
  0
LTYPE
  5
35
330
5
100
AcDbSymbolTableRecord
100
AcDbLinetypeTableRecord
  2
DOTX2
 70
    0
  3
Dot (2x) .  .  .  .  .  .  .  .  .  .  .  .  .
 72
   65
 73
    2
 40
12.7
 49
0
 74
    0
 49
-12.7
 74
    0
  0
LTYPE
  5
36
330
5
100
AcDbSymbolTableRecord
100
AcDbLinetypeTableRecord
  2
DASHED
 70
    0
  3
Dashed _ _ _ _ _ _ _ _ _ _ _ _ _ _ _ _ _
 72
   65
 73
    2
 40
19.05
 49
12.7
 74
    0
 49
-6.35
 74
    0
  0
LTYPE
  5
37
330
5
100
AcDbSymbolTableRecord
100
AcDbLinetypeTableRecord
  2
DASHEDTINY
 70
    0
  3
Dashed (.15x) _ _ _ _ _ _ _ _ _ _ _ _ _ _ _ _ _
 72
   65
 73
    2
 40
2.8575
 49
1.905
 74
    0
 49
-0.9525
 74
    0
  0
LTYPE
  5
38
330
5
100
AcDbSymbolTableRecord
100
AcDbLinetypeTableRecord
  2
DASHED2
 70
    0
  3
Dashed (.5x) _ _ _ _ _ _ _ _ _ _ _ _ _ _ _ _ _
 72
   65
 73
    2
 40
9.524999999999999
 49
6.35
 74
    0
 49
-3.175
 74
    0
  0
LTYPE
  5
39
330
5
100
AcDbSymbolTableRecord
100
AcDbLinetypeTableRecord
  2
DASHEDX2
 70
    0
  3
Dashed (2x) ____  ____  ____  ____  ____  ___
 72
   65
 73
    2
 40
38.09999999999999
 49
25.4
 74
    0
 49
-12.7
 74
    0
  0
LTYPE
  5
3A
330
5
100
AcDbSymbolTableRecord
100
AcDbLinetypeTableRecord
  2
DASHDOT
 70
    0
  3
Dash dot __ . __ . __ . __ . __ . __ . __ . __
 72
   65
 73
    4
 40
25.4
 49
12.7
 74
    0
 49
-6.35
 74
    0
 49
0
 74
    0
 49
-6.35
 74
    0
  0
LTYPE
  5
3B
330
5
100
AcDbSymbolTableRecord
100
AcDbLinetypeTableRecord
  2
DASHDOTTINY
 70
    0
  3
Dash dot (.15x) _._._._._._._._._._._._._._._.
 72
   65
 73
    4
 40
3.81
 49
1.905
 74
    0
 49
-0.9525
 74
    0
 49
0
 74
    0
 49
-0.9525
 74
    0
  0
LTYPE
  5
3C
330
5
100
AcDbSymbolTableRecord
100
AcDbLinetypeTableRecord
  2
DASHDOT2
 70
    0
  3
Dash dot (.5x) _._._._._._._._._._._._._._._.
 72
   65
 73
    4
 40
12.7
 49
6.35
 74
    0
 49
-3.175
 74
    0
 49
0
 74
    0
 49
-3.175
 74
    0
  0
LTYPE
  5
3D
330
5
100
AcDbSymbolTableRecord
100
AcDbLinetypeTableRecord
  2
DASHDOTX2
 70
    0
  3
Dash dot (2x) ____  .  ____  .  ____  .  ___
 72
   65
 73
    4
 40
50.8
 49
25.4
 74
    0
 49
-12.7
 74
    0
 49
0
 74
    0
 49
-12.7
 74
    0
  0
LTYPE
  5
3E
330
5
100
AcDbSymbolTableRecord
100
AcDbLinetypeTableRecord
  2
DIVIDE
 70
    0
  3
Divide ____ . . ____ . . ____ . . ____ . . ____
 72
   65
 73
    6
 40
31.75
 49
12.7
 74
    0
 49
-6.35
 74
    0
 49
0
 74
    0
 49
-6.35
 74
    0
 49
0
 74
    0
 49
-6.35
 74
    0
  0
LTYPE
  5
3F
330
5
100
AcDbSymbolTableRecord
100
AcDbLinetypeTableRecord
  2
DIVIDETINY
 70
    0
  3
Divide (.15x) __..__..__..__..__..__..__..__.._
 72
   65
 73
    6
 40
4.7625
 49
1.905
 74
    0
 49
-0.9525
 74
    0
 49
0
 74
    0
 49
-0.9525
 74
    0
 49
0
 74
    0
 49
-0.9525
 74
    0
  0
LTYPE
  5
40
330
5
100
AcDbSymbolTableRecord
100
AcDbLinetypeTableRecord
  2
DIVIDE2
 70
    0
  3
Divide (.5x) __..__..__..__..__..__..__..__.._
 72
   65
 73
    6
 40
15.875
 49
6.35
 74
    0
 49
-3.175
 74
    0
 49
0
 74
    0
 49
-3.175
 74
    0
 49
0
 74
    0
 49
-3.175
 74
    0
  0
LTYPE
  5
41
330
5
100
AcDbSymbolTableRecord
100
AcDbLinetypeTableRecord
  2
DIVIDEX2
 70
    0
  3
Divide (2x) ________  .  .  ________  .  .  _
 72
   65
 73
    6
 40
63.5
 49
25.4
 74
    0
 49
-12.7
 74
    0
 49
0
 74
    0
 49
-12.7
 74
    0
 49
0
 74
    0
 49
-12.7
 74
    0
  0
LTYPE
  5
42
330
5
100
AcDbSymbolTableRecord
100
AcDbLinetypeTableRecord
  2
BORDER
 70
    0
  3
Border __ __ . __ __ . __ __ . __ __ . __ __ .
 72
   65
 73
    6
 40
44.45
 49
12.7
 74
    0
 49
-6.35
 74
    0
 49
12.7
 74
    0
 49
-6.35
 74
    0
 49
0
 74
    0
 49
-6.35
 74
    0
  0
LTYPE
  5
43
330
5
100
AcDbSymbolTableRecord
100
AcDbLinetypeTableRecord
  2
BORDERTINY
 70
    0
  3
Border (.15x) __.__.__.__.__.__.__.__.__.__.__.
 72
   65
 73
    6
 40
6.6675
 49
1.905
 74
    0
 49
-0.9525
 74
    0
 49
1.905
 74
    0
 49
-0.9525
 74
    0
 49
0
 74
    0
 49
-0.9525
 74
    0
  0
LTYPE
  5
44
330
5
100
AcDbSymbolTableRecord
100
AcDbLinetypeTableRecord
  2
BORDER2
 70
    0
  3
Border (.5x) __.__.__.__.__.__.__.__.__.__.__.
 72
   65
 73
    6
 40
22.225
 49
6.35
 74
    0
 49
-3.175
 74
    0
 49
6.35
 74
    0
 49
-3.175
 74
    0
 49
0
 74
    0
 49
-3.175
 74
    0
  0
LTYPE
  5
45
330
5
100
AcDbSymbolTableRecord
100
AcDbLinetypeTableRecord
  2
BORDERX2
 70
    0
  3
Border (2x) ____  ____  .  ____  ____  .  ___
 72
   65
 73
    6
 40
88.89999999999999
 49
25.4
 74
    0
 49
-12.7
 74
    0
 49
25.4
 74
    0
 49
-12.7
 74
    0
 49
0
 74
    0
 49
-12.7
 74
    0
  0
LTYPE
  5
46
330
5
100
AcDbSymbolTableRecord
100
AcDbLinetypeTableRecord
  2
CENTER
 70
    0
  3
Center ____ _ ____ _ ____ _ ____ _ ____ _ ____
 72
   65
 73
    4
 40
50.8
 49
31.75
 74
    0
 49
-6.35
 74
    0
 49
6.35
 74
    0
 49
-6.35
 74
    0
  0
LTYPE
  5
47
330
5
100
AcDbSymbolTableRecord
100
AcDbLinetypeTableRecord
  2
CENTERTINY
 70
    0
  3
Center (.15x) ___ _ ___ _ ___ _ ___ _ ___ _ ___
 72
   65
 73
    4
 40
7.62
 49
4.7625
 74
    0
 49
-0.9525
 74
    0
 49
0.9525
 74
    0
 49
-0.9525
 74
    0
  0
LTYPE
  5
48
330
5
100
AcDbSymbolTableRecord
100
AcDbLinetypeTableRecord
  2
CENTER2
 70
    0
  3
Center (.5x) ___ _ ___ _ ___ _ ___ _ ___ _ ___
 72
   65
 73
    4
 40
28.575
 49
19.05
 74
    0
 49
-3.175
 74
    0
 49
3.175
 74
    0
 49
-3.175
 74
    0
  0
LTYPE
  5
49
330
5
100
AcDbSymbolTableRecord
100
AcDbLinetypeTableRecord
  2
CENTERX2
 70
    0
  3
Center (2x) ________  __  ________  __  _____
 72
   65
 73
    4
 40
101.6
 49
63.5
 74
    0
 49
-12.7
 74
    0
 49
12.7
 74
    0
 49
-12.7
 74
    0
  0
ENDTAB
  0
TABLE
  2
LAYER
  5
2
330
0
100
AcDbSymbolTable
 70
    1
  0
LAYER
  5
10
330
2
100
AcDbSymbolTableRecord
100
AcDbLayerTableRecord
  2
0
 70
    1
 62
    7
  6
CONTINUOUS
370
    0
390
F
  0
LAYER
  5
4A
330
2
100
AcDbSymbolTableRecord
100
AcDbLayerTableRecord
  2
Etiket
 70
    0
 62
    3
  6
CONTINUOUS
370
   50
390
F
  0
LAYER
  5
4B
330
2
100
AcDbSymbolTableRecord
100
AcDbLayerTableRecord
  2
Govde
 70
    0
 62
    4
  6
CONTINUOUS
370
   50
390
F
  0
LAYER
  5
4C
330
2
100
AcDbSymbolTableRecord
100
AcDbLayerTableRecord
  2
Sarı
 70
    0
 62
    2
  6
CONTINUOUS
370
   50
390
F
  0
LAYER
  5
4D
330
2
100
AcDbSymbolTableRecord
100
AcDbLayerTableRecord
  2
Tarama
 70
    0
 62
   16
420
8388608
  6
CONTINUOUS
370
   15
390
F
  0
ENDTAB
  0
TABLE
  2
STYLE
  5
3
330
0
100
AcDbSymbolTable
 70
    3
  0
STYLE
  5
4E
330
2
100
AcDbSymbolTableRecord
100
AcDbTextStyleTableRecord
  2
standard
 70
    0
 40
0
 41
1
 50
0
 71
    0
 42
1
  3
standard
  4

  0
ENDTAB
  0
TABLE
  2
VIEW
  5
6
330
0
100
AcDbSymbolTable
 70
    0
  0
ENDTAB
  0
TABLE
  2
UCS
  5
7
330
0
100
AcDbSymbolTable
 70
    0
  0
ENDTAB
  0
TABLE
  2
APPID
  5
9
330
0
100
AcDbSymbolTable
 70
    1
  0
APPID
  5
12
330
9
100
AcDbSymbolTableRecord
100
AcDbRegAppTableRecord
  2
ACAD
 70
    0
  0
APPID
  5
4F
330
9
100
AcDbSymbolTableRecord
100
AcDbRegAppTableRecord
  2
LibreCad
 70
    0
  0
ENDTAB
  0
TABLE
  2
DIMSTYLE
  5
A
330
0
100
AcDbSymbolTable
 70
    1
100
AcDbDimStyleTable
 71
    1
  0
DIMSTYLE
105
50
330
A
100
AcDbSymbolTableRecord
100
AcDbDimStyleTableRecord
  2
Standard
 70
    0
 40
1
 41
2.5
 42
0.625
 43
0.38
 44
1.25
 45
0
 46
0
 47
0
 48
0
 49
1
140
2.5
141
0.09
142
0
143
25.4
144
1
145
0
146
1
147
0.625
148
0
 71
    0
 72
    0
 73
    0
 74
    1
 75
    0
 76
    0
 77
    0
 78
    8
 79
    0
170
    0
171
    2
172
    0
173
    0
174
    0
175
    0
176
    0
177
    0
178
    0
179
    0
271
    2
272
    4
273
    2
274
    2
275
    0
276
    0
277
    2
278
   44
279
    0
280
    0
281
    0
282
    0
283
    1
284
    0
285
    0
286
    0
288
    0
289
    3
340
STANDARD
341

371
   -2
372
   -2
  0
ENDTAB
  0
TABLE
  2
BLOCK_RECORD
  5
1
330
0
100
AcDbSymbolTable
 70
    2
  0
BLOCK_RECORD
  5
1F
330
1
100
AcDbSymbolTableRecord
100
AcDbBlockTableRecord
  2
*Model_Space
 70
    0
280
    1
281
    0
  0
BLOCK_RECORD
  5
1E
330
1
100
AcDbSymbolTableRecord
100
AcDbBlockTableRecord
  2
*Paper_Space
 70
    0
280
    1
281
    0
  0
BLOCK_RECORD
  5
51
330
1
100
AcDbSymbolTableRecord
100
AcDbBlockTableRecord
  2
BICAK_SAPI
 70
    0
280
    1
281
    0
  0
ENDTAB
  0
ENDSEC
  0
SECTION
  2
BLOCKS
  0
BLOCK
  5
20
330
1F
100
AcDbEntity
  8
0
100
AcDbBlockBegin
  2
*Model_Space
 70
    0
 10
0
 20
0
 30
0
  3
*Model_Space
  1

  0
ENDBLK
  5
21
330
1F
100
AcDbEntity
  8
0
100
AcDbBlockEnd
  0
BLOCK
  5
1C
330
1B
100
AcDbEntity
  8
0
100
AcDbBlockBegin
  2
*Paper_Space
 70
    0
 10
0
 20
0
 30
0
  3
*Paper_Space
  1

  0
ENDBLK
  5
1D
330
1F
100
AcDbEntity
  8
0
100
AcDbBlockEnd
  0
BLOCK
  5
52
330
51
100
AcDbEntity
  8
0
100
AcDbBlockBegin
  2
BICAK_SAPI
 70
    0
 10
0
 20
0
  3
BICAK_SAPI
  1

  0
LINE
  5
54
100
AcDbEntity
  8
Etiket
  6
ByLayer
 62
  256
370
   -1
100
AcDbLine
 10
-12.18793279000255
 20
-10.3917815204252
 11
-5.644683645530762
 21
-40.4968454217541
  0
LINE
  5
55
100
AcDbEntity
  8
Etiket
  6
ByLayer
 62
  256
370
   -1
100
AcDbLine
 10
-3.039791708481999
 20
-42.75881864684307
 11
-0.06408592744870134
 21
-42.97742288733515
  0
LINE
  5
56
100
AcDbEntity
  8
Etiket
  6
ByLayer
 62
  256
370
   -1
100
AcDbLine
 10
2.584370752156985
 20
-40.33567258332472
 11
2.311694056892918
 21
-36.49051902751036
  0
LINE
  5
57
100
AcDbEntity
  8
Etiket
  6
ByLayer
 62
  256
370
   -1
100
AcDbLine
 10
77.52856868214587
 20
-32.81299163787544
 11
82.24484873331622
 21
-38.61988399620664
  0
LINE
  5
58
100
AcDbEntity
  8
Etiket
  6
ByLayer
 62
  256
370
   -1
100
AcDbLine
 10
-8.911854657758312
 20
-3.767338677776905
 11
-2.05836812832797
 21
-0.5556465082590307
  0
LINE
  5
59
100
AcDbEntity
  8
Etiket
  6
ByLayer
 62
  256
370
   -1
100
AcDbLine
 10
71.51454649158927
 20
-2.633443509312244
 11
90.04397632521409
 21
-8.10023098493825
  0
LINE
  5
5A
100
AcDbEntity
  8
Etiket
  6
ByLayer
 62
  256
370
   -1
100
AcDbLine
 10
96.45403183374972
 20
-13.03887246845211
 11
98.99801817678929
 21
-17.23739020216641
  0
ARC
  5
5B
100
AcDbEntity
  8
Etiket
  6
ByLayer
 62
  256
370
   -1
100
AcDbCircle
 10
43.21714765400716
 20
-98.54620188392478
 40
100
100
AcDbArc
 50
73.56221872550898
 51
91.99500737723807
  0
ARC
  5
5C
100
AcDbEntity
  8
Etiket
  6
ByLayer
 62
  256
370
   -1
100
AcDbCircle
 10
48.4569674019468
 20
67.66749571130391
 40
100
100
AcDbArc
 50
250.5882414476216
 51
282.2482307200476
  0
ARC
  5
5D
100
AcDbEntity
  8
Etiket
  6
ByLayer
 62
  256
370
   -1
100
AcDbCircle
 10
-6.397294497722839
 20
-9.133202924608568
 40
5.925834279986559
100
AcDbArc
 50
115.1088208998567
 51
192.2623567480875
  0
ARC
  5
5E
100
AcDbEntity
  8
Etiket
  6
ByLayer
 62
  256
370
   -1
100
AcDbCircle
 10
-2.828656982778
 20
-39.88479011729574
 40
2.881773388219511
100
AcDbArc
 50
180
 51
265.798428306227
  0
ARC
  5
5F
100
AcDbEntity
  8
Etiket
  6
ByLayer
 62
  256
370
   -1
100
AcDbCircle
 10
0.1171316597556711
 20
-40.51063532340179
 40
2.473435000053271
100
AcDbArc
 50
270
 51
4.056304481056014
  0
ARC
  5
60
100
AcDbEntity
  8
Etiket
  6
ByLayer
 62
  256
370
   -1
100
AcDbCircle
 10
11.99509228248539
 20
-35.80382680865532
 40
9.707715869288897
100
AcDbArc
 50
70.58823942597859
 51
184.056304481056
  0
ARC
  5
61
100
AcDbEntity
  8
Etiket
  6
ByLayer
 62
  256
370
   -1
100
AcDbCircle
 10
0.5460827763306781
 20
-6.113330199445485
 40
6.13767158831892
100
AcDbArc
 50
95.10448720295979
 51
115.1088054660099
  0
LINE
  5
62
100
AcDbEntity
  8
Etiket
  6
ByLayer
 62
  256
370
   -1
100
AcDbLine
 10
-0.1067809570861584
 20
0.005322351401687797
 11
39.73590417028433
 21
1.393184465036938
  0
ARC
  5
63
100
AcDbEntity
  8
Etiket
  6
ByLayer
 62
  256
370
   -1
100
AcDbCircle
 10
71.35812366794931
 20
-37.82454427765298
 40
7.949217039085317
100
AcDbArc
 50
39.08304042471936
 51
102.248232501674
  0
ARC
  5
64
100
AcDbEntity
  8
Etiket
  6
ByLayer
 62
  256
370
   -1
100
AcDbCircle
 10
86.87438470145088
 20
-18.84341898257307
 40
11.20099992920074
100
AcDbArc
 50
31.21271484378053
 51
73.56221788901851
  0
LINE
  5
65
100
AcDbEntity
  8
Etiket
  6
ByLayer
 62
  256
370
   -1
100
AcDbLine
 10
99.45694411505329
 20
-21.86036215801161
 11
98.26854869058363
 21
-25.14787993984065
  0
ARC
  5
66
100
AcDbEntity
  8
Etiket
  6
ByLayer
 62
  256
370
   -1
100
AcDbCircle
 10
94.39080220871443
 20
-20.02901697275225
 40
5.386986077830104
100
AcDbArc
 50
340.1257280658917
 51
391.2127148437805
  0
LINE
  5
67
100
AcDbEntity
  8
Etiket
  6
ByLayer
 62
  256
370
   -1
100
AcDbLine
 10
96.71406827560972
 20
-27.68210854378512
 11
86.31530670609035
 21
-38.76530266026799
  0
ARC
  5
68
100
AcDbEntity
  8
Etiket
  6
ByLayer
 62
  256
370
   -1
100
AcDbCircle
 10
84.34357113650148
 20
-36.91532982294287
 40
2.703727178400718
100
AcDbArc
 50
219.0830404247195
 51
316.8248727314173
  0
ARC
  5
69
100
AcDbEntity
  8
Etiket
  6
ByLayer
 62
  256
370
   -1
100
AcDbCircle
 10
91.34587365967272
 20
-22.64542189161439
 40
7.361095425731793
100
AcDbArc
 50
316.8248727314172
 51
340.1257280658917
  0
ENDBLK
  5
53
330
51
100
AcDbEntity
  8
0
100
AcDbBlockEnd
  0
ENDSEC
  0
SECTION
  2
ENTITIES
  0
HATCH
  5
6A
100
AcDbEntity
  8
Tarama
  6
ByLayer
 62
  256
370
   -1
100
AcDbHatch
 10
0
 20
0
 30
0
210
0
220
0
230
1
  2
SOLID
 70
    1
 71
    0
 91
    1
 92
    0
 93
   26
 72
    1
 10
187.9353888831325
 20
117.4508090004084
 11
148.5318952250194
 21
116.0782454842156
 72
    2
 10
148.7455652001106
 20
109.9442942561896
 40
6.13767158831892
 50
91.99503374962819
 51
115.1088054660099
 73
    1
 72
    1
 10
146.141114295452
 20
115.501977947376
 11
139.2876263206111
 21
112.2902851005073
 72
    2
 10
141.8021879260571
 20
106.9244215310265
 40
5.925834279986559
 50
115.1088208998567
 51
192.2623567480875
 73
    1
 72
    1
 10
136.0115496337774
 20
105.6658429352099
 11
142.554799093499
 21
75.56077758343849
 72
    2
 10
145.3708254410019
 20
76.17283433833927
 40
2.881773388219511
 50
192.2623862592557
 51
265.798428306227
 73
    1
 72
    1
 10
145.1596907152979
 20
73.298805808792
 11
148.135399272871
 21
73.08020136432847
 72
    2
 10
148.3166140835356
 20
75.54698913223328
 40
2.473435000053271
 50
265.7984927965804
 51
4.056304481056014
 73
    1
 72
    1
 10
150.7838531759369
 20
75.72195187231029
 11
150.5111764806728
 21
79.56710542812468
 72
    2
 10
160.1945747062653
 20
80.25379764697979
 40
9.707715869288897
 50
175.943695518944
 51
289.4117605740214
 73
    0
 72
    2
 10
196.6564498257268
 20
183.725120166939
 40
100
 50
250.5882414476215
 51
282.2482307200475
 73
    1
 72
    2
 10
219.5576060917292
 20
78.23308017798209
 40
7.949217039085317
 50
257.751767498326
 51
320.9169595752807
 73
    0
 72
    1
 10
225.7280511059259
 20
83.24463281775959
 11
230.4443311570961
 21
77.4377404594284
 72
    2
 10
232.5430535602814
 20
79.14229463269217
 40
2.703727178400718
 50
219.0830404247195
 51
316.8248727314173
 73
    1
 72
    1
 10
234.5147891298703
 20
77.29232179536697
 11
244.9135506993896
 21
88.37551591184999
 72
    2
 10
239.5453560834526
 20
93.41220256402067
 40
7.361095425731793
 50
316.8248727314172
 51
340.1257280658917
 73
    1
 72
    1
 10
246.4680311143636
 20
90.9097445157945
 11
247.6564265388332
 21
94.19726229762347
 72
    2
 10
242.5902846324944
 20
96.02860748288276
 40
5.386986077830104
 50
340.1257280658917
 51
31.21271484378047
 73
    1
 72
    1
 10
247.1975006005692
 20
98.8202342534687
 11
244.6535142575296
 21
103.018751987183
 72
    2
 10
235.0738671252308
 20
97.21420547306201
 40
11.20099992920074
 50
31.21271484378053
 51
73.56221788901851
 73
    1
 72
    1
 10
238.243458748994
 20
107.9573934706969
 11
219.7140275150896
 21
113.4241813594511
 72
    2
 10
158.4531743452717
 20
102.9370070675631
 40
3.137119331113623
 50
0
 51
360
 73
    1
 72
    2
 10
181.6150276718859
 20
103.0509610037775
 40
3.137119331113623
 50
0
 51
360
 73
    1
 72
    2
 10
206.8711500066088
 20
101.7851410299608
 40
3.137119331113623
 50
0
 51
360
 73
    1
 72
    2
 10
230.6607132026214
 20
98.39629835706504
 40
3.137119331113623
 50
0
 51
360
 73
    1
 72
    2
 10
191.4166300777871
 20
17.51142257171028
 40
100
 50
73.56221872550898
 51
91.99500737723807
 73
    1
 97
    0
 75
    0
 76
    1
 98
    0
  0
IMAGE
  5
6D
100
AcDbEntity
  8
0
  6
ByLayer
 62
  256
370
   -1
100
AcDbRasterImage
 10
0
 20
0
 30
0
 11
0.25
 21
0
 31
0
 12
1.530757942277972e-017
 22
0.25
 32
0
 13
1000
 23
245
340
6B
 70
    1
280
    0
281
   50
282
   50
283
    0
360
6C
  0
LINE
  5
6E
100
AcDbEntity
  8
Govde
  6
ByLayer
 62
  256
370
   -1
100
AcDbLine
 10
1.417601050139442
 20
35.44002625348605
 11
12.40400918872012
 21
39.07262894446838
  0
ARC
  5
6F
100
AcDbEntity
  8
Govde
  6
ByLayer
 62
  256
370
   -1
100
AcDbCircle
 10
134.9629535823895
 20
16.75315123971671
 40
3.404518790549928
100
AcDbArc
 50
92.18537054207793
 51
143.6115568697633
  0
ARC
  5
70
100
AcDbEntity
  8
Govde
  6
ByLayer
 62
  256
370
   -1
100
AcDbCircle
 10
41.41755021574336
 20
63.81297112857352
 40
49.04100258085728
100
AcDbArc
 50
215.3490126616393
 51
269.8348528340447
  0
LINE
  5
71
100
AcDbEntity
  8
Govde
  6
ByLayer
 62
  256
370
   -1
100
AcDbLine
 10
64.12289564852891
 20
46.80233646627227
 11
107.9798096307798
 21
47.67824327232896
  0
ARC
  5
72
100
AcDbEntity
  8
Govde
  6
ByLayer
 62
  256
370
   -1
100
AcDbCircle
 10
68.20060387785726
 20
-157.3697259286806
 40
204.2127781678023
100
AcDbArc
 50
91.14415465236465
 51
105.8564265003103
  0
ARC
  5
73
100
AcDbEntity
  8
Govde
  6
ByLayer
 62
  256
370
   -1
100
AcDbCircle
 10
107.3067967297539
 20
81.37619915660576
 40
33.70467589435646
100
AcDbArc
 50
271.1441546523646
 51
297.8061747492219
  0
ARC
  5
74
100
AcDbEntity
  8
Govde
  6
ByLayer
 62
  256
370
   -1
100
AcDbCircle
 10
153.4853559639765
 20
147.4171350241211
 40
100.5758752839546
100
AcDbArc
 50
252.3732116589098
 51
267.1769844642591
  0
LINE
  5
75
100
AcDbEntity
  8
Govde
  6
ByLayer
 62
  256
370
   -1
100
AcDbLine
 10
136.3439624350172
 20
36.57153368662174
 11
142.887211579489
 21
6.466469785292832
  0
LINE
  5
76
100
AcDbEntity
  8
Govde
  6
ByLayer
 62
  256
370
   -1
100
AcDbLine
 10
145.4921035165378
 20
4.204496560203868
 11
148.4678092975711
 21
3.985892319711785
  0
LINE
  5
77
100
AcDbEntity
  8
Govde
  6
ByLayer
 62
  256
370
   -1
100
AcDbLine
 10
151.1162659771767
 20
6.627642623722213
 11
150.8435892819127
 21
10.47279617953659
  0
LINE
  5
78
100
AcDbEntity
  8
Govde
  6
ByLayer
 62
  256
370
   -1
100
AcDbLine
 10
226.0604639071656
 20
14.1503235691715
 11
230.776743958336
 21
8.343431210840304
  0
LINE
  5
79
100
AcDbEntity
  8
Govde
  6
ByLayer
 62
  256
370
   -1
100
AcDbLine
 10
139.6200405672614
 20
43.19597652927003
 11
146.4735270966918
 21
46.40766869878791
  0
LINE
  5
7A
100
AcDbEntity
  8
Govde
  6
ByLayer
 62
  256
370
   -1
100
AcDbLine
 10
220.046441716609
 20
44.3298716977347
 11
238.5758715502338
 21
38.8630842221087
  0
LINE
  5
7B
100
AcDbEntity
  8
Govde
  6
ByLayer
 62
  256
370
   -1
100
AcDbLine
 10
244.9859270587695
 20
33.92444273859482
 11
247.529913401809
 21
29.72592500488053
  0
ARC
  5
7C
100
AcDbEntity
  8
Govde
  6
ByLayer
 62
  256
370
   -1
100
AcDbCircle
 10
191.7490428790269
 20
-51.58288667687784
 40
100
100
AcDbArc
 50
73.56221872550898
 51
91.99500737723807
  0
ARC
  5
7D
100
AcDbEntity
  8
Govde
  6
ByLayer
 62
  256
370
   -1
100
AcDbCircle
 10
196.9888626269666
 20
114.6308109183509
 40
100
100
AcDbArc
 50
250.5882414476216
 51
282.2482307200476
  0
ARC
  5
7E
100
AcDbEntity
  8
Govde
  6
ByLayer
 62
  256
370
   -1
100
AcDbCircle
 10
142.1346007272969
 20
37.83011228243838
 40
5.925834279986559
100
AcDbArc
 50
115.1088208998567
 51
192.2623567480875
  0
ARC
  5
7F
100
AcDbEntity
  8
Govde
  6
ByLayer
 62
  256
370
   -1
100
AcDbCircle
 10
145.7032382422418
 20
7.07852508975121
 40
2.881773388219511
100
AcDbArc
 50
180
 51
265.798428306227
  0
ARC
  5
80
100
AcDbEntity
  8
Govde
  6
ByLayer
 62
  256
370
   -1
100
AcDbCircle
 10
148.6490268847754
 20
6.452679883645159
 40
2.473435000053271
100
AcDbArc
 50
270
 51
4.056304481056014
  0
ARC
  5
81
100
AcDbEntity
  8
Govde
  6
ByLayer
 62
  256
370
   -1
100
AcDbCircle
 10
160.5269875075051
 20
11.15948839839162
 40
9.707715869288897
100
AcDbArc
 50
70.58823942597859
 51
184.056304481056
  0
ARC
  5
82
100
AcDbEntity
  8
Govde
  6
ByLayer
 62
  256
370
   -1
100
AcDbCircle
 10
149.0779780013504
 20
40.84998500760145
 40
6.13767158831892
100
AcDbArc
 50
95.10448720295979
 51
115.1088054660099
  0
LINE
  5
83
100
AcDbEntity
  8
Govde
  6
ByLayer
 62
  256
370
   -1
100
AcDbLine
 10
148.4251142679336
 20
46.96863755844862
 11
188.2677993953041
 21
48.35649967208388
  0
ARC
  5
84
100
AcDbEntity
  8
Govde
  6
ByLayer
 62
  256
370
   -1
100
AcDbCircle
 10
219.8900188929691
 20
9.138770929393965
 40
7.949217039085317
100
AcDbArc
 50
39.08304042471936
 51
102.248232501674
  0
ARC
  5
85
100
AcDbEntity
  8
Govde
  6
ByLayer
 62
  256
370
   -1
100
AcDbCircle
 10
235.4062799264706
 20
28.11989622447387
 40
11.20099992920074
100
AcDbArc
 50
31.21271484378053
 51
73.56221788901851
  0
LINE
  5
86
100
AcDbEntity
  8
Govde
  6
ByLayer
 62
  256
370
   -1
100
AcDbLine
 10
247.988839340073
 20
25.10295304903532
 11
246.8004439156034
 21
21.81543526720629
  0
ARC
  5
87
100
AcDbEntity
  8
Govde
  6
ByLayer
 62
  256
370
   -1
100
AcDbCircle
 10
242.9226974337342
 20
26.93429823429469
 40
5.386986077830104
100
AcDbArc
 50
340.1257280658917
 51
391.2127148437805
  0
LINE
  5
88
100
AcDbEntity
  8
Govde
  6
ByLayer
 62
  256
370
   -1
100
AcDbLine
 10
245.2459635006295
 20
19.28120666326182
 11
234.8472019311101
 21
8.198012546778948
  0
ARC
  5
89
100
AcDbEntity
  8
Govde
  6
ByLayer
 62
  256
370
   -1
100
AcDbCircle
 10
232.8754663615212
 20
10.04798538410408
 40
2.703727178400718
100
AcDbArc
 50
219.0830404247195
 51
316.8248727314173
  0
ARC
  5
8A
100
AcDbEntity
  8
Govde
  6
ByLayer
 62
  256
370
   -1
100
AcDbCircle
 10
239.8777688846925
 20
24.31789331543254
 40
7.361095425731793
100
AcDbArc
 50
316.8248727314172
 51
340.1257280658917
  0
LINE
  5
8B
100
AcDbEntity
  8
Govde
  6
ByLayer
 62
  256
370
   -1
100
AcDbLine
 10
128.0732531702361
 20
14.52199105112098
 11
41.27619649918236
 21
14.77217226413347
  0
LINE
  5
8C
100
AcDbEntity
  8
Govde
  6
ByLayer
 62
  256
370
   -1
100
AcDbLine
 10
132.2222700740039
 20
18.77290422017519
 11
129.6890448394312
 21
15.33546969694763
  0
ARC
  5
8D
100
AcDbEntity
  8
Govde
  6
ByLayer
 62
  256
370
   -1
100
AcDbCircle
 10
128.0790178858464
 20
16.52198274311721
 40
2
100
AcDbArc
 50
269.8348528340445
 51
323.6115568697634
  0
LINE
  5
8E
100
AcDbEntity
  8
Govde
  6
ByLayer
 62
  256
370
   -1
100
AcDbLine
 10
8.616534869472648
 20
28.71266740869599
 11
1.417601050139432
 21
35.44002625348606
  0
ARC
  5
8F
100
AcDbEntity
  8
Govde
  6
ByLayer
 62
  256
370
   -1
100
AcDbCircle
 10
41.41755021574336
 20
63.81297112857352
 40
48.04100258085728
100
AcDbArc
 50
226.9394203694984
 51
269.8348528340447
  0
LINE
  5
90
100
AcDbEntity
  8
Govde
  6
ByLayer
 62
  256
370
   -1
100
AcDbLine
 10
128.5832067832133
 20
15.52052533025764
 11
41.2790788569875
 21
15.77216811013158
  0
LINE
  5
91
100
AcDbEntity
  8
Govde
  6
ByLayer
 62
  256
370
   -1
100
AcDbLine
 10
131.3453557430238
 20
19.26859560177093
 11
128.5832067832133
 21
15.52052533025764
  0
LINE
  5
92
100
AcDbEntity
  8
Govde
  6
ByLayer
 62
  256
370
   -1
100
AcDbLine
 10
132.8791173689453
 20
20.08062792656404
 11
139.7238060337191
 21
20.34182411022653
  0
ARC
  5
93
100
AcDbEntity
  8
Govde
  6
ByLayer
 62
  256
370
   -1
100
AcDbCircle
 10
132.9553826966085
 20
18.08208255560134
 40
2
100
AcDbArc
 50
92.1853705420782
 51
143.6115568697632
  0
LINE
  5
94
100
AcDbEntity
  8
Govde
  6
ByLayer
 62
  256
370
   -1
100
AcDbLine
 10
21.4279046926799
 20
38.66961795211288
 11
66.74659903442965
 21
42.28269674076159
  0
ARC
  5
95
100
AcDbEntity
  8
Govde
  6
ByLayer
 62
  256
370
   -1
100
AcDbCircle
 10
17.45421292984294
 20
88.51146556808676
 40
50
100
AcDbArc
 50
263.401404797268
 51
274.5583219127956
  0
ARC
  5
96
100
AcDbEntity
  8
Govde
  6
ByLayer
 62
  256
370
   -1
100
AcDbCircle
 10
65.34254840486888
 20
59.89364436839507
 40
17.66682864901392
100
AcDbArc
 50
274.5583208971715
 51
313.4566435522348
  0
LINE
  5
97
100
AcDbEntity
  8
Govde
  6
ByLayer
 62
  256
370
   -1
100
AcDbLine
 10
84.10789041697001
 20
41.02128948261039
 11
126.6158268608726
 21
40.9971226887708
  0
LINE
  5
98
100
AcDbEntity
  8
Govde
  6
ByLayer
 62
  256
370
   -1
100
AcDbLine
 10
126.6140920511506
 20
37.94569675729883
 11
84.10615560724807
 21
37.96986355113842
  0
ARC
  5
99
100
AcDbEntity
  8
Govde
  6
ByLayer
 62
  256
370
   -1
100
AcDbCircle
 10
84.10702301210904
 20
39.49557651687441
 40
1.525713212306323
100
AcDbArc
 50
90
 51
269.9674669594586
  0
ARC
  5
9A
100
AcDbEntity
  8
Govde
  6
ByLayer
 62
  256
370
   -1
100
AcDbCircle
 10
126.6149594560116
 20
39.47140972303482
 40
1.525713212306323
100
AcDbArc
 50
269.9674259618786
 51
449.967367224152
  0
CIRCLE
  5
9B
100
AcDbEntity
  8
Govde
  6
ByLayer
 62
  256
370
   -1
100
AcDbCircle
 10
158.4531743452717
 20
33.82207679039428
 40
3.137119331113623
  0
CIRCLE
  5
9C
100
AcDbEntity
  8
Govde
  6
ByLayer
 62
  256
370
   -1
100
AcDbCircle
 10
158.4531743452717
 20
33.82207679039428
 40
4.786382462688964
  0
CIRCLE
  5
9D
100
AcDbEntity
  8
Govde
  6
ByLayer
 62
  256
370
   -1
100
AcDbCircle
 10
158.4531743452717
 20
33.82207679039428
 40
6.231273899551721
  0
CIRCLE
  5
9E
100
AcDbEntity
  8
Govde
  6
ByLayer
 62
  256
370
   -1
100
AcDbCircle
 10
181.6150276718859
 20
33.93603072660861
 40
3.137119331113623
  0
CIRCLE
  5
9F
100
AcDbEntity
  8
Govde
  6
ByLayer
 62
  256
370
   -1
100
AcDbCircle
 10
181.6150276718859
 20
33.93603072660861
 40
4.786382462688964
  0
CIRCLE
  5
A0
100
AcDbEntity
  8
Govde
  6
ByLayer
 62
  256
370
   -1
100
AcDbCircle
 10
181.6150276718859
 20
33.93603072660861
 40
6.231273899551721
  0
CIRCLE
  5
A1
100
AcDbEntity
  8
Govde
  6
ByLayer
 62
  256
370
   -1
100
AcDbCircle
 10
206.8711500066088
 20
32.67021075279195
 40
3.137119331113623
  0
CIRCLE
  5
A2
100
AcDbEntity
  8
Govde
  6
ByLayer
 62
  256
370
   -1
100
AcDbCircle
 10
206.8711500066088
 20
32.67021075279195
 40
4.786382462688964
  0
CIRCLE
  5
A3
100
AcDbEntity
  8
Govde
  6
ByLayer
 62
  256
370
   -1
100
AcDbCircle
 10
206.8711500066088
 20
32.67021075279195
 40
6.231273899551721
  0
CIRCLE
  5
A4
100
AcDbEntity
  8
Govde
  6
ByLayer
 62
  256
370
   -1
100
AcDbCircle
 10
230.6607132026214
 20
29.28136807989614
 40
3.137119331113623
  0
CIRCLE
  5
A5
100
AcDbEntity
  8
Govde
  6
ByLayer
 62
  256
370
   -1
100
AcDbCircle
 10
230.6607132026214
 20
29.28136807989614
 40
4.786382462688964
  0
CIRCLE
  5
A6
100
AcDbEntity
  8
Govde
  6
ByLayer
 62
  256
370
   -1
100
AcDbCircle
 10
230.6607132026214
 20
29.28136807989614
 40
6.231273899551721
  0
LINE
  5
A7
100
AcDbEntity
  8
Govde
  6
ByLayer
 62
  256
370
   -1
100
AcDbLine
 10
167.3733375704505
 20
42.34101998007507
 11
167.3733375704505
 21
24.16772932273811
  0
LINE
  5
A8
100
AcDbEntity
  8
Govde
  6
ByLayer
 62
  256
370
   -1
100
AcDbLine
 10
171.0267562557766
 20
24.16772932273811
 11
171.0267562557766
 21
42.34101998007507
  0
LINE
  5
A9
100
AcDbEntity
  8
Govde
  6
ByLayer
 62
  256
370
   -1
100
AcDbLine
 10
191.1294569938482
 20
22.56069692015122
 11
191.9130598347823
 21
42.81381650121794
  0
LINE
  5
AA
100
AcDbEntity
  8
Govde
  6
ByLayer
 62
  256
370
   -1
100
AcDbLine
 10
195.9100692860012
 20
42.65917030221244
 11
195.1264664450671
 21
22.40605072114572
  0
LINE
  5
AB
100
AcDbEntity
  8
Govde
  6
ByLayer
 62
  256
370
   -1
100
AcDbLine
 10
215.2795773983453
 20
23.18647440286786
 11
218.7153744701334
 21
39.94351977053615
  0
LINE
  5
AC
100
AcDbEntity
  8
Govde
  6
ByLayer
 62
  256
370
   -1
100
AcDbLine
 10
222.6338564006122
 20
39.14009002220055
 11
219.1980593288241
 21
22.38304465453226
  0
ARC
  5
AD
100
AcDbEntity
  8
Govde
  6
ByLayer
 62
  256
370
   -1
100
AcDbCircle
 10
169.2000469131136
 20
42.34101998007507
 40
1.826709342663035
100
AcDbArc
 50
0
 51
179.9999736063351
  0
ARC
  5
AE
100
AcDbEntity
  8
Govde
  6
ByLayer
 62
  256
370
   -1
100
AcDbCircle
 10
169.2000469131136
 20
24.16772932273811
 40
1.826709342663035
100
AcDbArc
 50
180.0001064834074
 51
0
  0
ARC
  5
AF
100
AcDbEntity
  8
Govde
  6
ByLayer
 62
  256
370
   -1
100
AcDbCircle
 10
193.1279617194576
 20
22.48337382064847
 40
2
100
AcDbArc
 50
177.7843041634107
 51
357.7843041634107
  0
ARC
  5
B0
100
AcDbEntity
  8
Govde
  6
ByLayer
 62
  256
370
   -1
100
AcDbCircle
 10
193.9115645603918
 20
42.73649340171519
 40
2
100
AcDbArc
 50
357.7843041634107
 51
177.7843041634107
  0
ARC
  5
B1
100
AcDbEntity
  8
Govde
  6
ByLayer
 62
  256
370
   -1
100
AcDbCircle
 10
220.6746154353728
 20
39.54180489636835
 40
2
100
AcDbArc
 50
348.4128959102403
 51
528.4128959102404
  0
ARC
  5
B2
100
AcDbEntity
  8
Govde
  6
ByLayer
 62
  256
370
   -1
100
AcDbCircle
 10
217.2388183635847
 20
22.78475952870006
 40
2
100
AcDbArc
 50
168.4128558700478
 51
348.4129356234841
  0
LINE
  5
B3
100
AcDbEntity
  8
Sarı
  6
ByLayer
 62
  256
370
   -1
100
AcDbLine
 10
1.417601050139442
 20
104.5549565306548
 11
12.40400918872012
 21
108.1875592216371
  0
ARC
  5
B4
100
AcDbEntity
  8
Sarı
  6
ByLayer
 62
  256
370
   -1
100
AcDbCircle
 10
134.9629535823895
 20
85.86808151688544
 40
3.404518790549928
100
AcDbArc
 50
92.18537054207793
 51
143.6115568697633
  0
ARC
  5
B5
100
AcDbEntity
  8
Sarı
  6
ByLayer
 62
  256
370
   -1
100
AcDbCircle
 10
41.41755021574336
 20
132.9279014057422
 40
49.04100258085728
100
AcDbArc
 50
215.3490126616393
 51
269.8348528340447
  0
LINE
  5
B6
100
AcDbEntity
  8
Sarı
  6
ByLayer
 62
  256
370
   -1
100
AcDbLine
 10
64.12289564852891
 20
115.917266743441
 11
107.9798096307798
 21
116.7931735494977
  0
ARC
  5
B7
100
AcDbEntity
  8
Sarı
  6
ByLayer
 62
  256
370
   -1
100
AcDbCircle
 10
68.20060387785726
 20
-88.25479565151184
 40
204.2127781678023
100
AcDbArc
 50
91.14415465236465
 51
105.8564265003103
  0
ARC
  5
B8
100
AcDbEntity
  8
Sarı
  6
ByLayer
 62
  256
370
   -1
100
AcDbCircle
 10
107.3067967297539
 20
150.4911294337745
 40
33.70467589435646
100
AcDbArc
 50
271.1441546523646
 51
297.8061747492219
  0
ARC
  5
B9
100
AcDbEntity
  8
Sarı
  6
ByLayer
 62
  256
370
   -1
100
AcDbCircle
 10
153.4853559639765
 20
216.5320653012898
 40
100.5758752839546
100
AcDbArc
 50
252.3732116589098
 51
267.1769844642591
  0
LINE
  5
BA
100
AcDbEntity
  8
Sarı
  6
ByLayer
 62
  256
370
   -1
100
AcDbLine
 10
128.0732531702361
 20
83.63692132828973
 11
41.27619649918236
 21
83.88710254130223
  0
LINE
  5
BB
100
AcDbEntity
  8
Sarı
  6
ByLayer
 62
  256
370
   -1
100
AcDbLine
 10
132.2222700740039
 20
87.88783449734393
 11
129.6890448394312
 21
84.45039997411632
  0
ARC
  5
BC
100
AcDbEntity
  8
Sarı
  6
ByLayer
 62
  256
370
   -1
100
AcDbCircle
 10
128.0790178858464
 20
85.63691302028593
 40
2
100
AcDbArc
 50
269.8348528340445
 51
323.6115568697634
  0
LINE
  5
BD
100
AcDbEntity
  8
Sarı
  6
ByLayer
 62
  256
370
   -1
100
AcDbLine
 10
8.616534869472648
 20
97.82759768586473
 11
1.417601050139432
 21
104.5549565306548
  0
ARC
  5
BE
100
AcDbEntity
  8
Sarı
  6
ByLayer
 62
  256
370
   -1
100
AcDbCircle
 10
41.41755021574336
 20
132.9279014057422
 40
48.04100258085728
100
AcDbArc
 50
226.9394203694984
 51
269.8348528340447
  0
LINE
  5
BF
100
AcDbEntity
  8
Sarı
  6
ByLayer
 62
  256
370
   -1
100
AcDbLine
 10
128.5832067832133
 20
84.63545560742634
 11
41.2790788569875
 21
84.88709838730034
  0
LINE
  5
C0
100
AcDbEntity
  8
Sarı
  6
ByLayer
 62
  256
370
   -1
100
AcDbLine
 10
131.3453557430238
 20
88.38352587893962
 11
128.5832067832133
 21
84.63545560742634
  0
ARC
  5
C1
100
AcDbEntity
  8
Sarı
  6
ByLayer
 62
  256
370
   -1
100
AcDbCircle
 10
132.9553826966085
 20
87.19701283277001
 40
2
100
AcDbArc
 50
92.1853705420782
 51
143.6115568697632
  0
LINE
  5
C2
100
AcDbEntity
  8
Sarı
  6
ByLayer
 62
  256
370
   -1
100
AcDbLine
 10
21.4279046926799
 20
107.7845482292816
 11
66.74659903442965
 21
111.3976270179303
  0
ARC
  5
C3
100
AcDbEntity
  8
Sarı
  6
ByLayer
 62
  256
370
   -1
100
AcDbCircle
 10
17.45421292984294
 20
157.6263958452554
 40
50
100
AcDbArc
 50
263.401404797268
 51
274.5583219127956
  0
ARC
  5
C4
100
AcDbEntity
  8
Sarı
  6
ByLayer
 62
  256
370
   -1
100
AcDbCircle
 10
65.34254840486888
 20
129.0085746455638
 40
17.66682864901392
100
AcDbArc
 50
274.5583208971715
 51
313.4566435522348
  0
LINE
  5
C5
100
AcDbEntity
  8
Sarı
  6
ByLayer
 62
  256
370
   -1
100
AcDbLine
 10
84.10789041697001
 20
110.1362197597791
 11
126.6158268608726
 21
110.1120529659395
  0
LINE
  5
C6
100
AcDbEntity
  8
Sarı
  6
ByLayer
 62
  256
370
   -1
100
AcDbLine
 10
126.6140920511506
 20
107.0606270344675
 11
84.10615560724807
 21
107.0847938283071
  0
ARC
  5
C7
100
AcDbEntity
  8
Sarı
  6
ByLayer
 62
  256
370
   -1
100
AcDbCircle
 10
84.10702301210904
 20
108.6105067940431
 40
1.525713212306323
100
AcDbArc
 50
90
 51
269.9674669594586
  0
ARC
  5
C8
100
AcDbEntity
  8
Sarı
  6
ByLayer
 62
  256
370
   -1
100
AcDbCircle
 10
126.6149594560116
 20
108.5863400002035
 40
1.525713212306323
100
AcDbArc
 50
269.9674259618786
 51
449.967367224152
  0
LINE
  5
C9
100
AcDbEntity
  8
Sarı
  6
ByLayer
 62
  256
370
   -1
100
AcDbLine
 10
132.8791173689453
 20
89.19555820373273
 11
139.5361052604868
 21
89.44959164734382
  0
ARC
  5
CA
100
AcDbEntity
  8
Sarı
  6
ByLayer
 62
  256
370
   -1
100
AcDbCircle
 10
191.4166300777871
 20
17.51142257171028
 40
100
100
AcDbArc
 50
73.56221872550898
 51
91.99500737723807
  0
ARC
  5
CB
100
AcDbEntity
  8
Sarı
  6
ByLayer
 62
  256
370
   -1
100
AcDbCircle
 10
141.8021879260571
 20
106.9244215310265
 40
5.925834279986559
100
AcDbArc
 50
115.1088208998567
 51
192.2623567480875
  0
ARC
  5
CC
100
AcDbEntity
  8
Sarı
  6
ByLayer
 62
  256
370
   -1
100
AcDbCircle
 10
160.1945747062653
 20
80.25379764697979
 40
9.707715869288897
100
AcDbArc
 50
70.58823942597859
 51
184.056304481056
  0
ARC
  5
CD
100
AcDbEntity
  8
Sarı
  6
ByLayer
 62
  256
370
   -1
100
AcDbCircle
 10
219.5576060917292
 20
78.23308017798209
 40
7.949217039085317
100
AcDbArc
 50
39.08304042471936
 51
102.248232501674
  0
ARC
  5
CE
100
AcDbEntity
  8
Sarı
  6
ByLayer
 62
  256
370
   -1
100
AcDbCircle
 10
235.0738671252308
 20
97.21420547306201
 40
11.20099992920074
100
AcDbArc
 50
31.21271484378053
 51
73.56221788901851
  0
ARC
  5
CF
100
AcDbEntity
  8
Sarı
  6
ByLayer
 62
  256
370
   -1
100
AcDbCircle
 10
242.5902846324944
 20
96.02860748288276
 40
5.386986077830104
100
AcDbArc
 50
340.1257280658917
 51
31.21271484378047
  0
ARC
  5
D0
100
AcDbEntity
  8
Sarı
  6
ByLayer
 62
  256
370
   -1
100
AcDbCircle
 10
232.5430535602814
 20
79.14229463269217
 40
2.703727178400718
100
AcDbArc
 50
219.0830404247195
 51
316.8248727314173
  0
ARC
  5
D1
100
AcDbEntity
  8
Sarı
  6
ByLayer
 62
  256
370
   -1
100
AcDbCircle
 10
239.5453560834526
 20
93.41220256402067
 40
7.361095425731793
100
AcDbArc
 50
316.8248727314172
 51
340.1257280658917
  0
ARC
  5
D2
100
AcDbEntity
  8
Sarı
  6
ByLayer
 62
  256
370
   -1
100
AcDbCircle
 10
145.3708254410019
 20
76.17283433833927
 40
2.881773388219511
100
AcDbArc
 50
192.2623862592557
 51
265.798428306227
  0
ARC
  5
D3
100
AcDbEntity
  8
Sarı
  6
ByLayer
 62
  256
370
   -1
100
AcDbCircle
 10
148.3166140835356
 20
75.54698913223328
 40
2.473435000053271
100
AcDbArc
 50
265.7984927965804
 51
4.056304481056014
  0
ARC
  5
D4
100
AcDbEntity
  8
Sarı
  6
ByLayer
 62
  256
370
   -1
100
AcDbCircle
 10
148.7455652001106
 20
109.9442942561896
 40
6.13767158831892
100
AcDbArc
 50
91.99503374962819
 51
115.1088054660099
  0
LINE
  5
D5
100
AcDbEntity
  8
Sarı
  6
ByLayer
 62
  256
370
   -1
100
AcDbLine
 10
150.5111764806728
 20
79.56710542812468
 11
150.7838531759369
 21
75.72195187231029
  0
LINE
  5
D6
100
AcDbEntity
  8
Sarı
  6
ByLayer
 62
  256
370
   -1
100
AcDbLine
 10
142.554799093499
 20
75.56077758343849
 11
136.0115496337774
 21
105.6658429352099
  0
LINE
  5
D7
100
AcDbEntity
  8
Sarı
  6
ByLayer
 62
  256
370
   -1
100
AcDbLine
 10
139.2876263206111
 20
112.2902851005073
 11
146.141114295452
 21
115.501977947376
  0
LINE
  5
D8
100
AcDbEntity
  8
Sarı
  6
ByLayer
 62
  256
370
   -1
100
AcDbLine
 10
148.5318952250194
 20
116.0782454842156
 11
187.9353888831325
 21
117.4508090004084
  0
LINE
  5
D9
100
AcDbEntity
  8
Sarı
  6
ByLayer
 62
  256
370
   -1
100
AcDbLine
 10
219.7140275150896
 20
113.4241813594511
 11
238.243458748994
 21
107.9573934706969
  0
LINE
  5
DA
100
AcDbEntity
  8
Sarı
  6
ByLayer
 62
  256
370
   -1
100
AcDbLine
 10
244.6535142575296
 20
103.018751987183
 11
247.1975006005692
 21
98.8202342534687
  0
LINE
  5
DB
100
AcDbEntity
  8
Sarı
  6
ByLayer
 62
  256
370
   -1
100
AcDbLine
 10
247.6564265388332
 20
94.19726229762347
 11
246.4680311143636
 21
90.9097445157945
  0
LINE
  5
DC
100
AcDbEntity
  8
Sarı
  6
ByLayer
 62
  256
370
   -1
100
AcDbLine
 10
244.9135506993896
 20
88.37551591184999
 11
234.5147891298703
 21
77.29232179536697
  0
LINE
  5
DD
100
AcDbEntity
  8
Sarı
  6
ByLayer
 62
  256
370
   -1
100
AcDbLine
 10
230.4443311570961
 20
77.4377404594284
 11
225.7280511059259
 21
83.24463281775959
  0
LINE
  5
DE
100
AcDbEntity
  8
Sarı
  6
ByLayer
 62
  256
370
   -1
100
AcDbLine
 10
148.135399272871
 20
73.08020136432847
 11
145.1596907152979
 21
73.298805808792
  0
ARC
  5
DF
100
AcDbEntity
  8
Sarı
  6
ByLayer
 62
  256
370
   -1
100
AcDbCircle
 10
196.6564498257268
 20
183.725120166939
 40
100
100
AcDbArc
 50
250.5882414476215
 51
282.2482307200475
  0
CIRCLE
  5
E0
100
AcDbEntity
  8
Sarı
  6
ByLayer
 62
  256
370
   -1
100
AcDbCircle
 10
158.4531743452717
 20
102.9370070675631
 40
3.137119331113623
  0
CIRCLE
  5
E1
100
AcDbEntity
  8
Sarı
  6
ByLayer
 62
  256
370
   -1
100
AcDbCircle
 10
181.6150276718859
 20
103.0509610037775
 40
3.137119331113623
  0
CIRCLE
  5
E2
100
AcDbEntity
  8
Sarı
  6
ByLayer
 62
  256
370
   -1
100
AcDbCircle
 10
206.8711500066088
 20
101.7851410299608
 40
3.137119331113623
  0
CIRCLE
  5
E3
100
AcDbEntity
  8
Sarı
  6
ByLayer
 62
  256
370
   -1
100
AcDbCircle
 10
230.6607132026214
 20
98.39629835706504
 40
3.137119331113623
  0
MTEXT
  5
E4
100
AcDbEntity
  8
Etiket
  6
ByLayer
 62
  256
370
   -1
100
AcDbMText
 10
9.285219304939433
 20
-15.75673579020025
 30
0
 40
5
 41
161.91667180954
 71
    1
 72
    1
  1
Çizen: Mustafa Halil ( @AcikKaynakci )\P__________\P\PReferans Calisma;\P * Sanatci : Finlay Pearston\P * Model Adi : Combat Knife\P * https://www.artstation.com/artwork/AqRvWN
  7
standard
210
0
220
0
230
1
 50
0
 73
    2
 44
1
  0
ENDSEC
  0
SECTION
  2
OBJECTS
  0
DICTIONARY
  5
C
330
0
100
AcDbDictionary
281
    1
  3
ACAD_GROUP
350
D
  3
ACAD_IMAGE_DICT
350
E5
  0
DICTIONARY
  5
D
330
C
100
AcDbDictionary
281
    1
  0
IMAGEDEF_REACTOR
  5
6C
330
6D
100
AcDbRasterImageDefReactor
 90
    2
330
6D
  0
DICTIONARY
  5
E5
330
C
100
AcDbDictionary
281
    1
  3
finlay-pearston-01_
350
6B
  0
IMAGEDEF
  5
6B
102
{ACAD_REACTORS
330
6C
102
}
100
AcDbRasterImageDef
 90
    0
  1
C:/Users/mhgorentas/Desktop/finlay-pearston-01_.png
 10
1000
 20
245
 11
1
 21
1
280
    1
281
    0
  0
ENDSEC
  0
EOF
