999
dxfrw 0.6.3
  0
SECTION
  2
HEADER
  9
$ACADVER
  1
AC1021
  9
$DWGCODEPAGE
  3
ANSI_1252
  9
$INSBASE
 10
0
 20
0
 30
0
  9
$EXTMIN
 10
159.5932323724043
 20
-345.3934535837482
 30
0
  9
$EXTMAX
 10
1166.878424942066
 20
531.2231820649047
 30
0
  9
$LIMMIN
 10
0
 20
0
  9
$LIMMAX
 10
420
 20
297
  9
$ORTHOMODE
 70
    0
  9
$REGENMODE
 70
    1
  9
$FILLMODE
 70
    1
  9
$QTEXTMODE
 70
    0
  9
$MIRRTEXT
 70
    0
  9
$LTSCALE
 40
1
  9
$ATTMODE
 70
    0
  9
$TEXTSIZE
 40
2.5
  9
$TRACEWID
 40
15.68
  9
$TEXTSTYLE
  7
STANDARD
  9
$CLAYER
  8
0
  9
$CELTYPE
  6
BYLAYER
  9
$CECOLOR
 62
  256
  9
$CELTSCALE
 40
1
  9
$DISPSILH
 70
    0
  9
$DIMSCALE
 40
2.5
  9
$DIMASZ
 40
2.5
  9
$DIMEXO
 40
0.625
  9
$DIMDLI
 40
3.75
  9
$DIMRND
 40
0
  9
$DIMDLE
 40
0
  9
$DIMEXE
 40
1.25
  9
$DIMTP
 40
0
  9
$DIMTM
 40
0
  9
$DIMTXT
 40
2.5
  9
$DIMCEN
 40
2.5
  9
$DIMTSZ
 40
0
  9
$DIMTOL
 70
    0
  9
$DIMLIM
 70
    0
  9
$DIMTIH
 70
    0
  9
$DIMTOH
 70
    0
  9
$DIMSE1
 70
    0
  9
$DIMSE2
 70
    0
  9
$DIMTAD
 70
    1
  9
$DIMZIN
 70
    8
  9
$DIMBLK
  1

  9
$DIMASO
 70
    1
  9
$DIMSHO
 70
    1
  9
$DIMPOST
  1

  9
$DIMAPOST
  1

  9
$DIMALT
 70
    0
  9
$DIMALTD
 70
    3
  9
$DIMALTF
 40
0.03937
  9
$DIMLFAC
 40
1
  9
$DIMTOFL
 70
    1
  9
$DIMTVP
 40
0
  9
$DIMTIX
 70
    0
  9
$DIMSOXD
 70
    0
  9
$DIMSAH
 70
    0
  9
$DIMBLK1
  1

  9
$DIMBLK2
  1

  9
$DIMSTYLE
  2
STANDARD
  9
$DIMCLRD
 70
    0
  9
$DIMCLRE
 70
    0
  9
$DIMCLRT
 70
    0
  9
$DIMTFAC
 40
1
  9
$DIMGAP
 40
0.625
  9
$DIMJUST
 70
    0
  9
$DIMSD1
 70
    0
  9
$DIMSD2
 70
    0
  9
$DIMTOLJ
 70
    0
  9
$DIMTZIN
 70
    8
  9
$DIMALTZ
 70
    0
  9
$DIMALTTZ
 70
    0
  9
$DIMUPT
 70
    0
  9
$DIMDEC
 70
    2
  9
$DIMTDEC
 70
    2
  9
$DIMALTU
 70
    2
  9
$DIMALTTD
 70
    3
  9
$DIMTXSTY
  7
STANDARD
  9
$DIMAUNIT
 70
    0
  9
$DIMADEC
 70
    0
  9
$DIMALTRND
 40
0
  9
$DIMAZIN
 70
    0
  9
$DIMDSEP
 70
   44
  9
$DIMATFIT
 70
    3
  9
$DIMFRAC
 70
    0
  9
$DIMLDRBLK
  1
STANDARD
  9
$DIMLUNIT
 70
    2
  9
$DIMLWD
 70
   -2
  9
$DIMLWE
 70
   -2
  9
$DIMTMOVE
 70
    0
  9
$DIMFXL
 40
1
  9
$DIMFXLON
 70
    0
  9
$DIMJOGANG
 40
0.7854
  9
$DIMTFILL
 70
    0
  9
$DIMTFILLCLR
 70
    0
  9
$DIMARCSYM
 70
    0
  9
$DIMLTYPE
  6

  9
$DIMLTEX1
  6

  9
$DIMLTEX2
  6

  9
$LUNITS
 70
    2
  9
$LUPREC
 70
    4
  9
$SKETCHINC
 40
1
  9
$FILLETRAD
 40
0
  9
$AUNITS
 70
    0
  9
$AUPREC
 70
    2
  9
$MENU
  1
.
  9
$ELEVATION
 40
0
  9
$PELEVATION
 40
0
  9
$THICKNESS
 40
0
  9
$LIMCHECK
 70
    0
  9
$CHAMFERA
 40
0
  9
$CHAMFERB
 40
0
  9
$CHAMFERC
 40
0
  9
$CHAMFERD
 40
0
  9
$SKPOLY
 70
    0
  9
$USRTIMER
 70
    1
  9
$ANGBASE
 50
0
  9
$ANGDIR
 70
    0
  9
$PDMODE
 70
   34
  9
$PDSIZE
 40
0
  9
$PLINEWID
 40
0
  9
$SPLFRAME
 70
    0
  9
$SPLINETYPE
 70
    2
  9
$SPLINESEGS
 70
    8
  9
$HANDSEED
  5
20000
  9
$SURFTAB1
 70
    6
  9
$SURFTAB2
 70
    6
  9
$SURFTYPE
 70
    6
  9
$SURFU
 70
    6
  9
$SURFV
 70
    6
  9
$UCSBASE
  2

  9
$UCSNAME
  2

  9
$UCSORG
 10
0
 20
0
 30
0
  9
$UCSXDIR
 10
1
 20
0
 30
0
  9
$UCSYDIR
 10
0
 20
1
 30
0
  9
$UCSORTHOREF
  2

  9
$UCSORTHOVIEW
 70
    0
  9
$UCSORGTOP
 10
0
 20
0
 30
0
  9
$UCSORGBOTTOM
 10
0
 20
0
 30
0
  9
$UCSORGLEFT
 10
0
 20
0
 30
0
  9
$UCSORGRIGHT
 10
0
 20
0
 30
0
  9
$UCSORGFRONT
 10
0
 20
0
 30
0
  9
$UCSORGBACK
 10
0
 20
0
 30
0
  9
$PUCSBASE
  2

  9
$PUCSNAME
  2

  9
$PUCSORG
 10
0
 20
0
 30
0
  9
$PUCSXDIR
 10
1
 20
0
 30
0
  9
$PUCSYDIR
 10
0
 20
1
 30
0
  9
$PUCSORTHOREF
  2

  9
$PUCSORTHOVIEW
 70
    0
  9
$PUCSORGTOP
 10
0
 20
0
 30
0
  9
$PUCSORGBOTTOM
 10
0
 20
0
 30
0
  9
$PUCSORGLEFT
 10
0
 20
0
 30
0
  9
$PUCSORGRIGHT
 10
0
 20
0
 30
0
  9
$PUCSORGFRONT
 10
0
 20
0
 30
0
  9
$PUCSORGBACK
 10
0
 20
0
 30
0
  9
$USERI1
 70
    0
  9
$USERI2
 70
    0
  9
$USERI3
 70
    0
  9
$USERI4
 70
    0
  9
$USERI5
 70
    0
  9
$USERR1
 40
0
  9
$USERR2
 40
0
  9
$USERR3
 40
0
  9
$USERR4
 40
0
  9
$USERR5
 40
0
  9
$WORLDVIEW
 70
    1
  9
$SHADEDGE
 70
    3
  9
$SHADEDIF
 70
   70
  9
$TILEMODE
 70
    1
  9
$MAXACTVP
 70
   64
  9
$PINSBASE
 10
0
 20
0
 30
0
  9
$PLIMCHECK
 70
    0
  9
$PEXTMIN
 10
0
 20
0
 30
0
  9
$PEXTMAX
 10
0
 20
0
 30
0
  9
$GRIDMODE
 70
    0
  9
$SNAPSTYLE
 70
    0
  9
$PLIMMIN
 10
0
 20
0
  9
$PLIMMAX
 10
297
 20
210
  9
$UNITMODE
 70
    0
  9
$VISRETAIN
 70
    1
  9
$PLINEGEN
 70
    0
  9
$PSLTSCALE
 70
    1
  9
$TREEDEPTH
 70
 3020
  9
$CMLSTYLE
  2
Standard
  9
$CMLJUST
 70
    0
  9
$CMLSCALE
 40
20
  9
$PROXYGRAPHICS
 70
    1
  9
$MEASUREMENT
 70
    1
  9
$CELWEIGHT
370
   -1
  9
$ENDCAPS
280
    0
  9
$JOINSTYLE
280
    0
  9
$LWDISPLAY
290
    0
  9
$INSUNITS
 70
    4
  9
$HYPERLINKBASE
  1

  9
$STYLESHEET
  1

  9
$XEDIT
290
    1
  9
$CEPSNTYPE
380
    0
  9
$PSTYLEMODE
290
    1
  9
$EXTNAMES
290
    1
  9
$PSVPSCALE
 40
1
  9
$OLESTARTUP
290
    0
  9
$SORTENTS
280
  127
  9
$INDEXCTL
280
    0
  9
$HIDETEXT
280
    1
  9
$XCLIPFRAME
290
    0
  9
$HALOGAP
280
    0
  9
$OBSCOLOR
 70
  257
  9
$OBSLTYPE
280
    0
  9
$INTERSECTIONDISPLAY
280
    0
  9
$INTERSECTIONCOLOR
 70
  257
  9
$DIMASSOC
280
    1
  9
$PROJECTNAME
  1

  9
$CAMERADISPLAY
290
    0
  9
$LENSLENGTH
 40
50
  9
$CAMERAHEIGHT
 40
0
  9
$STEPSPERSEC
 40
2
  9
$STEPSIZE
 40
50
  9
$3DDWFPREC
 40
2
  9
$PSOLWIDTH
 40
5
  9
$PSOLHEIGHT
 40
80
  9
$LOFTANG1
 40
1.570796326794897
  9
$LOFTANG2
 40
1.570796326794897
  9
$LOFTMAG1
 40
0
  9
$LOFTMAG2
 40
0
  9
$LOFTPARAM
 70
    7
  9
$LOFTNORMALS
280
    1
  9
$LATITUDE
 40
1
  9
$LONGITUDE
 40
1
  9
$NORTHDIRECTION
 40
0
  9
$TIMEZONE
 70
-8000
  9
$LIGHTGLYPHDISPLAY
280
    1
  9
$TILEMODELIGHTSYNCH
280
    1
  9
$SOLIDHIST
280
    1
  9
$SHOWHIST
280
    1
  9
$DWFFRAME
280
    2
  9
$DGNFRAME
280
    0
  9
$REALWORLDSCALE
290
    1
  9
$INTERFERECOLOR
 62
    1
  9
$CSHADOW
280
    0
  9
$SHADOWPLANELOCATION
 40
0
  0
ENDSEC
  0
SECTION
  2
CLASSES
  0
ENDSEC
  0
SECTION
  2
TABLES
  0
TABLE
  2
VPORT
  5
8
330
0
100
AcDbSymbolTable
 70
    1
  0
VPORT
  5
31
330
2
100
AcDbSymbolTableRecord
100
AcDbViewportTableRecord
  2
*ACTIVE
 70
    0
 10
0
 20
0
 11
1
 21
1
 12
677.0574368274595
 22
271.2355002065832
 13
0
 23
0
 14
10
 24
10
 15
10
 25
10
 16
0
 26
0
 36
1
 17
0
 27
0
 37
0
 40
897.2429094286211
 41
1.537931034482759
 42
50
 43
0
 44
0
 50
0
 51
0
 71
    0
 72
  100
 73
    1
 74
    3
 75
    0
 76
    0
 77
    0
 78
    0
281
    0
 65
    1
110
0
120
0
130
0
111
1
121
0
131
0
112
0
122
1
132
0
 79
    0
146
0
348
10020
 60
    7
 61
    5
292
1
282
    1
141
0
142
0
 63
  250
421
3358443
  0
ENDTAB
  0
TABLE
  2
LTYPE
  5
5
330
0
100
AcDbSymbolTable
 70
    4
  0
LTYPE
  5
14
330
5
100
AcDbSymbolTableRecord
100
AcDbLinetypeTableRecord
  2
ByBlock
 70
    0
  3

 72
   65
 73
    0
 40
0
  0
LTYPE
  5
15
330
5
100
AcDbSymbolTableRecord
100
AcDbLinetypeTableRecord
  2
ByLayer
 70
    0
  3

 72
   65
 73
    0
 40
0
  0
LTYPE
  5
16
330
5
100
AcDbSymbolTableRecord
100
AcDbLinetypeTableRecord
  2
Continuous
 70
    0
  3
Solid line
 72
   65
 73
    0
 40
0
  0
LTYPE
  5
32
330
5
100
AcDbSymbolTableRecord
100
AcDbLinetypeTableRecord
  2
DOT
 70
    0
  3
Dot . . . . . . . . . . . . . . . . . . . . . .
 72
   65
 73
    2
 40
6.35
 49
0
 74
    0
 49
-6.35
 74
    0
  0
LTYPE
  5
33
330
5
100
AcDbSymbolTableRecord
100
AcDbLinetypeTableRecord
  2
DOTTINY
 70
    0
  3
Dot (.15x) .....................................
 72
   65
 73
    2
 40
0.9525
 49
0
 74
    0
 49
-0.9525
 74
    0
  0
LTYPE
  5
34
330
5
100
AcDbSymbolTableRecord
100
AcDbLinetypeTableRecord
  2
DOT2
 70
    0
  3
Dot (.5x) .....................................
 72
   65
 73
    2
 40
3.175
 49
0
 74
    0
 49
-3.175
 74
    0
  0
LTYPE
  5
35
330
5
100
AcDbSymbolTableRecord
100
AcDbLinetypeTableRecord
  2
DOTX2
 70
    0
  3
Dot (2x) .  .  .  .  .  .  .  .  .  .  .  .  .
 72
   65
 73
    2
 40
12.7
 49
0
 74
    0
 49
-12.7
 74
    0
  0
LTYPE
  5
36
330
5
100
AcDbSymbolTableRecord
100
AcDbLinetypeTableRecord
  2
DASHED
 70
    0
  3
Dashed _ _ _ _ _ _ _ _ _ _ _ _ _ _ _ _ _
 72
   65
 73
    2
 40
19.05
 49
12.7
 74
    0
 49
-6.35
 74
    0
  0
LTYPE
  5
37
330
5
100
AcDbSymbolTableRecord
100
AcDbLinetypeTableRecord
  2
DASHEDTINY
 70
    0
  3
Dashed (.15x) _ _ _ _ _ _ _ _ _ _ _ _ _ _ _ _ _
 72
   65
 73
    2
 40
2.8575
 49
1.905
 74
    0
 49
-0.9525
 74
    0
  0
LTYPE
  5
38
330
5
100
AcDbSymbolTableRecord
100
AcDbLinetypeTableRecord
  2
DASHED2
 70
    0
  3
Dashed (.5x) _ _ _ _ _ _ _ _ _ _ _ _ _ _ _ _ _
 72
   65
 73
    2
 40
9.524999999999999
 49
6.35
 74
    0
 49
-3.175
 74
    0
  0
LTYPE
  5
39
330
5
100
AcDbSymbolTableRecord
100
AcDbLinetypeTableRecord
  2
DASHEDX2
 70
    0
  3
Dashed (2x) ____  ____  ____  ____  ____  ___
 72
   65
 73
    2
 40
38.09999999999999
 49
25.4
 74
    0
 49
-12.7
 74
    0
  0
LTYPE
  5
3A
330
5
100
AcDbSymbolTableRecord
100
AcDbLinetypeTableRecord
  2
DASHDOT
 70
    0
  3
Dash dot __ . __ . __ . __ . __ . __ . __ . __
 72
   65
 73
    4
 40
25.4
 49
12.7
 74
    0
 49
-6.35
 74
    0
 49
0
 74
    0
 49
-6.35
 74
    0
  0
LTYPE
  5
3B
330
5
100
AcDbSymbolTableRecord
100
AcDbLinetypeTableRecord
  2
DASHDOTTINY
 70
    0
  3
Dash dot (.15x) _._._._._._._._._._._._._._._.
 72
   65
 73
    4
 40
3.81
 49
1.905
 74
    0
 49
-0.9525
 74
    0
 49
0
 74
    0
 49
-0.9525
 74
    0
  0
LTYPE
  5
3C
330
5
100
AcDbSymbolTableRecord
100
AcDbLinetypeTableRecord
  2
DASHDOT2
 70
    0
  3
Dash dot (.5x) _._._._._._._._._._._._._._._.
 72
   65
 73
    4
 40
12.7
 49
6.35
 74
    0
 49
-3.175
 74
    0
 49
0
 74
    0
 49
-3.175
 74
    0
  0
LTYPE
  5
3D
330
5
100
AcDbSymbolTableRecord
100
AcDbLinetypeTableRecord
  2
DASHDOTX2
 70
    0
  3
Dash dot (2x) ____  .  ____  .  ____  .  ___
 72
   65
 73
    4
 40
50.8
 49
25.4
 74
    0
 49
-12.7
 74
    0
 49
0
 74
    0
 49
-12.7
 74
    0
  0
LTYPE
  5
3E
330
5
100
AcDbSymbolTableRecord
100
AcDbLinetypeTableRecord
  2
DIVIDE
 70
    0
  3
Divide ____ . . ____ . . ____ . . ____ . . ____
 72
   65
 73
    6
 40
31.75
 49
12.7
 74
    0
 49
-6.35
 74
    0
 49
0
 74
    0
 49
-6.35
 74
    0
 49
0
 74
    0
 49
-6.35
 74
    0
  0
LTYPE
  5
3F
330
5
100
AcDbSymbolTableRecord
100
AcDbLinetypeTableRecord
  2
DIVIDETINY
 70
    0
  3
Divide (.15x) __..__..__..__..__..__..__..__.._
 72
   65
 73
    6
 40
4.7625
 49
1.905
 74
    0
 49
-0.9525
 74
    0
 49
0
 74
    0
 49
-0.9525
 74
    0
 49
0
 74
    0
 49
-0.9525
 74
    0
  0
LTYPE
  5
40
330
5
100
AcDbSymbolTableRecord
100
AcDbLinetypeTableRecord
  2
DIVIDE2
 70
    0
  3
Divide (.5x) __..__..__..__..__..__..__..__.._
 72
   65
 73
    6
 40
15.875
 49
6.35
 74
    0
 49
-3.175
 74
    0
 49
0
 74
    0
 49
-3.175
 74
    0
 49
0
 74
    0
 49
-3.175
 74
    0
  0
LTYPE
  5
41
330
5
100
AcDbSymbolTableRecord
100
AcDbLinetypeTableRecord
  2
DIVIDEX2
 70
    0
  3
Divide (2x) ________  .  .  ________  .  .  _
 72
   65
 73
    6
 40
63.5
 49
25.4
 74
    0
 49
-12.7
 74
    0
 49
0
 74
    0
 49
-12.7
 74
    0
 49
0
 74
    0
 49
-12.7
 74
    0
  0
LTYPE
  5
42
330
5
100
AcDbSymbolTableRecord
100
AcDbLinetypeTableRecord
  2
BORDER
 70
    0
  3
Border __ __ . __ __ . __ __ . __ __ . __ __ .
 72
   65
 73
    6
 40
44.45
 49
12.7
 74
    0
 49
-6.35
 74
    0
 49
12.7
 74
    0
 49
-6.35
 74
    0
 49
0
 74
    0
 49
-6.35
 74
    0
  0
LTYPE
  5
43
330
5
100
AcDbSymbolTableRecord
100
AcDbLinetypeTableRecord
  2
BORDERTINY
 70
    0
  3
Border (.15x) __.__.__.__.__.__.__.__.__.__.__.
 72
   65
 73
    6
 40
6.6675
 49
1.905
 74
    0
 49
-0.9525
 74
    0
 49
1.905
 74
    0
 49
-0.9525
 74
    0
 49
0
 74
    0
 49
-0.9525
 74
    0
  0
LTYPE
  5
44
330
5
100
AcDbSymbolTableRecord
100
AcDbLinetypeTableRecord
  2
BORDER2
 70
    0
  3
Border (.5x) __.__.__.__.__.__.__.__.__.__.__.
 72
   65
 73
    6
 40
22.225
 49
6.35
 74
    0
 49
-3.175
 74
    0
 49
6.35
 74
    0
 49
-3.175
 74
    0
 49
0
 74
    0
 49
-3.175
 74
    0
  0
LTYPE
  5
45
330
5
100
AcDbSymbolTableRecord
100
AcDbLinetypeTableRecord
  2
BORDERX2
 70
    0
  3
Border (2x) ____  ____  .  ____  ____  .  ___
 72
   65
 73
    6
 40
88.89999999999999
 49
25.4
 74
    0
 49
-12.7
 74
    0
 49
25.4
 74
    0
 49
-12.7
 74
    0
 49
0
 74
    0
 49
-12.7
 74
    0
  0
LTYPE
  5
46
330
5
100
AcDbSymbolTableRecord
100
AcDbLinetypeTableRecord
  2
CENTER
 70
    0
  3
Center ____ _ ____ _ ____ _ ____ _ ____ _ ____
 72
   65
 73
    4
 40
50.8
 49
31.75
 74
    0
 49
-6.35
 74
    0
 49
6.35
 74
    0
 49
-6.35
 74
    0
  0
LTYPE
  5
47
330
5
100
AcDbSymbolTableRecord
100
AcDbLinetypeTableRecord
  2
CENTERTINY
 70
    0
  3
Center (.15x) ___ _ ___ _ ___ _ ___ _ ___ _ ___
 72
   65
 73
    4
 40
7.619999999999999
 49
4.7625
 74
    0
 49
-0.9525
 74
    0
 49
0.9525
 74
    0
 49
-0.9525
 74
    0
  0
LTYPE
  5
48
330
5
100
AcDbSymbolTableRecord
100
AcDbLinetypeTableRecord
  2
CENTER2
 70
    0
  3
Center (.5x) ___ _ ___ _ ___ _ ___ _ ___ _ ___
 72
   65
 73
    4
 40
28.575
 49
19.05
 74
    0
 49
-3.175
 74
    0
 49
3.175
 74
    0
 49
-3.175
 74
    0
  0
LTYPE
  5
49
330
5
100
AcDbSymbolTableRecord
100
AcDbLinetypeTableRecord
  2
CENTERX2
 70
    0
  3
Center (2x) ________  __  ________  __  _____
 72
   65
 73
    4
 40
101.6
 49
63.5
 74
    0
 49
-12.7
 74
    0
 49
12.7
 74
    0
 49
-12.7
 74
    0
  0
ENDTAB
  0
TABLE
  2
LAYER
  5
2
330
0
100
AcDbSymbolTable
 70
    1
  0
LAYER
  5
10
330
2
100
AcDbSymbolTableRecord
100
AcDbLayerTableRecord
  2
0
 70
    0
 62
    7
  6
CONTINUOUS
370
  200
390
F
  0
LAYER
  5
4A
330
2
100
AcDbSymbolTableRecord
100
AcDbLayerTableRecord
  2
ref
 70
    5
 62
    7
  6
CONTINUOUS
370
    0
390
F
  0
ENDTAB
  0
TABLE
  2
STYLE
  5
3
330
0
100
AcDbSymbolTable
 70
    3
  0
STYLE
  5
4B
330
2
100
AcDbSymbolTableRecord
100
AcDbTextStyleTableRecord
  2
Standard
 70
    0
 40
0
 41
1
 50
0
 71
    0
 42
1
  3
txt
  4

  0
ENDTAB
  0
TABLE
  2
VIEW
  5
6
330
0
100
AcDbSymbolTable
 70
    0
  0
ENDTAB
  0
TABLE
  2
UCS
  5
7
330
0
100
AcDbSymbolTable
 70
    0
  0
ENDTAB
  0
TABLE
  2
APPID
  5
9
330
0
100
AcDbSymbolTable
 70
    1
  0
APPID
  5
12
330
9
100
AcDbSymbolTableRecord
100
AcDbRegAppTableRecord
  2
ACAD
 70
    0
  0
APPID
  5
4C
330
9
100
AcDbSymbolTableRecord
100
AcDbRegAppTableRecord
  2
LibreCad
 70
    0
  0
ENDTAB
  0
TABLE
  2
DIMSTYLE
  5
A
330
0
100
AcDbSymbolTable
 70
    1
100
AcDbDimStyleTable
 71
    1
  0
DIMSTYLE
105
4D
330
A
100
AcDbSymbolTableRecord
100
AcDbDimStyleTableRecord
  2
Standard
 70
    0
 40
1
 41
2.5
 42
0.625
 43
0.38
 44
1.25
 45
0
 46
0
 47
0
 48
0
 49
1
140
2.5
141
0.09
142
2.5
143
25.4
144
1
145
0
146
1
147
0.625
148
0
 71
    0
 72
    0
 73
    0
 74
    1
 75
    0
 76
    0
 77
    0
 78
    1
 79
    0
170
    0
171
    2
172
    0
173
    0
174
    0
175
    0
176
    0
177
    0
178
    0
179
    0
271
    2
272
    4
273
    2
274
    2
275
    0
276
    0
277
    2
278
    0
279
    0
280
    0
281
    0
282
    0
283
    1
284
    0
285
    0
286
    0
288
    0
289
    3
340
standard
341

371
   -2
372
   -2
  0
ENDTAB
  0
TABLE
  2
BLOCK_RECORD
  5
1
330
0
100
AcDbSymbolTable
 70
    2
  0
BLOCK_RECORD
  5
1F
330
1
100
AcDbSymbolTableRecord
100
AcDbBlockTableRecord
  2
*Model_Space
 70
    0
280
    1
281
    0
  0
BLOCK_RECORD
  5
1E
330
1
100
AcDbSymbolTableRecord
100
AcDbBlockTableRecord
  2
*Paper_Space
 70
    0
280
    1
281
    0
  0
ENDTAB
  0
ENDSEC
  0
SECTION
  2
BLOCKS
  0
BLOCK
  5
20
330
1F
100
AcDbEntity
  8
0
100
AcDbBlockBegin
  2
*Model_Space
 70
    0
 10
0
 20
0
 30
0
  3
*Model_Space
  1

  0
ENDBLK
  5
21
330
1F
100
AcDbEntity
  8
0
100
AcDbBlockEnd
  0
BLOCK
  5
1C
330
1B
100
AcDbEntity
  8
0
100
AcDbBlockBegin
  2
*Paper_Space
 70
    0
 10
0
 20
0
 30
0
  3
*Paper_Space
  1

  0
ENDBLK
  5
1D
330
1F
100
AcDbEntity
  8
0
100
AcDbBlockEnd
  0
ENDSEC
  0
SECTION
  2
ENTITIES
  0
HATCH
  5
4E
100
AcDbEntity
  8
0
  6
ByLayer
 62
    4
370
   -1
100
AcDbHatch
 10
0
 20
0
 30
0
210
0
220
0
230
1
  2
SOLID
 70
    1
 71
    0
 91
    1
 92
    0
 93
    5
 72
    1
 10
233.120281529028
 20
378.1625038551668
 11
271.2523496567064
 21
372.0800880801997
 72
    1
 10
271.2523496567064
 20
372.0800880801997
 11
282.3934663129129
 21
341.8555513871802
 72
    1
 10
282.3934663129129
 20
341.8555513871802
 11
269.8487152470987
 21
354.6516274942363
 72
    1
 10
269.8487152470987
 20
354.6516274942363
 11
255.7486911671773
 21
358.5213953007292
 72
    1
 10
255.7486911671773
 20
358.5213953007292
 11
233.120281529028
 21
378.1625038551668
 97
    0
 75
    0
 76
    1
 98
    0
  0
HATCH
  5
4F
100
AcDbEntity
  8
0
  6
ByLayer
 62
    4
370
   -1
100
AcDbHatch
 10
0
 20
0
 30
0
210
0
220
0
230
1
  2
SOLID
 70
    1
 71
    0
 91
    1
 92
    0
 93
    5
 72
    1
 10
393.7688659367352
 20
378.0567505511427
 11
355.6288228782396
 21
372.0245439192726
 72
    1
 10
355.6288228782396
 20
372.0245439192726
 11
344.4479228944492
 21
341.8147015792774
 72
    1
 10
344.4479228944492
 20
341.8147015792774
 11
357.0095101300507
 21
354.5942504431142
 72
    1
 10
357.0095101300507
 20
354.5942504431142
 11
371.1146168437756
 21
358.445451103293
 72
    1
 10
371.1146168437756
 20
358.445451103293
 11
393.7688659367352
 21
378.0567505511427
 97
    0
 75
    0
 76
    1
 98
    0
  0
HATCH
  5
50
100
AcDbEntity
  8
0
  6
ByLayer
 62
    4
370
   -1
100
AcDbHatch
 10
0
 20
0
 30
0
210
0
220
0
230
1
  2
SOLID
 70
    1
 71
    0
 91
    1
 92
    0
 93
    8
 72
    1
 10
287.3639764022234
 20
259.4961852397912
 11
292.4308475226658
 21
271.5300041508415
 72
    1
 10
292.4308475226658
 20
271.5300041508415
 11
313.1507312116171
 21
275.1491978083002
 72
    1
 10
313.1507312116171
 20
275.1491978083002
 11
334.3179612611963
 21
271.5024302964549
 72
    1
 10
334.3179612611963
 20
271.5024302964549
 11
339.3689845196758
 21
259.4619508800272
 72
    1
 10
339.3689845196758
 20
259.4619508800272
 11
331.3843700923631
 21
242.4622383303646
 72
    1
 10
331.3843700923631
 20
242.4622383303646
 11
313.348821795842
 21
232.6540002451557
 72
    1
 10
313.348821795842
 20
232.6540002451557
 11
295.3262024486327
 21
242.4859750497352
 72
    1
 10
295.3262024486327
 20
242.4859750497352
 11
287.3639764022234
 21
259.4961852397912
 97
    0
 75
    0
 76
    1
 98
    0
  0
HATCH
  5
51
100
AcDbEntity
  8
0
  6
ByLayer
 62
  256
370
   -1
100
AcDbHatch
 10
0
 20
0
 30
0
210
0
220
0
230
1
  2
SOLID
 70
    1
 71
    0
 91
    1
 92
    0
 93
    8
 72
    1
 10
461.5724582182869
 20
-180.9751037037278
 11
466.6393293387292
 21
-168.9412847926775
 72
    1
 10
466.6393293387292
 20
-168.9412847926775
 11
487.3592130276805
 21
-165.3220911352188
 72
    1
 10
487.3592130276805
 20
-165.3220911352188
 11
508.5264430772598
 21
-168.9688586470642
 72
    1
 10
508.5264430772598
 20
-168.9688586470642
 11
513.5774663357391
 21
-181.0093380634918
 72
    1
 10
513.5774663357391
 20
-181.0093380634918
 11
505.5928519084265
 21
-198.0090506131544
 72
    1
 10
505.5928519084265
 20
-198.0090506131544
 11
487.5573036119055
 21
-207.8172886983634
 72
    1
 10
487.5573036119055
 20
-207.8172886983634
 11
469.5346842646962
 21
-197.9853138937838
 72
    1
 10
469.5346842646962
 20
-197.9853138937838
 11
461.5724582182869
 21
-180.9751037037278
 97
    0
 75
    0
 76
    1
 98
    0
  0
HATCH
  5
52
100
AcDbEntity
  8
0
  6
ByLayer
 62
  256
370
   -1
100
AcDbHatch
 10
0
 20
0
 30
0
210
0
220
0
230
1
  2
SOLID
 70
    1
 71
    0
 91
    1
 92
    0
 93
    5
 72
    1
 10
567.9773477527987
 20
-62.4145383923763
 11
529.837304694303
 21
-68.44674502424647
 72
    1
 10
529.837304694303
 20
-68.44674502424647
 11
518.6564047105127
 21
-98.65658736424166
 72
    1
 10
518.6564047105127
 20
-98.65658736424166
 11
531.217991946114
 21
-85.87703850040486
 72
    1
 10
531.217991946114
 20
-85.87703850040486
 11
545.323098659839
 21
-82.02583784022607
 72
    1
 10
545.323098659839
 20
-82.02583784022607
 11
567.9773477527987
 21
-62.4145383923763
 97
    0
 75
    0
 76
    1
 98
    0
  0
HATCH
  5
53
100
AcDbEntity
  8
0
  6
ByLayer
 62
  256
370
   -1
100
AcDbHatch
 10
0
 20
0
 30
0
210
0
220
0
230
1
  2
SOLID
 70
    1
 71
    0
 91
    1
 92
    0
 93
    5
 72
    1
 10
407.3287633450915
 20
-62.30878508835218
 11
445.4608314727699
 21
-68.39120086331928
 72
    1
 10
445.4608314727699
 20
-68.39120086331928
 11
456.6019481289765
 21
-98.61573755633879
 72
    1
 10
456.6019481289765
 20
-98.61573755633879
 11
444.0571970631621
 21
-85.81966144928276
 72
    1
 10
444.0571970631621
 20
-85.81966144928276
 11
429.9571729832406
 21
-81.94989364278985
 72
    1
 10
429.9571729832406
 20
-81.94989364278985
 11
407.3287633450915
 21
-62.30878508835218
 97
    0
 75
    0
 76
    1
 98
    0
  0
HATCH
  5
54
100
AcDbEntity
  8
0
  6
ByLayer
 62
    1
370
   -1
100
AcDbHatch
 10
0
 20
0
 30
0
210
0
220
0
230
1
  2
SOLID
 70
    1
 71
    0
 91
    1
 92
    0
 93
    5
 72
    1
 10
758.2207691788983
 20
-62.30878508835218
 11
796.3528373065767
 21
-68.39120086331928
 72
    1
 10
796.3528373065767
 20
-68.39120086331928
 11
807.4939539627833
 21
-98.61573755633879
 72
    1
 10
807.4939539627833
 20
-98.61573755633879
 11
794.9492028969689
 21
-85.81966144928276
 72
    1
 10
794.9492028969689
 20
-85.81966144928276
 11
780.8491788170475
 21
-81.94989364278985
 72
    1
 10
780.8491788170475
 20
-81.94989364278985
 11
758.2207691788983
 21
-62.30878508835218
 97
    0
 75
    0
 76
    1
 98
    0
  0
HATCH
  5
55
100
AcDbEntity
  8
0
  6
ByLayer
 62
    1
370
   -1
100
AcDbHatch
 10
0
 20
0
 30
0
210
0
220
0
230
1
  2
SOLID
 70
    1
 71
    0
 91
    1
 92
    0
 93
    5
 72
    1
 10
918.8693535866055
 20
-62.4145383923763
 11
880.7293105281099
 21
-68.44674502424647
 72
    1
 10
880.7293105281099
 20
-68.44674502424647
 11
869.5484105443195
 21
-98.65658736424166
 72
    1
 10
869.5484105443195
 20
-98.65658736424166
 11
882.1099977799208
 21
-85.87703850040486
 72
    1
 10
882.1099977799208
 20
-85.87703850040486
 11
896.2151044936459
 21
-82.02583784022607
 72
    1
 10
896.2151044936459
 20
-82.02583784022607
 11
918.8693535866055
 21
-62.4145383923763
 97
    0
 75
    0
 76
    1
 98
    0
  0
HATCH
  5
56
100
AcDbEntity
  8
0
  6
ByLayer
 62
    1
370
   -1
100
AcDbHatch
 10
0
 20
0
 30
0
210
0
220
0
230
1
  2
SOLID
 70
    1
 71
    0
 91
    1
 92
    0
 93
    8
 72
    1
 10
812.4644640520937
 20
-180.9751037037278
 11
817.531335172536
 21
-168.9412847926775
 72
    1
 10
817.531335172536
 20
-168.9412847926775
 11
838.2512188614874
 21
-165.3220911352188
 72
    1
 10
838.2512188614874
 20
-165.3220911352188
 11
859.4184489110667
 21
-168.9688586470642
 72
    1
 10
859.4184489110667
 20
-168.9688586470642
 11
864.469472169546
 21
-181.0093380634918
 72
    1
 10
864.469472169546
 20
-181.0093380634918
 11
856.4848577422333
 21
-198.0090506131544
 72
    1
 10
856.4848577422333
 20
-198.0090506131544
 11
838.4493094457123
 21
-207.8172886983634
 72
    1
 10
838.4493094457123
 20
-207.8172886983634
 11
820.4266900985031
 21
-197.9853138937838
 72
    1
 10
820.4266900985031
 20
-197.9853138937838
 11
812.4644640520937
 21
-180.9751037037278
 97
    0
 75
    0
 76
    1
 98
    0
  0
HATCH
  5
57
100
AcDbEntity
  8
0
  6
ByLayer
 62
    3
370
   -1
100
AcDbHatch
 10
0
 20
0
 30
0
210
0
220
0
230
1
  2
SOLID
 70
    1
 71
    0
 91
    1
 92
    0
 93
    8
 72
    1
 10
987.1000138173857
 20
259.4961852397912
 11
992.1668849378281
 21
271.5300041508415
 72
    1
 10
992.1668849378281
 20
271.5300041508415
 11
1012.886768626779
 21
275.1491978083002
 72
    1
 10
1012.886768626779
 20
275.1491978083002
 11
1034.053998676359
 21
271.5024302964549
 72
    1
 10
1034.053998676359
 20
271.5024302964549
 11
1039.105021934838
 21
259.4619508800272
 72
    1
 10
1039.105021934838
 20
259.4619508800272
 11
1031.120407507525
 21
242.4622383303646
 72
    1
 10
1031.120407507525
 20
242.4622383303646
 11
1013.084859211004
 21
232.6540002451557
 72
    1
 10
1013.084859211004
 20
232.6540002451557
 11
995.062239863795
 21
242.4859750497352
 72
    1
 10
995.062239863795
 20
242.4859750497352
 11
987.1000138173857
 21
259.4961852397912
 97
    0
 75
    0
 76
    1
 98
    0
  0
HATCH
  5
58
100
AcDbEntity
  8
0
  6
ByLayer
 62
    3
370
   -1
100
AcDbHatch
 10
0
 20
0
 30
0
210
0
220
0
230
1
  2
SOLID
 70
    1
 71
    0
 91
    1
 92
    0
 93
    5
 72
    1
 10
1093.504903351898
 20
378.0567505511427
 11
1055.364860293402
 21
372.0245439192726
 72
    1
 10
1055.364860293402
 20
372.0245439192726
 11
1044.183960309611
 21
341.8147015792774
 72
    1
 10
1044.183960309611
 20
341.8147015792774
 11
1056.745547545213
 21
354.5942504431142
 72
    1
 10
1056.745547545213
 20
354.5942504431142
 11
1070.850654258938
 21
358.445451103293
 72
    1
 10
1070.850654258938
 20
358.445451103293
 11
1093.504903351898
 21
378.0567505511427
 97
    0
 75
    0
 76
    1
 98
    0
  0
HATCH
  5
59
100
AcDbEntity
  8
0
  6
ByLayer
 62
    3
370
   -1
100
AcDbHatch
 10
0
 20
0
 30
0
210
0
220
0
230
1
  2
SOLID
 70
    1
 71
    0
 91
    1
 92
    0
 93
    5
 72
    1
 10
932.8563189441903
 20
378.1625038551668
 11
970.9883870718687
 21
372.0800880801997
 72
    1
 10
970.9883870718687
 20
372.0800880801997
 11
982.1295037280752
 21
341.8555513871802
 72
    1
 10
982.1295037280752
 20
341.8555513871802
 11
969.5847526622609
 21
354.6516274942363
 72
    1
 10
969.5847526622609
 20
354.6516274942363
 11
955.4847285823396
 21
358.5213953007292
 72
    1
 10
955.4847285823396
 20
358.5213953007292
 11
932.8563189441903
 21
378.1625038551668
 97
    0
 75
    0
 76
    1
 98
    0
  0
HATCH
  5
5A
100
AcDbEntity
  8
0
  6
ByLayer
 62
    2
370
   -1
100
AcDbHatch
 10
0
 20
0
 30
0
210
0
220
0
230
1
  2
SOLID
 70
    1
 71
    0
 91
    1
 92
    0
 93
    8
 72
    1
 10
637.2319951098045
 20
259.4961852397912
 11
642.2988662302469
 21
271.5300041508415
 72
    1
 10
642.2988662302469
 20
271.5300041508415
 11
663.0187499191982
 21
275.1491978083002
 72
    1
 10
663.0187499191982
 20
275.1491978083002
 11
684.1859799687775
 21
271.5024302964549
 72
    1
 10
684.1859799687775
 20
271.5024302964549
 11
689.237003227257
 21
259.4619508800272
 72
    1
 10
689.237003227257
 20
259.4619508800272
 11
681.2523887999442
 21
242.4622383303646
 72
    1
 10
681.2523887999442
 20
242.4622383303646
 11
663.2168405034231
 21
232.6540002451557
 72
    1
 10
663.2168405034231
 20
232.6540002451557
 11
645.1942211562139
 21
242.4859750497352
 72
    1
 10
645.1942211562139
 20
242.4859750497352
 11
637.2319951098045
 21
259.4961852397912
 97
    0
 75
    0
 76
    1
 98
    0
  0
HATCH
  5
5B
100
AcDbEntity
  8
0
  6
ByLayer
 62
    2
370
   -1
100
AcDbHatch
 10
0
 20
0
 30
0
210
0
220
0
230
1
  2
SOLID
 70
    1
 71
    0
 91
    1
 92
    0
 93
    5
 72
    1
 10
743.6368846443163
 20
378.0567505511427
 11
705.4968415858207
 21
372.0245439192726
 72
    1
 10
705.4968415858207
 20
372.0245439192726
 11
694.3159416020303
 21
341.8147015792774
 72
    1
 10
694.3159416020303
 20
341.8147015792774
 11
706.8775288376319
 21
354.5942504431142
 72
    1
 10
706.8775288376319
 20
354.5942504431142
 11
720.9826355513567
 21
358.445451103293
 72
    1
 10
720.9826355513567
 20
358.445451103293
 11
743.6368846443163
 21
378.0567505511427
 97
    0
 75
    0
 76
    1
 98
    0
  0
HATCH
  5
5C
100
AcDbEntity
  8
0
  6
ByLayer
 62
    2
370
   -1
100
AcDbHatch
 10
0
 20
0
 30
0
210
0
220
0
230
1
  2
SOLID
 70
    1
 71
    0
 91
    1
 92
    0
 93
    5
 72
    1
 10
582.9883002366091
 20
378.1625038551668
 11
621.1203683642875
 21
372.0800880801997
 72
    1
 10
621.1203683642875
 20
372.0800880801997
 11
632.2614850204941
 21
341.8555513871802
 72
    1
 10
632.2614850204941
 20
341.8555513871802
 11
619.7167339546797
 21
354.6516274942363
 72
    1
 10
619.7167339546797
 20
354.6516274942363
 11
605.6167098747584
 21
358.5213953007292
 72
    1
 10
605.6167098747584
 20
358.5213953007292
 11
582.9883002366091
 21
378.1625038551668
 97
    0
 75
    0
 76
    1
 98
    0
  0
IMAGE
  5
5F
100
AcDbEntity
  8
ref
  6
ByLayer
 62
  256
370
   -1
100
AcDbRasterImage
 10
0
 20
0
 30
0
 11
1
 21
0
 31
0
 12
6.123233995736766e-17
 22
1
 32
0
 13
626
 23
626
340
5D
 70
    1
280
    0
281
   50
282
   50
283
    0
360
5E
  0
LINE
  5
60
100
AcDbEntity
  8
0
  6
ByLayer
 62
    2
370
   -1
100
AcDbLine
 10
535.110050829845
 20
484.1775866052822
 11
553.7322656992789
 21
531.2231820649047
  0
LINE
  5
61
100
AcDbEntity
  8
0
  6
ByLayer
 62
    2
370
   -1
100
AcDbLine
 10
553.7322656992789
 20
531.2231820649047
 11
576.6016523810399
 21
530.5697710168544
  0
LINE
  5
62
100
AcDbEntity
  8
0
  6
ByLayer
 62
    2
370
   -1
100
AcDbLine
 10
576.6016523810399
 20
530.5697710168544
 11
599.4710390628009
 21
494.9588688981123
  0
LINE
  5
63
100
AcDbEntity
  8
0
  6
ByLayer
 62
    2
370
   -1
100
AcDbLine
 10
599.4710390628009
 20
494.9588688981123
 11
636.3887632776435
 21
464.2485496397476
  0
LINE
  5
64
100
AcDbEntity
  8
0
  6
ByLayer
 62
    2
370
   -1
100
AcDbLine
 10
636.3887632776435
 20
464.2485496397476
 11
572.681186092738
 21
438.4388132417602
  0
LINE
  5
65
100
AcDbEntity
  8
0
  6
ByLayer
 62
    2
370
   -1
100
AcDbLine
 10
572.681186092738
 20
438.4388132417602
 11
599.4710390628009
 21
494.9588688981123
  0
LINE
  5
66
100
AcDbEntity
  8
0
  6
ByLayer
 62
    2
370
   -1
100
AcDbLine
 10
636.3887632776435
 20
464.2485496397476
 11
663.1262755348905
 21
469.887385240964
  0
LINE
  5
67
100
AcDbEntity
  8
0
  6
ByLayer
 62
    2
370
   -1
100
AcDbLine
 10
553.7322656992789
 20
531.2231820649047
 11
572.681186092738
 21
438.4388132417602
  0
LINE
  5
68
100
AcDbEntity
  8
0
  6
ByLayer
 62
    2
370
   -1
100
AcDbLine
 10
572.681186092738
 20
438.4388132417602
 11
542.8677500286504
 21
434.6587888418749
  0
LINE
  5
69
100
AcDbEntity
  8
0
  6
ByLayer
 62
    2
370
   -1
100
AcDbLine
 10
542.8677500286504
 20
434.6587888418749
 11
535.0307912416737
 21
444.3672601749953
  0
LINE
  5
6A
100
AcDbEntity
  8
0
  6
ByLayer
 62
    2
370
   -1
100
AcDbLine
 10
535.0307912416737
 20
444.3672601749953
 11
535.110050829845
 21
484.1775866052822
  0
LINE
  5
6B
100
AcDbEntity
  8
0
  6
ByLayer
 62
    2
370
   -1
100
AcDbLine
 10
542.8677500286504
 20
434.6587888418749
 11
534.5629131051378
 21
429.1612207375777
  0
LINE
  5
6C
100
AcDbEntity
  8
0
  6
ByLayer
 62
    2
370
   -1
100
AcDbLine
 10
534.5629131051378
 20
429.1612207375777
 11
543.5739055165059
 21
390.5872799589795
  0
LINE
  5
6D
100
AcDbEntity
  8
0
  6
ByLayer
 62
    2
370
   -1
100
AcDbLine
 10
543.5739055165059
 20
390.5872799589795
 11
572.681186092738
 21
438.4388132417602
  0
LINE
  5
6E
100
AcDbEntity
  8
0
  6
ByLayer
 62
    2
370
   -1
100
AcDbLine
 10
543.5739055165059
 20
390.5872799589795
 11
512.5674986327851
 21
318.5086813289853
  0
LINE
  5
6F
100
AcDbEntity
  8
0
  6
ByLayer
 62
    2
370
   -1
100
AcDbLine
 10
512.5674986327851
 20
318.5086813289853
 11
516.6429465367437
 21
283.5439761816384
  0
LINE
  5
70
100
AcDbEntity
  8
0
  6
ByLayer
 62
    2
370
   -1
100
AcDbLine
 10
516.6429465367437
 20
283.5439761816384
 11
509.4612510799855
 21
261.5999067304328
  0
LINE
  5
71
100
AcDbEntity
  8
0
  6
ByLayer
 62
    2
370
   -1
100
AcDbLine
 10
509.4612510799855
 20
261.5999067304328
 11
526.4845291997086
 21
249.2314312215715
  0
LINE
  5
72
100
AcDbEntity
  8
0
  6
ByLayer
 62
    2
370
   -1
100
AcDbLine
 10
526.4845291997086
 20
249.2314312215715
 11
544.7047565622248
 21
207.604196444436
  0
LINE
  5
73
100
AcDbEntity
  8
0
  6
ByLayer
 62
    2
370
   -1
100
AcDbLine
 10
544.7047565622248
 20
207.604196444436
 11
551.3544745777416
 21
213.4559482980908
  0
LINE
  5
74
100
AcDbEntity
  8
0
  6
ByLayer
 62
    2
370
   -1
100
AcDbLine
 10
551.3544745777416
 20
213.4559482980908
 11
578.0863410001193
 21
165.8439673069902
  0
LINE
  5
75
100
AcDbEntity
  8
0
  6
ByLayer
 62
    2
370
   -1
100
AcDbLine
 10
578.0863410001193
 20
165.8439673069902
 11
586.3319913393602
 21
170.6317642781623
  0
LINE
  5
76
100
AcDbEntity
  8
0
  6
ByLayer
 62
    2
370
   -1
100
AcDbLine
 10
586.3319913393602
 20
170.6317642781623
 11
610.0049874746003
 21
132.4623828690956
  0
LINE
  5
77
100
AcDbEntity
  8
0
  6
ByLayer
 62
    2
370
   -1
100
AcDbLine
 10
610.0049874746003
 20
132.4623828690956
 11
625.9643107118407
 21
130.8664505453716
  0
LINE
  5
78
100
AcDbEntity
  8
0
  6
ByLayer
 62
    2
370
   -1
100
AcDbLine
 10
625.9643107118407
 20
130.8664505453716
 11
663.1262755348911
 21
95.0778353597708
  0
LINE
  5
79
100
AcDbEntity
  8
0
  6
ByLayer
 62
    2
370
   -1
100
AcDbLine
 10
663.1262755348911
 20
95.0778353597708
 11
663.1262755348911
 21
162.3861139389215
  0
LINE
  5
7A
100
AcDbEntity
  8
0
  6
ByLayer
 62
    2
370
   -1
100
AcDbLine
 10
663.1262755348911
 20
162.3861139389215
 11
663.1262755348911
 21
200.0235179067468
  0
LINE
  5
7B
100
AcDbEntity
  8
0
  6
ByLayer
 62
    2
370
   -1
100
AcDbLine
 10
663.1262755348911
 20
200.0235179067468
 11
642.4461674121051
 21
203.5907722525502
  0
LINE
  5
7C
100
AcDbEntity
  8
0
  6
ByLayer
 62
    2
370
   -1
100
AcDbLine
 10
642.4461674121051
 20
203.5907722525502
 11
626.1918258174094
 21
215.6272150790022
  0
LINE
  5
7D
100
AcDbEntity
  8
0
  6
ByLayer
 62
    2
370
   -1
100
AcDbLine
 10
626.1918258174094
 20
215.6272150790022
 11
624.8544432811368
 21
227.8694090648806
  0
LINE
  5
7E
100
AcDbEntity
  8
0
  6
ByLayer
 62
    2
370
   -1
100
AcDbLine
 10
624.8544432811368
 20
227.8694090648806
 11
637.3023884264419
 21
219.6393626878195
  0
LINE
  5
7F
100
AcDbEntity
  8
0
  6
ByLayer
 62
    2
370
   -1
100
AcDbLine
 10
637.3023884264419
 20
219.6393626878195
 11
645.8410615426428
 21
221.7997498617981
  0
LINE
  5
80
100
AcDbEntity
  8
0
  6
ByLayer
 62
    2
370
   -1
100
AcDbLine
 10
645.8410615426428
 20
221.7997498617981
 11
663.1241589344713
 21
223.8572614560633
  0
LINE
  5
81
100
AcDbEntity
  8
0
  6
ByLayer
 62
    2
370
   -1
100
AcDbLine
 10
663.1241589344713
 20
223.8572614560633
 11
663.1241589344713
 21
232.7045613114041
  0
LINE
  5
82
100
AcDbEntity
  8
0
  6
ByLayer
 62
    2
370
   -1
100
AcDbLine
 10
663.0187499191982
 20
275.1491978083002
 11
663.0187499191982
 21
307.5129052382383
  0
LINE
  5
83
100
AcDbEntity
  8
0
  6
ByLayer
 62
    2
370
   -1
100
AcDbLine
 10
663.0187499191982
 20
333.5971113501162
 11
663.0187499191982
 21
399.7810470928744
  0
LINE
  5
84
100
AcDbEntity
  8
0
  6
ByLayer
 62
    2
370
   -1
100
AcDbLine
 10
641.0428118615291
 20
220.5893759559289
 11
650.8308685868463
 21
215.1780925630706
  0
LINE
  5
85
100
AcDbEntity
  8
0
  6
ByLayer
 62
    2
370
   -1
100
AcDbLine
 10
650.8308685868463
 20
215.1780925630706
 11
663.1654116146851
 21
215.2576702600244
  0
LINE
  5
86
100
AcDbEntity
  8
0
  6
ByLayer
 62
    2
370
   -1
100
AcDbLine
 10
647.7273384056485
 20
203.0027049291397
 11
663.1262755348911
 21
162.3861139389215
  0
LINE
  5
87
100
AcDbEntity
  8
0
  6
ByLayer
 62
    2
370
   -1
100
AcDbLine
 10
663.1262755348911
 20
162.3861139389215
 11
625.9643107118407
 21
130.8664505453716
  0
LINE
  5
88
100
AcDbEntity
  8
0
  6
ByLayer
 62
    2
370
   -1
100
AcDbLine
 10
625.9643107118407
 20
130.8664505453716
 11
596.4607832802776
 21
223.0342568183587
  0
LINE
  5
89
100
AcDbEntity
  8
0
  6
ByLayer
 62
    2
370
   -1
100
AcDbLine
 10
596.4607832802776
 20
223.0342568183587
 11
586.3319913393602
 21
170.6317642781623
  0
LINE
  5
8A
100
AcDbEntity
  8
0
  6
ByLayer
 62
    2
370
   -1
100
AcDbLine
 10
596.4607832802776
 20
223.0342568183587
 11
625.6389277818375
 21
220.924507291854
  0
LINE
  5
8B
100
AcDbEntity
  8
0
  6
ByLayer
 62
    2
370
   -1
100
AcDbLine
 10
596.4607832802776
 20
223.0342568183587
 11
606.8027897959619
 21
255.2727589131565
  0
LINE
  5
8C
100
AcDbEntity
  8
0
  6
ByLayer
 62
    2
370
   -1
100
AcDbLine
 10
606.8027897959619
 20
255.2727589131565
 11
615.543742717512
 21
234.2821607001383
  0
LINE
  5
8D
100
AcDbEntity
  8
0
  6
ByLayer
 62
    2
370
   -1
100
AcDbLine
 10
615.543742717512
 20
234.2821607001383
 11
645.1942211562139
 21
242.4859750497352
  0
LINE
  5
8E
100
AcDbEntity
  8
0
  6
ByLayer
 62
    2
370
   -1
100
AcDbLine
 10
615.543742717512
 20
234.2821607001383
 11
624.8544432811368
 21
227.8694090648806
  0
LINE
  5
8F
100
AcDbEntity
  8
0
  6
ByLayer
 62
    2
370
   -1
100
AcDbLine
 10
606.8027897959619
 20
255.2727589131565
 11
603.4563227007799
 21
263.6701108050987
  0
LINE
  5
90
100
AcDbEntity
  8
0
  6
ByLayer
 62
    2
370
   -1
100
AcDbLine
 10
603.4563227007799
 20
263.6701108050987
 11
610.1432353821421
 21
294.429909139365
  0
LINE
  5
91
100
AcDbEntity
  8
0
  6
ByLayer
 62
    2
370
   -1
100
AcDbLine
 10
610.1432353821421
 20
294.429909139365
 11
631.5413559625013
 21
286.1998627623038
  0
LINE
  5
92
100
AcDbEntity
  8
0
  6
ByLayer
 62
    2
370
   -1
100
AcDbLine
 10
631.5413559625013
 20
286.1998627623038
 11
642.2988662302469
 21
271.5300041508415
  0
LINE
  5
93
100
AcDbEntity
  8
0
  6
ByLayer
 62
    2
370
   -1
100
AcDbLine
 10
631.5413559625013
 20
286.1998627623038
 11
663.0187499191982
 21
307.5129052382383
  0
LINE
  5
94
100
AcDbEntity
  8
0
  6
ByLayer
 62
    2
370
   -1
100
AcDbLine
 10
610.1432353821421
 20
294.429909139365
 11
632.2614850204941
 21
341.8555513871802
  0
LINE
  5
95
100
AcDbEntity
  8
0
  6
ByLayer
 62
    2
370
   -1
100
AcDbLine
 10
632.2614850204941
 20
341.8555513871802
 11
663.0187499191982
 21
333.5971113501162
  0
LINE
  5
96
100
AcDbEntity
  8
0
  6
ByLayer
 62
    2
370
   -1
100
AcDbLine
 10
610.1432353821421
 20
294.429909139365
 11
605.6167098747584
 21
358.5213953007292
  0
LINE
  5
97
100
AcDbEntity
  8
0
  6
ByLayer
 62
    2
370
   -1
100
AcDbLine
 10
605.6167098747584
 20
358.5213953007292
 11
559.322699003789
 21
353.8919942136322
  0
LINE
  5
98
100
AcDbEntity
  8
0
  6
ByLayer
 62
    2
370
   -1
100
AcDbLine
 10
559.322699003789
 20
353.8919942136322
 11
543.5739055165059
 21
390.5872799589795
  0
LINE
  5
99
100
AcDbEntity
  8
0
  6
ByLayer
 62
    2
370
   -1
100
AcDbLine
 10
559.322699003789
 20
353.8919942136322
 11
512.5674986327851
 21
318.5086813289853
  0
LINE
  5
9A
100
AcDbEntity
  8
0
  6
ByLayer
 62
    2
370
   -1
100
AcDbLine
 10
559.322699003789
 20
353.8919942136322
 11
568.1699988591299
 21
313.3590158066058
  0
LINE
  5
9B
100
AcDbEntity
  8
0
  6
ByLayer
 62
    2
370
   -1
100
AcDbLine
 10
568.1699988591299
 20
313.3590158066058
 11
610.1432353821421
 21
294.429909139365
  0
LINE
  5
9C
100
AcDbEntity
  8
0
  6
ByLayer
 62
    2
370
   -1
100
AcDbLine
 10
568.1699988591299
 20
313.3590158066058
 11
516.6429465367437
 21
283.5439761816384
  0
LINE
  5
9D
100
AcDbEntity
  8
0
  6
ByLayer
 62
    2
370
   -1
100
AcDbLine
 10
568.1699988591299
 20
313.3590158066058
 11
526.4845291997086
 21
249.2314312215715
  0
LINE
  5
9E
100
AcDbEntity
  8
0
  6
ByLayer
 62
    2
370
   -1
100
AcDbLine
 10
526.4845291997086
 20
249.2314312215715
 11
557.7795653080901
 21
263.2586084862456
  0
LINE
  5
9F
100
AcDbEntity
  8
0
  6
ByLayer
 62
    2
370
   -1
100
AcDbLine
 10
557.7795653080901
 20
263.2586084862456
 11
568.1699988591299
 21
313.3590158066058
  0
LINE
  5
A0
100
AcDbEntity
  8
0
  6
ByLayer
 62
    2
370
   -1
100
AcDbLine
 10
557.7795653080901
 20
263.2586084862456
 11
610.1432353821421
 21
294.429909139365
  0
LINE
  5
A1
100
AcDbEntity
  8
0
  6
ByLayer
 62
    2
370
   -1
100
AcDbLine
 10
557.7795653080901
 20
263.2586084862456
 11
551.3544745777416
 21
213.4559482980908
  0
LINE
  5
A2
100
AcDbEntity
  8
0
  6
ByLayer
 62
    2
370
   -1
100
AcDbLine
 10
551.3544745777416
 20
213.4559482980908
 11
557.7795653080901
 21
263.2586084862456
  0
LINE
  5
A3
100
AcDbEntity
  8
0
  6
ByLayer
 62
    2
370
   -1
100
AcDbLine
 10
557.7795653080901
 20
263.2586084862456
 11
596.4607832802776
 21
223.0342568183587
  0
LINE
  5
A4
100
AcDbEntity
  8
0
  6
ByLayer
 62
    2
370
   -1
100
AcDbLine
 10
543.5739055165059
 20
390.5872799589795
 11
515.1890753067985
 21
354.9207500107654
  0
LINE
  5
A5
100
AcDbEntity
  8
0
  6
ByLayer
 62
    2
370
   -1
100
AcDbLine
 10
515.1890753067985
 20
354.9207500107654
 11
524.8593797998456
 21
346.3820768945644
  0
LINE
  5
A6
100
AcDbEntity
  8
0
  6
ByLayer
 62
    2
370
   -1
100
AcDbLine
 10
543.5739055165059
 20
390.5872799589795
 11
582.9883002366091
 21
378.1625038551668
  0
LINE
  5
A7
100
AcDbEntity
  8
0
  6
ByLayer
 62
    2
370
   -1
100
AcDbLine
 10
582.9883002366091
 20
378.1625038551668
 11
621.1203683642875
 21
372.0800880801997
  0
LINE
  5
A8
100
AcDbEntity
  8
0
  6
ByLayer
 62
    2
370
   -1
100
AcDbLine
 10
621.1203683642875
 20
372.0800880801997
 11
632.2614850204941
 21
341.8555513871802
  0
LINE
  5
A9
100
AcDbEntity
  8
0
  6
ByLayer
 62
    2
370
   -1
100
AcDbLine
 10
632.2614850204941
 20
341.8555513871802
 11
619.7167339546797
 21
354.6516274942363
  0
LINE
  5
AA
100
AcDbEntity
  8
0
  6
ByLayer
 62
    2
370
   -1
100
AcDbLine
 10
619.7167339546797
 20
354.6516274942363
 11
605.6167098747584
 21
358.5213953007292
  0
LINE
  5
AB
100
AcDbEntity
  8
0
  6
ByLayer
 62
    2
370
   -1
100
AcDbLine
 10
605.6167098747584
 20
358.5213953007292
 11
582.9883002366091
 21
378.1625038551668
  0
LINE
  5
AC
100
AcDbEntity
  8
0
  6
ByLayer
 62
    2
370
   -1
100
AcDbLine
 10
582.9883002366091
 20
378.1625038551668
 11
602.0543343004483
 21
450.5666454841023
  0
LINE
  5
AD
100
AcDbEntity
  8
0
  6
ByLayer
 62
    2
370
   -1
100
AcDbLine
 10
602.0543343004483
 20
450.5666454841023
 11
643.3445798497444
 21
408.4576131958684
  0
LINE
  5
AE
100
AcDbEntity
  8
0
  6
ByLayer
 62
    2
370
   -1
100
AcDbLine
 10
643.3445798497444
 20
408.4576131958684
 11
663.0187499191982
 21
399.7810470928744
  0
LINE
  5
AF
100
AcDbEntity
  8
0
  6
ByLayer
 62
    2
370
   -1
100
AcDbLine
 10
643.3445798497444
 20
408.4576131958684
 11
636.3887632776435
 21
464.2485496397476
  0
LINE
  5
B0
100
AcDbEntity
  8
0
  6
ByLayer
 62
    2
370
   -1
100
AcDbLine
 10
643.3445798497444
 20
408.4576131958684
 11
621.1203683642875
 21
372.0800880801997
  0
LINE
  5
B1
100
AcDbEntity
  8
0
  6
ByLayer
 62
    2
370
   -1
100
AcDbLine
 10
791.6546697632016
 20
484.008705932092
 11
773.0944102658773
 21
531.0787782305899
  0
LINE
  5
B2
100
AcDbEntity
  8
0
  6
ByLayer
 62
    2
370
   -1
100
AcDbLine
 10
773.0944102658773
 20
531.0787782305899
 11
750.224183137673
 21
530.4554770979368
  0
LINE
  5
B3
100
AcDbEntity
  8
0
  6
ByLayer
 62
    2
370
   -1
100
AcDbLine
 10
750.224183137673
 20
530.4554770979368
 11
727.3079317187135
 21
494.8747151919071
  0
LINE
  5
B4
100
AcDbEntity
  8
0
  6
ByLayer
 62
    2
370
   -1
100
AcDbLine
 10
727.3079317187135
 20
494.8747151919071
 11
690.3498069456056
 21
464.2130276419813
  0
LINE
  5
B5
100
AcDbEntity
  8
0
  6
ByLayer
 62
    2
370
   -1
100
AcDbLine
 10
690.3498069456056
 20
464.2130276419813
 11
754.0233483646593
 21
438.3194375691402
  0
LINE
  5
B6
100
AcDbEntity
  8
0
  6
ByLayer
 62
    2
370
   -1
100
AcDbLine
 10
754.0233483646593
 20
438.3194375691402
 11
727.3079317187135
 21
494.8747151919071
  0
LINE
  5
B7
100
AcDbEntity
  8
0
  6
ByLayer
 62
    2
370
   -1
100
AcDbLine
 10
690.3498069456056
 20
464.2130276419813
 11
663.6197418327645
 21
469.8870603971964
  0
LINE
  5
B8
100
AcDbEntity
  8
0
  6
ByLayer
 62
    2
370
   -1
100
AcDbLine
 10
773.0944102658773
 20
531.0787782305899
 11
754.0233483646593
 21
438.3194375691402
  0
LINE
  5
B9
100
AcDbEntity
  8
0
  6
ByLayer
 62
    2
370
   -1
100
AcDbLine
 10
754.0233483646593
 20
438.3194375691402
 11
783.8317818898415
 21
434.5001647082465
  0
LINE
  5
BA
100
AcDbEntity
  8
0
  6
ByLayer
 62
    2
370
   -1
100
AcDbLine
 10
783.8317818898415
 20
434.5001647082465
 11
791.6815158518933
 21
444.198309653534
  0
LINE
  5
BB
100
AcDbEntity
  8
0
  6
ByLayer
 62
    2
370
   -1
100
AcDbLine
 10
791.6815158518933
 20
444.198309653534
 11
791.6546697632016
 21
484.008705932092
  0
LINE
  5
BC
100
AcDbEntity
  8
0
  6
ByLayer
 62
    2
370
   -1
100
AcDbLine
 10
783.8317818898415
 20
434.5001647082465
 11
792.1293736341556
 21
428.9916673966181
  0
LINE
  5
BD
100
AcDbEntity
  8
0
  6
ByLayer
 62
    2
370
   -1
100
AcDbLine
 10
792.1293736341556
 20
428.9916673966181
 11
783.0676034008463
 21
390.4296237310232
  0
LINE
  5
BE
100
AcDbEntity
  8
0
  6
ByLayer
 62
    2
370
   -1
100
AcDbLine
 10
783.0676034008463
 20
390.4296237310232
 11
754.0233483646593
 21
438.3194375691402
  0
LINE
  5
BF
100
AcDbEntity
  8
0
  6
ByLayer
 62
    2
370
   -1
100
AcDbLine
 10
783.0676034008463
 20
390.4296237310232
 11
813.9790862585623
 21
318.3102651936667
  0
LINE
  5
C0
100
AcDbEntity
  8
0
  6
ByLayer
 62
    2
370
   -1
100
AcDbLine
 10
813.9790862585623
 20
318.3102651936667
 11
809.857608098099
 21
283.3509559980945
  0
LINE
  5
C1
100
AcDbEntity
  8
0
  6
ByLayer
 62
    2
370
   -1
100
AcDbLine
 10
809.857608098099
 20
283.3509559980945
 11
817.0104062344853
 21
261.3974502977954
  0
LINE
  5
C2
100
AcDbEntity
  8
0
  6
ByLayer
 62
    2
370
   -1
100
AcDbLine
 10
817.0104062344853
 20
261.3974502977954
 11
799.9708587963421
 21
249.0513979952165
  0
LINE
  5
C3
100
AcDbEntity
  8
0
  6
ByLayer
 62
    2
370
   -1
100
AcDbLine
 10
799.9708587963421
 20
249.0513979952165
 11
781.6958416913678
 21
207.4481876606108
  0
LINE
  5
C4
100
AcDbEntity
  8
0
  6
ByLayer
 62
    2
370
   -1
100
AcDbLine
 10
781.6958416913678
 20
207.4481876606108
 11
775.0538337313808
 21
213.3086893202056
  0
LINE
  5
C5
100
AcDbEntity
  8
0
  6
ByLayer
 62
    2
370
   -1
100
AcDbLine
 10
775.0538337313808
 20
213.3086893202056
 11
748.2593055536629
 21
165.7319442018787
  0
LINE
  5
C6
100
AcDbEntity
  8
0
  6
ByLayer
 62
    2
370
   -1
100
AcDbLine
 10
748.2593055536629
 20
165.7319442018787
 11
740.0199658727154
 21
170.530593071733
  0
LINE
  5
C7
100
AcDbEntity
  8
0
  6
ByLayer
 62
    2
370
   -1
100
AcDbLine
 10
740.0199658727154
 20
170.530593071733
 11
716.2967372572286
 21
132.3924121079372
  0
LINE
  5
C8
100
AcDbEntity
  8
0
  6
ByLayer
 62
    2
370
   -1
100
AcDbLine
 10
716.2967372572286
 20
132.3924121079372
 11
700.3353266811544
 21
130.8174928736225
  0
LINE
  5
C9
100
AcDbEntity
  8
0
  6
ByLayer
 62
    2
370
   -1
100
AcDbLine
 10
700.3353266811544
 20
130.8174928736225
 11
663.1262755348911
 21
95.0778353597708
  0
LINE
  5
CA
100
AcDbEntity
  8
0
  6
ByLayer
 62
    2
370
   -1
100
AcDbLine
 10
663.2644447930132
 20
200.0234269513512
 11
683.949231563907
 21
203.5634512140403
  0
LINE
  5
CB
100
AcDbEntity
  8
0
  6
ByLayer
 62
    2
370
   -1
100
AcDbLine
 10
683.949231563907
 20
203.5634512140403
 11
700.2194059962706
 21
215.5784834874871
  0
LINE
  5
CC
100
AcDbEntity
  8
0
  6
ByLayer
 62
    2
370
   -1
100
AcDbLine
 10
700.2194059962706
 20
215.5784834874871
 11
701.5729051862024
 21
227.8189060937152
  0
LINE
  5
CD
100
AcDbEntity
  8
0
  6
ByLayer
 62
    2
370
   -1
100
AcDbLine
 10
701.5729051862024
 20
227.8189060937152
 11
689.1141353250359
 21
219.6052555499198
  0
LINE
  5
CE
100
AcDbEntity
  8
0
  6
ByLayer
 62
    2
370
   -1
100
AcDbLine
 10
689.1141353250359
 20
219.6052555499198
 11
680.5783139291175
 21
221.7768826872996
  0
LINE
  5
CF
100
AcDbEntity
  8
0
  6
ByLayer
 62
    2
370
   -1
100
AcDbLine
 10
680.5783139291175
 20
221.7768826872996
 11
663.2979403924737
 21
223.8571470575242
  0
LINE
  5
D0
100
AcDbEntity
  8
0
  6
ByLayer
 62
    2
370
   -1
100
AcDbLine
 10
663.513488561365
 20
307.5125795568995
 11
663.5478304734829
 21
333.5967630618514
  0
LINE
  5
D1
100
AcDbEntity
  8
0
  6
ByLayer
 62
    2
370
   -1
100
AcDbLine
 10
663.6349668384983
 20
399.7806414436405
 11
663.7272673552654
 21
469.886918831253
  0
LINE
  5
D2
100
AcDbEntity
  8
0
  6
ByLayer
 62
    2
370
   -1
100
AcDbLine
 10
685.3749658990414
 20
220.5601925567644
 11
675.579793276079
 21
215.1618006015412
  0
LINE
  5
D3
100
AcDbEntity
  8
0
  6
ByLayer
 62
    2
370
   -1
100
AcDbLine
 10
675.579793276079
 20
215.1618006015412
 11
663.2453657087747
 21
215.25761762707
  0
LINE
  5
D4
100
AcDbEntity
  8
0
  6
ByLayer
 62
    2
370
   -1
100
AcDbLine
 10
678.6672909105469
 20
202.9823374779368
 11
663.21489218582
 21
162.3860556034954
  0
LINE
  5
D5
100
AcDbEntity
  8
0
  6
ByLayer
 62
    2
370
   -1
100
AcDbLine
 10
663.21489218582
 20
162.3860556034954
 11
700.3353266811544
 21
130.8174928736225
  0
LINE
  5
D6
100
AcDbEntity
  8
0
  6
ByLayer
 62
    2
370
   -1
100
AcDbLine
 10
700.3353266811544
 20
130.8174928736225
 11
729.9601747197351
 21
222.9463755476835
  0
LINE
  5
D7
100
AcDbEntity
  8
0
  6
ByLayer
 62
    2
370
   -1
100
AcDbLine
 10
729.9601747197351
 20
222.9463755476835
 11
740.0199658727154
 21
170.530593071733
  0
LINE
  5
D8
100
AcDbEntity
  8
0
  6
ByLayer
 62
    2
370
   -1
100
AcDbLine
 10
729.9601747197351
 20
222.9463755476835
 11
700.7792778551411
 21
220.8750431754095
  0
LINE
  5
D9
100
AcDbEntity
  8
0
  6
ByLayer
 62
    2
370
   -1
100
AcDbLine
 10
729.9601747197351
 20
222.9463755476835
 11
719.6606216949478
 21
255.1984657679519
  0
LINE
  5
DA
100
AcDbEntity
  8
0
  6
ByLayer
 62
    2
370
   -1
100
AcDbLine
 10
719.6606216949478
 20
255.1984657679519
 11
710.8920405730237
 21
234.2193939003655
  0
LINE
  5
DB
100
AcDbEntity
  8
0
  6
ByLayer
 62
    2
370
   -1
100
AcDbLine
 10
710.8920405730237
 20
234.2193939003655
 11
681.2523887999442
 21
242.4622383303646
  0
LINE
  5
DC
100
AcDbEntity
  8
0
  6
ByLayer
 62
    2
370
   -1
100
AcDbLine
 10
710.8920405730237
 20
234.2193939003655
 11
701.5729051862024
 21
227.8189060937152
  0
LINE
  5
DD
100
AcDbEntity
  8
0
  6
ByLayer
 62
    2
370
   -1
100
AcDbLine
 10
719.6606216949478
 20
255.1984657679519
 11
723.018141665043
 21
263.5914044944441
  0
LINE
  5
DE
100
AcDbEntity
  8
0
  6
ByLayer
 62
    2
370
   -1
100
AcDbLine
 10
723.018141665043
 20
263.5914044944441
 11
716.371732476759
 21
294.3599800167979
  0
LINE
  5
DF
100
AcDbEntity
  8
0
  6
ByLayer
 62
    2
370
   -1
100
AcDbLine
 10
716.371732476759
 20
294.3599800167979
 11
694.9627949375678
 21
286.1581130840087
  0
LINE
  5
E0
100
AcDbEntity
  8
0
  6
ByLayer
 62
    2
370
   -1
100
AcDbLine
 10
694.9627949375678
 20
286.1581130840087
 11
684.1859799687775
 21
271.5024302964549
  0
LINE
  5
E1
100
AcDbEntity
  8
0
  6
ByLayer
 62
    2
370
   -1
100
AcDbLine
 10
694.9627949375678
 20
286.1581130840087
 11
663.513488561365
 21
307.5125795568995
  0
LINE
  5
E2
100
AcDbEntity
  8
0
  6
ByLayer
 62
    2
370
   -1
100
AcDbLine
 10
716.371732476759
 20
294.3599800167979
 11
694.3159416020303
 21
341.8147015792774
  0
LINE
  5
E3
100
AcDbEntity
  8
0
  6
ByLayer
 62
    2
370
   -1
100
AcDbLine
 10
694.3159416020303
 20
341.8147015792774
 11
663.5478304734829
 21
333.5967630618514
  0
LINE
  5
E4
100
AcDbEntity
  8
0
  6
ByLayer
 62
    2
370
   -1
100
AcDbLine
 10
716.371732476759
 20
294.3599800167979
 11
720.9826355513567
 21
358.445451103293
  0
LINE
  5
E5
100
AcDbEntity
  8
0
  6
ByLayer
 62
    2
370
   -1
100
AcDbLine
 10
720.9826355513567
 20
358.445451103293
 11
767.2705113285499
 21
353.755104316351
  0
LINE
  5
E6
100
AcDbEntity
  8
0
  6
ByLayer
 62
    2
370
   -1
100
AcDbLine
 10
767.2705113285499
 20
353.755104316351
 11
783.0676034008463
 21
390.4296237310232
  0
LINE
  5
E7
100
AcDbEntity
  8
0
  6
ByLayer
 62
    2
370
   -1
100
AcDbLine
 10
767.2705113285499
 20
353.755104316351
 11
813.9790862585623
 21
318.3102651936667
  0
LINE
  5
E8
100
AcDbEntity
  8
0
  6
ByLayer
 62
    2
370
   -1
100
AcDbLine
 10
767.2705113285499
 20
353.755104316351
 11
758.3698542820373
 21
313.2338092060618
  0
LINE
  5
E9
100
AcDbEntity
  8
0
  6
ByLayer
 62
    2
370
   -1
100
AcDbLine
 10
758.3698542820373
 20
313.2338092060618
 11
716.371732476759
 21
294.3599800167979
  0
LINE
  5
EA
100
AcDbEntity
  8
0
  6
ByLayer
 62
    2
370
   -1
100
AcDbLine
 10
758.3698542820373
 20
313.2338092060618
 11
809.857608098099
 21
283.3509559980945
  0
LINE
  5
EB
100
AcDbEntity
  8
0
  6
ByLayer
 62
    2
370
   -1
100
AcDbLine
 10
758.3698542820373
 20
313.2338092060618
 11
799.9708587963421
 21
249.0513979952165
  0
LINE
  5
EC
100
AcDbEntity
  8
0
  6
ByLayer
 62
    2
370
   -1
100
AcDbLine
 10
799.9708587963421
 20
249.0513979952165
 11
768.6943176949158
 21
263.1197654829626
  0
LINE
  5
ED
100
AcDbEntity
  8
0
  6
ByLayer
 62
    2
370
   -1
100
AcDbLine
 10
768.6943176949158
 20
263.1197654829626
 11
758.3698542820373
 21
313.2338092060618
  0
LINE
  5
EE
100
AcDbEntity
  8
0
  6
ByLayer
 62
    2
370
   -1
100
AcDbLine
 10
768.6943176949158
 20
263.1197654829626
 11
716.371732476759
 21
294.3599800167979
  0
LINE
  5
EF
100
AcDbEntity
  8
0
  6
ByLayer
 62
    2
370
   -1
100
AcDbLine
 10
768.6943176949158
 20
263.1197654829626
 11
775.0538337313808
 21
213.3086893202056
  0
LINE
  5
F0
100
AcDbEntity
  8
0
  6
ByLayer
 62
    2
370
   -1
100
AcDbLine
 10
775.0538337313808
 20
213.3086893202056
 11
768.6943176949158
 21
263.1197654829626
  0
LINE
  5
F1
100
AcDbEntity
  8
0
  6
ByLayer
 62
    2
370
   -1
100
AcDbLine
 10
768.6943176949158
 20
263.1197654829626
 11
729.9601747197351
 21
222.9463755476835
  0
LINE
  5
F2
100
AcDbEntity
  8
0
  6
ByLayer
 62
    2
370
   -1
100
AcDbLine
 10
783.0676034008463
 20
390.4296237310232
 11
811.4054512134076
 21
354.7257538296682
  0
LINE
  5
F3
100
AcDbEntity
  8
0
  6
ByLayer
 62
    2
370
   -1
100
AcDbLine
 10
811.4054512134076
 20
354.7257538296682
 11
801.7239132657312
 21
346.1998198314906
  0
LINE
  5
F4
100
AcDbEntity
  8
0
  6
ByLayer
 62
    2
370
   -1
100
AcDbLine
 10
783.0676034008463
 20
390.4296237310232
 11
743.6368846443163
 21
378.0567505511427
  0
LINE
  5
F5
100
AcDbEntity
  8
0
  6
ByLayer
 62
    2
370
   -1
100
AcDbLine
 10
743.6368846443163
 20
378.0567505511427
 11
705.4968415858207
 21
372.0245439192726
  0
LINE
  5
F6
100
AcDbEntity
  8
0
  6
ByLayer
 62
    2
370
   -1
100
AcDbLine
 10
705.4968415858207
 20
372.0245439192726
 11
694.3159416020303
 21
341.8147015792774
  0
LINE
  5
F7
100
AcDbEntity
  8
0
  6
ByLayer
 62
    2
370
   -1
100
AcDbLine
 10
694.3159416020303
 20
341.8147015792774
 11
706.8775288376319
 21
354.5942504431142
  0
LINE
  5
F8
100
AcDbEntity
  8
0
  6
ByLayer
 62
    2
370
   -1
100
AcDbLine
 10
706.8775288376319
 20
354.5942504431142
 11
720.9826355513567
 21
358.445451103293
  0
LINE
  5
F9
100
AcDbEntity
  8
0
  6
ByLayer
 62
    2
370
   -1
100
AcDbLine
 10
720.9826355513567
 20
358.445451103293
 11
743.6368846443163
 21
378.0567505511427
  0
LINE
  5
FA
100
AcDbEntity
  8
0
  6
ByLayer
 62
    2
370
   -1
100
AcDbLine
 10
743.6368846443163
 20
378.0567505511427
 11
724.6661928608805
 21
450.4859313638807
  0
LINE
  5
FB
100
AcDbEntity
  8
0
  6
ByLayer
 62
    2
370
   -1
100
AcDbLine
 10
724.6661928608805
 20
450.4859313638807
 11
683.3205432393086
 21
408.4312974320191
  0
LINE
  5
FC
100
AcDbEntity
  8
0
  6
ByLayer
 62
    2
370
   -1
100
AcDbLine
 10
683.3205432393086
 20
408.4312974320191
 11
663.6349668384983
 21
399.7806414436405
  0
LINE
  5
FD
100
AcDbEntity
  8
0
  6
ByLayer
 62
    2
370
   -1
100
AcDbLine
 10
683.3205432393086
 20
408.4312974320191
 11
690.3498069456056
 21
464.2130276419813
  0
LINE
  5
FE
100
AcDbEntity
  8
0
  6
ByLayer
 62
    2
370
   -1
100
AcDbLine
 10
683.3205432393086
 20
408.4312974320191
 11
705.4968415858207
 21
372.0245439192726
  0
LINE
  5
FF
100
AcDbEntity
  8
0
  6
ByLayer
 62
    2
370
   -1
100
AcDbLine
 10
637.2319951098045
 20
259.4961852397912
 11
642.2988662302469
 21
271.5300041508415
  0
LINE
  5
100
100
AcDbEntity
  8
0
  6
ByLayer
 62
    2
370
   -1
100
AcDbLine
 10
645.1942211562139
 20
242.4859750497352
 11
637.2319951098045
 21
259.4961852397912
  0
LINE
  5
101
100
AcDbEntity
  8
0
  6
ByLayer
 62
    2
370
   -1
100
AcDbLine
 10
663.2168405034231
 20
232.6540002451557
 11
645.1942211562139
 21
242.4859750497352
  0
LINE
  5
102
100
AcDbEntity
  8
0
  6
ByLayer
 62
    2
370
   -1
100
AcDbLine
 10
663.2168405034231
 20
232.6540002451557
 11
681.2523887999442
 21
242.4622383303646
  0
LINE
  5
103
100
AcDbEntity
  8
0
  6
ByLayer
 62
    2
370
   -1
100
AcDbLine
 10
681.2523887999442
 20
242.4622383303646
 11
689.237003227257
 21
259.4619508800272
  0
LINE
  5
104
100
AcDbEntity
  8
0
  6
ByLayer
 62
    2
370
   -1
100
AcDbLine
 10
689.237003227257
 20
259.4619508800272
 11
684.1859799687775
 21
271.5024302964549
  0
LINE
  5
105
100
AcDbEntity
  8
0
  6
ByLayer
 62
    2
370
   -1
100
AcDbLine
 10
642.2988662302469
 20
271.5300041508415
 11
663.0187499191982
 21
275.1491978083002
  0
LINE
  5
106
100
AcDbEntity
  8
0
  6
ByLayer
 62
    2
370
   -1
100
AcDbLine
 10
684.1859799687775
 20
271.5024302964549
 11
663.0187499191982
 21
275.1491978083002
  0
LINE
  5
107
100
AcDbEntity
  8
0
  6
ByLayer
 62
    3
370
   -1
100
AcDbLine
 10
884.9780695374261
 20
484.1775866052822
 11
903.6002844068601
 21
531.2231820649047
  0
LINE
  5
108
100
AcDbEntity
  8
0
  6
ByLayer
 62
    3
370
   -1
100
AcDbLine
 10
903.6002844068601
 20
531.2231820649047
 11
926.469671088621
 21
530.5697710168544
  0
LINE
  5
109
100
AcDbEntity
  8
0
  6
ByLayer
 62
    3
370
   -1
100
AcDbLine
 10
926.469671088621
 20
530.5697710168544
 11
949.3390577703819
 21
494.9588688981123
  0
LINE
  5
10A
100
AcDbEntity
  8
0
  6
ByLayer
 62
    3
370
   -1
100
AcDbLine
 10
949.3390577703819
 20
494.9588688981123
 11
986.2567819852247
 21
464.2485496397476
  0
LINE
  5
10B
100
AcDbEntity
  8
0
  6
ByLayer
 62
    3
370
   -1
100
AcDbLine
 10
986.2567819852247
 20
464.2485496397476
 11
922.5492048003191
 21
438.4388132417602
  0
LINE
  5
10C
100
AcDbEntity
  8
0
  6
ByLayer
 62
    3
370
   -1
100
AcDbLine
 10
922.5492048003191
 20
438.4388132417602
 11
949.3390577703819
 21
494.9588688981123
  0
LINE
  5
10D
100
AcDbEntity
  8
0
  6
ByLayer
 62
    3
370
   -1
100
AcDbLine
 10
986.2567819852247
 20
464.2485496397476
 11
1012.994294242472
 21
469.887385240964
  0
LINE
  5
10E
100
AcDbEntity
  8
0
  6
ByLayer
 62
    3
370
   -1
100
AcDbLine
 10
903.6002844068601
 20
531.2231820649047
 11
922.5492048003191
 21
438.4388132417602
  0
LINE
  5
10F
100
AcDbEntity
  8
0
  6
ByLayer
 62
    3
370
   -1
100
AcDbLine
 10
922.5492048003191
 20
438.4388132417602
 11
892.7357687362316
 21
434.6587888418749
  0
LINE
  5
110
100
AcDbEntity
  8
0
  6
ByLayer
 62
    3
370
   -1
100
AcDbLine
 10
892.7357687362316
 20
434.6587888418749
 11
884.8988099492549
 21
444.3672601749953
  0
LINE
  5
111
100
AcDbEntity
  8
0
  6
ByLayer
 62
    3
370
   -1
100
AcDbLine
 10
884.8988099492549
 20
444.3672601749953
 11
884.9780695374261
 21
484.1775866052822
  0
LINE
  5
112
100
AcDbEntity
  8
0
  6
ByLayer
 62
    3
370
   -1
100
AcDbLine
 10
892.7357687362316
 20
434.6587888418749
 11
884.4309318127189
 21
429.1612207375777
  0
LINE
  5
113
100
AcDbEntity
  8
0
  6
ByLayer
 62
    3
370
   -1
100
AcDbLine
 10
884.4309318127189
 20
429.1612207375777
 11
893.4419242240871
 21
390.5872799589795
  0
LINE
  5
114
100
AcDbEntity
  8
0
  6
ByLayer
 62
    3
370
   -1
100
AcDbLine
 10
893.4419242240871
 20
390.5872799589795
 11
922.5492048003191
 21
438.4388132417602
  0
LINE
  5
115
100
AcDbEntity
  8
0
  6
ByLayer
 62
    3
370
   -1
100
AcDbLine
 10
893.4419242240871
 20
390.5872799589795
 11
862.4355173403662
 21
318.5086813289853
  0
LINE
  5
116
100
AcDbEntity
  8
0
  6
ByLayer
 62
    3
370
   -1
100
AcDbLine
 10
862.4355173403662
 20
318.5086813289853
 11
866.5109652443248
 21
283.5439761816384
  0
LINE
  5
117
100
AcDbEntity
  8
0
  6
ByLayer
 62
    3
370
   -1
100
AcDbLine
 10
866.5109652443248
 20
283.5439761816384
 11
859.3292697875667
 21
261.5999067304328
  0
LINE
  5
118
100
AcDbEntity
  8
0
  6
ByLayer
 62
    3
370
   -1
100
AcDbLine
 10
859.3292697875667
 20
261.5999067304328
 11
876.3525479072898
 21
249.2314312215715
  0
LINE
  5
119
100
AcDbEntity
  8
0
  6
ByLayer
 62
    3
370
   -1
100
AcDbLine
 10
876.3525479072898
 20
249.2314312215715
 11
894.5727752698059
 21
207.604196444436
  0
LINE
  5
11A
100
AcDbEntity
  8
0
  6
ByLayer
 62
    3
370
   -1
100
AcDbLine
 10
894.5727752698059
 20
207.604196444436
 11
901.2224932853228
 21
213.4559482980908
  0
LINE
  5
11B
100
AcDbEntity
  8
0
  6
ByLayer
 62
    3
370
   -1
100
AcDbLine
 10
901.2224932853228
 20
213.4559482980908
 11
927.9543597077005
 21
165.8439673069902
  0
LINE
  5
11C
100
AcDbEntity
  8
0
  6
ByLayer
 62
    3
370
   -1
100
AcDbLine
 10
927.9543597077005
 20
165.8439673069902
 11
936.2000100469414
 21
170.6317642781623
  0
LINE
  5
11D
100
AcDbEntity
  8
0
  6
ByLayer
 62
    3
370
   -1
100
AcDbLine
 10
936.2000100469414
 20
170.6317642781623
 11
959.8730061821814
 21
132.4623828690956
  0
LINE
  5
11E
100
AcDbEntity
  8
0
  6
ByLayer
 62
    3
370
   -1
100
AcDbLine
 10
959.8730061821814
 20
132.4623828690956
 11
975.8323294194217
 21
130.8664505453716
  0
LINE
  5
11F
100
AcDbEntity
  8
0
  6
ByLayer
 62
    3
370
   -1
100
AcDbLine
 10
975.8323294194217
 20
130.8664505453716
 11
1012.994294242472
 21
95.0778353597708
  0
LINE
  5
120
100
AcDbEntity
  8
0
  6
ByLayer
 62
    3
370
   -1
100
AcDbLine
 10
1012.994294242472
 20
95.0778353597708
 11
1012.994294242472
 21
162.3861139389215
  0
LINE
  5
121
100
AcDbEntity
  8
0
  6
ByLayer
 62
    3
370
   -1
100
AcDbLine
 10
1012.994294242472
 20
162.3861139389215
 11
1012.994294242472
 21
200.0235179067468
  0
LINE
  5
122
100
AcDbEntity
  8
0
  6
ByLayer
 62
    3
370
   -1
100
AcDbLine
 10
1012.994294242472
 20
200.0235179067468
 11
992.3141861196863
 21
203.5907722525502
  0
LINE
  5
123
100
AcDbEntity
  8
0
  6
ByLayer
 62
    3
370
   -1
100
AcDbLine
 10
992.3141861196863
 20
203.5907722525502
 11
976.0598445249905
 21
215.6272150790022
  0
LINE
  5
124
100
AcDbEntity
  8
0
  6
ByLayer
 62
    3
370
   -1
100
AcDbLine
 10
976.0598445249905
 20
215.6272150790022
 11
974.722461988718
 21
227.8694090648806
  0
LINE
  5
125
100
AcDbEntity
  8
0
  6
ByLayer
 62
    3
370
   -1
100
AcDbLine
 10
974.722461988718
 20
227.8694090648806
 11
987.170407134023
 21
219.6393626878195
  0
LINE
  5
126
100
AcDbEntity
  8
0
  6
ByLayer
 62
    3
370
   -1
100
AcDbLine
 10
987.170407134023
 20
219.6393626878195
 11
995.7090802502239
 21
221.7997498617981
  0
LINE
  5
127
100
AcDbEntity
  8
0
  6
ByLayer
 62
    3
370
   -1
100
AcDbLine
 10
995.7090802502239
 20
221.7997498617981
 11
1012.992177642052
 21
223.8572614560633
  0
LINE
  5
128
100
AcDbEntity
  8
0
  6
ByLayer
 62
    3
370
   -1
100
AcDbLine
 10
1012.992177642052
 20
223.8572614560633
 11
1012.992177642052
 21
232.7045613114041
  0
LINE
  5
129
100
AcDbEntity
  8
0
  6
ByLayer
 62
    3
370
   -1
100
AcDbLine
 10
1012.886768626779
 20
275.1491978083002
 11
1012.886768626779
 21
307.5129052382383
  0
LINE
  5
12A
100
AcDbEntity
  8
0
  6
ByLayer
 62
    3
370
   -1
100
AcDbLine
 10
1012.886768626779
 20
333.5971113501162
 11
1012.886768626779
 21
399.7810470928744
  0
LINE
  5
12B
100
AcDbEntity
  8
0
  6
ByLayer
 62
    3
370
   -1
100
AcDbLine
 10
990.9108305691103
 20
220.5893759559289
 11
1000.698887294428
 21
215.1780925630706
  0
LINE
  5
12C
100
AcDbEntity
  8
0
  6
ByLayer
 62
    3
370
   -1
100
AcDbLine
 10
1000.698887294428
 20
215.1780925630706
 11
1013.033430322266
 21
215.2576702600244
  0
LINE
  5
12D
100
AcDbEntity
  8
0
  6
ByLayer
 62
    3
370
   -1
100
AcDbLine
 10
997.5953571132297
 20
203.0027049291397
 11
1012.994294242472
 21
162.3861139389215
  0
LINE
  5
12E
100
AcDbEntity
  8
0
  6
ByLayer
 62
    3
370
   -1
100
AcDbLine
 10
1012.994294242472
 20
162.3861139389215
 11
975.8323294194217
 21
130.8664505453716
  0
LINE
  5
12F
100
AcDbEntity
  8
0
  6
ByLayer
 62
    3
370
   -1
100
AcDbLine
 10
975.8323294194217
 20
130.8664505453716
 11
946.3288019878587
 21
223.0342568183587
  0
LINE
  5
130
100
AcDbEntity
  8
0
  6
ByLayer
 62
    3
370
   -1
100
AcDbLine
 10
946.3288019878587
 20
223.0342568183587
 11
936.2000100469414
 21
170.6317642781623
  0
LINE
  5
131
100
AcDbEntity
  8
0
  6
ByLayer
 62
    3
370
   -1
100
AcDbLine
 10
946.3288019878587
 20
223.0342568183587
 11
975.5069464894186
 21
220.924507291854
  0
LINE
  5
132
100
AcDbEntity
  8
0
  6
ByLayer
 62
    3
370
   -1
100
AcDbLine
 10
946.3288019878587
 20
223.0342568183587
 11
956.6708085035431
 21
255.2727589131565
  0
LINE
  5
133
100
AcDbEntity
  8
0
  6
ByLayer
 62
    3
370
   -1
100
AcDbLine
 10
956.6708085035431
 20
255.2727589131565
 11
965.4117614250931
 21
234.2821607001383
  0
LINE
  5
134
100
AcDbEntity
  8
0
  6
ByLayer
 62
    3
370
   -1
100
AcDbLine
 10
965.4117614250931
 20
234.2821607001383
 11
995.062239863795
 21
242.4859750497352
  0
LINE
  5
135
100
AcDbEntity
  8
0
  6
ByLayer
 62
    3
370
   -1
100
AcDbLine
 10
965.4117614250931
 20
234.2821607001383
 11
974.722461988718
 21
227.8694090648806
  0
LINE
  5
136
100
AcDbEntity
  8
0
  6
ByLayer
 62
    3
370
   -1
100
AcDbLine
 10
956.6708085035431
 20
255.2727589131565
 11
953.324341408361
 21
263.6701108050987
  0
LINE
  5
137
100
AcDbEntity
  8
0
  6
ByLayer
 62
    3
370
   -1
100
AcDbLine
 10
953.324341408361
 20
263.6701108050987
 11
960.0112540897233
 21
294.429909139365
  0
LINE
  5
138
100
AcDbEntity
  8
0
  6
ByLayer
 62
    3
370
   -1
100
AcDbLine
 10
960.0112540897233
 20
294.429909139365
 11
981.4093746700823
 21
286.1998627623038
  0
LINE
  5
139
100
AcDbEntity
  8
0
  6
ByLayer
 62
    3
370
   -1
100
AcDbLine
 10
981.4093746700823
 20
286.1998627623038
 11
992.1668849378279
 21
271.5300041508415
  0
LINE
  5
13A
100
AcDbEntity
  8
0
  6
ByLayer
 62
    3
370
   -1
100
AcDbLine
 10
981.4093746700823
 20
286.1998627623038
 11
1012.886768626779
 21
307.5129052382383
  0
LINE
  5
13B
100
AcDbEntity
  8
0
  6
ByLayer
 62
    3
370
   -1
100
AcDbLine
 10
960.0112540897233
 20
294.429909139365
 11
982.1295037280752
 21
341.8555513871802
  0
LINE
  5
13C
100
AcDbEntity
  8
0
  6
ByLayer
 62
    3
370
   -1
100
AcDbLine
 10
982.1295037280752
 20
341.8555513871802
 11
1012.886768626779
 21
333.5971113501162
  0
LINE
  5
13D
100
AcDbEntity
  8
0
  6
ByLayer
 62
    3
370
   -1
100
AcDbLine
 10
960.0112540897233
 20
294.429909139365
 11
955.4847285823396
 21
358.5213953007292
  0
LINE
  5
13E
100
AcDbEntity
  8
0
  6
ByLayer
 62
    3
370
   -1
100
AcDbLine
 10
955.4847285823396
 20
358.5213953007292
 11
909.1907177113702
 21
353.8919942136322
  0
LINE
  5
13F
100
AcDbEntity
  8
0
  6
ByLayer
 62
    3
370
   -1
100
AcDbLine
 10
909.1907177113702
 20
353.8919942136322
 11
893.4419242240871
 21
390.5872799589795
  0
LINE
  5
140
100
AcDbEntity
  8
0
  6
ByLayer
 62
    3
370
   -1
100
AcDbLine
 10
909.1907177113702
 20
353.8919942136322
 11
862.4355173403662
 21
318.5086813289853
  0
LINE
  5
141
100
AcDbEntity
  8
0
  6
ByLayer
 62
    3
370
   -1
100
AcDbLine
 10
909.1907177113702
 20
353.8919942136322
 11
918.038017566711
 21
313.3590158066058
  0
LINE
  5
142
100
AcDbEntity
  8
0
  6
ByLayer
 62
    3
370
   -1
100
AcDbLine
 10
918.038017566711
 20
313.3590158066058
 11
960.0112540897233
 21
294.429909139365
  0
LINE
  5
143
100
AcDbEntity
  8
0
  6
ByLayer
 62
    3
370
   -1
100
AcDbLine
 10
918.038017566711
 20
313.3590158066058
 11
866.5109652443248
 21
283.5439761816384
  0
LINE
  5
144
100
AcDbEntity
  8
0
  6
ByLayer
 62
    3
370
   -1
100
AcDbLine
 10
918.038017566711
 20
313.3590158066058
 11
876.3525479072898
 21
249.2314312215715
  0
LINE
  5
145
100
AcDbEntity
  8
0
  6
ByLayer
 62
    3
370
   -1
100
AcDbLine
 10
876.3525479072898
 20
249.2314312215715
 11
907.6475840156712
 21
263.2586084862456
  0
LINE
  5
146
100
AcDbEntity
  8
0
  6
ByLayer
 62
    3
370
   -1
100
AcDbLine
 10
907.6475840156712
 20
263.2586084862456
 11
918.038017566711
 21
313.3590158066058
  0
LINE
  5
147
100
AcDbEntity
  8
0
  6
ByLayer
 62
    3
370
   -1
100
AcDbLine
 10
907.6475840156712
 20
263.2586084862456
 11
960.0112540897233
 21
294.429909139365
  0
LINE
  5
148
100
AcDbEntity
  8
0
  6
ByLayer
 62
    3
370
   -1
100
AcDbLine
 10
907.6475840156712
 20
263.2586084862456
 11
901.2224932853228
 21
213.4559482980908
  0
LINE
  5
149
100
AcDbEntity
  8
0
  6
ByLayer
 62
    3
370
   -1
100
AcDbLine
 10
901.2224932853228
 20
213.4559482980908
 11
907.6475840156712
 21
263.2586084862456
  0
LINE
  5
14A
100
AcDbEntity
  8
0
  6
ByLayer
 62
    3
370
   -1
100
AcDbLine
 10
907.6475840156712
 20
263.2586084862456
 11
946.3288019878587
 21
223.0342568183587
  0
LINE
  5
14B
100
AcDbEntity
  8
0
  6
ByLayer
 62
    3
370
   -1
100
AcDbLine
 10
893.4419242240871
 20
390.5872799589795
 11
865.0570940143797
 21
354.9207500107654
  0
LINE
  5
14C
100
AcDbEntity
  8
0
  6
ByLayer
 62
    3
370
   -1
100
AcDbLine
 10
865.0570940143797
 20
354.9207500107654
 11
874.7273985074266
 21
346.3820768945644
  0
LINE
  5
14D
100
AcDbEntity
  8
0
  6
ByLayer
 62
    3
370
   -1
100
AcDbLine
 10
893.4419242240871
 20
390.5872799589795
 11
932.8563189441903
 21
378.1625038551668
  0
LINE
  5
14E
100
AcDbEntity
  8
0
  6
ByLayer
 62
    3
370
   -1
100
AcDbLine
 10
932.8563189441903
 20
378.1625038551668
 11
970.9883870718687
 21
372.0800880801997
  0
LINE
  5
14F
100
AcDbEntity
  8
0
  6
ByLayer
 62
    3
370
   -1
100
AcDbLine
 10
970.9883870718687
 20
372.0800880801997
 11
982.1295037280752
 21
341.8555513871802
  0
LINE
  5
150
100
AcDbEntity
  8
0
  6
ByLayer
 62
    3
370
   -1
100
AcDbLine
 10
982.1295037280752
 20
341.8555513871802
 11
969.5847526622609
 21
354.6516274942363
  0
LINE
  5
151
100
AcDbEntity
  8
0
  6
ByLayer
 62
    3
370
   -1
100
AcDbLine
 10
969.5847526622609
 20
354.6516274942363
 11
955.4847285823396
 21
358.5213953007292
  0
LINE
  5
152
100
AcDbEntity
  8
0
  6
ByLayer
 62
    3
370
   -1
100
AcDbLine
 10
955.4847285823396
 20
358.5213953007292
 11
932.8563189441903
 21
378.1625038551668
  0
LINE
  5
153
100
AcDbEntity
  8
0
  6
ByLayer
 62
    3
370
   -1
100
AcDbLine
 10
932.8563189441903
 20
378.1625038551668
 11
951.9223530080295
 21
450.5666454841023
  0
LINE
  5
154
100
AcDbEntity
  8
0
  6
ByLayer
 62
    3
370
   -1
100
AcDbLine
 10
951.9223530080295
 20
450.5666454841023
 11
993.2125985573255
 21
408.4576131958684
  0
LINE
  5
155
100
AcDbEntity
  8
0
  6
ByLayer
 62
    3
370
   -1
100
AcDbLine
 10
993.2125985573255
 20
408.4576131958684
 11
1012.886768626779
 21
399.7810470928744
  0
LINE
  5
156
100
AcDbEntity
  8
0
  6
ByLayer
 62
    3
370
   -1
100
AcDbLine
 10
993.2125985573255
 20
408.4576131958684
 11
986.2567819852247
 21
464.2485496397476
  0
LINE
  5
157
100
AcDbEntity
  8
0
  6
ByLayer
 62
    3
370
   -1
100
AcDbLine
 10
993.2125985573255
 20
408.4576131958684
 11
970.9883870718687
 21
372.0800880801997
  0
LINE
  5
158
100
AcDbEntity
  8
0
  6
ByLayer
 62
    3
370
   -1
100
AcDbLine
 10
1141.522688470783
 20
484.008705932092
 11
1122.962428973458
 21
531.0787782305899
  0
LINE
  5
159
100
AcDbEntity
  8
0
  6
ByLayer
 62
    3
370
   -1
100
AcDbLine
 10
1122.962428973458
 20
531.0787782305899
 11
1100.092201845254
 21
530.4554770979368
  0
LINE
  5
15A
100
AcDbEntity
  8
0
  6
ByLayer
 62
    3
370
   -1
100
AcDbLine
 10
1100.092201845254
 20
530.4554770979368
 11
1077.175950426295
 21
494.8747151919071
  0
LINE
  5
15B
100
AcDbEntity
  8
0
  6
ByLayer
 62
    3
370
   -1
100
AcDbLine
 10
1077.175950426295
 20
494.8747151919071
 11
1040.217825653187
 21
464.2130276419813
  0
LINE
  5
15C
100
AcDbEntity
  8
0
  6
ByLayer
 62
    3
370
   -1
100
AcDbLine
 10
1040.217825653187
 20
464.2130276419813
 11
1103.89136707224
 21
438.3194375691402
  0
LINE
  5
15D
100
AcDbEntity
  8
0
  6
ByLayer
 62
    3
370
   -1
100
AcDbLine
 10
1103.89136707224
 20
438.3194375691402
 11
1077.175950426295
 21
494.8747151919071
  0
LINE
  5
15E
100
AcDbEntity
  8
0
  6
ByLayer
 62
    3
370
   -1
100
AcDbLine
 10
1040.217825653187
 20
464.2130276419813
 11
1013.487760540346
 21
469.8870603971964
  0
LINE
  5
15F
100
AcDbEntity
  8
0
  6
ByLayer
 62
    3
370
   -1
100
AcDbLine
 10
1122.962428973458
 20
531.0787782305899
 11
1103.89136707224
 21
438.3194375691402
  0
LINE
  5
160
100
AcDbEntity
  8
0
  6
ByLayer
 62
    3
370
   -1
100
AcDbLine
 10
1103.89136707224
 20
438.3194375691402
 11
1133.699800597423
 21
434.5001647082465
  0
LINE
  5
161
100
AcDbEntity
  8
0
  6
ByLayer
 62
    3
370
   -1
100
AcDbLine
 10
1133.699800597423
 20
434.5001647082465
 11
1141.549534559475
 21
444.198309653534
  0
LINE
  5
162
100
AcDbEntity
  8
0
  6
ByLayer
 62
    3
370
   -1
100
AcDbLine
 10
1141.549534559475
 20
444.198309653534
 11
1141.522688470783
 21
484.008705932092
  0
LINE
  5
163
100
AcDbEntity
  8
0
  6
ByLayer
 62
    3
370
   -1
100
AcDbLine
 10
1133.699800597423
 20
434.5001647082465
 11
1141.997392341737
 21
428.9916673966181
  0
LINE
  5
164
100
AcDbEntity
  8
0
  6
ByLayer
 62
    3
370
   -1
100
AcDbLine
 10
1141.997392341737
 20
428.9916673966181
 11
1132.935622108428
 21
390.4296237310232
  0
LINE
  5
165
100
AcDbEntity
  8
0
  6
ByLayer
 62
    3
370
   -1
100
AcDbLine
 10
1132.935622108428
 20
390.4296237310232
 11
1103.89136707224
 21
438.3194375691402
  0
LINE
  5
166
100
AcDbEntity
  8
0
  6
ByLayer
 62
    3
370
   -1
100
AcDbLine
 10
1132.935622108428
 20
390.4296237310232
 11
1163.847104966143
 21
318.3102651936667
  0
LINE
  5
167
100
AcDbEntity
  8
0
  6
ByLayer
 62
    3
370
   -1
100
AcDbLine
 10
1163.847104966143
 20
318.3102651936667
 11
1159.72562680568
 21
283.3509559980945
  0
LINE
  5
168
100
AcDbEntity
  8
0
  6
ByLayer
 62
    3
370
   -1
100
AcDbLine
 10
1159.72562680568
 20
283.3509559980945
 11
1166.878424942066
 21
261.3974502977954
  0
LINE
  5
169
100
AcDbEntity
  8
0
  6
ByLayer
 62
    3
370
   -1
100
AcDbLine
 10
1166.878424942066
 20
261.3974502977954
 11
1149.838877503923
 21
249.0513979952165
  0
LINE
  5
16A
100
AcDbEntity
  8
0
  6
ByLayer
 62
    3
370
   -1
100
AcDbLine
 10
1149.838877503923
 20
249.0513979952165
 11
1131.563860398949
 21
207.4481876606108
  0
LINE
  5
16B
100
AcDbEntity
  8
0
  6
ByLayer
 62
    3
370
   -1
100
AcDbLine
 10
1131.563860398949
 20
207.4481876606108
 11
1124.921852438962
 21
213.3086893202056
  0
LINE
  5
16C
100
AcDbEntity
  8
0
  6
ByLayer
 62
    3
370
   -1
100
AcDbLine
 10
1124.921852438962
 20
213.3086893202056
 11
1098.127324261244
 21
165.7319442018787
  0
LINE
  5
16D
100
AcDbEntity
  8
0
  6
ByLayer
 62
    3
370
   -1
100
AcDbLine
 10
1098.127324261244
 20
165.7319442018787
 11
1089.887984580297
 21
170.530593071733
  0
LINE
  5
16E
100
AcDbEntity
  8
0
  6
ByLayer
 62
    3
370
   -1
100
AcDbLine
 10
1089.887984580297
 20
170.530593071733
 11
1066.16475596481
 21
132.3924121079372
  0
LINE
  5
16F
100
AcDbEntity
  8
0
  6
ByLayer
 62
    3
370
   -1
100
AcDbLine
 10
1066.16475596481
 20
132.3924121079372
 11
1050.203345388735
 21
130.8174928736225
  0
LINE
  5
170
100
AcDbEntity
  8
0
  6
ByLayer
 62
    3
370
   -1
100
AcDbLine
 10
1050.203345388735
 20
130.8174928736225
 11
1012.994294242472
 21
95.0778353597708
  0
LINE
  5
171
100
AcDbEntity
  8
0
  6
ByLayer
 62
    3
370
   -1
100
AcDbLine
 10
1013.132463500594
 20
200.0234269513512
 11
1033.817250271488
 21
203.5634512140403
  0
LINE
  5
172
100
AcDbEntity
  8
0
  6
ByLayer
 62
    3
370
   -1
100
AcDbLine
 10
1033.817250271488
 20
203.5634512140403
 11
1050.087424703852
 21
215.5784834874871
  0
LINE
  5
173
100
AcDbEntity
  8
0
  6
ByLayer
 62
    3
370
   -1
100
AcDbLine
 10
1050.087424703852
 20
215.5784834874871
 11
1051.440923893784
 21
227.8189060937152
  0
LINE
  5
174
100
AcDbEntity
  8
0
  6
ByLayer
 62
    3
370
   -1
100
AcDbLine
 10
1051.440923893784
 20
227.8189060937152
 11
1038.982154032617
 21
219.6052555499198
  0
LINE
  5
175
100
AcDbEntity
  8
0
  6
ByLayer
 62
    3
370
   -1
100
AcDbLine
 10
1038.982154032617
 20
219.6052555499198
 11
1030.446332636699
 21
221.7768826872996
  0
LINE
  5
176
100
AcDbEntity
  8
0
  6
ByLayer
 62
    3
370
   -1
100
AcDbLine
 10
1030.446332636699
 20
221.7768826872996
 11
1013.165959100055
 21
223.8571470575242
  0
LINE
  5
177
100
AcDbEntity
  8
0
  6
ByLayer
 62
    3
370
   -1
100
AcDbLine
 10
1013.381507268946
 20
307.5125795568995
 11
1013.415849181064
 21
333.5967630618514
  0
LINE
  5
178
100
AcDbEntity
  8
0
  6
ByLayer
 62
    3
370
   -1
100
AcDbLine
 10
1013.502985546079
 20
399.7806414436405
 11
1013.595286062847
 21
469.886918831253
  0
LINE
  5
179
100
AcDbEntity
  8
0
  6
ByLayer
 62
    3
370
   -1
100
AcDbLine
 10
1035.242984606622
 20
220.5601925567644
 11
1025.44781198366
 21
215.1618006015412
  0
LINE
  5
17A
100
AcDbEntity
  8
0
  6
ByLayer
 62
    3
370
   -1
100
AcDbLine
 10
1025.44781198366
 20
215.1618006015412
 11
1013.113384416356
 21
215.25761762707
  0
LINE
  5
17B
100
AcDbEntity
  8
0
  6
ByLayer
 62
    3
370
   -1
100
AcDbLine
 10
1028.535309618128
 20
202.9823374779368
 11
1013.082910893401
 21
162.3860556034954
  0
LINE
  5
17C
100
AcDbEntity
  8
0
  6
ByLayer
 62
    3
370
   -1
100
AcDbLine
 10
1013.082910893401
 20
162.3860556034954
 11
1050.203345388735
 21
130.8174928736225
  0
LINE
  5
17D
100
AcDbEntity
  8
0
  6
ByLayer
 62
    3
370
   -1
100
AcDbLine
 10
1050.203345388735
 20
130.8174928736225
 11
1079.828193427316
 21
222.9463755476835
  0
LINE
  5
17E
100
AcDbEntity
  8
0
  6
ByLayer
 62
    3
370
   -1
100
AcDbLine
 10
1079.828193427316
 20
222.9463755476835
 11
1089.887984580297
 21
170.530593071733
  0
LINE
  5
17F
100
AcDbEntity
  8
0
  6
ByLayer
 62
    3
370
   -1
100
AcDbLine
 10
1079.828193427316
 20
222.9463755476835
 11
1050.647296562722
 21
220.8750431754095
  0
LINE
  5
180
100
AcDbEntity
  8
0
  6
ByLayer
 62
    3
370
   -1
100
AcDbLine
 10
1079.828193427316
 20
222.9463755476835
 11
1069.528640402529
 21
255.1984657679519
  0
LINE
  5
181
100
AcDbEntity
  8
0
  6
ByLayer
 62
    3
370
   -1
100
AcDbLine
 10
1069.528640402529
 20
255.1984657679519
 11
1060.760059280605
 21
234.2193939003655
  0
LINE
  5
182
100
AcDbEntity
  8
0
  6
ByLayer
 62
    3
370
   -1
100
AcDbLine
 10
1060.760059280605
 20
234.2193939003655
 11
1031.120407507525
 21
242.4622383303646
  0
LINE
  5
183
100
AcDbEntity
  8
0
  6
ByLayer
 62
    3
370
   -1
100
AcDbLine
 10
1060.760059280605
 20
234.2193939003655
 11
1051.440923893784
 21
227.8189060937152
  0
LINE
  5
184
100
AcDbEntity
  8
0
  6
ByLayer
 62
    3
370
   -1
100
AcDbLine
 10
1069.528640402529
 20
255.1984657679519
 11
1072.886160372624
 21
263.5914044944441
  0
LINE
  5
185
100
AcDbEntity
  8
0
  6
ByLayer
 62
    3
370
   -1
100
AcDbLine
 10
1072.886160372624
 20
263.5914044944441
 11
1066.23975118434
 21
294.3599800167979
  0
LINE
  5
186
100
AcDbEntity
  8
0
  6
ByLayer
 62
    3
370
   -1
100
AcDbLine
 10
1066.23975118434
 20
294.3599800167979
 11
1044.830813645149
 21
286.1581130840087
  0
LINE
  5
187
100
AcDbEntity
  8
0
  6
ByLayer
 62
    3
370
   -1
100
AcDbLine
 10
1044.830813645149
 20
286.1581130840087
 11
1034.053998676359
 21
271.5024302964549
  0
LINE
  5
188
100
AcDbEntity
  8
0
  6
ByLayer
 62
    3
370
   -1
100
AcDbLine
 10
1044.830813645149
 20
286.1581130840087
 11
1013.381507268946
 21
307.5125795568995
  0
LINE
  5
189
100
AcDbEntity
  8
0
  6
ByLayer
 62
    3
370
   -1
100
AcDbLine
 10
1066.23975118434
 20
294.3599800167979
 11
1044.183960309611
 21
341.8147015792774
  0
LINE
  5
18A
100
AcDbEntity
  8
0
  6
ByLayer
 62
    3
370
   -1
100
AcDbLine
 10
1044.183960309611
 20
341.8147015792774
 11
1013.415849181064
 21
333.5967630618514
  0
LINE
  5
18B
100
AcDbEntity
  8
0
  6
ByLayer
 62
    3
370
   -1
100
AcDbLine
 10
1066.23975118434
 20
294.3599800167979
 11
1070.850654258938
 21
358.445451103293
  0
LINE
  5
18C
100
AcDbEntity
  8
0
  6
ByLayer
 62
    3
370
   -1
100
AcDbLine
 10
1070.850654258938
 20
358.445451103293
 11
1117.138530036131
 21
353.755104316351
  0
LINE
  5
18D
100
AcDbEntity
  8
0
  6
ByLayer
 62
    3
370
   -1
100
AcDbLine
 10
1117.138530036131
 20
353.755104316351
 11
1132.935622108428
 21
390.4296237310232
  0
LINE
  5
18E
100
AcDbEntity
  8
0
  6
ByLayer
 62
    3
370
   -1
100
AcDbLine
 10
1117.138530036131
 20
353.755104316351
 11
1163.847104966143
 21
318.3102651936667
  0
LINE
  5
18F
100
AcDbEntity
  8
0
  6
ByLayer
 62
    3
370
   -1
100
AcDbLine
 10
1117.138530036131
 20
353.755104316351
 11
1108.237872989618
 21
313.2338092060618
  0
LINE
  5
190
100
AcDbEntity
  8
0
  6
ByLayer
 62
    3
370
   -1
100
AcDbLine
 10
1108.237872989618
 20
313.2338092060618
 11
1066.23975118434
 21
294.3599800167979
  0
LINE
  5
191
100
AcDbEntity
  8
0
  6
ByLayer
 62
    3
370
   -1
100
AcDbLine
 10
1108.237872989618
 20
313.2338092060618
 11
1159.72562680568
 21
283.3509559980945
  0
LINE
  5
192
100
AcDbEntity
  8
0
  6
ByLayer
 62
    3
370
   -1
100
AcDbLine
 10
1108.237872989618
 20
313.2338092060618
 11
1149.838877503923
 21
249.0513979952165
  0
LINE
  5
193
100
AcDbEntity
  8
0
  6
ByLayer
 62
    3
370
   -1
100
AcDbLine
 10
1149.838877503923
 20
249.0513979952165
 11
1118.562336402497
 21
263.1197654829626
  0
LINE
  5
194
100
AcDbEntity
  8
0
  6
ByLayer
 62
    3
370
   -1
100
AcDbLine
 10
1118.562336402497
 20
263.1197654829626
 11
1108.237872989618
 21
313.2338092060618
  0
LINE
  5
195
100
AcDbEntity
  8
0
  6
ByLayer
 62
    3
370
   -1
100
AcDbLine
 10
1118.562336402497
 20
263.1197654829626
 11
1066.23975118434
 21
294.3599800167979
  0
LINE
  5
196
100
AcDbEntity
  8
0
  6
ByLayer
 62
    3
370
   -1
100
AcDbLine
 10
1118.562336402497
 20
263.1197654829626
 11
1124.921852438962
 21
213.3086893202056
  0
LINE
  5
197
100
AcDbEntity
  8
0
  6
ByLayer
 62
    3
370
   -1
100
AcDbLine
 10
1124.921852438962
 20
213.3086893202056
 11
1118.562336402497
 21
263.1197654829626
  0
LINE
  5
198
100
AcDbEntity
  8
0
  6
ByLayer
 62
    3
370
   -1
100
AcDbLine
 10
1118.562336402497
 20
263.1197654829626
 11
1079.828193427316
 21
222.9463755476835
  0
LINE
  5
199
100
AcDbEntity
  8
0
  6
ByLayer
 62
    3
370
   -1
100
AcDbLine
 10
1132.935622108428
 20
390.4296237310232
 11
1161.273469920989
 21
354.7257538296682
  0
LINE
  5
19A
100
AcDbEntity
  8
0
  6
ByLayer
 62
    3
370
   -1
100
AcDbLine
 10
1161.273469920989
 20
354.7257538296682
 11
1151.591931973313
 21
346.1998198314906
  0
LINE
  5
19B
100
AcDbEntity
  8
0
  6
ByLayer
 62
    3
370
   -1
100
AcDbLine
 10
1132.935622108428
 20
390.4296237310232
 11
1093.504903351898
 21
378.0567505511427
  0
LINE
  5
19C
100
AcDbEntity
  8
0
  6
ByLayer
 62
    3
370
   -1
100
AcDbLine
 10
1093.504903351898
 20
378.0567505511427
 11
1055.364860293402
 21
372.0245439192726
  0
LINE
  5
19D
100
AcDbEntity
  8
0
  6
ByLayer
 62
    3
370
   -1
100
AcDbLine
 10
1055.364860293402
 20
372.0245439192726
 11
1044.183960309611
 21
341.8147015792774
  0
LINE
  5
19E
100
AcDbEntity
  8
0
  6
ByLayer
 62
    3
370
   -1
100
AcDbLine
 10
1044.183960309611
 20
341.8147015792774
 11
1056.745547545213
 21
354.5942504431142
  0
LINE
  5
19F
100
AcDbEntity
  8
0
  6
ByLayer
 62
    3
370
   -1
100
AcDbLine
 10
1056.745547545213
 20
354.5942504431142
 11
1070.850654258938
 21
358.445451103293
  0
LINE
  5
1A0
100
AcDbEntity
  8
0
  6
ByLayer
 62
    3
370
   -1
100
AcDbLine
 10
1070.850654258938
 20
358.445451103293
 11
1093.504903351898
 21
378.0567505511427
  0
LINE
  5
1A1
100
AcDbEntity
  8
0
  6
ByLayer
 62
    3
370
   -1
100
AcDbLine
 10
1093.504903351898
 20
378.0567505511427
 11
1074.534211568462
 21
450.4859313638807
  0
LINE
  5
1A2
100
AcDbEntity
  8
0
  6
ByLayer
 62
    3
370
   -1
100
AcDbLine
 10
1074.534211568462
 20
450.4859313638807
 11
1033.18856194689
 21
408.4312974320191
  0
LINE
  5
1A3
100
AcDbEntity
  8
0
  6
ByLayer
 62
    3
370
   -1
100
AcDbLine
 10
1033.18856194689
 20
408.4312974320191
 11
1013.502985546079
 21
399.7806414436405
  0
LINE
  5
1A4
100
AcDbEntity
  8
0
  6
ByLayer
 62
    3
370
   -1
100
AcDbLine
 10
1033.18856194689
 20
408.4312974320191
 11
1040.217825653187
 21
464.2130276419813
  0
LINE
  5
1A5
100
AcDbEntity
  8
0
  6
ByLayer
 62
    3
370
   -1
100
AcDbLine
 10
1033.18856194689
 20
408.4312974320191
 11
1055.364860293402
 21
372.0245439192726
  0
LINE
  5
1A6
100
AcDbEntity
  8
0
  6
ByLayer
 62
    3
370
   -1
100
AcDbLine
 10
987.1000138173857
 20
259.4961852397912
 11
992.1668849378281
 21
271.5300041508415
  0
LINE
  5
1A7
100
AcDbEntity
  8
0
  6
ByLayer
 62
    3
370
   -1
100
AcDbLine
 10
995.062239863795
 20
242.4859750497352
 11
987.1000138173857
 21
259.4961852397912
  0
LINE
  5
1A8
100
AcDbEntity
  8
0
  6
ByLayer
 62
    3
370
   -1
100
AcDbLine
 10
1013.084859211004
 20
232.6540002451557
 11
995.062239863795
 21
242.4859750497352
  0
LINE
  5
1A9
100
AcDbEntity
  8
0
  6
ByLayer
 62
    3
370
   -1
100
AcDbLine
 10
1013.084859211004
 20
232.6540002451557
 11
1031.120407507525
 21
242.4622383303646
  0
LINE
  5
1AA
100
AcDbEntity
  8
0
  6
ByLayer
 62
    3
370
   -1
100
AcDbLine
 10
1031.120407507525
 20
242.4622383303646
 11
1039.105021934838
 21
259.4619508800272
  0
LINE
  5
1AB
100
AcDbEntity
  8
0
  6
ByLayer
 62
    3
370
   -1
100
AcDbLine
 10
1039.105021934838
 20
259.4619508800272
 11
1034.053998676359
 21
271.5024302964549
  0
LINE
  5
1AC
100
AcDbEntity
  8
0
  6
ByLayer
 62
    3
370
   -1
100
AcDbLine
 10
992.1668849378281
 20
271.5300041508415
 11
1012.886768626779
 21
275.1491978083002
  0
LINE
  5
1AD
100
AcDbEntity
  8
0
  6
ByLayer
 62
    3
370
   -1
100
AcDbLine
 10
1034.053998676359
 20
271.5024302964549
 11
1012.886768626779
 21
275.1491978083002
  0
LINE
  5
1AE
100
AcDbEntity
  8
0
  6
ByLayer
 62
    1
370
   -1
100
AcDbLine
 10
710.342519772134
 20
43.70629766176313
 11
728.9647346415679
 21
90.75189312138565
  0
LINE
  5
1AF
100
AcDbEntity
  8
0
  6
ByLayer
 62
    1
370
   -1
100
AcDbLine
 10
728.9647346415679
 20
90.75189312138565
 11
751.8341213233289
 21
90.09848207333533
  0
LINE
  5
1B0
100
AcDbEntity
  8
0
  6
ByLayer
 62
    1
370
   -1
100
AcDbLine
 10
751.8341213233289
 20
90.09848207333533
 11
774.70350800509
 21
54.48757995459329
  0
LINE
  5
1B1
100
AcDbEntity
  8
0
  6
ByLayer
 62
    1
370
   -1
100
AcDbLine
 10
774.70350800509
 20
54.48757995459329
 11
811.6212322199326
 21
23.77726069622855
  0
LINE
  5
1B2
100
AcDbEntity
  8
0
  6
ByLayer
 62
    1
370
   -1
100
AcDbLine
 10
811.6212322199326
 20
23.77726069622855
 11
747.9136550350272
 21
-2.032475701758813
  0
LINE
  5
1B3
100
AcDbEntity
  8
0
  6
ByLayer
 62
    1
370
   -1
100
AcDbLine
 10
747.9136550350272
 20
-2.032475701758813
 11
774.70350800509
 21
54.48757995459329
  0
LINE
  5
1B4
100
AcDbEntity
  8
0
  6
ByLayer
 62
    1
370
   -1
100
AcDbLine
 10
811.6212322199326
 20
23.77726069622855
 11
838.3587444771797
 21
29.41609629744494
  0
LINE
  5
1B5
100
AcDbEntity
  8
0
  6
ByLayer
 62
    1
370
   -1
100
AcDbLine
 10
728.9647346415679
 20
90.75189312138565
 11
747.9136550350272
 21
-2.032475701758813
  0
LINE
  5
1B6
100
AcDbEntity
  8
0
  6
ByLayer
 62
    1
370
   -1
100
AcDbLine
 10
747.9136550350272
 20
-2.032475701758813
 11
718.1002189709395
 21
-5.812500101644162
  0
LINE
  5
1B7
100
AcDbEntity
  8
0
  6
ByLayer
 62
    1
370
   -1
100
AcDbLine
 10
718.1002189709395
 20
-5.812500101644162
 11
710.2632601839628
 21
3.895971231476267
  0
LINE
  5
1B8
100
AcDbEntity
  8
0
  6
ByLayer
 62
    1
370
   -1
100
AcDbLine
 10
710.2632601839628
 20
3.895971231476267
 11
710.342519772134
 21
43.70629766176313
  0
LINE
  5
1B9
100
AcDbEntity
  8
0
  6
ByLayer
 62
    1
370
   -1
100
AcDbLine
 10
718.1002189709395
 20
-5.812500101644162
 11
709.795382047427
 21
-11.31006820594132
  0
LINE
  5
1BA
100
AcDbEntity
  8
0
  6
ByLayer
 62
    1
370
   -1
100
AcDbLine
 10
709.795382047427
 20
-11.31006820594132
 11
718.8063744587951
 21
-49.88400898453955
  0
LINE
  5
1BB
100
AcDbEntity
  8
0
  6
ByLayer
 62
    1
370
   -1
100
AcDbLine
 10
718.8063744587951
 20
-49.88400898453955
 11
747.9136550350272
 21
-2.032475701758813
  0
LINE
  5
1BC
100
AcDbEntity
  8
0
  6
ByLayer
 62
    1
370
   -1
100
AcDbLine
 10
718.8063744587951
 20
-49.88400898453955
 11
687.7999675750743
 21
-121.9626076145337
  0
LINE
  5
1BD
100
AcDbEntity
  8
0
  6
ByLayer
 62
    1
370
   -1
100
AcDbLine
 10
687.7999675750743
 20
-121.9626076145337
 11
691.8754154790329
 21
-156.9273127618806
  0
LINE
  5
1BE
100
AcDbEntity
  8
0
  6
ByLayer
 62
    1
370
   -1
100
AcDbLine
 10
691.8754154790329
 20
-156.9273127618806
 11
684.6937200222746
 21
-178.8713822130862
  0
LINE
  5
1BF
100
AcDbEntity
  8
0
  6
ByLayer
 62
    1
370
   -1
100
AcDbLine
 10
684.6937200222746
 20
-178.8713822130862
 11
701.7169981419977
 21
-191.2398577219476
  0
LINE
  5
1C0
100
AcDbEntity
  8
0
  6
ByLayer
 62
    1
370
   -1
100
AcDbLine
 10
701.7169981419977
 20
-191.2398577219476
 11
719.9372255045139
 21
-232.867092499083
  0
LINE
  5
1C1
100
AcDbEntity
  8
0
  6
ByLayer
 62
    1
370
   -1
100
AcDbLine
 10
719.9372255045139
 20
-232.867092499083
 11
726.5869435200307
 21
-227.0153406454282
  0
LINE
  5
1C2
100
AcDbEntity
  8
0
  6
ByLayer
 62
    1
370
   -1
100
AcDbLine
 10
726.5869435200307
 20
-227.0153406454282
 11
753.3188099424085
 21
-274.6273216365288
  0
LINE
  5
1C3
100
AcDbEntity
  8
0
  6
ByLayer
 62
    1
370
   -1
100
AcDbLine
 10
753.3188099424085
 20
-274.6273216365288
 11
761.5644602816494
 21
-269.8395246653567
  0
LINE
  5
1C4
100
AcDbEntity
  8
0
  6
ByLayer
 62
    1
370
   -1
100
AcDbLine
 10
761.5644602816494
 20
-269.8395246653567
 11
785.2374564168895
 21
-308.0089060744234
  0
LINE
  5
1C5
100
AcDbEntity
  8
0
  6
ByLayer
 62
    1
370
   -1
100
AcDbLine
 10
785.2374564168895
 20
-308.0089060744234
 11
801.1967796541298
 21
-309.6048383981474
  0
LINE
  5
1C6
100
AcDbEntity
  8
0
  6
ByLayer
 62
    1
370
   -1
100
AcDbLine
 10
801.1967796541298
 20
-309.6048383981474
 11
838.3587444771802
 21
-345.3934535837482
  0
LINE
  5
1C7
100
AcDbEntity
  8
0
  6
ByLayer
 62
    1
370
   -1
100
AcDbLine
 10
838.3587444771802
 20
-345.3934535837482
 11
838.3587444771802
 21
-278.0851750045975
  0
LINE
  5
1C8
100
AcDbEntity
  8
0
  6
ByLayer
 62
    1
370
   -1
100
AcDbLine
 10
838.3587444771802
 20
-278.0851750045975
 11
838.3587444771802
 21
-240.4477710367722
  0
LINE
  5
1C9
100
AcDbEntity
  8
0
  6
ByLayer
 62
    1
370
   -1
100
AcDbLine
 10
838.3587444771802
 20
-240.4477710367722
 11
817.6786363543943
 21
-236.8805166909688
  0
LINE
  5
1CA
100
AcDbEntity
  8
0
  6
ByLayer
 62
    1
370
   -1
100
AcDbLine
 10
817.6786363543943
 20
-236.8805166909688
 11
801.4242947596986
 21
-224.8440738645168
  0
LINE
  5
1CB
100
AcDbEntity
  8
0
  6
ByLayer
 62
    1
370
   -1
100
AcDbLine
 10
801.4242947596986
 20
-224.8440738645168
 11
800.086912223426
 21
-212.6018798786384
  0
LINE
  5
1CC
100
AcDbEntity
  8
0
  6
ByLayer
 62
    1
370
   -1
100
AcDbLine
 10
800.086912223426
 20
-212.6018798786384
 11
812.5348573687311
 21
-220.8319262556995
  0
LINE
  5
1CD
100
AcDbEntity
  8
0
  6
ByLayer
 62
    1
370
   -1
100
AcDbLine
 10
812.5348573687311
 20
-220.8319262556995
 11
821.073530484932
 21
-218.671539081721
  0
LINE
  5
1CE
100
AcDbEntity
  8
0
  6
ByLayer
 62
    1
370
   -1
100
AcDbLine
 10
821.073530484932
 20
-218.671539081721
 11
838.3566278767603
 21
-216.6140274874557
  0
LINE
  5
1CF
100
AcDbEntity
  8
0
  6
ByLayer
 62
    1
370
   -1
100
AcDbLine
 10
838.3566278767603
 20
-216.6140274874557
 11
838.3566278767603
 21
-207.766727632115
  0
LINE
  5
1D0
100
AcDbEntity
  8
0
  6
ByLayer
 62
    1
370
   -1
100
AcDbLine
 10
838.2512188614874
 20
-165.3220911352188
 11
838.2512188614874
 21
-132.9583837052808
  0
LINE
  5
1D1
100
AcDbEntity
  8
0
  6
ByLayer
 62
    1
370
   -1
100
AcDbLine
 10
838.2512188614874
 20
-106.8741775934028
 11
838.2512188614874
 21
-40.69024185064461
  0
LINE
  5
1D2
100
AcDbEntity
  8
0
  6
ByLayer
 62
    1
370
   -1
100
AcDbLine
 10
816.2752808038183
 20
-219.8819129875901
 11
826.0633375291354
 21
-225.2931963804484
  0
LINE
  5
1D3
100
AcDbEntity
  8
0
  6
ByLayer
 62
    1
370
   -1
100
AcDbLine
 10
826.0633375291354
 20
-225.2931963804484
 11
838.3978805569743
 21
-225.2136186834946
  0
LINE
  5
1D4
100
AcDbEntity
  8
0
  6
ByLayer
 62
    1
370
   -1
100
AcDbLine
 10
822.9598073479376
 20
-237.4685840143793
 11
838.3587444771802
 21
-278.0851750045975
  0
LINE
  5
1D5
100
AcDbEntity
  8
0
  6
ByLayer
 62
    1
370
   -1
100
AcDbLine
 10
838.3587444771802
 20
-278.0851750045975
 11
801.1967796541298
 21
-309.6048383981474
  0
LINE
  5
1D6
100
AcDbEntity
  8
0
  6
ByLayer
 62
    1
370
   -1
100
AcDbLine
 10
801.1967796541298
 20
-309.6048383981474
 11
771.6932522225668
 21
-217.4370321251603
  0
LINE
  5
1D7
100
AcDbEntity
  8
0
  6
ByLayer
 62
    1
370
   -1
100
AcDbLine
 10
771.6932522225668
 20
-217.4370321251603
 11
761.5644602816494
 21
-269.8395246653567
  0
LINE
  5
1D8
100
AcDbEntity
  8
0
  6
ByLayer
 62
    1
370
   -1
100
AcDbLine
 10
771.6932522225668
 20
-217.4370321251603
 11
800.8713967241265
 21
-219.546781651665
  0
LINE
  5
1D9
100
AcDbEntity
  8
0
  6
ByLayer
 62
    1
370
   -1
100
AcDbLine
 10
771.6932522225668
 20
-217.4370321251603
 11
782.0352587382511
 21
-185.1985300303626
  0
LINE
  5
1DA
100
AcDbEntity
  8
0
  6
ByLayer
 62
    1
370
   -1
100
AcDbLine
 10
782.0352587382511
 20
-185.1985300303626
 11
790.776211659801
 21
-206.1891282433807
  0
LINE
  5
1DB
100
AcDbEntity
  8
0
  6
ByLayer
 62
    1
370
   -1
100
AcDbLine
 10
790.776211659801
 20
-206.1891282433807
 11
820.4266900985031
 21
-197.9853138937838
  0
LINE
  5
1DC
100
AcDbEntity
  8
0
  6
ByLayer
 62
    1
370
   -1
100
AcDbLine
 10
790.776211659801
 20
-206.1891282433807
 11
800.086912223426
 21
-212.6018798786384
  0
LINE
  5
1DD
100
AcDbEntity
  8
0
  6
ByLayer
 62
    1
370
   -1
100
AcDbLine
 10
782.0352587382511
 20
-185.1985300303626
 11
778.688791643069
 21
-176.8011781384204
  0
LINE
  5
1DE
100
AcDbEntity
  8
0
  6
ByLayer
 62
    1
370
   -1
100
AcDbLine
 10
778.688791643069
 20
-176.8011781384204
 11
785.3757043244311
 21
-146.0413798041541
  0
LINE
  5
1DF
100
AcDbEntity
  8
0
  6
ByLayer
 62
    1
370
   -1
100
AcDbLine
 10
785.3757043244311
 20
-146.0413798041541
 11
806.7738249047904
 21
-154.2714261812152
  0
LINE
  5
1E0
100
AcDbEntity
  8
0
  6
ByLayer
 62
    1
370
   -1
100
AcDbLine
 10
806.7738249047904
 20
-154.2714261812152
 11
817.531335172536
 21
-168.9412847926775
  0
LINE
  5
1E1
100
AcDbEntity
  8
0
  6
ByLayer
 62
    1
370
   -1
100
AcDbLine
 10
806.7738249047904
 20
-154.2714261812152
 11
838.2512188614874
 21
-132.9583837052808
  0
LINE
  5
1E2
100
AcDbEntity
  8
0
  6
ByLayer
 62
    1
370
   -1
100
AcDbLine
 10
785.3757043244311
 20
-146.0413798041541
 11
807.4939539627833
 21
-98.61573755633879
  0
LINE
  5
1E3
100
AcDbEntity
  8
0
  6
ByLayer
 62
    1
370
   -1
100
AcDbLine
 10
807.4939539627833
 20
-98.61573755633879
 11
838.2512188614874
 21
-106.8741775934028
  0
LINE
  5
1E4
100
AcDbEntity
  8
0
  6
ByLayer
 62
    1
370
   -1
100
AcDbLine
 10
785.3757043244311
 20
-146.0413798041541
 11
780.8491788170475
 21
-81.94989364278985
  0
LINE
  5
1E5
100
AcDbEntity
  8
0
  6
ByLayer
 62
    1
370
   -1
100
AcDbLine
 10
780.8491788170475
 20
-81.94989364278985
 11
734.5551679460782
 21
-86.57929472988678
  0
LINE
  5
1E6
100
AcDbEntity
  8
0
  6
ByLayer
 62
    1
370
   -1
100
AcDbLine
 10
734.5551679460782
 20
-86.57929472988678
 11
718.8063744587951
 21
-49.88400898453955
  0
LINE
  5
1E7
100
AcDbEntity
  8
0
  6
ByLayer
 62
    1
370
   -1
100
AcDbLine
 10
734.5551679460782
 20
-86.57929472988678
 11
687.7999675750743
 21
-121.9626076145337
  0
LINE
  5
1E8
100
AcDbEntity
  8
0
  6
ByLayer
 62
    1
370
   -1
100
AcDbLine
 10
734.5551679460782
 20
-86.57929472988678
 11
743.4024678014191
 21
-127.1122731369132
  0
LINE
  5
1E9
100
AcDbEntity
  8
0
  6
ByLayer
 62
    1
370
   -1
100
AcDbLine
 10
743.4024678014191
 20
-127.1122731369132
 11
785.3757043244311
 21
-146.0413798041541
  0
LINE
  5
1EA
100
AcDbEntity
  8
0
  6
ByLayer
 62
    1
370
   -1
100
AcDbLine
 10
743.4024678014191
 20
-127.1122731369132
 11
691.8754154790329
 21
-156.9273127618806
  0
LINE
  5
1EB
100
AcDbEntity
  8
0
  6
ByLayer
 62
    1
370
   -1
100
AcDbLine
 10
743.4024678014191
 20
-127.1122731369132
 11
701.7169981419977
 21
-191.2398577219476
  0
LINE
  5
1EC
100
AcDbEntity
  8
0
  6
ByLayer
 62
    1
370
   -1
100
AcDbLine
 10
701.7169981419977
 20
-191.2398577219476
 11
733.0120342503792
 21
-177.2126804572734
  0
LINE
  5
1ED
100
AcDbEntity
  8
0
  6
ByLayer
 62
    1
370
   -1
100
AcDbLine
 10
733.0120342503792
 20
-177.2126804572734
 11
743.4024678014191
 21
-127.1122731369132
  0
LINE
  5
1EE
100
AcDbEntity
  8
0
  6
ByLayer
 62
    1
370
   -1
100
AcDbLine
 10
733.0120342503792
 20
-177.2126804572734
 11
785.3757043244311
 21
-146.0413798041541
  0
LINE
  5
1EF
100
AcDbEntity
  8
0
  6
ByLayer
 62
    1
370
   -1
100
AcDbLine
 10
733.0120342503792
 20
-177.2126804572734
 11
726.5869435200307
 21
-227.0153406454282
  0
LINE
  5
1F0
100
AcDbEntity
  8
0
  6
ByLayer
 62
    1
370
   -1
100
AcDbLine
 10
726.5869435200307
 20
-227.0153406454282
 11
733.0120342503792
 21
-177.2126804572734
  0
LINE
  5
1F1
100
AcDbEntity
  8
0
  6
ByLayer
 62
    1
370
   -1
100
AcDbLine
 10
733.0120342503792
 20
-177.2126804572734
 11
771.6932522225668
 21
-217.4370321251603
  0
LINE
  5
1F2
100
AcDbEntity
  8
0
  6
ByLayer
 62
    1
370
   -1
100
AcDbLine
 10
718.8063744587951
 20
-49.88400898453955
 11
690.4215442490877
 21
-85.55053893275362
  0
LINE
  5
1F3
100
AcDbEntity
  8
0
  6
ByLayer
 62
    1
370
   -1
100
AcDbLine
 10
690.4215442490877
 20
-85.55053893275362
 11
700.0918487421345
 21
-94.08921204895461
  0
LINE
  5
1F4
100
AcDbEntity
  8
0
  6
ByLayer
 62
    1
370
   -1
100
AcDbLine
 10
718.8063744587951
 20
-49.88400898453955
 11
758.2207691788983
 21
-62.30878508835218
  0
LINE
  5
1F5
100
AcDbEntity
  8
0
  6
ByLayer
 62
    1
370
   -1
100
AcDbLine
 10
758.2207691788983
 20
-62.30878508835218
 11
796.3528373065767
 21
-68.39120086331928
  0
LINE
  5
1F6
100
AcDbEntity
  8
0
  6
ByLayer
 62
    1
370
   -1
100
AcDbLine
 10
796.3528373065767
 20
-68.39120086331928
 11
807.4939539627833
 21
-98.61573755633879
  0
LINE
  5
1F7
100
AcDbEntity
  8
0
  6
ByLayer
 62
    1
370
   -1
100
AcDbLine
 10
807.4939539627833
 20
-98.61573755633879
 11
794.9492028969689
 21
-85.81966144928276
  0
LINE
  5
1F8
100
AcDbEntity
  8
0
  6
ByLayer
 62
    1
370
   -1
100
AcDbLine
 10
794.9492028969689
 20
-85.81966144928276
 11
780.8491788170475
 21
-81.94989364278985
  0
LINE
  5
1F9
100
AcDbEntity
  8
0
  6
ByLayer
 62
    1
370
   -1
100
AcDbLine
 10
780.8491788170475
 20
-81.94989364278985
 11
758.2207691788983
 21
-62.30878508835218
  0
LINE
  5
1FA
100
AcDbEntity
  8
0
  6
ByLayer
 62
    1
370
   -1
100
AcDbLine
 10
758.2207691788983
 20
-62.30878508835218
 11
777.2868032427375
 21
10.09535654058328
  0
LINE
  5
1FB
100
AcDbEntity
  8
0
  6
ByLayer
 62
    1
370
   -1
100
AcDbLine
 10
777.2868032427375
 20
10.09535654058328
 11
818.5770487920336
 21
-32.01367574765061
  0
LINE
  5
1FC
100
AcDbEntity
  8
0
  6
ByLayer
 62
    1
370
   -1
100
AcDbLine
 10
818.5770487920336
 20
-32.01367574765061
 11
838.2512188614874
 21
-40.69024185064461
  0
LINE
  5
1FD
100
AcDbEntity
  8
0
  6
ByLayer
 62
    1
370
   -1
100
AcDbLine
 10
818.5770487920336
 20
-32.01367574765061
 11
811.6212322199326
 21
23.77726069622855
  0
LINE
  5
1FE
100
AcDbEntity
  8
0
  6
ByLayer
 62
    1
370
   -1
100
AcDbLine
 10
818.5770487920336
 20
-32.01367574765061
 11
796.3528373065767
 21
-68.39120086331928
  0
LINE
  5
1FF
100
AcDbEntity
  8
0
  6
ByLayer
 62
    1
370
   -1
100
AcDbLine
 10
966.8871387054908
 20
43.53741698857294
 11
948.3268792081665
 21
90.6074892870709
  0
LINE
  5
200
100
AcDbEntity
  8
0
  6
ByLayer
 62
    1
370
   -1
100
AcDbLine
 10
948.3268792081665
 20
90.6074892870709
 11
925.4566520799622
 21
89.98418815441772
  0
LINE
  5
201
100
AcDbEntity
  8
0
  6
ByLayer
 62
    1
370
   -1
100
AcDbLine
 10
925.4566520799622
 20
89.98418815441772
 11
902.5404006610024
 21
54.40342624838803
  0
LINE
  5
202
100
AcDbEntity
  8
0
  6
ByLayer
 62
    1
370
   -1
100
AcDbLine
 10
902.5404006610024
 20
54.40342624838803
 11
865.5822758878946
 21
23.74173869846226
  0
LINE
  5
203
100
AcDbEntity
  8
0
  6
ByLayer
 62
    1
370
   -1
100
AcDbLine
 10
865.5822758878946
 20
23.74173869846226
 11
929.2558173069485
 21
-2.151851374378793
  0
LINE
  5
204
100
AcDbEntity
  8
0
  6
ByLayer
 62
    1
370
   -1
100
AcDbLine
 10
929.2558173069485
 20
-2.151851374378793
 11
902.5404006610024
 21
54.40342624838803
  0
LINE
  5
205
100
AcDbEntity
  8
0
  6
ByLayer
 62
    1
370
   -1
100
AcDbLine
 10
865.5822758878946
 20
23.74173869846226
 11
838.8522107750537
 21
29.41577145367739
  0
LINE
  5
206
100
AcDbEntity
  8
0
  6
ByLayer
 62
    1
370
   -1
100
AcDbLine
 10
948.3268792081665
 20
90.6074892870709
 11
929.2558173069485
 21
-2.151851374378793
  0
LINE
  5
207
100
AcDbEntity
  8
0
  6
ByLayer
 62
    1
370
   -1
100
AcDbLine
 10
929.2558173069485
 20
-2.151851374378793
 11
959.0642508321307
 21
-5.971124235272498
  0
LINE
  5
208
100
AcDbEntity
  8
0
  6
ByLayer
 62
    1
370
   -1
100
AcDbLine
 10
959.0642508321307
 20
-5.971124235272498
 11
966.9139847941824
 21
3.727020710014983
  0
LINE
  5
209
100
AcDbEntity
  8
0
  6
ByLayer
 62
    1
370
   -1
100
AcDbLine
 10
966.9139847941824
 20
3.727020710014983
 11
966.8871387054908
 21
43.53741698857294
  0
LINE
  5
20A
100
AcDbEntity
  8
0
  6
ByLayer
 62
    1
370
   -1
100
AcDbLine
 10
959.0642508321307
 20
-5.971124235272498
 11
967.3618425764448
 21
-11.47962154690094
  0
LINE
  5
20B
100
AcDbEntity
  8
0
  6
ByLayer
 62
    1
370
   -1
100
AcDbLine
 10
967.3618425764448
 20
-11.47962154690094
 11
958.3000723431355
 21
-50.04166521249584
  0
LINE
  5
20C
100
AcDbEntity
  8
0
  6
ByLayer
 62
    1
370
   -1
100
AcDbLine
 10
958.3000723431355
 20
-50.04166521249584
 11
929.2558173069485
 21
-2.151851374378793
  0
LINE
  5
20D
100
AcDbEntity
  8
0
  6
ByLayer
 62
    1
370
   -1
100
AcDbLine
 10
958.3000723431355
 20
-50.04166521249584
 11
989.2115552008513
 21
-122.1610237498523
  0
LINE
  5
20E
100
AcDbEntity
  8
0
  6
ByLayer
 62
    1
370
   -1
100
AcDbLine
 10
989.2115552008513
 20
-122.1610237498523
 11
985.0900770403882
 21
-157.1203329454245
  0
LINE
  5
20F
100
AcDbEntity
  8
0
  6
ByLayer
 62
    1
370
   -1
100
AcDbLine
 10
985.0900770403882
 20
-157.1203329454245
 11
992.2428751767743
 21
-179.0738386457236
  0
LINE
  5
210
100
AcDbEntity
  8
0
  6
ByLayer
 62
    1
370
   -1
100
AcDbLine
 10
992.2428751767743
 20
-179.0738386457236
 11
975.2033277386313
 21
-191.4198909483025
  0
LINE
  5
211
100
AcDbEntity
  8
0
  6
ByLayer
 62
    1
370
   -1
100
AcDbLine
 10
975.2033277386313
 20
-191.4198909483025
 11
956.928310633657
 21
-233.0231012829082
  0
LINE
  5
212
100
AcDbEntity
  8
0
  6
ByLayer
 62
    1
370
   -1
100
AcDbLine
 10
956.928310633657
 20
-233.0231012829082
 11
950.28630267367
 21
-227.1625996233134
  0
LINE
  5
213
100
AcDbEntity
  8
0
  6
ByLayer
 62
    1
370
   -1
100
AcDbLine
 10
950.28630267367
 20
-227.1625996233134
 11
923.4917744959521
 21
-274.7393447416403
  0
LINE
  5
214
100
AcDbEntity
  8
0
  6
ByLayer
 62
    1
370
   -1
100
AcDbLine
 10
923.4917744959521
 20
-274.7393447416403
 11
915.2524348150046
 21
-269.940695871786
  0
LINE
  5
215
100
AcDbEntity
  8
0
  6
ByLayer
 62
    1
370
   -1
100
AcDbLine
 10
915.2524348150046
 20
-269.940695871786
 11
891.5292061995178
 21
-308.0788768355818
  0
LINE
  5
216
100
AcDbEntity
  8
0
  6
ByLayer
 62
    1
370
   -1
100
AcDbLine
 10
891.5292061995178
 20
-308.0788768355818
 11
875.5677956234435
 21
-309.6537960698965
  0
LINE
  5
217
100
AcDbEntity
  8
0
  6
ByLayer
 62
    1
370
   -1
100
AcDbLine
 10
875.5677956234435
 20
-309.6537960698965
 11
838.3587444771802
 21
-345.3934535837482
  0
LINE
  5
218
100
AcDbEntity
  8
0
  6
ByLayer
 62
    1
370
   -1
100
AcDbLine
 10
838.4969137353023
 20
-240.4478619921678
 11
859.1817005061962
 21
-236.9078377294788
  0
LINE
  5
219
100
AcDbEntity
  8
0
  6
ByLayer
 62
    1
370
   -1
100
AcDbLine
 10
859.1817005061962
 20
-236.9078377294788
 11
875.4518749385597
 21
-224.8928054560319
  0
LINE
  5
21A
100
AcDbEntity
  8
0
  6
ByLayer
 62
    1
370
   -1
100
AcDbLine
 10
875.4518749385597
 20
-224.8928054560319
 11
876.8053741284916
 21
-212.6523828498039
  0
LINE
  5
21B
100
AcDbEntity
  8
0
  6
ByLayer
 62
    1
370
   -1
100
AcDbLine
 10
876.8053741284916
 20
-212.6523828498039
 11
864.3466042673251
 21
-220.8660333935992
  0
LINE
  5
21C
100
AcDbEntity
  8
0
  6
ByLayer
 62
    1
370
   -1
100
AcDbLine
 10
864.3466042673251
 20
-220.8660333935992
 11
855.8107828714067
 21
-218.6944062562194
  0
LINE
  5
21D
100
AcDbEntity
  8
0
  6
ByLayer
 62
    1
370
   -1
100
AcDbLine
 10
855.8107828714067
 20
-218.6944062562194
 11
838.5304093347629
 21
-216.6141418859948
  0
LINE
  5
21E
100
AcDbEntity
  8
0
  6
ByLayer
 62
    1
370
   -1
100
AcDbLine
 10
838.7459575036542
 20
-132.9587093866195
 11
838.7802994157721
 21
-106.8745258816676
  0
LINE
  5
21F
100
AcDbEntity
  8
0
  6
ByLayer
 62
    1
370
   -1
100
AcDbLine
 10
838.8674357807872
 20
-40.69064749987854
 11
838.9597362975546
 21
29.41562988773399
  0
LINE
  5
220
100
AcDbEntity
  8
0
  6
ByLayer
 62
    1
370
   -1
100
AcDbLine
 10
860.6074348413304
 20
-219.9110963867546
 11
850.8122622183682
 21
-225.3094883419779
  0
LINE
  5
221
100
AcDbEntity
  8
0
  6
ByLayer
 62
    1
370
   -1
100
AcDbLine
 10
850.8122622183682
 20
-225.3094883419779
 11
838.4778346510639
 21
-225.213671316449
  0
LINE
  5
222
100
AcDbEntity
  8
0
  6
ByLayer
 62
    1
370
   -1
100
AcDbLine
 10
853.899759852836
 20
-237.4889514655822
 11
838.4473611281092
 21
-278.0852333400237
  0
LINE
  5
223
100
AcDbEntity
  8
0
  6
ByLayer
 62
    1
370
   -1
100
AcDbLine
 10
838.4473611281092
 20
-278.0852333400237
 11
875.5677956234435
 21
-309.6537960698965
  0
LINE
  5
224
100
AcDbEntity
  8
0
  6
ByLayer
 62
    1
370
   -1
100
AcDbLine
 10
875.5677956234435
 20
-309.6537960698965
 11
905.1926436620242
 21
-217.5249133958356
  0
LINE
  5
225
100
AcDbEntity
  8
0
  6
ByLayer
 62
    1
370
   -1
100
AcDbLine
 10
905.1926436620242
 20
-217.5249133958356
 11
915.2524348150046
 21
-269.940695871786
  0
LINE
  5
226
100
AcDbEntity
  8
0
  6
ByLayer
 62
    1
370
   -1
100
AcDbLine
 10
905.1926436620242
 20
-217.5249133958356
 11
876.0117467974301
 21
-219.5962457681095
  0
LINE
  5
227
100
AcDbEntity
  8
0
  6
ByLayer
 62
    1
370
   -1
100
AcDbLine
 10
905.1926436620242
 20
-217.5249133958356
 11
894.893090637237
 21
-185.2728231755672
  0
LINE
  5
228
100
AcDbEntity
  8
0
  6
ByLayer
 62
    1
370
   -1
100
AcDbLine
 10
894.893090637237
 20
-185.2728231755672
 11
886.1245095153129
 21
-206.2518950431535
  0
LINE
  5
229
100
AcDbEntity
  8
0
  6
ByLayer
 62
    1
370
   -1
100
AcDbLine
 10
886.1245095153129
 20
-206.2518950431535
 11
856.4848577422333
 21
-198.0090506131544
  0
LINE
  5
22A
100
AcDbEntity
  8
0
  6
ByLayer
 62
    1
370
   -1
100
AcDbLine
 10
886.1245095153129
 20
-206.2518950431535
 11
876.8053741284916
 21
-212.6523828498039
  0
LINE
  5
22B
100
AcDbEntity
  8
0
  6
ByLayer
 62
    1
370
   -1
100
AcDbLine
 10
894.893090637237
 20
-185.2728231755672
 11
898.2506106073322
 21
-176.8798844490749
  0
LINE
  5
22C
100
AcDbEntity
  8
0
  6
ByLayer
 62
    1
370
   -1
100
AcDbLine
 10
898.2506106073322
 20
-176.8798844490749
 11
891.6042014190482
 21
-146.1113089267211
  0
LINE
  5
22D
100
AcDbEntity
  8
0
  6
ByLayer
 62
    1
370
   -1
100
AcDbLine
 10
891.6042014190482
 20
-146.1113089267211
 11
870.1952638798568
 21
-154.3131758595104
  0
LINE
  5
22E
100
AcDbEntity
  8
0
  6
ByLayer
 62
    1
370
   -1
100
AcDbLine
 10
870.1952638798568
 20
-154.3131758595104
 11
859.4184489110667
 21
-168.9688586470642
  0
LINE
  5
22F
100
AcDbEntity
  8
0
  6
ByLayer
 62
    1
370
   -1
100
AcDbLine
 10
870.1952638798568
 20
-154.3131758595104
 11
838.7459575036542
 21
-132.9587093866195
  0
LINE
  5
230
100
AcDbEntity
  8
0
  6
ByLayer
 62
    1
370
   -1
100
AcDbLine
 10
891.6042014190482
 20
-146.1113089267211
 11
869.5484105443195
 21
-98.65658736424166
  0
LINE
  5
231
100
AcDbEntity
  8
0
  6
ByLayer
 62
    1
370
   -1
100
AcDbLine
 10
869.5484105443195
 20
-98.65658736424166
 11
838.7802994157721
 21
-106.8745258816676
  0
LINE
  5
232
100
AcDbEntity
  8
0
  6
ByLayer
 62
    1
370
   -1
100
AcDbLine
 10
891.6042014190482
 20
-146.1113089267211
 11
896.2151044936459
 21
-82.02583784022607
  0
LINE
  5
233
100
AcDbEntity
  8
0
  6
ByLayer
 62
    1
370
   -1
100
AcDbLine
 10
896.2151044936459
 20
-82.02583784022607
 11
942.5029802708391
 21
-86.71618462716799
  0
LINE
  5
234
100
AcDbEntity
  8
0
  6
ByLayer
 62
    1
370
   -1
100
AcDbLine
 10
942.5029802708391
 20
-86.71618462716799
 11
958.3000723431355
 21
-50.04166521249584
  0
LINE
  5
235
100
AcDbEntity
  8
0
  6
ByLayer
 62
    1
370
   -1
100
AcDbLine
 10
942.5029802708391
 20
-86.71618462716799
 11
989.2115552008513
 21
-122.1610237498523
  0
LINE
  5
236
100
AcDbEntity
  8
0
  6
ByLayer
 62
    1
370
   -1
100
AcDbLine
 10
942.5029802708391
 20
-86.71618462716799
 11
933.6023232243265
 21
-127.2374797374572
  0
LINE
  5
237
100
AcDbEntity
  8
0
  6
ByLayer
 62
    1
370
   -1
100
AcDbLine
 10
933.6023232243265
 20
-127.2374797374572
 11
891.6042014190482
 21
-146.1113089267211
  0
LINE
  5
238
100
AcDbEntity
  8
0
  6
ByLayer
 62
    1
370
   -1
100
AcDbLine
 10
933.6023232243265
 20
-127.2374797374572
 11
985.0900770403882
 21
-157.1203329454245
  0
LINE
  5
239
100
AcDbEntity
  8
0
  6
ByLayer
 62
    1
370
   -1
100
AcDbLine
 10
933.6023232243265
 20
-127.2374797374572
 11
975.2033277386313
 21
-191.4198909483025
  0
LINE
  5
23A
100
AcDbEntity
  8
0
  6
ByLayer
 62
    1
370
   -1
100
AcDbLine
 10
975.2033277386313
 20
-191.4198909483025
 11
943.9267866372047
 21
-177.3515234605564
  0
LINE
  5
23B
100
AcDbEntity
  8
0
  6
ByLayer
 62
    1
370
   -1
100
AcDbLine
 10
943.9267866372047
 20
-177.3515234605564
 11
933.6023232243265
 21
-127.2374797374572
  0
LINE
  5
23C
100
AcDbEntity
  8
0
  6
ByLayer
 62
    1
370
   -1
100
AcDbLine
 10
943.9267866372047
 20
-177.3515234605564
 11
891.6042014190482
 21
-146.1113089267211
  0
LINE
  5
23D
100
AcDbEntity
  8
0
  6
ByLayer
 62
    1
370
   -1
100
AcDbLine
 10
943.9267866372047
 20
-177.3515234605564
 11
950.28630267367
 21
-227.1625996233134
  0
LINE
  5
23E
100
AcDbEntity
  8
0
  6
ByLayer
 62
    1
370
   -1
100
AcDbLine
 10
950.28630267367
 20
-227.1625996233134
 11
943.9267866372047
 21
-177.3515234605564
  0
LINE
  5
23F
100
AcDbEntity
  8
0
  6
ByLayer
 62
    1
370
   -1
100
AcDbLine
 10
943.9267866372047
 20
-177.3515234605564
 11
905.1926436620242
 21
-217.5249133958356
  0
LINE
  5
240
100
AcDbEntity
  8
0
  6
ByLayer
 62
    1
370
   -1
100
AcDbLine
 10
958.3000723431355
 20
-50.04166521249584
 11
986.6379201556967
 21
-85.74553511385079
  0
LINE
  5
241
100
AcDbEntity
  8
0
  6
ByLayer
 62
    1
370
   -1
100
AcDbLine
 10
986.6379201556967
 20
-85.74553511385079
 11
976.9563822080204
 21
-94.27146911202846
  0
LINE
  5
242
100
AcDbEntity
  8
0
  6
ByLayer
 62
    1
370
   -1
100
AcDbLine
 10
958.3000723431355
 20
-50.04166521249584
 11
918.8693535866055
 21
-62.4145383923763
  0
LINE
  5
243
100
AcDbEntity
  8
0
  6
ByLayer
 62
    1
370
   -1
100
AcDbLine
 10
918.8693535866055
 20
-62.4145383923763
 11
880.7293105281099
 21
-68.44674502424647
  0
LINE
  5
244
100
AcDbEntity
  8
0
  6
ByLayer
 62
    1
370
   -1
100
AcDbLine
 10
880.7293105281099
 20
-68.44674502424647
 11
869.5484105443195
 21
-98.65658736424166
  0
LINE
  5
245
100
AcDbEntity
  8
0
  6
ByLayer
 62
    1
370
   -1
100
AcDbLine
 10
869.5484105443195
 20
-98.65658736424166
 11
882.1099977799208
 21
-85.87703850040486
  0
LINE
  5
246
100
AcDbEntity
  8
0
  6
ByLayer
 62
    1
370
   -1
100
AcDbLine
 10
882.1099977799208
 20
-85.87703850040486
 11
896.2151044936459
 21
-82.02583784022607
  0
LINE
  5
247
100
AcDbEntity
  8
0
  6
ByLayer
 62
    1
370
   -1
100
AcDbLine
 10
896.2151044936459
 20
-82.02583784022607
 11
918.8693535866055
 21
-62.4145383923763
  0
LINE
  5
248
100
AcDbEntity
  8
0
  6
ByLayer
 62
    1
370
   -1
100
AcDbLine
 10
918.8693535866055
 20
-62.4145383923763
 11
899.8986618031695
 21
10.01464242036167
  0
LINE
  5
249
100
AcDbEntity
  8
0
  6
ByLayer
 62
    1
370
   -1
100
AcDbLine
 10
899.8986618031695
 20
10.01464242036167
 11
858.5530121815978
 21
-32.03999151149992
  0
LINE
  5
24A
100
AcDbEntity
  8
0
  6
ByLayer
 62
    1
370
   -1
100
AcDbLine
 10
858.5530121815978
 20
-32.03999151149992
 11
838.8674357807872
 21
-40.69064749987854
  0
LINE
  5
24B
100
AcDbEntity
  8
0
  6
ByLayer
 62
    1
370
   -1
100
AcDbLine
 10
858.5530121815978
 20
-32.03999151149992
 11
865.5822758878946
 21
23.74173869846226
  0
LINE
  5
24C
100
AcDbEntity
  8
0
  6
ByLayer
 62
    1
370
   -1
100
AcDbLine
 10
858.5530121815978
 20
-32.03999151149992
 11
880.7293105281099
 21
-68.44674502424647
  0
LINE
  5
24D
100
AcDbEntity
  8
0
  6
ByLayer
 62
    1
370
   -1
100
AcDbLine
 10
812.4644640520937
 20
-180.9751037037278
 11
817.531335172536
 21
-168.9412847926775
  0
LINE
  5
24E
100
AcDbEntity
  8
0
  6
ByLayer
 62
    1
370
   -1
100
AcDbLine
 10
820.4266900985031
 20
-197.9853138937838
 11
812.4644640520937
 21
-180.9751037037278
  0
LINE
  5
24F
100
AcDbEntity
  8
0
  6
ByLayer
 62
    1
370
   -1
100
AcDbLine
 10
838.4493094457123
 20
-207.8172886983634
 11
820.4266900985031
 21
-197.9853138937838
  0
LINE
  5
250
100
AcDbEntity
  8
0
  6
ByLayer
 62
    1
370
   -1
100
AcDbLine
 10
838.4493094457123
 20
-207.8172886983634
 11
856.4848577422333
 21
-198.0090506131544
  0
LINE
  5
251
100
AcDbEntity
  8
0
  6
ByLayer
 62
    1
370
   -1
100
AcDbLine
 10
856.4848577422333
 20
-198.0090506131544
 11
864.469472169546
 21
-181.0093380634918
  0
LINE
  5
252
100
AcDbEntity
  8
0
  6
ByLayer
 62
    1
370
   -1
100
AcDbLine
 10
864.469472169546
 20
-181.0093380634918
 11
859.4184489110667
 21
-168.9688586470642
  0
LINE
  5
253
100
AcDbEntity
  8
0
  6
ByLayer
 62
    1
370
   -1
100
AcDbLine
 10
817.531335172536
 20
-168.9412847926775
 11
838.2512188614874
 21
-165.3220911352188
  0
LINE
  5
254
100
AcDbEntity
  8
0
  6
ByLayer
 62
    1
370
   -1
100
AcDbLine
 10
859.4184489110667
 20
-168.9688586470642
 11
838.2512188614874
 21
-165.3220911352188
  0
LINE
  5
255
100
AcDbEntity
  8
0
  6
ByLayer
 62
  256
370
   -1
100
AcDbLine
 10
359.4505139383272
 20
43.70629766176313
 11
378.0727288077611
 21
90.75189312138565
  0
LINE
  5
256
100
AcDbEntity
  8
0
  6
ByLayer
 62
  256
370
   -1
100
AcDbLine
 10
378.0727288077611
 20
90.75189312138565
 11
400.9421154895221
 21
90.09848207333533
  0
LINE
  5
257
100
AcDbEntity
  8
0
  6
ByLayer
 62
  256
370
   -1
100
AcDbLine
 10
400.9421154895221
 20
90.09848207333533
 11
423.8115021712832
 21
54.48757995459329
  0
LINE
  5
258
100
AcDbEntity
  8
0
  6
ByLayer
 62
  256
370
   -1
100
AcDbLine
 10
423.8115021712832
 20
54.48757995459329
 11
460.7292263861258
 21
23.77726069622855
  0
LINE
  5
259
100
AcDbEntity
  8
0
  6
ByLayer
 62
  256
370
   -1
100
AcDbLine
 10
460.7292263861258
 20
23.77726069622855
 11
397.0216492012204
 21
-2.032475701758813
  0
LINE
  5
25A
100
AcDbEntity
  8
0
  6
ByLayer
 62
  256
370
   -1
100
AcDbLine
 10
397.0216492012204
 20
-2.032475701758813
 11
423.8115021712832
 21
54.48757995459329
  0
LINE
  5
25B
100
AcDbEntity
  8
0
  6
ByLayer
 62
  256
370
   -1
100
AcDbLine
 10
460.7292263861258
 20
23.77726069622855
 11
487.4667386433729
 21
29.41609629744494
  0
LINE
  5
25C
100
AcDbEntity
  8
0
  6
ByLayer
 62
  256
370
   -1
100
AcDbLine
 10
378.0727288077611
 20
90.75189312138565
 11
397.0216492012204
 21
-2.032475701758813
  0
LINE
  5
25D
100
AcDbEntity
  8
0
  6
ByLayer
 62
  256
370
   -1
100
AcDbLine
 10
397.0216492012204
 20
-2.032475701758813
 11
367.2082131371327
 21
-5.812500101644162
  0
LINE
  5
25E
100
AcDbEntity
  8
0
  6
ByLayer
 62
  256
370
   -1
100
AcDbLine
 10
367.2082131371327
 20
-5.812500101644162
 11
359.3712543501559
 21
3.895971231476267
  0
LINE
  5
25F
100
AcDbEntity
  8
0
  6
ByLayer
 62
  256
370
   -1
100
AcDbLine
 10
359.3712543501559
 20
3.895971231476267
 11
359.4505139383272
 21
43.70629766176313
  0
LINE
  5
260
100
AcDbEntity
  8
0
  6
ByLayer
 62
  256
370
   -1
100
AcDbLine
 10
367.2082131371327
 20
-5.812500101644162
 11
358.9033762136202
 21
-11.31006820594132
  0
LINE
  5
261
100
AcDbEntity
  8
0
  6
ByLayer
 62
  256
370
   -1
100
AcDbLine
 10
358.9033762136202
 20
-11.31006820594132
 11
367.9143686249882
 21
-49.88400898453955
  0
LINE
  5
262
100
AcDbEntity
  8
0
  6
ByLayer
 62
  256
370
   -1
100
AcDbLine
 10
367.9143686249882
 20
-49.88400898453955
 11
397.0216492012204
 21
-2.032475701758813
  0
LINE
  5
263
100
AcDbEntity
  8
0
  6
ByLayer
 62
  256
370
   -1
100
AcDbLine
 10
367.9143686249882
 20
-49.88400898453955
 11
336.9079617412675
 21
-121.9626076145337
  0
LINE
  5
264
100
AcDbEntity
  8
0
  6
ByLayer
 62
  256
370
   -1
100
AcDbLine
 10
336.9079617412675
 20
-121.9626076145337
 11
340.9834096452261
 21
-156.9273127618806
  0
LINE
  5
265
100
AcDbEntity
  8
0
  6
ByLayer
 62
  256
370
   -1
100
AcDbLine
 10
340.9834096452261
 20
-156.9273127618806
 11
333.8017141884678
 21
-178.8713822130862
  0
LINE
  5
266
100
AcDbEntity
  8
0
  6
ByLayer
 62
  256
370
   -1
100
AcDbLine
 10
333.8017141884678
 20
-178.8713822130862
 11
350.8249923081909
 21
-191.2398577219476
  0
LINE
  5
267
100
AcDbEntity
  8
0
  6
ByLayer
 62
  256
370
   -1
100
AcDbLine
 10
350.8249923081909
 20
-191.2398577219476
 11
369.0452196707071
 21
-232.867092499083
  0
LINE
  5
268
100
AcDbEntity
  8
0
  6
ByLayer
 62
  256
370
   -1
100
AcDbLine
 10
369.0452196707071
 20
-232.867092499083
 11
375.6949376862239
 21
-227.0153406454282
  0
LINE
  5
269
100
AcDbEntity
  8
0
  6
ByLayer
 62
  256
370
   -1
100
AcDbLine
 10
375.6949376862239
 20
-227.0153406454282
 11
402.4268041086017
 21
-274.6273216365288
  0
LINE
  5
26A
100
AcDbEntity
  8
0
  6
ByLayer
 62
  256
370
   -1
100
AcDbLine
 10
402.4268041086017
 20
-274.6273216365288
 11
410.6724544478426
 21
-269.8395246653567
  0
LINE
  5
26B
100
AcDbEntity
  8
0
  6
ByLayer
 62
  256
370
   -1
100
AcDbLine
 10
410.6724544478426
 20
-269.8395246653567
 11
434.3454505830827
 21
-308.0089060744234
  0
LINE
  5
26C
100
AcDbEntity
  8
0
  6
ByLayer
 62
  256
370
   -1
100
AcDbLine
 10
434.3454505830827
 20
-308.0089060744234
 11
450.304773820323
 21
-309.6048383981474
  0
LINE
  5
26D
100
AcDbEntity
  8
0
  6
ByLayer
 62
  256
370
   -1
100
AcDbLine
 10
450.304773820323
 20
-309.6048383981474
 11
487.4667386433733
 21
-345.3934535837482
  0
LINE
  5
26E
100
AcDbEntity
  8
0
  6
ByLayer
 62
  256
370
   -1
100
AcDbLine
 10
487.4667386433733
 20
-345.3934535837482
 11
487.4667386433733
 21
-278.0851750045975
  0
LINE
  5
26F
100
AcDbEntity
  8
0
  6
ByLayer
 62
  256
370
   -1
100
AcDbLine
 10
487.4667386433733
 20
-278.0851750045975
 11
487.4667386433733
 21
-240.4477710367722
  0
LINE
  5
270
100
AcDbEntity
  8
0
  6
ByLayer
 62
  256
370
   -1
100
AcDbLine
 10
487.4667386433733
 20
-240.4477710367722
 11
466.7866305205874
 21
-236.8805166909688
  0
LINE
  5
271
100
AcDbEntity
  8
0
  6
ByLayer
 62
  256
370
   -1
100
AcDbLine
 10
466.7866305205874
 20
-236.8805166909688
 11
450.5322889258917
 21
-224.8440738645168
  0
LINE
  5
272
100
AcDbEntity
  8
0
  6
ByLayer
 62
  256
370
   -1
100
AcDbLine
 10
450.5322889258917
 20
-224.8440738645168
 11
449.1949063896192
 21
-212.6018798786384
  0
LINE
  5
273
100
AcDbEntity
  8
0
  6
ByLayer
 62
  256
370
   -1
100
AcDbLine
 10
449.1949063896192
 20
-212.6018798786384
 11
461.6428515349243
 21
-220.8319262556995
  0
LINE
  5
274
100
AcDbEntity
  8
0
  6
ByLayer
 62
  256
370
   -1
100
AcDbLine
 10
461.6428515349243
 20
-220.8319262556995
 11
470.1815246511252
 21
-218.671539081721
  0
LINE
  5
275
100
AcDbEntity
  8
0
  6
ByLayer
 62
  256
370
   -1
100
AcDbLine
 10
470.1815246511252
 20
-218.671539081721
 11
487.4646220429535
 21
-216.6140274874557
  0
LINE
  5
276
100
AcDbEntity
  8
0
  6
ByLayer
 62
  256
370
   -1
100
AcDbLine
 10
487.4646220429535
 20
-216.6140274874557
 11
487.4646220429535
 21
-207.766727632115
  0
LINE
  5
277
100
AcDbEntity
  8
0
  6
ByLayer
 62
  256
370
   -1
100
AcDbLine
 10
487.3592130276805
 20
-165.3220911352188
 11
487.3592130276805
 21
-132.9583837052808
  0
LINE
  5
278
100
AcDbEntity
  8
0
  6
ByLayer
 62
  256
370
   -1
100
AcDbLine
 10
487.3592130276805
 20
-106.8741775934028
 11
487.3592130276805
 21
-40.69024185064461
  0
LINE
  5
279
100
AcDbEntity
  8
0
  6
ByLayer
 62
  256
370
   -1
100
AcDbLine
 10
465.3832749700115
 20
-219.8819129875901
 11
475.1713316953286
 21
-225.2931963804484
  0
LINE
  5
27A
100
AcDbEntity
  8
0
  6
ByLayer
 62
  256
370
   -1
100
AcDbLine
 10
475.1713316953286
 20
-225.2931963804484
 11
487.5058747231675
 21
-225.2136186834946
  0
LINE
  5
27B
100
AcDbEntity
  8
0
  6
ByLayer
 62
  256
370
   -1
100
AcDbLine
 10
472.0678015141308
 20
-237.4685840143793
 11
487.4667386433733
 21
-278.0851750045975
  0
LINE
  5
27C
100
AcDbEntity
  8
0
  6
ByLayer
 62
  256
370
   -1
100
AcDbLine
 10
487.4667386433733
 20
-278.0851750045975
 11
450.304773820323
 21
-309.6048383981474
  0
LINE
  5
27D
100
AcDbEntity
  8
0
  6
ByLayer
 62
  256
370
   -1
100
AcDbLine
 10
450.304773820323
 20
-309.6048383981474
 11
420.80124638876
 21
-217.4370321251603
  0
LINE
  5
27E
100
AcDbEntity
  8
0
  6
ByLayer
 62
  256
370
   -1
100
AcDbLine
 10
420.80124638876
 20
-217.4370321251603
 11
410.6724544478426
 21
-269.8395246653567
  0
LINE
  5
27F
100
AcDbEntity
  8
0
  6
ByLayer
 62
  256
370
   -1
100
AcDbLine
 10
420.80124638876
 20
-217.4370321251603
 11
449.9793908903197
 21
-219.546781651665
  0
LINE
  5
280
100
AcDbEntity
  8
0
  6
ByLayer
 62
  256
370
   -1
100
AcDbLine
 10
420.80124638876
 20
-217.4370321251603
 11
431.1432529044442
 21
-185.1985300303626
  0
LINE
  5
281
100
AcDbEntity
  8
0
  6
ByLayer
 62
  256
370
   -1
100
AcDbLine
 10
431.1432529044442
 20
-185.1985300303626
 11
439.8842058259942
 21
-206.1891282433807
  0
LINE
  5
282
100
AcDbEntity
  8
0
  6
ByLayer
 62
  256
370
   -1
100
AcDbLine
 10
439.8842058259942
 20
-206.1891282433807
 11
469.5346842646962
 21
-197.9853138937838
  0
LINE
  5
283
100
AcDbEntity
  8
0
  6
ByLayer
 62
  256
370
   -1
100
AcDbLine
 10
439.8842058259942
 20
-206.1891282433807
 11
449.1949063896192
 21
-212.6018798786384
  0
LINE
  5
284
100
AcDbEntity
  8
0
  6
ByLayer
 62
  256
370
   -1
100
AcDbLine
 10
431.1432529044442
 20
-185.1985300303626
 11
427.7967858092621
 21
-176.8011781384204
  0
LINE
  5
285
100
AcDbEntity
  8
0
  6
ByLayer
 62
  256
370
   -1
100
AcDbLine
 10
427.7967858092621
 20
-176.8011781384204
 11
434.4836984906243
 21
-146.0413798041541
  0
LINE
  5
286
100
AcDbEntity
  8
0
  6
ByLayer
 62
  256
370
   -1
100
AcDbLine
 10
434.4836984906243
 20
-146.0413798041541
 11
455.8818190709836
 21
-154.2714261812152
  0
LINE
  5
287
100
AcDbEntity
  8
0
  6
ByLayer
 62
  256
370
   -1
100
AcDbLine
 10
455.8818190709836
 20
-154.2714261812152
 11
466.6393293387292
 21
-168.9412847926775
  0
LINE
  5
288
100
AcDbEntity
  8
0
  6
ByLayer
 62
  256
370
   -1
100
AcDbLine
 10
455.8818190709836
 20
-154.2714261812152
 11
487.3592130276805
 21
-132.9583837052808
  0
LINE
  5
289
100
AcDbEntity
  8
0
  6
ByLayer
 62
  256
370
   -1
100
AcDbLine
 10
434.4836984906243
 20
-146.0413798041541
 11
456.6019481289765
 21
-98.61573755633879
  0
LINE
  5
28A
100
AcDbEntity
  8
0
  6
ByLayer
 62
  256
370
   -1
100
AcDbLine
 10
456.6019481289765
 20
-98.61573755633879
 11
487.3592130276805
 21
-106.8741775934028
  0
LINE
  5
28B
100
AcDbEntity
  8
0
  6
ByLayer
 62
  256
370
   -1
100
AcDbLine
 10
434.4836984906243
 20
-146.0413798041541
 11
429.9571729832406
 21
-81.94989364278985
  0
LINE
  5
28C
100
AcDbEntity
  8
0
  6
ByLayer
 62
  256
370
   -1
100
AcDbLine
 10
429.9571729832406
 20
-81.94989364278985
 11
383.6631621122714
 21
-86.57929472988678
  0
LINE
  5
28D
100
AcDbEntity
  8
0
  6
ByLayer
 62
  256
370
   -1
100
AcDbLine
 10
383.6631621122714
 20
-86.57929472988678
 11
367.9143686249882
 21
-49.88400898453955
  0
LINE
  5
28E
100
AcDbEntity
  8
0
  6
ByLayer
 62
  256
370
   -1
100
AcDbLine
 10
383.6631621122714
 20
-86.57929472988678
 11
336.9079617412675
 21
-121.9626076145337
  0
LINE
  5
28F
100
AcDbEntity
  8
0
  6
ByLayer
 62
  256
370
   -1
100
AcDbLine
 10
383.6631621122714
 20
-86.57929472988678
 11
392.5104619676123
 21
-127.1122731369132
  0
LINE
  5
290
100
AcDbEntity
  8
0
  6
ByLayer
 62
  256
370
   -1
100
AcDbLine
 10
392.5104619676123
 20
-127.1122731369132
 11
434.4836984906243
 21
-146.0413798041541
  0
LINE
  5
291
100
AcDbEntity
  8
0
  6
ByLayer
 62
  256
370
   -1
100
AcDbLine
 10
392.5104619676123
 20
-127.1122731369132
 11
340.9834096452261
 21
-156.9273127618806
  0
LINE
  5
292
100
AcDbEntity
  8
0
  6
ByLayer
 62
  256
370
   -1
100
AcDbLine
 10
392.5104619676123
 20
-127.1122731369132
 11
350.8249923081909
 21
-191.2398577219476
  0
LINE
  5
293
100
AcDbEntity
  8
0
  6
ByLayer
 62
  256
370
   -1
100
AcDbLine
 10
350.8249923081909
 20
-191.2398577219476
 11
382.1200284165724
 21
-177.2126804572734
  0
LINE
  5
294
100
AcDbEntity
  8
0
  6
ByLayer
 62
  256
370
   -1
100
AcDbLine
 10
382.1200284165724
 20
-177.2126804572734
 11
392.5104619676123
 21
-127.1122731369132
  0
LINE
  5
295
100
AcDbEntity
  8
0
  6
ByLayer
 62
  256
370
   -1
100
AcDbLine
 10
382.1200284165724
 20
-177.2126804572734
 11
434.4836984906243
 21
-146.0413798041541
  0
LINE
  5
296
100
AcDbEntity
  8
0
  6
ByLayer
 62
  256
370
   -1
100
AcDbLine
 10
382.1200284165724
 20
-177.2126804572734
 11
375.6949376862239
 21
-227.0153406454282
  0
LINE
  5
297
100
AcDbEntity
  8
0
  6
ByLayer
 62
  256
370
   -1
100
AcDbLine
 10
375.6949376862239
 20
-227.0153406454282
 11
382.1200284165724
 21
-177.2126804572734
  0
LINE
  5
298
100
AcDbEntity
  8
0
  6
ByLayer
 62
  256
370
   -1
100
AcDbLine
 10
382.1200284165724
 20
-177.2126804572734
 11
420.80124638876
 21
-217.4370321251603
  0
LINE
  5
299
100
AcDbEntity
  8
0
  6
ByLayer
 62
  256
370
   -1
100
AcDbLine
 10
367.9143686249882
 20
-49.88400898453955
 11
339.5295384152809
 21
-85.55053893275362
  0
LINE
  5
29A
100
AcDbEntity
  8
0
  6
ByLayer
 62
  256
370
   -1
100
AcDbLine
 10
339.5295384152809
 20
-85.55053893275362
 11
349.1998429083277
 21
-94.08921204895461
  0
LINE
  5
29B
100
AcDbEntity
  8
0
  6
ByLayer
 62
  256
370
   -1
100
AcDbLine
 10
367.9143686249882
 20
-49.88400898453955
 11
407.3287633450915
 21
-62.30878508835218
  0
LINE
  5
29C
100
AcDbEntity
  8
0
  6
ByLayer
 62
  256
370
   -1
100
AcDbLine
 10
407.3287633450915
 20
-62.30878508835218
 11
445.4608314727699
 21
-68.39120086331928
  0
LINE
  5
29D
100
AcDbEntity
  8
0
  6
ByLayer
 62
  256
370
   -1
100
AcDbLine
 10
445.4608314727699
 20
-68.39120086331928
 11
456.6019481289765
 21
-98.61573755633879
  0
LINE
  5
29E
100
AcDbEntity
  8
0
  6
ByLayer
 62
  256
370
   -1
100
AcDbLine
 10
456.6019481289765
 20
-98.61573755633879
 11
444.0571970631621
 21
-85.81966144928276
  0
LINE
  5
29F
100
AcDbEntity
  8
0
  6
ByLayer
 62
  256
370
   -1
100
AcDbLine
 10
444.0571970631621
 20
-85.81966144928276
 11
429.9571729832406
 21
-81.94989364278985
  0
LINE
  5
2A0
100
AcDbEntity
  8
0
  6
ByLayer
 62
  256
370
   -1
100
AcDbLine
 10
429.9571729832406
 20
-81.94989364278985
 11
407.3287633450915
 21
-62.30878508835218
  0
LINE
  5
2A1
100
AcDbEntity
  8
0
  6
ByLayer
 62
  256
370
   -1
100
AcDbLine
 10
407.3287633450915
 20
-62.30878508835218
 11
426.3947974089307
 21
10.09535654058328
  0
LINE
  5
2A2
100
AcDbEntity
  8
0
  6
ByLayer
 62
  256
370
   -1
100
AcDbLine
 10
426.3947974089307
 20
10.09535654058328
 11
467.6850429582267
 21
-32.01367574765061
  0
LINE
  5
2A3
100
AcDbEntity
  8
0
  6
ByLayer
 62
  256
370
   -1
100
AcDbLine
 10
467.6850429582267
 20
-32.01367574765061
 11
487.3592130276805
 21
-40.69024185064461
  0
LINE
  5
2A4
100
AcDbEntity
  8
0
  6
ByLayer
 62
  256
370
   -1
100
AcDbLine
 10
467.6850429582267
 20
-32.01367574765061
 11
460.7292263861258
 21
23.77726069622855
  0
LINE
  5
2A5
100
AcDbEntity
  8
0
  6
ByLayer
 62
  256
370
   -1
100
AcDbLine
 10
467.6850429582267
 20
-32.01367574765061
 11
445.4608314727699
 21
-68.39120086331928
  0
LINE
  5
2A6
100
AcDbEntity
  8
0
  6
ByLayer
 62
  256
370
   -1
100
AcDbLine
 10
615.9951328716839
 20
43.53741698857294
 11
597.4348733743597
 21
90.6074892870709
  0
LINE
  5
2A7
100
AcDbEntity
  8
0
  6
ByLayer
 62
  256
370
   -1
100
AcDbLine
 10
597.4348733743597
 20
90.6074892870709
 11
574.5646462461553
 21
89.98418815441772
  0
LINE
  5
2A8
100
AcDbEntity
  8
0
  6
ByLayer
 62
  256
370
   -1
100
AcDbLine
 10
574.5646462461553
 20
89.98418815441772
 11
551.6483948271956
 21
54.40342624838803
  0
LINE
  5
2A9
100
AcDbEntity
  8
0
  6
ByLayer
 62
  256
370
   -1
100
AcDbLine
 10
551.6483948271956
 20
54.40342624838803
 11
514.6902700540878
 21
23.74173869846226
  0
LINE
  5
2AA
100
AcDbEntity
  8
0
  6
ByLayer
 62
  256
370
   -1
100
AcDbLine
 10
514.6902700540878
 20
23.74173869846226
 11
578.3638114731417
 21
-2.151851374378793
  0
LINE
  5
2AB
100
AcDbEntity
  8
0
  6
ByLayer
 62
  256
370
   -1
100
AcDbLine
 10
578.3638114731417
 20
-2.151851374378793
 11
551.6483948271956
 21
54.40342624838803
  0
LINE
  5
2AC
100
AcDbEntity
  8
0
  6
ByLayer
 62
  256
370
   -1
100
AcDbLine
 10
514.6902700540878
 20
23.74173869846226
 11
487.9602049412468
 21
29.41577145367739
  0
LINE
  5
2AD
100
AcDbEntity
  8
0
  6
ByLayer
 62
  256
370
   -1
100
AcDbLine
 10
597.4348733743597
 20
90.6074892870709
 11
578.3638114731417
 21
-2.151851374378793
  0
LINE
  5
2AE
100
AcDbEntity
  8
0
  6
ByLayer
 62
  256
370
   -1
100
AcDbLine
 10
578.3638114731417
 20
-2.151851374378793
 11
608.1722449983239
 21
-5.971124235272498
  0
LINE
  5
2AF
100
AcDbEntity
  8
0
  6
ByLayer
 62
  256
370
   -1
100
AcDbLine
 10
608.1722449983239
 20
-5.971124235272498
 11
616.0219789603756
 21
3.727020710014983
  0
LINE
  5
2B0
100
AcDbEntity
  8
0
  6
ByLayer
 62
  256
370
   -1
100
AcDbLine
 10
616.0219789603756
 20
3.727020710014983
 11
615.9951328716839
 21
43.53741698857294
  0
LINE
  5
2B1
100
AcDbEntity
  8
0
  6
ByLayer
 62
  256
370
   -1
100
AcDbLine
 10
608.1722449983239
 20
-5.971124235272498
 11
616.469836742638
 21
-11.47962154690094
  0
LINE
  5
2B2
100
AcDbEntity
  8
0
  6
ByLayer
 62
  256
370
   -1
100
AcDbLine
 10
616.469836742638
 20
-11.47962154690094
 11
607.4080665093287
 21
-50.04166521249584
  0
LINE
  5
2B3
100
AcDbEntity
  8
0
  6
ByLayer
 62
  256
370
   -1
100
AcDbLine
 10
607.4080665093287
 20
-50.04166521249584
 11
578.3638114731417
 21
-2.151851374378793
  0
LINE
  5
2B4
100
AcDbEntity
  8
0
  6
ByLayer
 62
  256
370
   -1
100
AcDbLine
 10
607.4080665093287
 20
-50.04166521249584
 11
638.3195493670445
 21
-122.1610237498523
  0
LINE
  5
2B5
100
AcDbEntity
  8
0
  6
ByLayer
 62
  256
370
   -1
100
AcDbLine
 10
638.3195493670445
 20
-122.1610237498523
 11
634.1980712065814
 21
-157.1203329454245
  0
LINE
  5
2B6
100
AcDbEntity
  8
0
  6
ByLayer
 62
  256
370
   -1
100
AcDbLine
 10
634.1980712065814
 20
-157.1203329454245
 11
641.3508693429675
 21
-179.0738386457236
  0
LINE
  5
2B7
100
AcDbEntity
  8
0
  6
ByLayer
 62
  256
370
   -1
100
AcDbLine
 10
641.3508693429675
 20
-179.0738386457236
 11
624.3113219048245
 21
-191.4198909483025
  0
LINE
  5
2B8
100
AcDbEntity
  8
0
  6
ByLayer
 62
  256
370
   -1
100
AcDbLine
 10
624.3113219048245
 20
-191.4198909483025
 11
606.0363047998502
 21
-233.0231012829082
  0
LINE
  5
2B9
100
AcDbEntity
  8
0
  6
ByLayer
 62
  256
370
   -1
100
AcDbLine
 10
606.0363047998502
 20
-233.0231012829082
 11
599.3942968398632
 21
-227.1625996233134
  0
LINE
  5
2BA
100
AcDbEntity
  8
0
  6
ByLayer
 62
  256
370
   -1
100
AcDbLine
 10
599.3942968398632
 20
-227.1625996233134
 11
572.5997686621453
 21
-274.7393447416403
  0
LINE
  5
2BB
100
AcDbEntity
  8
0
  6
ByLayer
 62
  256
370
   -1
100
AcDbLine
 10
572.5997686621453
 20
-274.7393447416403
 11
564.3604289811977
 21
-269.940695871786
  0
LINE
  5
2BC
100
AcDbEntity
  8
0
  6
ByLayer
 62
  256
370
   -1
100
AcDbLine
 10
564.3604289811977
 20
-269.940695871786
 11
540.637200365711
 21
-308.0788768355818
  0
LINE
  5
2BD
100
AcDbEntity
  8
0
  6
ByLayer
 62
  256
370
   -1
100
AcDbLine
 10
540.637200365711
 20
-308.0788768355818
 11
524.6757897896367
 21
-309.6537960698965
  0
LINE
  5
2BE
100
AcDbEntity
  8
0
  6
ByLayer
 62
  256
370
   -1
100
AcDbLine
 10
524.6757897896367
 20
-309.6537960698965
 11
487.4667386433733
 21
-345.3934535837482
  0
LINE
  5
2BF
100
AcDbEntity
  8
0
  6
ByLayer
 62
  256
370
   -1
100
AcDbLine
 10
487.6049079014955
 20
-240.4478619921678
 11
508.2896946723894
 21
-236.9078377294788
  0
LINE
  5
2C0
100
AcDbEntity
  8
0
  6
ByLayer
 62
  256
370
   -1
100
AcDbLine
 10
508.2896946723894
 20
-236.9078377294788
 11
524.5598691047529
 21
-224.8928054560319
  0
LINE
  5
2C1
100
AcDbEntity
  8
0
  6
ByLayer
 62
  256
370
   -1
100
AcDbLine
 10
524.5598691047529
 20
-224.8928054560319
 11
525.9133682946848
 21
-212.6523828498039
  0
LINE
  5
2C2
100
AcDbEntity
  8
0
  6
ByLayer
 62
  256
370
   -1
100
AcDbLine
 10
525.9133682946848
 20
-212.6523828498039
 11
513.4545984335183
 21
-220.8660333935992
  0
LINE
  5
2C3
100
AcDbEntity
  8
0
  6
ByLayer
 62
  256
370
   -1
100
AcDbLine
 10
513.4545984335183
 20
-220.8660333935992
 11
504.9187770375999
 21
-218.6944062562194
  0
LINE
  5
2C4
100
AcDbEntity
  8
0
  6
ByLayer
 62
  256
370
   -1
100
AcDbLine
 10
504.9187770375999
 20
-218.6944062562194
 11
487.6384035009561
 21
-216.6141418859948
  0
LINE
  5
2C5
100
AcDbEntity
  8
0
  6
ByLayer
 62
  256
370
   -1
100
AcDbLine
 10
487.8539516698473
 20
-132.9587093866195
 11
487.8882935819653
 21
-106.8745258816676
  0
LINE
  5
2C6
100
AcDbEntity
  8
0
  6
ByLayer
 62
  256
370
   -1
100
AcDbLine
 10
487.9754299469804
 20
-40.69064749987854
 11
488.0677304637478
 21
29.41562988773399
  0
LINE
  5
2C7
100
AcDbEntity
  8
0
  6
ByLayer
 62
  256
370
   -1
100
AcDbLine
 10
509.7154290075235
 20
-219.9110963867546
 11
499.9202563845614
 21
-225.3094883419779
  0
LINE
  5
2C8
100
AcDbEntity
  8
0
  6
ByLayer
 62
  256
370
   -1
100
AcDbLine
 10
499.9202563845614
 20
-225.3094883419779
 11
487.585828817257
 21
-225.213671316449
  0
LINE
  5
2C9
100
AcDbEntity
  8
0
  6
ByLayer
 62
  256
370
   -1
100
AcDbLine
 10
503.0077540190292
 20
-237.4889514655822
 11
487.5553552943023
 21
-278.0852333400237
  0
LINE
  5
2CA
100
AcDbEntity
  8
0
  6
ByLayer
 62
  256
370
   -1
100
AcDbLine
 10
487.5553552943023
 20
-278.0852333400237
 11
524.6757897896367
 21
-309.6537960698965
  0
LINE
  5
2CB
100
AcDbEntity
  8
0
  6
ByLayer
 62
  256
370
   -1
100
AcDbLine
 10
524.6757897896367
 20
-309.6537960698965
 11
554.3006378282174
 21
-217.5249133958356
  0
LINE
  5
2CC
100
AcDbEntity
  8
0
  6
ByLayer
 62
  256
370
   -1
100
AcDbLine
 10
554.3006378282174
 20
-217.5249133958356
 11
564.3604289811977
 21
-269.940695871786
  0
LINE
  5
2CD
100
AcDbEntity
  8
0
  6
ByLayer
 62
  256
370
   -1
100
AcDbLine
 10
554.3006378282174
 20
-217.5249133958356
 11
525.1197409636233
 21
-219.5962457681095
  0
LINE
  5
2CE
100
AcDbEntity
  8
0
  6
ByLayer
 62
  256
370
   -1
100
AcDbLine
 10
554.3006378282174
 20
-217.5249133958356
 11
544.0010848034302
 21
-185.2728231755672
  0
LINE
  5
2CF
100
AcDbEntity
  8
0
  6
ByLayer
 62
  256
370
   -1
100
AcDbLine
 10
544.0010848034302
 20
-185.2728231755672
 11
535.232503681506
 21
-206.2518950431535
  0
LINE
  5
2D0
100
AcDbEntity
  8
0
  6
ByLayer
 62
  256
370
   -1
100
AcDbLine
 10
535.232503681506
 20
-206.2518950431535
 11
505.5928519084265
 21
-198.0090506131544
  0
LINE
  5
2D1
100
AcDbEntity
  8
0
  6
ByLayer
 62
  256
370
   -1
100
AcDbLine
 10
535.232503681506
 20
-206.2518950431535
 11
525.9133682946848
 21
-212.6523828498039
  0
LINE
  5
2D2
100
AcDbEntity
  8
0
  6
ByLayer
 62
  256
370
   -1
100
AcDbLine
 10
544.0010848034302
 20
-185.2728231755672
 11
547.3586047735254
 21
-176.8798844490749
  0
LINE
  5
2D3
100
AcDbEntity
  8
0
  6
ByLayer
 62
  256
370
   -1
100
AcDbLine
 10
547.3586047735254
 20
-176.8798844490749
 11
540.7121955852414
 21
-146.1113089267211
  0
LINE
  5
2D4
100
AcDbEntity
  8
0
  6
ByLayer
 62
  256
370
   -1
100
AcDbLine
 10
540.7121955852414
 20
-146.1113089267211
 11
519.30325804605
 21
-154.3131758595104
  0
LINE
  5
2D5
100
AcDbEntity
  8
0
  6
ByLayer
 62
  256
370
   -1
100
AcDbLine
 10
519.30325804605
 20
-154.3131758595104
 11
508.5264430772598
 21
-168.9688586470642
  0
LINE
  5
2D6
100
AcDbEntity
  8
0
  6
ByLayer
 62
  256
370
   -1
100
AcDbLine
 10
519.30325804605
 20
-154.3131758595104
 11
487.8539516698473
 21
-132.9587093866195
  0
LINE
  5
2D7
100
AcDbEntity
  8
0
  6
ByLayer
 62
  256
370
   -1
100
AcDbLine
 10
540.7121955852414
 20
-146.1113089267211
 11
518.6564047105127
 21
-98.65658736424166
  0
LINE
  5
2D8
100
AcDbEntity
  8
0
  6
ByLayer
 62
  256
370
   -1
100
AcDbLine
 10
518.6564047105127
 20
-98.65658736424166
 11
487.8882935819653
 21
-106.8745258816676
  0
LINE
  5
2D9
100
AcDbEntity
  8
0
  6
ByLayer
 62
  256
370
   -1
100
AcDbLine
 10
540.7121955852414
 20
-146.1113089267211
 11
545.323098659839
 21
-82.02583784022607
  0
LINE
  5
2DA
100
AcDbEntity
  8
0
  6
ByLayer
 62
  256
370
   -1
100
AcDbLine
 10
545.323098659839
 20
-82.02583784022607
 11
591.6109744370323
 21
-86.71618462716799
  0
LINE
  5
2DB
100
AcDbEntity
  8
0
  6
ByLayer
 62
  256
370
   -1
100
AcDbLine
 10
591.6109744370323
 20
-86.71618462716799
 11
607.4080665093287
 21
-50.04166521249584
  0
LINE
  5
2DC
100
AcDbEntity
  8
0
  6
ByLayer
 62
  256
370
   -1
100
AcDbLine
 10
591.6109744370323
 20
-86.71618462716799
 11
638.3195493670445
 21
-122.1610237498523
  0
LINE
  5
2DD
100
AcDbEntity
  8
0
  6
ByLayer
 62
  256
370
   -1
100
AcDbLine
 10
591.6109744370323
 20
-86.71618462716799
 11
582.7103173905197
 21
-127.2374797374572
  0
LINE
  5
2DE
100
AcDbEntity
  8
0
  6
ByLayer
 62
  256
370
   -1
100
AcDbLine
 10
582.7103173905197
 20
-127.2374797374572
 11
540.7121955852414
 21
-146.1113089267211
  0
LINE
  5
2DF
100
AcDbEntity
  8
0
  6
ByLayer
 62
  256
370
   -1
100
AcDbLine
 10
582.7103173905197
 20
-127.2374797374572
 11
634.1980712065814
 21
-157.1203329454245
  0
LINE
  5
2E0
100
AcDbEntity
  8
0
  6
ByLayer
 62
  256
370
   -1
100
AcDbLine
 10
582.7103173905197
 20
-127.2374797374572
 11
624.3113219048245
 21
-191.4198909483025
  0
LINE
  5
2E1
100
AcDbEntity
  8
0
  6
ByLayer
 62
  256
370
   -1
100
AcDbLine
 10
624.3113219048245
 20
-191.4198909483025
 11
593.0347808033979
 21
-177.3515234605564
  0
LINE
  5
2E2
100
AcDbEntity
  8
0
  6
ByLayer
 62
  256
370
   -1
100
AcDbLine
 10
593.0347808033979
 20
-177.3515234605564
 11
582.7103173905197
 21
-127.2374797374572
  0
LINE
  5
2E3
100
AcDbEntity
  8
0
  6
ByLayer
 62
  256
370
   -1
100
AcDbLine
 10
593.0347808033979
 20
-177.3515234605564
 11
540.7121955852414
 21
-146.1113089267211
  0
LINE
  5
2E4
100
AcDbEntity
  8
0
  6
ByLayer
 62
  256
370
   -1
100
AcDbLine
 10
593.0347808033979
 20
-177.3515234605564
 11
599.3942968398632
 21
-227.1625996233134
  0
LINE
  5
2E5
100
AcDbEntity
  8
0
  6
ByLayer
 62
  256
370
   -1
100
AcDbLine
 10
599.3942968398632
 20
-227.1625996233134
 11
593.0347808033979
 21
-177.3515234605564
  0
LINE
  5
2E6
100
AcDbEntity
  8
0
  6
ByLayer
 62
  256
370
   -1
100
AcDbLine
 10
593.0347808033979
 20
-177.3515234605564
 11
554.3006378282174
 21
-217.5249133958356
  0
LINE
  5
2E7
100
AcDbEntity
  8
0
  6
ByLayer
 62
  256
370
   -1
100
AcDbLine
 10
607.4080665093287
 20
-50.04166521249584
 11
635.7459143218899
 21
-85.74553511385079
  0
LINE
  5
2E8
100
AcDbEntity
  8
0
  6
ByLayer
 62
  256
370
   -1
100
AcDbLine
 10
635.7459143218899
 20
-85.74553511385079
 11
626.0643763742136
 21
-94.27146911202846
  0
LINE
  5
2E9
100
AcDbEntity
  8
0
  6
ByLayer
 62
  256
370
   -1
100
AcDbLine
 10
607.4080665093287
 20
-50.04166521249584
 11
567.9773477527987
 21
-62.4145383923763
  0
LINE
  5
2EA
100
AcDbEntity
  8
0
  6
ByLayer
 62
  256
370
   -1
100
AcDbLine
 10
567.9773477527987
 20
-62.4145383923763
 11
529.837304694303
 21
-68.44674502424647
  0
LINE
  5
2EB
100
AcDbEntity
  8
0
  6
ByLayer
 62
  256
370
   -1
100
AcDbLine
 10
529.837304694303
 20
-68.44674502424647
 11
518.6564047105127
 21
-98.65658736424166
  0
LINE
  5
2EC
100
AcDbEntity
  8
0
  6
ByLayer
 62
  256
370
   -1
100
AcDbLine
 10
518.6564047105127
 20
-98.65658736424166
 11
531.217991946114
 21
-85.87703850040486
  0
LINE
  5
2ED
100
AcDbEntity
  8
0
  6
ByLayer
 62
  256
370
   -1
100
AcDbLine
 10
531.217991946114
 20
-85.87703850040486
 11
545.323098659839
 21
-82.02583784022607
  0
LINE
  5
2EE
100
AcDbEntity
  8
0
  6
ByLayer
 62
  256
370
   -1
100
AcDbLine
 10
545.323098659839
 20
-82.02583784022607
 11
567.9773477527987
 21
-62.4145383923763
  0
LINE
  5
2EF
100
AcDbEntity
  8
0
  6
ByLayer
 62
  256
370
   -1
100
AcDbLine
 10
567.9773477527987
 20
-62.4145383923763
 11
549.0066559693627
 21
10.01464242036167
  0
LINE
  5
2F0
100
AcDbEntity
  8
0
  6
ByLayer
 62
  256
370
   -1
100
AcDbLine
 10
549.0066559693627
 20
10.01464242036167
 11
507.6610063477909
 21
-32.03999151149992
  0
LINE
  5
2F1
100
AcDbEntity
  8
0
  6
ByLayer
 62
  256
370
   -1
100
AcDbLine
 10
507.6610063477909
 20
-32.03999151149992
 11
487.9754299469804
 21
-40.69064749987854
  0
LINE
  5
2F2
100
AcDbEntity
  8
0
  6
ByLayer
 62
  256
370
   -1
100
AcDbLine
 10
507.6610063477909
 20
-32.03999151149992
 11
514.6902700540878
 21
23.74173869846226
  0
LINE
  5
2F3
100
AcDbEntity
  8
0
  6
ByLayer
 62
  256
370
   -1
100
AcDbLine
 10
507.6610063477909
 20
-32.03999151149992
 11
529.837304694303
 21
-68.44674502424647
  0
LINE
  5
2F4
100
AcDbEntity
  8
0
  6
ByLayer
 62
  256
370
   -1
100
AcDbLine
 10
461.5724582182869
 20
-180.9751037037278
 11
466.6393293387292
 21
-168.9412847926775
  0
LINE
  5
2F5
100
AcDbEntity
  8
0
  6
ByLayer
 62
  256
370
   -1
100
AcDbLine
 10
469.5346842646962
 20
-197.9853138937838
 11
461.5724582182869
 21
-180.9751037037278
  0
LINE
  5
2F6
100
AcDbEntity
  8
0
  6
ByLayer
 62
  256
370
   -1
100
AcDbLine
 10
487.5573036119055
 20
-207.8172886983634
 11
469.5346842646962
 21
-197.9853138937838
  0
LINE
  5
2F7
100
AcDbEntity
  8
0
  6
ByLayer
 62
  256
370
   -1
100
AcDbLine
 10
487.5573036119055
 20
-207.8172886983634
 11
505.5928519084265
 21
-198.0090506131544
  0
LINE
  5
2F8
100
AcDbEntity
  8
0
  6
ByLayer
 62
  256
370
   -1
100
AcDbLine
 10
505.5928519084265
 20
-198.0090506131544
 11
513.5774663357391
 21
-181.0093380634918
  0
LINE
  5
2F9
100
AcDbEntity
  8
0
  6
ByLayer
 62
  256
370
   -1
100
AcDbLine
 10
513.5774663357391
 20
-181.0093380634918
 11
508.5264430772598
 21
-168.9688586470642
  0
LINE
  5
2FA
100
AcDbEntity
  8
0
  6
ByLayer
 62
  256
370
   -1
100
AcDbLine
 10
466.6393293387292
 20
-168.9412847926775
 11
487.3592130276805
 21
-165.3220911352188
  0
LINE
  5
2FB
100
AcDbEntity
  8
0
  6
ByLayer
 62
  256
370
   -1
100
AcDbLine
 10
508.5264430772598
 20
-168.9688586470642
 11
487.3592130276805
 21
-165.3220911352188
  0
LINE
  5
2FC
100
AcDbEntity
  8
0
  6
ByLayer
 62
    4
370
   -1
100
AcDbLine
 10
185.2420321222638
 20
484.1775866052822
 11
203.8642469916977
 21
531.2231820649047
  0
LINE
  5
2FD
100
AcDbEntity
  8
0
  6
ByLayer
 62
    4
370
   -1
100
AcDbLine
 10
203.8642469916977
 20
531.2231820649047
 11
226.7336336734587
 21
530.5697710168544
  0
LINE
  5
2FE
100
AcDbEntity
  8
0
  6
ByLayer
 62
    4
370
   -1
100
AcDbLine
 10
226.7336336734587
 20
530.5697710168544
 11
249.6030203552197
 21
494.9588688981123
  0
LINE
  5
2FF
100
AcDbEntity
  8
0
  6
ByLayer
 62
    4
370
   -1
100
AcDbLine
 10
249.6030203552197
 20
494.9588688981123
 11
286.5207445700624
 21
464.2485496397476
  0
LINE
  5
300
100
AcDbEntity
  8
0
  6
ByLayer
 62
    4
370
   -1
100
AcDbLine
 10
286.5207445700624
 20
464.2485496397476
 11
222.8131673851568
 21
438.4388132417602
  0
LINE
  5
301
100
AcDbEntity
  8
0
  6
ByLayer
 62
    4
370
   -1
100
AcDbLine
 10
222.8131673851568
 20
438.4388132417602
 11
249.6030203552197
 21
494.9588688981123
  0
LINE
  5
302
100
AcDbEntity
  8
0
  6
ByLayer
 62
    4
370
   -1
100
AcDbLine
 10
286.5207445700624
 20
464.2485496397476
 11
313.2582568273093
 21
469.887385240964
  0
LINE
  5
303
100
AcDbEntity
  8
0
  6
ByLayer
 62
    4
370
   -1
100
AcDbLine
 10
203.8642469916977
 20
531.2231820649047
 11
222.8131673851568
 21
438.4388132417602
  0
LINE
  5
304
100
AcDbEntity
  8
0
  6
ByLayer
 62
    4
370
   -1
100
AcDbLine
 10
222.8131673851568
 20
438.4388132417602
 11
192.9997313210693
 21
434.6587888418749
  0
LINE
  5
305
100
AcDbEntity
  8
0
  6
ByLayer
 62
    4
370
   -1
100
AcDbLine
 10
192.9997313210693
 20
434.6587888418749
 11
185.1627725340925
 21
444.3672601749953
  0
LINE
  5
306
100
AcDbEntity
  8
0
  6
ByLayer
 62
    4
370
   -1
100
AcDbLine
 10
185.1627725340925
 20
444.3672601749953
 11
185.2420321222638
 21
484.1775866052822
  0
LINE
  5
307
100
AcDbEntity
  8
0
  6
ByLayer
 62
    4
370
   -1
100
AcDbLine
 10
192.9997313210693
 20
434.6587888418749
 11
184.6948943975566
 21
429.1612207375777
  0
LINE
  5
308
100
AcDbEntity
  8
0
  6
ByLayer
 62
    4
370
   -1
100
AcDbLine
 10
184.6948943975566
 20
429.1612207375777
 11
193.7058868089248
 21
390.5872799589795
  0
LINE
  5
309
100
AcDbEntity
  8
0
  6
ByLayer
 62
    4
370
   -1
100
AcDbLine
 10
193.7058868089248
 20
390.5872799589795
 11
222.8131673851568
 21
438.4388132417602
  0
LINE
  5
30A
100
AcDbEntity
  8
0
  6
ByLayer
 62
    4
370
   -1
100
AcDbLine
 10
193.7058868089248
 20
390.5872799589795
 11
162.699479925204
 21
318.5086813289853
  0
LINE
  5
30B
100
AcDbEntity
  8
0
  6
ByLayer
 62
    4
370
   -1
100
AcDbLine
 10
162.699479925204
 20
318.5086813289853
 11
166.7749278291626
 21
283.5439761816384
  0
LINE
  5
30C
100
AcDbEntity
  8
0
  6
ByLayer
 62
    4
370
   -1
100
AcDbLine
 10
166.7749278291626
 20
283.5439761816384
 11
159.5932323724043
 21
261.5999067304328
  0
LINE
  5
30D
100
AcDbEntity
  8
0
  6
ByLayer
 62
    4
370
   -1
100
AcDbLine
 10
159.5932323724043
 20
261.5999067304328
 11
176.6165104921275
 21
249.2314312215715
  0
LINE
  5
30E
100
AcDbEntity
  8
0
  6
ByLayer
 62
    4
370
   -1
100
AcDbLine
 10
176.6165104921275
 20
249.2314312215715
 11
194.8367378546436
 21
207.604196444436
  0
LINE
  5
30F
100
AcDbEntity
  8
0
  6
ByLayer
 62
    4
370
   -1
100
AcDbLine
 10
194.8367378546436
 20
207.604196444436
 11
201.4864558701605
 21
213.4559482980908
  0
LINE
  5
310
100
AcDbEntity
  8
0
  6
ByLayer
 62
    4
370
   -1
100
AcDbLine
 10
201.4864558701605
 20
213.4559482980908
 11
228.2183222925382
 21
165.8439673069902
  0
LINE
  5
311
100
AcDbEntity
  8
0
  6
ByLayer
 62
    4
370
   -1
100
AcDbLine
 10
228.2183222925382
 20
165.8439673069902
 11
236.4639726317791
 21
170.6317642781623
  0
LINE
  5
312
100
AcDbEntity
  8
0
  6
ByLayer
 62
    4
370
   -1
100
AcDbLine
 10
236.4639726317791
 20
170.6317642781623
 11
260.1369687670191
 21
132.4623828690956
  0
LINE
  5
313
100
AcDbEntity
  8
0
  6
ByLayer
 62
    4
370
   -1
100
AcDbLine
 10
260.1369687670191
 20
132.4623828690956
 11
276.0962920042595
 21
130.8664505453716
  0
LINE
  5
314
100
AcDbEntity
  8
0
  6
ByLayer
 62
    4
370
   -1
100
AcDbLine
 10
276.0962920042595
 20
130.8664505453716
 11
313.2582568273099
 21
95.0778353597708
  0
LINE
  5
315
100
AcDbEntity
  8
0
  6
ByLayer
 62
    4
370
   -1
100
AcDbLine
 10
313.2582568273099
 20
95.0778353597708
 11
313.2582568273099
 21
162.3861139389215
  0
LINE
  5
316
100
AcDbEntity
  8
0
  6
ByLayer
 62
    4
370
   -1
100
AcDbLine
 10
313.2582568273099
 20
162.3861139389215
 11
313.2582568273099
 21
200.0235179067468
  0
LINE
  5
317
100
AcDbEntity
  8
0
  6
ByLayer
 62
    4
370
   -1
100
AcDbLine
 10
313.2582568273099
 20
200.0235179067468
 11
292.578148704524
 21
203.5907722525502
  0
LINE
  5
318
100
AcDbEntity
  8
0
  6
ByLayer
 62
    4
370
   -1
100
AcDbLine
 10
292.578148704524
 20
203.5907722525502
 11
276.3238071098282
 21
215.6272150790022
  0
LINE
  5
319
100
AcDbEntity
  8
0
  6
ByLayer
 62
    4
370
   -1
100
AcDbLine
 10
276.3238071098282
 20
215.6272150790022
 11
274.9864245735557
 21
227.8694090648806
  0
LINE
  5
31A
100
AcDbEntity
  8
0
  6
ByLayer
 62
    4
370
   -1
100
AcDbLine
 10
274.9864245735557
 20
227.8694090648806
 11
287.4343697188608
 21
219.6393626878195
  0
LINE
  5
31B
100
AcDbEntity
  8
0
  6
ByLayer
 62
    4
370
   -1
100
AcDbLine
 10
287.4343697188608
 20
219.6393626878195
 11
295.9730428350617
 21
221.7997498617981
  0
LINE
  5
31C
100
AcDbEntity
  8
0
  6
ByLayer
 62
    4
370
   -1
100
AcDbLine
 10
295.9730428350617
 20
221.7997498617981
 11
313.2561402268901
 21
223.8572614560633
  0
LINE
  5
31D
100
AcDbEntity
  8
0
  6
ByLayer
 62
    4
370
   -1
100
AcDbLine
 10
313.2561402268901
 20
223.8572614560633
 11
313.2561402268901
 21
232.7045613114041
  0
LINE
  5
31E
100
AcDbEntity
  8
0
  6
ByLayer
 62
    4
370
   -1
100
AcDbLine
 10
313.150731211617
 20
275.1491978083002
 11
313.150731211617
 21
307.5129052382383
  0
LINE
  5
31F
100
AcDbEntity
  8
0
  6
ByLayer
 62
    4
370
   -1
100
AcDbLine
 10
313.150731211617
 20
333.5971113501162
 11
313.150731211617
 21
399.7810470928744
  0
LINE
  5
320
100
AcDbEntity
  8
0
  6
ByLayer
 62
    4
370
   -1
100
AcDbLine
 10
291.174793153948
 20
220.5893759559289
 11
300.9628498792652
 21
215.1780925630706
  0
LINE
  5
321
100
AcDbEntity
  8
0
  6
ByLayer
 62
    4
370
   -1
100
AcDbLine
 10
300.9628498792652
 20
215.1780925630706
 11
313.297392907104
 21
215.2576702600244
  0
LINE
  5
322
100
AcDbEntity
  8
0
  6
ByLayer
 62
    4
370
   -1
100
AcDbLine
 10
297.8593196980674
 20
203.0027049291397
 11
313.2582568273099
 21
162.3861139389215
  0
LINE
  5
323
100
AcDbEntity
  8
0
  6
ByLayer
 62
    4
370
   -1
100
AcDbLine
 10
313.2582568273099
 20
162.3861139389215
 11
276.0962920042595
 21
130.8664505453716
  0
LINE
  5
324
100
AcDbEntity
  8
0
  6
ByLayer
 62
    4
370
   -1
100
AcDbLine
 10
276.0962920042595
 20
130.8664505453716
 11
246.5927645726964
 21
223.0342568183587
  0
LINE
  5
325
100
AcDbEntity
  8
0
  6
ByLayer
 62
    4
370
   -1
100
AcDbLine
 10
246.5927645726964
 20
223.0342568183587
 11
236.4639726317791
 21
170.6317642781623
  0
LINE
  5
326
100
AcDbEntity
  8
0
  6
ByLayer
 62
    4
370
   -1
100
AcDbLine
 10
246.5927645726964
 20
223.0342568183587
 11
275.7709090742563
 21
220.924507291854
  0
LINE
  5
327
100
AcDbEntity
  8
0
  6
ByLayer
 62
    4
370
   -1
100
AcDbLine
 10
246.5927645726964
 20
223.0342568183587
 11
256.9347710883808
 21
255.2727589131565
  0
LINE
  5
328
100
AcDbEntity
  8
0
  6
ByLayer
 62
    4
370
   -1
100
AcDbLine
 10
256.9347710883808
 20
255.2727589131565
 11
265.6757240099308
 21
234.2821607001383
  0
LINE
  5
329
100
AcDbEntity
  8
0
  6
ByLayer
 62
    4
370
   -1
100
AcDbLine
 10
265.6757240099308
 20
234.2821607001383
 11
295.3262024486327
 21
242.4859750497352
  0
LINE
  5
32A
100
AcDbEntity
  8
0
  6
ByLayer
 62
    4
370
   -1
100
AcDbLine
 10
265.6757240099308
 20
234.2821607001383
 11
274.9864245735557
 21
227.8694090648806
  0
LINE
  5
32B
100
AcDbEntity
  8
0
  6
ByLayer
 62
    4
370
   -1
100
AcDbLine
 10
256.9347710883808
 20
255.2727589131565
 11
253.5883039931987
 21
263.6701108050987
  0
LINE
  5
32C
100
AcDbEntity
  8
0
  6
ByLayer
 62
    4
370
   -1
100
AcDbLine
 10
253.5883039931987
 20
263.6701108050987
 11
260.2752166745609
 21
294.429909139365
  0
LINE
  5
32D
100
AcDbEntity
  8
0
  6
ByLayer
 62
    4
370
   -1
100
AcDbLine
 10
260.2752166745609
 20
294.429909139365
 11
281.6733372549201
 21
286.1998627623038
  0
LINE
  5
32E
100
AcDbEntity
  8
0
  6
ByLayer
 62
    4
370
   -1
100
AcDbLine
 10
281.6733372549201
 20
286.1998627623038
 11
292.4308475226657
 21
271.5300041508415
  0
LINE
  5
32F
100
AcDbEntity
  8
0
  6
ByLayer
 62
    4
370
   -1
100
AcDbLine
 10
281.6733372549201
 20
286.1998627623038
 11
313.150731211617
 21
307.5129052382383
  0
LINE
  5
330
100
AcDbEntity
  8
0
  6
ByLayer
 62
    4
370
   -1
100
AcDbLine
 10
260.2752166745609
 20
294.429909139365
 11
282.3934663129129
 21
341.8555513871802
  0
LINE
  5
331
100
AcDbEntity
  8
0
  6
ByLayer
 62
    4
370
   -1
100
AcDbLine
 10
282.3934663129129
 20
341.8555513871802
 11
313.150731211617
 21
333.5971113501162
  0
LINE
  5
332
100
AcDbEntity
  8
0
  6
ByLayer
 62
    4
370
   -1
100
AcDbLine
 10
260.2752166745609
 20
294.429909139365
 11
255.7486911671773
 21
358.5213953007292
  0
LINE
  5
333
100
AcDbEntity
  8
0
  6
ByLayer
 62
    4
370
   -1
100
AcDbLine
 10
255.7486911671773
 20
358.5213953007292
 11
209.4546802962079
 21
353.8919942136322
  0
LINE
  5
334
100
AcDbEntity
  8
0
  6
ByLayer
 62
    4
370
   -1
100
AcDbLine
 10
209.4546802962079
 20
353.8919942136322
 11
193.7058868089248
 21
390.5872799589795
  0
LINE
  5
335
100
AcDbEntity
  8
0
  6
ByLayer
 62
    4
370
   -1
100
AcDbLine
 10
209.4546802962079
 20
353.8919942136322
 11
162.699479925204
 21
318.5086813289853
  0
LINE
  5
336
100
AcDbEntity
  8
0
  6
ByLayer
 62
    4
370
   -1
100
AcDbLine
 10
209.4546802962079
 20
353.8919942136322
 11
218.3019801515487
 21
313.3590158066058
  0
LINE
  5
337
100
AcDbEntity
  8
0
  6
ByLayer
 62
    4
370
   -1
100
AcDbLine
 10
218.3019801515487
 20
313.3590158066058
 11
260.2752166745609
 21
294.429909139365
  0
LINE
  5
338
100
AcDbEntity
  8
0
  6
ByLayer
 62
    4
370
   -1
100
AcDbLine
 10
218.3019801515487
 20
313.3590158066058
 11
166.7749278291626
 21
283.5439761816384
  0
LINE
  5
339
100
AcDbEntity
  8
0
  6
ByLayer
 62
    4
370
   -1
100
AcDbLine
 10
218.3019801515487
 20
313.3590158066058
 11
176.6165104921275
 21
249.2314312215715
  0
LINE
  5
33A
100
AcDbEntity
  8
0
  6
ByLayer
 62
    4
370
   -1
100
AcDbLine
 10
176.6165104921275
 20
249.2314312215715
 11
207.911546600509
 21
263.2586084862456
  0
LINE
  5
33B
100
AcDbEntity
  8
0
  6
ByLayer
 62
    4
370
   -1
100
AcDbLine
 10
207.911546600509
 20
263.2586084862456
 11
218.3019801515487
 21
313.3590158066058
  0
LINE
  5
33C
100
AcDbEntity
  8
0
  6
ByLayer
 62
    4
370
   -1
100
AcDbLine
 10
207.911546600509
 20
263.2586084862456
 11
260.2752166745609
 21
294.429909139365
  0
LINE
  5
33D
100
AcDbEntity
  8
0
  6
ByLayer
 62
    4
370
   -1
100
AcDbLine
 10
207.911546600509
 20
263.2586084862456
 11
201.4864558701605
 21
213.4559482980908
  0
LINE
  5
33E
100
AcDbEntity
  8
0
  6
ByLayer
 62
    4
370
   -1
100
AcDbLine
 10
201.4864558701605
 20
213.4559482980908
 11
207.911546600509
 21
263.2586084862456
  0
LINE
  5
33F
100
AcDbEntity
  8
0
  6
ByLayer
 62
    4
370
   -1
100
AcDbLine
 10
207.911546600509
 20
263.2586084862456
 11
246.5927645726964
 21
223.0342568183587
  0
LINE
  5
340
100
AcDbEntity
  8
0
  6
ByLayer
 62
    4
370
   -1
100
AcDbLine
 10
193.7058868089248
 20
390.5872799589795
 11
165.3210565992174
 21
354.9207500107654
  0
LINE
  5
341
100
AcDbEntity
  8
0
  6
ByLayer
 62
    4
370
   -1
100
AcDbLine
 10
165.3210565992174
 20
354.9207500107654
 11
174.9913610922644
 21
346.3820768945644
  0
LINE
  5
342
100
AcDbEntity
  8
0
  6
ByLayer
 62
    4
370
   -1
100
AcDbLine
 10
193.7058868089248
 20
390.5872799589795
 11
233.120281529028
 21
378.1625038551668
  0
LINE
  5
343
100
AcDbEntity
  8
0
  6
ByLayer
 62
    4
370
   -1
100
AcDbLine
 10
233.120281529028
 20
378.1625038551668
 11
271.2523496567064
 21
372.0800880801997
  0
LINE
  5
344
100
AcDbEntity
  8
0
  6
ByLayer
 62
    4
370
   -1
100
AcDbLine
 10
271.2523496567064
 20
372.0800880801997
 11
282.3934663129129
 21
341.8555513871802
  0
LINE
  5
345
100
AcDbEntity
  8
0
  6
ByLayer
 62
    4
370
   -1
100
AcDbLine
 10
282.3934663129129
 20
341.8555513871802
 11
269.8487152470987
 21
354.6516274942363
  0
LINE
  5
346
100
AcDbEntity
  8
0
  6
ByLayer
 62
    4
370
   -1
100
AcDbLine
 10
269.8487152470987
 20
354.6516274942363
 11
255.7486911671773
 21
358.5213953007292
  0
LINE
  5
347
100
AcDbEntity
  8
0
  6
ByLayer
 62
    4
370
   -1
100
AcDbLine
 10
255.7486911671773
 20
358.5213953007292
 11
233.120281529028
 21
378.1625038551668
  0
LINE
  5
348
100
AcDbEntity
  8
0
  6
ByLayer
 62
    4
370
   -1
100
AcDbLine
 10
233.120281529028
 20
378.1625038551668
 11
252.1863155928672
 21
450.5666454841023
  0
LINE
  5
349
100
AcDbEntity
  8
0
  6
ByLayer
 62
    4
370
   -1
100
AcDbLine
 10
252.1863155928672
 20
450.5666454841023
 11
293.4765611421632
 21
408.4576131958684
  0
LINE
  5
34A
100
AcDbEntity
  8
0
  6
ByLayer
 62
    4
370
   -1
100
AcDbLine
 10
293.4765611421632
 20
408.4576131958684
 11
313.150731211617
 21
399.7810470928744
  0
LINE
  5
34B
100
AcDbEntity
  8
0
  6
ByLayer
 62
    4
370
   -1
100
AcDbLine
 10
293.4765611421632
 20
408.4576131958684
 11
286.5207445700624
 21
464.2485496397476
  0
LINE
  5
34C
100
AcDbEntity
  8
0
  6
ByLayer
 62
    4
370
   -1
100
AcDbLine
 10
293.4765611421632
 20
408.4576131958684
 11
271.2523496567064
 21
372.0800880801997
  0
LINE
  5
34D
100
AcDbEntity
  8
0
  6
ByLayer
 62
    4
370
   -1
100
AcDbLine
 10
441.7866510556205
 20
484.008705932092
 11
423.2263915582962
 21
531.0787782305899
  0
LINE
  5
34E
100
AcDbEntity
  8
0
  6
ByLayer
 62
    4
370
   -1
100
AcDbLine
 10
423.2263915582962
 20
531.0787782305899
 11
400.3561644300919
 21
530.4554770979368
  0
LINE
  5
34F
100
AcDbEntity
  8
0
  6
ByLayer
 62
    4
370
   -1
100
AcDbLine
 10
400.3561644300919
 20
530.4554770979368
 11
377.4399130111323
 21
494.8747151919071
  0
LINE
  5
350
100
AcDbEntity
  8
0
  6
ByLayer
 62
    4
370
   -1
100
AcDbLine
 10
377.4399130111323
 20
494.8747151919071
 11
340.4817882380244
 21
464.2130276419813
  0
LINE
  5
351
100
AcDbEntity
  8
0
  6
ByLayer
 62
    4
370
   -1
100
AcDbLine
 10
340.4817882380244
 20
464.2130276419813
 11
404.1553296570783
 21
438.3194375691402
  0
LINE
  5
352
100
AcDbEntity
  8
0
  6
ByLayer
 62
    4
370
   -1
100
AcDbLine
 10
404.1553296570783
 20
438.3194375691402
 11
377.4399130111323
 21
494.8747151919071
  0
LINE
  5
353
100
AcDbEntity
  8
0
  6
ByLayer
 62
    4
370
   -1
100
AcDbLine
 10
340.4817882380244
 20
464.2130276419813
 11
313.7517231251834
 21
469.8870603971964
  0
LINE
  5
354
100
AcDbEntity
  8
0
  6
ByLayer
 62
    4
370
   -1
100
AcDbLine
 10
423.2263915582962
 20
531.0787782305899
 11
404.1553296570783
 21
438.3194375691402
  0
LINE
  5
355
100
AcDbEntity
  8
0
  6
ByLayer
 62
    4
370
   -1
100
AcDbLine
 10
404.1553296570783
 20
438.3194375691402
 11
433.9637631822604
 21
434.5001647082465
  0
LINE
  5
356
100
AcDbEntity
  8
0
  6
ByLayer
 62
    4
370
   -1
100
AcDbLine
 10
433.9637631822604
 20
434.5001647082465
 11
441.8134971443122
 21
444.198309653534
  0
LINE
  5
357
100
AcDbEntity
  8
0
  6
ByLayer
 62
    4
370
   -1
100
AcDbLine
 10
441.8134971443122
 20
444.198309653534
 11
441.7866510556205
 21
484.008705932092
  0
LINE
  5
358
100
AcDbEntity
  8
0
  6
ByLayer
 62
    4
370
   -1
100
AcDbLine
 10
433.9637631822604
 20
434.5001647082465
 11
442.2613549265744
 21
428.9916673966181
  0
LINE
  5
359
100
AcDbEntity
  8
0
  6
ByLayer
 62
    4
370
   -1
100
AcDbLine
 10
442.2613549265744
 20
428.9916673966181
 11
433.1995846932653
 21
390.4296237310232
  0
LINE
  5
35A
100
AcDbEntity
  8
0
  6
ByLayer
 62
    4
370
   -1
100
AcDbLine
 10
433.1995846932653
 20
390.4296237310232
 11
404.1553296570783
 21
438.3194375691402
  0
LINE
  5
35B
100
AcDbEntity
  8
0
  6
ByLayer
 62
    4
370
   -1
100
AcDbLine
 10
433.1995846932653
 20
390.4296237310232
 11
464.1110675509811
 21
318.3102651936667
  0
LINE
  5
35C
100
AcDbEntity
  8
0
  6
ByLayer
 62
    4
370
   -1
100
AcDbLine
 10
464.1110675509811
 20
318.3102651936667
 11
459.9895893905179
 21
283.3509559980945
  0
LINE
  5
35D
100
AcDbEntity
  8
0
  6
ByLayer
 62
    4
370
   -1
100
AcDbLine
 10
459.9895893905179
 20
283.3509559980945
 11
467.1423875269041
 21
261.3974502977954
  0
LINE
  5
35E
100
AcDbEntity
  8
0
  6
ByLayer
 62
    4
370
   -1
100
AcDbLine
 10
467.1423875269041
 20
261.3974502977954
 11
450.102840088761
 21
249.0513979952165
  0
LINE
  5
35F
100
AcDbEntity
  8
0
  6
ByLayer
 62
    4
370
   -1
100
AcDbLine
 10
450.102840088761
 20
249.0513979952165
 11
431.8278229837866
 21
207.4481876606108
  0
LINE
  5
360
100
AcDbEntity
  8
0
  6
ByLayer
 62
    4
370
   -1
100
AcDbLine
 10
431.8278229837866
 20
207.4481876606108
 11
425.1858150237997
 21
213.3086893202056
  0
LINE
  5
361
100
AcDbEntity
  8
0
  6
ByLayer
 62
    4
370
   -1
100
AcDbLine
 10
425.1858150237997
 20
213.3086893202056
 11
398.3912868460817
 21
165.7319442018787
  0
LINE
  5
362
100
AcDbEntity
  8
0
  6
ByLayer
 62
    4
370
   -1
100
AcDbLine
 10
398.3912868460817
 20
165.7319442018787
 11
390.1519471651343
 21
170.530593071733
  0
LINE
  5
363
100
AcDbEntity
  8
0
  6
ByLayer
 62
    4
370
   -1
100
AcDbLine
 10
390.1519471651343
 20
170.530593071733
 11
366.4287185496474
 21
132.3924121079372
  0
LINE
  5
364
100
AcDbEntity
  8
0
  6
ByLayer
 62
    4
370
   -1
100
AcDbLine
 10
366.4287185496474
 20
132.3924121079372
 11
350.4673079735732
 21
130.8174928736225
  0
LINE
  5
365
100
AcDbEntity
  8
0
  6
ByLayer
 62
    4
370
   -1
100
AcDbLine
 10
350.4673079735732
 20
130.8174928736225
 11
313.2582568273099
 21
95.0778353597708
  0
LINE
  5
366
100
AcDbEntity
  8
0
  6
ByLayer
 62
    4
370
   -1
100
AcDbLine
 10
313.3964260854321
 20
200.0234269513512
 11
334.0812128563259
 21
203.5634512140403
  0
LINE
  5
367
100
AcDbEntity
  8
0
  6
ByLayer
 62
    4
370
   -1
100
AcDbLine
 10
334.0812128563259
 20
203.5634512140403
 11
350.3513872886894
 21
215.5784834874871
  0
LINE
  5
368
100
AcDbEntity
  8
0
  6
ByLayer
 62
    4
370
   -1
100
AcDbLine
 10
350.3513872886894
 20
215.5784834874871
 11
351.7048864786212
 21
227.8189060937152
  0
LINE
  5
369
100
AcDbEntity
  8
0
  6
ByLayer
 62
    4
370
   -1
100
AcDbLine
 10
351.7048864786212
 20
227.8189060937152
 11
339.2461166174548
 21
219.6052555499198
  0
LINE
  5
36A
100
AcDbEntity
  8
0
  6
ByLayer
 62
    4
370
   -1
100
AcDbLine
 10
339.2461166174548
 20
219.6052555499198
 11
330.7102952215363
 21
221.7768826872996
  0
LINE
  5
36B
100
AcDbEntity
  8
0
  6
ByLayer
 62
    4
370
   -1
100
AcDbLine
 10
330.7102952215363
 20
221.7768826872996
 11
313.4299216848926
 21
223.8571470575242
  0
LINE
  5
36C
100
AcDbEntity
  8
0
  6
ByLayer
 62
    4
370
   -1
100
AcDbLine
 10
313.6454698537839
 20
307.5125795568995
 11
313.6798117659018
 21
333.5967630618514
  0
LINE
  5
36D
100
AcDbEntity
  8
0
  6
ByLayer
 62
    4
370
   -1
100
AcDbLine
 10
313.7669481309171
 20
399.7806414436405
 11
313.8592486476844
 21
469.886918831253
  0
LINE
  5
36E
100
AcDbEntity
  8
0
  6
ByLayer
 62
    4
370
   -1
100
AcDbLine
 10
335.5069471914602
 20
220.5601925567644
 11
325.7117745684979
 21
215.1618006015412
  0
LINE
  5
36F
100
AcDbEntity
  8
0
  6
ByLayer
 62
    4
370
   -1
100
AcDbLine
 10
325.7117745684979
 20
215.1618006015412
 11
313.3773470011935
 21
215.25761762707
  0
LINE
  5
370
100
AcDbEntity
  8
0
  6
ByLayer
 62
    4
370
   -1
100
AcDbLine
 10
328.7992722029657
 20
202.9823374779368
 11
313.3468734782388
 21
162.3860556034954
  0
LINE
  5
371
100
AcDbEntity
  8
0
  6
ByLayer
 62
    4
370
   -1
100
AcDbLine
 10
313.3468734782388
 20
162.3860556034954
 11
350.4673079735732
 21
130.8174928736225
  0
LINE
  5
372
100
AcDbEntity
  8
0
  6
ByLayer
 62
    4
370
   -1
100
AcDbLine
 10
350.4673079735732
 20
130.8174928736225
 11
380.092156012154
 21
222.9463755476835
  0
LINE
  5
373
100
AcDbEntity
  8
0
  6
ByLayer
 62
    4
370
   -1
100
AcDbLine
 10
380.092156012154
 20
222.9463755476835
 11
390.1519471651343
 21
170.530593071733
  0
LINE
  5
374
100
AcDbEntity
  8
0
  6
ByLayer
 62
    4
370
   -1
100
AcDbLine
 10
380.092156012154
 20
222.9463755476835
 11
350.9112591475599
 21
220.8750431754095
  0
LINE
  5
375
100
AcDbEntity
  8
0
  6
ByLayer
 62
    4
370
   -1
100
AcDbLine
 10
380.092156012154
 20
222.9463755476835
 11
369.7926029873666
 21
255.1984657679519
  0
LINE
  5
376
100
AcDbEntity
  8
0
  6
ByLayer
 62
    4
370
   -1
100
AcDbLine
 10
369.7926029873666
 20
255.1984657679519
 11
361.0240218654426
 21
234.2193939003655
  0
LINE
  5
377
100
AcDbEntity
  8
0
  6
ByLayer
 62
    4
370
   -1
100
AcDbLine
 10
361.0240218654426
 20
234.2193939003655
 11
331.3843700923631
 21
242.4622383303646
  0
LINE
  5
378
100
AcDbEntity
  8
0
  6
ByLayer
 62
    4
370
   -1
100
AcDbLine
 10
361.0240218654426
 20
234.2193939003655
 11
351.7048864786212
 21
227.8189060937152
  0
LINE
  5
379
100
AcDbEntity
  8
0
  6
ByLayer
 62
    4
370
   -1
100
AcDbLine
 10
369.7926029873666
 20
255.1984657679519
 11
373.1501229574619
 21
263.5914044944441
  0
LINE
  5
37A
100
AcDbEntity
  8
0
  6
ByLayer
 62
    4
370
   -1
100
AcDbLine
 10
373.1501229574619
 20
263.5914044944441
 11
366.5037137691779
 21
294.3599800167979
  0
LINE
  5
37B
100
AcDbEntity
  8
0
  6
ByLayer
 62
    4
370
   -1
100
AcDbLine
 10
366.5037137691779
 20
294.3599800167979
 11
345.0947762299866
 21
286.1581130840087
  0
LINE
  5
37C
100
AcDbEntity
  8
0
  6
ByLayer
 62
    4
370
   -1
100
AcDbLine
 10
345.0947762299866
 20
286.1581130840087
 11
334.3179612611963
 21
271.5024302964549
  0
LINE
  5
37D
100
AcDbEntity
  8
0
  6
ByLayer
 62
    4
370
   -1
100
AcDbLine
 10
345.0947762299866
 20
286.1581130840087
 11
313.6454698537839
 21
307.5125795568995
  0
LINE
  5
37E
100
AcDbEntity
  8
0
  6
ByLayer
 62
    4
370
   -1
100
AcDbLine
 10
366.5037137691779
 20
294.3599800167979
 11
344.4479228944492
 21
341.8147015792774
  0
LINE
  5
37F
100
AcDbEntity
  8
0
  6
ByLayer
 62
    4
370
   -1
100
AcDbLine
 10
344.4479228944492
 20
341.8147015792774
 11
313.6798117659018
 21
333.5967630618514
  0
LINE
  5
380
100
AcDbEntity
  8
0
  6
ByLayer
 62
    4
370
   -1
100
AcDbLine
 10
366.5037137691779
 20
294.3599800167979
 11
371.1146168437756
 21
358.445451103293
  0
LINE
  5
381
100
AcDbEntity
  8
0
  6
ByLayer
 62
    4
370
   -1
100
AcDbLine
 10
371.1146168437756
 20
358.445451103293
 11
417.4024926209688
 21
353.755104316351
  0
LINE
  5
382
100
AcDbEntity
  8
0
  6
ByLayer
 62
    4
370
   -1
100
AcDbLine
 10
417.4024926209688
 20
353.755104316351
 11
433.1995846932653
 21
390.4296237310232
  0
LINE
  5
383
100
AcDbEntity
  8
0
  6
ByLayer
 62
    4
370
   -1
100
AcDbLine
 10
417.4024926209688
 20
353.755104316351
 11
464.1110675509811
 21
318.3102651936667
  0
LINE
  5
384
100
AcDbEntity
  8
0
  6
ByLayer
 62
    4
370
   -1
100
AcDbLine
 10
417.4024926209688
 20
353.755104316351
 11
408.5018355744561
 21
313.2338092060618
  0
LINE
  5
385
100
AcDbEntity
  8
0
  6
ByLayer
 62
    4
370
   -1
100
AcDbLine
 10
408.5018355744561
 20
313.2338092060618
 11
366.5037137691779
 21
294.3599800167979
  0
LINE
  5
386
100
AcDbEntity
  8
0
  6
ByLayer
 62
    4
370
   -1
100
AcDbLine
 10
408.5018355744561
 20
313.2338092060618
 11
459.9895893905179
 21
283.3509559980945
  0
LINE
  5
387
100
AcDbEntity
  8
0
  6
ByLayer
 62
    4
370
   -1
100
AcDbLine
 10
408.5018355744561
 20
313.2338092060618
 11
450.102840088761
 21
249.0513979952165
  0
LINE
  5
388
100
AcDbEntity
  8
0
  6
ByLayer
 62
    4
370
   -1
100
AcDbLine
 10
450.102840088761
 20
249.0513979952165
 11
418.8262989873346
 21
263.1197654829626
  0
LINE
  5
389
100
AcDbEntity
  8
0
  6
ByLayer
 62
    4
370
   -1
100
AcDbLine
 10
418.8262989873346
 20
263.1197654829626
 11
408.5018355744561
 21
313.2338092060618
  0
LINE
  5
38A
100
AcDbEntity
  8
0
  6
ByLayer
 62
    4
370
   -1
100
AcDbLine
 10
418.8262989873346
 20
263.1197654829626
 11
366.5037137691779
 21
294.3599800167979
  0
LINE
  5
38B
100
AcDbEntity
  8
0
  6
ByLayer
 62
    4
370
   -1
100
AcDbLine
 10
418.8262989873346
 20
263.1197654829626
 11
425.1858150237997
 21
213.3086893202056
  0
LINE
  5
38C
100
AcDbEntity
  8
0
  6
ByLayer
 62
    4
370
   -1
100
AcDbLine
 10
425.1858150237997
 20
213.3086893202056
 11
418.8262989873346
 21
263.1197654829626
  0
LINE
  5
38D
100
AcDbEntity
  8
0
  6
ByLayer
 62
    4
370
   -1
100
AcDbLine
 10
418.8262989873346
 20
263.1197654829626
 11
380.092156012154
 21
222.9463755476835
  0
LINE
  5
38E
100
AcDbEntity
  8
0
  6
ByLayer
 62
    4
370
   -1
100
AcDbLine
 10
433.1995846932653
 20
390.4296237310232
 11
461.5374325058265
 21
354.7257538296682
  0
LINE
  5
38F
100
AcDbEntity
  8
0
  6
ByLayer
 62
    4
370
   -1
100
AcDbLine
 10
461.5374325058265
 20
354.7257538296682
 11
451.8558945581501
 21
346.1998198314906
  0
LINE
  5
390
100
AcDbEntity
  8
0
  6
ByLayer
 62
    4
370
   -1
100
AcDbLine
 10
433.1995846932653
 20
390.4296237310232
 11
393.7688659367352
 21
378.0567505511427
  0
LINE
  5
391
100
AcDbEntity
  8
0
  6
ByLayer
 62
    4
370
   -1
100
AcDbLine
 10
393.7688659367352
 20
378.0567505511427
 11
355.6288228782396
 21
372.0245439192726
  0
LINE
  5
392
100
AcDbEntity
  8
0
  6
ByLayer
 62
    4
370
   -1
100
AcDbLine
 10
355.6288228782396
 20
372.0245439192726
 11
344.4479228944492
 21
341.8147015792774
  0
LINE
  5
393
100
AcDbEntity
  8
0
  6
ByLayer
 62
    4
370
   -1
100
AcDbLine
 10
344.4479228944492
 20
341.8147015792774
 11
357.0095101300507
 21
354.5942504431142
  0
LINE
  5
394
100
AcDbEntity
  8
0
  6
ByLayer
 62
    4
370
   -1
100
AcDbLine
 10
357.0095101300507
 20
354.5942504431142
 11
371.1146168437756
 21
358.445451103293
  0
LINE
  5
395
100
AcDbEntity
  8
0
  6
ByLayer
 62
    4
370
   -1
100
AcDbLine
 10
371.1146168437756
 20
358.445451103293
 11
393.7688659367352
 21
378.0567505511427
  0
LINE
  5
396
100
AcDbEntity
  8
0
  6
ByLayer
 62
    4
370
   -1
100
AcDbLine
 10
393.7688659367352
 20
378.0567505511427
 11
374.7981741532993
 21
450.4859313638807
  0
LINE
  5
397
100
AcDbEntity
  8
0
  6
ByLayer
 62
    4
370
   -1
100
AcDbLine
 10
374.7981741532993
 20
450.4859313638807
 11
333.4525245317274
 21
408.4312974320191
  0
LINE
  5
398
100
AcDbEntity
  8
0
  6
ByLayer
 62
    4
370
   -1
100
AcDbLine
 10
333.4525245317274
 20
408.4312974320191
 11
313.7669481309171
 21
399.7806414436405
  0
LINE
  5
399
100
AcDbEntity
  8
0
  6
ByLayer
 62
    4
370
   -1
100
AcDbLine
 10
333.4525245317274
 20
408.4312974320191
 11
340.4817882380244
 21
464.2130276419813
  0
LINE
  5
39A
100
AcDbEntity
  8
0
  6
ByLayer
 62
    4
370
   -1
100
AcDbLine
 10
333.4525245317274
 20
408.4312974320191
 11
355.6288228782396
 21
372.0245439192726
  0
LINE
  5
39B
100
AcDbEntity
  8
0
  6
ByLayer
 62
    4
370
   -1
100
AcDbLine
 10
287.3639764022234
 20
259.4961852397912
 11
292.4308475226658
 21
271.5300041508415
  0
LINE
  5
39C
100
AcDbEntity
  8
0
  6
ByLayer
 62
    4
370
   -1
100
AcDbLine
 10
295.3262024486327
 20
242.4859750497352
 11
287.3639764022234
 21
259.4961852397912
  0
LINE
  5
39D
100
AcDbEntity
  8
0
  6
ByLayer
 62
    4
370
   -1
100
AcDbLine
 10
313.348821795842
 20
232.6540002451557
 11
295.3262024486327
 21
242.4859750497352
  0
LINE
  5
39E
100
AcDbEntity
  8
0
  6
ByLayer
 62
    4
370
   -1
100
AcDbLine
 10
313.348821795842
 20
232.6540002451557
 11
331.3843700923631
 21
242.4622383303646
  0
LINE
  5
39F
100
AcDbEntity
  8
0
  6
ByLayer
 62
    4
370
   -1
100
AcDbLine
 10
331.3843700923631
 20
242.4622383303646
 11
339.3689845196758
 21
259.4619508800272
  0
LINE
  5
3A0
100
AcDbEntity
  8
0
  6
ByLayer
 62
    4
370
   -1
100
AcDbLine
 10
339.3689845196758
 20
259.4619508800272
 11
334.3179612611963
 21
271.5024302964549
  0
LINE
  5
3A1
100
AcDbEntity
  8
0
  6
ByLayer
 62
    4
370
   -1
100
AcDbLine
 10
292.4308475226658
 20
271.5300041508415
 11
313.1507312116171
 21
275.1491978083002
  0
LINE
  5
3A2
100
AcDbEntity
  8
0
  6
ByLayer
 62
    4
370
   -1
100
AcDbLine
 10
334.3179612611963
 20
271.5024302964549
 11
313.1507312116171
 21
275.1491978083002
  0
ENDSEC
  0
SECTION
  2
OBJECTS
  0
DICTIONARY
  5
C
330
0
100
AcDbDictionary
281
    1
  3
ACAD_GROUP
350
D
  3
ACAD_IMAGE_DICT
350
3A3
  0
DICTIONARY
  5
D
330
C
100
AcDbDictionary
281
    1
  0
IMAGEDEF_REACTOR
  5
5E
330
5F
100
AcDbRasterImageDefReactor
 90
    2
330
5F
  0
DICTIONARY
  5
3A3
330
C
100
AcDbDictionary
281
    1
  3
geometric-wolf-head_73458-2331
350
5D
  0
IMAGEDEF
  5
5D
102
{ACAD_REACTORS
330
5E
102
}
100
AcDbRasterImageDef
 90
    0
  1
/depo/LibreCAD/Animal Head Vector/geometric-wolf-head/geometric-wolf-head_73458-2331.jpg
 10
626
 20
626
 11
1
 21
1
280
    1
281
    0
  0
PLOTSETTINGS
  5
3A4
100
AcDbPlotSettings
  6
1x1
 40
0
 41
0
 42
0
 43
0
  0
ENDSEC
  0
EOF
