999
dxfrw 0.6.3
  0
SECTION
  2
HEADER
  9
$ACADVER
  1
AC1021
  9
$DWGCODEPAGE
  3
ANSI_1252
  9
$INSBASE
 10
0
 20
0
 30
0
  9
$EXTMIN
 10
1154.201413004797
 20
302.8591465375256
 30
0
  9
$EXTMAX
 10
1922.317217439659
 20
1280.909939279593
 30
0
  9
$LIMMIN
 10
0
 20
0
  9
$LIMMAX
 10
420
 20
297
  9
$ORTHOMODE
 70
    0
  9
$REGENMODE
 70
    1
  9
$FILLMODE
 70
    1
  9
$QTEXTMODE
 70
    0
  9
$MIRRTEXT
 70
    0
  9
$LTSCALE
 40
1
  9
$ATTMODE
 70
    0
  9
$TEXTSIZE
 40
2.5
  9
$TRACEWID
 40
15.68
  9
$TEXTSTYLE
  7
STANDARD
  9
$CLAYER
  8
full
  9
$CELTYPE
  6
BYLAYER
  9
$CECOLOR
 62
  256
  9
$CELTSCALE
 40
1
  9
$DISPSILH
 70
    0
  9
$DIMSCALE
 40
2.5
  9
$DIMASZ
 40
2.5
  9
$DIMEXO
 40
0.625
  9
$DIMDLI
 40
3.75
  9
$DIMRND
 40
0
  9
$DIMDLE
 40
0
  9
$DIMEXE
 40
1.25
  9
$DIMTP
 40
0
  9
$DIMTM
 40
0
  9
$DIMTXT
 40
2.5
  9
$DIMCEN
 40
2.5
  9
$DIMTSZ
 40
0
  9
$DIMTOL
 70
    0
  9
$DIMLIM
 70
    0
  9
$DIMTIH
 70
    0
  9
$DIMTOH
 70
    0
  9
$DIMSE1
 70
    0
  9
$DIMSE2
 70
    0
  9
$DIMTAD
 70
    1
  9
$DIMZIN
 70
    8
  9
$DIMBLK
  1

  9
$DIMASO
 70
    1
  9
$DIMSHO
 70
    1
  9
$DIMPOST
  1

  9
$DIMAPOST
  1

  9
$DIMALT
 70
    0
  9
$DIMALTD
 70
    3
  9
$DIMALTF
 40
0.03937
  9
$DIMLFAC
 40
1
  9
$DIMTOFL
 70
    1
  9
$DIMTVP
 40
0
  9
$DIMTIX
 70
    0
  9
$DIMSOXD
 70
    0
  9
$DIMSAH
 70
    0
  9
$DIMBLK1
  1

  9
$DIMBLK2
  1

  9
$DIMSTYLE
  2
STANDARD
  9
$DIMCLRD
 70
    0
  9
$DIMCLRE
 70
    0
  9
$DIMCLRT
 70
    0
  9
$DIMTFAC
 40
1
  9
$DIMGAP
 40
0.625
  9
$DIMJUST
 70
    0
  9
$DIMSD1
 70
    0
  9
$DIMSD2
 70
    0
  9
$DIMTOLJ
 70
    0
  9
$DIMTZIN
 70
    8
  9
$DIMALTZ
 70
    0
  9
$DIMALTTZ
 70
    0
  9
$DIMUPT
 70
    0
  9
$DIMDEC
 70
    2
  9
$DIMTDEC
 70
    2
  9
$DIMALTU
 70
    2
  9
$DIMALTTD
 70
    3
  9
$DIMTXSTY
  7
STANDARD
  9
$DIMAUNIT
 70
    0
  9
$DIMADEC
 70
    0
  9
$DIMALTRND
 40
0
  9
$DIMAZIN
 70
    0
  9
$DIMDSEP
 70
   44
  9
$DIMATFIT
 70
    3
  9
$DIMFRAC
 70
    0
  9
$DIMLDRBLK
  1
STANDARD
  9
$DIMLUNIT
 70
    2
  9
$DIMLWD
 70
   -2
  9
$DIMLWE
 70
   -2
  9
$DIMTMOVE
 70
    0
  9
$DIMFXL
 40
1
  9
$DIMFXLON
 70
    0
  9
$DIMJOGANG
 40
0.7854
  9
$DIMTFILL
 70
    0
  9
$DIMTFILLCLR
 70
    0
  9
$DIMARCSYM
 70
    0
  9
$DIMLTYPE
  6

  9
$DIMLTEX1
  6

  9
$DIMLTEX2
  6

  9
$LUNITS
 70
    2
  9
$LUPREC
 70
    4
  9
$SKETCHINC
 40
1
  9
$FILLETRAD
 40
0
  9
$AUNITS
 70
    0
  9
$AUPREC
 70
    2
  9
$MENU
  1
.
  9
$ELEVATION
 40
0
  9
$PELEVATION
 40
0
  9
$THICKNESS
 40
0
  9
$LIMCHECK
 70
    0
  9
$CHAMFERA
 40
0
  9
$CHAMFERB
 40
0
  9
$CHAMFERC
 40
0
  9
$CHAMFERD
 40
0
  9
$SKPOLY
 70
    0
  9
$USRTIMER
 70
    1
  9
$ANGBASE
 50
0
  9
$ANGDIR
 70
    0
  9
$PDMODE
 70
   34
  9
$PDSIZE
 40
0
  9
$PLINEWID
 40
0
  9
$SPLFRAME
 70
    0
  9
$SPLINETYPE
 70
    2
  9
$SPLINESEGS
 70
    8
  9
$HANDSEED
  5
20000
  9
$SURFTAB1
 70
    6
  9
$SURFTAB2
 70
    6
  9
$SURFTYPE
 70
    6
  9
$SURFU
 70
    6
  9
$SURFV
 70
    6
  9
$UCSBASE
  2

  9
$UCSNAME
  2

  9
$UCSORG
 10
0
 20
0
 30
0
  9
$UCSXDIR
 10
1
 20
0
 30
0
  9
$UCSYDIR
 10
0
 20
1
 30
0
  9
$UCSORTHOREF
  2

  9
$UCSORTHOVIEW
 70
    0
  9
$UCSORGTOP
 10
0
 20
0
 30
0
  9
$UCSORGBOTTOM
 10
0
 20
0
 30
0
  9
$UCSORGLEFT
 10
0
 20
0
 30
0
  9
$UCSORGRIGHT
 10
0
 20
0
 30
0
  9
$UCSORGFRONT
 10
0
 20
0
 30
0
  9
$UCSORGBACK
 10
0
 20
0
 30
0
  9
$PUCSBASE
  2

  9
$PUCSNAME
  2

  9
$PUCSORG
 10
0
 20
0
 30
0
  9
$PUCSXDIR
 10
1
 20
0
 30
0
  9
$PUCSYDIR
 10
0
 20
1
 30
0
  9
$PUCSORTHOREF
  2

  9
$PUCSORTHOVIEW
 70
    0
  9
$PUCSORGTOP
 10
0
 20
0
 30
0
  9
$PUCSORGBOTTOM
 10
0
 20
0
 30
0
  9
$PUCSORGLEFT
 10
0
 20
0
 30
0
  9
$PUCSORGRIGHT
 10
0
 20
0
 30
0
  9
$PUCSORGFRONT
 10
0
 20
0
 30
0
  9
$PUCSORGBACK
 10
0
 20
0
 30
0
  9
$USERI1
 70
    0
  9
$USERI2
 70
    0
  9
$USERI3
 70
    0
  9
$USERI4
 70
    0
  9
$USERI5
 70
    0
  9
$USERR1
 40
0
  9
$USERR2
 40
0
  9
$USERR3
 40
0
  9
$USERR4
 40
0
  9
$USERR5
 40
0
  9
$WORLDVIEW
 70
    1
  9
$SHADEDGE
 70
    3
  9
$SHADEDIF
 70
   70
  9
$TILEMODE
 70
    1
  9
$MAXACTVP
 70
   64
  9
$PINSBASE
 10
0
 20
0
 30
0
  9
$PLIMCHECK
 70
    0
  9
$PEXTMIN
 10
0
 20
0
 30
0
  9
$PEXTMAX
 10
0
 20
0
 30
0
  9
$GRIDMODE
 70
    1
  9
$SNAPSTYLE
 70
    0
  9
$PLIMMIN
 10
0
 20
0
  9
$PLIMMAX
 10
297
 20
210
  9
$UNITMODE
 70
    0
  9
$VISRETAIN
 70
    1
  9
$PLINEGEN
 70
    0
  9
$PSLTSCALE
 70
    1
  9
$TREEDEPTH
 70
 3020
  9
$CMLSTYLE
  2
Standard
  9
$CMLJUST
 70
    0
  9
$CMLSCALE
 40
20
  9
$PROXYGRAPHICS
 70
    1
  9
$MEASUREMENT
 70
    1
  9
$CELWEIGHT
370
   -1
  9
$ENDCAPS
280
    0
  9
$JOINSTYLE
280
    0
  9
$LWDISPLAY
290
    0
  9
$INSUNITS
 70
    4
  9
$HYPERLINKBASE
  1

  9
$STYLESHEET
  1

  9
$XEDIT
290
    1
  9
$CEPSNTYPE
380
    0
  9
$PSTYLEMODE
290
    1
  9
$EXTNAMES
290
    1
  9
$PSVPSCALE
 40
1
  9
$OLESTARTUP
290
    0
  9
$SORTENTS
280
  127
  9
$INDEXCTL
280
    0
  9
$HIDETEXT
280
    1
  9
$XCLIPFRAME
290
    0
  9
$HALOGAP
280
    0
  9
$OBSCOLOR
 70
  257
  9
$OBSLTYPE
280
    0
  9
$INTERSECTIONDISPLAY
280
    0
  9
$INTERSECTIONCOLOR
 70
  257
  9
$DIMASSOC
280
    1
  9
$PROJECTNAME
  1

  9
$CAMERADISPLAY
290
    0
  9
$LENSLENGTH
 40
50
  9
$CAMERAHEIGHT
 40
0
  9
$STEPSPERSEC
 40
2
  9
$STEPSIZE
 40
50
  9
$3DDWFPREC
 40
2
  9
$PSOLWIDTH
 40
5
  9
$PSOLHEIGHT
 40
80
  9
$LOFTANG1
 40
1.570796326794897
  9
$LOFTANG2
 40
1.570796326794897
  9
$LOFTMAG1
 40
0
  9
$LOFTMAG2
 40
0
  9
$LOFTPARAM
 70
    7
  9
$LOFTNORMALS
280
    1
  9
$LATITUDE
 40
1
  9
$LONGITUDE
 40
1
  9
$NORTHDIRECTION
 40
0
  9
$TIMEZONE
 70
-8000
  9
$LIGHTGLYPHDISPLAY
280
    1
  9
$TILEMODELIGHTSYNCH
280
    1
  9
$SOLIDHIST
280
    1
  9
$SHOWHIST
280
    1
  9
$DWFFRAME
280
    2
  9
$DGNFRAME
280
    0
  9
$REALWORLDSCALE
290
    1
  9
$INTERFERECOLOR
 62
    1
  9
$CSHADOW
280
    0
  9
$SHADOWPLANELOCATION
 40
0
  0
ENDSEC
  0
SECTION
  2
CLASSES
  0
ENDSEC
  0
SECTION
  2
TABLES
  0
TABLE
  2
VPORT
  5
8
330
0
100
AcDbSymbolTable
 70
    1
  0
VPORT
  5
31
330
2
100
AcDbSymbolTableRecord
100
AcDbViewportTableRecord
  2
*ACTIVE
 70
    0
 10
0
 20
0
 11
1
 21
1
 12
1155.720374618881
 22
645.8607601776022
 13
0
 23
0
 14
10
 24
10
 15
10
 25
10
 16
0
 26
0
 36
1
 17
0
 27
0
 37
0
 40
1001.199923931229
 41
1.546820809248555
 42
50
 43
0
 44
0
 50
0
 51
0
 71
    0
 72
  100
 73
    1
 74
    3
 75
    0
 76
    1
 77
    0
 78
    0
281
    0
 65
    1
110
0
120
0
130
0
111
1
121
0
131
0
112
0
122
1
132
0
 79
    0
146
0
348
10020
 60
    7
 61
    5
292
1
282
    1
141
0
142
0
 63
  250
421
3358443
  0
ENDTAB
  0
TABLE
  2
LTYPE
  5
5
330
0
100
AcDbSymbolTable
 70
    4
  0
LTYPE
  5
14
330
5
100
AcDbSymbolTableRecord
100
AcDbLinetypeTableRecord
  2
ByBlock
 70
    0
  3

 72
   65
 73
    0
 40
0
  0
LTYPE
  5
15
330
5
100
AcDbSymbolTableRecord
100
AcDbLinetypeTableRecord
  2
ByLayer
 70
    0
  3

 72
   65
 73
    0
 40
0
  0
LTYPE
  5
16
330
5
100
AcDbSymbolTableRecord
100
AcDbLinetypeTableRecord
  2
Continuous
 70
    0
  3
Solid line
 72
   65
 73
    0
 40
0
  0
LTYPE
  5
32
330
5
100
AcDbSymbolTableRecord
100
AcDbLinetypeTableRecord
  2
DOT
 70
    0
  3
Dot . . . . . . . . . . . . . . . . . . . . . .
 72
   65
 73
    2
 40
6.35
 49
0
 74
    0
 49
-6.35
 74
    0
  0
LTYPE
  5
33
330
5
100
AcDbSymbolTableRecord
100
AcDbLinetypeTableRecord
  2
DOTTINY
 70
    0
  3
Dot (.15x) .....................................
 72
   65
 73
    2
 40
0.9525
 49
0
 74
    0
 49
-0.9525
 74
    0
  0
LTYPE
  5
34
330
5
100
AcDbSymbolTableRecord
100
AcDbLinetypeTableRecord
  2
DOT2
 70
    0
  3
Dot (.5x) .....................................
 72
   65
 73
    2
 40
3.175
 49
0
 74
    0
 49
-3.175
 74
    0
  0
LTYPE
  5
35
330
5
100
AcDbSymbolTableRecord
100
AcDbLinetypeTableRecord
  2
DOTX2
 70
    0
  3
Dot (2x) .  .  .  .  .  .  .  .  .  .  .  .  .
 72
   65
 73
    2
 40
12.7
 49
0
 74
    0
 49
-12.7
 74
    0
  0
LTYPE
  5
36
330
5
100
AcDbSymbolTableRecord
100
AcDbLinetypeTableRecord
  2
DASHED
 70
    0
  3
Dashed _ _ _ _ _ _ _ _ _ _ _ _ _ _ _ _ _
 72
   65
 73
    2
 40
19.05
 49
12.7
 74
    0
 49
-6.35
 74
    0
  0
LTYPE
  5
37
330
5
100
AcDbSymbolTableRecord
100
AcDbLinetypeTableRecord
  2
DASHEDTINY
 70
    0
  3
Dashed (.15x) _ _ _ _ _ _ _ _ _ _ _ _ _ _ _ _ _
 72
   65
 73
    2
 40
2.8575
 49
1.905
 74
    0
 49
-0.9525
 74
    0
  0
LTYPE
  5
38
330
5
100
AcDbSymbolTableRecord
100
AcDbLinetypeTableRecord
  2
DASHED2
 70
    0
  3
Dashed (.5x) _ _ _ _ _ _ _ _ _ _ _ _ _ _ _ _ _
 72
   65
 73
    2
 40
9.524999999999999
 49
6.35
 74
    0
 49
-3.175
 74
    0
  0
LTYPE
  5
39
330
5
100
AcDbSymbolTableRecord
100
AcDbLinetypeTableRecord
  2
DASHEDX2
 70
    0
  3
Dashed (2x) ____  ____  ____  ____  ____  ___
 72
   65
 73
    2
 40
38.09999999999999
 49
25.4
 74
    0
 49
-12.7
 74
    0
  0
LTYPE
  5
3A
330
5
100
AcDbSymbolTableRecord
100
AcDbLinetypeTableRecord
  2
DASHDOT
 70
    0
  3
Dash dot __ . __ . __ . __ . __ . __ . __ . __
 72
   65
 73
    4
 40
25.4
 49
12.7
 74
    0
 49
-6.35
 74
    0
 49
0
 74
    0
 49
-6.35
 74
    0
  0
LTYPE
  5
3B
330
5
100
AcDbSymbolTableRecord
100
AcDbLinetypeTableRecord
  2
DASHDOTTINY
 70
    0
  3
Dash dot (.15x) _._._._._._._._._._._._._._._.
 72
   65
 73
    4
 40
3.81
 49
1.905
 74
    0
 49
-0.9525
 74
    0
 49
0
 74
    0
 49
-0.9525
 74
    0
  0
LTYPE
  5
3C
330
5
100
AcDbSymbolTableRecord
100
AcDbLinetypeTableRecord
  2
DASHDOT2
 70
    0
  3
Dash dot (.5x) _._._._._._._._._._._._._._._.
 72
   65
 73
    4
 40
12.7
 49
6.35
 74
    0
 49
-3.175
 74
    0
 49
0
 74
    0
 49
-3.175
 74
    0
  0
LTYPE
  5
3D
330
5
100
AcDbSymbolTableRecord
100
AcDbLinetypeTableRecord
  2
DASHDOTX2
 70
    0
  3
Dash dot (2x) ____  .  ____  .  ____  .  ___
 72
   65
 73
    4
 40
50.8
 49
25.4
 74
    0
 49
-12.7
 74
    0
 49
0
 74
    0
 49
-12.7
 74
    0
  0
LTYPE
  5
3E
330
5
100
AcDbSymbolTableRecord
100
AcDbLinetypeTableRecord
  2
DIVIDE
 70
    0
  3
Divide ____ . . ____ . . ____ . . ____ . . ____
 72
   65
 73
    6
 40
31.75
 49
12.7
 74
    0
 49
-6.35
 74
    0
 49
0
 74
    0
 49
-6.35
 74
    0
 49
0
 74
    0
 49
-6.35
 74
    0
  0
LTYPE
  5
3F
330
5
100
AcDbSymbolTableRecord
100
AcDbLinetypeTableRecord
  2
DIVIDETINY
 70
    0
  3
Divide (.15x) __..__..__..__..__..__..__..__.._
 72
   65
 73
    6
 40
4.7625
 49
1.905
 74
    0
 49
-0.9525
 74
    0
 49
0
 74
    0
 49
-0.9525
 74
    0
 49
0
 74
    0
 49
-0.9525
 74
    0
  0
LTYPE
  5
40
330
5
100
AcDbSymbolTableRecord
100
AcDbLinetypeTableRecord
  2
DIVIDE2
 70
    0
  3
Divide (.5x) __..__..__..__..__..__..__..__.._
 72
   65
 73
    6
 40
15.875
 49
6.35
 74
    0
 49
-3.175
 74
    0
 49
0
 74
    0
 49
-3.175
 74
    0
 49
0
 74
    0
 49
-3.175
 74
    0
  0
LTYPE
  5
41
330
5
100
AcDbSymbolTableRecord
100
AcDbLinetypeTableRecord
  2
DIVIDEX2
 70
    0
  3
Divide (2x) ________  .  .  ________  .  .  _
 72
   65
 73
    6
 40
63.5
 49
25.4
 74
    0
 49
-12.7
 74
    0
 49
0
 74
    0
 49
-12.7
 74
    0
 49
0
 74
    0
 49
-12.7
 74
    0
  0
LTYPE
  5
42
330
5
100
AcDbSymbolTableRecord
100
AcDbLinetypeTableRecord
  2
BORDER
 70
    0
  3
Border __ __ . __ __ . __ __ . __ __ . __ __ .
 72
   65
 73
    6
 40
44.45
 49
12.7
 74
    0
 49
-6.35
 74
    0
 49
12.7
 74
    0
 49
-6.35
 74
    0
 49
0
 74
    0
 49
-6.35
 74
    0
  0
LTYPE
  5
43
330
5
100
AcDbSymbolTableRecord
100
AcDbLinetypeTableRecord
  2
BORDERTINY
 70
    0
  3
Border (.15x) __.__.__.__.__.__.__.__.__.__.__.
 72
   65
 73
    6
 40
6.6675
 49
1.905
 74
    0
 49
-0.9525
 74
    0
 49
1.905
 74
    0
 49
-0.9525
 74
    0
 49
0
 74
    0
 49
-0.9525
 74
    0
  0
LTYPE
  5
44
330
5
100
AcDbSymbolTableRecord
100
AcDbLinetypeTableRecord
  2
BORDER2
 70
    0
  3
Border (.5x) __.__.__.__.__.__.__.__.__.__.__.
 72
   65
 73
    6
 40
22.225
 49
6.35
 74
    0
 49
-3.175
 74
    0
 49
6.35
 74
    0
 49
-3.175
 74
    0
 49
0
 74
    0
 49
-3.175
 74
    0
  0
LTYPE
  5
45
330
5
100
AcDbSymbolTableRecord
100
AcDbLinetypeTableRecord
  2
BORDERX2
 70
    0
  3
Border (2x) ____  ____  .  ____  ____  .  ___
 72
   65
 73
    6
 40
88.89999999999999
 49
25.4
 74
    0
 49
-12.7
 74
    0
 49
25.4
 74
    0
 49
-12.7
 74
    0
 49
0
 74
    0
 49
-12.7
 74
    0
  0
LTYPE
  5
46
330
5
100
AcDbSymbolTableRecord
100
AcDbLinetypeTableRecord
  2
CENTER
 70
    0
  3
Center ____ _ ____ _ ____ _ ____ _ ____ _ ____
 72
   65
 73
    4
 40
50.8
 49
31.75
 74
    0
 49
-6.35
 74
    0
 49
6.35
 74
    0
 49
-6.35
 74
    0
  0
LTYPE
  5
47
330
5
100
AcDbSymbolTableRecord
100
AcDbLinetypeTableRecord
  2
CENTERTINY
 70
    0
  3
Center (.15x) ___ _ ___ _ ___ _ ___ _ ___ _ ___
 72
   65
 73
    4
 40
7.619999999999999
 49
4.7625
 74
    0
 49
-0.9525
 74
    0
 49
0.9525
 74
    0
 49
-0.9525
 74
    0
  0
LTYPE
  5
48
330
5
100
AcDbSymbolTableRecord
100
AcDbLinetypeTableRecord
  2
CENTER2
 70
    0
  3
Center (.5x) ___ _ ___ _ ___ _ ___ _ ___ _ ___
 72
   65
 73
    4
 40
28.575
 49
19.05
 74
    0
 49
-3.175
 74
    0
 49
3.175
 74
    0
 49
-3.175
 74
    0
  0
LTYPE
  5
49
330
5
100
AcDbSymbolTableRecord
100
AcDbLinetypeTableRecord
  2
CENTERX2
 70
    0
  3
Center (2x) ________  __  ________  __  _____
 72
   65
 73
    4
 40
101.6
 49
63.5
 74
    0
 49
-12.7
 74
    0
 49
12.7
 74
    0
 49
-12.7
 74
    0
  0
ENDTAB
  0
TABLE
  2
LAYER
  5
2
330
0
100
AcDbSymbolTable
 70
    1
  0
LAYER
  5
10
330
2
100
AcDbSymbolTableRecord
100
AcDbLayerTableRecord
  2
0
 70
    1
 62
    3
  6
CONTINUOUS
370
  200
390
F
  0
LAYER
  5
4A
330
2
100
AcDbSymbolTableRecord
100
AcDbLayerTableRecord
  2
full
 70
    0
 62
    4
  6
CONTINUOUS
370
    0
390
F
  0
LAYER
  5
4B
330
2
100
AcDbSymbolTableRecord
100
AcDbLayerTableRecord
  2
ref
 70
    1
 62
    7
  6
CONTINUOUS
370
    0
390
F
1001
LibreCad
1070
    1
  0
ENDTAB
  0
TABLE
  2
STYLE
  5
3
330
0
100
AcDbSymbolTable
 70
    3
  0
STYLE
  5
4C
330
2
100
AcDbSymbolTableRecord
100
AcDbTextStyleTableRecord
  2
Standard
 70
    0
 40
0
 41
1
 50
0
 71
    0
 42
1
  3
txt
  4

  0
ENDTAB
  0
TABLE
  2
VIEW
  5
6
330
0
100
AcDbSymbolTable
 70
    0
  0
ENDTAB
  0
TABLE
  2
UCS
  5
7
330
0
100
AcDbSymbolTable
 70
    0
  0
ENDTAB
  0
TABLE
  2
APPID
  5
9
330
0
100
AcDbSymbolTable
 70
    1
  0
APPID
  5
12
330
9
100
AcDbSymbolTableRecord
100
AcDbRegAppTableRecord
  2
ACAD
 70
    0
  0
APPID
  5
4D
330
9
100
AcDbSymbolTableRecord
100
AcDbRegAppTableRecord
  2
LibreCad
 70
    0
  0
ENDTAB
  0
TABLE
  2
DIMSTYLE
  5
A
330
0
100
AcDbSymbolTable
 70
    1
100
AcDbDimStyleTable
 71
    1
  0
DIMSTYLE
105
4E
330
A
100
AcDbSymbolTableRecord
100
AcDbDimStyleTableRecord
  2
Standard
 70
    0
 40
2.5
 41
2.5
 42
0.625
 43
0.38
 44
1.25
 45
0
 46
0
 47
0
 48
0
 49
1
140
2.5
141
0.09
142
0
143
25.4
144
1
145
0
146
1
147
0.625
148
0
 71
    0
 72
    0
 73
    0
 74
    1
 75
    0
 76
    0
 77
    0
 78
    8
 79
    0
170
    0
171
    2
172
    0
173
    0
174
    0
175
    0
176
    0
177
    0
178
    0
179
    0
271
    2
272
    4
273
    2
274
    2
275
    0
276
    0
277
    2
278
   44
279
    0
280
    0
281
    0
282
    0
283
    1
284
    0
285
    0
286
    0
288
    0
289
    3
340
STANDARD
341

371
   -2
372
   -2
  0
ENDTAB
  0
TABLE
  2
BLOCK_RECORD
  5
1
330
0
100
AcDbSymbolTable
 70
    2
  0
BLOCK_RECORD
  5
1F
330
1
100
AcDbSymbolTableRecord
100
AcDbBlockTableRecord
  2
*Model_Space
 70
    0
280
    1
281
    0
  0
BLOCK_RECORD
  5
1E
330
1
100
AcDbSymbolTableRecord
100
AcDbBlockTableRecord
  2
*Paper_Space
 70
    0
280
    1
281
    0
  0
BLOCK_RECORD
  5
4F
330
1
100
AcDbSymbolTableRecord
100
AcDbBlockTableRecord
  2
tarama
 70
    0
280
    1
281
    0
  0
ENDTAB
  0
ENDSEC
  0
SECTION
  2
BLOCKS
  0
BLOCK
  5
20
330
1F
100
AcDbEntity
  8
0
100
AcDbBlockBegin
  2
*Model_Space
 70
    0
 10
0
 20
0
 30
0
  3
*Model_Space
  1

  0
ENDBLK
  5
21
330
1F
100
AcDbEntity
  8
0
100
AcDbBlockEnd
  0
BLOCK
  5
1C
330
1B
100
AcDbEntity
  8
0
100
AcDbBlockBegin
  2
*Paper_Space
 70
    0
 10
0
 20
0
 30
0
  3
*Paper_Space
  1

  0
ENDBLK
  5
1D
330
1F
100
AcDbEntity
  8
0
100
AcDbBlockEnd
  0
BLOCK
  5
50
330
4F
100
AcDbEntity
  8
0
100
AcDbBlockBegin
  2
tarama
 70
    0
 10
0
 20
0
  3
tarama
  1

  0
HATCH
  5
52
100
AcDbEntity
  8
full
  6
ByLayer
 62
  256
370
   -1
100
AcDbHatch
 10
0
 20
0
 30
0
210
0
220
0
230
1
  2
SOLID
 70
    1
 71
    0
 91
    1
 92
    0
 93
    9
 72
    2
 10
-126.1673591244862
 20
265.9082641086295
 40
102.0957796829776
 50
282.2188146634383
 51
317.0042496710437
 73
    1
 72
    2
 10
-46.65809787996523
 20
191.3481626587488
 40
6.910535510836048
 50
225.5892967743267
 51
333.2329717559721
 73
    0
 72
    2
 10
-18.3244968992683
 20
216.4356611559975
 40
31.21113334469207
 50
224.7555472487039
 51
297.0768911498481
 73
    1
 72
    2
 10
-11.80079114768228
 20
226.2972403923835
 40
38.42777196471994
 50
78.46668502739486
 51
140.7178787547083
 73
    0
 72
    2
 10
-49.95795371852728
 20
188.0546013189587
 40
16.25822356869383
 50
58.83948198703692
 51
128.7467322037192
 73
    1
 72
    2
 10
-134.8069249196212
 20
270.3583339117357
 40
102.0957796829776
 50
42.99575032895633
 51
75.07342276565208
 73
    0
 72
    2
 10
-105.9331786512003
 20
162.045035563096
 40
10
 50
104.9265772343481
 51
173.3055117612469
 73
    1
 72
    2
 10
-98.84134147411328
 20
161.2126277945548
 40
17.1405221965509
 50
173.3055117612469
 51
217.8221640213171
 73
    1
 72
    2
 10
-100.9401081229983
 20
154.5948941090112
 40
12.0850578900223
 50
161.207752218323
 51
252.5742212362124
 73
    0
 97
    0
 75
    0
 76
    1
 98
    0
  0
HATCH
  5
53
100
AcDbEntity
  8
full
  6
ByLayer
 62
  256
370
   -1
100
AcDbHatch
 10
0
 20
0
 30
0
210
0
220
0
230
1
  2
SOLID
 70
    1
 71
    0
 91
    1
 92
    0
 93
    8
 72
    2
 10
-257.1740162180672
 20
101.9046541893213
 40
61.87986723674573
 50
258.9446439098467
 51
336.3044795271023
 73
    0
 72
    2
 10
-144.7128118389132
 20
160.6407757338441
 40
65.27237948040569
 50
211.2566860277726
 51
247.9804316578536
 73
    1
 72
    2
 10
-214.7980828895884
 20
36.26165213032289
 40
78.48361339606626
 50
305.5336100034075
 51
320.3510609995893
 73
    0
 72
    2
 10
-199.2920599549434
 20
25.09840261432964
 40
75.95238917218185
 50
53.73829958764583
 51
78.70675895895258
 73
    1
 72
    2
 10
-174.6071754617253
 20
136.0034008418741
 40
37.72145643781828
 50
105.0755901648588
 51
137.0515625632825
 73
    0
 72
    2
 10
-125.6942066200972
 20
180.4104042678438
 40
103.7836615972524
 50
137.5053074160338
 51
152.5578480486884
 73
    0
 72
    2
 10
-266.1519437228333
 20
101.5542250714602
 40
57.45100907823093
 50
32.68795374253497
 51
76.34889096403305
 73
    1
 72
    2
 10
-289.7949215741874
 20
69.29405043665724
 40
95.62176722992386
 50
67.10441332286585
 51
77.46400126438022
 73
    1
 97
    0
 75
    0
 76
    1
 98
    0
  0
HATCH
  5
54
100
AcDbEntity
  8
full
  6
ByLayer
 62
  256
370
   -1
100
AcDbHatch
 10
0
 20
0
 30
0
210
0
220
0
230
1
  2
SOLID
 70
    1
 71
    0
 91
    1
 92
    0
 93
    6
 72
    2
 10
125.9270793438668
 20
74.26048615688535
 40
230.3785518008506
 50
177.5384367112331
 51
202.1784330217712
 73
    1
 72
    2
 10
-55.68677413404134
 20
22.64139467999325
 40
47.49259561727585
 50
228.0959154112346
 51
250.6027486746602
 73
    1
 72
    2
 10
-75.67893915061131
 20
0.7811005653219354
 40
23.32137478420174
 50
79.57710631948554
 51
121.0325866180467
 73
    0
 72
    2
 10
-44.60185555474436
 20
-4.3139491394179
 40
45.59892897353747
 50
199.0569889235846
 51
252.6879253222194
 73
    1
 72
    2
 10
-60.87798645540238
 20
-7.529556532077322
 40
40.40837690625838
 50
86.15884593900439
 51
173.0625305410486
 73
    0
 72
    2
 10
242.8336891572417
 20
47.49295268628669
 40
349.0035625647826
 50
170.1167632415061
 51
186.0299278535655
 73
    0
 97
    0
 75
    0
 76
    1
 98
    0
  0
HATCH
  5
55
100
AcDbEntity
  8
full
  6
ByLayer
 62
  256
370
   -1
100
AcDbHatch
 10
0
 20
0
 30
0
210
0
220
0
230
1
  2
SOLID
 70
    1
 71
    0
 91
    1
 92
    0
 93
    3
 72
    2
 10
-845.6258690052269
 20
-420.2980398050536
 40
837.0727404260558
 50
334.990719804304
 51
351.2388575253694
 73
    0
 72
    2
 10
-610.0522136047351
 20
-332.4083942264874
 40
593.0562622413735
 50
3.829573767815703
 51
15.21730159817291
 73
    1
 72
    2
 10
-275.6447430403953
 20
-216.7569691510601
 40
241.1969492330225
 50
9.549460655167923
 51
38.55933420245646
 73
    1
 97
    0
 75
    0
 76
    1
 98
    0
  0
HATCH
  5
56
100
AcDbEntity
  8
full
  6
ByLayer
 62
  256
370
   -1
100
AcDbHatch
 10
0
 20
0
 30
0
210
0
220
0
230
1
  2
SOLID
 70
    1
 71
    0
 91
    1
 92
    0
 93
    6
 72
    2
 10
-73.07396769749926
 20
99.69910322558542
 40
6.232616796826831
 50
0
 51
360
 73
    1
 72
    2
 10
-85.44978110973125
 20
91.70630989499784
 40
13.49340851640162
 50
235.2086201410361
 51
281.2688973087427
 73
    0
 72
    2
 10
-72.81516958190127
 20
95.1759841874125
 40
13.97440605751932
 50
135.6790608845059
 51
320.6031987867668
 73
    1
 72
    2
 10
-539.0175457312263
 20
-124.4789702970436
 40
521.4986674361285
 50
336.1594980645992
 51
343.5228360477935
 73
    0
 72
    2
 10
-333.8987744856893
 20
-27.25013318414312
 40
299.2865629231371
 50
9.750282166970393
 51
26.24731634339285
 73
    1
 72
    2
 10
-78.61719398894934
 20
95.68774257431278
 40
16.17345079575791
 50
35.62473467623502
 51
153.961156758811
 73
    1
 97
    0
 75
    0
 76
    1
 98
    0
  0
HATCH
  5
57
100
AcDbEntity
  8
full
  6
ByLayer
 62
  256
370
   -1
100
AcDbHatch
 10
0
 20
0
 30
0
210
0
220
0
230
1
  2
SOLID
 70
    1
 71
    0
 91
    1
 92
    0
 93
    6
 72
    2
 10
71.82206890575071
 20
100.6047034543557
 40
6.232616796826831
 50
0
 51
360
 73
    1
 72
    2
 10
84.29682150938061
 20
92.76722616136715
 40
13.49340851640162
 50
55.92480805968314
 51
101.9850852273898
 73
    1
 72
    2
 10
71.61982778747461
 20
96.07870292097095
 40
13.97440605751932
 50
314.9628729658588
 51
139.8870108681198
 73
    0
 72
    2
 10
540.5313629806935
 20
-117.7317896175946
 40
521.4986674361285
 50
156.8756859832463
 51
164.2390239664406
 73
    1
 72
    2
 10
334.2133030224647
 20
-23.07443269971759
 40
299.2865629231371
 50
189.0340942483233
 51
205.5311284247458
 73
    0
 72
    2
 10
77.41500219910768
 20
96.66294380048794
 40
16.17345079575791
 50
214.908546757588
 51
333.2449688401639
 73
    0
 97
    0
 75
    0
 76
    1
 98
    0
  0
HATCH
  5
58
100
AcDbEntity
  8
full
  6
ByLayer
 62
  256
370
   -1
100
AcDbHatch
 10
0
 20
0
 30
0
210
0
220
0
230
1
  2
SOLID
 70
    1
 71
    0
 91
    1
 92
    0
 93
    3
 72
    2
 10
850.8133273466826
 20
-409.695294827855
 40
837.0727404260558
 50
155.706907722951
 51
171.9550454440164
 73
    1
 72
    2
 10
614.1594977625907
 20
-324.7570710304422
 40
593.0562622413735
 50
183.1133858491687
 51
194.5011136795259
 73
    0
 72
    2
 10
278.3325654161727
 20
-213.2946109732069
 40
241.1969492330225
 50
188.8332727365209
 51
217.8431462838093
 73
    0
 97
    0
 75
    0
 76
    1
 98
    0
  0
HATCH
  5
59
100
AcDbEntity
  8
full
  6
ByLayer
 62
  256
370
   -1
100
AcDbHatch
 10
0
 20
0
 30
0
210
0
220
0
230
1
  2
SOLID
 70
    1
 71
    0
 91
    1
 92
    0
 93
    6
 72
    2
 10
-126.8454614934503
 20
72.68065777665231
 40
230.3785518008506
 50
356.822248792586
 51
21.46224510312415
 73
    0
 72
    2
 10
55.39941739618575
 20
23.33568337705719
 40
47.49259561727585
 50
47.37972749258758
 51
69.88656075601318
 73
    0
 72
    2
 10
75.66326358875176
 20
1.72698933244294
 40
23.32137478420174
 50
260.2932942381326
 51
301.7487745366937
 73
    1
 72
    2
 10
44.65229342879275
 20
-3.756110708270853
 40
45.59892897353747
 50
18.34080100493756
 51
71.97173740357236
 73
    0
 72
    2
 10
60.96734632874177
 20
-6.768023202176437
 40
40.40837690625838
 50
266.8750338576514
 51
353.7787184596957
 73
    1
 72
    2
 10
-243.4083572358822
 20
44.45393989632987
 40
349.0035625647826
 50
350.8329511601531
 51
6.74611577221259
 73
    1
 97
    0
 75
    0
 76
    1
 98
    0
  0
HATCH
  5
5A
100
AcDbEntity
  8
full
  6
ByLayer
 62
  256
370
   -1
100
AcDbHatch
 10
0
 20
0
 30
0
210
0
220
0
230
1
  2
SOLID
 70
    1
 71
    0
 91
    1
 92
    0
 93
    8
 72
    2
 10
255.8801668616757
 20
105.1112428335693
 40
61.87986723674573
 50
79.66083182849377
 51
157.0206674457493
 73
    1
 72
    2
 10
142.6935753302428
 20
162.437065653651
 40
65.27237948040569
 50
30.54049810912551
 51
67.26424373920655
 73
    0
 72
    2
 10
214.3280494984137
 20
38.94369045774772
 40
78.48361339606626
 50
126.2497979220545
 51
141.0672489182363
 73
    1
 72
    2
 10
198.9627730928496
 20
27.58749532087813
 40
75.95238917218185
 50
233.0221116689988
 51
257.9905710403056
 73
    0
 72
    2
 10
172.8935587037747
 20
138.1752804304081
 40
37.72145643781828
 50
285.7917780835059
 51
317.7677504819296
 73
    1
 72
    2
 10
123.4293451780077
 20
181.9674264665817
 40
103.7836615972524
 50
318.2214953346809
 51
333.2740359673355
 73
    1
 72
    2
 10
264.8617731861248
 20
104.8730608021408
 40
57.45100907823093
 50
211.9717658238879
 51
255.632703045386
 73
    0
 72
    2
 10
288.9061404334948
 20
72.91093207420499
 40
95.62176722992386
 50
246.3882254042188
 51
256.7478133457332
 73
    0
 97
    0
 75
    0
 76
    1
 98
    0
  0
HATCH
  5
5B
100
AcDbEntity
  8
full
  6
ByLayer
 62
  256
370
   -1
100
AcDbHatch
 10
0
 20
0
 30
0
210
0
220
0
230
1
  2
SOLID
 70
    1
 71
    0
 91
    1
 92
    0
 93
    9
 72
    2
 10
122.8337792161637
 20
267.4645212232583
 40
102.0957796829776
 50
101.5026267447912
 51
136.2880617523966
 73
    0
 72
    2
 10
44.26269425328974
 20
191.9164176095817
 40
6.910535510836048
 50
46.30548469297378
 51
153.9491596746192
 73
    1
 72
    2
 10
15.61772526676668
 20
216.6478000445351
 40
31.21113334469207
 50
44.03935933005684
 51
116.360703231201
 73
    0
 72
    2
 10
8.971264234365663
 20
226.4270657385213
 40
38.42777196471994
 50
259.1828729460419
 51
321.4340666733553
 73
    1
 72
    2
 10
47.60346020930979
 20
188.6643601560077
 40
16.25822356869383
 50
238.1232940683899
 51
308.0305442850722
 73
    0
 72
    2
 10
131.4170463718476
 20
272.0222337323072
 40
102.0957796829776
 50
223.7119382476034
 51
255.7896106842991
 73
    1
 72
    2
 10
103.8994191208117
 20
163.356489299171
 40
10
 50
284.210389315701
 51
352.5893238425998
 73
    0
 72
    2
 10
96.81854066253663
 20
162.4355020579088
 40
17.1405221965509
 50
352.5893238425999
 51
37.10597610267008
 73
    0
 72
    2
 10
98.99986179156167
 20
155.8445189209772
 40
12.0850578900223
 50
341.9239401369701
 51
73.29040915485946
 73
    1
 97
    0
 75
    0
 76
    1
 98
    0
  0
HATCH
  5
5C
100
AcDbEntity
  8
full
  6
ByLayer
 62
  256
370
   -1
100
AcDbHatch
 10
0
 20
0
 30
0
210
0
220
0
230
1
  2
escher
 70
    0
 71
    0
 91
    1
 92
    0
 93
   18
 72
    2
 10
128.8700780264417
 20
266.0330989067177
 40
89.4676789931782
 50
226.9303419485721
 51
260.5229546644056
 73
    1
 72
    2
 10
-48.76026881832036
 20
675.2554120108732
 40
523.4610639645422
 50
288.1313545888483
 51
314.6640321517934
 73
    1
 72
    2
 10
128.4579132660008
 20
466.6890958118001
 40
251.3876481864399
 50
319.3567602595276
 51
359.8010222315801
 73
    1
 72
    2
 10
203.9262513047047
 20
486.2507570644382
 40
177.1006679480376
 50
353.3741935651066
 51
57.03614348853142
 73
    1
 72
    2
 10
297.6313009524208
 20
628.3223453245002
 40
7.03913401050719
 50
67.82197160947757
 51
232.826348038265
 73
    1
 72
    2
 10
217.2609267749388
 20
518.4684725430332
 40
129.0768768841302
 50
306.135977491474
 51
354.2154565555588
 73
    0
 72
    2
 10
95.79596320014662
 20
497.5287107315912
 40
252.1801823631569
 50
352.2632031586534
 51
11.13501639025234
 73
    0
 72
    2
 10
151.4425105095147
 20
431.2094691304271
 40
192.5937967633068
 50
5.248549527050853
 51
42.94888962054483
 73
    1
 72
    2
 10
289.5384171832077
 20
557.1645045224811
 40
6.001569619368145
 50
61.37292395736333
 51
202.3484460661559
 73
    1
 72
    2
 10
123.8006878321166
 20
432.4258604428082
 40
201.6320433519151
 50
322.6035104923044
 51
10.88884068370158
 73
    0
 72
    2
 10
136.4188164906257
 20
460.9160293284092
 40
196.9768926372204
 50
19.75541502641897
 51
86.97798014950025
 73
    0
 72
    2
 10
-120.5097580787133
 20
404.7025486103112
 40
301.9828034364472
 50
332.275314875156
 51
9.90770344799242
 73
    1
 72
    2
 10
142.6486476394928
 20
449.4718351095601
 40
35.06580343947983
 50
11.8325911081633
 51
49.01307600231423
 73
    1
 72
    2
 10
161.2741836278476
 20
472.4108007458133
 40
5.620972071137816
 50
38.9133465098983
 51
215.8984749923472
 73
    1
 72
    2
 10
-17.53902078847818
 20
415.3406235140221
 40
182.3682761107689
 50
342.8504609588326
 51
17.54383626529829
 73
    0
 72
    2
 10
-237.1835708243243
 20
501.0732283726882
 40
417.9281292004928
 50
19.6742664935789
 51
42.45949427043314
 73
    0
 72
    1
 10
71.14489861660968
 20
218.9429816616437
 11
67.28244436145974
 21
214.7928953029059
 72
    2
 10
74.60263247706166
 20
207.9800511132737
 40
10
 50
137.0559062141668
 51
226.9303419485721
 73
    1
 97
    0
 75
    0
 76
    1
 52
0
 41
0
 77
    0
 78
    0
 98
    0
  0
HATCH
  5
5D
100
AcDbEntity
  8
full
  6
ByLayer
 62
  256
370
   -1
100
AcDbHatch
 10
0
 20
0
 30
0
210
0
220
0
230
1
  2
escher
 70
    0
 71
    0
 91
    1
 92
    0
 93
   12
 72
    2
 10
-128.8805013257083
 20
111.6064086976753
 40
28.15122167999664
 50
46.96170564000376
 51
141.6703493997277
 73
    0
 72
    2
 10
-93.70219161684827
 20
146.7746305670262
 40
77.77224654816413
 50
137.4149862266398
 51
165.1731086865577
 73
    0
 72
    2
 10
-264.4098957781773
 20
57.27492013738038
 40
118.1900402522082
 50
36.07641848829237
 51
99.38516018009466
 73
    1
 72
    2
 10
-155.4933135441772
 20
197.1687696795542
 40
130.2876699225995
 50
190.2955868169777
 51
248.1669577910616
 73
    1
 72
    2
 10
-187.1513930299932
 20
113.0740207792985
 40
40.49519601568377
 50
245.4949601100558
 51
289.6109426052972
 73
    1
 72
    2
 10
-153.2206251576683
 20
2.145397977914399
 40
75.57094356336918
 50
254.3867903741459
 51
303.2863918906709
 73
    0
 72
    2
 10
-130.1280021575442
 20
-23.47739828273006
 40
90.6782278773161
 50
78.30377213346733
 51
113.2368093603492
 73
    1
 72
    2
 10
-178.8535899230144
 20
148.8903099937977
 40
89.98186927397231
 50
81.72531710513218
 51
114.2349103852048
 73
    0
 72
    2
 10
-85.4539775507053
 20
246.0468504236012
 40
221.5917458582233
 50
126.0277765344704
 51
162.6202420315486
 73
    0
 72
    2
 10
-237.5820650868513
 20
39.43932233749172
 40
152.4437122087849
 50
247.0887422839201
 51
292.9112577160799
 73
    0
 72
    2
 10
-241.4080892702573
 20
-0.821151376586613
 40
191.4034680978609
 50
289.2719371382562
 51
312.1169591685
 73
    0
 72
    2
 10
-30.33456170003933
 20
121.5515708334437
 40
85.00153513699453
 50
166.6643562077005
 51
201.0426046995036
 73
    1
 97
    0
 75
    0
 76
    1
 52
0
 41
0
 77
    0
 78
    0
 98
    0
  0
HATCH
  5
5E
100
AcDbEntity
  8
full
  6
ByLayer
 62
  256
370
   -1
100
AcDbHatch
 10
0
 20
0
 30
0
210
0
220
0
230
1
  2
escher
 70
    0
 71
    0
 91
    1
 92
    0
 93
   12
 72
    2
 10
127.4754073143076
 20
113.2086331266753
 40
28.15122167999664
 50
227.6778935586508
 51
322.3865373183747
 73
    1
 72
    2
 10
91.86026020148779
 20
147.9343958908908
 40
77.77224654816413
 50
318.1311741452868
 51
345.8892966052048
 73
    1
 72
    2
 10
263.6733310254147
 20
60.57544030490249
 40
118.1900402522082
 50
215.3602305696454
 51
278.6689722614476
 73
    0
 72
    2
 10
153.0166527526258
 20
199.096956968909
 40
130.2876699225995
 50
9.579398898330648
 51
67.45076987241454
 73
    0
 72
    2
 10
185.7234023485587
 20
115.4044882504143
 40
40.49519601568377
 50
64.77877219140871
 51
108.8947546866501
 73
    0
 72
    2
 10
153.1818388366958
 20
4.060413377879058
 40
75.57094356336918
 50
75.10297829279298
 51
124.002579809318
 73
    1
 72
    2
 10
130.4112923198886
 20
-21.84902769224618
 40
90.6782278773161
 50
257.5875842148203
 51
292.5206214417021
 73
    0
 72
    2
 10
176.9785613546837
 20
151.114260939283
 40
89.98186927397231
 50
262.4415050237793
 51
294.9510983038518
 73
    1
 72
    2
 10
82.37183622456064
 20
247.0957617596964
 40
221.5917458582233
 50
306.7439644531174
 51
343.3364299501957
 73
    1
 72
    2
 10
237.0705324405428
 20
42.40590107203764
 40
152.4437122087849
 50
67.80493020256719
 51
113.6274456347269
 73
    1
 72
    2
 10
241.3994939912448
 20
2.196396018797486
 40
191.4034680978609
 50
109.9881250569032
 51
132.8331470871471
 73
    1
 72
    2
 10
28.81285661859465
 20
121.9212421979353
 40
85.00153513699453
 50
345.9481682890535
 51
20.32641678085659
 73
    0
 97
    0
 75
    0
 76
    1
 52
0
 41
0
 77
    0
 78
    0
 98
    0
  0
HATCH
  5
5F
100
AcDbEntity
  8
full
  6
ByLayer
 62
  256
370
   -1
100
AcDbHatch
 10
0
 20
0
 30
0
210
0
220
0
230
1
  2
escher
 70
    0
 71
    0
 91
    1
 92
    0
 93
   20
 72
    2
 10
0.9794708886986427
 20
0.6141491772895051
 40
66.22389369427846
 50
238.3598620134899
 51
269.5073369161166
 73
    1
 72
    2
 10
-0.9870709353742768
 20
0.6018582908890266
 40
66.22389369427846
 50
271.2088510025304
 51
302.3563259051571
 73
    1
 72
    2
 10
9.275346412225645
 20
-74.04245941180397
 40
31.36548986474726
 50
36.60390821571147
 51
83.22557566930936
 73
    1
 72
    2
 10
17.49809447866278
 20
-73.35313375375688
 40
30.79116628284558
 50
261.5533764107651
 51
310.5888501576388
 73
    0
 72
    2
 10
6.576078548381702
 20
-23.08198191558938
 40
41.00284313801996
 50
319.0219955461432
 51
11.17609544670348
 73
    1
 72
    2
 10
15.7801266494987
 20
-17.18198148468116
 40
31.08871084948048
 50
3.776004094769379
 51
65.71535879977836
 73
    1
 72
    2
 10
20.43256768476476
 20
-10.16894933910191
 40
22.82317578370087
 50
69.1227859949131
 51
153.5412332470669
 73
    1
 72
    2
 10
-6.880987196187334
 20
-26.56670357538508
 40
38.84083131956979
 50
126.179767491639
 51
154.4603090525716
 73
    1
 72
    2
 10
-30.06378549604324
 20
-14.35349644869507
 40
12.69916436401902
 50
159.0893327074648
 51
263.2724722206133
 73
    1
 72
    2
 10
-29.11066196183128
 20
-17.73000565069003
 40
9.552314708947723
 50
255.1956224048646
 51
46.77120890740397
 73
    1
 72
    2
 10
-13.29685940144327
 20
3.009126868944918
 40
16.60782937911244
 50
123.9347523834588
 51
186.1362996271876
 73
    0
 72
    2
 10
7.212520463237752
 20
-26.47861915251372
 40
38.84083131956979
 50
305.4635795729919
 51
333.7441211339245
 73
    0
 72
    2
 10
30.24084855188562
 20
-13.97659248589548
 40
12.69916436401902
 50
338.3731447888177
 51
82.5562843019663
 73
    0
 72
    2
 10
29.33000419394466
 20
-17.36475148721649
 40
9.552314708947723
 50
74.4794344862175
 51
226.0550209887569
 73
    0
 72
    2
 10
13.25820800826182
 20
3.175096040255653
 40
16.60782937911244
 50
304.6509403021059
 51
6.8524875458346
 73
    1
 72
    2
 10
-20.30386455114126
 20
-10.42355204057628
 40
22.82317578370087
 50
27.17495467158016
 51
111.5934019237339
 73
    1
 72
    2
 10
-15.56412749601236
 20
-17.37788307309063
 40
31.08871084948048
 50
115.0008291188687
 51
176.9401838238777
 73
    1
 72
    2
 10
-6.287051308425362
 20
-23.16237647719447
 40
41.00284313801996
 50
169.5400924719436
 51
221.6941923725039
 73
    1
 72
    2
 10
-16.57984913706832
 20
-73.56612090135525
 40
30.79116628284558
 50
228.6949619237141
 51
277.7304356705878
 73
    0
 72
    2
 10
-8.349127213576367
 20
-74.15261237196523
 40
31.36548986474726
 50
97.49061224933772
 51
144.1122797029356
 73
    1
 97
    0
 75
    0
 76
    1
 52
0
 41
0.5
 77
    0
 78
    0
 98
    0
  0
HATCH
  5
60
100
AcDbEntity
  8
full
  6
ByLayer
 62
  256
370
   -1
100
AcDbHatch
 10
0
 20
0
 30
0
210
0
220
0
230
1
  2
escher
 70
    0
 71
    0
 91
    1
 92
    0
 93
    6
 72
    2
 10
102.5512075401118
 20
-142.0770168283294
 40
238.3726724684809
 50
122.691491053545
 51
162.3309634822451
 73
    0
 72
    2
 10
-25.50715814910336
 20
-188.2424321712998
 40
102.4713027127432
 50
165.1946991103078
 51
186.7769494988702
 73
    0
 72
    2
 10
726.9265783331236
 20
-240.3412284050733
 40
856.5976008030635
 50
184.2976034754332
 51
194.5208720241042
 73
    0
 72
    2
 10
326.3635577687437
 20
-241.9251634725158
 40
480.1786298181141
 50
153.2188235893372
 51
173.9878341920725
 73
    1
 72
    2
 10
-64.74535505571635
 20
-200.1252992275861
 40
86.84494936387023
 50
174.3872147244021
 51
204.619105532119
 73
    1
 72
    2
 10
59.7085048857607
 20
-129.7312553622535
 40
229.6322741501194
 50
207.6519680826673
 51
248.031139979465
 73
    1
 97
    0
 75
    0
 76
    1
 52
0
 41
0
 77
    0
 78
    0
 98
    0
  0
HATCH
  5
61
100
AcDbEntity
  8
full
  6
ByLayer
 62
  256
370
   -1
100
AcDbHatch
 10
0
 20
0
 30
0
210
0
220
0
230
1
  2
escher
 70
    0
 71
    0
 91
    1
 92
    0
 93
    6
 72
    2
 10
-100.7673027004503
 20
-143.3477575173328
 40
238.3726724684809
 50
303.4076789721921
 51
343.0471514008921
 73
    1
 72
    2
 10
27.85810397069372
 20
-187.908899283051
 40
102.4713027127432
 50
345.9108870289549
 51
7.49313741751727
 73
    1
 72
    2
 10
-723.8656414069762
 20
-249.408679778448
 40
856.5976008030635
 50
5.013791394080238
 51
15.23705994275118
 73
    1
 72
    2
 10
-323.3141151912364
 20
-245.9856489285152
 40
480.1786298181141
 50
332.5026356706901
 51
353.2716462734254
 73
    0
 72
    2
 10
67.24176554916266
 20
-199.3003797238056
 40
86.84494936387023
 50
353.6710268057551
 51
23.90291761347195
 73
    0
 72
    2
 10
-58.0822629918614
 20
-130.4674476614884
 40
229.6322741501194
 50
26.9357801640202
 51
67.31495206081799
 73
    0
 97
    0
 75
    0
 76
    1
 52
0
 41
0
 77
    0
 78
    0
 98
    0
  0
HATCH
  5
62
100
AcDbEntity
  8
full
  6
ByLayer
 62
  256
370
   -1
100
AcDbHatch
 10
0
 20
0
 30
0
210
0
220
0
230
1
  2
honeycomb
 70
    0
 71
    0
 91
    1
 92
    0
 93
   18
 72
    2
 10
-142.1693845056284
 20
459.1748530721823
 40
196.9768926372204
 50
200.471602945066
 51
267.6941680681473
 73
    1
 72
    2
 10
115.4417593649357
 20
406.1772455943342
 40
301.9828034364472
 50
151.5591269565089
 51
189.1915155293453
 73
    0
 72
    2
 10
-148.2556821279793
 20
447.6536830485131
 40
35.06580343947983
 50
191.1164031895162
 51
228.2968880836672
 73
    0
 72
    2
 10
-167.1664889233973
 20
470.3580465423681
 40
5.620972071137816
 50
218.1971585912512
 51
35.18228707370018
 73
    0
 72
    2
 10
12.34609560719582
 20
415.5274054914951
 40
182.3682761107689
 50
163.5666488774796
 51
198.2600241839453
 73
    1
 72
    2
 10
230.9018708821006
 20
503.9987623833531
 40
417.9281292004928
 50
200.3904544122259
 51
223.1756821890802
 73
    1
 72
    1
 10
-73.87602100770619
 20
218.0366009139918
 11
-69.96199444185436
 21
213.9351175603854
 72
    2
 10
-77.19645346418133
 20
207.0313068261412
 40
10
 50
316.3397182955197
 51
46.21415402992501
 73
    0
 72
    2
 10
-132.1852942872933
 20
264.401502829757
 40
89.4676789931782
 50
46.21415402992501
 51
79.80676674575855
 73
    0
 72
    2
 10
40.31609662266078
 20
675.8121392948792
 40
523.4610639645422
 50
107.4151666702012
 51
133.9478442331463
 73
    0
 72
    2
 10
-134.2812637145462
 20
465.0469759556722
 40
251.3876481864399
 50
138.6405723408805
 51
179.0848343129331
 73
    0
 72
    2
 10
-209.9882172340813
 20
483.6637916360712
 40
177.1006679480376
 50
172.6580056464596
 51
236.3199555698844
 73
    0
 72
    2
 10
-305.4617719458154
 20
624.5530136188861
 40
7.03913401050719
 50
247.1057836908305
 51
52.1101601196179
 73
    0
 72
    2
 10
-223.7245566862773
 20
515.7123132714003
 40
129.0768768841302
 50
126.852165410121
 51
174.9316444742058
 73
    1
 72
    2
 10
-102.0073453925484
 20
496.2924400528861
 40
252.1801823631569
 50
172.9793910773005
 51
191.8512043088994
 73
    1
 72
    2
 10
-156.8205873463833
 20
429.2828247688283
 40
192.5937967633068
 50
184.5323616084038
 51
222.2327017018978
 73
    0
 72
    2
 10
-296.4800821421084
 20
553.5018889016981
 40
6.001569619368145
 50
240.6567360387163
 51
21.63225814750889
 73
    0
 72
    2
 10
-129.1961283995163
 20
430.8446303413612
 40
201.6320433519151
 50
143.3196984109514
 51
191.6050286023486
 73
    1
 97
    0
 75
    0
 76
    1
 52
0
 41
0
 77
    0
 78
    0
 98
    0
  0
ENDBLK
  5
51
330
4F
100
AcDbEntity
  8
0
100
AcDbBlockEnd
  0
ENDSEC
  0
SECTION
  2
ENTITIES
  0
HATCH
  5
63
100
AcDbEntity
  8
full
  6
ByLayer
 62
  256
370
   -1
100
AcDbHatch
 10
0
 20
0
 30
0
210
0
220
0
230
1
  2
paisley
 70
    0
 71
    0
 91
    1
 92
    0
 93
    9
 72
    2
 10
1585.552992440206
 20
837.4648775541675
 40
6.910535510836048
 50
46.30548469297378
 51
153.9491596746192
 73
    1
 72
    2
 10
1556.908023453683
 20
862.1962599891209
 40
31.21113334469207
 50
44.03935933005684
 51
116.360703231201
 73
    0
 72
    2
 10
1550.261562421282
 20
871.9755256831071
 40
38.42777196471994
 50
259.1828729460419
 51
321.4340666733553
 73
    1
 72
    2
 10
1588.893758396226
 20
834.2128201005935
 40
16.25822356869383
 50
238.1232940683899
 51
308.0305442850722
 73
    0
 72
    2
 10
1672.707344558764
 20
917.570693676893
 40
102.0957796829776
 50
223.7119382476034
 51
255.7896106842991
 73
    1
 72
    2
 10
1645.189717307728
 20
808.9049492437568
 40
10
 50
284.210389315701
 51
352.5893238425998
 73
    0
 72
    2
 10
1638.108838849453
 20
807.9839620024946
 40
17.1405221965509
 50
352.5893238425999
 51
37.10597610267008
 73
    0
 72
    2
 10
1640.290159978478
 20
801.392978865563
 40
12.0850578900223
 50
341.9239401369701
 51
73.29040915485946
 73
    1
 72
    2
 10
1664.12407740308
 20
913.0129811678441
 40
102.0957796829776
 50
101.5026267447912
 51
136.2880617523966
 73
    0
 97
    0
 75
    0
 76
    1
 52
0
 41
0
 77
    0
 78
    0
 98
    0
  0
HATCH
  5
64
100
AcDbEntity
  8
full
  6
ByLayer
 62
  256
370
   -1
100
AcDbHatch
 10
0
 20
0
 30
0
210
0
220
0
230
1
  2
paisley
 70
    0
 71
    0
 91
    1
 92
    0
 93
    9
 72
    2
 10
1494.632200306951
 20
836.8966226033347
 40
6.910535510836048
 50
225.5892967743267
 51
333.2329717559721
 73
    0
 72
    2
 10
1522.965801287648
 20
861.9841211005834
 40
31.21113334469207
 50
224.7555472487039
 51
297.0768911498481
 73
    1
 72
    2
 10
1529.489507039234
 20
871.8457003369693
 40
38.42777196471994
 50
78.46668502739486
 51
140.7178787547083
 73
    0
 72
    2
 10
1491.332344468389
 20
833.6030612635445
 40
16.25822356869383
 50
58.83948198703692
 51
128.7467322037192
 73
    1
 72
    2
 10
1406.483373267295
 20
915.9067938563215
 40
102.0957796829776
 50
42.99575032895633
 51
75.07342276565208
 73
    0
 72
    2
 10
1435.357119535716
 20
807.5934955076818
 40
10
 50
104.9265772343481
 51
173.3055117612469
 73
    1
 72
    2
 10
1442.448956712803
 20
806.7610877391406
 40
17.1405221965509
 50
173.3055117612469
 51
217.8221640213171
 73
    1
 72
    2
 10
1440.350190063918
 20
800.143354053597
 40
12.0850578900223
 50
161.207752218323
 51
252.5742212362124
 73
    0
 72
    2
 10
1415.12293906243
 20
911.4567240532153
 40
102.0957796829776
 50
282.2188146634383
 51
317.0042496710437
 73
    1
 97
    0
 75
    0
 76
    1
 52
0
 41
0
 77
    0
 78
    0
 98
    0
  0
HATCH
  5
65
100
AcDbEntity
  8
full
  6
ByLayer
 62
  256
370
   -1
100
AcDbHatch
 10
0
 20
0
 30
0
210
0
220
0
230
1
  2
paisley
 70
    0
 71
    0
 91
    1
 92
    0
 93
    6
 72
    2
 10
1468.475128605015
 20
740.7244441319983
 40
13.97440605751932
 50
135.6790608845059
 51
320.6031987867668
 73
    1
 72
    2
 10
1002.27275245569
 20
521.0694896475422
 40
521.4986674361285
 50
336.1594980645992
 51
343.5228360477935
 73
    0
 72
    2
 10
1207.391523701227
 20
618.2983267604427
 40
299.2865629231371
 50
9.750282166970393
 51
26.24731634339285
 73
    1
 72
    2
 10
1462.673104197967
 20
741.2362025188986
 40
16.17345079575791
 50
35.62473467623502
 51
153.961156758811
 73
    1
 72
    2
 10
1468.216330489417
 20
745.2475631701712
 40
6.232616796826831
 50
0
 51
360
 73
    1
 72
    2
 10
1455.840517077185
 20
737.2547698395837
 40
13.49340851640162
 50
235.2086201410361
 51
281.2688973087427
 73
    0
 97
    0
 75
    0
 76
    1
 52
0
 41
0
 77
    0
 78
    0
 98
    0
  0
HATCH
  5
66
100
AcDbEntity
  8
full
  6
ByLayer
 62
  256
370
   -1
100
AcDbHatch
 10
0
 20
0
 30
0
210
0
220
0
230
1
  2
paisley
 70
    0
 71
    0
 91
    1
 92
    0
 93
    6
 72
    2
 10
1612.910125974391
 20
741.6271628655568
 40
13.97440605751932
 50
314.9628729658588
 51
139.8870108681198
 73
    0
 72
    2
 10
2081.82166116761
 20
527.8166703269912
 40
521.4986674361285
 50
156.8756859832463
 51
164.2390239664406
 73
    1
 72
    2
 10
1875.503601209381
 20
622.4740272448682
 40
299.2865629231371
 50
189.0340942483233
 51
205.5311284247458
 73
    0
 72
    2
 10
1618.705300386024
 20
742.2114037450738
 40
16.17345079575791
 50
214.908546757588
 51
333.2449688401639
 73
    0
 72
    2
 10
1613.112367092667
 20
746.1531633989415
 40
6.232616796826831
 50
0
 51
360
 73
    1
 72
    2
 10
1625.587119696297
 20
738.315686105953
 40
13.49340851640162
 50
55.92480805968314
 51
101.9850852273898
 73
    1
 97
    0
 75
    0
 76
    1
 52
0
 41
0
 77
    0
 78
    0
 98
    0
  0
HATCH
  5
67
100
AcDbEntity
  8
full
  6
ByLayer
 62
  256
370
   -1
100
AcDbHatch
 10
0
 20
0
 30
0
210
0
220
0
230
1
  2
paisley
 70
    0
 71
    0
 91
    1
 92
    0
 93
    3
 72
    2
 10
2155.449795949507
 20
320.7913889141436
 40
593.0562622413735
 50
183.1133858491687
 51
194.5011136795259
 73
    0
 72
    2
 10
1819.622863603089
 20
432.2538489713789
 40
241.1969492330225
 50
188.8332727365209
 51
217.8431462838093
 73
    0
 72
    2
 10
2392.103625533599
 20
235.8531651167308
 40
837.0727404260558
 50
155.706907722951
 51
171.9550454440164
 73
    1
 97
    0
 75
    0
 76
    1
 52
0
 41
0
 77
    0
 78
    0
 98
    0
  0
HATCH
  5
68
100
AcDbEntity
  8
full
  6
ByLayer
 62
  256
370
   -1
100
AcDbHatch
 10
0
 20
0
 30
0
210
0
220
0
230
1
  2
paisley
 70
    0
 71
    0
 91
    1
 92
    0
 93
    3
 72
    2
 10
931.2380845821812
 20
313.1400657180984
 40
593.0562622413735
 50
3.829573767815703
 51
15.21730159817291
 73
    1
 72
    2
 10
1265.645555146521
 20
428.7914907935257
 40
241.1969492330225
 50
9.549460655167923
 51
38.55933420245646
 73
    1
 72
    2
 10
695.6644291816893
 20
225.2504201395322
 40
837.0727404260558
 50
334.990719804304
 51
351.2388575253694
 73
    0
 97
    0
 75
    0
 76
    1
 52
0
 41
0
 77
    0
 78
    0
 98
    0
  0
HATCH
  5
69
100
AcDbEntity
  8
full
  6
ByLayer
 62
  256
370
   -1
100
AcDbHatch
 10
0
 20
0
 30
0
210
0
220
0
230
1
  2
paisley
 70
    0
 71
    0
 91
    1
 92
    0
 93
    6
 72
    2
 10
1485.603524052875
 20
668.1898546245791
 40
47.49259561727585
 50
228.0959154112346
 51
250.6027486746602
 73
    1
 72
    2
 10
1465.611359036305
 20
646.3295605099078
 40
23.32137478420174
 50
79.57710631948554
 51
121.0325866180467
 73
    0
 72
    2
 10
1496.688442632172
 20
641.2345108051679
 40
45.59892897353747
 50
199.0569889235846
 51
252.6879253222194
 73
    1
 72
    2
 10
1480.412311731514
 20
638.0189034125085
 40
40.40837690625838
 50
86.15884593900439
 51
173.0625305410486
 73
    0
 72
    2
 10
1784.123987344158
 20
693.0414126308725
 40
349.0035625647826
 50
170.1167632415061
 51
186.0299278535655
 73
    0
 72
    2
 10
1667.217377530783
 20
719.8089461014712
 40
230.3785518008506
 50
177.5384367112331
 51
202.1784330217712
 73
    1
 97
    0
 75
    0
 76
    1
 52
0
 41
0
 77
    0
 78
    0
 98
    0
  0
HATCH
  5
6A
100
AcDbEntity
  8
full
  6
ByLayer
 62
  256
370
   -1
100
AcDbHatch
 10
0
 20
0
 30
0
210
0
220
0
230
1
  2
paisley
 70
    0
 71
    0
 91
    1
 92
    0
 93
    6
 72
    2
 10
1596.689715583102
 20
668.884143321643
 40
47.49259561727585
 50
47.37972749258758
 51
69.88656075601318
 73
    0
 72
    2
 10
1616.953561775668
 20
647.2754492770288
 40
23.32137478420174
 50
260.2932942381326
 51
301.7487745366937
 73
    1
 72
    2
 10
1585.942591615709
 20
641.792349236315
 40
45.59892897353747
 50
18.34080100493756
 51
71.97173740357236
 73
    0
 72
    2
 10
1602.257644515658
 20
638.7804367424094
 40
40.40837690625838
 50
266.8750338576514
 51
353.7787184596957
 73
    1
 72
    2
 10
1297.881940951034
 20
690.0023998409157
 40
349.0035625647826
 50
350.8329511601531
 51
6.74611577221259
 73
    1
 72
    2
 10
1414.444836693466
 20
718.2291177212381
 40
230.3785518008506
 50
356.822248792586
 51
21.46224510312415
 73
    0
 97
    0
 75
    0
 76
    1
 52
0
 41
0
 77
    0
 78
    0
 98
    0
  0
HATCH
  5
6B
100
AcDbEntity
  8
full
  6
ByLayer
 62
  256
370
   -1
100
AcDbHatch
 10
0
 20
0
 30
0
210
0
220
0
230
1
  2
paisley
 70
    0
 71
    0
 91
    1
 92
    0
 93
    8
 72
    2
 10
1683.983873517159
 20
807.9855255982368
 40
65.27237948040569
 50
30.54049810912551
 51
67.26424373920655
 73
    0
 72
    2
 10
1755.61834768533
 20
684.4921504023336
 40
78.48361339606626
 50
126.2497979220545
 51
141.0672489182363
 73
    1
 72
    2
 10
1740.253071279766
 20
673.135955265464
 40
75.95238917218185
 50
233.0221116689988
 51
257.9905710403056
 73
    0
 72
    2
 10
1714.183856890691
 20
783.7237403749939
 40
37.72145643781828
 50
285.7917780835059
 51
317.7677504819296
 73
    1
 72
    2
 10
1664.719643364924
 20
827.5158864111676
 40
103.7836615972524
 50
318.2214953346809
 51
333.2740359673355
 73
    1
 72
    2
 10
1806.152071373041
 20
750.4215207467266
 40
57.45100907823093
 50
211.9717658238879
 51
255.632703045386
 73
    0
 72
    2
 10
1830.196438620411
 20
718.4593920187908
 40
95.62176722992386
 50
246.3882254042188
 51
256.7478133457332
 73
    0
 72
    2
 10
1797.170465048592
 20
750.6597027781552
 40
61.87986723674573
 50
79.66083182849377
 51
157.0206674457493
 73
    1
 97
    0
 75
    0
 76
    1
 52
0
 41
0
 77
    0
 78
    0
 98
    0
  0
HATCH
  5
6C
100
AcDbEntity
  8
full
  6
ByLayer
 62
  256
370
   -1
100
AcDbHatch
 10
0
 20
0
 30
0
210
0
220
0
230
1
  2
paisley
 70
    0
 71
    0
 91
    1
 92
    0
 93
    8
 72
    2
 10
1396.577486348003
 20
806.1892356784299
 40
65.27237948040569
 50
211.2566860277726
 51
247.9804316578536
 73
    1
 72
    2
 10
1326.492215297328
 20
681.8101120749087
 40
78.48361339606626
 50
305.5336100034075
 51
320.3510609995893
 73
    0
 72
    2
 10
1341.998238231973
 20
670.6468625589155
 40
75.95238917218185
 50
53.73829958764583
 51
78.70675895895258
 73
    1
 72
    2
 10
1366.683122725191
 20
781.5518607864599
 40
37.72145643781828
 50
105.0755901648588
 51
137.0515625632825
 73
    0
 72
    2
 10
1415.596091566819
 20
825.9588642124296
 40
103.7836615972524
 50
137.5053074160338
 51
152.5578480486884
 73
    0
 72
    2
 10
1275.138354464083
 20
747.1026850160461
 40
57.45100907823093
 50
32.68795374253497
 51
76.34889096403305
 73
    1
 72
    2
 10
1251.495376612729
 20
714.8425103812431
 40
95.62176722992386
 50
67.10441332286585
 51
77.46400126438022
 73
    1
 72
    2
 10
1284.116281968849
 20
747.4531141339071
 40
61.87986723674573
 50
258.9446439098467
 51
336.3044795271023
 73
    0
 97
    0
 75
    0
 76
    1
 52
0
 41
0
 77
    0
 78
    0
 98
    0
  0
HATCH
  5
6D
100
AcDbEntity
  8
full
  6
ByLayer
 62
  256
370
   -1
100
AcDbHatch
 10
0
 20
0
 30
0
210
0
220
0
230
1
  2
paisley
 70
    0
 71
    0
 91
    1
 92
    0
 93
    6
 72
    2
 10
1600.998803072677
 20
515.8172045823324
 40
229.6322741501194
 50
207.6519680826673
 51
248.031139979465
 73
    1
 72
    2
 10
1643.841505727028
 20
503.4714431162564
 40
238.3726724684809
 50
122.691491053545
 51
162.3309634822451
 73
    0
 72
    2
 10
1515.783140037813
 20
457.306027773286
 40
102.4713027127432
 50
165.1946991103078
 51
186.7769494988702
 73
    0
 72
    2
 10
2268.21687652004
 20
405.2072315395126
 40
856.5976008030635
 50
184.2976034754332
 51
194.5208720241042
 73
    0
 72
    2
 10
1867.65385595566
 20
403.62329647207
 40
480.1786298181141
 50
153.2188235893372
 51
173.9878341920725
 73
    1
 72
    2
 10
1476.5449431312
 20
445.4231607169997
 40
86.84494936387023
 50
174.3872147244021
 51
204.619105532119
 73
    1
 97
    0
 75
    0
 76
    1
 52
0
 41
0
 77
    0
 78
    0
 98
    0
  0
HATCH
  5
6E
100
AcDbEntity
  8
full
  6
ByLayer
 62
  256
370
   -1
100
AcDbHatch
 10
0
 20
0
 30
0
210
0
220
0
230
1
  2
paisley
 70
    0
 71
    0
 91
    1
 92
    0
 93
    6
 72
    2
 10
1483.208035195055
 20
515.0810122830974
 40
229.6322741501194
 50
26.9357801640202
 51
67.31495206081799
 73
    0
 72
    2
 10
1440.522995486466
 20
502.2007024272531
 40
238.3726724684809
 50
303.4076789721921
 51
343.0471514008921
 73
    1
 72
    2
 10
1569.14840215761
 20
457.6395606615348
 40
102.4713027127432
 50
345.9108870289549
 51
7.49313741751727
 73
    1
 72
    2
 10
817.4246567799401
 20
396.1397801661378
 40
856.5976008030635
 50
5.013791394080238
 51
15.23705994275118
 73
    1
 72
    2
 10
1217.97618299568
 20
399.5628110160706
 40
480.1786298181141
 50
332.5026356706901
 51
353.2716462734254
 73
    0
 72
    2
 10
1608.532063736079
 20
446.2480802207802
 40
86.84494936387023
 50
353.6710268057551
 51
23.90291761347195
 73
    0
 97
    0
 75
    0
 76
    1
 52
0
 41
0
 77
    0
 78
    0
 98
    0
  0
HATCH
  5
6F
100
AcDbEntity
  8
full
  6
ByLayer
 62
  256
370
   -1
100
AcDbHatch
 10
0
 20
0
 30
0
210
0
220
0
230
1
  2
paisley
 70
    0
 71
    0
 91
    1
 92
    0
 93
   12
 72
    2
 10
1694.472137023612
 20
649.6088733224649
 40
75.57094356336918
 50
75.10297829279298
 51
124.002579809318
 73
    1
 72
    2
 10
1671.701590506805
 20
623.6994322523396
 40
90.6782278773161
 50
257.5875842148203
 51
292.5206214417021
 73
    0
 72
    2
 10
1718.2688595416
 20
796.6627208838688
 40
89.98186927397231
 50
262.4415050237793
 51
294.9510983038518
 73
    1
 72
    2
 10
1623.662134411477
 20
892.6442217042822
 40
221.5917458582233
 50
306.7439644531174
 51
343.3364299501957
 73
    1
 72
    2
 10
1778.360830627459
 20
687.9543610166235
 40
152.4437122087849
 50
67.80493020256719
 51
113.6274456347269
 73
    1
 72
    2
 10
1782.689792178161
 20
647.7448559633833
 40
191.4034680978609
 50
109.9881250569032
 51
132.8331470871471
 73
    1
 72
    2
 10
1570.103154805511
 20
767.4697021425211
 40
85.00153513699453
 50
345.9481682890535
 51
20.32641678085659
 73
    0
 72
    2
 10
1668.765705501224
 20
758.7570930712611
 40
28.15122167999664
 50
227.6778935586508
 51
322.3865373183747
 73
    1
 72
    2
 10
1633.150558388404
 20
793.4828558354766
 40
77.77224654816413
 50
318.1311741452868
 51
345.8892966052048
 73
    1
 72
    2
 10
1804.963629212331
 20
706.1239002494883
 40
118.1900402522082
 50
215.3602305696454
 51
278.6689722614476
 73
    0
 72
    2
 10
1694.306950939542
 20
844.6454169134948
 40
130.2876699225995
 50
9.579398898330648
 51
67.45076987241454
 73
    0
 72
    2
 10
1727.013700535475
 20
760.9529481950001
 40
40.49519601568377
 50
64.77877219140871
 51
108.8947546866501
 73
    0
 97
    0
 75
    0
 76
    1
 52
0
 41
2
 77
    0
 78
    0
 98
    0
  0
HATCH
  5
70
100
AcDbEntity
  8
full
  6
ByLayer
 62
  256
370
   -1
100
AcDbHatch
 10
0
 20
0
 30
0
210
0
220
0
230
1
  2
paisley
 70
    0
 71
    0
 91
    1
 92
    0
 93
   12
 72
    2
 10
1362.436708263902
 20
794.4387699383835
 40
89.98186927397231
 50
81.72531710513218
 51
114.2349103852048
 73
    0
 72
    2
 10
1455.836320636211
 20
891.595310368187
 40
221.5917458582233
 50
126.0277765344704
 51
162.6202420315486
 73
    0
 72
    2
 10
1303.708233100065
 20
684.9877822820775
 40
152.4437122087849
 50
247.0887422839201
 51
292.9112577160799
 73
    0
 72
    2
 10
1299.882208916659
 20
644.7273085679992
 40
191.4034680978609
 50
289.2719371382562
 51
312.1169591685
 73
    0
 72
    2
 10
1510.955736486877
 20
767.1000307780296
 40
85.00153513699453
 50
166.6643562077005
 51
201.0426046995036
 73
    1
 72
    2
 10
1412.409796861208
 20
757.1548686422611
 40
28.15122167999664
 50
46.96170564000376
 51
141.6703493997277
 73
    0
 72
    2
 10
1447.588106570068
 20
792.323090511612
 40
77.77224654816413
 50
137.4149862266398
 51
165.1731086865577
 73
    0
 72
    2
 10
1276.880402408739
 20
702.8233800819662
 40
118.1900402522082
 50
36.07641848829237
 51
99.38516018009466
 73
    1
 72
    2
 10
1385.796984642739
 20
842.71722962414
 40
130.2876699225995
 50
190.2955868169777
 51
248.1669577910616
 73
    1
 72
    2
 10
1354.138905156923
 20
758.6224807238843
 40
40.49519601568377
 50
245.4949601100558
 51
289.6109426052972
 73
    1
 72
    2
 10
1388.069673029248
 20
647.6938579225002
 40
75.57094356336918
 50
254.3867903741459
 51
303.2863918906709
 73
    0
 72
    2
 10
1411.162296029372
 20
622.0710616618558
 40
90.6782278773161
 50
78.30377213346733
 51
113.2368093603492
 73
    1
 97
    0
 75
    0
 76
    1
 52
0
 41
2
 77
    0
 78
    0
 98
    0
  0
HATCH
  5
71
100
AcDbEntity
  8
full
  6
ByLayer
 62
  256
370
   -1
100
AcDbHatch
 10
0
 20
0
 30
0
210
0
220
0
230
1
  2
paisley
 70
    0
 71
    0
 91
    1
 92
    0
 93
   18
 72
    2
 10
1615.892930663978
 20
853.5285110578595
 40
10
 50
137.0559062141668
 51
226.9303419485721
 73
    1
 72
    2
 10
1670.160376213358
 20
911.5815588513035
 40
89.4676789931782
 50
226.9303419485721
 51
260.5229546644056
 73
    1
 72
    2
 10
1492.530029368596
 20
1320.803871955459
 40
523.4610639645422
 50
288.1313545888483
 51
314.6640321517934
 73
    1
 72
    2
 10
1669.748211452917
 20
1112.237555756386
 40
251.3876481864399
 50
319.3567602595276
 51
359.8010222315801
 73
    1
 72
    2
 10
1745.216549491621
 20
1131.799217009024
 40
177.1006679480376
 50
353.3741935651066
 51
57.03614348853142
 73
    1
 72
    2
 10
1838.921599139337
 20
1273.870805269086
 40
7.03913401050719
 50
67.82197160947757
 51
232.826348038265
 73
    1
 72
    2
 10
1758.551224961855
 20
1164.016932487619
 40
129.0768768841302
 50
306.135977491474
 51
354.2154565555588
 73
    0
 72
    2
 10
1637.086261387063
 20
1143.077170676177
 40
252.1801823631569
 50
352.2632031586534
 51
11.13501639025234
 73
    0
 72
    2
 10
1692.732808696431
 20
1076.757929075013
 40
192.5937967633068
 50
5.248549527050853
 51
42.94888962054483
 73
    1
 72
    2
 10
1830.828715370124
 20
1202.712964467067
 40
6.001569619368145
 50
61.37292395736333
 51
202.3484460661559
 73
    1
 72
    2
 10
1665.090986019033
 20
1077.974320387394
 40
201.6320433519151
 50
322.6035104923044
 51
10.88884068370158
 73
    0
 72
    2
 10
1677.709114677542
 20
1106.464489272995
 40
196.9768926372204
 50
19.75541502641897
 51
86.97798014950025
 73
    0
 72
    2
 10
1420.780540108203
 20
1050.251008554897
 40
301.9828034364472
 50
332.275314875156
 51
9.90770344799242
 73
    1
 72
    2
 10
1683.938945826409
 20
1095.020295054146
 40
35.06580343947983
 50
11.8325911081633
 51
49.01307600231423
 73
    1
 72
    2
 10
1702.564481814764
 20
1117.959260690399
 40
5.620972071137816
 50
38.9133465098983
 51
215.8984749923472
 73
    1
 72
    2
 10
1523.751277398438
 20
1060.889083458608
 40
182.3682761107689
 50
342.8504609588326
 51
17.54383626529829
 73
    0
 72
    2
 10
1304.106727362592
 20
1146.621688317274
 40
417.9281292004928
 50
19.6742664935789
 51
42.45949427043314
 73
    0
 72
    1
 10
1612.435196803526
 20
864.4914416062295
 11
1608.572742548376
 21
860.3413552474917
 97
    0
 75
    0
 76
    1
 52
0
 41
2
 77
    0
 78
    0
 98
    0
  0
HATCH
  5
72
100
AcDbEntity
  8
full
  6
ByLayer
 62
  256
370
   -1
100
AcDbHatch
 10
0
 20
0
 30
0
210
0
220
0
230
1
  2
paisley
 70
    0
 71
    0
 91
    1
 92
    0
 93
   20
 72
    2
 10
1520.986433635775
 20
635.1249079040095
 40
22.82317578370087
 50
27.17495467158016
 51
111.5934019237339
 73
    1
 72
    2
 10
1525.726170690904
 20
628.1705768714952
 40
31.08871084948048
 50
115.0008291188687
 51
176.9401838238777
 73
    1
 72
    2
 10
1535.003246878491
 20
622.3860834673914
 40
41.00284313801996
 50
169.5400924719436
 51
221.6941923725039
 73
    1
 72
    2
 10
1524.710449049848
 20
571.9823390432306
 40
30.79116628284558
 50
228.6949619237141
 51
277.7304356705878
 73
    0
 72
    2
 10
1532.94117097334
 20
571.3958475726206
 40
31.36548986474726
 50
97.49061224933772
 51
144.1122797029356
 73
    1
 72
    2
 10
1542.269769075615
 20
646.1626091218753
 40
66.22389369427846
 50
238.3598620134899
 51
269.5073369161166
 73
    1
 72
    2
 10
1540.303227251542
 20
646.1503182354749
 40
66.22389369427846
 50
271.2088510025304
 51
302.3563259051571
 73
    1
 72
    2
 10
1550.565644599142
 20
571.5060005327819
 40
31.36548986474726
 50
36.60390821571147
 51
83.22557566930936
 73
    1
 72
    2
 10
1534.409310990729
 20
618.9817563692008
 40
38.84083131956979
 50
126.179767491639
 51
154.4603090525716
 73
    1
 72
    2
 10
1511.226512690873
 20
631.1949634958908
 40
12.69916436401902
 50
159.0893327074648
 51
263.2724722206133
 73
    1
 72
    2
 10
1512.179636225085
 20
627.8184542938958
 40
9.552314708947723
 50
255.1956224048646
 51
46.77120890740397
 73
    1
 72
    2
 10
1527.993438785473
 20
648.5575868135307
 40
16.60782937911244
 50
123.9347523834588
 51
186.1362996271876
 73
    0
 72
    2
 10
1548.502818650154
 20
619.0698407920721
 40
38.84083131956979
 50
305.4635795729919
 51
333.7441211339245
 73
    0
 72
    2
 10
1571.531146738802
 20
631.5718674586903
 40
12.69916436401902
 50
338.3731447888177
 51
82.5562843019663
 73
    0
 72
    2
 10
1570.620302380861
 20
628.1837084573693
 40
9.552314708947723
 50
74.4794344862175
 51
226.0550209887569
 73
    0
 72
    2
 10
1554.548506195178
 20
648.7235559848415
 40
16.60782937911244
 50
304.6509403021059
 51
6.8524875458346
 73
    1
 72
    2
 10
1558.788392665579
 20
572.195326190829
 40
30.79116628284558
 50
261.5533764107651
 51
310.5888501576388
 73
    0
 72
    2
 10
1547.866376735298
 20
622.4664780289964
 40
41.00284313801996
 50
319.0219955461432
 51
11.17609544670348
 73
    1
 72
    2
 10
1557.070424836415
 20
628.3664784599047
 40
31.08871084948048
 50
3.776004094769379
 51
65.71535879977836
 73
    1
 72
    2
 10
1561.722865871681
 20
635.3795106054839
 40
22.82317578370087
 50
69.1227859949131
 51
153.5412332470669
 73
    1
 97
    0
 75
    0
 76
    1
 52
0
 41
0
 77
    0
 78
    0
 98
    0
  0
HATCH
  5
73
100
AcDbEntity
  8
full
  6
ByLayer
 62
  256
370
   -1
100
AcDbHatch
 10
0
 20
0
 30
0
210
0
220
0
230
1
  2
paisley
 70
    0
 71
    0
 91
    1
 92
    0
 93
   18
 72
    2
 10
1393.034616058937
 20
1093.202142993099
 40
35.06580343947983
 50
191.1164031895162
 51
228.2968880836672
 73
    0
 72
    2
 10
1374.123809263519
 20
1115.906506486954
 40
5.620972071137816
 50
218.1971585912512
 51
35.18228707370018
 73
    0
 72
    2
 10
1553.636393794112
 20
1061.075865436081
 40
182.3682761107689
 50
163.5666488774796
 51
198.2600241839453
 73
    1
 72
    2
 10
1772.192169069017
 20
1149.547222327939
 40
417.9281292004928
 50
200.3904544122259
 51
223.1756821890802
 73
    1
 72
    1
 10
1467.41427717921
 20
863.5850608585777
 11
1471.328303745062
 21
859.4835775049712
 72
    2
 10
1464.093844722735
 20
852.579766770727
 40
10
 50
316.3397182955197
 51
46.21415402992501
 73
    0
 72
    2
 10
1409.105003899623
 20
909.9499627743428
 40
89.4676789931782
 50
46.21415402992501
 51
79.80676674575855
 73
    0
 72
    2
 10
1581.606394809577
 20
1321.360599239465
 40
523.4610639645422
 50
107.4151666702012
 51
133.9478442331463
 73
    0
 72
    2
 10
1407.00903447237
 20
1110.595435900258
 40
251.3876481864399
 50
138.6405723408805
 51
179.0848343129331
 73
    0
 72
    2
 10
1331.302080952835
 20
1129.212251580657
 40
177.1006679480376
 50
172.6580056464596
 51
236.3199555698844
 73
    0
 72
    2
 10
1235.828526241101
 20
1270.101473563472
 40
7.03913401050719
 50
247.1057836908305
 51
52.1101601196179
 73
    0
 72
    2
 10
1317.565741500639
 20
1161.260773215986
 40
129.0768768841302
 50
126.852165410121
 51
174.9316444742058
 73
    1
 72
    2
 10
1439.282952794368
 20
1141.840899997472
 40
252.1801823631569
 50
172.9793910773005
 51
191.8512043088994
 73
    1
 72
    2
 10
1384.469710840533
 20
1074.831284713414
 40
192.5937967633068
 50
184.5323616084038
 51
222.2327017018978
 73
    0
 72
    2
 10
1244.810216044808
 20
1199.050348846284
 40
6.001569619368145
 50
240.6567360387163
 51
21.63225814750889
 73
    0
 72
    2
 10
1412.0941697874
 20
1076.393090285947
 40
201.6320433519151
 50
143.3196984109514
 51
191.6050286023486
 73
    1
 72
    2
 10
1399.120913681288
 20
1104.723313016768
 40
196.9768926372204
 50
200.471602945066
 51
267.6941680681473
 73
    1
 72
    2
 10
1656.732057551852
 20
1051.72570553892
 40
301.9828034364472
 50
151.5591269565089
 51
189.1915155293453
 73
    0
 97
    0
 75
    0
 76
    1
 52
0
 41
2
 77
    0
 78
    0
 98
    0
  0
IMAGE
  5
76
100
AcDbEntity
  8
ref
  6
ByLayer
 62
  256
370
   -1
100
AcDbRasterImage
 10
0
 20
0
 30
0
 11
1
 21
0
 31
0
 12
6.123233995736766e-17
 22
1
 32
0
 13
1300
 23
1390
340
74
 70
    1
280
    0
281
   50
282
   50
283
    0
360
75
  0
ARC
  5
77
100
AcDbEntity
  8
0
  6
ByLayer
 62
  256
370
   -1
100
AcDbCircle
 10
880.2774231151569
 20
1149.547222327939
 40
417.9281292004928
100
AcDbArc
 50
200.3904544122259
 51
223.1756821890802
  0
ARC
  5
78
100
AcDbEntity
  8
0
  6
ByLayer
 62
  256
370
   -1
100
AcDbCircle
 10
689.6916488557174
 20
1321.360599239465
 40
523.4610639645422
100
AcDbArc
 50
226.0521557668537
 51
252.5848333297988
  0
ARC
  5
79
100
AcDbEntity
  8
0
  6
ByLayer
 62
  256
370
   -1
100
AcDbCircle
 10
515.0942885185104
 20
1110.595435900258
 40
251.3876481864399
100
AcDbArc
 50
180.9151656870669
 51
221.3594276591195
  0
ARC
  5
7A
100
AcDbEntity
  8
0
  6
ByLayer
 62
  256
370
   -1
100
AcDbCircle
 10
439.3873349989748
 20
1129.212251580657
 40
177.1006679480376
100
AcDbArc
 50
123.6800444301156
 51
187.3419943535404
  0
ARC
  5
7B
100
AcDbEntity
  8
0
  6
ByLayer
 62
  256
370
   -1
100
AcDbCircle
 10
425.6509955467789
 20
1161.260773215986
 40
129.0768768841302
100
AcDbArc
 50
126.852165410121
 51
174.9316444742058
  0
ARC
  5
7C
100
AcDbEntity
  8
0
  6
ByLayer
 62
  256
370
   -1
100
AcDbCircle
 10
547.3682068405077
 20
1141.840899997472
 40
252.1801823631569
100
AcDbArc
 50
172.9793910773005
 51
191.8512043088994
  0
ARC
  5
7D
100
AcDbEntity
  8
0
  6
ByLayer
 62
  256
370
   -1
100
AcDbCircle
 10
492.5549648866728
 20
1074.831284713414
 40
192.5937967633068
100
AcDbArc
 50
137.7672982981022
 51
175.4676383915962
  0
ARC
  5
7E
100
AcDbEntity
  8
0
  6
ByLayer
 62
  256
370
   -1
100
AcDbCircle
 10
352.8954700909485
 20
1199.050348846284
 40
6.001569619368145
100
AcDbArc
 50
338.3677418524911
 51
119.3432639612838
  0
ARC
  5
7F
100
AcDbEntity
  8
0
  6
ByLayer
 62
  256
370
   -1
100
AcDbCircle
 10
520.1794238335401
 20
1076.393090285947
 40
201.6320433519151
100
AcDbArc
 50
143.3196984109514
 51
191.6050286023486
  0
ARC
  5
80
100
AcDbEntity
  8
0
  6
ByLayer
 62
  256
370
   -1
100
AcDbCircle
 10
507.2061677274281
 20
1104.723313016768
 40
196.9768926372204
100
AcDbArc
 50
200.471602945066
 51
267.6941680681473
  0
ARC
  5
81
100
AcDbEntity
  8
0
  6
ByLayer
 62
  256
370
   -1
100
AcDbCircle
 10
764.8173115979923
 20
1051.72570553892
 40
301.9828034364472
100
AcDbArc
 50
170.8084844706547
 51
208.4408730434911
  0
LINE
  5
82
100
AcDbEntity
  8
0
  6
ByLayer
 62
  256
370
   -1
100
AcDbLine
 10
575.4995312253504
 20
863.5850608585777
 11
579.4135577912019
 21
859.4835775049712
  0
ARC
  5
83
100
AcDbEntity
  8
0
  6
ByLayer
 62
  256
370
   -1
100
AcDbCircle
 10
517.1902579457627
 20
909.9499627743428
 40
89.4676789931782
100
AcDbArc
 50
280.1932332542414
 51
313.785845970075
  0
ARC
  5
84
100
AcDbEntity
  8
0
  6
ByLayer
 62
  256
370
   -1
100
AcDbCircle
 10
572.1790987688747
 20
852.579766770727
 40
10
100
AcDbArc
 50
313.785845970075
 51
43.66028170448029
  0
ARC
  5
85
100
AcDbEntity
  8
0
  6
ByLayer
 62
  256
370
   -1
100
AcDbCircle
 10
523.2081931085701
 20
911.4567240532153
 40
102.0957796829776
100
AcDbArc
 50
282.2188146634383
 51
317.0042496710437
  0
ARC
  5
86
100
AcDbEntity
  8
0
  6
ByLayer
 62
  256
370
   -1
100
AcDbCircle
 10
599.4175985145291
 20
833.6030612635445
 40
16.25822356869383
100
AcDbArc
 50
58.83948198703692
 51
128.7467322037192
  0
ARC
  5
87
100
AcDbEntity
  8
0
  6
ByLayer
 62
  256
370
   -1
100
AcDbCircle
 10
637.5747610853742
 20
871.8457003369693
 40
38.42777196471994
100
AcDbArc
 50
219.2821212452917
 51
281.5333149726051
  0
ARC
  5
88
100
AcDbEntity
  8
0
  6
ByLayer
 62
  256
370
   -1
100
AcDbCircle
 10
631.0510553337875
 20
861.9841211005834
 40
31.21113334469207
100
AcDbArc
 50
224.7555472487039
 51
297.0768911498481
  0
ARC
  5
89
100
AcDbEntity
  8
0
  6
ByLayer
 62
  256
370
   -1
100
AcDbCircle
 10
602.7174543530911
 20
836.8966226033347
 40
6.910535510836048
100
AcDbArc
 50
26.76702824402792
 51
134.4107032256733
  0
ARC
  5
8A
100
AcDbEntity
  8
0
  6
ByLayer
 62
  256
370
   -1
100
AcDbCircle
 10
548.4354441100579
 20
800.143354053597
 40
12.0850578900223
100
AcDbArc
 50
107.4257787637876
 51
198.792247781677
  0
ARC
  5
8B
100
AcDbEntity
  8
0
  6
ByLayer
 62
  256
370
   -1
100
AcDbCircle
 10
550.5342107589431
 20
806.7610877391406
 40
17.1405221965509
100
AcDbArc
 50
173.3055117612469
 51
217.8221640213171
  0
ARC
  5
8C
100
AcDbEntity
  8
0
  6
ByLayer
 62
  256
370
   -1
100
AcDbCircle
 10
514.5686273134348
 20
915.9067938563215
 40
102.0957796829776
100
AcDbArc
 50
284.9265772343479
 51
317.0042496710437
  0
ARC
  5
8D
100
AcDbEntity
  8
0
  6
ByLayer
 62
  256
370
   -1
100
AcDbCircle
 10
543.4423735818565
 20
807.5934955076818
 40
10
100
AcDbArc
 50
104.9265772343481
 51
173.3055117612469
  0
ARC
  5
8E
100
AcDbEntity
  8
0
  6
ByLayer
 62
  256
370
   -1
100
AcDbCircle
 10
411.7934871462053
 20
684.9877822820775
 40
152.4437122087849
100
AcDbArc
 50
67.0887422839201
 51
112.9112577160799
  0
ARC
  5
8F
100
AcDbEntity
  8
0
  6
ByLayer
 62
  256
370
   -1
100
AcDbCircle
 10
407.9674629627995
 20
644.7273085679992
 40
191.4034680978609
100
AcDbArc
 50
47.88304083149998
 51
70.72806286174381
  0
ARC
  5
90
100
AcDbEntity
  8
0
  6
ByLayer
 62
  256
370
   -1
100
AcDbCircle
 10
619.0409905330172
 20
767.1000307780296
 40
85.00153513699453
100
AcDbArc
 50
166.6643562077005
 51
201.0426046995036
  0
ARC
  5
91
100
AcDbEntity
  8
0
  6
ByLayer
 62
  256
370
   -1
100
AcDbCircle
 10
520.4950509073478
 20
757.1548686422611
 40
28.15122167999664
100
AcDbArc
 50
218.3296506002723
 51
313.0382943599963
  0
ARC
  5
92
100
AcDbEntity
  8
0
  6
ByLayer
 62
  256
370
   -1
100
AcDbCircle
 10
555.6733606162077
 20
792.323090511612
 40
77.77224654816413
100
AcDbArc
 50
194.8268913134423
 51
222.5850137733602
  0
ARC
  5
93
100
AcDbEntity
  8
0
  6
ByLayer
 62
  256
370
   -1
100
AcDbCircle
 10
384.9656564548787
 20
702.8233800819662
 40
118.1900402522082
100
AcDbArc
 50
36.07641848829237
 51
99.38516018009466
  0
ARC
  5
94
100
AcDbEntity
  8
0
  6
ByLayer
 62
  256
370
   -1
100
AcDbCircle
 10
493.8822386888791
 20
842.71722962414
 40
130.2876699225995
100
AcDbArc
 50
190.2955868169777
 51
248.1669577910616
  0
ARC
  5
95
100
AcDbEntity
  8
0
  6
ByLayer
 62
  256
370
   -1
100
AcDbCircle
 10
496.1549270753881
 20
647.6938579225002
 40
75.57094356336918
100
AcDbArc
 50
56.71360810932905
 51
105.6132096258541
  0
ARC
  5
96
100
AcDbEntity
  8
0
  6
ByLayer
 62
  256
370
   -1
100
AcDbCircle
 10
462.2241592030631
 20
758.6224807238843
 40
40.49519601568377
100
AcDbArc
 50
245.4949601100558
 51
289.6109426052972
  0
ARC
  5
97
100
AcDbEntity
  8
0
  6
ByLayer
 62
  256
370
   -1
100
AcDbCircle
 10
519.2475500755121
 20
622.0710616618558
 40
90.6782278773161
100
AcDbArc
 50
78.30377213346733
 51
113.2368093603492
  0
ARC
  5
98
100
AcDbEntity
  8
0
  6
ByLayer
 62
  256
370
   -1
100
AcDbCircle
 10
470.521962310042
 20
794.4387699383835
 40
89.98186927397231
100
AcDbArc
 50
245.7650896147952
 51
278.2746828948678
  0
ARC
  5
99
100
AcDbEntity
  8
0
  6
ByLayer
 62
  256
370
   -1
100
AcDbCircle
 10
563.9215746823512
 20
891.595310368187
 40
221.5917458582233
100
AcDbArc
 50
197.3797579684514
 51
233.9722234655296
  0
ARC
  5
9A
100
AcDbEntity
  8
0
  6
ByLayer
 62
  256
370
   -1
100
AcDbCircle
 10
775.3026315769233
 20
719.8089461014712
 40
230.3785518008506
100
AcDbArc
 50
177.5384367112331
 51
202.1784330217712
  0
ARC
  5
9B
100
AcDbEntity
  8
0
  6
ByLayer
 62
  256
370
   -1
100
AcDbCircle
 10
593.6887780990153
 20
668.1898546245791
 40
47.49259561727585
100
AcDbArc
 50
228.0959154112346
 51
250.6027486746602
  0
ARC
  5
9C
100
AcDbEntity
  8
0
  6
ByLayer
 62
  256
370
   -1
100
AcDbCircle
 10
573.6966130824446
 20
646.3295605099078
 40
23.32137478420174
100
AcDbArc
 50
238.9674133819533
 51
280.4228936805144
  0
ARC
  5
9D
100
AcDbEntity
  8
0
  6
ByLayer
 62
  256
370
   -1
100
AcDbCircle
 10
604.7736966783124
 20
641.2345108051679
 40
45.59892897353747
100
AcDbArc
 50
199.0569889235846
 51
252.6879253222194
  0
ARC
  5
9E
100
AcDbEntity
  8
0
  6
ByLayer
 62
  256
370
   -1
100
AcDbCircle
 10
588.4975657776544
 20
638.0189034125085
 40
40.40837690625838
100
AcDbArc
 50
186.9374694589514
 51
273.8411540609956
  0
ARC
  5
9F
100
AcDbEntity
  8
0
  6
ByLayer
 62
  256
370
   -1
100
AcDbCircle
 10
892.2092413902981
 20
693.0414126308725
 40
349.0035625647826
100
AcDbArc
 50
173.9700721464345
 51
189.8832367584939
  0
ARC
  5
A0
100
AcDbEntity
  8
0
  6
ByLayer
 62
  256
370
   -1
100
AcDbCircle
 10
563.9257711233247
 20
737.2547698395837
 40
13.49340851640162
100
AcDbArc
 50
78.73110269125722
 51
124.7913798589639
  0
ARC
  5
A1
100
AcDbEntity
  8
0
  6
ByLayer
 62
  256
370
   -1
100
AcDbCircle
 10
110.35800650183
 20
521.0694896475422
 40
521.4986674361285
100
AcDbArc
 50
16.47716395220652
 51
23.84050193540079
  0
ARC
  5
A2
100
AcDbEntity
  8
0
  6
ByLayer
 62
  256
370
   -1
100
AcDbCircle
 10
315.4767777473671
 20
618.2983267604427
 40
299.2865629231371
100
AcDbArc
 50
9.750282166970393
 51
26.24731634339285
  0
ARC
  5
A3
100
AcDbEntity
  8
0
  6
ByLayer
 62
  256
370
   -1
100
AcDbCircle
 10
570.7583582441074
 20
741.2362025188986
 40
16.17345079575791
100
AcDbArc
 50
35.62473467623502
 51
153.961156758811
  0
ARC
  5
A4
100
AcDbEntity
  8
0
  6
ByLayer
 62
  256
370
   -1
100
AcDbCircle
 10
629.071687681915
 20
635.1249079040095
 40
22.82317578370087
100
AcDbArc
 50
27.17495467158016
 51
111.5934019237339
  0
ARC
  5
A5
100
AcDbEntity
  8
0
  6
ByLayer
 62
  256
370
   -1
100
AcDbCircle
 10
633.8114247370444
 20
628.1705768714952
 40
31.08871084948048
100
AcDbArc
 50
115.0008291188687
 51
176.9401838238777
  0
ARC
  5
A6
100
AcDbEntity
  8
0
  6
ByLayer
 62
  256
370
   -1
100
AcDbCircle
 10
643.0885009246307
 20
622.3860834673914
 40
41.00284313801996
100
AcDbArc
 50
169.5400924719436
 51
221.6941923725039
  0
ARC
  5
A7
100
AcDbEntity
  8
0
  6
ByLayer
 62
  256
370
   -1
100
AcDbCircle
 10
632.7957030959885
 20
571.9823390432306
 40
30.79116628284558
100
AcDbArc
 50
82.26956432941215
 51
131.3050380762859
  0
ARC
  5
A8
100
AcDbEntity
  8
0
  6
ByLayer
 62
  256
370
   -1
100
AcDbCircle
 10
641.0264250194804
 20
571.3958475726206
 40
31.36548986474726
100
AcDbArc
 50
97.49061224933772
 51
144.1122797029356
  0
ARC
  5
A9
100
AcDbEntity
  8
0
  6
ByLayer
 62
  256
370
   -1
100
AcDbCircle
 10
650.3550231217556
 20
646.1626091218753
 40
66.22389369427846
100
AcDbArc
 50
238.3598620134899
 51
269.5073369161166
  0
ARC
  5
AA
100
AcDbEntity
  8
0
  6
ByLayer
 62
  256
370
   -1
100
AcDbCircle
 10
642.4945650368689
 20
618.9817563692008
 40
38.84083131956979
100
AcDbArc
 50
126.179767491639
 51
154.4603090525716
  0
ARC
  5
AB
100
AcDbEntity
  8
0
  6
ByLayer
 62
  256
370
   -1
100
AcDbCircle
 10
619.311766737013
 20
631.1949634958908
 40
12.69916436401902
100
AcDbArc
 50
159.0893327074648
 51
263.2724722206133
  0
ARC
  5
AC
100
AcDbEntity
  8
0
  6
ByLayer
 62
  256
370
   -1
100
AcDbCircle
 10
620.2648902712249
 20
627.8184542938958
 40
9.552314708947723
100
AcDbArc
 50
255.1956224048646
 51
46.77120890740397
  0
ARC
  5
AD
100
AcDbEntity
  8
0
  6
ByLayer
 62
  256
370
   -1
100
AcDbCircle
 10
636.0786928316134
 20
648.5575868135307
 40
16.60782937911244
100
AcDbArc
 50
173.8637003728124
 51
236.0652476165412
  0
ARC
  5
AE
100
AcDbEntity
  8
0
  6
ByLayer
 62
  256
370
   -1
100
AcDbCircle
 10
-196.2503167721705
 20
225.2504201395322
 40
837.0727404260558
100
AcDbArc
 50
8.761142474630589
 51
25.00928019569607
  0
ARC
  5
AF
100
AcDbEntity
  8
0
  6
ByLayer
 62
  256
370
   -1
100
AcDbCircle
 10
39.32333862832127
 20
313.1400657180984
 40
593.0562622413735
100
AcDbArc
 50
3.829573767815703
 51
15.21730159817291
  0
ARC
  5
B0
100
AcDbEntity
  8
0
  6
ByLayer
 62
  256
370
   -1
100
AcDbCircle
 10
373.7308091926612
 20
428.7914907935257
 40
241.1969492330225
100
AcDbArc
 50
9.549460655167923
 51
38.55933420245646
  0
ARC
  5
B1
100
AcDbEntity
  8
0
  6
ByLayer
 62
  256
370
   -1
100
AcDbCircle
 10
975.7391100018001
 20
403.62329647207
 40
480.1786298181141
100
AcDbArc
 50
153.2188235893372
 51
173.9878341920725
  0
ARC
  5
B2
100
AcDbEntity
  8
0
  6
ByLayer
 62
  256
370
   -1
100
AcDbCircle
 10
709.0840571188169
 20
515.8172045823324
 40
229.6322741501194
100
AcDbArc
 50
207.6519680826673
 51
248.031139979465
  0
ARC
  5
B3
100
AcDbEntity
  8
0
  6
ByLayer
 62
  256
370
   -1
100
AcDbCircle
 10
751.926759773168
 20
503.4714431162564
 40
238.3726724684809
100
AcDbArc
 50
197.6690365177549
 51
237.308508946455
  0
ARC
  5
B4
100
AcDbEntity
  8
0
  6
ByLayer
 62
  256
370
   -1
100
AcDbCircle
 10
623.8683940839533
 20
457.306027773286
 40
102.4713027127432
100
AcDbArc
 50
173.2230505011298
 51
194.8053008896922
  0
ARC
  5
B5
100
AcDbEntity
  8
0
  6
ByLayer
 62
  256
370
   -1
100
AcDbCircle
 10
1376.30213056618
 20
405.2072315395126
 40
856.5976008030635
100
AcDbArc
 50
165.4791279758958
 51
175.7023965245668
  0
ARC
  5
B6
100
AcDbEntity
  8
0
  6
ByLayer
 62
  256
370
   -1
100
AcDbCircle
 10
584.6301971773405
 20
445.4231607169997
 40
86.84494936387023
100
AcDbArc
 50
174.3872147244021
 51
204.619105532119
  0
ARC
  5
B7
100
AcDbEntity
  8
0
  6
ByLayer
 62
  256
370
   -1
100
AcDbCircle
 10
501.1198701050777
 20
1093.202142993099
 40
35.06580343947983
100
AcDbArc
 50
131.7031119163328
 51
168.8835968104837
  0
ARC
  5
B8
100
AcDbEntity
  8
0
  6
ByLayer
 62
  256
370
   -1
100
AcDbCircle
 10
482.2090633096586
 20
1115.906506486954
 40
5.620972071137816
100
AcDbArc
 50
324.8177129262998
 51
141.8028414087488
  0
ARC
  5
B9
100
AcDbEntity
  8
0
  6
ByLayer
 62
  256
370
   -1
100
AcDbCircle
 10
661.7216478402519
 20
1061.075865436081
 40
182.3682761107689
100
AcDbArc
 50
163.5666488774796
 51
198.2600241839453
  0
ARC
  5
BA
100
AcDbEntity
  8
0
  6
ByLayer
 62
  256
370
   -1
100
AcDbCircle
 10
343.9137802872415
 20
1270.101473563472
 40
7.03913401050719
100
AcDbArc
 50
307.8898398803821
 51
112.8942163091695
  0
ARC
  5
BB
100
AcDbEntity
  8
0
  6
ByLayer
 62
  256
370
   -1
100
AcDbCircle
 10
412.1919814087302
 20
1146.621688317274
 40
417.9281292004928
100
AcDbArc
 50
317.5405057295671
 51
340.3257335064213
  0
ARC
  5
BC
100
AcDbEntity
  8
0
  6
ByLayer
 62
  256
370
   -1
100
AcDbCircle
 10
600.6152834147335
 20
1320.803871955459
 40
523.4610639645422
100
AcDbArc
 50
288.1313545888486
 51
314.6640321517936
  0
ARC
  5
BD
100
AcDbEntity
  8
0
  6
ByLayer
 62
  256
370
   -1
100
AcDbCircle
 10
777.8334654990551
 20
1112.237555756387
 40
251.3876481864399
100
AcDbArc
 50
319.3567602595278
 51
359.8010222315804
  0
ARC
  5
BE
100
AcDbEntity
  8
0
  6
ByLayer
 62
  256
370
   -1
100
AcDbCircle
 10
853.3018035377594
 20
1131.799217009024
 40
177.1006679480376
100
AcDbArc
 50
353.3741935651069
 51
57.03614348853168
  0
ARC
  5
BF
100
AcDbEntity
  8
0
  6
ByLayer
 62
  256
370
   -1
100
AcDbCircle
 10
866.6364790079931
 20
1164.016932487619
 40
129.0768768841302
100
AcDbArc
 50
5.784543444441446
 51
53.86402250852625
  0
ARC
  5
C0
100
AcDbEntity
  8
0
  6
ByLayer
 62
  256
370
   -1
100
AcDbCircle
 10
745.1715154332015
 20
1143.077170676177
 40
252.1801823631569
100
AcDbArc
 50
348.8649836097479
 51
7.736796841346766
  0
ARC
  5
C1
100
AcDbEntity
  8
0
  6
ByLayer
 62
  256
370
   -1
100
AcDbCircle
 10
800.8180627425693
 20
1076.757929075013
 40
192.5937967633068
100
AcDbArc
 50
5.248549527051057
 51
42.94888962054505
  0
ARC
  5
C2
100
AcDbEntity
  8
0
  6
ByLayer
 62
  256
370
   -1
100
AcDbCircle
 10
938.9139694162625
 20
1202.712964467067
 40
6.001569619368145
100
AcDbArc
 50
61.37292395736353
 51
202.3484460661562
  0
ARC
  5
C3
100
AcDbEntity
  8
0
  6
ByLayer
 62
  256
370
   -1
100
AcDbCircle
 10
773.1762400651712
 20
1077.974320387395
 40
201.6320433519151
100
AcDbArc
 50
349.1111593162986
 51
37.39648950769586
  0
ARC
  5
C4
100
AcDbEntity
  8
0
  6
ByLayer
 62
  256
370
   -1
100
AcDbCircle
 10
785.7943687236806
 20
1106.464489272995
 40
196.9768926372204
100
AcDbArc
 50
273.0220198504999
 51
340.2445849735813
  0
ARC
  5
C5
100
AcDbEntity
  8
0
  6
ByLayer
 62
  256
370
   -1
100
AcDbCircle
 10
528.8657941543411
 20
1050.251008554897
 40
301.9828034364472
100
AcDbArc
 50
332.2753148751562
 51
9.907703447992624
  0
LINE
  5
C6
100
AcDbEntity
  8
0
  6
ByLayer
 62
  256
370
   -1
100
AcDbLine
 10
720.5204508496647
 20
864.4914416062295
 11
716.6579965945156
 21
860.3413552474919
  0
ARC
  5
C7
100
AcDbEntity
  8
0
  6
ByLayer
 62
  256
370
   -1
100
AcDbCircle
 10
778.2456302594973
 20
911.581558851304
 40
89.4676789931782
100
AcDbArc
 50
226.9303419485723
 51
260.5229546644059
  0
ARC
  5
C8
100
AcDbEntity
  8
0
  6
ByLayer
 62
  256
370
   -1
100
AcDbCircle
 10
723.9781847101168
 20
853.5285110578598
 40
10
100
AcDbArc
 50
137.055906214167
 51
226.9303419485723
  0
ARC
  5
C9
100
AcDbEntity
  8
0
  6
ByLayer
 62
  256
370
   -1
100
AcDbCircle
 10
772.2093314492184
 20
913.0129811678446
 40
102.0957796829776
100
AcDbArc
 50
223.7119382476037
 51
258.497373255209
  0
ARC
  5
CA
100
AcDbEntity
  8
0
  6
ByLayer
 62
  256
370
   -1
100
AcDbCircle
 10
696.9790124423653
 20
834.2128201005935
 40
16.25822356869383
100
AcDbArc
 50
51.96945571492809
 51
121.8767059316104
  0
ARC
  5
CB
100
AcDbEntity
  8
0
  6
ByLayer
 62
  256
370
   -1
100
AcDbCircle
 10
658.3468164674206
 20
871.9755256831069
 40
38.42777196471994
100
AcDbArc
 50
259.1828729460421
 51
321.4340666733555
  0
ARC
  5
CC
100
AcDbEntity
  8
0
  6
ByLayer
 62
  256
370
   -1
100
AcDbCircle
 10
664.9932774998221
 20
862.1962599891211
 40
31.21113334469207
100
AcDbArc
 50
243.6392967687993
 51
315.9606406699434
  0
ARC
  5
CD
100
AcDbEntity
  8
0
  6
ByLayer
 62
  256
370
   -1
100
AcDbCircle
 10
693.6382464863449
 20
837.4648775541675
 40
6.910535510836048
100
AcDbArc
 50
46.30548469297401
 51
153.9491596746194
  0
ARC
  5
CE
100
AcDbEntity
  8
0
  6
ByLayer
 62
  256
370
   -1
100
AcDbCircle
 10
748.3754140246178
 20
801.3929788655632
 40
12.0850578900223
100
AcDbArc
 50
341.9239401369703
 51
73.29040915485972
  0
ARC
  5
CF
100
AcDbEntity
  8
0
  6
ByLayer
 62
  256
370
   -1
100
AcDbCircle
 10
746.1940928955921
 20
807.9839620024949
 40
17.1405221965509
100
AcDbArc
 50
322.8940238973301
 51
7.41067615740033
  0
ARC
  5
D0
100
AcDbEntity
  8
0
  6
ByLayer
 62
  256
370
   -1
100
AcDbCircle
 10
780.7925986049028
 20
917.5706936768935
 40
102.0957796829776
100
AcDbArc
 50
223.7119382476037
 51
255.7896106842994
  0
ARC
  5
D1
100
AcDbEntity
  8
0
  6
ByLayer
 62
  256
370
   -1
100
AcDbCircle
 10
753.2749713538675
 20
808.9049492437571
 40
10
100
AcDbArc
 50
7.410676157400408
 51
75.78961068429921
  0
ARC
  5
D2
100
AcDbEntity
  8
0
  6
ByLayer
 62
  256
370
   -1
100
AcDbCircle
 10
886.4460846735985
 20
687.9543610166244
 40
152.4437122087849
100
AcDbArc
 50
67.80493020256741
 51
113.6274456347272
  0
ARC
  5
D3
100
AcDbEntity
  8
0
  6
ByLayer
 62
  256
370
   -1
100
AcDbCircle
 10
890.7750462243001
 20
647.7448559633842
 40
191.4034680978609
100
AcDbArc
 50
109.9881250569035
 51
132.8331470871473
  0
ARC
  5
D4
100
AcDbEntity
  8
0
  6
ByLayer
 62
  256
370
   -1
100
AcDbCircle
 10
678.1884088516498
 20
767.4697021425211
 40
85.00153513699453
100
AcDbArc
 50
339.6735832191436
 51
14.05183171094682
  0
ARC
  5
D5
100
AcDbEntity
  8
0
  6
ByLayer
 62
  256
370
   -1
100
AcDbCircle
 10
776.8509595473631
 20
758.7570930712616
 40
28.15122167999664
100
AcDbArc
 50
227.677893558651
 51
322.3865373183749
  0
ARC
  5
D6
100
AcDbEntity
  8
0
  6
ByLayer
 62
  256
370
   -1
100
AcDbCircle
 10
741.2358124345435
 20
793.4828558354768
 40
77.77224654816413
100
AcDbArc
 50
318.131174145287
 51
345.889296605205
  0
ARC
  5
D7
100
AcDbEntity
  8
0
  6
ByLayer
 62
  256
370
   -1
100
AcDbCircle
 10
913.0488832584704
 20
706.1239002494892
 40
118.1900402522082
100
AcDbArc
 50
81.33102773855262
 51
144.6397694303549
  0
ARC
  5
D8
100
AcDbEntity
  8
0
  6
ByLayer
 62
  256
370
   -1
100
AcDbCircle
 10
802.3922049856811
 20
844.6454169134955
 40
130.2876699225995
100
AcDbArc
 50
292.5492301275856
 51
350.4206011016695
  0
ARC
  5
D9
100
AcDbEntity
  8
0
  6
ByLayer
 62
  256
370
   -1
100
AcDbCircle
 10
802.5573910697517
 20
649.6088733224653
 40
75.57094356336918
100
AcDbArc
 50
75.10297829279322
 51
124.0025798093182
  0
ARC
  5
DA
100
AcDbEntity
  8
0
  6
ByLayer
 62
  256
370
   -1
100
AcDbCircle
 10
835.0989545816143
 20
760.9529481950005
 40
40.49519601568377
100
AcDbArc
 50
251.1052453133501
 51
295.2212278085915
  0
ARC
  5
DB
100
AcDbEntity
  8
0
  6
ByLayer
 62
  256
370
   -1
100
AcDbCircle
 10
779.7868445529451
 20
623.6994322523401
 40
90.6782278773161
100
AcDbArc
 50
67.47937855829812
 51
102.4124157851799
  0
ARC
  5
DC
100
AcDbEntity
  8
0
  6
ByLayer
 62
  256
370
   -1
100
AcDbCircle
 10
826.3541135877394
 20
796.6627208838695
 40
89.98186927397231
100
AcDbArc
 50
262.4415050237794
 51
294.951098303852
  0
ARC
  5
DD
100
AcDbEntity
  8
0
  6
ByLayer
 62
  256
370
   -1
100
AcDbCircle
 10
731.747388457616
 20
892.6442217042827
 40
221.5917458582233
100
AcDbArc
 50
306.7439644531177
 51
343.3364299501958
  0
ARC
  5
DE
100
AcDbEntity
  8
0
  6
ByLayer
 62
  256
370
   -1
100
AcDbCircle
 10
522.5300907396053
 20
718.2291177212377
 40
230.3785518008506
100
AcDbArc
 50
338.537754896876
 51
3.177751207414193
  0
ARC
  5
DF
100
AcDbEntity
  8
0
  6
ByLayer
 62
  256
370
   -1
100
AcDbCircle
 10
704.7749696292415
 20
668.884143321643
 40
47.49259561727585
100
AcDbArc
 50
290.113439243987
 51
312.6202725074126
  0
ARC
  5
E0
100
AcDbEntity
  8
0
  6
ByLayer
 62
  256
370
   -1
100
AcDbCircle
 10
725.0388158218077
 20
647.275449277029
 40
23.32137478420174
100
AcDbArc
 50
260.2932942381328
 51
301.7487745366939
  0
ARC
  5
E1
100
AcDbEntity
  8
0
  6
ByLayer
 62
  256
370
   -1
100
AcDbCircle
 10
694.0278456618493
 20
641.7923492363152
 40
45.59892897353747
100
AcDbArc
 50
288.0282625964279
 51
341.6591989950627
  0
ARC
  5
E2
100
AcDbEntity
  8
0
  6
ByLayer
 62
  256
370
   -1
100
AcDbCircle
 10
710.3428985617983
 20
638.7804367424096
 40
40.40837690625838
100
AcDbArc
 50
266.8750338576517
 51
353.7787184596958
  0
ARC
  5
E3
100
AcDbEntity
  8
0
  6
ByLayer
 62
  256
370
   -1
100
AcDbCircle
 10
405.9671949971739
 20
690.0023998409148
 40
349.0035625647826
100
AcDbArc
 50
350.8329511601534
 51
6.746115772212794
  0
ARC
  5
E4
100
AcDbEntity
  8
0
  6
ByLayer
 62
  256
370
   -1
100
AcDbCircle
 10
733.6723737424363
 20
738.3156861059532
 40
13.49340851640162
100
AcDbArc
 50
55.92480805968337
 51
101.9850852273901
  0
ARC
  5
E5
100
AcDbEntity
  8
0
  6
ByLayer
 62
  256
370
   -1
100
AcDbCircle
 10
1189.90691521375
 20
527.8166703269931
 40
521.4986674361285
100
AcDbArc
 50
156.8756859832465
 51
164.2390239664408
  0
ARC
  5
E6
100
AcDbEntity
  8
0
  6
ByLayer
 62
  256
370
   -1
100
AcDbCircle
 10
983.5888552555205
 20
622.4740272448694
 40
299.2865629231371
100
AcDbArc
 50
154.4688715752544
 51
170.9659057516769
  0
ARC
  5
E7
100
AcDbEntity
  8
0
  6
ByLayer
 62
  256
370
   -1
100
AcDbCircle
 10
726.7905544321633
 20
742.2114037450742
 40
16.17345079575791
100
AcDbArc
 50
26.75503115983627
 51
145.0914532424123
  0
ARC
  5
E8
100
AcDbEntity
  8
0
  6
ByLayer
 62
  256
370
   -1
100
AcDbCircle
 10
669.8081199178215
 20
635.3795106054839
 40
22.82317578370087
100
AcDbArc
 50
69.12278599491334
 51
153.5412332470671
  0
ARC
  5
E9
100
AcDbEntity
  8
0
  6
ByLayer
 62
  256
370
   -1
100
AcDbCircle
 10
665.1556788825552
 20
628.3664784599047
 40
31.08871084948048
100
AcDbArc
 50
3.776004094769583
 51
65.71535879977858
  0
ARC
  5
EA
100
AcDbEntity
  8
0
  6
ByLayer
 62
  256
370
   -1
100
AcDbCircle
 10
655.9516307814378
 20
622.4664780289964
 40
41.00284313801996
100
AcDbArc
 50
319.0219955461433
 51
11.17609544670374
  0
ARC
  5
EB
100
AcDbEntity
  8
0
  6
ByLayer
 62
  256
370
   -1
100
AcDbCircle
 10
666.8736467117196
 20
572.195326190829
 40
30.79116628284558
100
AcDbArc
 50
49.41114984236143
 51
98.44662358923513
  0
ARC
  5
EC
100
AcDbEntity
  8
0
  6
ByLayer
 62
  256
370
   -1
100
AcDbCircle
 10
658.6508986452819
 20
571.5060005327819
 40
31.36548986474726
100
AcDbArc
 50
36.60390821571173
 51
83.22557566930958
  0
ARC
  5
ED
100
AcDbEntity
  8
0
  6
ByLayer
 62
  256
370
   -1
100
AcDbCircle
 10
648.3884812976818
 20
646.1503182354749
 40
66.22389369427846
100
AcDbArc
 50
271.2088510025307
 51
302.3563259051574
  0
ARC
  5
EE
100
AcDbEntity
  8
0
  6
ByLayer
 62
  256
370
   -1
100
AcDbCircle
 10
656.588072696294
 20
619.0698407920721
 40
38.84083131956979
100
AcDbArc
 50
26.25587886607571
 51
54.5364204270083
  0
ARC
  5
EF
100
AcDbEntity
  8
0
  6
ByLayer
 62
  256
370
   -1
100
AcDbCircle
 10
679.6164007849417
 20
631.5718674586903
 40
12.69916436401902
100
AcDbArc
 50
277.4437156980339
 51
21.62685521118246
  0
ARC
  5
F0
100
AcDbEntity
  8
0
  6
ByLayer
 62
  256
370
   -1
100
AcDbCircle
 10
678.7055564270006
 20
628.1837084573696
 40
9.552314708947723
100
AcDbArc
 50
133.9449790112433
 51
285.5205655137827
  0
ARC
  5
F1
100
AcDbEntity
  8
0
  6
ByLayer
 62
  256
370
   -1
100
AcDbCircle
 10
662.6337602413175
 20
648.7235559848415
 40
16.60782937911244
100
AcDbArc
 50
304.6509403021061
 51
6.852487545834803
  0
ARC
  5
F2
100
AcDbEntity
  8
0
  6
ByLayer
 62
  256
370
   -1
100
AcDbCircle
 10
1500.188879579741
 20
235.8531651167337
 40
837.0727404260558
100
AcDbArc
 50
155.7069077229512
 51
171.9550454440167
  0
ARC
  5
F3
100
AcDbEntity
  8
0
  6
ByLayer
 62
  256
370
   -1
100
AcDbCircle
 10
1263.535049995649
 20
320.7913889141458
 40
593.0562622413735
100
AcDbArc
 50
165.4988863204744
 51
176.8866141508316
  0
ARC
  5
F4
100
AcDbEntity
  8
0
  6
ByLayer
 62
  256
370
   -1
100
AcDbCircle
 10
927.7081176492295
 20
432.2538489713799
 40
241.1969492330225
100
AcDbArc
 50
142.1568537161908
 51
171.1667272634794
  0
ARC
  5
F5
100
AcDbEntity
  8
0
  6
ByLayer
 62
  256
370
   -1
100
AcDbCircle
 10
326.0614370418205
 20
399.5628110160694
 40
480.1786298181141
100
AcDbArc
 50
6.728353726574833
 51
27.49736432931011
  0
ARC
  5
F6
100
AcDbEntity
  8
0
  6
ByLayer
 62
  256
370
   -1
100
AcDbCircle
 10
591.2932892411952
 20
515.0810122830972
 40
229.6322741501194
100
AcDbArc
 50
292.6850479391822
 51
333.06421983598
  0
ARC
  5
F7
100
AcDbEntity
  8
0
  6
ByLayer
 62
  256
370
   -1
100
AcDbCircle
 10
548.6082495326061
 20
502.2007024272526
 40
238.3726724684809
100
AcDbArc
 50
303.4076789721923
 51
343.0471514008923
  0
ARC
  5
F8
100
AcDbEntity
  8
0
  6
ByLayer
 62
  256
370
   -1
100
AcDbCircle
 10
677.2336562037503
 20
457.6395606615349
 40
102.4713027127432
100
AcDbArc
 50
345.9108870289551
 51
7.493137417517524
  0
ARC
  5
F9
100
AcDbEntity
  8
0
  6
ByLayer
 62
  256
370
   -1
100
AcDbCircle
 10
-74.49008917391939
 20
396.1397801661353
 40
856.5976008030635
100
AcDbArc
 50
5.013791394080466
 51
15.23705994275144
  0
ARC
  5
FA
100
AcDbEntity
  8
0
  6
ByLayer
 62
  256
370
   -1
100
AcDbCircle
 10
716.6173177822197
 20
446.2480802207804
 40
86.84494936387023
100
AcDbArc
 50
336.0970823865283
 51
6.328973194245175
  0
ARC
  5
FB
100
AcDbEntity
  8
0
  6
ByLayer
 62
  256
370
   -1
100
AcDbCircle
 10
792.0241998725468
 20
1095.020295054146
 40
35.06580343947983
100
AcDbArc
 50
11.83259110816353
 51
49.01307600231448
  0
ARC
  5
FC
100
AcDbEntity
  8
0
  6
ByLayer
 62
  256
370
   -1
100
AcDbCircle
 10
810.6497358609026
 20
1117.9592606904
 40
5.620972071137816
100
AcDbArc
 50
38.91334650989851
 51
215.8984749923474
  0
ARC
  5
FD
100
AcDbEntity
  8
0
  6
ByLayer
 62
  256
370
   -1
100
AcDbCircle
 10
631.8365314445761
 20
1060.889083458608
 40
182.3682761107689
100
AcDbArc
 50
342.4561637347019
 51
17.14953904116766
  0
ARC
  5
FE
100
AcDbEntity
  8
0
  6
ByLayer
 62
  256
370
   -1
100
AcDbCircle
 10
947.0068531854743
 20
1273.870805269087
 40
7.03913401050719
100
AcDbArc
 50
67.82197160947777
 51
232.8263480382652
  0
ARC
  5
FF
100
AcDbEntity
  8
full
  6
ByLayer
 62
  256
370
   -1
100
AcDbCircle
 10
1772.192169069017
 20
1149.547222327939
 40
417.9281292004928
100
AcDbArc
 50
200.3904544122259
 51
223.1756821890802
  0
ARC
  5
100
100
AcDbEntity
  8
full
  6
ByLayer
 62
  256
370
   -1
100
AcDbCircle
 10
1581.606394809577
 20
1321.360599239465
 40
523.4610639645422
100
AcDbArc
 50
226.0521557668537
 51
252.5848333297988
  0
ARC
  5
101
100
AcDbEntity
  8
full
  6
ByLayer
 62
  256
370
   -1
100
AcDbCircle
 10
1407.00903447237
 20
1110.595435900258
 40
251.3876481864399
100
AcDbArc
 50
180.9151656870669
 51
221.3594276591195
  0
ARC
  5
102
100
AcDbEntity
  8
full
  6
ByLayer
 62
  256
370
   -1
100
AcDbCircle
 10
1331.302080952835
 20
1129.212251580657
 40
177.1006679480376
100
AcDbArc
 50
123.6800444301156
 51
187.3419943535404
  0
ARC
  5
103
100
AcDbEntity
  8
full
  6
ByLayer
 62
  256
370
   -1
100
AcDbCircle
 10
1317.565741500639
 20
1161.260773215986
 40
129.0768768841302
100
AcDbArc
 50
126.852165410121
 51
174.9316444742058
  0
ARC
  5
104
100
AcDbEntity
  8
full
  6
ByLayer
 62
  256
370
   -1
100
AcDbCircle
 10
1439.282952794368
 20
1141.840899997472
 40
252.1801823631569
100
AcDbArc
 50
172.9793910773005
 51
191.8512043088994
  0
ARC
  5
105
100
AcDbEntity
  8
full
  6
ByLayer
 62
  256
370
   -1
100
AcDbCircle
 10
1384.469710840533
 20
1074.831284713414
 40
192.5937967633068
100
AcDbArc
 50
137.7672982981022
 51
175.4676383915962
  0
ARC
  5
106
100
AcDbEntity
  8
full
  6
ByLayer
 62
  256
370
   -1
100
AcDbCircle
 10
1244.810216044808
 20
1199.050348846284
 40
6.001569619368145
100
AcDbArc
 50
338.3677418524911
 51
119.3432639612838
  0
ARC
  5
107
100
AcDbEntity
  8
full
  6
ByLayer
 62
  256
370
   -1
100
AcDbCircle
 10
1412.0941697874
 20
1076.393090285947
 40
201.6320433519151
100
AcDbArc
 50
143.3196984109514
 51
191.6050286023486
  0
ARC
  5
108
100
AcDbEntity
  8
full
  6
ByLayer
 62
  256
370
   -1
100
AcDbCircle
 10
1399.120913681288
 20
1104.723313016768
 40
196.9768926372204
100
AcDbArc
 50
200.471602945066
 51
267.6941680681473
  0
ARC
  5
109
100
AcDbEntity
  8
full
  6
ByLayer
 62
  256
370
   -1
100
AcDbCircle
 10
1656.732057551852
 20
1051.72570553892
 40
301.9828034364472
100
AcDbArc
 50
170.8084844706547
 51
208.4408730434911
  0
LINE
  5
10A
100
AcDbEntity
  8
full
  6
ByLayer
 62
  256
370
   -1
100
AcDbLine
 10
1467.41427717921
 20
863.5850608585777
 11
1471.328303745062
 21
859.4835775049712
  0
ARC
  5
10B
100
AcDbEntity
  8
full
  6
ByLayer
 62
  256
370
   -1
100
AcDbCircle
 10
1409.105003899623
 20
909.9499627743428
 40
89.4676789931782
100
AcDbArc
 50
280.1932332542414
 51
313.785845970075
  0
ARC
  5
10C
100
AcDbEntity
  8
full
  6
ByLayer
 62
  256
370
   -1
100
AcDbCircle
 10
1464.093844722735
 20
852.579766770727
 40
10
100
AcDbArc
 50
313.785845970075
 51
43.66028170448029
  0
ARC
  5
10D
100
AcDbEntity
  8
full
  6
ByLayer
 62
  256
370
   -1
100
AcDbCircle
 10
1415.12293906243
 20
911.4567240532153
 40
102.0957796829776
100
AcDbArc
 50
282.2188146634383
 51
317.0042496710437
  0
ARC
  5
10E
100
AcDbEntity
  8
full
  6
ByLayer
 62
  256
370
   -1
100
AcDbCircle
 10
1491.332344468389
 20
833.6030612635445
 40
16.25822356869383
100
AcDbArc
 50
58.83948198703692
 51
128.7467322037192
  0
ARC
  5
10F
100
AcDbEntity
  8
full
  6
ByLayer
 62
  256
370
   -1
100
AcDbCircle
 10
1529.489507039234
 20
871.8457003369693
 40
38.42777196471994
100
AcDbArc
 50
219.2821212452917
 51
281.5333149726051
  0
ARC
  5
110
100
AcDbEntity
  8
full
  6
ByLayer
 62
  256
370
   -1
100
AcDbCircle
 10
1522.965801287648
 20
861.9841211005834
 40
31.21113334469207
100
AcDbArc
 50
224.7555472487039
 51
297.0768911498481
  0
ARC
  5
111
100
AcDbEntity
  8
full
  6
ByLayer
 62
  256
370
   -1
100
AcDbCircle
 10
1494.632200306951
 20
836.8966226033347
 40
6.910535510836048
100
AcDbArc
 50
26.76702824402792
 51
134.4107032256733
  0
ARC
  5
112
100
AcDbEntity
  8
full
  6
ByLayer
 62
  256
370
   -1
100
AcDbCircle
 10
1440.350190063918
 20
800.143354053597
 40
12.0850578900223
100
AcDbArc
 50
107.4257787637876
 51
198.792247781677
  0
ARC
  5
113
100
AcDbEntity
  8
full
  6
ByLayer
 62
  256
370
   -1
100
AcDbCircle
 10
1442.448956712803
 20
806.7610877391406
 40
17.1405221965509
100
AcDbArc
 50
173.3055117612469
 51
217.8221640213171
  0
ARC
  5
114
100
AcDbEntity
  8
full
  6
ByLayer
 62
  256
370
   -1
100
AcDbCircle
 10
1406.483373267295
 20
915.9067938563215
 40
102.0957796829776
100
AcDbArc
 50
284.9265772343479
 51
317.0042496710437
  0
ARC
  5
115
100
AcDbEntity
  8
full
  6
ByLayer
 62
  256
370
   -1
100
AcDbCircle
 10
1435.357119535716
 20
807.5934955076818
 40
10
100
AcDbArc
 50
104.9265772343481
 51
173.3055117612469
  0
ARC
  5
116
100
AcDbEntity
  8
full
  6
ByLayer
 62
  256
370
   -1
100
AcDbCircle
 10
1303.708233100065
 20
684.9877822820775
 40
152.4437122087849
100
AcDbArc
 50
67.0887422839201
 51
112.9112577160799
  0
ARC
  5
117
100
AcDbEntity
  8
full
  6
ByLayer
 62
  256
370
   -1
100
AcDbCircle
 10
1299.882208916659
 20
644.7273085679992
 40
191.4034680978609
100
AcDbArc
 50
47.88304083149998
 51
70.72806286174381
  0
ARC
  5
118
100
AcDbEntity
  8
full
  6
ByLayer
 62
  256
370
   -1
100
AcDbCircle
 10
1510.955736486877
 20
767.1000307780296
 40
85.00153513699453
100
AcDbArc
 50
166.6643562077005
 51
201.0426046995036
  0
ARC
  5
119
100
AcDbEntity
  8
full
  6
ByLayer
 62
  256
370
   -1
100
AcDbCircle
 10
1412.409796861208
 20
757.1548686422611
 40
28.15122167999664
100
AcDbArc
 50
218.3296506002723
 51
313.0382943599963
  0
ARC
  5
11A
100
AcDbEntity
  8
full
  6
ByLayer
 62
  256
370
   -1
100
AcDbCircle
 10
1447.588106570068
 20
792.323090511612
 40
77.77224654816413
100
AcDbArc
 50
194.8268913134423
 51
222.5850137733602
  0
ARC
  5
11B
100
AcDbEntity
  8
full
  6
ByLayer
 62
  256
370
   -1
100
AcDbCircle
 10
1276.880402408739
 20
702.8233800819662
 40
118.1900402522082
100
AcDbArc
 50
36.07641848829237
 51
99.38516018009466
  0
ARC
  5
11C
100
AcDbEntity
  8
full
  6
ByLayer
 62
  256
370
   -1
100
AcDbCircle
 10
1385.796984642739
 20
842.71722962414
 40
130.2876699225995
100
AcDbArc
 50
190.2955868169777
 51
248.1669577910616
  0
ARC
  5
11D
100
AcDbEntity
  8
full
  6
ByLayer
 62
  256
370
   -1
100
AcDbCircle
 10
1388.069673029248
 20
647.6938579225002
 40
75.57094356336918
100
AcDbArc
 50
56.71360810932905
 51
105.6132096258541
  0
ARC
  5
11E
100
AcDbEntity
  8
full
  6
ByLayer
 62
  256
370
   -1
100
AcDbCircle
 10
1354.138905156923
 20
758.6224807238843
 40
40.49519601568377
100
AcDbArc
 50
245.4949601100558
 51
289.6109426052972
  0
ARC
  5
11F
100
AcDbEntity
  8
full
  6
ByLayer
 62
  256
370
   -1
100
AcDbCircle
 10
1411.162296029372
 20
622.0710616618558
 40
90.6782278773161
100
AcDbArc
 50
78.30377213346733
 51
113.2368093603492
  0
ARC
  5
120
100
AcDbEntity
  8
full
  6
ByLayer
 62
  256
370
   -1
100
AcDbCircle
 10
1362.436708263902
 20
794.4387699383835
 40
89.98186927397231
100
AcDbArc
 50
245.7650896147952
 51
278.2746828948678
  0
ARC
  5
121
100
AcDbEntity
  8
full
  6
ByLayer
 62
  256
370
   -1
100
AcDbCircle
 10
1455.836320636211
 20
891.595310368187
 40
221.5917458582233
100
AcDbArc
 50
197.3797579684514
 51
233.9722234655296
  0
ARC
  5
122
100
AcDbEntity
  8
full
  6
ByLayer
 62
  256
370
   -1
100
AcDbCircle
 10
1284.116281968849
 20
747.4531141339071
 40
61.87986723674573
100
AcDbArc
 50
23.69552047289772
 51
101.0553560901533
  0
ARC
  5
123
100
AcDbEntity
  8
full
  6
ByLayer
 62
  256
370
   -1
100
AcDbCircle
 10
1326.492215297328
 20
681.8101120749087
 40
78.48361339606626
100
AcDbArc
 50
39.64893900041076
 51
54.46638999659253
  0
ARC
  5
124
100
AcDbEntity
  8
full
  6
ByLayer
 62
  256
370
   -1
100
AcDbCircle
 10
1341.998238231973
 20
670.6468625589155
 40
75.95238917218185
100
AcDbArc
 50
53.73829958764583
 51
78.70675895895258
  0
ARC
  5
125
100
AcDbEntity
  8
full
  6
ByLayer
 62
  256
370
   -1
100
AcDbCircle
 10
1667.217377530783
 20
719.8089461014712
 40
230.3785518008506
100
AcDbArc
 50
177.5384367112331
 51
202.1784330217712
  0
ARC
  5
126
100
AcDbEntity
  8
full
  6
ByLayer
 62
  256
370
   -1
100
AcDbCircle
 10
1485.603524052875
 20
668.1898546245791
 40
47.49259561727585
100
AcDbArc
 50
228.0959154112346
 51
250.6027486746602
  0
ARC
  5
127
100
AcDbEntity
  8
full
  6
ByLayer
 62
  256
370
   -1
100
AcDbCircle
 10
1465.611359036305
 20
646.3295605099078
 40
23.32137478420174
100
AcDbArc
 50
238.9674133819533
 51
280.4228936805144
  0
ARC
  5
128
100
AcDbEntity
  8
full
  6
ByLayer
 62
  256
370
   -1
100
AcDbCircle
 10
1496.688442632172
 20
641.2345108051679
 40
45.59892897353747
100
AcDbArc
 50
199.0569889235846
 51
252.6879253222194
  0
ARC
  5
129
100
AcDbEntity
  8
full
  6
ByLayer
 62
  256
370
   -1
100
AcDbCircle
 10
1480.412311731514
 20
638.0189034125085
 40
40.40837690625838
100
AcDbArc
 50
186.9374694589514
 51
273.8411540609956
  0
ARC
  5
12A
100
AcDbEntity
  8
full
  6
ByLayer
 62
  256
370
   -1
100
AcDbCircle
 10
1784.123987344158
 20
693.0414126308725
 40
349.0035625647826
100
AcDbArc
 50
173.9700721464345
 51
189.8832367584939
  0
ARC
  5
12B
100
AcDbEntity
  8
full
  6
ByLayer
 62
  256
370
   -1
100
AcDbCircle
 10
1455.840517077185
 20
737.2547698395837
 40
13.49340851640162
100
AcDbArc
 50
78.73110269125722
 51
124.7913798589639
  0
ARC
  5
12C
100
AcDbEntity
  8
full
  6
ByLayer
 62
  256
370
   -1
100
AcDbCircle
 10
1002.27275245569
 20
521.0694896475422
 40
521.4986674361285
100
AcDbArc
 50
16.47716395220652
 51
23.84050193540079
  0
ARC
  5
12D
100
AcDbEntity
  8
full
  6
ByLayer
 62
  256
370
   -1
100
AcDbCircle
 10
1207.391523701227
 20
618.2983267604427
 40
299.2865629231371
100
AcDbArc
 50
9.750282166970393
 51
26.24731634339285
  0
ARC
  5
12E
100
AcDbEntity
  8
full
  6
ByLayer
 62
  256
370
   -1
100
AcDbCircle
 10
1462.673104197967
 20
741.2362025188986
 40
16.17345079575791
100
AcDbArc
 50
35.62473467623502
 51
153.961156758811
  0
ARC
  5
12F
100
AcDbEntity
  8
full
  6
ByLayer
 62
  256
370
   -1
100
AcDbCircle
 10
1520.986433635775
 20
635.1249079040095
 40
22.82317578370087
100
AcDbArc
 50
27.17495467158016
 51
111.5934019237339
  0
ARC
  5
130
100
AcDbEntity
  8
full
  6
ByLayer
 62
  256
370
   -1
100
AcDbCircle
 10
1525.726170690904
 20
628.1705768714952
 40
31.08871084948048
100
AcDbArc
 50
115.0008291188687
 51
176.9401838238777
  0
ARC
  5
131
100
AcDbEntity
  8
full
  6
ByLayer
 62
  256
370
   -1
100
AcDbCircle
 10
1535.003246878491
 20
622.3860834673914
 40
41.00284313801996
100
AcDbArc
 50
169.5400924719436
 51
221.6941923725039
  0
ARC
  5
132
100
AcDbEntity
  8
full
  6
ByLayer
 62
  256
370
   -1
100
AcDbCircle
 10
1524.710449049848
 20
571.9823390432306
 40
30.79116628284558
100
AcDbArc
 50
82.26956432941215
 51
131.3050380762859
  0
ARC
  5
133
100
AcDbEntity
  8
full
  6
ByLayer
 62
  256
370
   -1
100
AcDbCircle
 10
1532.94117097334
 20
571.3958475726206
 40
31.36548986474726
100
AcDbArc
 50
97.49061224933772
 51
144.1122797029356
  0
ARC
  5
134
100
AcDbEntity
  8
full
  6
ByLayer
 62
  256
370
   -1
100
AcDbCircle
 10
1542.269769075615
 20
646.1626091218753
 40
66.22389369427846
100
AcDbArc
 50
238.3598620134899
 51
269.5073369161166
  0
ARC
  5
135
100
AcDbEntity
  8
full
  6
ByLayer
 62
  256
370
   -1
100
AcDbCircle
 10
1534.409310990729
 20
618.9817563692008
 40
38.84083131956979
100
AcDbArc
 50
126.179767491639
 51
154.4603090525716
  0
ARC
  5
136
100
AcDbEntity
  8
full
  6
ByLayer
 62
  256
370
   -1
100
AcDbCircle
 10
1511.226512690873
 20
631.1949634958908
 40
12.69916436401902
100
AcDbArc
 50
159.0893327074648
 51
263.2724722206133
  0
ARC
  5
137
100
AcDbEntity
  8
full
  6
ByLayer
 62
  256
370
   -1
100
AcDbCircle
 10
1512.179636225085
 20
627.8184542938958
 40
9.552314708947723
100
AcDbArc
 50
255.1956224048646
 51
46.77120890740397
  0
ARC
  5
138
100
AcDbEntity
  8
full
  6
ByLayer
 62
  256
370
   -1
100
AcDbCircle
 10
1527.993438785473
 20
648.5575868135307
 40
16.60782937911244
100
AcDbArc
 50
173.8637003728124
 51
236.0652476165412
  0
ARC
  5
139
100
AcDbEntity
  8
full
  6
ByLayer
 62
  256
370
   -1
100
AcDbCircle
 10
695.6644291816893
 20
225.2504201395322
 40
837.0727404260558
100
AcDbArc
 50
8.761142474630589
 51
25.00928019569607
  0
ARC
  5
13A
100
AcDbEntity
  8
full
  6
ByLayer
 62
  256
370
   -1
100
AcDbCircle
 10
931.2380845821812
 20
313.1400657180984
 40
593.0562622413735
100
AcDbArc
 50
3.829573767815703
 51
15.21730159817291
  0
ARC
  5
13B
100
AcDbEntity
  8
full
  6
ByLayer
 62
  256
370
   -1
100
AcDbCircle
 10
1265.645555146521
 20
428.7914907935257
 40
241.1969492330225
100
AcDbArc
 50
9.549460655167923
 51
38.55933420245646
  0
ARC
  5
13C
100
AcDbEntity
  8
full
  6
ByLayer
 62
  256
370
   -1
100
AcDbCircle
 10
1867.65385595566
 20
403.62329647207
 40
480.1786298181141
100
AcDbArc
 50
153.2188235893372
 51
173.9878341920725
  0
ARC
  5
13D
100
AcDbEntity
  8
full
  6
ByLayer
 62
  256
370
   -1
100
AcDbCircle
 10
1600.998803072677
 20
515.8172045823324
 40
229.6322741501194
100
AcDbArc
 50
207.6519680826673
 51
248.031139979465
  0
ARC
  5
13E
100
AcDbEntity
  8
full
  6
ByLayer
 62
  256
370
   -1
100
AcDbCircle
 10
1643.841505727028
 20
503.4714431162564
 40
238.3726724684809
100
AcDbArc
 50
197.6690365177549
 51
237.308508946455
  0
ARC
  5
13F
100
AcDbEntity
  8
full
  6
ByLayer
 62
  256
370
   -1
100
AcDbCircle
 10
1515.783140037813
 20
457.306027773286
 40
102.4713027127432
100
AcDbArc
 50
173.2230505011298
 51
194.8053008896922
  0
ARC
  5
140
100
AcDbEntity
  8
full
  6
ByLayer
 62
  256
370
   -1
100
AcDbCircle
 10
2268.21687652004
 20
405.2072315395126
 40
856.5976008030635
100
AcDbArc
 50
165.4791279758958
 51
175.7023965245668
  0
ARC
  5
141
100
AcDbEntity
  8
full
  6
ByLayer
 62
  256
370
   -1
100
AcDbCircle
 10
1476.5449431312
 20
445.4231607169997
 40
86.84494936387023
100
AcDbArc
 50
174.3872147244021
 51
204.619105532119
  0
ARC
  5
142
100
AcDbEntity
  8
full
  6
ByLayer
 62
  256
370
   -1
100
AcDbCircle
 10
1393.034616058937
 20
1093.202142993099
 40
35.06580343947983
100
AcDbArc
 50
131.7031119163328
 51
168.8835968104837
  0
ARC
  5
143
100
AcDbEntity
  8
full
  6
ByLayer
 62
  256
370
   -1
100
AcDbCircle
 10
1374.123809263519
 20
1115.906506486954
 40
5.620972071137816
100
AcDbArc
 50
324.8177129262998
 51
141.8028414087488
  0
ARC
  5
144
100
AcDbEntity
  8
full
  6
ByLayer
 62
  256
370
   -1
100
AcDbCircle
 10
1553.636393794112
 20
1061.075865436081
 40
182.3682761107689
100
AcDbArc
 50
163.5666488774796
 51
198.2600241839453
  0
ARC
  5
145
100
AcDbEntity
  8
full
  6
ByLayer
 62
  256
370
   -1
100
AcDbCircle
 10
1235.828526241101
 20
1270.101473563472
 40
7.03913401050719
100
AcDbArc
 50
307.8898398803821
 51
112.8942163091695
  0
ARC
  5
146
100
AcDbEntity
  8
full
  6
ByLayer
 62
  256
370
   -1
100
AcDbCircle
 10
1251.495376612729
 20
714.8425103812431
 40
95.62176722992386
100
AcDbArc
 50
67.10441332286585
 51
77.46400126438022
  0
ARC
  5
147
100
AcDbEntity
  8
full
  6
ByLayer
 62
  256
370
   -1
100
AcDbCircle
 10
1275.138354464083
 20
747.1026850160461
 40
57.45100907823093
100
AcDbArc
 50
32.68795374253497
 51
76.34889096403305
  0
ARC
  5
148
100
AcDbEntity
  8
full
  6
ByLayer
 62
  256
370
   -1
100
AcDbCircle
 10
1415.596091566819
 20
825.9588642124296
 40
103.7836615972524
100
AcDbArc
 50
207.4421519513116
 51
222.4946925839662
  0
ARC
  5
149
100
AcDbEntity
  8
full
  6
ByLayer
 62
  256
370
   -1
100
AcDbCircle
 10
1366.683122725191
 20
781.5518607864599
 40
37.72145643781828
100
AcDbArc
 50
222.9484374367175
 51
254.9244098351412
  0
ARC
  5
14A
100
AcDbEntity
  8
full
  6
ByLayer
 62
  256
370
   -1
100
AcDbCircle
 10
1396.577486348003
 20
806.1892356784299
 40
65.27237948040569
100
AcDbArc
 50
211.2566860277726
 51
247.9804316578536
  0
CIRCLE
  5
14B
100
AcDbEntity
  8
full
  6
ByLayer
 62
  256
370
   -1
100
AcDbCircle
 10
1468.216330489417
 20
745.2475631701712
 40
6.232616796826831
  0
CIRCLE
  5
14C
100
AcDbEntity
  8
0
  6
ByLayer
 62
  256
370
   -1
100
AcDbCircle
 10
576.3015845355571
 20
745.2475631701712
 40
6.232616796826831
  0
CIRCLE
  5
14D
100
AcDbEntity
  8
0
  6
ByLayer
 62
  256
370
   -1
100
AcDbCircle
 10
721.1976211388071
 20
746.1531633989415
 40
6.232616796826831
  0
ARC
  5
14E
100
AcDbEntity
  8
full
  6
ByLayer
 62
  256
370
   -1
100
AcDbCircle
 10
1468.475128605015
 20
740.7244441319983
 40
13.97440605751932
100
AcDbArc
 50
135.6790608845059
 51
320.6031987867668
  0
ARC
  5
14F
100
AcDbEntity
  8
0
  6
ByLayer
 62
  256
370
   -1
100
AcDbCircle
 10
576.5603826511549
 20
740.7244441319983
 40
13.97440605751932
100
AcDbArc
 50
135.6790608845059
 51
320.6031987867668
  0
ARC
  5
150
100
AcDbEntity
  8
0
  6
ByLayer
 62
  256
370
   -1
100
AcDbCircle
 10
720.995380020531
 20
741.627162865557
 40
13.97440605751932
100
AcDbArc
 50
220.1129891318804
 51
45.03712703414136
  0
ARC
  5
151
100
AcDbEntity
  8
ref
  6
ByLayer
 62
  256
370
   -1
100
AcDbCircle
 10
1464.584717174363
 20
742.0519041415416
 40
17.60328901416215
100
AcDbArc
 50
22.86650953247258
 51
159.0847954625418
  0
ARC
  5
152
100
AcDbEntity
  8
full
  6
ByLayer
 62
  256
370
   -1
100
AcDbCircle
 10
1304.106727362592
 20
1146.621688317274
 40
417.9281292004928
100
AcDbArc
 50
317.5405057295669
 51
340.3257335064211
  0
ARC
  5
153
100
AcDbEntity
  8
full
  6
ByLayer
 62
  256
370
   -1
100
AcDbCircle
 10
1492.530029368596
 20
1320.803871955459
 40
523.4610639645422
100
AcDbArc
 50
288.1313545888483
 51
314.6640321517934
  0
ARC
  5
154
100
AcDbEntity
  8
full
  6
ByLayer
 62
  256
370
   -1
100
AcDbCircle
 10
1669.748211452917
 20
1112.237555756386
 40
251.3876481864399
100
AcDbArc
 50
319.3567602595276
 51
359.8010222315801
  0
ARC
  5
155
100
AcDbEntity
  8
full
  6
ByLayer
 62
  256
370
   -1
100
AcDbCircle
 10
1745.216549491621
 20
1131.799217009024
 40
177.1006679480376
100
AcDbArc
 50
353.3741935651066
 51
57.03614348853142
  0
ARC
  5
156
100
AcDbEntity
  8
full
  6
ByLayer
 62
  256
370
   -1
100
AcDbCircle
 10
1758.551224961855
 20
1164.016932487619
 40
129.0768768841302
100
AcDbArc
 50
5.784543444441216
 51
53.864022508526
  0
ARC
  5
157
100
AcDbEntity
  8
full
  6
ByLayer
 62
  256
370
   -1
100
AcDbCircle
 10
1637.086261387063
 20
1143.077170676177
 40
252.1801823631569
100
AcDbArc
 50
348.8649836097476
 51
7.736796841346562
  0
ARC
  5
158
100
AcDbEntity
  8
full
  6
ByLayer
 62
  256
370
   -1
100
AcDbCircle
 10
1692.732808696431
 20
1076.757929075013
 40
192.5937967633068
100
AcDbArc
 50
5.248549527050853
 51
42.94888962054483
  0
ARC
  5
159
100
AcDbEntity
  8
full
  6
ByLayer
 62
  256
370
   -1
100
AcDbCircle
 10
1830.828715370124
 20
1202.712964467067
 40
6.001569619368145
100
AcDbArc
 50
61.37292395736333
 51
202.3484460661559
  0
ARC
  5
15A
100
AcDbEntity
  8
full
  6
ByLayer
 62
  256
370
   -1
100
AcDbCircle
 10
1665.090986019033
 20
1077.974320387394
 40
201.6320433519151
100
AcDbArc
 50
349.1111593162984
 51
37.39648950769561
  0
ARC
  5
15B
100
AcDbEntity
  8
full
  6
ByLayer
 62
  256
370
   -1
100
AcDbCircle
 10
1677.709114677542
 20
1106.464489272995
 40
196.9768926372204
100
AcDbArc
 50
273.0220198504998
 51
340.244584973581
  0
ARC
  5
15C
100
AcDbEntity
  8
full
  6
ByLayer
 62
  256
370
   -1
100
AcDbCircle
 10
1420.780540108203
 20
1050.251008554897
 40
301.9828034364472
100
AcDbArc
 50
332.275314875156
 51
9.90770344799242
  0
LINE
  5
15D
100
AcDbEntity
  8
full
  6
ByLayer
 62
  256
370
   -1
100
AcDbLine
 10
1612.435196803526
 20
864.4914416062295
 11
1608.572742548376
 21
860.3413552474917
  0
ARC
  5
15E
100
AcDbEntity
  8
full
  6
ByLayer
 62
  256
370
   -1
100
AcDbCircle
 10
1670.160376213358
 20
911.5815588513035
 40
89.4676789931782
100
AcDbArc
 50
226.9303419485721
 51
260.5229546644056
  0
ARC
  5
15F
100
AcDbEntity
  8
full
  6
ByLayer
 62
  256
370
   -1
100
AcDbCircle
 10
1615.892930663978
 20
853.5285110578595
 40
10
100
AcDbArc
 50
137.0559062141668
 51
226.9303419485721
  0
ARC
  5
160
100
AcDbEntity
  8
full
  6
ByLayer
 62
  256
370
   -1
100
AcDbCircle
 10
1664.12407740308
 20
913.0129811678441
 40
102.0957796829776
100
AcDbArc
 50
223.7119382476034
 51
258.4973732552088
  0
ARC
  5
161
100
AcDbEntity
  8
full
  6
ByLayer
 62
  256
370
   -1
100
AcDbCircle
 10
1588.893758396226
 20
834.2128201005935
 40
16.25822356869383
100
AcDbArc
 50
51.96945571492786
 51
121.8767059316101
  0
ARC
  5
162
100
AcDbEntity
  8
full
  6
ByLayer
 62
  256
370
   -1
100
AcDbCircle
 10
1550.261562421282
 20
871.9755256831071
 40
38.42777196471994
100
AcDbArc
 50
259.1828729460419
 51
321.4340666733553
  0
ARC
  5
163
100
AcDbEntity
  8
full
  6
ByLayer
 62
  256
370
   -1
100
AcDbCircle
 10
1556.908023453683
 20
862.1962599891209
 40
31.21113334469207
100
AcDbArc
 50
243.639296768799
 51
315.9606406699431
  0
ARC
  5
164
100
AcDbEntity
  8
full
  6
ByLayer
 62
  256
370
   -1
100
AcDbCircle
 10
1585.552992440206
 20
837.4648775541675
 40
6.910535510836048
100
AcDbArc
 50
46.30548469297378
 51
153.9491596746192
  0
ARC
  5
165
100
AcDbEntity
  8
full
  6
ByLayer
 62
  256
370
   -1
100
AcDbCircle
 10
1640.290159978478
 20
801.392978865563
 40
12.0850578900223
100
AcDbArc
 50
341.9239401369701
 51
73.29040915485946
  0
ARC
  5
166
100
AcDbEntity
  8
full
  6
ByLayer
 62
  256
370
   -1
100
AcDbCircle
 10
1638.108838849453
 20
807.9839620024946
 40
17.1405221965509
100
AcDbArc
 50
322.8940238973299
 51
7.410676157400128
  0
ARC
  5
167
100
AcDbEntity
  8
full
  6
ByLayer
 62
  256
370
   -1
100
AcDbCircle
 10
1672.707344558764
 20
917.570693676893
 40
102.0957796829776
100
AcDbArc
 50
223.7119382476034
 51
255.7896106842991
  0
ARC
  5
168
100
AcDbEntity
  8
full
  6
ByLayer
 62
  256
370
   -1
100
AcDbCircle
 10
1645.189717307728
 20
808.9049492437568
 40
10
100
AcDbArc
 50
7.410676157400179
 51
75.78961068429899
  0
ARC
  5
169
100
AcDbEntity
  8
full
  6
ByLayer
 62
  256
370
   -1
100
AcDbCircle
 10
1778.360830627459
 20
687.9543610166235
 40
152.4437122087849
100
AcDbArc
 50
67.80493020256719
 51
113.6274456347269
  0
ARC
  5
16A
100
AcDbEntity
  8
full
  6
ByLayer
 62
  256
370
   -1
100
AcDbCircle
 10
1782.689792178161
 20
647.7448559633833
 40
191.4034680978609
100
AcDbArc
 50
109.9881250569032
 51
132.8331470871471
  0
ARC
  5
16B
100
AcDbEntity
  8
full
  6
ByLayer
 62
  256
370
   -1
100
AcDbCircle
 10
1570.103154805511
 20
767.4697021425211
 40
85.00153513699453
100
AcDbArc
 50
339.6735832191434
 51
14.05183171094657
  0
ARC
  5
16C
100
AcDbEntity
  8
full
  6
ByLayer
 62
  256
370
   -1
100
AcDbCircle
 10
1668.765705501224
 20
758.7570930712611
 40
28.15122167999664
100
AcDbArc
 50
227.6778935586508
 51
322.3865373183747
  0
ARC
  5
16D
100
AcDbEntity
  8
full
  6
ByLayer
 62
  256
370
   -1
100
AcDbCircle
 10
1633.150558388404
 20
793.4828558354766
 40
77.77224654816413
100
AcDbArc
 50
318.1311741452868
 51
345.8892966052048
  0
ARC
  5
16E
100
AcDbEntity
  8
full
  6
ByLayer
 62
  256
370
   -1
100
AcDbCircle
 10
1804.963629212331
 20
706.1239002494883
 40
118.1900402522082
100
AcDbArc
 50
81.33102773855238
 51
144.6397694303546
  0
ARC
  5
16F
100
AcDbEntity
  8
full
  6
ByLayer
 62
  256
370
   -1
100
AcDbCircle
 10
1694.306950939542
 20
844.6454169134948
 40
130.2876699225995
100
AcDbArc
 50
292.5492301275855
 51
350.4206011016694
  0
ARC
  5
170
100
AcDbEntity
  8
full
  6
ByLayer
 62
  256
370
   -1
100
AcDbCircle
 10
1694.472137023612
 20
649.6088733224649
 40
75.57094356336918
100
AcDbArc
 50
75.10297829279298
 51
124.002579809318
  0
ARC
  5
171
100
AcDbEntity
  8
full
  6
ByLayer
 62
  256
370
   -1
100
AcDbCircle
 10
1727.013700535475
 20
760.9529481950001
 40
40.49519601568377
100
AcDbArc
 50
251.1052453133499
 51
295.2212278085913
  0
ARC
  5
172
100
AcDbEntity
  8
full
  6
ByLayer
 62
  256
370
   -1
100
AcDbCircle
 10
1671.701590506805
 20
623.6994322523396
 40
90.6782278773161
100
AcDbArc
 50
67.47937855829788
 51
102.4124157851797
  0
ARC
  5
173
100
AcDbEntity
  8
full
  6
ByLayer
 62
  256
370
   -1
100
AcDbCircle
 10
1718.2688595416
 20
796.6627208838688
 40
89.98186927397231
100
AcDbArc
 50
262.4415050237793
 51
294.9510983038518
  0
ARC
  5
174
100
AcDbEntity
  8
full
  6
ByLayer
 62
  256
370
   -1
100
AcDbCircle
 10
1623.662134411477
 20
892.6442217042822
 40
221.5917458582233
100
AcDbArc
 50
306.7439644531174
 51
343.3364299501957
  0
ARC
  5
175
100
AcDbEntity
  8
full
  6
ByLayer
 62
  256
370
   -1
100
AcDbCircle
 10
1797.170465048592
 20
750.6597027781552
 40
61.87986723674573
100
AcDbArc
 50
79.66083182849377
 51
157.0206674457493
  0
ARC
  5
176
100
AcDbEntity
  8
full
  6
ByLayer
 62
  256
370
   -1
100
AcDbCircle
 10
1755.61834768533
 20
684.4921504023336
 40
78.48361339606626
100
AcDbArc
 50
126.2497979220545
 51
141.0672489182363
  0
ARC
  5
177
100
AcDbEntity
  8
full
  6
ByLayer
 62
  256
370
   -1
100
AcDbCircle
 10
1740.253071279766
 20
673.135955265464
 40
75.95238917218185
100
AcDbArc
 50
102.0094289596945
 51
126.9778883310012
  0
ARC
  5
178
100
AcDbEntity
  8
full
  6
ByLayer
 62
  256
370
   -1
100
AcDbCircle
 10
1414.444836693466
 20
718.2291177212381
 40
230.3785518008506
100
AcDbArc
 50
338.5377548968759
 51
3.177751207413938
  0
ARC
  5
179
100
AcDbEntity
  8
full
  6
ByLayer
 62
  256
370
   -1
100
AcDbCircle
 10
1596.689715583102
 20
668.884143321643
 40
47.49259561727585
100
AcDbArc
 50
290.1134392439868
 51
312.6202725074124
  0
ARC
  5
17A
100
AcDbEntity
  8
full
  6
ByLayer
 62
  256
370
   -1
100
AcDbCircle
 10
1616.953561775668
 20
647.2754492770288
 40
23.32137478420174
100
AcDbArc
 50
260.2932942381326
 51
301.7487745366937
  0
ARC
  5
17B
100
AcDbEntity
  8
full
  6
ByLayer
 62
  256
370
   -1
100
AcDbCircle
 10
1585.942591615709
 20
641.792349236315
 40
45.59892897353747
100
AcDbArc
 50
288.0282625964276
 51
341.6591989950624
  0
ARC
  5
17C
100
AcDbEntity
  8
full
  6
ByLayer
 62
  256
370
   -1
100
AcDbCircle
 10
1602.257644515658
 20
638.7804367424094
 40
40.40837690625838
100
AcDbArc
 50
266.8750338576514
 51
353.7787184596957
  0
ARC
  5
17D
100
AcDbEntity
  8
full
  6
ByLayer
 62
  256
370
   -1
100
AcDbCircle
 10
1297.881940951034
 20
690.0023998409157
 40
349.0035625647826
100
AcDbArc
 50
350.8329511601531
 51
6.74611577221259
  0
ARC
  5
17E
100
AcDbEntity
  8
full
  6
ByLayer
 62
  256
370
   -1
100
AcDbCircle
 10
1625.587119696297
 20
738.315686105953
 40
13.49340851640162
100
AcDbArc
 50
55.92480805968314
 51
101.9850852273898
  0
ARC
  5
17F
100
AcDbEntity
  8
full
  6
ByLayer
 62
  256
370
   -1
100
AcDbCircle
 10
2081.82166116761
 20
527.8166703269912
 40
521.4986674361285
100
AcDbArc
 50
156.8756859832463
 51
164.2390239664406
  0
ARC
  5
180
100
AcDbEntity
  8
full
  6
ByLayer
 62
  256
370
   -1
100
AcDbCircle
 10
1875.503601209381
 20
622.4740272448682
 40
299.2865629231371
100
AcDbArc
 50
154.4688715752542
 51
170.9659057516767
  0
ARC
  5
181
100
AcDbEntity
  8
full
  6
ByLayer
 62
  256
370
   -1
100
AcDbCircle
 10
1618.705300386024
 20
742.2114037450738
 40
16.17345079575791
100
AcDbArc
 50
26.75503115983604
 51
145.091453242412
  0
ARC
  5
182
100
AcDbEntity
  8
full
  6
ByLayer
 62
  256
370
   -1
100
AcDbCircle
 10
1561.722865871681
 20
635.3795106054839
 40
22.82317578370087
100
AcDbArc
 50
69.1227859949131
 51
153.5412332470669
  0
ARC
  5
183
100
AcDbEntity
  8
full
  6
ByLayer
 62
  256
370
   -1
100
AcDbCircle
 10
1557.070424836415
 20
628.3664784599047
 40
31.08871084948048
100
AcDbArc
 50
3.776004094769379
 51
65.71535879977836
  0
ARC
  5
184
100
AcDbEntity
  8
full
  6
ByLayer
 62
  256
370
   -1
100
AcDbCircle
 10
1547.866376735298
 20
622.4664780289964
 40
41.00284313801996
100
AcDbArc
 50
319.0219955461432
 51
11.17609544670348
  0
ARC
  5
185
100
AcDbEntity
  8
full
  6
ByLayer
 62
  256
370
   -1
100
AcDbCircle
 10
1558.788392665579
 20
572.195326190829
 40
30.79116628284558
100
AcDbArc
 50
49.41114984236118
 51
98.44662358923489
  0
ARC
  5
186
100
AcDbEntity
  8
full
  6
ByLayer
 62
  256
370
   -1
100
AcDbCircle
 10
1550.565644599142
 20
571.5060005327819
 40
31.36548986474726
100
AcDbArc
 50
36.60390821571147
 51
83.22557566930936
  0
ARC
  5
187
100
AcDbEntity
  8
full
  6
ByLayer
 62
  256
370
   -1
100
AcDbCircle
 10
1540.303227251542
 20
646.1503182354749
 40
66.22389369427846
100
AcDbArc
 50
271.2088510025304
 51
302.3563259051571
  0
ARC
  5
188
100
AcDbEntity
  8
full
  6
ByLayer
 62
  256
370
   -1
100
AcDbCircle
 10
1548.502818650154
 20
619.0698407920721
 40
38.84083131956979
100
AcDbArc
 50
26.25587886607545
 51
54.5364204270081
  0
ARC
  5
189
100
AcDbEntity
  8
full
  6
ByLayer
 62
  256
370
   -1
100
AcDbCircle
 10
1571.531146738802
 20
631.5718674586903
 40
12.69916436401902
100
AcDbArc
 50
277.4437156980337
 51
21.62685521118225
  0
ARC
  5
18A
100
AcDbEntity
  8
full
  6
ByLayer
 62
  256
370
   -1
100
AcDbCircle
 10
1570.620302380861
 20
628.1837084573693
 40
9.552314708947723
100
AcDbArc
 50
133.9449790112431
 51
285.5205655137825
  0
ARC
  5
18B
100
AcDbEntity
  8
full
  6
ByLayer
 62
  256
370
   -1
100
AcDbCircle
 10
1554.548506195178
 20
648.7235559848415
 40
16.60782937911244
100
AcDbArc
 50
304.6509403021059
 51
6.8524875458346
  0
ARC
  5
18C
100
AcDbEntity
  8
full
  6
ByLayer
 62
  256
370
   -1
100
AcDbCircle
 10
2392.103625533599
 20
235.8531651167308
 40
837.0727404260558
100
AcDbArc
 50
155.706907722951
 51
171.9550454440164
  0
ARC
  5
18D
100
AcDbEntity
  8
full
  6
ByLayer
 62
  256
370
   -1
100
AcDbCircle
 10
2155.449795949507
 20
320.7913889141436
 40
593.0562622413735
100
AcDbArc
 50
165.4988863204741
 51
176.8866141508313
  0
ARC
  5
18E
100
AcDbEntity
  8
full
  6
ByLayer
 62
  256
370
   -1
100
AcDbCircle
 10
1819.622863603089
 20
432.2538489713789
 40
241.1969492330225
100
AcDbArc
 50
142.1568537161907
 51
171.1667272634791
  0
ARC
  5
18F
100
AcDbEntity
  8
full
  6
ByLayer
 62
  256
370
   -1
100
AcDbCircle
 10
1217.97618299568
 20
399.5628110160706
 40
480.1786298181141
100
AcDbArc
 50
6.728353726574578
 51
27.49736432930988
  0
ARC
  5
190
100
AcDbEntity
  8
full
  6
ByLayer
 62
  256
370
   -1
100
AcDbCircle
 10
1483.208035195055
 20
515.0810122830974
 40
229.6322741501194
100
AcDbArc
 50
292.685047939182
 51
333.0642198359798
  0
ARC
  5
191
100
AcDbEntity
  8
full
  6
ByLayer
 62
  256
370
   -1
100
AcDbCircle
 10
1440.522995486466
 20
502.2007024272531
 40
238.3726724684809
100
AcDbArc
 50
303.4076789721921
 51
343.0471514008921
  0
ARC
  5
192
100
AcDbEntity
  8
full
  6
ByLayer
 62
  256
370
   -1
100
AcDbCircle
 10
1569.14840215761
 20
457.6395606615348
 40
102.4713027127432
100
AcDbArc
 50
345.9108870289549
 51
7.49313741751727
  0
ARC
  5
193
100
AcDbEntity
  8
full
  6
ByLayer
 62
  256
370
   -1
100
AcDbCircle
 10
817.4246567799401
 20
396.1397801661378
 40
856.5976008030635
100
AcDbArc
 50
5.013791394080238
 51
15.23705994275118
  0
ARC
  5
194
100
AcDbEntity
  8
full
  6
ByLayer
 62
  256
370
   -1
100
AcDbCircle
 10
1608.532063736079
 20
446.2480802207802
 40
86.84494936387023
100
AcDbArc
 50
336.097082386528
 51
6.32897319424492
  0
ARC
  5
195
100
AcDbEntity
  8
full
  6
ByLayer
 62
  256
370
   -1
100
AcDbCircle
 10
1683.938945826409
 20
1095.020295054146
 40
35.06580343947983
100
AcDbArc
 50
11.8325911081633
 51
49.01307600231423
  0
ARC
  5
196
100
AcDbEntity
  8
full
  6
ByLayer
 62
  256
370
   -1
100
AcDbCircle
 10
1702.564481814764
 20
1117.959260690399
 40
5.620972071137816
100
AcDbArc
 50
38.9133465098983
 51
215.8984749923472
  0
ARC
  5
197
100
AcDbEntity
  8
full
  6
ByLayer
 62
  256
370
   -1
100
AcDbCircle
 10
1523.751277398438
 20
1060.889083458608
 40
182.3682761107689
100
AcDbArc
 50
342.4561637347017
 51
17.1495390411674
  0
ARC
  5
198
100
AcDbEntity
  8
full
  6
ByLayer
 62
  256
370
   -1
100
AcDbCircle
 10
1838.921599139337
 20
1273.870805269086
 40
7.03913401050719
100
AcDbArc
 50
67.82197160947757
 51
232.826348038265
  0
ARC
  5
199
100
AcDbEntity
  8
full
  6
ByLayer
 62
  256
370
   -1
100
AcDbCircle
 10
1830.196438620411
 20
718.4593920187908
 40
95.62176722992386
100
AcDbArc
 50
103.2521866542669
 51
113.6117745957812
  0
ARC
  5
19A
100
AcDbEntity
  8
full
  6
ByLayer
 62
  256
370
   -1
100
AcDbCircle
 10
1806.152071373041
 20
750.4215207467266
 40
57.45100907823093
100
AcDbArc
 50
104.367296954614
 51
148.0282341761121
  0
ARC
  5
19B
100
AcDbEntity
  8
full
  6
ByLayer
 62
  256
370
   -1
100
AcDbCircle
 10
1664.719643364924
 20
827.5158864111676
 40
103.7836615972524
100
AcDbArc
 50
318.2214953346809
 51
333.2740359673355
  0
ARC
  5
19C
100
AcDbEntity
  8
full
  6
ByLayer
 62
  256
370
   -1
100
AcDbCircle
 10
1714.183856890691
 20
783.7237403749939
 40
37.72145643781828
100
AcDbArc
 50
285.7917780835059
 51
317.7677504819296
  0
ARC
  5
19D
100
AcDbEntity
  8
full
  6
ByLayer
 62
  256
370
   -1
100
AcDbCircle
 10
1683.983873517159
 20
807.9855255982368
 40
65.27237948040569
100
AcDbArc
 50
292.7357562607934
 51
329.4595018908745
  0
CIRCLE
  5
19E
100
AcDbEntity
  8
full
  6
ByLayer
 62
  256
370
   -1
100
AcDbCircle
 10
1613.112367092667
 20
746.1531633989415
 40
6.232616796826831
  0
ARC
  5
19F
100
AcDbEntity
  8
full
  6
ByLayer
 62
  256
370
   -1
100
AcDbCircle
 10
1612.910125974391
 20
741.6271628655568
 40
13.97440605751932
100
AcDbArc
 50
220.1129891318802
 51
45.03712703414115
  0
ENDSEC
  0
SECTION
  2
OBJECTS
  0
DICTIONARY
  5
C
330
0
100
AcDbDictionary
281
    1
  3
ACAD_GROUP
350
D
  3
ACAD_IMAGE_DICT
350
1A0
  0
DICTIONARY
  5
D
330
C
100
AcDbDictionary
281
    1
  0
IMAGEDEF_REACTOR
  5
75
330
76
100
AcDbRasterImageDefReactor
 90
    2
330
76
  0
DICTIONARY
  5
1A0
330
C
100
AcDbDictionary
281
    1
  3
vector-image-deer-head-white-background-36120990
350
74
  0
IMAGEDEF
  5
74
102
{ACAD_REACTORS
330
75
102
}
100
AcDbRasterImageDef
 90
    0
  1
/depo/LibreCAD/Animal Head Vector/Geyik - Deer/Geyik-Deer_01/vector-image-deer-head-white-background-36120990.jpg
 10
1300
 20
1390
 11
1
 21
1
280
    1
281
    0
  0
PLOTSETTINGS
  5
1A1
100
AcDbPlotSettings
  6
1x1
 40
0
 41
0
 42
0
 43
0
  0
ENDSEC
  0
EOF
