999
dxfrw 0.6.3
  0
SECTION
  2
HEADER
  9
$ACADVER
  1
AC1021
  9
$DWGCODEPAGE
  3
ANSI_1252
  9
$INSBASE
 10
0
 20
0
 30
0
  9
$EXTMIN
 10
1.934134281617311
 20
-68.90871570769606
 30
0
  9
$EXTMAX
 10
247.2966655216769
 20
40.23319321931996
 30
0
  9
$LIMMIN
 10
0
 20
0
  9
$LIMMAX
 10
420
 20
297
  9
$ORTHOMODE
 70
    0
  9
$REGENMODE
 70
    1
  9
$FILLMODE
 70
    1
  9
$QTEXTMODE
 70
    0
  9
$MIRRTEXT
 70
    0
  9
$LTSCALE
 40
1
  9
$ATTMODE
 70
    0
  9
$TEXTSIZE
 40
2.5
  9
$TRACEWID
 40
15.68
  9
$TEXTSTYLE
  7
STANDARD
  9
$CLAYER
  8
Gövde
  9
$CELTYPE
  6
BYLAYER
  9
$CECOLOR
 62
  256
  9
$CELTSCALE
 40
1
  9
$DISPSILH
 70
    0
  9
$DIMSCALE
 40
1
  9
$DIMASZ
 40
2.5
  9
$DIMEXO
 40
0.625
  9
$DIMDLI
 40
3.75
  9
$DIMRND
 40
0
  9
$DIMDLE
 40
0
  9
$DIMEXE
 40
1.25
  9
$DIMTP
 40
0
  9
$DIMTM
 40
0
  9
$DIMTXT
 40
2.5
  9
$DIMCEN
 40
2.5
  9
$DIMTSZ
 40
0
  9
$DIMTOL
 70
    0
  9
$DIMLIM
 70
    0
  9
$DIMTIH
 70
    0
  9
$DIMTOH
 70
    0
  9
$DIMSE1
 70
    0
  9
$DIMSE2
 70
    0
  9
$DIMTAD
 70
    1
  9
$DIMZIN
 70
    8
  9
$DIMBLK
  1

  9
$DIMASO
 70
    1
  9
$DIMSHO
 70
    1
  9
$DIMPOST
  1

  9
$DIMAPOST
  1

  9
$DIMALT
 70
    0
  9
$DIMALTD
 70
    3
  9
$DIMALTF
 40
0.03937
  9
$DIMLFAC
 40
1
  9
$DIMTOFL
 70
    1
  9
$DIMTVP
 40
0
  9
$DIMTIX
 70
    0
  9
$DIMSOXD
 70
    0
  9
$DIMSAH
 70
    0
  9
$DIMBLK1
  1

  9
$DIMBLK2
  1

  9
$DIMSTYLE
  2
STANDARD
  9
$DIMCLRD
 70
    0
  9
$DIMCLRE
 70
    0
  9
$DIMCLRT
 70
    0
  9
$DIMTFAC
 40
1
  9
$DIMGAP
 40
0.625
  9
$DIMJUST
 70
    0
  9
$DIMSD1
 70
    0
  9
$DIMSD2
 70
    0
  9
$DIMTOLJ
 70
    0
  9
$DIMTZIN
 70
    8
  9
$DIMALTZ
 70
    0
  9
$DIMALTTZ
 70
    0
  9
$DIMUPT
 70
    0
  9
$DIMDEC
 70
    2
  9
$DIMTDEC
 70
    2
  9
$DIMALTU
 70
    2
  9
$DIMALTTD
 70
    3
  9
$DIMTXSTY
  7
STANDARD
  9
$DIMAUNIT
 70
    0
  9
$DIMADEC
 70
    0
  9
$DIMALTRND
 40
0
  9
$DIMAZIN
 70
    0
  9
$DIMDSEP
 70
   44
  9
$DIMATFIT
 70
    3
  9
$DIMFRAC
 70
    0
  9
$DIMLDRBLK
  1
STANDARD
  9
$DIMLUNIT
 70
    2
  9
$DIMLWD
 70
   -2
  9
$DIMLWE
 70
   -2
  9
$DIMTMOVE
 70
    0
  9
$DIMFXL
 40
1
  9
$DIMFXLON
 70
    0
  9
$DIMJOGANG
 40
0.7854
  9
$DIMTFILL
 70
    0
  9
$DIMTFILLCLR
 70
    0
  9
$DIMARCSYM
 70
    0
  9
$DIMLTYPE
  6

  9
$DIMLTEX1
  6

  9
$DIMLTEX2
  6

  9
$LUNITS
 70
    2
  9
$LUPREC
 70
    4
  9
$SKETCHINC
 40
1
  9
$FILLETRAD
 40
0
  9
$AUNITS
 70
    0
  9
$AUPREC
 70
    2
  9
$MENU
  1
.
  9
$ELEVATION
 40
0
  9
$PELEVATION
 40
0
  9
$THICKNESS
 40
0
  9
$LIMCHECK
 70
    0
  9
$CHAMFERA
 40
0
  9
$CHAMFERB
 40
0
  9
$CHAMFERC
 40
0
  9
$CHAMFERD
 40
0
  9
$SKPOLY
 70
    0
  9
$USRTIMER
 70
    1
  9
$ANGBASE
 50
0
  9
$ANGDIR
 70
    0
  9
$PDMODE
 70
   34
  9
$PDSIZE
 40
0
  9
$PLINEWID
 40
0
  9
$SPLFRAME
 70
    0
  9
$SPLINETYPE
 70
    2
  9
$SPLINESEGS
 70
    8
  9
$HANDSEED
  5
20000
  9
$SURFTAB1
 70
    6
  9
$SURFTAB2
 70
    6
  9
$SURFTYPE
 70
    6
  9
$SURFU
 70
    6
  9
$SURFV
 70
    6
  9
$UCSBASE
  2

  9
$UCSNAME
  2

  9
$UCSORG
 10
0
 20
0
 30
0
  9
$UCSXDIR
 10
1
 20
0
 30
0
  9
$UCSYDIR
 10
0
 20
1
 30
0
  9
$UCSORTHOREF
  2

  9
$UCSORTHOVIEW
 70
    0
  9
$UCSORGTOP
 10
0
 20
0
 30
0
  9
$UCSORGBOTTOM
 10
0
 20
0
 30
0
  9
$UCSORGLEFT
 10
0
 20
0
 30
0
  9
$UCSORGRIGHT
 10
0
 20
0
 30
0
  9
$UCSORGFRONT
 10
0
 20
0
 30
0
  9
$UCSORGBACK
 10
0
 20
0
 30
0
  9
$PUCSBASE
  2

  9
$PUCSNAME
  2

  9
$PUCSORG
 10
0
 20
0
 30
0
  9
$PUCSXDIR
 10
1
 20
0
 30
0
  9
$PUCSYDIR
 10
0
 20
1
 30
0
  9
$PUCSORTHOREF
  2

  9
$PUCSORTHOVIEW
 70
    0
  9
$PUCSORGTOP
 10
0
 20
0
 30
0
  9
$PUCSORGBOTTOM
 10
0
 20
0
 30
0
  9
$PUCSORGLEFT
 10
0
 20
0
 30
0
  9
$PUCSORGRIGHT
 10
0
 20
0
 30
0
  9
$PUCSORGFRONT
 10
0
 20
0
 30
0
  9
$PUCSORGBACK
 10
0
 20
0
 30
0
  9
$USERI1
 70
    0
  9
$USERI2
 70
    0
  9
$USERI3
 70
    0
  9
$USERI4
 70
    0
  9
$USERI5
 70
    0
  9
$USERR1
 40
0
  9
$USERR2
 40
0
  9
$USERR3
 40
0
  9
$USERR4
 40
0
  9
$USERR5
 40
0
  9
$WORLDVIEW
 70
    1
  9
$SHADEDGE
 70
    3
  9
$SHADEDIF
 70
   70
  9
$TILEMODE
 70
    1
  9
$MAXACTVP
 70
   64
  9
$PINSBASE
 10
0
 20
0
 30
0
  9
$PLIMCHECK
 70
    0
  9
$PEXTMIN
 10
0
 20
0
 30
0
  9
$PEXTMAX
 10
0
 20
0
 30
0
  9
$GRIDMODE
 70
    1
  9
$SNAPSTYLE
 70
    0
  9
$PLIMMIN
 10
0
 20
0
  9
$PLIMMAX
 10
210
 20
297
  9
$UNITMODE
 70
    0
  9
$VISRETAIN
 70
    1
  9
$PLINEGEN
 70
    0
  9
$PSLTSCALE
 70
    1
  9
$TREEDEPTH
 70
 3020
  9
$CMLSTYLE
  2
Standard
  9
$CMLJUST
 70
    0
  9
$CMLSCALE
 40
20
  9
$PROXYGRAPHICS
 70
    1
  9
$MEASUREMENT
 70
    1
  9
$CELWEIGHT
370
   -1
  9
$ENDCAPS
280
    0
  9
$JOINSTYLE
280
    0
  9
$LWDISPLAY
290
    0
  9
$INSUNITS
 70
    4
  9
$HYPERLINKBASE
  1

  9
$STYLESHEET
  1

  9
$XEDIT
290
    1
  9
$CEPSNTYPE
380
    0
  9
$PSTYLEMODE
290
    1
  9
$EXTNAMES
290
    1
  9
$PSVPSCALE
 40
1
  9
$OLESTARTUP
290
    0
  9
$SORTENTS
280
  127
  9
$INDEXCTL
280
    0
  9
$HIDETEXT
280
    1
  9
$XCLIPFRAME
290
    0
  9
$HALOGAP
280
    0
  9
$OBSCOLOR
 70
  257
  9
$OBSLTYPE
280
    0
  9
$INTERSECTIONDISPLAY
280
    0
  9
$INTERSECTIONCOLOR
 70
  257
  9
$DIMASSOC
280
    1
  9
$PROJECTNAME
  1

  9
$CAMERADISPLAY
290
    0
  9
$LENSLENGTH
 40
50
  9
$CAMERAHEIGHT
 40
0
  9
$STEPSPERSEC
 40
2
  9
$STEPSIZE
 40
50
  9
$3DDWFPREC
 40
2
  9
$PSOLWIDTH
 40
5
  9
$PSOLHEIGHT
 40
80
  9
$LOFTANG1
 40
1.570796326794897
  9
$LOFTANG2
 40
1.570796326794897
  9
$LOFTMAG1
 40
0
  9
$LOFTMAG2
 40
0
  9
$LOFTPARAM
 70
    7
  9
$LOFTNORMALS
280
    1
  9
$LATITUDE
 40
1
  9
$LONGITUDE
 40
1
  9
$NORTHDIRECTION
 40
0
  9
$TIMEZONE
 70
-8000
  9
$LIGHTGLYPHDISPLAY
280
    1
  9
$TILEMODELIGHTSYNCH
280
    1
  9
$SOLIDHIST
280
    1
  9
$SHOWHIST
280
    1
  9
$DWFFRAME
280
    2
  9
$DGNFRAME
280
    0
  9
$REALWORLDSCALE
290
    1
  9
$INTERFERECOLOR
 62
    1
  9
$CSHADOW
280
    0
  9
$SHADOWPLANELOCATION
 40
0
  0
ENDSEC
  0
SECTION
  2
CLASSES
  0
ENDSEC
  0
SECTION
  2
TABLES
  0
TABLE
  2
VPORT
  5
8
330
0
100
AcDbSymbolTable
 70
    1
  0
VPORT
  5
31
330
2
100
AcDbSymbolTableRecord
100
AcDbViewportTableRecord
  2
*ACTIVE
 70
    0
 10
0
 20
0
 11
1
 21
1
 12
125.9104151493081
 22
33.68536052439912
 13
0
 23
0
 14
10
 24
10
 15
10
 25
10
 16
0
 26
0
 36
1
 17
0
 27
0
 37
0
 40
160.5972323379461
 41
1.579365079365079
 42
50
 43
0
 44
0
 50
0
 51
0
 71
    0
 72
  100
 73
    1
 74
    3
 75
    0
 76
    1
 77
    0
 78
    0
281
    0
 65
    1
110
0
120
0
130
0
111
1
121
0
131
0
112
0
122
1
132
0
 79
    0
146
0
348
10020
 60
    7
 61
    5
292
1
282
    1
141
0
142
0
 63
  250
421
3358443
  0
ENDTAB
  0
TABLE
  2
LTYPE
  5
5
330
0
100
AcDbSymbolTable
 70
    4
  0
LTYPE
  5
14
330
5
100
AcDbSymbolTableRecord
100
AcDbLinetypeTableRecord
  2
ByBlock
 70
    0
  3

 72
   65
 73
    0
 40
0
  0
LTYPE
  5
15
330
5
100
AcDbSymbolTableRecord
100
AcDbLinetypeTableRecord
  2
ByLayer
 70
    0
  3

 72
   65
 73
    0
 40
0
  0
LTYPE
  5
16
330
5
100
AcDbSymbolTableRecord
100
AcDbLinetypeTableRecord
  2
Continuous
 70
    0
  3
Solid line
 72
   65
 73
    0
 40
0
  0
LTYPE
  5
32
330
5
100
AcDbSymbolTableRecord
100
AcDbLinetypeTableRecord
  2
DOT
 70
    0
  3
Dot . . . . . . . . . . . . . . . . . . . . . .
 72
   65
 73
    2
 40
6.35
 49
0
 74
    0
 49
-6.35
 74
    0
  0
LTYPE
  5
33
330
5
100
AcDbSymbolTableRecord
100
AcDbLinetypeTableRecord
  2
DOTTINY
 70
    0
  3
Dot (.15x) .....................................
 72
   65
 73
    2
 40
0.9525
 49
0
 74
    0
 49
-0.9525
 74
    0
  0
LTYPE
  5
34
330
5
100
AcDbSymbolTableRecord
100
AcDbLinetypeTableRecord
  2
DOT2
 70
    0
  3
Dot (.5x) .....................................
 72
   65
 73
    2
 40
3.175
 49
0
 74
    0
 49
-3.175
 74
    0
  0
LTYPE
  5
35
330
5
100
AcDbSymbolTableRecord
100
AcDbLinetypeTableRecord
  2
DOTX2
 70
    0
  3
Dot (2x) .  .  .  .  .  .  .  .  .  .  .  .  .
 72
   65
 73
    2
 40
12.7
 49
0
 74
    0
 49
-12.7
 74
    0
  0
LTYPE
  5
36
330
5
100
AcDbSymbolTableRecord
100
AcDbLinetypeTableRecord
  2
DASHED
 70
    0
  3
Dashed _ _ _ _ _ _ _ _ _ _ _ _ _ _ _ _ _
 72
   65
 73
    2
 40
19.05
 49
12.7
 74
    0
 49
-6.35
 74
    0
  0
LTYPE
  5
37
330
5
100
AcDbSymbolTableRecord
100
AcDbLinetypeTableRecord
  2
DASHEDTINY
 70
    0
  3
Dashed (.15x) _ _ _ _ _ _ _ _ _ _ _ _ _ _ _ _ _
 72
   65
 73
    2
 40
2.8575
 49
1.905
 74
    0
 49
-0.9525
 74
    0
  0
LTYPE
  5
38
330
5
100
AcDbSymbolTableRecord
100
AcDbLinetypeTableRecord
  2
DASHED2
 70
    0
  3
Dashed (.5x) _ _ _ _ _ _ _ _ _ _ _ _ _ _ _ _ _
 72
   65
 73
    2
 40
9.524999999999999
 49
6.35
 74
    0
 49
-3.175
 74
    0
  0
LTYPE
  5
39
330
5
100
AcDbSymbolTableRecord
100
AcDbLinetypeTableRecord
  2
DASHEDX2
 70
    0
  3
Dashed (2x) ____  ____  ____  ____  ____  ___
 72
   65
 73
    2
 40
38.09999999999999
 49
25.4
 74
    0
 49
-12.7
 74
    0
  0
LTYPE
  5
3A
330
5
100
AcDbSymbolTableRecord
100
AcDbLinetypeTableRecord
  2
DASHDOT
 70
    0
  3
Dash dot __ . __ . __ . __ . __ . __ . __ . __
 72
   65
 73
    4
 40
25.4
 49
12.7
 74
    0
 49
-6.35
 74
    0
 49
0
 74
    0
 49
-6.35
 74
    0
  0
LTYPE
  5
3B
330
5
100
AcDbSymbolTableRecord
100
AcDbLinetypeTableRecord
  2
DASHDOTTINY
 70
    0
  3
Dash dot (.15x) _._._._._._._._._._._._._._._.
 72
   65
 73
    4
 40
3.81
 49
1.905
 74
    0
 49
-0.9525
 74
    0
 49
0
 74
    0
 49
-0.9525
 74
    0
  0
LTYPE
  5
3C
330
5
100
AcDbSymbolTableRecord
100
AcDbLinetypeTableRecord
  2
DASHDOT2
 70
    0
  3
Dash dot (.5x) _._._._._._._._._._._._._._._.
 72
   65
 73
    4
 40
12.7
 49
6.35
 74
    0
 49
-3.175
 74
    0
 49
0
 74
    0
 49
-3.175
 74
    0
  0
LTYPE
  5
3D
330
5
100
AcDbSymbolTableRecord
100
AcDbLinetypeTableRecord
  2
DASHDOTX2
 70
    0
  3
Dash dot (2x) ____  .  ____  .  ____  .  ___
 72
   65
 73
    4
 40
50.8
 49
25.4
 74
    0
 49
-12.7
 74
    0
 49
0
 74
    0
 49
-12.7
 74
    0
  0
LTYPE
  5
3E
330
5
100
AcDbSymbolTableRecord
100
AcDbLinetypeTableRecord
  2
DIVIDE
 70
    0
  3
Divide ____ . . ____ . . ____ . . ____ . . ____
 72
   65
 73
    6
 40
31.75
 49
12.7
 74
    0
 49
-6.35
 74
    0
 49
0
 74
    0
 49
-6.35
 74
    0
 49
0
 74
    0
 49
-6.35
 74
    0
  0
LTYPE
  5
3F
330
5
100
AcDbSymbolTableRecord
100
AcDbLinetypeTableRecord
  2
DIVIDETINY
 70
    0
  3
Divide (.15x) __..__..__..__..__..__..__..__.._
 72
   65
 73
    6
 40
4.7625
 49
1.905
 74
    0
 49
-0.9525
 74
    0
 49
0
 74
    0
 49
-0.9525
 74
    0
 49
0
 74
    0
 49
-0.9525
 74
    0
  0
LTYPE
  5
40
330
5
100
AcDbSymbolTableRecord
100
AcDbLinetypeTableRecord
  2
DIVIDE2
 70
    0
  3
Divide (.5x) __..__..__..__..__..__..__..__.._
 72
   65
 73
    6
 40
15.875
 49
6.35
 74
    0
 49
-3.175
 74
    0
 49
0
 74
    0
 49
-3.175
 74
    0
 49
0
 74
    0
 49
-3.175
 74
    0
  0
LTYPE
  5
41
330
5
100
AcDbSymbolTableRecord
100
AcDbLinetypeTableRecord
  2
DIVIDEX2
 70
    0
  3
Divide (2x) ________  .  .  ________  .  .  _
 72
   65
 73
    6
 40
63.5
 49
25.4
 74
    0
 49
-12.7
 74
    0
 49
0
 74
    0
 49
-12.7
 74
    0
 49
0
 74
    0
 49
-12.7
 74
    0
  0
LTYPE
  5
42
330
5
100
AcDbSymbolTableRecord
100
AcDbLinetypeTableRecord
  2
BORDER
 70
    0
  3
Border __ __ . __ __ . __ __ . __ __ . __ __ .
 72
   65
 73
    6
 40
44.45
 49
12.7
 74
    0
 49
-6.35
 74
    0
 49
12.7
 74
    0
 49
-6.35
 74
    0
 49
0
 74
    0
 49
-6.35
 74
    0
  0
LTYPE
  5
43
330
5
100
AcDbSymbolTableRecord
100
AcDbLinetypeTableRecord
  2
BORDERTINY
 70
    0
  3
Border (.15x) __.__.__.__.__.__.__.__.__.__.__.
 72
   65
 73
    6
 40
6.6675
 49
1.905
 74
    0
 49
-0.9525
 74
    0
 49
1.905
 74
    0
 49
-0.9525
 74
    0
 49
0
 74
    0
 49
-0.9525
 74
    0
  0
LTYPE
  5
44
330
5
100
AcDbSymbolTableRecord
100
AcDbLinetypeTableRecord
  2
BORDER2
 70
    0
  3
Border (.5x) __.__.__.__.__.__.__.__.__.__.__.
 72
   65
 73
    6
 40
22.225
 49
6.35
 74
    0
 49
-3.175
 74
    0
 49
6.35
 74
    0
 49
-3.175
 74
    0
 49
0
 74
    0
 49
-3.175
 74
    0
  0
LTYPE
  5
45
330
5
100
AcDbSymbolTableRecord
100
AcDbLinetypeTableRecord
  2
BORDERX2
 70
    0
  3
Border (2x) ____  ____  .  ____  ____  .  ___
 72
   65
 73
    6
 40
88.89999999999999
 49
25.4
 74
    0
 49
-12.7
 74
    0
 49
25.4
 74
    0
 49
-12.7
 74
    0
 49
0
 74
    0
 49
-12.7
 74
    0
  0
LTYPE
  5
46
330
5
100
AcDbSymbolTableRecord
100
AcDbLinetypeTableRecord
  2
CENTER
 70
    0
  3
Center ____ _ ____ _ ____ _ ____ _ ____ _ ____
 72
   65
 73
    4
 40
50.8
 49
31.75
 74
    0
 49
-6.35
 74
    0
 49
6.35
 74
    0
 49
-6.35
 74
    0
  0
LTYPE
  5
47
330
5
100
AcDbSymbolTableRecord
100
AcDbLinetypeTableRecord
  2
CENTERTINY
 70
    0
  3
Center (.15x) ___ _ ___ _ ___ _ ___ _ ___ _ ___
 72
   65
 73
    4
 40
7.619999999999999
 49
4.7625
 74
    0
 49
-0.9525
 74
    0
 49
0.9525
 74
    0
 49
-0.9525
 74
    0
  0
LTYPE
  5
48
330
5
100
AcDbSymbolTableRecord
100
AcDbLinetypeTableRecord
  2
CENTER2
 70
    0
  3
Center (.5x) ___ _ ___ _ ___ _ ___ _ ___ _ ___
 72
   65
 73
    4
 40
28.575
 49
19.05
 74
    0
 49
-3.175
 74
    0
 49
3.175
 74
    0
 49
-3.175
 74
    0
  0
LTYPE
  5
49
330
5
100
AcDbSymbolTableRecord
100
AcDbLinetypeTableRecord
  2
CENTERX2
 70
    0
  3
Center (2x) ________  __  ________  __  _____
 72
   65
 73
    4
 40
101.6
 49
63.5
 74
    0
 49
-12.7
 74
    0
 49
12.7
 74
    0
 49
-12.7
 74
    0
  0
ENDTAB
  0
TABLE
  2
LAYER
  5
2
330
0
100
AcDbSymbolTable
 70
    1
  0
LAYER
  5
10
330
2
100
AcDbSymbolTableRecord
100
AcDbLayerTableRecord
  2
0
 70
    5
 62
    7
  6
CONTINUOUS
370
    0
390
F
  0
LAYER
  5
4A
330
2
100
AcDbSymbolTableRecord
100
AcDbLayerTableRecord
  2
Etiket
 70
    0
 62
    7
  6
CONTINUOUS
370
   25
390
F
  0
LAYER
  5
4B
330
2
100
AcDbSymbolTableRecord
100
AcDbLayerTableRecord
  2
Gövde
 70
    0
 62
    2
  6
CONTINUOUS
370
   50
390
F
  0
LAYER
  5
4C
330
2
100
AcDbSymbolTableRecord
100
AcDbLayerTableRecord
  2
Sap_Kısmı
 70
    0
 62
  136
420
32896
  6
CONTINUOUS
370
   50
390
F
  0
ENDTAB
  0
TABLE
  2
STYLE
  5
3
330
0
100
AcDbSymbolTable
 70
    3
  0
STYLE
  5
4D
330
2
100
AcDbSymbolTableRecord
100
AcDbTextStyleTableRecord
  2
standard
 70
    0
 40
0
 41
1
 50
0
 71
    0
 42
1
  3
standard
  4

  0
ENDTAB
  0
TABLE
  2
VIEW
  5
6
330
0
100
AcDbSymbolTable
 70
    0
  0
ENDTAB
  0
TABLE
  2
UCS
  5
7
330
0
100
AcDbSymbolTable
 70
    0
  0
ENDTAB
  0
TABLE
  2
APPID
  5
9
330
0
100
AcDbSymbolTable
 70
    1
  0
APPID
  5
12
330
9
100
AcDbSymbolTableRecord
100
AcDbRegAppTableRecord
  2
ACAD
 70
    0
  0
APPID
  5
4E
330
9
100
AcDbSymbolTableRecord
100
AcDbRegAppTableRecord
  2
LibreCad
 70
    0
  0
ENDTAB
  0
TABLE
  2
DIMSTYLE
  5
A
330
0
100
AcDbSymbolTable
 70
    1
100
AcDbDimStyleTable
 71
    1
  0
DIMSTYLE
105
4F
330
A
100
AcDbSymbolTableRecord
100
AcDbDimStyleTableRecord
  2
Standard
 70
    0
 40
1
 41
2.5
 42
0.625
 43
0.38
 44
1.25
 45
0
 46
0
 47
0
 48
0
 49
1
140
2.5
141
0.09
142
0
143
25.4
144
1
145
0
146
1
147
0.625
148
0
 71
    0
 72
    0
 73
    0
 74
    1
 75
    0
 76
    0
 77
    0
 78
    8
 79
    0
170
    0
171
    2
172
    0
173
    0
174
    0
175
    0
176
    0
177
    0
178
    0
179
    0
271
    2
272
    4
273
    2
274
    2
275
    0
276
    0
277
    2
278
   44
279
    0
280
    0
281
    0
282
    0
283
    1
284
    0
285
    0
286
    0
288
    0
289
    3
340
STANDARD
341

371
   -2
372
   -2
  0
ENDTAB
  0
TABLE
  2
BLOCK_RECORD
  5
1
330
0
100
AcDbSymbolTable
 70
    2
  0
BLOCK_RECORD
  5
1F
330
1
100
AcDbSymbolTableRecord
100
AcDbBlockTableRecord
  2
*Model_Space
 70
    0
280
    1
281
    0
  0
BLOCK_RECORD
  5
1E
330
1
100
AcDbSymbolTableRecord
100
AcDbBlockTableRecord
  2
*Paper_Space
 70
    0
280
    1
281
    0
  0
ENDTAB
  0
ENDSEC
  0
SECTION
  2
BLOCKS
  0
BLOCK
  5
20
330
1F
100
AcDbEntity
  8
0
100
AcDbBlockBegin
  2
*Model_Space
 70
    0
 10
0
 20
0
 30
0
  3
*Model_Space
  1

  0
ENDBLK
  5
21
330
1F
100
AcDbEntity
  8
0
100
AcDbBlockEnd
  0
BLOCK
  5
1C
330
1B
100
AcDbEntity
  8
0
100
AcDbBlockBegin
  2
*Paper_Space
 70
    0
 10
0
 20
0
 30
0
  3
*Paper_Space
  1

  0
ENDBLK
  5
1D
330
1F
100
AcDbEntity
  8
0
100
AcDbBlockEnd
  0
ENDSEC
  0
SECTION
  2
ENTITIES
  0
IMAGE
  5
52
100
AcDbEntity
  8
0
  6
ByLayer
 62
  256
370
   -1
100
AcDbRasterImage
 10
0
 20
0
 30
0
 11
0.25
 21
0
 31
0
 12
1.530808498934192e-17
 22
0.25
 32
0
 13
1000
 23
172
340
50
 70
    1
280
    0
281
   50
282
   50
283
    0
360
51
  0
LINE
  5
53
100
AcDbEntity
  8
Gövde
  6
ByLayer
 62
  256
370
   -1
100
AcDbLine
 10
43.58038850826468
 20
34.47610990237597
 11
86.58892683396471
 21
36.25083817605434
  0
ARC
  5
54
100
AcDbEntity
  8
Gövde
  6
ByLayer
 62
  256
370
   -1
100
AcDbCircle
 10
88.91914871818148
 20
36.55535580865084
 40
2.434593516047434
100
AcDbArc
 50
187.2683629698564
 51
359.9999999999994
  0
ARC
  5
55
100
AcDbEntity
  8
Gövde
  6
ByLayer
 62
  256
370
   -1
100
AcDbCircle
 10
95.45279960378986
 20
36.85505411871411
 40
2.434593516047434
100
AcDbArc
 50
185.2526284495475
 51
359.9999999999998
  0
ARC
  5
56
100
AcDbEntity
  8
Gövde
  6
ByLayer
 62
  256
370
   -1
100
AcDbCircle
 10
101.9864504893982
 20
37.15475242877737
 40
2.434593516047434
100
AcDbArc
 50
185.2526284495479
 51
0
  0
LINE
  5
57
100
AcDbEntity
  8
Gövde
  6
ByLayer
 62
  256
370
   -1
100
AcDbLine
 10
97.88739311983727
 20
36.85505411871411
 11
99.56208049158971
 21
36.93187196282392
  0
LINE
  5
58
100
AcDbEntity
  8
Gövde
  6
ByLayer
 62
  256
370
   -1
100
AcDbLine
 10
91.35374223422889
 20
36.55535580865086
 11
93.02842960598082
 21
36.63217365276061
  0
ARC
  5
59
100
AcDbEntity
  8
Gövde
  6
ByLayer
 62
  256
370
   -1
100
AcDbCircle
 10
46.957883515231
 20
-48.47397519544345
 40
83.01881768766384
100
AcDbArc
 50
92.33163561408163
 51
122.8425197093943
  0
ARC
  5
5A
100
AcDbEntity
  8
Gövde
  6
ByLayer
 62
  256
370
   -1
100
AcDbCircle
 10
130.5125473649848
 20
39.19568472792104
 40
1.072314232371668
100
AcDbArc
 50
144.735731855422
 51
330.3571982025981
  0
ARC
  5
5B
100
AcDbEntity
  8
Gövde
  6
ByLayer
 62
  256
370
   -1
100
AcDbCircle
 10
133.17915812039
 20
37.47228563709143
 40
1.014149396766809
100
AcDbArc
 50
142.0909556337008
 51
337.2133900966885
  0
ARC
  5
5C
100
AcDbEntity
  8
Gövde
  6
ByLayer
 62
  256
370
   -1
100
AcDbCircle
 10
135.9505701718592
 20
36.07493502290533
 40
0.9765499290711005
100
AcDbArc
 50
152.0399881068822
 51
331.3798120714179
  0
ARC
  5
5D
100
AcDbEntity
  8
Gövde
  6
ByLayer
 62
  256
370
   -1
100
AcDbCircle
 10
176.8373108190902
 20
112.0412955697702
 40
86.28173538255106
100
AcDbArc
 50
240.3197827367194
 51
241.0614145756547
  0
ARC
  5
5E
100
AcDbEntity
  8
Gövde
  6
ByLayer
 62
  256
370
   -1
100
AcDbCircle
 10
176.8373108190902
 20
112.0412955697702
 40
86.28173538255106
100
AcDbArc
 50
238.2577017982517
 51
238.9845629936701
  0
ARC
  5
5F
100
AcDbEntity
  8
Gövde
  6
ByLayer
 62
  256
370
   -1
100
AcDbCircle
 10
105.5791228718292
 20
127.591330526461
 40
90.44399264008192
100
AcDbArc
 50
269.2663432616908
 51
285.0099122106805
  0
ARC
  5
60
100
AcDbEntity
  8
Gövde
  6
ByLayer
 62
  256
370
   -1
100
AcDbCircle
 10
176.8373108190902
 20
112.0412955697702
 40
86.28173538255106
100
AcDbArc
 50
236.330719342943
 51
236.8352282597689
  0
ARC
  5
61
100
AcDbEntity
  8
Gövde
  6
ByLayer
 62
  256
370
   -1
100
AcDbCircle
 10
189.9275095634648
 20
-146.2092363435318
 40
182.6387868503536
100
AcDbArc
 50
77.35801331066583
 51
88.02012571472282
  0
ARC
  5
62
100
AcDbEntity
  8
Gövde
  6
ByLayer
 62
  256
370
   -1
100
AcDbCircle
 10
196.1722294405974
 20
-840.6338333696697
 40
876.954355354833
100
AcDbArc
 50
89.99574232610722
 51
92.36287985294641
  0
ARC
  5
63
100
AcDbEntity
  8
Gövde
  6
ByLayer
 62
  256
370
   -1
100
AcDbCircle
 10
147.5882893498982
 20
160.5168880942192
 40
125.5586381950559
100
AcDbArc
 50
265.2692174192774
 51
275.6807904000869
  0
LINE
  5
64
100
AcDbEntity
  8
Gövde
  6
ByLayer
 62
  256
370
   -1
100
AcDbLine
 10
136.8077996211521
 20
35.60716645274086
 11
137.2329728057109
 21
35.38600044186292
  0
LINE
  5
65
100
AcDbEntity
  8
Gövde
  6
ByLayer
 62
  256
370
   -1
100
AcDbLine
 10
243.3550227525258
 20
27.57388430767657
 11
229.8995313445261
 21
32.00177324034107
  0
LINE
  5
66
100
AcDbEntity
  8
Gövde
  6
ByLayer
 62
  256
370
   -1
100
AcDbLine
 10
246.4730676970083
 20
19.16633239623521
 11
236.7691377229282
 21
3.072946663662499
  0
LINE
  5
67
100
AcDbEntity
  8
Gövde
  6
ByLayer
 62
  256
370
   -1
100
AcDbLine
 10
230.5418122383173
 20
1.726876524909336
 11
225.155357403914
 21
5.431201656988343
  0
LINE
  5
68
100
AcDbEntity
  8
Gövde
  6
ByLayer
 62
  256
370
   -1
100
AcDbLine
 10
209.4054404256254
 20
9.73872625080346
 11
194.5918697386505
 21
8.722441894121083
  0
LINE
  5
69
100
AcDbEntity
  8
Gövde
  6
ByLayer
 62
  256
370
   -1
100
AcDbLine
 10
175.2675247419923
 20
10.8347982959038
 11
187.8674566594391
 21
8.982917821321855
  0
ARC
  5
6A
100
AcDbEntity
  8
Gövde
  6
ByLayer
 62
  256
370
   -1
100
AcDbCircle
 10
211.1028167258515
 20
-15.00258127839768
 40
24.79946339256307
100
AcDbArc
 50
55.48326212903936
 51
93.92462484331132
  0
ARC
  5
6B
100
AcDbEntity
  8
Gövde
  6
ByLayer
 62
  256
370
   -1
100
AcDbCircle
 10
192.4397514464682
 20
40.09216262075636
 40
31.44345705565208
100
AcDbArc
 50
261.6387906035956
 51
273.9246248433113
  0
ARC
  5
6C
100
AcDbEntity
  8
Gövde
  6
ByLayer
 62
  256
370
   -1
100
AcDbCircle
 10
233.0215465461602
 20
5.332655276576212
 40
4.376153864235775
100
AcDbArc
 50
235.4832621290395
 51
328.9110193578296
  0
ARC
  5
6D
100
AcDbEntity
  8
Gövde
  6
ByLayer
 62
  256
370
   -1
100
AcDbCircle
 10
241.5626458688093
 20
22.12720031774379
 40
5.734019652867581
100
AcDbArc
 50
328.9110193578296
 51
71.7848283095488
  0
ARC
  5
6E
100
AcDbEntity
  8
Gövde
  6
ByLayer
 62
  256
370
   -1
100
AcDbCircle
 10
171.9575620343599
 20
-11.68571819416297
 40
22.76245848113265
100
AcDbArc
 50
81.63879060359545
 51
122.041328292478
  0
ARC
  5
6F
100
AcDbEntity
  8
Gövde
  6
ByLayer
 62
  256
370
   -1
100
AcDbCircle
 10
158.2897834003101
 20
10.15223258430287
 40
3
100
AcDbArc
 50
239.7167482067334
 51
302.0413282924781
  0
LINE
  5
70
100
AcDbEntity
  8
Gövde
  6
ByLayer
 62
  256
370
   -1
100
AcDbLine
 10
131.1202754825655
 20
3.166272094083723
 11
137.1529125071799
 21
1.115964085718062
  0
ARC
  5
71
100
AcDbEntity
  8
Gövde
  6
ByLayer
 62
  256
370
   -1
100
AcDbCircle
 10
58.06404391732964
 20
119.8279922155606
 40
113.4158939115298
100
AcDbArc
 50
240.3366204636574
 51
268.8114025348099
  0
LINE
  5
72
100
AcDbEntity
  8
Gövde
  6
ByLayer
 62
  256
370
   -1
100
AcDbLine
 10
55.71140684067797
 20
6.436501835828286
 11
125.6316633019577
 21
4.9858022532677
  0
ARC
  5
73
100
AcDbEntity
  8
Gövde
  6
ByLayer
 62
  256
370
   -1
100
AcDbCircle
 10
128.3450292251279
 20
3.982706168777078
 40
2.892845724842878
100
AcDbArc
 50
343.6069411067986
 51
159.7113024382247
  0
LINE
  5
74
100
AcDbEntity
  8
Gövde
  6
ByLayer
 62
  256
370
   -1
100
AcDbLine
 10
238.6157321227667
 20
20.71709369672323
 11
233.6001075900341
 21
12.89651423274275
  0
LINE
  5
75
100
AcDbEntity
  8
Gövde
  6
ByLayer
 62
  256
370
   -1
100
AcDbLine
 10
237.6016408827395
 20
10.3997179187267
 11
242.4216359448121
 21
18.34236232769894
  0
ARC
  5
76
100
AcDbEntity
  8
Gövde
  6
ByLayer
 62
  256
370
   -1
100
AcDbCircle
 10
240.5039482334091
 20
19.50611142983905
 40
2.243175902865785
100
AcDbArc
 50
328.748523153602
 51
147.3264577560606
  0
ARC
  5
77
100
AcDbEntity
  8
Gövde
  6
ByLayer
 62
  256
370
   -1
100
AcDbCircle
 10
235.5853809925811
 20
11.62328556370911
 40
2.358478689008993
100
AcDbArc
 50
147.3264577560608
 51
328.7485231536021
  0
LINE
  5
78
100
AcDbEntity
  8
Gövde
  6
ByLayer
 62
  256
370
   -1
100
AcDbLine
 10
64.42783263283783
 20
21.52869563382774
 11
1.934134281617313
 21
21.27547709779135
  0
ARC
  5
79
100
AcDbEntity
  8
Gövde
  6
ByLayer
 62
  256
370
   -1
100
AcDbCircle
 10
64.33701606414931
 20
43.94199656254581
 40
22.41348491802251
100
AcDbArc
 50
270.2321548042189
 51
339.7943524524449
  0
LINE
  5
7A
100
AcDbEntity
  8
Gövde
  6
ByLayer
 62
  256
370
   -1
100
AcDbLine
 10
64.42783224658612
 20
21.52869563226269
 11
128.4982439215126
 21
22.06864933677416
  0
LINE
  5
7B
100
AcDbEntity
  8
Gövde
  6
ByLayer
 62
  256
370
   -1
100
AcDbLine
 10
128.4982439215126
 20
22.06864933677416
 11
128.5558172412341
 21
6.867862109103065
  0
ARC
  5
7C
100
AcDbEntity
  8
Sap_Kısmı
  6
ByLayer
 62
  256
370
   -1
100
AcDbCircle
 10
196.1722294405974
 20
-840.6338333696697
 40
876.454355354833
100
AcDbArc
 50
89.99574232610722
 51
92.36287985294641
  0
ARC
  5
7D
100
AcDbEntity
  8
Sap_Kısmı
  6
ByLayer
 62
  256
370
   -1
100
AcDbCircle
 10
189.9275095634648
 20
-146.2092363435318
 40
182.1387868503536
100
AcDbArc
 50
77.35801331066583
 51
88.02012571472282
  0
LINE
  5
7E
100
AcDbEntity
  8
Sap_Kısmı
  6
ByLayer
 62
  256
370
   -1
100
AcDbLine
 10
209.3712183887741
 20
10.23755372818795
 11
194.5576477017992
 21
9.221269371505549
  0
ARC
  5
7F
100
AcDbEntity
  8
Sap_Kısmı
  6
ByLayer
 62
  256
370
   -1
100
AcDbCircle
 10
192.4397514464682
 20
40.09216262075636
 40
30.94345705565208
100
AcDbArc
 50
261.6387906035956
 51
273.9246248433113
  0
LINE
  5
80
100
AcDbEntity
  8
Sap_Kısmı
  6
ByLayer
 62
  256
370
   -1
100
AcDbLine
 10
175.3402313591263
 20
11.32948379986058
 11
187.9401632765731
 21
9.477603325278572
  0
ARC
  5
81
100
AcDbEntity
  8
Sap_Kısmı
  6
ByLayer
 62
  256
370
   -1
100
AcDbCircle
 10
171.9575620343599
 20
-11.68571819416297
 40
23.26245848113265
100
AcDbArc
 50
81.63879060359545
 51
122.041328292478
  0
ARC
  5
82
100
AcDbEntity
  8
Sap_Kısmı
  6
ByLayer
 62
  256
370
   -1
100
AcDbCircle
 10
158.2897834003101
 20
10.15223258430287
 40
2.5
100
AcDbArc
 50
239.7167482067334
 51
302.0413282924781
  0
ARC
  5
83
100
AcDbEntity
  8
Sap_Kısmı
  6
ByLayer
 62
  256
370
   -1
100
AcDbCircle
 10
144.7614466821242
 20
161.3045378535147
 40
127.1516557126331
100
AcDbArc
 50
266.5017271147159
 51
276.9133000955255
  0
ARC
  5
84
100
AcDbEntity
  8
Sap_Kısmı
  6
ByLayer
 62
  256
370
   -1
100
AcDbCircle
 10
137.002849494894
 20
27.66327059986621
 40
6.726541078352881
100
AcDbArc
 50
90.00000000000122
 51
192.3523381925798
  0
ARC
  5
85
100
AcDbEntity
  8
Sap_Kısmı
  6
ByLayer
 62
  256
370
   -1
100
AcDbCircle
 10
151.1020299984099
 20
29.75139506886259
 40
20.96877382955222
100
AcDbArc
 50
189.6835601117963
 51
253.1148776993747
  0
LINE
  5
86
100
AcDbEntity
  8
Sap_Kısmı
  6
ByLayer
 62
  256
370
   -1
100
AcDbLine
 10
155.6571349794346
 20
9.057891542759272
 11
157.0290953454511
 21
7.993375102129505
  0
ARC
  5
87
100
AcDbEntity
  8
Sap_Kısmı
  6
ByLayer
 62
  256
370
   -1
100
AcDbCircle
 10
149.8757329634914
 20
1.606757747972665
 40
9.431012888219545
100
AcDbArc
 50
52.19176592586994
 51
121.0484267703524
  0
LINE
  5
88
100
AcDbEntity
  8
Sap_Kısmı
  6
ByLayer
 62
  256
370
   -1
100
AcDbLine
 10
234.3683736034916
 20
29.69370345981832
 11
229.7901021743307
 21
31.51389491871739
  0
LINE
  5
89
100
AcDbEntity
  8
Sap_Kısmı
  6
ByLayer
 62
  256
370
   -1
100
AcDbLine
 10
236.73383647887
 20
22.58448657242062
 11
229.0339851485929
 21
10.0247733635
  0
ARC
  5
8A
100
AcDbEntity
  8
Sap_Kısmı
  6
ByLayer
 62
  256
370
   -1
100
AcDbCircle
 10
211.1028167258515
 20
-15.00258127839768
 40
25.29946339256307
100
AcDbArc
 50
70.99758088604459
 51
93.92462484331132
  0
LINE
  5
8B
100
AcDbEntity
  8
Sap_Kısmı
  6
ByLayer
 62
  256
370
   -1
100
AcDbLine
 10
222.2801606391064
 20
7.762818684365591
 11
219.3405263093218
 21
8.918183524802892
  0
ARC
  5
8C
100
AcDbEntity
  8
Sap_Kısmı
  6
ByLayer
 62
  256
370
   -1
100
AcDbCircle
 10
224.307925120775
 20
12.92212929725786
 40
5.543493013743218
100
AcDbArc
 50
248.5436782976157
 51
328.4892254831831
  0
ARC
  5
8D
100
AcDbEntity
  8
Sap_Kısmı
  6
ByLayer
 62
  256
370
   -1
100
AcDbCircle
 10
232.5594052744457
 20
25.14366122297769
 40
4.896452876575525
100
AcDbArc
 50
328.4891871364782
 51
68.31862838307542
  0
CIRCLE
  5
8E
100
AcDbEntity
  8
Sap_Kısmı
  6
ByLayer
 62
  256
370
   -1
100
AcDbCircle
 10
156.5222679062529
 20
23.52523752681724
 40
3.122984613515416
  0
LINE
  5
8F
100
AcDbEntity
  8
Sap_Kısmı
  6
ByLayer
 62
  256
370
   -1
100
AcDbLine
 10
157.2471249811709
 20
22.26240526639254
 11
157.9783412619582
 21
23.52156603759682
  0
LINE
  5
90
100
AcDbEntity
  8
Sap_Kısmı
  6
ByLayer
 62
  256
370
   -1
100
AcDbLine
 10
157.9783412619582
 20
23.52156603759682
 11
157.2534841870402
 21
24.78439829802152
  0
LINE
  5
91
100
AcDbEntity
  8
Sap_Kısmı
  6
ByLayer
 62
  256
370
   -1
100
AcDbLine
 10
157.2534841870402
 20
24.78439829802152
 11
155.7974108313348
 21
24.78806978724197
  0
LINE
  5
92
100
AcDbEntity
  8
Sap_Kısmı
  6
ByLayer
 62
  256
370
   -1
100
AcDbLine
 10
155.7974108313348
 20
24.78806978724197
 11
155.0661945505475
 21
23.52890901603768
  0
LINE
  5
93
100
AcDbEntity
  8
Sap_Kısmı
  6
ByLayer
 62
  256
370
   -1
100
AcDbLine
 10
155.0661945505475
 20
23.52890901603768
 11
155.7910516254656
 21
22.26607675561295
  0
LINE
  5
94
100
AcDbEntity
  8
Sap_Kısmı
  6
ByLayer
 62
  256
370
   -1
100
AcDbLine
 10
155.7910516254656
 20
22.26607675561295
 11
157.2471249811709
 21
22.26240526639254
  0
CIRCLE
  5
95
100
AcDbEntity
  8
Sap_Kısmı
  6
ByLayer
 62
  256
370
   -1
100
AcDbCircle
 10
216.1506273496724
 20
22.60739179895354
 40
3.122984613515416
  0
LINE
  5
96
100
AcDbEntity
  8
Sap_Kısmı
  6
ByLayer
 62
  256
370
   -1
100
AcDbLine
 10
216.8754844245905
 20
21.34455953852882
 11
217.6067007053778
 21
22.6037203097331
  0
LINE
  5
97
100
AcDbEntity
  8
Sap_Kısmı
  6
ByLayer
 62
  256
370
   -1
100
AcDbLine
 10
217.6067007053778
 20
22.6037203097331
 11
216.8818436304597
 21
23.86655257015783
  0
LINE
  5
98
100
AcDbEntity
  8
Sap_Kısmı
  6
ByLayer
 62
  256
370
   -1
100
AcDbLine
 10
216.8818436304597
 20
23.86655257015783
 11
215.4257702747543
 21
23.87022405937825
  0
LINE
  5
99
100
AcDbEntity
  8
Sap_Kısmı
  6
ByLayer
 62
  256
370
   -1
100
AcDbLine
 10
215.4257702747543
 20
23.87022405937825
 11
214.694553993967
 21
22.61106328817396
  0
LINE
  5
9A
100
AcDbEntity
  8
Sap_Kısmı
  6
ByLayer
 62
  256
370
   -1
100
AcDbLine
 10
214.694553993967
 20
22.61106328817396
 11
215.4194110688851
 21
21.34823102774924
  0
LINE
  5
9B
100
AcDbEntity
  8
Sap_Kısmı
  6
ByLayer
 62
  256
370
   -1
100
AcDbLine
 10
215.4194110688851
 20
21.34823102774924
 11
216.8754844245905
 21
21.34455953852882
  0
ARC
  5
9C
100
AcDbEntity
  8
Gövde
  6
ByLayer
 62
  256
370
   -1
100
AcDbCircle
 10
149.8196223633913
 20
-4.352442429700545
 40
13.79670280897991
100
AcDbArc
 50
144.1887361137467
 51
156.6494262117936
  0
LINE
  5
9D
100
AcDbEntity
  8
Gövde
  6
ByLayer
 62
  256
370
   -1
100
AcDbLine
 10
138.6312027023328
 20
3.720244476611811
 11
138.382419373431
 21
4.597205710990657
  0
LINE
  5
9E
100
AcDbEntity
  8
Gövde
  6
ByLayer
 62
  256
370
   -1
100
AcDbLine
 10
138.382419373431
 20
4.597205710990657
 11
139.2830837438115
 21
4.554316931448724
  0
LINE
  5
9F
100
AcDbEntity
  8
Gövde
  6
ByLayer
 62
  256
370
   -1
100
AcDbLine
 10
140.1803535858753
 20
5.518398762118686
 11
140.073661852474
 21
6.35322327104474
  0
LINE
  5
A0
100
AcDbEntity
  8
Gövde
  6
ByLayer
 62
  256
370
   -1
100
AcDbLine
 10
140.073661852474
 20
6.35322327104474
 11
140.9145121297415
 21
6.185490011051833
  0
LINE
  5
A1
100
AcDbEntity
  8
Gövde
  6
ByLayer
 62
  256
370
   -1
100
AcDbLine
 10
141.9078734111602
 20
6.950355317591402
 11
141.9112721733156
 21
7.909635679913315
  0
LINE
  5
A2
100
AcDbEntity
  8
Gövde
  6
ByLayer
 62
  256
370
   -1
100
AcDbLine
 10
141.9112721733156
 20
7.909635679913315
 11
142.8892709577409
 21
7.577320258362917
  0
LINE
  5
A3
100
AcDbEntity
  8
Gövde
  6
ByLayer
 62
  256
370
   -1
100
AcDbLine
 10
144.4693675979604
 20
8.364624148103204
 11
144.6240790718279
 21
9.185925502436668
  0
LINE
  5
A4
100
AcDbEntity
  8
Gövde
  6
ByLayer
 62
  256
370
   -1
100
AcDbLine
 10
144.6240790718279
 20
9.185925502436668
 11
145.4384855393492
 21
8.730166198869036
  0
LINE
  5
A5
100
AcDbEntity
  8
Gövde
  6
ByLayer
 62
  256
370
   -1
100
AcDbLine
 10
146.8402034443697
 20
9.118714584612988
 11
147.1074132627753
 21
9.981556845167397
  0
LINE
  5
A6
100
AcDbEntity
  8
Gövde
  6
ByLayer
 62
  256
370
   -1
100
AcDbLine
 10
147.1074132627753
 20
9.981556845167397
 11
148.0172846324718
 21
9.326029235767351
  0
LINE
  5
A7
100
AcDbEntity
  8
Gövde
  6
ByLayer
 62
  256
370
   -1
100
AcDbLine
 10
149.6635840902431
 20
9.443377968399155
 11
150.1814434505987
 21
10.33115243515517
  0
LINE
  5
A8
100
AcDbEntity
  8
Gövde
  6
ByLayer
 62
  256
370
   -1
100
AcDbLine
 10
150.1814434505987
 20
10.33115243515517
 11
151.0016834899183
 21
9.393529339965603
  0
LINE
  5
A9
100
AcDbEntity
  8
Gövde
  6
ByLayer
 62
  256
370
   -1
100
AcDbLine
 10
152.5227683231556
 20
9.176859485753639
 11
153.0987583739455
 21
9.631961255179718
  0
LINE
  5
AA
100
AcDbEntity
  8
Gövde
  6
ByLayer
 62
  256
370
   -1
100
AcDbLine
 10
153.0987583739455
 20
9.631961255179718
 11
153.3290675493033
 21
8.990450917935568
  0
ARC
  5
AB
100
AcDbEntity
  8
Gövde
  6
ByLayer
 62
  256
370
   -1
100
AcDbCircle
 10
149.8196223633913
 20
-4.352442429700545
 40
13.79670280897991
100
AcDbArc
 50
59.71674820673363
 51
75.26383702391546
  0
ARC
  5
AC
100
AcDbEntity
  8
Gövde
  6
ByLayer
 62
  256
370
   -1
100
AcDbCircle
 10
149.8196223633913
 20
-4.352442429700545
 40
13.79670280897991
100
AcDbArc
 50
78.7011212402667
 51
85.08503961488545
  0
ARC
  5
AD
100
AcDbEntity
  8
Gövde
  6
ByLayer
 62
  256
370
   -1
100
AcDbCircle
 10
149.8196223633913
 20
-4.352442429700545
 40
13.79670280897991
100
AcDbArc
 50
90.6480189669099
 51
97.50631093528409
  0
ARC
  5
AE
100
AcDbEntity
  8
Gövde
  6
ByLayer
 62
  256
370
   -1
100
AcDbCircle
 10
149.8196223633913
 20
-4.352442429700545
 40
13.79670280897991
100
AcDbArc
 50
102.4713567689967
 51
108.5147968539282
  0
ARC
  5
AF
100
AcDbEntity
  8
Gövde
  6
ByLayer
 62
  256
370
   -1
100
AcDbCircle
 10
149.8196223633913
 20
-4.352442429700545
 40
13.79670280897991
100
AcDbArc
 50
112.8171978545024
 51
120.1535689316061
  0
ARC
  5
B0
100
AcDbEntity
  8
Gövde
  6
ByLayer
 62
  256
370
   -1
100
AcDbCircle
 10
149.8196223633913
 20
-4.352442429700545
 40
13.79670280897991
100
AcDbArc
 50
124.9913075460271
 51
130.1995777555023
  0
ARC
  5
B1
100
AcDbEntity
  8
Gövde
  6
ByLayer
 62
  256
370
   -1
100
AcDbCircle
 10
149.8196223633913
 20
-4.352442429700545
 40
13.79670280897991
100
AcDbArc
 50
134.3199680070099
 51
139.7914551823933
  0
ARC
  5
B2
100
AcDbEntity
  8
Sap_Kısmı
  6
ByLayer
 62
  256
370
   -1
100
AcDbCircle
 10
137.002849494894
 20
27.66327059986621
 40
2.726541078352881
100
AcDbArc
 50
90.00000000000122
 51
192.3523381925798
  0
ARC
  5
B3
100
AcDbEntity
  8
Sap_Kısmı
  6
ByLayer
 62
  256
370
   -1
100
AcDbCircle
 10
144.7614466821242
 20
161.3045378535147
 40
131.1516557126331
100
AcDbArc
 50
266.5017271147159
 51
276.9133000955255
  0
ARC
  5
B4
100
AcDbEntity
  8
Sap_Kısmı
  6
ByLayer
 62
  256
370
   -1
100
AcDbCircle
 10
196.1722294405974
 20
-840.6338333696697
 40
872.454355354833
100
AcDbArc
 50
89.99574232610722
 51
92.36287985294641
  0
ARC
  5
B5
100
AcDbEntity
  8
Sap_Kısmı
  6
ByLayer
 62
  256
370
   -1
100
AcDbCircle
 10
189.9275095634648
 20
-146.2092363435318
 40
178.1387868503536
100
AcDbArc
 50
77.35801331066583
 51
88.02012571472282
  0
LINE
  5
B6
100
AcDbEntity
  8
Sap_Kısmı
  6
ByLayer
 62
  256
370
   -1
100
AcDbLine
 10
232.8905949954712
 20
25.97669251207048
 11
228.3123235663103
 21
27.79688397096958
  0
ARC
  5
B7
100
AcDbEntity
  8
Sap_Kısmı
  6
ByLayer
 62
  256
370
   -1
100
AcDbCircle
 10
232.5594052744457
 20
25.14366122297769
 40
0.8964528765755251
100
AcDbArc
 50
328.4891871364782
 51
68.31862838307542
  0
LINE
  5
B8
100
AcDbEntity
  8
Sap_Kısmı
  6
ByLayer
 62
  256
370
   -1
100
AcDbLine
 10
233.3236689068347
 20
24.67512215296511
 11
225.6238175765576
 21
12.1154089440445
  0
ARC
  5
B9
100
AcDbEntity
  8
Sap_Kısmı
  6
ByLayer
 62
  256
370
   -1
100
AcDbCircle
 10
224.307925120775
 20
12.92212929725786
 40
1.543493013743218
100
AcDbArc
 50
248.5436782976157
 51
328.4892254831831
  0
LINE
  5
BA
100
AcDbEntity
  8
Sap_Kısmı
  6
ByLayer
 62
  256
370
   -1
100
AcDbLine
 10
223.7433279790067
 20
11.48560545444105
 11
220.8036936492221
 21
12.64097029487839
  0
ARC
  5
BB
100
AcDbEntity
  8
Sap_Kısmı
  6
ByLayer
 62
  256
370
   -1
100
AcDbCircle
 10
211.1028167258515
 20
-15.00258127839768
 40
29.29946339256307
100
AcDbArc
 50
70.99758088604459
 51
93.92462484331132
  0
LINE
  5
BC
100
AcDbEntity
  8
Sap_Kısmı
  6
ByLayer
 62
  256
370
   -1
100
AcDbLine
 10
209.0974420939636
 20
14.22817354726364
 11
194.2838714069887
 21
13.21188919058125
  0
ARC
  5
BD
100
AcDbEntity
  8
Sap_Kısmı
  6
ByLayer
 62
  256
370
   -1
100
AcDbCircle
 10
192.4397514464682
 20
40.09216262075636
 40
26.94345705565208
100
AcDbArc
 50
261.6387906035956
 51
273.9246248433113
  0
LINE
  5
BE
100
AcDbEntity
  8
Sap_Kısmı
  6
ByLayer
 62
  256
370
   -1
100
AcDbLine
 10
175.9218842961982
 20
15.28696783151445
 11
188.5218162136451
 21
13.43508735693248
  0
ARC
  5
BF
100
AcDbEntity
  8
Sap_Kısmı
  6
ByLayer
 62
  256
370
   -1
100
AcDbCircle
 10
151.1020299984099
 20
29.75139506886259
 40
16.96877382955222
100
AcDbArc
 50
189.6835601117963
 51
243.4653782221192
  0
ARC
  5
C0
100
AcDbEntity
  8
Sap_Kısmı
  6
ByLayer
 62
  256
370
   -1
100
AcDbCircle
 10
144.8616408157435
 20
17.25402794014131
 40
3
100
AcDbArc
 50
243.4653782221189
 51
287.7678057253926
  0
ARC
  5
C1
100
AcDbEntity
  8
Sap_Kısmı
  6
ByLayer
 62
  256
370
   -1
100
AcDbCircle
 10
149.8757329634914
 20
1.606757747972665
 40
13.43101288821954
100
AcDbArc
 50
57.70477181661533
 51
107.7678057253926
  0
ARC
  5
C2
100
AcDbEntity
  8
Sap_Kısmı
  6
ByLayer
 62
  256
370
   -1
100
AcDbCircle
 10
171.9575620343599
 20
-11.68571819416297
 40
27.26245848113265
100
AcDbArc
 50
81.63879060359545
 51
116.0776429363596
  0
ARC
  5
C3
100
AcDbEntity
  8
Sap_Kısmı
  6
ByLayer
 62
  256
370
   -1
100
AcDbCircle
 10
158.6545265834438
 20
15.49599700399821
 40
3
100
AcDbArc
 50
237.7047718166155
 51
296.0776429363594
  0
MTEXT
  5
C4
100
AcDbEntity
  8
Gövde
  6
ByLayer
 62
  256
370
   -1
100
AcDbMText
 10
96.09864649728254
 20
31.13567047754496
 30
0
 40
5
 41
28.33333333333388
 71
    1
 72
    1
  1
LibreCAD
  7
standard
210
0
220
0
230
1
 50
0
 73
    2
 44
1
  0
MTEXT
  5
C5
100
AcDbEntity
  8
Etiket
  6
ByLayer
 62
  256
370
   -1
100
AcDbMText
 10
28.76911871813547
 20
-20.57538237436271
 30
0
 40
5
 41
160.8055606984293
 71
    1
 72
    1
  1
Çizen: Mustafa Halil ( @AcikKaynakci )\P__________\PReferans;\P * Sanatci: Giorgi Jankhoteli\P * Model Adi: Tactical Knives\P * https://www.artstation.com/artwork/zODNOQ
  7
standard
210
0
220
0
230
1
 50
0
 73
    2
 44
1
  0
ENDSEC
  0
SECTION
  2
OBJECTS
  0
DICTIONARY
  5
C
330
0
100
AcDbDictionary
281
    1
  3
ACAD_GROUP
350
D
  3
ACAD_IMAGE_DICT
350
C6
  0
DICTIONARY
  5
D
330
C
100
AcDbDictionary
281
    1
  0
IMAGEDEF_REACTOR
  5
51
330
52
100
AcDbRasterImageDefReactor
 90
    2
330
52
  0
DICTIONARY
  5
C6
330
C
100
AcDbDictionary
281
    1
  3
giorgi-jankhoteli-10_
350
50
  0
IMAGEDEF
  5
50
102
{ACAD_REACTORS
330
51
102
}
100
AcDbRasterImageDef
 90
    0
  1
/depom/LibreCAD/Bıçak/Giorgi Jankhoteli/giorgi-jankhoteli-10_.jpg
 10
1000
 20
172
 11
1
 21
1
280
    1
281
    0
  0
PLOTSETTINGS
  5
C7
100
AcDbPlotSettings
  6
1x1
 40
0
 41
0
 42
0
 43
0
  0
ENDSEC
  0
EOF
