999
dxfrw 0.6.3
  0
SECTION
  2
HEADER
  9
$ACADVER
  1
AC1021
  9
$DWGCODEPAGE
  3
ANSI_1252
  9
$INSBASE
 10
0
 20
0
 30
0
  9
$EXTMIN
 10
0.1116282688977037
 20
-48.91322385892604
 30
0
  9
$EXTMAX
 10
256.4618591152418
 20
60.79799024036556
 30
0
  9
$LIMMIN
 10
0
 20
0
  9
$LIMMAX
 10
420
 20
297
  9
$ORTHOMODE
 70
    0
  9
$REGENMODE
 70
    1
  9
$FILLMODE
 70
    1
  9
$QTEXTMODE
 70
    0
  9
$MIRRTEXT
 70
    0
  9
$LTSCALE
 40
1
  9
$ATTMODE
 70
    0
  9
$TEXTSIZE
 40
2.5
  9
$TRACEWID
 40
15.68
  9
$TEXTSTYLE
  7
STANDARD
  9
$CLAYER
  8
Gövde
  9
$CELTYPE
  6
BYLAYER
  9
$CECOLOR
 62
  256
  9
$CELTSCALE
 40
1
  9
$DISPSILH
 70
    0
  9
$DIMSCALE
 40
1
  9
$DIMASZ
 40
2.5
  9
$DIMEXO
 40
0.625
  9
$DIMDLI
 40
3.75
  9
$DIMRND
 40
0
  9
$DIMDLE
 40
0
  9
$DIMEXE
 40
1.25
  9
$DIMTP
 40
0
  9
$DIMTM
 40
0
  9
$DIMTXT
 40
2.5
  9
$DIMCEN
 40
2.5
  9
$DIMTSZ
 40
0
  9
$DIMTOL
 70
    0
  9
$DIMLIM
 70
    0
  9
$DIMTIH
 70
    0
  9
$DIMTOH
 70
    0
  9
$DIMSE1
 70
    0
  9
$DIMSE2
 70
    0
  9
$DIMTAD
 70
    1
  9
$DIMZIN
 70
    8
  9
$DIMBLK
  1

  9
$DIMASO
 70
    1
  9
$DIMSHO
 70
    1
  9
$DIMPOST
  1

  9
$DIMAPOST
  1

  9
$DIMALT
 70
    0
  9
$DIMALTD
 70
    3
  9
$DIMALTF
 40
0.03937
  9
$DIMLFAC
 40
1
  9
$DIMTOFL
 70
    1
  9
$DIMTVP
 40
0
  9
$DIMTIX
 70
    0
  9
$DIMSOXD
 70
    0
  9
$DIMSAH
 70
    0
  9
$DIMBLK1
  1

  9
$DIMBLK2
  1

  9
$DIMSTYLE
  2
STANDARD
  9
$DIMCLRD
 70
    0
  9
$DIMCLRE
 70
    0
  9
$DIMCLRT
 70
    0
  9
$DIMTFAC
 40
1
  9
$DIMGAP
 40
0.625
  9
$DIMJUST
 70
    0
  9
$DIMSD1
 70
    0
  9
$DIMSD2
 70
    0
  9
$DIMTOLJ
 70
    0
  9
$DIMTZIN
 70
    8
  9
$DIMALTZ
 70
    0
  9
$DIMALTTZ
 70
    0
  9
$DIMUPT
 70
    0
  9
$DIMDEC
 70
    2
  9
$DIMTDEC
 70
    2
  9
$DIMALTU
 70
    2
  9
$DIMALTTD
 70
    3
  9
$DIMTXSTY
  7
STANDARD
  9
$DIMAUNIT
 70
    0
  9
$DIMADEC
 70
    0
  9
$DIMALTRND
 40
0
  9
$DIMAZIN
 70
    0
  9
$DIMDSEP
 70
   44
  9
$DIMATFIT
 70
    3
  9
$DIMFRAC
 70
    0
  9
$DIMLDRBLK
  1
STANDARD
  9
$DIMLUNIT
 70
    2
  9
$DIMLWD
 70
   -2
  9
$DIMLWE
 70
   -2
  9
$DIMTMOVE
 70
    0
  9
$DIMFXL
 40
1
  9
$DIMFXLON
 70
    0
  9
$DIMJOGANG
 40
0.7854
  9
$DIMTFILL
 70
    0
  9
$DIMTFILLCLR
 70
    0
  9
$DIMARCSYM
 70
    0
  9
$DIMLTYPE
  6

  9
$DIMLTEX1
  6

  9
$DIMLTEX2
  6

  9
$LUNITS
 70
    2
  9
$LUPREC
 70
    4
  9
$SKETCHINC
 40
1
  9
$FILLETRAD
 40
0
  9
$AUNITS
 70
    0
  9
$AUPREC
 70
    2
  9
$MENU
  1
.
  9
$ELEVATION
 40
0
  9
$PELEVATION
 40
0
  9
$THICKNESS
 40
0
  9
$LIMCHECK
 70
    0
  9
$CHAMFERA
 40
0
  9
$CHAMFERB
 40
0
  9
$CHAMFERC
 40
0
  9
$CHAMFERD
 40
0
  9
$SKPOLY
 70
    0
  9
$USRTIMER
 70
    1
  9
$ANGBASE
 50
0
  9
$ANGDIR
 70
    0
  9
$PDMODE
 70
   34
  9
$PDSIZE
 40
0
  9
$PLINEWID
 40
0
  9
$SPLFRAME
 70
    0
  9
$SPLINETYPE
 70
    2
  9
$SPLINESEGS
 70
    8
  9
$HANDSEED
  5
20000
  9
$SURFTAB1
 70
    6
  9
$SURFTAB2
 70
    6
  9
$SURFTYPE
 70
    6
  9
$SURFU
 70
    6
  9
$SURFV
 70
    6
  9
$UCSBASE
  2

  9
$UCSNAME
  2

  9
$UCSORG
 10
0
 20
0
 30
0
  9
$UCSXDIR
 10
1
 20
0
 30
0
  9
$UCSYDIR
 10
0
 20
1
 30
0
  9
$UCSORTHOREF
  2

  9
$UCSORTHOVIEW
 70
    0
  9
$UCSORGTOP
 10
0
 20
0
 30
0
  9
$UCSORGBOTTOM
 10
0
 20
0
 30
0
  9
$UCSORGLEFT
 10
0
 20
0
 30
0
  9
$UCSORGRIGHT
 10
0
 20
0
 30
0
  9
$UCSORGFRONT
 10
0
 20
0
 30
0
  9
$UCSORGBACK
 10
0
 20
0
 30
0
  9
$PUCSBASE
  2

  9
$PUCSNAME
  2

  9
$PUCSORG
 10
0
 20
0
 30
0
  9
$PUCSXDIR
 10
1
 20
0
 30
0
  9
$PUCSYDIR
 10
0
 20
1
 30
0
  9
$PUCSORTHOREF
  2

  9
$PUCSORTHOVIEW
 70
    0
  9
$PUCSORGTOP
 10
0
 20
0
 30
0
  9
$PUCSORGBOTTOM
 10
0
 20
0
 30
0
  9
$PUCSORGLEFT
 10
0
 20
0
 30
0
  9
$PUCSORGRIGHT
 10
0
 20
0
 30
0
  9
$PUCSORGFRONT
 10
0
 20
0
 30
0
  9
$PUCSORGBACK
 10
0
 20
0
 30
0
  9
$USERI1
 70
    0
  9
$USERI2
 70
    0
  9
$USERI3
 70
    0
  9
$USERI4
 70
    0
  9
$USERI5
 70
    0
  9
$USERR1
 40
0
  9
$USERR2
 40
0
  9
$USERR3
 40
0
  9
$USERR4
 40
0
  9
$USERR5
 40
0
  9
$WORLDVIEW
 70
    1
  9
$SHADEDGE
 70
    3
  9
$SHADEDIF
 70
   70
  9
$TILEMODE
 70
    1
  9
$MAXACTVP
 70
   64
  9
$PINSBASE
 10
0
 20
0
 30
0
  9
$PLIMCHECK
 70
    0
  9
$PEXTMIN
 10
0
 20
0
 30
0
  9
$PEXTMAX
 10
0
 20
0
 30
0
  9
$GRIDMODE
 70
    1
  9
$SNAPSTYLE
 70
    0
  9
$PLIMMIN
 10
0
 20
0
  9
$PLIMMAX
 10
210
 20
297
  9
$UNITMODE
 70
    0
  9
$VISRETAIN
 70
    1
  9
$PLINEGEN
 70
    0
  9
$PSLTSCALE
 70
    1
  9
$TREEDEPTH
 70
 3020
  9
$CMLSTYLE
  2
Standard
  9
$CMLJUST
 70
    0
  9
$CMLSCALE
 40
20
  9
$PROXYGRAPHICS
 70
    1
  9
$MEASUREMENT
 70
    1
  9
$CELWEIGHT
370
   -1
  9
$ENDCAPS
280
    0
  9
$JOINSTYLE
280
    0
  9
$LWDISPLAY
290
    0
  9
$INSUNITS
 70
    4
  9
$HYPERLINKBASE
  1

  9
$STYLESHEET
  1

  9
$XEDIT
290
    1
  9
$CEPSNTYPE
380
    0
  9
$PSTYLEMODE
290
    1
  9
$EXTNAMES
290
    1
  9
$PSVPSCALE
 40
1
  9
$OLESTARTUP
290
    0
  9
$SORTENTS
280
  127
  9
$INDEXCTL
280
    0
  9
$HIDETEXT
280
    1
  9
$XCLIPFRAME
290
    0
  9
$HALOGAP
280
    0
  9
$OBSCOLOR
 70
  257
  9
$OBSLTYPE
280
    0
  9
$INTERSECTIONDISPLAY
280
    0
  9
$INTERSECTIONCOLOR
 70
  257
  9
$DIMASSOC
280
    1
  9
$PROJECTNAME
  1

  9
$CAMERADISPLAY
290
    0
  9
$LENSLENGTH
 40
50
  9
$CAMERAHEIGHT
 40
0
  9
$STEPSPERSEC
 40
2
  9
$STEPSIZE
 40
50
  9
$3DDWFPREC
 40
2
  9
$PSOLWIDTH
 40
5
  9
$PSOLHEIGHT
 40
80
  9
$LOFTANG1
 40
1.570796326794897
  9
$LOFTANG2
 40
1.570796326794897
  9
$LOFTMAG1
 40
0
  9
$LOFTMAG2
 40
0
  9
$LOFTPARAM
 70
    7
  9
$LOFTNORMALS
280
    1
  9
$LATITUDE
 40
1
  9
$LONGITUDE
 40
1
  9
$NORTHDIRECTION
 40
0
  9
$TIMEZONE
 70
-8000
  9
$LIGHTGLYPHDISPLAY
280
    1
  9
$TILEMODELIGHTSYNCH
280
    1
  9
$SOLIDHIST
280
    1
  9
$SHOWHIST
280
    1
  9
$DWFFRAME
280
    2
  9
$DGNFRAME
280
    0
  9
$REALWORLDSCALE
290
    1
  9
$INTERFERECOLOR
 62
    1
  9
$CSHADOW
280
    0
  9
$SHADOWPLANELOCATION
 40
0
  0
ENDSEC
  0
SECTION
  2
CLASSES
  0
ENDSEC
  0
SECTION
  2
TABLES
  0
TABLE
  2
VPORT
  5
8
330
0
100
AcDbSymbolTable
 70
    1
  0
VPORT
  5
31
330
2
100
AcDbSymbolTableRecord
100
AcDbViewportTableRecord
  2
*ACTIVE
 70
    0
 10
0
 20
0
 11
1
 21
1
 12
129.1066206224683
 22
43.22184124734871
 13
0
 23
0
 14
10
 24
10
 15
10
 25
10
 16
0
 26
0
 36
1
 17
0
 27
0
 37
0
 40
164.3175171558688
 41
1.582766439909297
 42
50
 43
0
 44
0
 50
0
 51
0
 71
    0
 72
  100
 73
    1
 74
    3
 75
    0
 76
    1
 77
    0
 78
    0
281
    0
 65
    1
110
0
120
0
130
0
111
1
121
0
131
0
112
0
122
1
132
0
 79
    0
146
0
348
10020
 60
    7
 61
    5
292
1
282
    1
141
0
142
0
 63
  250
421
3358443
  0
ENDTAB
  0
TABLE
  2
LTYPE
  5
5
330
0
100
AcDbSymbolTable
 70
    4
  0
LTYPE
  5
14
330
5
100
AcDbSymbolTableRecord
100
AcDbLinetypeTableRecord
  2
ByBlock
 70
    0
  3

 72
   65
 73
    0
 40
0
  0
LTYPE
  5
15
330
5
100
AcDbSymbolTableRecord
100
AcDbLinetypeTableRecord
  2
ByLayer
 70
    0
  3

 72
   65
 73
    0
 40
0
  0
LTYPE
  5
16
330
5
100
AcDbSymbolTableRecord
100
AcDbLinetypeTableRecord
  2
Continuous
 70
    0
  3
Solid line
 72
   65
 73
    0
 40
0
  0
LTYPE
  5
32
330
5
100
AcDbSymbolTableRecord
100
AcDbLinetypeTableRecord
  2
DOT
 70
    0
  3
Dot . . . . . . . . . . . . . . . . . . . . . .
 72
   65
 73
    2
 40
6.35
 49
0
 74
    0
 49
-6.35
 74
    0
  0
LTYPE
  5
33
330
5
100
AcDbSymbolTableRecord
100
AcDbLinetypeTableRecord
  2
DOTTINY
 70
    0
  3
Dot (.15x) .....................................
 72
   65
 73
    2
 40
0.9525
 49
0
 74
    0
 49
-0.9525
 74
    0
  0
LTYPE
  5
34
330
5
100
AcDbSymbolTableRecord
100
AcDbLinetypeTableRecord
  2
DOT2
 70
    0
  3
Dot (.5x) .....................................
 72
   65
 73
    2
 40
3.175
 49
0
 74
    0
 49
-3.175
 74
    0
  0
LTYPE
  5
35
330
5
100
AcDbSymbolTableRecord
100
AcDbLinetypeTableRecord
  2
DOTX2
 70
    0
  3
Dot (2x) .  .  .  .  .  .  .  .  .  .  .  .  .
 72
   65
 73
    2
 40
12.7
 49
0
 74
    0
 49
-12.7
 74
    0
  0
LTYPE
  5
36
330
5
100
AcDbSymbolTableRecord
100
AcDbLinetypeTableRecord
  2
DASHED
 70
    0
  3
Dashed _ _ _ _ _ _ _ _ _ _ _ _ _ _ _ _ _
 72
   65
 73
    2
 40
19.05
 49
12.7
 74
    0
 49
-6.35
 74
    0
  0
LTYPE
  5
37
330
5
100
AcDbSymbolTableRecord
100
AcDbLinetypeTableRecord
  2
DASHEDTINY
 70
    0
  3
Dashed (.15x) _ _ _ _ _ _ _ _ _ _ _ _ _ _ _ _ _
 72
   65
 73
    2
 40
2.8575
 49
1.905
 74
    0
 49
-0.9525
 74
    0
  0
LTYPE
  5
38
330
5
100
AcDbSymbolTableRecord
100
AcDbLinetypeTableRecord
  2
DASHED2
 70
    0
  3
Dashed (.5x) _ _ _ _ _ _ _ _ _ _ _ _ _ _ _ _ _
 72
   65
 73
    2
 40
9.524999999999999
 49
6.35
 74
    0
 49
-3.175
 74
    0
  0
LTYPE
  5
39
330
5
100
AcDbSymbolTableRecord
100
AcDbLinetypeTableRecord
  2
DASHEDX2
 70
    0
  3
Dashed (2x) ____  ____  ____  ____  ____  ___
 72
   65
 73
    2
 40
38.09999999999999
 49
25.4
 74
    0
 49
-12.7
 74
    0
  0
LTYPE
  5
3A
330
5
100
AcDbSymbolTableRecord
100
AcDbLinetypeTableRecord
  2
DASHDOT
 70
    0
  3
Dash dot __ . __ . __ . __ . __ . __ . __ . __
 72
   65
 73
    4
 40
25.4
 49
12.7
 74
    0
 49
-6.35
 74
    0
 49
0
 74
    0
 49
-6.35
 74
    0
  0
LTYPE
  5
3B
330
5
100
AcDbSymbolTableRecord
100
AcDbLinetypeTableRecord
  2
DASHDOTTINY
 70
    0
  3
Dash dot (.15x) _._._._._._._._._._._._._._._.
 72
   65
 73
    4
 40
3.81
 49
1.905
 74
    0
 49
-0.9525
 74
    0
 49
0
 74
    0
 49
-0.9525
 74
    0
  0
LTYPE
  5
3C
330
5
100
AcDbSymbolTableRecord
100
AcDbLinetypeTableRecord
  2
DASHDOT2
 70
    0
  3
Dash dot (.5x) _._._._._._._._._._._._._._._.
 72
   65
 73
    4
 40
12.7
 49
6.35
 74
    0
 49
-3.175
 74
    0
 49
0
 74
    0
 49
-3.175
 74
    0
  0
LTYPE
  5
3D
330
5
100
AcDbSymbolTableRecord
100
AcDbLinetypeTableRecord
  2
DASHDOTX2
 70
    0
  3
Dash dot (2x) ____  .  ____  .  ____  .  ___
 72
   65
 73
    4
 40
50.8
 49
25.4
 74
    0
 49
-12.7
 74
    0
 49
0
 74
    0
 49
-12.7
 74
    0
  0
LTYPE
  5
3E
330
5
100
AcDbSymbolTableRecord
100
AcDbLinetypeTableRecord
  2
DIVIDE
 70
    0
  3
Divide ____ . . ____ . . ____ . . ____ . . ____
 72
   65
 73
    6
 40
31.75
 49
12.7
 74
    0
 49
-6.35
 74
    0
 49
0
 74
    0
 49
-6.35
 74
    0
 49
0
 74
    0
 49
-6.35
 74
    0
  0
LTYPE
  5
3F
330
5
100
AcDbSymbolTableRecord
100
AcDbLinetypeTableRecord
  2
DIVIDETINY
 70
    0
  3
Divide (.15x) __..__..__..__..__..__..__..__.._
 72
   65
 73
    6
 40
4.7625
 49
1.905
 74
    0
 49
-0.9525
 74
    0
 49
0
 74
    0
 49
-0.9525
 74
    0
 49
0
 74
    0
 49
-0.9525
 74
    0
  0
LTYPE
  5
40
330
5
100
AcDbSymbolTableRecord
100
AcDbLinetypeTableRecord
  2
DIVIDE2
 70
    0
  3
Divide (.5x) __..__..__..__..__..__..__..__.._
 72
   65
 73
    6
 40
15.875
 49
6.35
 74
    0
 49
-3.175
 74
    0
 49
0
 74
    0
 49
-3.175
 74
    0
 49
0
 74
    0
 49
-3.175
 74
    0
  0
LTYPE
  5
41
330
5
100
AcDbSymbolTableRecord
100
AcDbLinetypeTableRecord
  2
DIVIDEX2
 70
    0
  3
Divide (2x) ________  .  .  ________  .  .  _
 72
   65
 73
    6
 40
63.5
 49
25.4
 74
    0
 49
-12.7
 74
    0
 49
0
 74
    0
 49
-12.7
 74
    0
 49
0
 74
    0
 49
-12.7
 74
    0
  0
LTYPE
  5
42
330
5
100
AcDbSymbolTableRecord
100
AcDbLinetypeTableRecord
  2
BORDER
 70
    0
  3
Border __ __ . __ __ . __ __ . __ __ . __ __ .
 72
   65
 73
    6
 40
44.45
 49
12.7
 74
    0
 49
-6.35
 74
    0
 49
12.7
 74
    0
 49
-6.35
 74
    0
 49
0
 74
    0
 49
-6.35
 74
    0
  0
LTYPE
  5
43
330
5
100
AcDbSymbolTableRecord
100
AcDbLinetypeTableRecord
  2
BORDERTINY
 70
    0
  3
Border (.15x) __.__.__.__.__.__.__.__.__.__.__.
 72
   65
 73
    6
 40
6.6675
 49
1.905
 74
    0
 49
-0.9525
 74
    0
 49
1.905
 74
    0
 49
-0.9525
 74
    0
 49
0
 74
    0
 49
-0.9525
 74
    0
  0
LTYPE
  5
44
330
5
100
AcDbSymbolTableRecord
100
AcDbLinetypeTableRecord
  2
BORDER2
 70
    0
  3
Border (.5x) __.__.__.__.__.__.__.__.__.__.__.
 72
   65
 73
    6
 40
22.225
 49
6.35
 74
    0
 49
-3.175
 74
    0
 49
6.35
 74
    0
 49
-3.175
 74
    0
 49
0
 74
    0
 49
-3.175
 74
    0
  0
LTYPE
  5
45
330
5
100
AcDbSymbolTableRecord
100
AcDbLinetypeTableRecord
  2
BORDERX2
 70
    0
  3
Border (2x) ____  ____  .  ____  ____  .  ___
 72
   65
 73
    6
 40
88.89999999999999
 49
25.4
 74
    0
 49
-12.7
 74
    0
 49
25.4
 74
    0
 49
-12.7
 74
    0
 49
0
 74
    0
 49
-12.7
 74
    0
  0
LTYPE
  5
46
330
5
100
AcDbSymbolTableRecord
100
AcDbLinetypeTableRecord
  2
CENTER
 70
    0
  3
Center ____ _ ____ _ ____ _ ____ _ ____ _ ____
 72
   65
 73
    4
 40
50.8
 49
31.75
 74
    0
 49
-6.35
 74
    0
 49
6.35
 74
    0
 49
-6.35
 74
    0
  0
LTYPE
  5
47
330
5
100
AcDbSymbolTableRecord
100
AcDbLinetypeTableRecord
  2
CENTERTINY
 70
    0
  3
Center (.15x) ___ _ ___ _ ___ _ ___ _ ___ _ ___
 72
   65
 73
    4
 40
7.619999999999999
 49
4.7625
 74
    0
 49
-0.9525
 74
    0
 49
0.9525
 74
    0
 49
-0.9525
 74
    0
  0
LTYPE
  5
48
330
5
100
AcDbSymbolTableRecord
100
AcDbLinetypeTableRecord
  2
CENTER2
 70
    0
  3
Center (.5x) ___ _ ___ _ ___ _ ___ _ ___ _ ___
 72
   65
 73
    4
 40
28.575
 49
19.05
 74
    0
 49
-3.175
 74
    0
 49
3.175
 74
    0
 49
-3.175
 74
    0
  0
LTYPE
  5
49
330
5
100
AcDbSymbolTableRecord
100
AcDbLinetypeTableRecord
  2
CENTERX2
 70
    0
  3
Center (2x) ________  __  ________  __  _____
 72
   65
 73
    4
 40
101.6
 49
63.5
 74
    0
 49
-12.7
 74
    0
 49
12.7
 74
    0
 49
-12.7
 74
    0
  0
ENDTAB
  0
TABLE
  2
LAYER
  5
2
330
0
100
AcDbSymbolTable
 70
    1
  0
LAYER
  5
10
330
2
100
AcDbSymbolTableRecord
100
AcDbLayerTableRecord
  2
0
 70
    5
 62
    7
  6
CONTINUOUS
370
    0
390
F
  0
LAYER
  5
4A
330
2
100
AcDbSymbolTableRecord
100
AcDbLayerTableRecord
  2
Etiket
 70
    0
 62
    7
  6
CONTINUOUS
370
    0
390
F
  0
LAYER
  5
4B
330
2
100
AcDbSymbolTableRecord
100
AcDbLayerTableRecord
  2
Gövde
 70
    0
 62
    2
  6
CONTINUOUS
370
   50
390
F
  0
ENDTAB
  0
TABLE
  2
STYLE
  5
3
330
0
100
AcDbSymbolTable
 70
    3
  0
STYLE
  5
4C
330
2
100
AcDbSymbolTableRecord
100
AcDbTextStyleTableRecord
  2
standard
 70
    0
 40
0
 41
1
 50
0
 71
    0
 42
1
  3
standard
  4

  0
ENDTAB
  0
TABLE
  2
VIEW
  5
6
330
0
100
AcDbSymbolTable
 70
    0
  0
ENDTAB
  0
TABLE
  2
UCS
  5
7
330
0
100
AcDbSymbolTable
 70
    0
  0
ENDTAB
  0
TABLE
  2
APPID
  5
9
330
0
100
AcDbSymbolTable
 70
    1
  0
APPID
  5
12
330
9
100
AcDbSymbolTableRecord
100
AcDbRegAppTableRecord
  2
ACAD
 70
    0
  0
APPID
  5
4D
330
9
100
AcDbSymbolTableRecord
100
AcDbRegAppTableRecord
  2
LibreCad
 70
    0
  0
ENDTAB
  0
TABLE
  2
DIMSTYLE
  5
A
330
0
100
AcDbSymbolTable
 70
    1
100
AcDbDimStyleTable
 71
    1
  0
DIMSTYLE
105
4E
330
A
100
AcDbSymbolTableRecord
100
AcDbDimStyleTableRecord
  2
Standard
 70
    0
 40
1
 41
2.5
 42
0.625
 43
0.38
 44
1.25
 45
0
 46
0
 47
0
 48
0
 49
1
140
2.5
141
0.09
142
0
143
25.4
144
1
145
0
146
1
147
0.625
148
0
 71
    0
 72
    0
 73
    0
 74
    1
 75
    0
 76
    0
 77
    0
 78
    8
 79
    0
170
    0
171
    2
172
    0
173
    0
174
    0
175
    0
176
    0
177
    0
178
    0
179
    0
271
    2
272
    4
273
    2
274
    2
275
    0
276
    0
277
    2
278
   44
279
    0
280
    0
281
    0
282
    0
283
    1
284
    0
285
    0
286
    0
288
    0
289
    3
340
STANDARD
341

371
   -2
372
   -2
  0
ENDTAB
  0
TABLE
  2
BLOCK_RECORD
  5
1
330
0
100
AcDbSymbolTable
 70
    2
  0
BLOCK_RECORD
  5
1F
330
1
100
AcDbSymbolTableRecord
100
AcDbBlockTableRecord
  2
*Model_Space
 70
    0
280
    1
281
    0
  0
BLOCK_RECORD
  5
1E
330
1
100
AcDbSymbolTableRecord
100
AcDbBlockTableRecord
  2
*Paper_Space
 70
    0
280
    1
281
    0
  0
ENDTAB
  0
ENDSEC
  0
SECTION
  2
BLOCKS
  0
BLOCK
  5
20
330
1F
100
AcDbEntity
  8
0
100
AcDbBlockBegin
  2
*Model_Space
 70
    0
 10
0
 20
0
 30
0
  3
*Model_Space
  1

  0
ENDBLK
  5
21
330
1F
100
AcDbEntity
  8
0
100
AcDbBlockEnd
  0
BLOCK
  5
1C
330
1B
100
AcDbEntity
  8
0
100
AcDbBlockBegin
  2
*Paper_Space
 70
    0
 10
0
 20
0
 30
0
  3
*Paper_Space
  1

  0
ENDBLK
  5
1D
330
1F
100
AcDbEntity
  8
0
100
AcDbBlockEnd
  0
ENDSEC
  0
SECTION
  2
ENTITIES
  0
IMAGE
  5
51
100
AcDbEntity
  8
0
  6
ByLayer
 62
  256
370
   -1
100
AcDbRasterImage
 10
0
 20
0
 30
0
 11
0.08
 21
0
 31
0
 12
4.898587196589414e-18
 22
0.08
 32
0
 13
3255
 23
828
340
4F
 70
    1
280
    0
281
   50
282
   50
283
    0
360
50
  0
ARC
  5
52
100
AcDbEntity
  8
Gövde
  6
ByLayer
 62
  256
370
   -1
100
AcDbCircle
 10
58.2502508022346
 20
97.01401630539033
 40
68.7073828258589
100
AcDbArc
 50
212.2017139820202
 51
267.4600541425518
  0
LINE
  5
53
100
AcDbEntity
  8
Gövde
  6
ByLayer
 62
  256
370
   -1
100
AcDbLine
 10
98.82587717234291
 20
26.42867153577528
 11
110.3329976320392
 21
25.85331551279049
  0
LINE
  5
54
100
AcDbEntity
  8
Gövde
  6
ByLayer
 62
  256
370
   -1
100
AcDbLine
 10
55.20542258406076
 20
28.37413375959234
 11
98.82587717234291
 21
26.42867153577528
  0
LINE
  5
55
100
AcDbEntity
  8
Gövde
  6
ByLayer
 62
  256
370
   -1
100
AcDbLine
 10
110.7426627390158
 20
32.69419063981337
 11
110.3329976320392
 21
25.85331551279049
  0
LINE
  5
56
100
AcDbEntity
  8
Gövde
  6
ByLayer
 62
  256
370
   -1
100
AcDbLine
 10
121.1952646702551
 20
46.06610038679186
 11
126.8133228439045
 21
47.82655841965345
  0
ARC
  5
57
100
AcDbEntity
  8
Gövde
  6
ByLayer
 62
  256
370
   -1
100
AcDbCircle
 10
125.665478533594
 20
31.80053934295993
 40
14.94954995574392
100
AcDbArc
 50
107.3987561128315
 51
176.5729409038849
  0
ARC
  5
58
100
AcDbEntity
  8
Gövde
  6
ByLayer
 62
  256
370
   -1
100
AcDbCircle
 10
120.8609315249616
 20
65.3580492468711
 40
18.5144304000594
100
AcDbArc
 50
288.7536691624945
 51
324.2936680010916
  0
ARC
  5
59
100
AcDbEntity
  8
Gövde
  6
ByLayer
 62
  256
370
   -1
100
AcDbCircle
 10
148.0752868673621
 20
45.79799024036551
 40
15.00000000000001
100
AcDbArc
 50
90.41913350285245
 51
144.2936680010916
  0
ARC
  5
5A
100
AcDbEntity
  8
Gövde
  6
ByLayer
 62
  256
370
   -1
100
AcDbCircle
 10
152.4139493335139
 20
44.08430921575421
 40
16.21074432869421
100
AcDbArc
 50
91.63415122117821
 51
142.9183924261486
  0
LINE
  5
5B
100
AcDbEntity
  8
Gövde
  6
ByLayer
 62
  256
370
   -1
100
AcDbLine
 10
139.4813818841949
 20
53.85860872308991
 11
143.9727455051821
 21
49.5325713703597
  0
ARC
  5
5C
100
AcDbEntity
  8
Gövde
  6
ByLayer
 62
  256
370
   -1
100
AcDbCircle
 10
167.1978726421307
 20
45.79799024036552
 40
15.00000000000001
100
AcDbArc
 50
90.41913350285245
 51
144.2936680010916
  0
ARC
  5
5D
100
AcDbEntity
  8
Gövde
  6
ByLayer
 62
  256
370
   -1
100
AcDbCircle
 10
171.5365351082825
 20
44.08430921575422
 40
16.21074432869421
100
AcDbArc
 50
91.63415122117821
 51
142.9183924261486
  0
LINE
  5
5E
100
AcDbEntity
  8
Gövde
  6
ByLayer
 62
  256
370
   -1
100
AcDbLine
 10
158.6039676589634
 20
53.8586087230899
 11
163.0953312799507
 21
49.53257137035972
  0
ARC
  5
5F
100
AcDbEntity
  8
Gövde
  6
ByLayer
 62
  256
370
   -1
100
AcDbCircle
 10
186.3204584168994
 20
45.79799024036548
 40
15.00000000000001
100
AcDbArc
 50
90.41913350285245
 51
144.2936680010916
  0
ARC
  5
60
100
AcDbEntity
  8
Gövde
  6
ByLayer
 62
  256
370
   -1
100
AcDbCircle
 10
190.6591208830512
 20
44.08430921575419
 40
16.21074432869421
100
AcDbArc
 50
91.63415122117821
 51
142.9183924261486
  0
LINE
  5
61
100
AcDbEntity
  8
Gövde
  6
ByLayer
 62
  256
370
   -1
100
AcDbLine
 10
177.726553433732
 20
53.85860872308992
 11
182.2179170547194
 21
49.53257137035969
  0
ARC
  5
62
100
AcDbEntity
  8
Gövde
  6
ByLayer
 62
  256
370
   -1
100
AcDbCircle
 10
209.7817066578198
 20
44.08430921575417
 40
16.21074432869421
100
AcDbArc
 50
91.63415122117821
 51
142.9183924261486
  0
LINE
  5
63
100
AcDbEntity
  8
Gövde
  6
ByLayer
 62
  256
370
   -1
100
AcDbLine
 10
196.8491392085006
 20
53.85860872308986
 11
201.3405028294881
 21
49.53257137035968
  0
ARC
  5
64
100
AcDbEntity
  8
Gövde
  6
ByLayer
 62
  256
370
   -1
100
AcDbCircle
 10
204.8091358076231
 20
53.13376357058911
 40
5
100
AcDbArc
 50
226.0741699983725
 51
270.7879814289357
  0
LINE
  5
65
100
AcDbEntity
  8
Gövde
  6
ByLayer
 62
  256
370
   -1
100
AcDbLine
 10
204.877897991843
 20
48.13423641674534
 11
208.9182372317223
 21
48.19738408017236
  0
ARC
  5
66
100
AcDbEntity
  8
Gövde
  6
ByLayer
 62
  256
370
   -1
100
AcDbCircle
 10
139.9835172997302
 20
65.35804924687112
 40
18.5144304000594
100
AcDbArc
 50
291.800719073897
 51
324.2936680010916
  0
ARC
  5
67
100
AcDbEntity
  8
Gövde
  6
ByLayer
 62
  256
370
   -1
100
AcDbCircle
 10
147.4413784833172
 20
53.13376357058915
 40
5
100
AcDbArc
 50
226.0741699983725
 51
263.3158319878866
  0
ARC
  5
68
100
AcDbEntity
  8
Gövde
  6
ByLayer
 62
  256
370
   -1
100
AcDbCircle
 10
166.5639642580859
 20
53.13376357058912
 40
5
100
AcDbArc
 50
226.0741699983725
 51
263.3158319878859
  0
ARC
  5
69
100
AcDbEntity
  8
Gövde
  6
ByLayer
 62
  256
370
   -1
100
AcDbCircle
 10
159.1061030744989
 20
65.35804924687112
 40
18.5144304000594
100
AcDbArc
 50
291.4185685706565
 51
324.2936680010916
  0
ARC
  5
6A
100
AcDbEntity
  8
Gövde
  6
ByLayer
 62
  256
370
   -1
100
AcDbCircle
 10
178.2286888492675
 20
65.35804924687112
 40
18.5144304000594
100
AcDbArc
 50
291.800719073897
 51
324.2936680010916
  0
ARC
  5
6B
100
AcDbEntity
  8
Gövde
  6
ByLayer
 62
  256
370
   -1
100
AcDbCircle
 10
185.6865500328545
 20
53.13376357058914
 40
5
100
AcDbArc
 50
226.0741699983725
 51
263.3158319878866
  0
ARC
  5
6C
100
AcDbEntity
  8
Gövde
  6
ByLayer
 62
  256
370
   -1
100
AcDbCircle
 10
186.3204584168994
 20
45.79799024036556
 40
15
100
AcDbArc
 50
50.400331938927
 51
90.41913350285245
  0
ARC
  5
6D
100
AcDbEntity
  8
Gövde
  6
ByLayer
 62
  256
370
   -1
100
AcDbCircle
 10
167.1978726421307
 20
45.79799024036554
 40
15
100
AcDbArc
 50
50.400331938927
 51
90.41913350285245
  0
ARC
  5
6E
100
AcDbEntity
  8
Gövde
  6
ByLayer
 62
  256
370
   -1
100
AcDbCircle
 10
148.0752868673621
 20
45.79799024036555
 40
15
100
AcDbArc
 50
50.400331938927
 51
90.41913350285245
  0
LINE
  5
6F
100
AcDbEntity
  8
Gövde
  6
ByLayer
 62
  256
370
   -1
100
AcDbLine
 10
227.4308606204312
 20
48.25574918456235
 11
208.9182372317223
 21
48.19738408017236
  0
LINE
  5
70
100
AcDbEntity
  8
Gövde
  6
ByLayer
 62
  256
370
   -1
100
AcDbLine
 10
206.8023085088356
 20
60.73627663861332
 11
230.1146040075323
 21
58.61504461923244
  0
ARC
  5
71
100
AcDbEntity
  8
Gövde
  6
ByLayer
 62
  256
370
   -1
100
AcDbCircle
 10
206.1172110657579
 20
44.32189408993349
 40
16.42867349973566
100
AcDbArc
 50
87.60999706745163
 51
141.4845315656908
  0
ARC
  5
72
100
AcDbEntity
  8
Gövde
  6
ByLayer
 62
  256
370
   -1
100
AcDbCircle
 10
227.4891676266857
 20
29.76155374029071
 40
28.97269148855603
100
AcDbArc
 50
247.1140867347167
 51
84.80086063205083
  0
ARC
  5
73
100
AcDbEntity
  8
Gövde
  6
ByLayer
 62
  256
370
   -1
100
AcDbCircle
 10
227.4891676266857
 20
29.76155374029071
 40
18.49428735685416
100
AcDbArc
 50
251.2486452252502
 51
90.18063690934599
  0
LINE
  5
74
100
AcDbEntity
  8
Gövde
  6
ByLayer
 62
  256
370
   -1
100
AcDbLine
 10
131.5792628994788
 20
48.165613714629
 11
128.0409602053251
 21
48.29254834042822
  0
ARC
  5
75
100
AcDbEntity
  8
Gövde
  6
ByLayer
 62
  256
370
   -1
100
AcDbCircle
 10
116.4614910413989
 20
72.27327462594018
 40
29.47906536387863
100
AcDbArc
 50
308.6750303694305
 51
321.3420839754801
  0
ARC
  5
76
100
AcDbEntity
  8
Gövde
  6
ByLayer
 62
  256
370
   -1
100
AcDbCircle
 10
131.7585197842764
 20
53.16239937835849
 40
5
100
AcDbArc
 50
267.9454271190743
 51
308.6750303694305
  0
LINE
  5
77
100
AcDbEntity
  8
Gövde
  6
ByLayer
 62
  256
370
   -1
100
AcDbLine
 10
146.7445893002512
 20
48.12227138677949
 11
150.991211620167
 21
48.18864310980533
  0
ARC
  5
78
100
AcDbEntity
  8
Gövde
  6
ByLayer
 62
  256
370
   -1
100
AcDbCircle
 10
135.5840768161676
 20
72.27327462594015
 40
29.47906536387863
100
AcDbArc
 50
308.770940382735
 51
321.3420839754801
  0
ARC
  5
79
100
AcDbEntity
  8
Gövde
  6
ByLayer
 62
  256
370
   -1
100
AcDbCircle
 10
150.9130746762183
 20
53.18803253432412
 40
5
100
AcDbArc
 50
270.8954198708532
 51
308.770940382735
  0
LINE
  5
7A
100
AcDbEntity
  8
Gövde
  6
ByLayer
 62
  256
370
   -1
100
AcDbLine
 10
165.867175075019
 20
48.12227138677947
 11
170.1137973949355
 21
48.18864310980535
  0
ARC
  5
7B
100
AcDbEntity
  8
Gövde
  6
ByLayer
 62
  256
370
   -1
100
AcDbCircle
 10
154.7066625909362
 20
72.27327462594015
 40
29.47906536387863
100
AcDbArc
 50
308.7709403827348
 51
321.3420839754801
  0
ARC
  5
7C
100
AcDbEntity
  8
Gövde
  6
ByLayer
 62
  256
370
   -1
100
AcDbCircle
 10
170.0356604509868
 20
53.18803253432415
 40
5
100
AcDbArc
 50
270.8954198708532
 51
308.7709403827345
  0
LINE
  5
7D
100
AcDbEntity
  8
Gövde
  6
ByLayer
 62
  256
370
   -1
100
AcDbLine
 10
184.9897608497872
 20
48.12227138677943
 11
189.2363831697045
 21
48.18864310980534
  0
ARC
  5
7E
100
AcDbEntity
  8
Gövde
  6
ByLayer
 62
  256
370
   -1
100
AcDbCircle
 10
173.8292483657049
 20
72.27327462594013
 40
29.47906536387863
100
AcDbArc
 50
308.7709403827354
 51
321.3420839754801
  0
ARC
  5
7F
100
AcDbEntity
  8
Gövde
  6
ByLayer
 62
  256
370
   -1
100
AcDbCircle
 10
189.1582462257558
 20
53.18803253432412
 40
5
100
AcDbArc
 50
270.8954198708532
 51
308.7709403827354
  0
LINE
  5
80
100
AcDbEntity
  8
Gövde
  6
ByLayer
 62
  256
370
   -1
100
AcDbLine
 10
216.2217616182805
 20
3.06956217104279
 11
130.3254580591405
 21
39.13358930793522
  0
LINE
  5
81
100
AcDbEntity
  8
Gövde
  6
ByLayer
 62
  256
370
   -1
100
AcDbLine
 10
221.5439596941868
 20
12.24889638975571
 11
131.5680841003488
 21
42.79396322952234
  0
LINE
  5
82
100
AcDbEntity
  8
Gövde
  6
ByLayer
 62
  256
370
   -1
100
AcDbLine
 10
88.32685459765541
 20
40.39500758988163
 11
47.75553245095342
 21
42.63691665681171
  0
LINE
  5
83
100
AcDbEntity
  8
Gövde
  6
ByLayer
 62
  256
370
   -1
100
AcDbLine
 10
98.82587717234291
 20
26.42867153577528
 11
97.56278212452894
 21
32.45999795811889
  0
ARC
  5
84
100
AcDbEntity
  8
Gövde
  6
ByLayer
 62
  256
370
   -1
100
AcDbCircle
 10
87.77511165838727
 20
30.41024020506152
 40
10
100
AcDbArc
 50
11.82808096217648
 51
86.837139702775
  0
ARC
  5
85
100
AcDbEntity
  8
Gövde
  6
ByLayer
 62
  256
370
   -1
100
AcDbCircle
 10
59.67145211016131
 20
139.2798153142023
 40
97.37473492763597
100
AcDbArc
 50
234.1057936992869
 51
262.9709954006011
  0
LINE
  5
86
100
AcDbEntity
  8
Gövde
  6
ByLayer
 62
  256
370
   -1
100
AcDbLine
 10
0.1116282688977199
 20
60.39974279484116
 11
133.2864691947183
 21
60.22231016040121
  0
LINE
  5
87
100
AcDbEntity
  8
Gövde
  6
ByLayer
 62
  256
370
   -1
100
AcDbLine
 10
135.532863568368
 20
59.68591612773871
 11
139.155189797876
 21
57.85750384046323
  0
ARC
  5
88
100
AcDbEntity
  8
Gövde
  6
ByLayer
 62
  256
370
   -1
100
AcDbCircle
 10
133.2798075581912
 20
55.2223145981433
 40
5
100
AcDbArc
 50
63.21709519782473
 51
89.92366324588524
  0
LINE
  5
89
100
AcDbEntity
  8
Gövde
  6
ByLayer
 62
  256
370
   -1
100
AcDbLine
 10
125.499487568595
 20
37.37239457540206
 11
118.6437882445096
 21
26.24156641850659
  0
ARC
  5
8A
100
AcDbEntity
  8
Gövde
  6
ByLayer
 62
  256
370
   -1
100
AcDbCircle
 10
128.9963892552179
 20
35.21858299988851
 40
4.106972815678473
100
AcDbArc
 50
71.24864522524999
 51
148.3702549415582
  0
ARC
  5
8B
100
AcDbEntity
  8
Gövde
  6
ByLayer
 62
  256
370
   -1
100
AcDbCircle
 10
128.9963892552179
 20
35.21858299988851
 40
8
100
AcDbArc
 50
71.24864522524999
 51
150.5861139102666
  0
LINE
  5
8C
100
AcDbEntity
  8
Gövde
  6
ByLayer
 62
  256
370
   -1
100
AcDbLine
 10
122.027630766499
 20
39.14750207845311
 11
115.5920644896093
 21
27.73268130332717
  0
LINE
  5
8D
100
AcDbEntity
  8
Gövde
  6
ByLayer
 62
  256
370
   -1
100
AcDbLine
 10
116.4631593006992
 20
26.24156641850659
 11
118.6437882445096
 21
26.24156641850659
  0
ARC
  5
8E
100
AcDbEntity
  8
Gövde
  6
ByLayer
 62
  256
370
   -1
100
AcDbCircle
 10
116.4631593006992
 20
27.24156641850659
 40
1
100
AcDbArc
 50
150.5861139102662
 51
270
  0
LINE
  5
8F
100
AcDbEntity
  8
Gövde
  6
ByLayer
 62
  256
370
   -1
100
AcDbLine
 10
209.8628422816793
 20
58.50418547055939
 11
209.1408378546476
 21
50.56213677321065
  0
LINE
  5
90
100
AcDbEntity
  8
Gövde
  6
ByLayer
 62
  256
370
   -1
100
AcDbLine
 10
246.6286961761861
 20
25.08382239690755
 11
254.8378865115366
 21
24.51549383522945
  0
LINE
  5
91
100
AcDbEntity
  8
Gövde
  6
ByLayer
 62
  256
370
   -1
100
AcDbLine
 10
247.1489213473535
 20
28.45893819428377
 11
255.3329393077593
 21
29.31664055512165
  0
LINE
  5
92
100
AcDbEntity
  8
Gövde
  6
ByLayer
 62
  256
370
   -1
100
AcDbLine
 10
243.4327547065648
 20
41.33759601061458
 11
249.1741805088182
 21
47.23249491333117
  0
LINE
  5
93
100
AcDbEntity
  8
Gövde
  6
ByLayer
 62
  256
370
   -1
100
AcDbLine
 10
238.5443623999607
 20
46.07061233185155
 11
241.9382359614941
 21
53.56697315323389
  0
LINE
  5
94
100
AcDbEntity
  8
Gövde
  6
ByLayer
 62
  256
370
   -1
100
AcDbLine
 10
245.5307615530803
 20
21.84299249388393
 11
253.5178269466809
 21
19.86294458679254
  0
LINE
  5
95
100
AcDbEntity
  8
Gövde
  6
ByLayer
 62
  256
370
   -1
100
AcDbLine
 10
243.8886810823564
 20
18.84099139051737
 11
251.4127266062806
 21
15.50894363126385
  0
LINE
  5
96
100
AcDbEntity
  8
Gövde
  6
ByLayer
 62
  256
370
   -1
100
AcDbLine
 10
241.7519809463046
 20
16.16836133277603
 11
248.5860766438182
 21
11.5848103825567
  0
LINE
  5
97
100
AcDbEntity
  8
Gövde
  6
ByLayer
 62
  256
370
   -1
100
AcDbLine
 10
239.1851053681668
 20
13.90571052823131
 11
245.1231306042972
 21
8.208899173525239
  0
LINE
  5
98
100
AcDbEntity
  8
Gövde
  6
ByLayer
 62
  256
370
   -1
100
AcDbLine
 10
236.2654729337341
 20
12.12128195169615
 11
241.1283331235753
 21
5.483029614665867
  0
LINE
  5
99
100
AcDbEntity
  8
Gövde
  6
ByLayer
 62
  256
370
   -1
100
AcDbLine
 10
233.0811415979881
 20
10.86889509407872
 11
236.7221698122963
 21
3.48941565047015
  0
LINE
  5
9A
100
AcDbEntity
  8
Gövde
  6
ByLayer
 62
  256
370
   -1
100
AcDbLine
 10
229.7281528016603
 20
10.18632273260513
 11
232.0375333339098
 21
2.288185935024487
  0
LINE
  5
9B
100
AcDbEntity
  8
Gövde
  6
ByLayer
 62
  256
370
   -1
100
AcDbLine
 10
226.3076348008283
 20
10.0941516800431
 11
227.2157152781567
 21
1.91557031389371
  0
LINE
  5
9C
100
AcDbEntity
  8
Gövde
  6
ByLayer
 62
  256
370
   -1
100
AcDbLine
 10
222.9227525749525
 20
10.59516187344954
 11
222.4021447176405
 21
2.382807109136422
  0
LINE
  5
9D
100
AcDbEntity
  8
Gövde
  6
ByLayer
 62
  256
370
   -1
100
AcDbLine
 10
219.6755963060536
 20
11.67424252951631
 11
217.7420019753084
 21
3.675804164426481
  0
LINE
  5
9E
100
AcDbEntity
  8
Gövde
  6
ByLayer
 62
  256
370
   -1
100
AcDbLine
 10
213.8464151075501
 20
58.14204248638934
 11
213.1244106805184
 21
50.19999378904059
  0
LINE
  5
9F
100
AcDbEntity
  8
Gövde
  6
ByLayer
 62
  256
370
   -1
100
AcDbLine
 10
217.829987933421
 20
57.77989950221925
 11
217.1079835063892
 21
49.8378508048705
  0
LINE
  5
A0
100
AcDbEntity
  8
Gövde
  6
ByLayer
 62
  256
370
   -1
100
AcDbLine
 10
213.8464151075501
 20
58.14204248638934
 11
213.1244106805184
 21
50.19999378904059
  0
LINE
  5
A1
100
AcDbEntity
  8
Gövde
  6
ByLayer
 62
  256
370
   -1
100
AcDbLine
 10
213.8464151075501
 20
58.14204248638934
 11
213.1244106805184
 21
50.19999378904059
  0
LINE
  5
A2
100
AcDbEntity
  8
Gövde
  6
ByLayer
 62
  256
370
   -1
100
AcDbLine
 10
221.8135607592918
 20
57.41775651804922
 11
221.09155633226
 21
49.47570782070042
  0
LINE
  5
A3
100
AcDbEntity
  8
Gövde
  6
ByLayer
 62
  256
370
   -1
100
AcDbLine
 10
225.7971335851626
 20
57.05561353387913
 11
225.0751291581309
 21
49.11356483653037
  0
LINE
  5
A4
100
AcDbEntity
  8
Gövde
  6
ByLayer
 62
  256
370
   -1
100
AcDbLine
 10
182.2841731027003
 20
24.52078083386613
 11
180.3750483280939
 21
20.14124272418015
  0
LINE
  5
A5
100
AcDbEntity
  8
Gövde
  6
ByLayer
 62
  256
370
   -1
100
AcDbLine
 10
140.4728240244606
 20
38.71492391751632
 11
139.4568545883996
 21
36.38428690379732
  0
LINE
  5
A6
100
AcDbEntity
  8
Gövde
  6
ByLayer
 62
  256
370
   -1
100
AcDbLine
 10
144.2738557588461
 20
37.4245472735481
 11
143.1453133686812
 21
34.83566755658872
  0
LINE
  5
A7
100
AcDbEntity
  8
Gövde
  6
ByLayer
 62
  256
370
   -1
100
AcDbLine
 10
148.0748874932315
 20
36.13417062957992
 11
146.8337721489628
 21
33.28704820938015
  0
LINE
  5
A8
100
AcDbEntity
  8
Gövde
  6
ByLayer
 62
  256
370
   -1
100
AcDbLine
 10
151.8759192276169
 20
34.84379398561171
 11
150.5222309292444
 21
31.73842886217157
  0
LINE
  5
A9
100
AcDbEntity
  8
Gövde
  6
ByLayer
 62
  256
370
   -1
100
AcDbLine
 10
155.6769509620023
 20
33.55341734164352
 11
154.210689709526
 21
30.189809514963
  0
LINE
  5
AA
100
AcDbEntity
  8
Gövde
  6
ByLayer
 62
  256
370
   -1
100
AcDbLine
 10
159.4779826963878
 20
32.26304069767532
 11
157.8991484898076
 21
28.64119016775441
  0
LINE
  5
AB
100
AcDbEntity
  8
Gövde
  6
ByLayer
 62
  256
370
   -1
100
AcDbLine
 10
163.2790144307732
 20
30.97266405370709
 11
161.5876072700893
 21
27.09257082054584
  0
LINE
  5
AC
100
AcDbEntity
  8
Gövde
  6
ByLayer
 62
  256
370
   -1
100
AcDbLine
 10
167.0800461651586
 20
29.68228740973894
 11
165.2760660503709
 21
25.54395147333723
  0
LINE
  5
AD
100
AcDbEntity
  8
Gövde
  6
ByLayer
 62
  256
370
   -1
100
AcDbLine
 10
170.881077899544
 20
28.3919107657707
 11
168.9645248306525
 21
23.99533212612867
  0
LINE
  5
AE
100
AcDbEntity
  8
Gövde
  6
ByLayer
 62
  256
370
   -1
100
AcDbLine
 10
174.6821096339295
 20
27.10153412180249
 11
172.6529836109341
 21
22.44671277892008
  0
LINE
  5
AF
100
AcDbEntity
  8
Gövde
  6
ByLayer
 62
  256
370
   -1
100
AcDbLine
 10
178.4831413683149
 20
25.81115747783431
 11
176.3414423912157
 21
20.8980934317115
  0
LINE
  5
B0
100
AcDbEntity
  8
Gövde
  6
ByLayer
 62
  256
370
   -1
100
AcDbLine
 10
182.2841731027003
 20
24.52078083386613
 11
180.0299011714974
 21
19.34947408450292
  0
LINE
  5
B1
100
AcDbEntity
  8
Gövde
  6
ByLayer
 62
  256
370
   -1
100
AcDbLine
 10
186.0852048370857
 20
23.23040418989793
 11
183.718359951779
 21
17.80085473729433
  0
LINE
  5
B2
100
AcDbEntity
  8
Gövde
  6
ByLayer
 62
  256
370
   -1
100
AcDbLine
 10
189.8862365714711
 20
21.94002754592972
 11
187.4068187320607
 21
16.25223539008573
  0
LINE
  5
B3
100
AcDbEntity
  8
Gövde
  6
ByLayer
 62
  256
370
   -1
100
AcDbLine
 10
193.6872683058566
 20
20.64965090196151
 11
191.0952775123422
 21
14.70361604287719
  0
LINE
  5
B4
100
AcDbEntity
  8
Gövde
  6
ByLayer
 62
  256
370
   -1
100
AcDbLine
 10
197.488300040242
 20
19.35927425799333
 11
194.7837362926238
 21
13.15499669566863
  0
LINE
  5
B5
100
AcDbEntity
  8
Gövde
  6
ByLayer
 62
  256
370
   -1
100
AcDbLine
 10
205.0903635090129
 20
16.77852097005696
 11
202.1606538531871
 21
10.05775800125141
  0
LINE
  5
B6
100
AcDbEntity
  8
Gövde
  6
ByLayer
 62
  256
370
   -1
100
AcDbLine
 10
201.2893317746274
 20
18.06889761402508
 11
198.4721950729054
 21
11.60637734846004
  0
LINE
  5
B7
100
AcDbEntity
  8
Gövde
  6
ByLayer
 62
  256
370
   -1
100
AcDbLine
 10
208.8913952433983
 20
15.48814432608876
 11
205.8491126334687
 21
8.509138654042836
  0
LINE
  5
B8
100
AcDbEntity
  8
Gövde
  6
ByLayer
 62
  256
370
   -1
100
AcDbLine
 10
212.6924269777837
 20
14.19776768212051
 11
209.5375714137504
 21
6.960519306834257
  0
LINE
  5
B9
100
AcDbEntity
  8
Gövde
  6
ByLayer
 62
  256
370
   -1
100
AcDbLine
 10
216.4934587121691
 20
12.90739103815233
 11
213.2260301940319
 21
5.411899959625678
  0
LINE
  5
BA
100
AcDbEntity
  8
Gövde
  6
ByLayer
 62
  256
370
   -1
100
AcDbLine
 10
229.7807064110334
 20
56.69347054970909
 11
229.0985089371115
 21
49.18929833656726
  0
LINE
  5
BB
100
AcDbEntity
  8
Gövde
  6
ByLayer
 62
  256
370
   -1
100
AcDbLine
 10
233.7642792369042
 20
56.331327565539
 11
233.0474891015913
 21
48.44663607709606
  0
LINE
  5
BC
100
AcDbEntity
  8
Gövde
  6
ByLayer
 62
  256
370
   -1
100
AcDbLine
 10
235.5095001171788
 20
47.52954479987731
 11
237.6106822563618
 21
55.70434678135216
  0
LINE
  5
BD
100
AcDbEntity
  8
Gövde
  6
ByLayer
 62
  256
370
   -1
100
AcDbLine
 10
241.0751289193454
 20
43.74185757482711
 11
245.8317236097288
 21
50.71445829262005
  0
LINE
  5
BE
100
AcDbEntity
  8
Gövde
  6
ByLayer
 62
  256
370
   -1
100
AcDbLine
 10
245.0204691692284
 20
38.28685172781211
 11
251.8651955420786
 21
43.22568506162297
  0
LINE
  5
BF
100
AcDbEntity
  8
Gövde
  6
ByLayer
 62
  256
370
   -1
100
AcDbLine
 10
246.2292164236775
 20
35.13163852900369
 11
253.823927629831
 21
38.81439775456758
  0
LINE
  5
C0
100
AcDbEntity
  8
Gövde
  6
ByLayer
 62
  256
370
   -1
100
AcDbLine
 10
246.8749918034777
 20
31.81510202024685
 11
254.9915342852005
 21
34.13115296112399
  0
MTEXT
  5
C1
100
AcDbEntity
  8
Etiket
  6
ByLayer
 62
  256
370
   -1
100
AcDbMText
 10
59.61633275496374
 20
-10.24655719225939
 30
0
 40
4
 41
122.4222263365214
 71
    1
 72
    1
  1
Çizen: Mustafa Halil ( @AcikKaynakci )\P__________\PReferans;\P * Sanatci: Linus Scheffel\P * Model Adi: Old Twisted Blade\P * https://www.artstation.com/artwork/X662l
  7
standard
210
0
220
0
230
1
 50
0
 73
    2
 44
1
  0
ENDSEC
  0
SECTION
  2
OBJECTS
  0
DICTIONARY
  5
C
330
0
100
AcDbDictionary
281
    1
  3
ACAD_GROUP
350
D
  3
ACAD_IMAGE_DICT
350
C2
  0
DICTIONARY
  5
D
330
C
100
AcDbDictionary
281
    1
  0
IMAGEDEF_REACTOR
  5
50
330
51
100
AcDbRasterImageDefReactor
 90
    2
330
51
  0
DICTIONARY
  5
C2
330
C
100
AcDbDictionary
281
    1
  3
linus-scheffel_
350
4F
  0
IMAGEDEF
  5
4F
102
{ACAD_REACTORS
330
50
102
}
100
AcDbRasterImageDef
 90
    0
  1
/depom/LibreCAD/Bıçak/Linus Scheffel - Old Twisted Blade/linus-scheffel_.jpg
 10
3255
 20
828
 11
1
 21
1
280
    1
281
    0
  0
PLOTSETTINGS
  5
C3
100
AcDbPlotSettings
  6
1x1
 40
0
 41
0
 42
0
 43
0
  0
ENDSEC
  0
EOF
