999
dxfrw 0.6.3
  0
SECTION
  2
HEADER
  9
$ACADVER
  1
AC1021
  9
$DWGCODEPAGE
  3
ANSI_1252
  9
$INSBASE
 10
0
 20
0
 30
0
  9
$EXTMIN
 10
-8.881784197001252e-16
 20
-12.09643994509976
 30
0
  9
$EXTMAX
 10
296.167572291996
 20
174.9512584312279
 30
0
  9
$LIMMIN
 10
0
 20
0
  9
$LIMMAX
 10
420
 20
297
  9
$ORTHOMODE
 70
    0
  9
$REGENMODE
 70
    1
  9
$FILLMODE
 70
    1
  9
$QTEXTMODE
 70
    0
  9
$MIRRTEXT
 70
    0
  9
$LTSCALE
 40
1
  9
$ATTMODE
 70
    0
  9
$TEXTSIZE
 40
2.5
  9
$TRACEWID
 40
15.68
  9
$TEXTSTYLE
  7
STANDARD
  9
$CLAYER
  8
tarama
  9
$CELTYPE
  6
BYLAYER
  9
$CECOLOR
 62
  256
  9
$CELTSCALE
 40
1
  9
$DISPSILH
 70
    0
  9
$DIMSCALE
 40
2.5
  9
$DIMASZ
 40
2.5
  9
$DIMEXO
 40
0.625
  9
$DIMDLI
 40
3.75
  9
$DIMRND
 40
0
  9
$DIMDLE
 40
0
  9
$DIMEXE
 40
1.25
  9
$DIMTP
 40
0
  9
$DIMTM
 40
0
  9
$DIMTXT
 40
2.5
  9
$DIMCEN
 40
2.5
  9
$DIMTSZ
 40
0
  9
$DIMTOL
 70
    0
  9
$DIMLIM
 70
    0
  9
$DIMTIH
 70
    0
  9
$DIMTOH
 70
    0
  9
$DIMSE1
 70
    0
  9
$DIMSE2
 70
    0
  9
$DIMTAD
 70
    1
  9
$DIMZIN
 70
    1
  9
$DIMBLK
  1

  9
$DIMASO
 70
    1
  9
$DIMSHO
 70
    1
  9
$DIMPOST
  1

  9
$DIMAPOST
  1

  9
$DIMALT
 70
    0
  9
$DIMALTD
 70
    3
  9
$DIMALTF
 40
0.03937
  9
$DIMLFAC
 40
1
  9
$DIMTOFL
 70
    1
  9
$DIMTVP
 40
0
  9
$DIMTIX
 70
    0
  9
$DIMSOXD
 70
    0
  9
$DIMSAH
 70
    0
  9
$DIMBLK1
  1

  9
$DIMBLK2
  1

  9
$DIMSTYLE
  2
STANDARD
  9
$DIMCLRD
 70
    0
  9
$DIMCLRE
 70
    0
  9
$DIMCLRT
 70
    0
  9
$DIMTFAC
 40
1
  9
$DIMGAP
 40
0.625
  9
$DIMJUST
 70
    0
  9
$DIMSD1
 70
    0
  9
$DIMSD2
 70
    0
  9
$DIMTOLJ
 70
    0
  9
$DIMTZIN
 70
    8
  9
$DIMALTZ
 70
    0
  9
$DIMALTTZ
 70
    0
  9
$DIMUPT
 70
    0
  9
$DIMDEC
 70
    4
  9
$DIMTDEC
 70
    2
  9
$DIMALTU
 70
    2
  9
$DIMALTTD
 70
    3
  9
$DIMTXSTY
  7
STANDARD
  9
$DIMAUNIT
 70
    0
  9
$DIMADEC
 70
    2
  9
$DIMALTRND
 40
0
  9
$DIMAZIN
 70
    0
  9
$DIMDSEP
 70
    0
  9
$DIMATFIT
 70
    3
  9
$DIMFRAC
 70
    0
  9
$DIMLDRBLK
  1
STANDARD
  9
$DIMLUNIT
 70
    2
  9
$DIMLWD
 70
   -2
  9
$DIMLWE
 70
   -2
  9
$DIMTMOVE
 70
    0
  9
$DIMFXL
 40
1
  9
$DIMFXLON
 70
    0
  9
$DIMJOGANG
 40
0.7854
  9
$DIMTFILL
 70
    0
  9
$DIMTFILLCLR
 70
    0
  9
$DIMARCSYM
 70
    0
  9
$DIMLTYPE
  6

  9
$DIMLTEX1
  6

  9
$DIMLTEX2
  6

  9
$LUNITS
 70
    2
  9
$LUPREC
 70
    4
  9
$SKETCHINC
 40
1
  9
$FILLETRAD
 40
0
  9
$AUNITS
 70
    0
  9
$AUPREC
 70
    2
  9
$MENU
  1
.
  9
$ELEVATION
 40
0
  9
$PELEVATION
 40
0
  9
$THICKNESS
 40
0
  9
$LIMCHECK
 70
    0
  9
$CHAMFERA
 40
0
  9
$CHAMFERB
 40
0
  9
$CHAMFERC
 40
0
  9
$CHAMFERD
 40
0
  9
$SKPOLY
 70
    0
  9
$USRTIMER
 70
    1
  9
$ANGBASE
 50
0
  9
$ANGDIR
 70
    0
  9
$PDMODE
 70
   34
  9
$PDSIZE
 40
0
  9
$PLINEWID
 40
0
  9
$SPLFRAME
 70
    0
  9
$SPLINETYPE
 70
    2
  9
$SPLINESEGS
 70
   32
  9
$HANDSEED
  5
20000
  9
$SURFTAB1
 70
    6
  9
$SURFTAB2
 70
    6
  9
$SURFTYPE
 70
    6
  9
$SURFU
 70
    6
  9
$SURFV
 70
    6
  9
$UCSBASE
  2

  9
$UCSNAME
  2

  9
$UCSORG
 10
0
 20
0
 30
0
  9
$UCSXDIR
 10
1
 20
0
 30
0
  9
$UCSYDIR
 10
0
 20
1
 30
0
  9
$UCSORTHOREF
  2

  9
$UCSORTHOVIEW
 70
    0
  9
$UCSORGTOP
 10
0
 20
0
 30
0
  9
$UCSORGBOTTOM
 10
0
 20
0
 30
0
  9
$UCSORGLEFT
 10
0
 20
0
 30
0
  9
$UCSORGRIGHT
 10
0
 20
0
 30
0
  9
$UCSORGFRONT
 10
0
 20
0
 30
0
  9
$UCSORGBACK
 10
0
 20
0
 30
0
  9
$PUCSBASE
  2

  9
$PUCSNAME
  2

  9
$PUCSORG
 10
0
 20
0
 30
0
  9
$PUCSXDIR
 10
1
 20
0
 30
0
  9
$PUCSYDIR
 10
0
 20
1
 30
0
  9
$PUCSORTHOREF
  2

  9
$PUCSORTHOVIEW
 70
    0
  9
$PUCSORGTOP
 10
0
 20
0
 30
0
  9
$PUCSORGBOTTOM
 10
0
 20
0
 30
0
  9
$PUCSORGLEFT
 10
0
 20
0
 30
0
  9
$PUCSORGRIGHT
 10
0
 20
0
 30
0
  9
$PUCSORGFRONT
 10
0
 20
0
 30
0
  9
$PUCSORGBACK
 10
0
 20
0
 30
0
  9
$USERI1
 70
    0
  9
$USERI2
 70
    0
  9
$USERI3
 70
    0
  9
$USERI4
 70
    0
  9
$USERI5
 70
    0
  9
$USERR1
 40
0
  9
$USERR2
 40
0
  9
$USERR3
 40
0
  9
$USERR4
 40
0
  9
$USERR5
 40
0
  9
$WORLDVIEW
 70
    1
  9
$SHADEDGE
 70
    3
  9
$SHADEDIF
 70
   70
  9
$TILEMODE
 70
    1
  9
$MAXACTVP
 70
   64
  9
$PINSBASE
 10
0
 20
0
 30
0
  9
$PLIMCHECK
 70
    0
  9
$PEXTMIN
 10
0
 20
0
 30
0
  9
$PEXTMAX
 10
0
 20
0
 30
0
  9
$GRIDMODE
 70
    1
  9
$SNAPSTYLE
 70
    0
  9
$GRIDUNIT
 10
0
 20
0
  9
$PLIMMIN
 10
0
 20
0
  9
$PLIMMAX
 10
297
 20
210
  9
$UNITMODE
 70
    0
  9
$VISRETAIN
 70
    1
  9
$PLINEGEN
 70
    0
  9
$PSLTSCALE
 70
    1
  9
$TREEDEPTH
 70
 3020
  9
$CMLSTYLE
  2
Standard
  9
$CMLJUST
 70
    0
  9
$CMLSCALE
 40
20
  9
$PROXYGRAPHICS
 70
    1
  9
$MEASUREMENT
 70
    1
  9
$CELWEIGHT
370
   -1
  9
$ENDCAPS
280
    0
  9
$JOINSTYLE
280
    0
  9
$LWDISPLAY
290
    0
  9
$INSUNITS
 70
    4
  9
$HYPERLINKBASE
  1

  9
$STYLESHEET
  1

  9
$XEDIT
290
    1
  9
$CEPSNTYPE
380
    0
  9
$PSTYLEMODE
290
    1
  9
$EXTNAMES
290
    1
  9
$PSVPSCALE
 40
1
  9
$OLESTARTUP
290
    0
  9
$SORTENTS
280
  127
  9
$INDEXCTL
280
    0
  9
$HIDETEXT
280
    1
  9
$XCLIPFRAME
290
    0
  9
$HALOGAP
280
    0
  9
$OBSCOLOR
 70
  257
  9
$OBSLTYPE
280
    0
  9
$INTERSECTIONDISPLAY
280
    0
  9
$INTERSECTIONCOLOR
 70
  257
  9
$DIMASSOC
280
    1
  9
$PROJECTNAME
  1

  9
$CAMERADISPLAY
290
    0
  9
$LENSLENGTH
 40
50
  9
$CAMERAHEIGHT
 40
0
  9
$STEPSPERSEC
 40
2
  9
$STEPSIZE
 40
50
  9
$3DDWFPREC
 40
2
  9
$PSOLWIDTH
 40
5
  9
$PSOLHEIGHT
 40
80
  9
$LOFTANG1
 40
1.570796326794897
  9
$LOFTANG2
 40
1.570796326794897
  9
$LOFTMAG1
 40
0
  9
$LOFTMAG2
 40
0
  9
$LOFTPARAM
 70
    7
  9
$LOFTNORMALS
280
    1
  9
$LATITUDE
 40
1
  9
$LONGITUDE
 40
1
  9
$NORTHDIRECTION
 40
0
  9
$TIMEZONE
 70
-8000
  9
$LIGHTGLYPHDISPLAY
280
    1
  9
$TILEMODELIGHTSYNCH
280
    1
  9
$SOLIDHIST
280
    1
  9
$SHOWHIST
280
    1
  9
$DWFFRAME
280
    2
  9
$DGNFRAME
280
    0
  9
$REALWORLDSCALE
290
    1
  9
$INTERFERECOLOR
 62
    1
  9
$CSHADOW
280
    0
  9
$SHADOWPLANELOCATION
 40
0
  0
ENDSEC
  0
SECTION
  2
CLASSES
  0
ENDSEC
  0
SECTION
  2
TABLES
  0
TABLE
  2
VPORT
  5
8
330
0
100
AcDbSymbolTable
 70
    1
  0
VPORT
  5
31
330
2
100
AcDbSymbolTableRecord
100
AcDbViewportTableRecord
  2
*ACTIVE
 70
    0
 10
0
 20
0
 11
1
 21
1
 12
154.3504143413912
 22
88.71542506537907
 13
0
 23
0
 14
10
 24
10
 15
10
 25
10
 16
0
 26
0
 36
1
 17
0
 27
0
 37
0
 40
191.8561224991125
 41
1.672932330827068
 42
50
 43
0
 44
0
 50
0
 51
0
 71
    0
 72
  100
 73
    1
 74
    3
 75
    0
 76
    1
 77
    0
 78
    0
281
    0
 65
    1
110
0
120
0
130
0
111
1
121
0
131
0
112
0
122
1
132
0
 79
    0
146
0
348
10020
 60
    7
 61
    5
292
1
282
    1
141
0
142
0
 63
  250
421
3358443
  0
ENDTAB
  0
TABLE
  2
LTYPE
  5
5
330
0
100
AcDbSymbolTable
 70
    4
  0
LTYPE
  5
14
330
5
100
AcDbSymbolTableRecord
100
AcDbLinetypeTableRecord
  2
ByBlock
 70
    0
  3

 72
   65
 73
    0
 40
0
  0
LTYPE
  5
15
330
5
100
AcDbSymbolTableRecord
100
AcDbLinetypeTableRecord
  2
ByLayer
 70
    0
  3

 72
   65
 73
    0
 40
0
  0
LTYPE
  5
16
330
5
100
AcDbSymbolTableRecord
100
AcDbLinetypeTableRecord
  2
Continuous
 70
    0
  3
Solid line
 72
   65
 73
    0
 40
0
  0
LTYPE
  5
32
330
5
100
AcDbSymbolTableRecord
100
AcDbLinetypeTableRecord
  2
DOT
 70
    0
  3
Dot . . . . . . . . . . . . . . . . . . . . . .
 72
   65
 73
    2
 40
6.35
 49
0
 74
    0
 49
-6.35
 74
    0
  0
LTYPE
  5
33
330
5
100
AcDbSymbolTableRecord
100
AcDbLinetypeTableRecord
  2
DOTTINY
 70
    0
  3
Dot (.15x) .....................................
 72
   65
 73
    2
 40
0.9525
 49
0
 74
    0
 49
-0.9525
 74
    0
  0
LTYPE
  5
34
330
5
100
AcDbSymbolTableRecord
100
AcDbLinetypeTableRecord
  2
DOT2
 70
    0
  3
Dot (.5x) .....................................
 72
   65
 73
    2
 40
3.175
 49
0
 74
    0
 49
-3.175
 74
    0
  0
LTYPE
  5
35
330
5
100
AcDbSymbolTableRecord
100
AcDbLinetypeTableRecord
  2
DOTX2
 70
    0
  3
Dot (2x) .  .  .  .  .  .  .  .  .  .  .  .  .
 72
   65
 73
    2
 40
12.7
 49
0
 74
    0
 49
-12.7
 74
    0
  0
LTYPE
  5
36
330
5
100
AcDbSymbolTableRecord
100
AcDbLinetypeTableRecord
  2
DASHED
 70
    0
  3
Dashed _ _ _ _ _ _ _ _ _ _ _ _ _ _ _ _ _
 72
   65
 73
    2
 40
19.05
 49
12.7
 74
    0
 49
-6.35
 74
    0
  0
LTYPE
  5
37
330
5
100
AcDbSymbolTableRecord
100
AcDbLinetypeTableRecord
  2
DASHEDTINY
 70
    0
  3
Dashed (.15x) _ _ _ _ _ _ _ _ _ _ _ _ _ _ _ _ _
 72
   65
 73
    2
 40
2.8575
 49
1.905
 74
    0
 49
-0.9525
 74
    0
  0
LTYPE
  5
38
330
5
100
AcDbSymbolTableRecord
100
AcDbLinetypeTableRecord
  2
DASHED2
 70
    0
  3
Dashed (.5x) _ _ _ _ _ _ _ _ _ _ _ _ _ _ _ _ _
 72
   65
 73
    2
 40
9.524999999999999
 49
6.35
 74
    0
 49
-3.175
 74
    0
  0
LTYPE
  5
39
330
5
100
AcDbSymbolTableRecord
100
AcDbLinetypeTableRecord
  2
DASHEDX2
 70
    0
  3
Dashed (2x) ____  ____  ____  ____  ____  ___
 72
   65
 73
    2
 40
38.09999999999999
 49
25.4
 74
    0
 49
-12.7
 74
    0
  0
LTYPE
  5
3A
330
5
100
AcDbSymbolTableRecord
100
AcDbLinetypeTableRecord
  2
DASHDOT
 70
    0
  3
Dash dot __ . __ . __ . __ . __ . __ . __ . __
 72
   65
 73
    4
 40
25.4
 49
12.7
 74
    0
 49
-6.35
 74
    0
 49
0
 74
    0
 49
-6.35
 74
    0
  0
LTYPE
  5
3B
330
5
100
AcDbSymbolTableRecord
100
AcDbLinetypeTableRecord
  2
DASHDOTTINY
 70
    0
  3
Dash dot (.15x) _._._._._._._._._._._._._._._.
 72
   65
 73
    4
 40
3.81
 49
1.905
 74
    0
 49
-0.9525
 74
    0
 49
0
 74
    0
 49
-0.9525
 74
    0
  0
LTYPE
  5
3C
330
5
100
AcDbSymbolTableRecord
100
AcDbLinetypeTableRecord
  2
DASHDOT2
 70
    0
  3
Dash dot (.5x) _._._._._._._._._._._._._._._.
 72
   65
 73
    4
 40
12.7
 49
6.35
 74
    0
 49
-3.175
 74
    0
 49
0
 74
    0
 49
-3.175
 74
    0
  0
LTYPE
  5
3D
330
5
100
AcDbSymbolTableRecord
100
AcDbLinetypeTableRecord
  2
DASHDOTX2
 70
    0
  3
Dash dot (2x) ____  .  ____  .  ____  .  ___
 72
   65
 73
    4
 40
50.8
 49
25.4
 74
    0
 49
-12.7
 74
    0
 49
0
 74
    0
 49
-12.7
 74
    0
  0
LTYPE
  5
3E
330
5
100
AcDbSymbolTableRecord
100
AcDbLinetypeTableRecord
  2
DIVIDE
 70
    0
  3
Divide ____ . . ____ . . ____ . . ____ . . ____
 72
   65
 73
    6
 40
31.75
 49
12.7
 74
    0
 49
-6.35
 74
    0
 49
0
 74
    0
 49
-6.35
 74
    0
 49
0
 74
    0
 49
-6.35
 74
    0
  0
LTYPE
  5
3F
330
5
100
AcDbSymbolTableRecord
100
AcDbLinetypeTableRecord
  2
DIVIDETINY
 70
    0
  3
Divide (.15x) __..__..__..__..__..__..__..__.._
 72
   65
 73
    6
 40
4.7625
 49
1.905
 74
    0
 49
-0.9525
 74
    0
 49
0
 74
    0
 49
-0.9525
 74
    0
 49
0
 74
    0
 49
-0.9525
 74
    0
  0
LTYPE
  5
40
330
5
100
AcDbSymbolTableRecord
100
AcDbLinetypeTableRecord
  2
DIVIDE2
 70
    0
  3
Divide (.5x) __..__..__..__..__..__..__..__.._
 72
   65
 73
    6
 40
15.875
 49
6.35
 74
    0
 49
-3.175
 74
    0
 49
0
 74
    0
 49
-3.175
 74
    0
 49
0
 74
    0
 49
-3.175
 74
    0
  0
LTYPE
  5
41
330
5
100
AcDbSymbolTableRecord
100
AcDbLinetypeTableRecord
  2
DIVIDEX2
 70
    0
  3
Divide (2x) ________  .  .  ________  .  .  _
 72
   65
 73
    6
 40
63.5
 49
25.4
 74
    0
 49
-12.7
 74
    0
 49
0
 74
    0
 49
-12.7
 74
    0
 49
0
 74
    0
 49
-12.7
 74
    0
  0
LTYPE
  5
42
330
5
100
AcDbSymbolTableRecord
100
AcDbLinetypeTableRecord
  2
BORDER
 70
    0
  3
Border __ __ . __ __ . __ __ . __ __ . __ __ .
 72
   65
 73
    6
 40
44.45
 49
12.7
 74
    0
 49
-6.35
 74
    0
 49
12.7
 74
    0
 49
-6.35
 74
    0
 49
0
 74
    0
 49
-6.35
 74
    0
  0
LTYPE
  5
43
330
5
100
AcDbSymbolTableRecord
100
AcDbLinetypeTableRecord
  2
BORDERTINY
 70
    0
  3
Border (.15x) __.__.__.__.__.__.__.__.__.__.__.
 72
   65
 73
    6
 40
6.6675
 49
1.905
 74
    0
 49
-0.9525
 74
    0
 49
1.905
 74
    0
 49
-0.9525
 74
    0
 49
0
 74
    0
 49
-0.9525
 74
    0
  0
LTYPE
  5
44
330
5
100
AcDbSymbolTableRecord
100
AcDbLinetypeTableRecord
  2
BORDER2
 70
    0
  3
Border (.5x) __.__.__.__.__.__.__.__.__.__.__.
 72
   65
 73
    6
 40
22.225
 49
6.35
 74
    0
 49
-3.175
 74
    0
 49
6.35
 74
    0
 49
-3.175
 74
    0
 49
0
 74
    0
 49
-3.175
 74
    0
  0
LTYPE
  5
45
330
5
100
AcDbSymbolTableRecord
100
AcDbLinetypeTableRecord
  2
BORDERX2
 70
    0
  3
Border (2x) ____  ____  .  ____  ____  .  ___
 72
   65
 73
    6
 40
88.89999999999999
 49
25.4
 74
    0
 49
-12.7
 74
    0
 49
25.4
 74
    0
 49
-12.7
 74
    0
 49
0
 74
    0
 49
-12.7
 74
    0
  0
LTYPE
  5
46
330
5
100
AcDbSymbolTableRecord
100
AcDbLinetypeTableRecord
  2
CENTER
 70
    0
  3
Center ____ _ ____ _ ____ _ ____ _ ____ _ ____
 72
   65
 73
    4
 40
50.8
 49
31.75
 74
    0
 49
-6.35
 74
    0
 49
6.35
 74
    0
 49
-6.35
 74
    0
  0
LTYPE
  5
47
330
5
100
AcDbSymbolTableRecord
100
AcDbLinetypeTableRecord
  2
CENTERTINY
 70
    0
  3
Center (.15x) ___ _ ___ _ ___ _ ___ _ ___ _ ___
 72
   65
 73
    4
 40
7.619999999999999
 49
4.7625
 74
    0
 49
-0.9525
 74
    0
 49
0.9525
 74
    0
 49
-0.9525
 74
    0
  0
LTYPE
  5
48
330
5
100
AcDbSymbolTableRecord
100
AcDbLinetypeTableRecord
  2
CENTER2
 70
    0
  3
Center (.5x) ___ _ ___ _ ___ _ ___ _ ___ _ ___
 72
   65
 73
    4
 40
28.575
 49
19.05
 74
    0
 49
-3.175
 74
    0
 49
3.175
 74
    0
 49
-3.175
 74
    0
  0
LTYPE
  5
49
330
5
100
AcDbSymbolTableRecord
100
AcDbLinetypeTableRecord
  2
CENTERX2
 70
    0
  3
Center (2x) ________  __  ________  __  _____
 72
   65
 73
    4
 40
101.6
 49
63.5
 74
    0
 49
-12.7
 74
    0
 49
12.7
 74
    0
 49
-12.7
 74
    0
  0
ENDTAB
  0
TABLE
  2
LAYER
  5
2
330
0
100
AcDbSymbolTable
 70
    1
  0
LAYER
  5
10
330
2
100
AcDbSymbolTableRecord
100
AcDbLayerTableRecord
  2
0
 70
    5
 62
    7
  6
CONTINUOUS
370
    0
390
F
  0
LAYER
  5
4A
330
2
100
AcDbSymbolTableRecord
100
AcDbLayerTableRecord
  2
Bıçak
 70
    0
 62
    4
  6
CONTINUOUS
370
   50
390
F
  0
LAYER
  5
4B
330
2
100
AcDbSymbolTableRecord
100
AcDbLayerTableRecord
  2
Bıçak2
 70
    0
 62
    2
  6
CONTINUOUS
370
    0
390
F
  0
LAYER
  5
4C
330
2
100
AcDbSymbolTableRecord
100
AcDbLayerTableRecord
  2
Etiket
 70
    0
 62
  255
  6
CONTINUOUS
370
    0
390
F
  0
LAYER
  5
4D
330
2
100
AcDbSymbolTableRecord
100
AcDbLayerTableRecord
  2
tarama
 70
    0
 62
   20
420
16733440
  6
CONTINUOUS
370
   25
390
F
  0
ENDTAB
  0
TABLE
  2
STYLE
  5
3
330
0
100
AcDbSymbolTable
 70
    3
  0
STYLE
  5
4E
330
2
100
AcDbSymbolTableRecord
100
AcDbTextStyleTableRecord
  2
standard
 70
    0
 40
0
 41
1
 50
0
 71
    0
 42
1
  3
standard
  4

  0
ENDTAB
  0
TABLE
  2
VIEW
  5
6
330
0
100
AcDbSymbolTable
 70
    0
  0
ENDTAB
  0
TABLE
  2
UCS
  5
7
330
0
100
AcDbSymbolTable
 70
    0
  0
ENDTAB
  0
TABLE
  2
APPID
  5
9
330
0
100
AcDbSymbolTable
 70
    1
  0
APPID
  5
12
330
9
100
AcDbSymbolTableRecord
100
AcDbRegAppTableRecord
  2
ACAD
 70
    0
  0
APPID
  5
4F
330
9
100
AcDbSymbolTableRecord
100
AcDbRegAppTableRecord
  2
LibreCad
 70
    0
  0
ENDTAB
  0
TABLE
  2
DIMSTYLE
  5
A
330
0
100
AcDbSymbolTable
 70
    1
100
AcDbDimStyleTable
 71
    1
  0
DIMSTYLE
105
50
330
A
100
AcDbSymbolTableRecord
100
AcDbDimStyleTableRecord
  2
Standard
 70
    0
 40
2.5
 41
2.5
 42
0.625
 43
0.38
 44
1.25
 45
0
 46
0
 47
0
 48
0
 49
1
140
2.5
141
0.09
142
0
143
25.4
144
1
145
0
146
1
147
0.625
148
0
 71
    0
 72
    0
 73
    0
 74
    1
 75
    0
 76
    0
 77
    0
 78
    1
 79
    0
170
    0
171
    2
172
    0
173
    0
174
    0
175
    0
176
    0
177
    0
178
    0
179
    2
271
    4
272
    4
273
    2
274
    2
275
    0
276
    0
277
    2
278
    0
279
    0
280
    0
281
    0
282
    0
283
    1
284
    0
285
    0
286
    0
288
    0
289
    3
340
STANDARD
341

371
   -2
372
   -2
  0
ENDTAB
  0
TABLE
  2
BLOCK_RECORD
  5
1
330
0
100
AcDbSymbolTable
 70
    2
  0
BLOCK_RECORD
  5
1F
330
1
100
AcDbSymbolTableRecord
100
AcDbBlockTableRecord
  2
*Model_Space
 70
    0
280
    1
281
    0
  0
BLOCK_RECORD
  5
1E
330
1
100
AcDbSymbolTableRecord
100
AcDbBlockTableRecord
  2
*Paper_Space
 70
    0
280
    1
281
    0
  0
ENDTAB
  0
ENDSEC
  0
SECTION
  2
BLOCKS
  0
BLOCK
  5
20
330
1F
100
AcDbEntity
  8
0
100
AcDbBlockBegin
  2
*Model_Space
 70
    0
 10
0
 20
0
 30
0
  3
*Model_Space
  1

  0
ENDBLK
  5
21
330
1F
100
AcDbEntity
  8
0
100
AcDbBlockEnd
  0
BLOCK
  5
1C
330
1B
100
AcDbEntity
  8
0
100
AcDbBlockBegin
  2
*Paper_Space
 70
    0
 10
0
 20
0
 30
0
  3
*Paper_Space
  1

  0
ENDBLK
  5
1D
330
1F
100
AcDbEntity
  8
0
100
AcDbBlockEnd
  0
ENDSEC
  0
SECTION
  2
ENTITIES
  0
HATCH
  5
51
100
AcDbEntity
  8
tarama
  6
ByLayer
 62
  256
370
   -1
100
AcDbHatch
 10
0
 20
0
 30
0
210
0
220
0
230
1
  2
misc02
 70
    0
 71
    0
 91
    1
 92
    0
 93
    8
 72
    1
 10
217.9893322916801
 20
5.116057973592059
 11
217.9893322916801
 21
10.02666770013118
 72
    1
 10
217.9893322916801
 20
10.02666770013118
 11
210.0325666567708
 21
10.02666770013119
 72
    1
 10
210.0325666567705
 20
10.02666770013116
 11
210.0325666567711
 21
5.249597010945923
 72
    2
 10
212.4304263867431
 20
-88.99077175524187
 40
94.27086950098467
 50
268.5424759317792
 51
273.3805428763971
 73
    0
 72
    1
 10
217.9893322916801
 20
-5.725075595163969
 11
217.9893322916801
 21
-10.63568532170304
 72
    1
 10
217.9893322916855
 20
-10.63568532170301
 11
210.032566656771
 21
-10.63568532170301
 72
    1
 10
210.0325666567704
 20
-10.63568532170304
 11
210.0325666567711
 21
-5.858614632517807
 72
    2
 10
212.4304263867431
 20
88.38175413366996
 40
94.27086950098467
 50
268.5424759317792
 51
273.3805428763969
 73
    1
 97
    0
 75
    0
 76
    1
 52
0
 41
0.1
 77
    0
 78
    0
 98
    0
  0
HATCH
  5
52
100
AcDbEntity
  8
tarama
  6
ByLayer
 62
  256
370
   -1
100
AcDbHatch
 10
0
 20
0
 30
0
210
0
220
0
230
1
  2
misc02
 70
    0
 71
    0
 91
    1
 92
    0
 93
   20
 72
    2
 10
250.3416533601224
 20
13.15376600977059
 40
8.673647187205027
 50
245.1008859383895
 51
285.261479636114
 73
    1
 72
    1
 10
252.6247699039191
 20
4.78599842363678
 11
271.8321241007392
 21
10.02666770013122
 72
    1
 10
271.8321241007392
 20
10.02666770013122
 11
276.8965451124704
 21
10.02666770013121
 72
    1
 10
276.8965451124704
 20
10.02666770013121
 11
276.8965451124704
 21
5.524175699107261
 72
    2
 10
280.4019321503701
 20
-27.93370505400507
 40
33.64100953858192
 50
95.98106656370179
 51
122.1716696480225
 73
    1
 72
    2
 10
263.0219718900163
 20
-0.3045088107860007
 40
1
 50
122.1716696480234
 51
237.8283303519762
 73
    1
 72
    2
 10
280.4019321503701
 20
27.32468743243323
 40
33.64100953858192
 50
237.8283303519777
 51
264.0189334362982
 73
    1
 72
    1
 10
276.8965451124704
 20
-6.133193320679094
 11
276.8965451124704
 21
-10.63568532170312
 72
    1
 10
276.8965451124704
 20
-10.63568532170312
 11
271.8321241007392
 21
-10.6356853217031
 72
    1
 10
271.8321241007392
 20
-10.6356853217031
 11
252.6247699039191
 21
-5.395016045208706
 72
    2
 10
250.3416533601225
 20
-13.76278363134251
 40
8.673647187205027
 50
74.73852036388587
 51
114.8991140616105
 73
    1
 72
    1
 10
246.6898589119205
 20
-5.895347401147137
 11
236.4772643752465
 21
-10.6356840164764
 72
    1
 10
236.4772643752465
 20
-10.6356840164764
 11
220.9880026275799
 21
-10.63568719817832
 72
    1
 10
220.9880026275799
 20
-10.63568719817832
 11
220.98800262758
 21
-5.499898628485582
 72
    2
 10
212.4304263867431
 20
88.38175413366996
 40
94.27086950098467
 50
275.2082780881291
 51
288.0389325933056
 73
    1
 72
    2
 10
241.3129792935853
 20
-0.3045088107859705
 40
1
 50
288.038932593303
 51
71.96106740669396
 73
    1
 72
    2
 10
212.4304263867431
 20
-88.99077175524187
 40
94.27086950098467
 50
71.96106740669434
 51
84.79172191187075
 73
    1
 72
    1
 10
220.9880026275801
 20
4.890881006913659
 11
220.98800262758
 21
10.0266677001312
 72
    1
 10
220.98800262758
 20
10.0266677001312
 11
236.4772615632626
 21
10.0266677001312
 72
    1
 10
236.4772615632626
 20
10.0266677001312
 11
246.6898589119204
 21
5.286329779575215
 97
    0
 75
    0
 76
    1
 52
0
 41
0.1
 77
    0
 78
    0
 98
    0
  0
IMAGE
  5
55
100
AcDbEntity
  8
0
  6
ByLayer
 62
  256
370
   -1
100
AcDbRasterImage
 10
0
 20
0
 30
0
 11
0.3
 21
0
 31
0
 12
1.836909530733566e-17
 22
0.3
 32
0
 13
1000
 23
87
340
53
 70
    1
280
    0
281
   50
282
   50
283
    0
360
54
  0
LINE
  5
56
100
AcDbEntity
  8
Bıçak
  6
ByLayer
 62
  256
370
   -1
100
AcDbLine
 10
-8.881784197001252e-16
 20
0
 11
17.07054711993058
 21
21.39046562062061
  0
LINE
  5
57
100
AcDbEntity
  8
Bıçak
  6
ByLayer
 62
  256
370
   -1
100
AcDbLine
 10
-8.881784197001252e-16
 20
0
 11
27.81901777133756
 21
9.550007569559629
  0
ARC
  5
58
100
AcDbEntity
  8
Bıçak
  6
ByLayer
 62
  256
370
   -1
100
AcDbCircle
 10
328.2762282920033
 20
-571.0936788955451
 40
669.2431826300709
100
AcDbArc
 50
111.6305448017576
 51
117.7109571204404
  0
ARC
  5
59
100
AcDbEntity
  8
Bıçak
  6
ByLayer
 62
  256
370
   -1
100
AcDbCircle
 10
-1.989805280363608
 20
250.5818936539222
 40
216.352083898079
100
AcDbArc
 50
292.7223699726056
 51
311.7215633815611
  0
ARC
  5
5A
100
AcDbEntity
  8
Bıçak
  6
ByLayer
 62
  256
370
   -1
100
AcDbCircle
 10
143.8996995009649
 20
89.70921303857284
 40
2
100
AcDbArc
 50
54.09179081538048
 51
197.754209025989
  0
LINE
  5
5B
100
AcDbEntity
  8
Bıçak
  6
ByLayer
 62
  256
370
   -1
100
AcDbLine
 10
17.07054711993061
 20
21.39046562062063
 11
19.28276039061255
 21
19.615921782788
  0
LINE
  5
5C
100
AcDbEntity
  8
Bıçak
  6
ByLayer
 62
  256
370
   -1
100
AcDbLine
 10
27.81901777133756
 20
9.550007569559629
 11
26.32621596896922
 21
11.62027238625158
  0
LINE
  5
5D
100
AcDbEntity
  8
Bıçak
  6
ByLayer
 62
  256
370
   -1
100
AcDbLine
 10
12.12177145831463
 20
10.64275375895103
 11
19.28719644503175
 21
19.62148043705246
  0
LINE
  5
5E
100
AcDbEntity
  8
Bıçak
  6
ByLayer
 62
  256
370
   -1
100
AcDbLine
 10
14.33438131462207
 20
7.503588157381461
 11
26.32621596896922
 21
11.62027238625158
  0
ARC
  5
5F
100
AcDbEntity
  8
Bıçak
  6
ByLayer
 62
  256
370
   -1
100
AcDbCircle
 10
13.68499900047827
 20
9.395228347818655
 40
2
100
AcDbArc
 50
141.4085691541632
 51
288.9468648888816
  0
ARC
  5
60
100
AcDbEntity
  8
Bıçak
  6
ByLayer
 62
  256
370
   -1
100
AcDbCircle
 10
-69.66540320877657
 20
193.2045457974707
 40
207.9235478379863
100
AcDbArc
 50
297.9595066835207
 51
316.9788533061766
  0
ARC
  5
61
100
AcDbEntity
  8
Bıçak
  6
ByLayer
 62
  256
370
   -1
100
AcDbCircle
 10
-126.3420969200914
 20
286.1160418744681
 40
314.0947965619937
100
AcDbArc
 50
299.0818180314135
 51
311.6345316385598
  0
ARC
  5
62
100
AcDbEntity
  8
Bıçak
  6
ByLayer
 62
  256
370
   -1
100
AcDbCircle
 10
6150.724108560653
 20
-12079.7435483998
 40
13564.25717076856
100
AcDbArc
 50
116.5757658300414
 51
116.8739549165774
  0
ARC
  5
63
100
AcDbEntity
  8
Bıçak
  6
ByLayer
 62
  256
370
   -1
100
AcDbCircle
 10
380.3437630402074
 20
-378.9540429544262
 40
534.1522910441543
100
AcDbArc
 50
124.0817689732072
 51
129.5218524632689
  0
ARC
  5
64
100
AcDbEntity
  8
Bıçak
  6
ByLayer
 62
  256
370
   -1
100
AcDbCircle
 10
-4676.698334255745
 20
8929.781019396618
 40
10069.88118575835
100
AcDbArc
 50
297.9329983166894
 51
298.3114105961008
  0
ARC
  5
65
100
AcDbEntity
  8
Bıçak
  6
ByLayer
 62
  256
370
   -1
100
AcDbCircle
 10
-175.1584219560219
 20
531.1583621222818
 40
541.3335628424592
100
AcDbArc
 50
300.4373875083759
 51
305.365710429568
  0
ARC
  5
66
100
AcDbEntity
  8
Bıçak
  6
ByLayer
 62
  256
370
   -1
100
AcDbCircle
 10
137.2108662330399
 20
91.07279213202115
 40
1.657878237268724
100
AcDbArc
 50
305.0000000006434
 51
125.0000000000078
  0
ARC
  5
67
100
AcDbEntity
  8
Bıçak
  6
ByLayer
 62
  256
370
   -1
100
AcDbCircle
 10
408.7119772366282
 20
-494.075564901599
 40
646.6992189028609
100
AcDbArc
 50
114.9164595855291
 51
120.4454562089398
  0
LINE
  5
68
100
AcDbEntity
  8
Bıçak
  6
ByLayer
 62
  256
370
   -1
100
AcDbLine
 10
143.9764712629137
 20
110.2437185509003
 11
136.1023014848575
 21
104.521731333385
  0
ARC
  5
69
100
AcDbEntity
  8
Bıçak
  6
ByLayer
 62
  256
370
   -1
100
AcDbCircle
 10
192.7300010037495
 20
27.60536679189728
 40
95.76820993712121
100
AcDbArc
 50
128.7555778247039
 51
140.3629348199064
  0
ARC
  5
6A
100
AcDbEntity
  8
Bıçak
  6
ByLayer
 62
  256
370
   -1
100
AcDbCircle
 10
133.1306705831877
 20
105.3534030123943
 40
3.085817233315093
100
AcDbArc
 50
263.4591407061689
 51
344.3646367886496
  0
ARC
  5
6B
100
AcDbEntity
  8
Bıçak
  6
ByLayer
 62
  256
370
   -1
100
AcDbCircle
 10
137.8727544820423
 20
98.45251952365371
 40
2.689999886998978
100
AcDbArc
 50
247.5232546920833
 51
350.6305018826033
  0
ARC
  5
6C
100
AcDbEntity
  8
Bıçak
  6
ByLayer
 62
  256
370
   -1
100
AcDbCircle
 10
140.1354394300285
 20
94.38341366902574
 40
3.652208234930806
100
AcDbArc
 50
83.84747390766381
 51
154.3062826670357
  0
ARC
  5
6D
100
AcDbEntity
  8
Bıçak
  6
ByLayer
 62
  256
370
   -1
100
AcDbCircle
 10
224.6875309265742
 20
-143.8936839366951
 40
255.4862831773399
100
AcDbArc
 50
110.1250958513674
 51
136.1558688498904
  0
LINE
  5
6E
100
AcDbEntity
  8
Bıçak
  6
ByLayer
 62
  256
370
   -1
100
AcDbLine
 10
148.6487475286371
 20
103.5710165150588
 11
140.5268669991259
 21
98.01458558032975
  0
LINE
  5
6F
100
AcDbEntity
  8
Bıçak
  6
ByLayer
 62
  256
370
   -1
100
AcDbLine
 10
153.1779085414888
 20
97.10270424234059
 11
145.0726763235563
 21
91.32912827513776
  0
LINE
  5
70
100
AcDbEntity
  8
Bıçak
  6
ByLayer
 62
  256
370
   -1
100
AcDbLine
 10
133.1138954655049
 20
96.51062062459529
 11
118.9788330046365
 21
88.69804436725913
  0
LINE
  5
71
100
AcDbEntity
  8
Bıçak
  6
ByLayer
 62
  256
370
   -1
100
AcDbLine
 10
131.8508521305111
 20
98.55562973615267
 11
118.9788330046365
 21
88.69804436725913
  0
ELLIPSE
  5
72
100
AcDbEntity
  8
Bıçak
  6
ByLayer
 62
  256
370
   -1
100
AcDbEllipse
 10
132.6191428574242
 20
97.62261027996122
 30
0
 11
1.337597945277166
 21
0.9365961643768905
 31
0
 40
0.7391534727284973
 41
4.569497266687334
 42
7.911694148189602
  0
ELLIPSE
  5
73
100
AcDbEntity
  8
Bıçak
  6
ByLayer
 62
  256
370
   -1
100
AcDbEllipse
 10
29.22593627186801
 20
19.52599678402283
 30
0
 11
-2.087530328398503
 21
-0.8143117368645996
 31
0
 40
0.612395591599082
 41
0
 42
6.283185307179586
  0
LINE
  5
74
100
AcDbEntity
  8
Bıçak
  6
ByLayer
 62
  256
370
   -1
100
AcDbLine
 10
63.52105900768825
 20
48.69667424085294
 11
73.80174594190925
 21
55.57875955491794
  0
LINE
  5
75
100
AcDbEntity
  8
Bıçak
  6
ByLayer
 62
  256
370
   -1
100
AcDbLine
 10
64.43011630800719
 20
46.62854482457732
 11
75.21518735899595
 21
53.24891911138344
  0
ELLIPSE
  5
76
100
AcDbEntity
  8
Bıçak
  6
ByLayer
 62
  256
370
   -1
100
AcDbEllipse
 10
64.0651879504296
 20
47.72007627240696
 30
0
 11
2.020434461452455
 21
1.414723440367684
 31
0
 40
0.4513613334186545
 41
1.524386490695548
 42
4.579361631693393
  0
ELLIPSE
  5
77
100
AcDbEntity
  8
Bıçak
  6
ByLayer
 62
  256
370
   -1
100
AcDbEllipse
 10
74.54484161567953
 20
54.43716642833682
 30
0
 11
1.417584622761804
 21
0.9926034389079827
 31
0
 40
0.7869419691160815
 41
4.635786115508132
 42
7.827349643733541
  0
LINE
  5
78
100
AcDbEntity
  8
Bıçak
  6
ByLayer
 62
  256
370
   -1
100
AcDbLine
 10
65.5198332028848
 20
48.29543597907936
 11
76.02547051921705
 21
55.328107312447
  0
ARC
  5
79
100
AcDbEntity
  8
Bıçak
  6
ByLayer
 62
  256
370
   -1
100
AcDbCircle
 10
65.95574379692506
 20
47.6174400495414
 40
0.8060375465602244
100
AcDbArc
 50
124.8596145320808
 51
214.7192290641612
  0
ELLIPSE
  5
7A
100
AcDbEntity
  8
Bıçak
  6
ByLayer
 62
  256
370
   -1
100
AcDbEllipse
 10
102.548271344491
 20
71.29314687234728
 30
0
 11
1.415028118134679
 21
0.9908133550966021
 31
0
 40
0.8562742270345587
 41
0
 42
6.283185307179586
  0
LINE
  5
7B
100
AcDbEntity
  8
Bıçak
  6
ByLayer
 62
  256
370
   -1
100
AcDbLine
 10
119.7593781864808
 20
84.04109205081673
 11
109.2805272763204
 21
77.00794649222703
  0
LINE
  5
7C
100
AcDbEntity
  8
Bıçak
  6
ByLayer
 62
  256
370
   -1
100
AcDbLine
 10
121.6824748810912
 20
80.8790893214111
 11
110.9480578857161
 21
74.31142277259283
  0
ELLIPSE
  5
7D
100
AcDbEntity
  8
Bıçak
  6
ByLayer
 62
  256
370
   -1
100
AcDbEllipse
 10
120.7726404242264
 20
82.49324543246158
 30
0
 11
1.906020874759736
 21
1.334610184491833
 31
0
 40
0.7949365305857696
 41
4.634716155240582
 42
7.829141546776548
  0
ELLIPSE
  5
7E
100
AcDbEntity
  8
Bıçak
  6
ByLayer
 62
  256
370
   -1
100
AcDbEllipse
 10
110.1535088516779
 20
75.68482673844856
 30
0
 11
1.536083499734647
 21
1.075577245833752
 31
0
 40
0.8452328020417963
 41
1.497728536788585
 42
4.639321190378379
  0
LINE
  5
7F
100
AcDbEntity
  8
Bıçak
  6
ByLayer
 62
  256
370
   -1
100
AcDbLine
 10
110.6957758600551
 20
74.27536277618857
 11
121.6798313921342
 21
81.878926176032
  0
ARC
  5
80
100
AcDbEntity
  8
Bıçak
  6
ByLayer
 62
  256
370
   -1
100
AcDbCircle
 10
110.3555881043695
 20
74.76679567459243
 40
0.5976905576901531
100
AcDbArc
 50
125
 51
304.6923933514437
  0
ELLIPSE
  5
81
100
AcDbEntity
  8
Bıçak
  6
ByLayer
 62
  256
370
   -1
100
AcDbEllipse
 10
121.0843451351769
 20
82.75090874944921
 30
0
 11
1.537382277212849
 21
1.199094082300402
 31
0
 40
0.5415554660029603
 41
4.70446307373505
 42
6.092284258601505
  0
LINE
  5
82
100
AcDbEntity
  8
Bıçak
  6
ByLayer
 62
  256
370
   -1
100
AcDbLine
 10
109.9824574792167
 20
75.23370844944982
 11
121.5624349792675
 21
84.48778003738131
  0
LINE
  5
83
100
AcDbEntity
  8
Bıçak
  6
ByLayer
 62
  256
370
   -1
100
AcDbLine
 10
153.2488305481725
 20
97.00141711986113
 11
144.0486645091017
 21
110.1406159102566
  0
LINE
  5
84
100
AcDbEntity
  8
Bıçak
  6
ByLayer
 62
  256
370
   -1
100
AcDbLine
 10
144.0486645091017
 20
110.1406159102566
 11
144.5398157249776
 21
112.9260728715366
  0
LINE
  5
85
100
AcDbEntity
  8
Bıçak
  6
ByLayer
 62
  256
370
   -1
100
AcDbLine
 10
153.2488305481725
 20
97.00141711986113
 11
156.0342875094526
 21
96.51026590398523
  0
ARC
  5
86
100
AcDbEntity
  8
Bıçak
  6
ByLayer
 62
  256
370
   -1
100
AcDbCircle
 10
196.4885961788931
 20
137.2110595984432
 40
1.5
100
AcDbArc
 50
322.0652798419308
 51
107.9347201580692
  0
LINE
  5
87
100
AcDbEntity
  8
Bıçak
  6
ByLayer
 62
  256
370
   -1
100
AcDbLine
 10
175.6319568792637
 20
129.2243737261749
 11
172.8153468520046
 21
133.2469097223748
  0
ARC
  5
88
100
AcDbEntity
  8
Bıçak
  6
ByLayer
 62
  256
370
   -1
100
AcDbCircle
 10
225.0558277753837
 20
48.94811433327999
 40
94.27086950098467
100
AcDbArc
 50
107.9347201580685
 51
119.7917219118708
  0
LINE
  5
89
100
AcDbEntity
  8
Bıçak
  6
ByLayer
 62
  256
370
   -1
100
AcDbLine
 10
181.8501756376365
 20
120.3438370009184
 11
184.6667856648956
 21
116.3213010047185
  0
ARC
  5
8A
100
AcDbEntity
  8
Bıçak
  6
ByLayer
 62
  256
370
   -1
100
AcDbCircle
 10
123.319126469438
 20
194.2431815158842
 40
94.27086950098467
100
AcDbArc
 50
310.2082780881291
 51
322.0652798419316
  0
ARC
  5
8B
100
AcDbEntity
  8
Bıçak
  6
ByLayer
 62
  256
370
   -1
100
AcDbCircle
 10
145.4940828896776
 20
141.8406633998774
 40
28.88075605208165
100
AcDbArc
 50
279.7147469247919
 51
321.4979781141679
  0
ARC
  5
8C
100
AcDbEntity
  8
Bıçak
  6
ByLayer
 62
  256
370
   -1
100
AcDbCircle
 10
225.0558277753837
 20
48.94811433327999
 40
94.27086950098467
100
AcDbArc
 50
121.6194571236029
 51
126.4575240682208
  0
ARC
  5
8D
100
AcDbEntity
  8
Bıçak
  6
ByLayer
 62
  256
370
   -1
100
AcDbCircle
 10
172.0086946393265
 20
120.7484611813786
 40
5
100
AcDbArc
 50
126.4575240682207
 51
141.4979781141679
  0
ARC
  5
8E
100
AcDbEntity
  8
Bıçak
  6
ByLayer
 62
  256
370
   -1
100
AcDbCircle
 10
123.319126469438
 20
194.2431815158842
 40
94.27086950098467
100
AcDbArc
 50
303.5424759317793
 51
308.380542876397
  0
ARC
  5
8F
100
AcDbEntity
  8
Bıçak
  6
ByLayer
 62
  256
370
   -1
100
AcDbCircle
 10
183.397849964263
 20
87.70847400429089
 40
28.88075605208165
100
AcDbArc
 50
108.502021885832
 51
150.2852530752081
  0
ARC
  5
90
100
AcDbEntity
  8
Bıçak
  6
ByLayer
 62
  256
370
   -1
100
AcDbCircle
 10
172.6461944942549
 20
119.8380170342643
 40
5
100
AcDbArc
 50
288.5020218858321
 51
303.5424759317789
  0
ARC
  5
91
100
AcDbEntity
  8
Bıçak
  6
ByLayer
 62
  256
370
   -1
100
AcDbCircle
 10
176.3373619163071
 20
130.9811313092968
 40
1.893090983588013
100
AcDbArc
 50
248.1226614170864
 51
353.2885176183835
  0
ARC
  5
92
100
AcDbEntity
  8
Bıçak
  6
ByLayer
 62
  256
370
   -1
100
AcDbCircle
 10
183.7422505068781
 20
120.4058544285255
 40
1.893090983588013
100
AcDbArc
 50
76.71148238161645
 51
181.8773385829136
  0
ARC
  5
93
100
AcDbEntity
  8
Bıçak
  6
ByLayer
 62
  256
370
   -1
100
AcDbCircle
 10
174.0435303199053
 20
134.1068930449034
 40
1.499335167949951
100
AcDbArc
 50
214.9998904588487
 51
35.00000000000001
  0
ARC
  5
94
100
AcDbEntity
  8
Bıçak
  6
ByLayer
 62
  256
370
   -1
100
AcDbCircle
 10
185.8949691327962
 20
117.1812843272471
 40
1.499335167949951
100
AcDbArc
 50
35.00000000000001
 51
215.0001095411513
  0
LINE
  5
95
100
AcDbEntity
  8
Bıçak
  6
ByLayer
 62
  256
370
   -1
100
AcDbLine
 10
226.8254894706858
 20
165.7878108115094
 11
224.3459188346777
 21
169.3290046729006
  0
ARC
  5
96
100
AcDbEntity
  8
Bıçak
  6
ByLayer
 62
  256
370
   -1
100
AcDbCircle
 10
224.5242677241801
 20
165.495829975576
 40
2.319671169614845
100
AcDbArc
 50
247.9075395576128
 51
7.231095202808896
  0
ARC
  5
97
100
AcDbEntity
  8
Bıçak
  6
ByLayer
 62
  256
370
   -1
100
AcDbCircle
 10
245.7139309425162
 20
137.9499893892032
 40
33.64100953858192
100
AcDbArc
 50
118.6674999528615
 51
124.1575681967208
  0
LINE
  5
98
100
AcDbEntity
  8
Bıçak
  6
ByLayer
 62
  256
370
   -1
100
AcDbLine
 10
224.3459188346777
 20
169.3290046729006
 11
226.9802515976523
 21
171.1735843316882
  0
ARC
  5
99
100
AcDbEntity
  8
Bıçak
  6
ByLayer
 62
  256
370
   -1
100
AcDbCircle
 10
222.7076147460998
 20
168.1818518001985
 40
2
100
AcDbArc
 50
215
 51
35.0000000000001
  0
ARC
  5
9A
100
AcDbEntity
  8
Bıçak
  6
ByLayer
 62
  256
370
   -1
100
AcDbCircle
 10
234.5590535589907
 20
151.2562430825421
 40
2
100
AcDbArc
 50
34.99999999999991
 51
215
  0
LINE
  5
9B
100
AcDbEntity
  8
Bıçak
  6
ByLayer
 62
  256
370
   -1
100
AcDbLine
 10
237.0017312255428
 20
165.5786621546153
 11
242.7809313736243
 21
169.6253016631246
  0
LINE
  5
9C
100
AcDbEntity
  8
Bıçak
  6
ByLayer
 62
  256
370
   -1
100
AcDbLine
 10
242.7809313736243
 20
169.6253016631246
 11
234.5677713204463
 21
169.054717141569
  0
LINE
  5
9D
100
AcDbEntity
  8
Bıçak
  6
ByLayer
 62
  256
370
   -1
100
AcDbLine
 10
242.7809313736243
 20
169.6253016631246
 11
239.4356911306392
 21
162.1026071676615
  0
LINE
  5
9E
100
AcDbEntity
  8
Bıçak
  6
ByLayer
 62
  256
370
   -1
100
AcDbLine
 10
236.1973576475687
 20
152.4033959552442
 11
238.8316904105433
 21
154.2479756140319
  0
LINE
  5
9F
100
AcDbEntity
  8
Bıçak
  6
ByLayer
 62
  256
370
   -1
100
AcDbLine
 10
199.0443880367173
 20
145.8257980043665
 11
187.9597719094917
 21
143.8511503094793
  0
LINE
  5
A0
100
AcDbEntity
  8
Bıçak
  6
ByLayer
 62
  256
370
   -1
100
AcDbLine
 10
204.1929631726796
 20
148.8200785206801
 11
216.920779832622
 21
164.1298663714063
  0
ARC
  5
A1
100
AcDbEntity
  8
Bıçak
  6
ByLayer
 62
  256
370
   -1
100
AcDbCircle
 10
197.5231868881506
 20
154.3650077215306
 40
8.673647187205027
100
AcDbArc
 50
280.1008859383894
 51
320.2614796361141
  0
LINE
  5
A2
100
AcDbEntity
  8
Bıçak
  6
ByLayer
 62
  256
370
   -1
100
AcDbLine
 10
205.4579345864638
 20
136.6663042831983
 11
199.8112107223827
 21
126.925541591823
  0
ARC
  5
A3
100
AcDbEntity
  8
Bıçak
  6
ByLayer
 62
  256
370
   -1
100
AcDbCircle
 10
212.9618855101663
 20
132.3162610578067
 40
8.673647187205027
100
AcDbArc
 50
109.7385203638859
 51
149.8991140616106
  0
CIRCLE
  5
A4
100
AcDbEntity
  8
Bıçak
  6
ByLayer
 62
  256
370
   -1
100
AcDbCircle
 10
224.940185470987
 20
157.0691607816584
 40
4.311960348336438
  0
ARC
  5
A5
100
AcDbEntity
  8
Bıçak
  6
ByLayer
 62
  256
370
   -1
100
AcDbCircle
 10
245.7139309425162
 20
137.9499893892032
 40
33.64100953858192
100
AcDbArc
 50
130.9810665637018
 51
157.1716696480225
  0
ARC
  5
A6
100
AcDbEntity
  8
Bıçak
  6
ByLayer
 62
  256
370
   -1
100
AcDbCircle
 10
214.0190191016575
 20
183.2150145585926
 40
33.64100953858192
100
AcDbArc
 50
272.8283303519776
 51
299.0189334362982
  0
ARC
  5
A7
100
AcDbEntity
  8
Bıçak
  6
ByLayer
 62
  256
370
   -1
100
AcDbCircle
 10
215.6296450451566
 20
150.6137663038413
 40
1
100
AcDbArc
 50
157.1716696480233
 51
272.8283303519763
  0
LINE
  5
A8
100
AcDbEntity
  8
Bıçak
  6
ByLayer
 62
  256
370
   -1
100
AcDbLine
 10
233.6325406433413
 20
156.0663342474898
 11
236.1973576475687
 21
152.4033959552442
  0
ARC
  5
A9
100
AcDbEntity
  8
Bıçak
  6
ByLayer
 62
  256
370
   -1
100
AcDbCircle
 10
214.9944952761181
 20
184.0724190803311
 40
33.64100953858192
100
AcDbArc
 50
303.6437594459557
 51
309.1246619920839
  0
ARC
  5
AA
100
AcDbEntity
  8
Bıçak
  6
ByLayer
 62
  256
370
   -1
100
AcDbCircle
 10
232.6563505830591
 20
153.8820120500062
 40
2.319671169614845
100
AcDbArc
 50
62.76890479719111
 51
182.0924604423872
  0
CIRCLE
  5
AB
100
AcDbEntity
  8
Bıçak
  6
ByLayer
 62
  256
370
   -1
100
AcDbCircle
 10
224.940185470987
 20
157.0691607816584
 40
3.311960348336438
  0
LINE
  5
AC
100
AcDbEntity
  8
Bıçak
  6
ByLayer
 62
  256
370
   -1
100
AcDbLine
 10
143.7434442525944
 20
114.063409202447
 11
143.8662320565633
 21
114.7597734427671
  0
LINE
  5
AD
100
AcDbEntity
  8
Bıçak
  6
ByLayer
 62
  256
370
   -1
100
AcDbLine
 10
143.8662320565633
 20
114.7597734427671
 11
147.1428402337193
 21
117.0540791881712
  0
LINE
  5
AE
100
AcDbEntity
  8
Bıçak
  6
ByLayer
 62
  256
370
   -1
100
AcDbLine
 10
147.1428402337193
 20
117.0540791881712
 11
147.8392044740393
 21
116.9312913842023
  0
LINE
  5
AF
100
AcDbEntity
  8
Bıçak
  6
ByLayer
 62
  256
370
   -1
100
AcDbLine
 10
147.8392044740393
 20
116.9312913842023
 11
160.7927757131216
 21
98.43167443891498
  0
LINE
  5
B0
100
AcDbEntity
  8
Bıçak
  6
ByLayer
 62
  256
370
   -1
100
AcDbLine
 10
160.7927757131216
 20
98.43167443891498
 11
160.6699879091526
 21
97.73531019859496
  0
LINE
  5
B1
100
AcDbEntity
  8
Bıçak
  6
ByLayer
 62
  256
370
   -1
100
AcDbLine
 10
157.3933797319966
 20
95.44100445319071
 11
160.6699879091526
 21
97.73531019859496
  0
LINE
  5
B2
100
AcDbEntity
  8
Bıçak
  6
ByLayer
 62
  256
370
   -1
100
AcDbLine
 10
143.7434442525944
 20
114.063409202447
 11
156.6970154916765
 21
95.56379225715969
  0
LINE
  5
B3
100
AcDbEntity
  8
Bıçak
  6
ByLayer
 62
  256
370
   -1
100
AcDbLine
 10
157.3933797319966
 20
95.44100445319071
 11
156.6970154916765
 21
95.56379225715969
  0
LINE
  5
B4
100
AcDbEntity
  8
Bıçak
  6
ByLayer
 62
  256
370
   -1
100
AcDbLine
 10
226.5519731885256
 20
172.6569526858237
 11
226.4291853845567
 21
171.9605884455037
  0
LINE
  5
B5
100
AcDbEntity
  8
Bıçak
  6
ByLayer
 62
  256
370
   -1
100
AcDbLine
 10
226.5519731885256
 20
172.6569526858237
 11
229.8285813656816
 21
174.9512584312279
  0
LINE
  5
B6
100
AcDbEntity
  8
Bıçak
  6
ByLayer
 62
  256
370
   -1
100
AcDbLine
 10
229.8285813656816
 20
174.9512584312279
 11
230.5249456060016
 21
174.8284706272589
  0
LINE
  5
B7
100
AcDbEntity
  8
Bıçak
  6
ByLayer
 62
  256
370
   -1
100
AcDbLine
 10
243.4785168450839
 20
156.3288536819716
 11
230.5249456060016
 21
174.8284706272589
  0
LINE
  5
B8
100
AcDbEntity
  8
Bıçak
  6
ByLayer
 62
  256
370
   -1
100
AcDbLine
 10
243.4785168450839
 20
156.3288536819716
 11
243.3557290411149
 21
155.6324894416516
  0
LINE
  5
B9
100
AcDbEntity
  8
Bıçak
  6
ByLayer
 62
  256
370
   -1
100
AcDbLine
 10
240.0791208639589
 20
153.3381836962474
 11
243.3557290411149
 21
155.6324894416516
  0
LINE
  5
BA
100
AcDbEntity
  8
Bıçak
  6
ByLayer
 62
  256
370
   -1
100
AcDbLine
 10
239.3827566236389
 20
153.4609715002164
 11
226.4291853845567
 21
171.9605884455037
  0
LINE
  5
BB
100
AcDbEntity
  8
Bıçak
  6
ByLayer
 62
  256
370
   -1
100
AcDbLine
 10
240.0791208639589
 20
153.3381836962474
 11
239.3827566236389
 21
153.4609715002164
  0
LINE
  5
BC
100
AcDbEntity
  8
Bıçak
  6
ByLayer
 62
  256
370
   -1
100
AcDbLine
 10
231.5283594321524
 20
164.6782131933987
 11
235.6241196535973
 21
167.546095375154
  0
LINE
  5
BD
100
AcDbEntity
  8
Bıçak
  6
ByLayer
 62
  256
370
   -1
100
AcDbLine
 10
234.6460778299157
 20
160.2256498780498
 11
238.7418380513607
 21
163.093532059805
  0
CIRCLE
  5
BE
100
AcDbEntity
  8
Bıçak
  6
ByLayer
 62
  256
370
   -1
100
AcDbCircle
 10
224.940185470987
 20
157.0691607816584
 40
1.849568278669151
  0
LINE
  5
BF
100
AcDbEntity
  8
Bıçak
  6
ByLayer
 62
  256
370
   -1
100
AcDbLine
 10
225.8558632344166
 20
157.7055558246114
 11
226.7827155839558
 21
157.2303612787482
  0
LINE
  5
C0
100
AcDbEntity
  8
Bıçak
  6
ByLayer
 62
  256
370
   -1
100
AcDbLine
 10
223.9346100486788
 20
157.4758541221962
 11
223.87931668892
 21
158.5842384181822
  0
LINE
  5
C1
100
AcDbEntity
  8
Bıçak
  6
ByLayer
 62
  256
370
   -1
100
AcDbLine
 10
223.0976553580181
 20
156.9079602845684
 11
223.9346100486788
 21
157.4758541221962
  0
LINE
  5
C2
100
AcDbEntity
  8
Bıçak
  6
ByLayer
 62
  256
370
   -1
100
AcDbLine
 10
224.7896045242887
 20
158.1433613130674
 11
225.7218468018889
 21
158.7454389152722
  0
LINE
  5
C3
100
AcDbEntity
  8
Bıçak
  6
ByLayer
 62
  256
370
   -1
100
AcDbLine
 10
223.87931668892
 20
158.5842384181822
 11
224.7896045242887
 21
158.1433613130674
  0
LINE
  5
C4
100
AcDbEntity
  8
Bıçak
  6
ByLayer
 62
  256
370
   -1
100
AcDbLine
 10
225.7951799465967
 20
157.7366679725294
 11
226.7827155839558
 21
157.2303612787482
  0
LINE
  5
C5
100
AcDbEntity
  8
Bıçak
  6
ByLayer
 62
  256
370
   -1
100
AcDbLine
 10
225.7218468018889
 20
158.7454389152722
 11
225.7951799465967
 21
157.7366679725294
  0
LINE
  5
C6
100
AcDbEntity
  8
Bıçak
  6
ByLayer
 62
  256
370
   -1
100
AcDbLine
 10
225.0907664176852
 20
155.9949602502493
 11
224.1585241400851
 21
155.3928826480445
  0
LINE
  5
C7
100
AcDbEntity
  8
Bıçak
  6
ByLayer
 62
  256
370
   -1
100
AcDbLine
 10
226.0010542530539
 20
155.5540831451345
 11
225.0907664176852
 21
155.9949602502493
  0
LINE
  5
C8
100
AcDbEntity
  8
Bıçak
  6
ByLayer
 62
  256
370
   -1
100
AcDbLine
 10
224.0851909953771
 20
156.4016535907873
 11
223.0976553580181
 21
156.9079602845684
  0
LINE
  5
C9
100
AcDbEntity
  8
Bıçak
  6
ByLayer
 62
  256
370
   -1
100
AcDbLine
 10
224.1585241400851
 20
155.3928826480445
 11
224.0851909953771
 21
156.4016535907873
  0
LINE
  5
CA
100
AcDbEntity
  8
Bıçak
  6
ByLayer
 62
  256
370
   -1
100
AcDbLine
 10
226.7827155839558
 20
157.2303612787482
 11
225.945760893295
 21
156.6624674411204
  0
LINE
  5
CB
100
AcDbEntity
  8
Bıçak
  6
ByLayer
 62
  256
370
   -1
100
AcDbLine
 10
225.945760893295
 20
156.6624674411204
 11
226.0010542530539
 21
155.5540831451345
  0
ARC
  5
CC
100
AcDbEntity
  8
Bıçak
  6
ByLayer
 62
  256
370
   -1
100
AcDbCircle
 10
139.1113366344557
 20
149.2361485786525
 40
34.08104946409905
100
AcDbArc
 50
285.4939967615684
 51
322.9103468573897
  0
ARC
  5
CD
100
AcDbEntity
  8
Bıçak
  6
ByLayer
 62
  256
370
   -1
100
AcDbCircle
 10
188.1643050248672
 20
79.18124954710248
 40
34.08104946409905
100
AcDbArc
 50
107.0896531426103
 51
144.5060032384316
  0
LINE
  5
CE
100
AcDbEntity
  8
Bıçak
  6
ByLayer
 62
  256
370
   -1
100
AcDbLine
 10
166.2975460162403
 20
128.6830964446231
 11
172.8153468520046
 21
133.2469097223748
  0
LINE
  5
CF
100
AcDbEntity
  8
Bıçak
  6
ByLayer
 62
  256
370
   -1
100
AcDbLine
 10
178.1489848291314
 20
111.7574877269669
 11
184.6667856649
 21
116.3213010047216
  0
LINE
  5
D0
100
AcDbEntity
  8
Bıçak
  6
ByLayer
 62
  256
370
   -1
100
AcDbLine
 10
166.2975460162401
 20
128.6830964446229
 11
169.0375611983404
 21
124.7699492238641
  0
LINE
  5
D1
100
AcDbEntity
  8
Bıçak
  6
ByLayer
 62
  256
370
   -1
100
AcDbLine
 10
175.4089696470315
 20
115.670634947726
 11
178.1489848291309
 21
111.7574877269665
  0
LINE
  5
D2
100
AcDbEntity
  8
Bıçak
  6
ByLayer
 62
  256
370
   -1
100
AcDbLine
 10
200.7560440175043
 20
148.6324672908561
 11
198.7926835162255
 21
151.4364366772737
  0
LINE
  5
D3
100
AcDbEntity
  8
Bıçak
  6
ByLayer
 62
  256
370
   -1
100
AcDbLine
 10
201.9847720839378
 20
149.4928319453827
 11
200.0214115826589
 21
152.2968013318003
  0
ARC
  5
D4
100
AcDbEntity
  8
Bıçak
  6
ByLayer
 62
  256
370
   -1
100
AcDbCircle
 10
201.3704080507211
 20
149.0626496181194
 40
0.75
100
AcDbArc
 50
214.9997159880883
 51
35.00012501488353
  0
ARC
  5
D5
100
AcDbEntity
  8
Bıçak
  6
ByLayer
 62
  256
370
   -1
100
AcDbCircle
 10
199.4070475494422
 20
151.866619004537
 40
0.75
100
AcDbArc
 50
215
 51
35
  0
ARC
  5
D6
100
AcDbEntity
  8
Bıçak
  6
ByLayer
 62
  256
370
   -1
100
AcDbCircle
 10
203.131499943268
 20
150.9061667311415
 40
0.75
100
AcDbArc
 50
214.9997159880883
 51
35.00012501488353
  0
ARC
  5
D7
100
AcDbEntity
  8
Bıçak
  6
ByLayer
 62
  256
370
   -1
100
AcDbCircle
 10
204.892591835815
 20
152.7496838441637
 40
0.75
100
AcDbArc
 50
214.9997159880883
 51
35.00012501488353
  0
ARC
  5
D8
100
AcDbEntity
  8
Bıçak
  6
ByLayer
 62
  256
370
   -1
100
AcDbCircle
 10
206.6536837283619
 20
154.5932009571857
 40
0.75
100
AcDbArc
 50
214.9997159880883
 51
35.00012501488353
  0
ARC
  5
D9
100
AcDbEntity
  8
Bıçak
  6
ByLayer
 62
  256
370
   -1
100
AcDbCircle
 10
208.4147756209088
 20
156.4367180702078
 40
0.75
100
AcDbArc
 50
214.9997159880883
 51
35.00012501488353
  0
ARC
  5
DA
100
AcDbEntity
  8
Bıçak
  6
ByLayer
 62
  256
370
   -1
100
AcDbCircle
 10
210.1758675134558
 20
158.2802351832299
 40
0.75
100
AcDbArc
 50
214.9997159880883
 51
35.00012501488353
  0
ARC
  5
DB
100
AcDbEntity
  8
Bıçak
  6
ByLayer
 62
  256
370
   -1
100
AcDbCircle
 10
211.9369594060028
 20
160.123752296252
 40
0.75
100
AcDbArc
 50
214.9997159880883
 51
35.00012501488353
  0
ARC
  5
DC
100
AcDbEntity
  8
Bıçak
  6
ByLayer
 62
  256
370
   -1
100
AcDbCircle
 10
201.4549276601647
 20
153.3005600954146
 40
0.75
100
AcDbArc
 50
215
 51
35
  0
ARC
  5
DD
100
AcDbEntity
  8
Bıçak
  6
ByLayer
 62
  256
370
   -1
100
AcDbCircle
 10
203.5028077708872
 20
154.7345011862922
 40
0.75
100
AcDbArc
 50
215
 51
35
  0
ARC
  5
DE
100
AcDbEntity
  8
Bıçak
  6
ByLayer
 62
  256
370
   -1
100
AcDbCircle
 10
205.5506878816096
 20
156.1684422771698
 40
0.75
100
AcDbArc
 50
215
 51
35
  0
ARC
  5
DF
100
AcDbEntity
  8
Bıçak
  6
ByLayer
 62
  256
370
   -1
100
AcDbCircle
 10
207.5985706165771
 20
157.6023796202371
 40
0.75
100
AcDbArc
 50
215
 51
35
  0
ARC
  5
E0
100
AcDbEntity
  8
Bıçak
  6
ByLayer
 62
  256
370
   -1
100
AcDbCircle
 10
211.694328213777
 20
160.4702655498027
 40
0.75
100
AcDbArc
 50
215
 51
35
  0
LINE
  5
E1
100
AcDbEntity
  8
Bıçak
  6
ByLayer
 62
  256
370
   -1
100
AcDbLine
 10
202.5171359100513
 20
150.4759844038783
 11
200.840563626948
 21
152.8703777681514
  0
LINE
  5
E2
100
AcDbEntity
  8
Bıçak
  6
ByLayer
 62
  256
370
   -1
100
AcDbLine
 10
203.7458639764848
 20
151.3363490584048
 11
202.0692916933814
 21
153.7307424226779
  0
LINE
  5
E3
100
AcDbEntity
  8
Bıçak
  6
ByLayer
 62
  256
370
   -1
100
AcDbLine
 10
204.2782278025983
 20
152.3195015169004
 11
202.8884437376704
 21
154.304318859029
  0
LINE
  5
E4
100
AcDbEntity
  8
Bıçak
  6
ByLayer
 62
  256
370
   -1
100
AcDbLine
 10
205.5069558690317
 20
153.1798661714269
 11
204.1171718041039
 21
155.1646835135555
  0
LINE
  5
E5
100
AcDbEntity
  8
Bıçak
  6
ByLayer
 62
  256
370
   -1
100
AcDbLine
 10
206.0393196951452
 20
154.1630186299225
 11
204.9363238483929
 21
155.7382599499066
  0
LINE
  5
E6
100
AcDbEntity
  8
Bıçak
  6
ByLayer
 62
  256
370
   -1
100
AcDbLine
 10
207.2680477615786
 20
155.023383284449
 11
206.1650519148263
 21
156.5986246044331
  0
LINE
  5
E7
100
AcDbEntity
  8
Bıçak
  6
ByLayer
 62
  256
370
   -1
100
AcDbLine
 10
207.8004115876921
 20
156.0065357429445
 11
206.9842039591153
 21
157.1722010407841
  0
LINE
  5
E8
100
AcDbEntity
  8
Bıçak
  6
ByLayer
 62
  256
370
   -1
100
AcDbLine
 10
209.0291396541255
 20
156.8669003974711
 11
208.2129320255488
 21
158.0325656953107
  0
LINE
  5
E9
100
AcDbEntity
  8
Bıçak
  6
ByLayer
 62
  256
370
   -1
100
AcDbLine
 10
209.561503480239
 20
157.8500528559667
 11
209.0320840698378
 21
158.6061421316618
  0
LINE
  5
EA
100
AcDbEntity
  8
Bıçak
  6
ByLayer
 62
  256
370
   -1
100
AcDbLine
 10
210.7902315466725
 20
158.7104175104932
 11
210.2608121362713
 21
159.4665067861883
  0
LINE
  5
EB
100
AcDbEntity
  8
Bıçak
  6
ByLayer
 62
  256
370
   -1
100
AcDbLine
 10
211.322595372786
 20
159.6935699689888
 11
211.0799641805603
 21
160.0400832225394
  0
LINE
  5
EC
100
AcDbEntity
  8
Bıçak
  6
ByLayer
 62
  256
370
   -1
100
AcDbLine
 10
212.5513234392195
 20
160.5539346235153
 11
212.3086922469938
 21
160.9004478770659
  0
LINE
  5
ED
100
AcDbEntity
  8
Bıçak
  6
ByLayer
 62
  256
370
   -1
100
AcDbLine
 10
200.021411582659
 20
152.2968013318003
 11
200.840563626948
 21
152.8703777681514
  0
LINE
  5
EE
100
AcDbEntity
  8
Bıçak
  6
ByLayer
 62
  256
370
   -1
100
AcDbLine
 10
202.0692916933886
 20
153.7307424226829
 11
202.8884437376681
 21
154.3043188590273
  0
LINE
  5
EF
100
AcDbEntity
  8
Bıçak
  6
ByLayer
 62
  256
370
   -1
100
AcDbLine
 10
204.1171718041039
 20
155.1646835135555
 11
204.9363238483928
 21
155.7382599499065
  0
LINE
  5
F0
100
AcDbEntity
  8
Bıçak
  6
ByLayer
 62
  256
370
   -1
100
AcDbLine
 10
206.1650519148311
 20
156.5986246044364
 11
206.9842039591153
 21
157.1722010407841
  0
ARC
  5
F1
100
AcDbEntity
  8
Bıçak
  6
ByLayer
 62
  256
370
   -1
100
AcDbCircle
 10
209.6464481030546
 20
159.036324458925
 40
0.75
100
AcDbArc
 50
215
 51
35
  0
LINE
  5
F2
100
AcDbEntity
  8
Bıçak
  6
ByLayer
 62
  256
370
   -1
100
AcDbLine
 10
210.2608121362713
 20
159.4665067861883
 11
211.0799641805603
 21
160.0400832225394
  0
LINE
  5
F3
100
AcDbEntity
  8
Bıçak
  6
ByLayer
 62
  256
370
   -1
100
AcDbLine
 10
208.2129320255488
 20
158.0325656953107
 11
209.0320840698378
 21
158.6061421316618
  0
LINE
  5
F4
100
AcDbEntity
  8
Bıçak
  6
ByLayer
 62
  256
370
   -1
100
AcDbLine
 10
208.6807618278376
 20
137.314797346035
 11
210.6441223291164
 21
134.5108279596174
  0
LINE
  5
F5
100
AcDbEntity
  8
Bıçak
  6
ByLayer
 62
  256
370
   -1
100
AcDbLine
 10
209.9094898942711
 20
138.1751620005616
 11
211.8728503955499
 21
135.371192614144
  0
ARC
  5
F6
100
AcDbEntity
  8
Bıçak
  6
ByLayer
 62
  256
370
   -1
100
AcDbCircle
 10
209.2951258610543
 20
137.7449796732983
 40
0.75
100
AcDbArc
 50
34.99987498511648
 51
215.0002840119117
  0
ARC
  5
F7
100
AcDbEntity
  8
Bıçak
  6
ByLayer
 62
  256
370
   -1
100
AcDbCircle
 10
211.2584863623332
 20
134.9410102868806
 40
0.75
100
AcDbArc
 50
35.00000000000001
 51
215
  0
ARC
  5
F8
100
AcDbEntity
  8
Bıçak
  6
ByLayer
 62
  256
370
   -1
100
AcDbCircle
 10
211.6297941899523
 20
138.7693447420314
 40
0.75
100
AcDbArc
 50
34.99987498511648
 51
215.0002840119117
  0
ARC
  5
F9
100
AcDbEntity
  8
Bıçak
  6
ByLayer
 62
  256
370
   -1
100
AcDbCircle
 10
213.9644625188503
 20
139.7937098107645
 40
0.75
100
AcDbArc
 50
34.99987498511648
 51
215.0002840119117
  0
ARC
  5
FA
100
AcDbEntity
  8
Bıçak
  6
ByLayer
 62
  256
370
   -1
100
AcDbCircle
 10
216.2991308477483
 20
140.8180748794976
 40
0.75
100
AcDbArc
 50
34.99987498511648
 51
215.0002840119117
  0
ARC
  5
FB
100
AcDbEntity
  8
Bıçak
  6
ByLayer
 62
  256
370
   -1
100
AcDbCircle
 10
218.6337991766463
 20
141.8424399482307
 40
0.75
100
AcDbArc
 50
34.99987498511648
 51
215.0002840119117
  0
ARC
  5
FC
100
AcDbEntity
  8
Bıçak
  6
ByLayer
 62
  256
370
   -1
100
AcDbCircle
 10
220.9684675055443
 20
142.8668050169638
 40
0.75
100
AcDbArc
 50
34.99987498511648
 51
215.0002840119117
  0
ARC
  5
FD
100
AcDbEntity
  8
Bıçak
  6
ByLayer
 62
  256
370
   -1
100
AcDbCircle
 10
223.3031358344423
 20
143.8911700856969
 40
0.75
100
AcDbArc
 50
34.99987498511648
 51
215.0002840119117
  0
ARC
  5
FE
100
AcDbEntity
  8
Bıçak
  6
ByLayer
 62
  256
370
   -1
100
AcDbCircle
 10
213.3063664730556
 20
136.3749513777583
 40
0.75
100
AcDbArc
 50
35.00000000000001
 51
215
  0
ARC
  5
FF
100
AcDbEntity
  8
Bıçak
  6
ByLayer
 62
  256
370
   -1
100
AcDbCircle
 10
215.3542465837781
 20
137.8088924686359
 40
0.75
100
AcDbArc
 50
35.00000000000001
 51
215
  0
ARC
  5
100
100
AcDbEntity
  8
Bıçak
  6
ByLayer
 62
  256
370
   -1
100
AcDbCircle
 10
217.4021266945005
 20
139.2428335595135
 40
0.75
100
AcDbArc
 50
35.00000000000001
 51
215
  0
ARC
  5
101
100
AcDbEntity
  8
Bıçak
  6
ByLayer
 62
  256
370
   -1
100
AcDbCircle
 10
219.4500041809779
 20
140.6767783982015
 40
0.75
100
AcDbArc
 50
35.00000000000001
 51
215
  0
ARC
  5
102
100
AcDbEntity
  8
Bıçak
  6
ByLayer
 62
  256
370
   -1
100
AcDbCircle
 10
223.545767026668
 20
143.5446568321463
 40
0.75
100
AcDbArc
 50
35.00000000000001
 51
215
  0
LINE
  5
103
100
AcDbEntity
  8
Bıçak
  6
ByLayer
 62
  256
370
   -1
100
AcDbLine
 10
211.0154301567356
 20
138.3391624147681
 11
212.6920024398389
 21
135.944769050495
  0
LINE
  5
104
100
AcDbEntity
  8
Bıçak
  6
ByLayer
 62
  256
370
   -1
100
AcDbLine
 10
212.2441582231691
 20
139.1995270692947
 11
213.9207305062724
 21
136.8051337050216
  0
LINE
  5
105
100
AcDbEntity
  8
Bıçak
  6
ByLayer
 62
  256
370
   -1
100
AcDbLine
 10
213.3500984856336
 20
139.3635274835012
 11
214.7398825505614
 21
137.3787101413726
  0
LINE
  5
106
100
AcDbEntity
  8
Bıçak
  6
ByLayer
 62
  256
370
   -1
100
AcDbLine
 10
214.5788265520671
 20
140.2238921380278
 11
215.9686106169949
 21
138.2390747958992
  0
LINE
  5
107
100
AcDbEntity
  8
Bıçak
  6
ByLayer
 62
  256
370
   -1
100
AcDbLine
 10
215.6847668145316
 20
140.3878925522343
 11
216.7877626612839
 21
138.8126512322502
  0
LINE
  5
108
100
AcDbEntity
  8
Bıçak
  6
ByLayer
 62
  256
370
   -1
100
AcDbLine
 10
216.913494880965
 20
141.2482572067609
 11
218.0164907277173
 21
139.6730158867767
  0
LINE
  5
109
100
AcDbEntity
  8
Bıçak
  6
ByLayer
 62
  256
370
   -1
100
AcDbLine
 10
218.0194351434295
 20
141.4122576209674
 11
218.8356427720063
 21
140.2465923231278
  0
LINE
  5
10A
100
AcDbEntity
  8
Bıçak
  6
ByLayer
 62
  256
370
   -1
100
AcDbLine
 10
219.248163209863
 20
142.272622275494
 11
220.0643708384397
 21
141.1069569776544
  0
LINE
  5
10B
100
AcDbEntity
  8
Bıçak
  6
ByLayer
 62
  256
370
   -1
100
AcDbLine
 10
220.3541034723275
 20
142.4366226897005
 11
220.8835228827287
 21
141.6805334140054
  0
LINE
  5
10C
100
AcDbEntity
  8
Bıçak
  6
ByLayer
 62
  256
370
   -1
100
AcDbLine
 10
221.582831538761
 20
143.2969873442271
 11
222.1122509491622
 21
142.540898068532
  0
LINE
  5
10D
100
AcDbEntity
  8
Bıçak
  6
ByLayer
 62
  256
370
   -1
100
AcDbLine
 10
222.6887718012255
 20
143.4609877584336
 11
222.9314029934512
 21
143.114474504883
  0
LINE
  5
10E
100
AcDbEntity
  8
Bıçak
  6
ByLayer
 62
  256
370
   -1
100
AcDbLine
 10
223.917499867659
 20
144.3213524129602
 11
224.1601310598847
 21
143.9748391594096
  0
LINE
  5
10F
100
AcDbEntity
  8
Bıçak
  6
ByLayer
 62
  256
370
   -1
100
AcDbLine
 10
211.8728503955499
 20
135.371192614144
 11
212.6920024398389
 21
135.944769050495
  0
LINE
  5
110
100
AcDbEntity
  8
Bıçak
  6
ByLayer
 62
  256
370
   -1
100
AcDbLine
 10
213.9207305062795
 20
136.8051337050266
 11
214.739882550559
 21
137.378710141371
  0
LINE
  5
111
100
AcDbEntity
  8
Bıçak
  6
ByLayer
 62
  256
370
   -1
100
AcDbLine
 10
215.9686106169949
 20
138.2390747958992
 11
216.7877626612838
 21
138.8126512322502
  0
LINE
  5
112
100
AcDbEntity
  8
Bıçak
  6
ByLayer
 62
  256
370
   -1
100
AcDbLine
 10
218.016490727722
 20
139.6730158867801
 11
218.8356427720063
 21
140.2465923231278
  0
ARC
  5
113
100
AcDbEntity
  8
Bıçak
  6
ByLayer
 62
  256
370
   -1
100
AcDbCircle
 10
221.4978869159455
 20
142.1107157412687
 40
0.75
100
AcDbArc
 50
35.00000000000001
 51
215
  0
LINE
  5
114
100
AcDbEntity
  8
Bıçak
  6
ByLayer
 62
  256
370
   -1
100
AcDbLine
 10
222.1122509491622
 20
142.540898068532
 11
222.9314029934512
 21
143.114474504883
  0
LINE
  5
115
100
AcDbEntity
  8
Bıçak
  6
ByLayer
 62
  256
370
   -1
100
AcDbLine
 10
220.0643708384397
 20
141.1069569776544
 11
220.8835228827287
 21
141.6805334140054
  0
LINE
  5
116
100
AcDbEntity
  8
Bıçak
  6
ByLayer
 62
  256
370
   -1
100
AcDbLine
 10
212.3086922469938
 20
160.9004478770659
 11
216.9207798326219
 21
164.1298663714062
  0
LINE
  5
117
100
AcDbEntity
  8
Bıçak
  6
ByLayer
 62
  256
370
   -1
100
AcDbLine
 10
210.0325542981315
 20
140.480278094677
 11
228.772218645513
 21
147.2042576537499
  0
LINE
  5
118
100
AcDbEntity
  8
Bıçak
  6
ByLayer
 62
  256
370
   -1
100
AcDbLine
 10
224.1601310598847
 20
143.9748391594096
 11
228.772218645513
 21
147.2042576537499
  0
LINE
  5
119
100
AcDbEntity
  8
Bıçak
  6
ByLayer
 62
  256
370
   -1
100
AcDbLine
 10
216.920779832622
 20
164.1298663714063
 11
221.0693106575217
 21
167.0346989274964
  0
LINE
  5
11A
100
AcDbEntity
  8
Bıçak
  6
ByLayer
 62
  256
370
   -1
100
AcDbLine
 10
228.772218645513
 20
147.2042576537499
 11
232.9207494704127
 21
150.10909020984
  0
LINE
  5
11B
100
AcDbEntity
  8
Bıçak
  6
ByLayer
 62
  256
370
   -1
100
AcDbLine
 10
187.9597749615813
 20
143.851150853188
 11
198.7926849040585
 21
151.4364346952428
  0
LINE
  5
11C
100
AcDbEntity
  8
Bıçak
  6
ByLayer
 62
  256
370
   -1
100
AcDbLine
 10
199.8112122771778
 20
126.9255442738897
 11
210.6441209412834
 21
134.5108299416484
  0
LINE
  5
11D
100
AcDbEntity
  8
Bıçak
  6
ByLayer
 62
  256
370
   -1
100
AcDbLine
 10
187.1231536769987
 20
118.041266112657
 11
199.8112122771778
 21
126.9255442738898
  0
LINE
  5
11E
100
AcDbEntity
  8
Bıçak
  6
ByLayer
 62
  256
370
   -1
100
AcDbLine
 10
175.2717137878058
 20
134.9668763674319
 11
187.9597719094917
 21
143.8511503094793
  0
LINE
  5
11F
100
AcDbEntity
  8
Bıçak
  6
ByLayer
 62
  256
370
   -1
100
AcDbLine
 10
175.2717137878059
 20
134.966876367432
 11
178.2174800171607
 21
130.7598861986506
  0
LINE
  5
120
100
AcDbEntity
  8
Bıçak
  6
ByLayer
 62
  256
370
   -1
100
AcDbLine
 10
184.1773863713422
 20
122.248257818557
 11
187.1231536769987
 21
118.041266112657
  0
LINE
  5
121
100
AcDbEntity
  8
Bıçak
  6
ByLayer
 62
  256
370
   -1
100
AcDbLine
 10
221.0693106575218
 20
167.0346989274964
 11
223.6518339741681
 21
163.3464734004628
  0
LINE
  5
122
100
AcDbEntity
  8
Bıçak
  6
ByLayer
 62
  256
370
   -1
100
AcDbLine
 10
230.3382261537663
 20
153.7973157368737
 11
232.9207494704119
 21
150.1090902098394
  0
LINE
  5
123
100
AcDbEntity
  8
Bıçak2
  6
ByLayer
 62
  256
370
   -1
100
AcDbLine
 10
0
 20
0
 11
26.25244061298784
 21
7.730780057812362
  0
LINE
  5
124
100
AcDbEntity
  8
Bıçak2
  6
ByLayer
 62
  256
370
   -1
100
AcDbLine
 10
0
 20
0
 11
28.26566458637649
 21
-8.133424852490112
  0
ARC
  5
125
100
AcDbEntity
  8
Bıçak2
  6
ByLayer
 62
  256
370
   -1
100
AcDbCircle
 10
-58.65773366664138
 20
-656.1040637102965
 40
669.2431826300709
100
AcDbArc
 50
76.63054480175757
 51
82.71095712044041
  0
ARC
  5
126
100
AcDbEntity
  8
Bıçak2
  6
ByLayer
 62
  256
370
   -1
100
AcDbCircle
 10
142.0979165129667
 20
206.4059758701605
 40
216.352083898079
100
AcDbArc
 50
257.7223699726055
 51
276.7215633815611
  0
ARC
  5
127
100
AcDbEntity
  8
Bıçak2
  6
ByLayer
 62
  256
370
   -1
100
AcDbCircle
 10
169.3308237413084
 20
-9.051991579646332
 40
2
100
AcDbArc
 50
19.09179081538047
 51
162.754209025989
  0
LINE
  5
128
100
AcDbEntity
  8
Bıçak2
  6
ByLayer
 62
  256
370
   -1
100
AcDbLine
 10
26.25244061298787
 20
7.730780057812364
 11
27.04674310541748
 21
5.008285441125089
  0
LINE
  5
129
100
AcDbEntity
  8
Bıçak2
  6
ByLayer
 62
  256
370
   -1
100
AcDbLine
 10
28.26566458637649
 20
-8.133424852490112
 11
28.23028805410928
 21
-5.581327257696479
  0
LINE
  5
12A
100
AcDbEntity
  8
Bıçak2
  6
ByLayer
 62
  256
370
   -1
100
AcDbLine
 10
16.03400664450321
 20
1.765271023187155
 11
27.05356522156745
 21
5.010294407844091
  0
LINE
  5
12B
100
AcDbEntity
  8
Bıçak2
  6
ByLayer
 62
  256
370
   -1
100
AcDbLine
 10
16.04591911264735
 20
-2.075283773116261
 11
28.23028805410928
 21
-5.581327257696479
  0
ARC
  5
12C
100
AcDbEntity
  8
Bıçak2
  6
ByLayer
 62
  256
370
   -1
100
AcDbCircle
 10
16.59897650178074
 20
-0.1532724504844236
 40
2
100
AcDbArc
 50
106.4085691541631
 51
253.9468648888815
  0
ARC
  5
12D
100
AcDbEntity
  8
Bıçak2
  6
ByLayer
 62
  256
370
   -1
100
AcDbCircle
 10
53.75101741064961
 20
198.2223323653731
 40
207.9235478379863
100
AcDbArc
 50
262.9595066835207
 51
281.9788533061766
  0
ARC
  5
12E
100
AcDbEntity
  8
Bıçak2
  6
ByLayer
 62
  256
370
   -1
100
AcDbCircle
 10
60.61603270937346
 20
306.8393903178899
 40
314.0947965619937
100
AcDbArc
 50
264.0818180314135
 51
276.6345316385598
  0
ARC
  5
12F
100
AcDbEntity
  8
Bıçak2
  6
ByLayer
 62
  256
370
   -1
100
AcDbCircle
 10
-1890.278029140658
 20
-13423.05703732514
 40
13564.25717076856
100
AcDbArc
 50
81.57576583004141
 51
81.87395491657739
  0
ARC
  5
130
100
AcDbEntity
  8
Bıçak2
  6
ByLayer
 62
  256
370
   -1
100
AcDbCircle
 10
94.20026152833253
 20
-528.5771991706456
 40
534.1522910441543
100
AcDbArc
 50
89.08176897320722
 51
94.52185246326893
  0
ARC
  5
131
100
AcDbEntity
  8
Bıçak2
  6
ByLayer
 62
  256
370
   -1
100
AcDbCircle
 10
1290.984973472212
 20
9997.29234154306
 40
10069.88118575835
100
AcDbArc
 50
262.9329983166894
 51
263.3114105961008
  0
ARC
  5
132
100
AcDbEntity
  8
Bıçak2
  6
ByLayer
 62
  256
370
   -1
100
AcDbCircle
 10
161.1785410644479
 20
535.5662016360676
 40
541.3335628424592
100
AcDbArc
 50
265.4373875083758
 51
270.365710429568
  0
ARC
  5
133
100
AcDbEntity
  8
Bıçak2
  6
ByLayer
 62
  256
370
   -1
100
AcDbCircle
 10
164.6337691330823
 20
-4.098455828535664
 40
1.657878237268724
100
AcDbArc
 50
270.0000000006434
 51
90.00000000000779
  0
ARC
  5
134
100
AcDbEntity
  8
Bıçak2
  6
ByLayer
 62
  256
370
   -1
100
AcDbCircle
 10
51.40714987439043
 20
-639.1505684197584
 40
646.6992189028609
100
AcDbArc
 50
79.91645958552911
 51
85.44545620893982
  0
LINE
  5
135
100
AcDbEntity
  8
Bıçak2
  6
ByLayer
 62
  256
370
   -1
100
AcDbLine
 10
181.1718199810442
 20
7.724856115609313
 11
171.4396806732021
 21
7.554116829506769
  0
ARC
  5
136
100
AcDbEntity
  8
Bıçak2
  6
ByLayer
 62
  256
370
   -1
100
AcDbCircle
 10
173.7089622267008
 20
-87.93239451273418
 40
95.76820993712121
100
AcDbArc
 50
93.75557782470385
 51
105.3629348199064
  0
ARC
  5
137
100
AcDbEntity
  8
Bıçak2
  6
ByLayer
 62
  256
370
   -1
100
AcDbCircle
 10
169.4824904230873
 20
9.939839848274891
 40
3.085817233315093
100
AcDbArc
 50
228.4591407061689
 51
309.3646367886495
  0
ARC
  5
138
100
AcDbEntity
  8
Bıçak2
  6
ByLayer
 62
  256
370
   -1
100
AcDbCircle
 10
169.4087939838783
 20
1.567019447490181
 40
2.689999886998978
100
AcDbArc
 50
212.5232546920833
 51
315.6305018826033
  0
ARC
  5
139
100
AcDbEntity
  8
Bıçak2
  6
ByLayer
 62
  256
370
   -1
100
AcDbCircle
 10
168.9283337493704
 20
-3.064019700807697
 40
3.652208234930806
100
AcDbArc
 50
48.84747390766382
 51
119.3062826670357
  0
ARC
  5
13A
100
AcDbEntity
  8
Bıçak2
  6
ByLayer
 62
  256
370
   -1
100
AcDbCircle
 10
101.5192238389159
 20
-246.7462786383978
 40
255.4862831773399
100
AcDbArc
 50
75.12509585136739
 51
101.1558688498904
  0
LINE
  5
13B
100
AcDbEntity
  8
Bıçak2
  6
ByLayer
 62
  256
370
   -1
100
AcDbLine
 10
181.1718199810441
 20
-0.4210089681227734
 11
171.3317270874514
 21
-0.3140514366706816
  0
LINE
  5
13C
100
AcDbEntity
  8
Bıçak2
  6
ByLayer
 62
  256
370
   -1
100
AcDbLine
 10
181.1718199810441
 20
-8.317360222831034
 11
171.2208153120175
 21
-8.397826567863614
  0
LINE
  5
13D
100
AcDbEntity
  8
Bıçak2
  6
ByLayer
 62
  256
370
   -1
100
AcDbLine
 10
164.3967374417226
 20
2.70587839032652
 11
148.336862482346
 21
4.413729331870313
  0
LINE
  5
13E
100
AcDbEntity
  8
Bıçak2
  6
ByLayer
 62
  256
370
   -1
100
AcDbLine
 10
164.5350819503494
 20
5.105503679691042
 11
148.336862482346
 21
4.413729331870313
  0
ELLIPSE
  5
13F
100
AcDbEntity
  8
Bıçak2
  6
ByLayer
 62
  256
370
   -1
100
AcDbEllipse
 10
164.6292708951801
 20
3.900545427566041
 30
0
 11
1.632905581573901
 21
-7.224039075270916e-16
 31
0
 40
0.7391534727284973
 41
4.569497266687334
 42
7.911694148189602
  0
ELLIPSE
  5
140
100
AcDbEntity
  8
Bıçak2
  6
ByLayer
 62
  256
370
   -1
100
AcDbEllipse
 10
35.14013709494228
 20
-0.7685481934282735
 30
0
 11
-2.177074760132532
 21
0.5303130825963871
 31
0
 40
0.612395591599082
 41
0
 42
6.283185307179586
  0
LINE
  5
141
100
AcDbEntity
  8
Bıçak2
  6
ByLayer
 62
  256
370
   -1
100
AcDbLine
 10
79.96467021476573
 20
3.455797595595397
 11
92.33351790273326
 21
3.19651207461174
  0
LINE
  5
142
100
AcDbEntity
  8
Bıçak2
  6
ByLayer
 62
  256
370
   -1
100
AcDbLine
 10
79.52309606019767
 20
1.240271309643174
 11
92.15499975015348
 21
0.4773018214197269
  0
ELLIPSE
  5
143
100
AcDbEntity
  8
Bıçak2
  6
ByLayer
 62
  256
370
   -1
100
AcDbEllipse
 10
79.85024096808021
 20
2.343715833401341
 30
0
 11
2.466495048799095
 21
-1.410330185969144e-15
 31
0
 40
0.4513613334186545
 41
1.524386490695548
 42
4.579361631693393
  0
LINE
  5
144
100
AcDbEntity
  8
Bıçak2
  6
ByLayer
 62
  256
370
   -1
100
AcDbLine
 10
81.37182937051728
 20
1.980672673265337
 11
94.01131821617074
 21
1.715713759307613
  0
ARC
  5
145
100
AcDbEntity
  8
Bıçak2
  6
ByLayer
 62
  256
370
   -1
100
AcDbCircle
 10
81.3400239356277
 20
1.175262876467429
 40
0.8060375465602244
100
AcDbArc
 50
89.8596145320808
 51
179.7192290641612
  0
ELLIPSE
  5
146
100
AcDbEntity
  8
Bıçak2
  6
ByLayer
 62
  256
370
   -1
100
AcDbEllipse
 10
124.8946952294347
 20
-0.419345027454695
 30
0
 11
1.72743036900176
 21
-7.516773661842002e-16
 31
0
 40
0.8562742270345587
 41
0
 42
6.283185307179586
  0
LINE
  5
147
100
AcDbEntity
  8
Bıçak2
  6
ByLayer
 62
  256
370
   -1
100
AcDbLine
 10
146.3051295497919
 20
0.1512749978869319
 11
133.6873108391004
 21
0.400481397889858
  0
LINE
  5
148
100
AcDbEntity
  8
Bıçak2
  6
ByLayer
 62
  256
370
   -1
100
AcDbLine
 10
146.0667878812827
 20
-3.541928950806166
 11
133.5066094810575
 21
-2.764837783965709
  0
ELLIPSE
  5
149
100
AcDbEntity
  8
Bıçak2
  6
ByLayer
 62
  256
370
   -1
100
AcDbEllipse
 10
146.2473370358679
 20
-1.697830067199689
 30
0
 11
2.326821849555568
 21
-4.886499191392168e-16
 31
0
 40
0.7949365305857696
 41
4.634716155240582
 42
7.829141546776548
  0
ELLIPSE
  5
14A
100
AcDbEntity
  8
Bıçak2
  6
ByLayer
 62
  256
370
   -1
100
AcDbEllipse
 10
133.6435051679432
 20
-1.184076514250585
 30
0
 11
1.875211702691822
 21
-1.324027693039298e-15
 31
0
 40
0.8452328020417963
 41
1.497728536788585
 42
4.639321190378379
  0
LINE
  5
14B
100
AcDbEntity
  8
Bıçak2
  6
ByLayer
 62
  256
370
   -1
100
AcDbLine
 10
133.2792689797676
 20
-2.649673378503269
 11
146.6381053219054
 21
-2.721394304412492
  0
ARC
  5
14C
100
AcDbEntity
  8
Bıçak2
  6
ByLayer
 62
  256
370
   -1
100
AcDbCircle
 10
133.2824778148278
 20
-2.05199143454848
 40
0.5976905576901531
100
AcDbArc
 50
90
 51
269.6923933514437
  0
ELLIPSE
  5
14D
100
AcDbEntity
  8
Bıçak2
  6
ByLayer
 62
  256
370
   -1
100
AcDbEllipse
 10
146.6504601941937
 20
-1.665551111651822
 30
0
 11
1.947121945808063
 21
0.100434120938204
 31
0
 40
0.5415554660029603
 41
4.70446307373505
 42
6.092284258601505
  0
LINE
  5
14E
100
AcDbEntity
  8
Bıçak2
  6
ByLayer
 62
  256
370
   -1
100
AcDbLine
 10
133.2446372659365
 20
-1.45549994625081
 11
148.0383169110668
 21
-0.5170105145044935
  0
LINE
  5
14F
100
AcDbEntity
  8
Bıçak2
  6
ByLayer
 62
  256
370
   -1
100
AcDbLine
 10
181.1718199810441
 20
-8.441008968122738
 11
181.1718199810441
 21
7.598991031877295
  0
LINE
  5
150
100
AcDbEntity
  8
Bıçak2
  6
ByLayer
 62
  256
370
   -1
100
AcDbLine
 10
181.1718199810441
 20
7.598991031877295
 11
183.1718199810441
 21
9.598991031877247
  0
LINE
  5
151
100
AcDbEntity
  8
Bıçak2
  6
ByLayer
 62
  256
370
   -1
100
AcDbLine
 10
181.1718199810441
 20
-8.441008968122738
 11
183.1718199810441
 21
-10.44100896812277
  0
ARC
  5
152
100
AcDbEntity
  8
Bıçak2
  6
ByLayer
 62
  256
370
   -1
100
AcDbCircle
 10
200.5382376736014
 20
32.73709181329127
 40
28.88075605208165
100
AcDbArc
 50
244.7147469247919
 51
286.4979781141678
  0
ARC
  5
153
100
AcDbEntity
  8
Bıçak2
  6
ByLayer
 62
  256
370
   -1
100
AcDbCircle
 10
200.5382376736014
 20
-33.34610943486312
 40
28.88075605208165
100
AcDbArc
 50
73.50202188583199
 51
115.2852530752081
  0
ARC
  5
154
100
AcDbEntity
  8
Bıçak2
  6
ByLayer
 62
  256
370
   -1
100
AcDbCircle
 10
210.1597459085731
 20
-0.8602323504278245
 40
5
100
AcDbArc
 50
253.5020218858321
 51
268.5424759317789
  0
ARC
  5
155
100
AcDbEntity
  8
Bıçak2
  6
ByLayer
 62
  256
370
   -1
100
AcDbCircle
 10
219.5748010238857
 20
6.15050583179516
 40
1.893090983588013
100
AcDbArc
 50
213.1226614170864
 51
318.2885176183834
  0
ARC
  5
156
100
AcDbEntity
  8
Bıçak2
  6
ByLayer
 62
  256
370
   -1
100
AcDbCircle
 10
219.5748010238858
 20
-6.75952345336704
 40
1.893090983588013
100
AcDbArc
 50
41.71148238161644
 51
146.8773385829136
  0
ARC
  5
157
100
AcDbEntity
  8
Bıçak2
  6
ByLayer
 62
  256
370
   -1
100
AcDbCircle
 10
219.4886674596302
 20
10.02666770013116
 40
1.499335167949951
100
AcDbArc
 50
179.9998904588487
 51
360
  0
ARC
  5
158
100
AcDbEntity
  8
Bıçak2
  6
ByLayer
 62
  256
370
   -1
100
AcDbCircle
 10
219.4886674596301
 20
-10.635685321703
 40
1.499335167949951
100
AcDbArc
 50
360
 51
180.0001095411513
  0
LINE
  5
159
100
AcDbEntity
  8
Bıçak2
  6
ByLayer
 62
  256
370
   -1
100
AcDbLine
 10
280.8965451124704
 20
5.703668220266717
 11
280.8965451124704
 21
10.02666770013116
  0
ARC
  5
15A
100
AcDbEntity
  8
Bıçak2
  6
ByLayer
 62
  256
370
   -1
100
AcDbCircle
 10
278.8440212871005
 20
6.784418090232925
 40
2.319671169614845
100
AcDbArc
 50
212.9075395576128
 51
332.2310952028089
  0
ARC
  5
15B
100
AcDbEntity
  8
Bıçak2
  6
ByLayer
 62
  256
370
   -1
100
AcDbCircle
 10
280.4019321503701
 20
-27.93370505400507
 40
33.64100953858192
100
AcDbArc
 50
83.66749995286146
 51
89.15756819672082
  0
LINE
  5
15C
100
AcDbEntity
  8
Bıçak2
  6
ByLayer
 62
  256
370
   -1
100
AcDbLine
 10
280.8965451124704
 20
10.02666770013116
 11
284.1124716078516
 21
10.02666770013113
  0
ARC
  5
15D
100
AcDbEntity
  8
Bıçak2
  6
ByLayer
 62
  256
370
   -1
100
AcDbCircle
 10
278.8965451124705
 20
10.02666770013112
 40
2
100
AcDbArc
 50
180
 51
1.017777498068325e-13
  0
ARC
  5
15E
100
AcDbEntity
  8
Bıçak2
  6
ByLayer
 62
  256
370
   -1
100
AcDbCircle
 10
278.8965451124704
 20
-10.63568532170315
 40
2
100
AcDbArc
 50
359.9999999999999
 51
180
  0
LINE
  5
15F
100
AcDbEntity
  8
Bıçak2
  6
ByLayer
 62
  256
370
   -1
100
AcDbLine
 10
289.1124716078517
 20
-0.3045088107859781
 11
296.167572291996
 21
-0.3045088107860145
  0
LINE
  5
160
100
AcDbEntity
  8
Bıçak2
  6
ByLayer
 62
  256
370
   -1
100
AcDbLine
 10
296.167572291996
 20
-0.3045088107860145
 11
289.1124716078516
 21
3.938970786424679
  0
LINE
  5
161
100
AcDbEntity
  8
Bıçak2
  6
ByLayer
 62
  256
370
   -1
100
AcDbLine
 10
296.167572291996
 20
-0.3045088107860145
 11
289.1124716078515
 21
-4.547988407996663
  0
LINE
  5
162
100
AcDbEntity
  8
Bıçak2
  6
ByLayer
 62
  256
370
   -1
100
AcDbLine
 10
280.8965451124704
 20
-10.63568532170313
 11
284.1124716078516
 21
-10.63568532170306
  0
CIRCLE
  5
163
100
AcDbEntity
  8
Bıçak2
  6
ByLayer
 62
  256
370
   -1
100
AcDbCircle
 10
274.3513822730971
 20
-0.3568658255403745
 40
4.311960348336438
  0
LINE
  5
164
100
AcDbEntity
  8
Bıçak2
  6
ByLayer
 62
  256
370
   -1
100
AcDbLine
 10
280.8965451124704
 20
-6.164063334328378
 11
280.8965451124704
 21
-10.63568532170313
  0
ARC
  5
165
100
AcDbEntity
  8
Bıçak2
  6
ByLayer
 62
  256
370
   -1
100
AcDbCircle
 10
281.6927824829248
 20
27.46752195130548
 40
33.64100953858192
100
AcDbArc
 50
268.6437594459557
 51
274.1246619920838
  0
ARC
  5
166
100
AcDbEntity
  8
Bıçak2
  6
ByLayer
 62
  256
370
   -1
100
AcDbCircle
 10
278.8440212871005
 20
-7.393435711804917
 40
2.319671169614845
100
AcDbArc
 50
27.76890479719112
 51
147.0924604423872
  0
CIRCLE
  5
167
100
AcDbEntity
  8
Bıçak2
  6
ByLayer
 62
  256
370
   -1
100
AcDbCircle
 10
274.3513822730971
 20
-0.3568658255403745
 40
3.311960348336438
  0
LINE
  5
168
100
AcDbEntity
  8
Bıçak2
  6
ByLayer
 62
  256
370
   -1
100
AcDbLine
 10
183.1718199810441
 20
10.98742232352783
 11
183.6718199810441
 21
11.48742232352794
  0
LINE
  5
169
100
AcDbEntity
  8
Bıçak2
  6
ByLayer
 62
  256
370
   -1
100
AcDbLine
 10
183.6718199810441
 20
11.48742232352794
 11
187.6718199810441
 21
11.48742232352784
  0
LINE
  5
16A
100
AcDbEntity
  8
Bıçak2
  6
ByLayer
 62
  256
370
   -1
100
AcDbLine
 10
187.6718199810441
 20
11.48742232352784
 11
188.1718199810441
 21
10.98742232352791
  0
LINE
  5
16B
100
AcDbEntity
  8
Bıçak2
  6
ByLayer
 62
  256
370
   -1
100
AcDbLine
 10
188.1718199810441
 20
10.98742232352791
 11
188.1718199810441
 21
-11.59643994509971
  0
LINE
  5
16C
100
AcDbEntity
  8
Bıçak2
  6
ByLayer
 62
  256
370
   -1
100
AcDbLine
 10
188.1718199810441
 20
-11.59643994509971
 11
187.6718199810441
 21
-12.09643994509969
  0
LINE
  5
16D
100
AcDbEntity
  8
Bıçak2
  6
ByLayer
 62
  256
370
   -1
100
AcDbLine
 10
183.671819981044
 20
-12.09643994509969
 11
187.6718199810441
 21
-12.09643994509969
  0
LINE
  5
16E
100
AcDbEntity
  8
Bıçak2
  6
ByLayer
 62
  256
370
   -1
100
AcDbLine
 10
183.1718199810441
 20
10.98742232352783
 11
183.1718199810439
 21
-11.59643994509966
  0
LINE
  5
16F
100
AcDbEntity
  8
Bıçak2
  6
ByLayer
 62
  256
370
   -1
100
AcDbLine
 10
183.671819981044
 20
-12.09643994509969
 11
183.1718199810439
 21
-11.59643994509966
  0
LINE
  5
170
100
AcDbEntity
  8
Bıçak2
  6
ByLayer
 62
  256
370
   -1
100
AcDbLine
 10
284.6124716078515
 20
11.48742232352784
 11
284.1124716078517
 21
10.9874223235278
  0
LINE
  5
171
100
AcDbEntity
  8
Bıçak2
  6
ByLayer
 62
  256
370
   -1
100
AcDbLine
 10
284.6124716078515
 20
11.48742232352784
 11
288.6124716078516
 21
11.48742232352783
  0
LINE
  5
172
100
AcDbEntity
  8
Bıçak2
  6
ByLayer
 62
  256
370
   -1
100
AcDbLine
 10
288.6124716078516
 20
11.48742232352783
 11
289.1124716078515
 21
10.98742232352781
  0
LINE
  5
173
100
AcDbEntity
  8
Bıçak2
  6
ByLayer
 62
  256
370
   -1
100
AcDbLine
 10
289.1124716078516
 20
-11.59643994509979
 11
289.1124716078515
 21
10.98742232352781
  0
LINE
  5
174
100
AcDbEntity
  8
Bıçak2
  6
ByLayer
 62
  256
370
   -1
100
AcDbLine
 10
289.1124716078516
 20
-11.59643994509979
 11
288.6124716078515
 21
-12.09643994509976
  0
LINE
  5
175
100
AcDbEntity
  8
Bıçak2
  6
ByLayer
 62
  256
370
   -1
100
AcDbLine
 10
284.6124716078515
 20
-12.09643994509975
 11
288.6124716078515
 21
-12.09643994509976
  0
LINE
  5
176
100
AcDbEntity
  8
Bıçak2
  6
ByLayer
 62
  256
370
   -1
100
AcDbLine
 10
284.1124716078515
 20
-11.59643994509973
 11
284.1124716078517
 21
10.9874223235278
  0
LINE
  5
177
100
AcDbEntity
  8
Bıçak2
  6
ByLayer
 62
  256
370
   -1
100
AcDbLine
 10
284.6124716078515
 20
-12.09643994509975
 11
284.1124716078515
 21
-11.59643994509973
  0
LINE
  5
178
100
AcDbEntity
  8
Bıçak2
  6
ByLayer
 62
  256
370
   -1
100
AcDbLine
 10
284.1124716078516
 20
2.097283669932757
 11
289.1124716078515
 21
2.097283669932855
  0
LINE
  5
179
100
AcDbEntity
  8
Bıçak2
  6
ByLayer
 62
  256
370
   -1
100
AcDbLine
 10
284.1124716078516
 20
-3.338292480296645
 11
289.1124716078515
 21
-3.338292480296672
  0
CIRCLE
  5
17A
100
AcDbEntity
  8
Bıçak2
  6
ByLayer
 62
  256
370
   -1
100
AcDbCircle
 10
274.3513822730971
 20
-0.3568658255403745
 40
1.849568278669151
  0
LINE
  5
17B
100
AcDbEntity
  8
Bıçak2
  6
ByLayer
 62
  256
370
   -1
100
AcDbLine
 10
275.4664827857688
 20
-0.3607727135238932
 11
275.9531553884583
 21
-1.281649964875003
  0
LINE
  5
17C
100
AcDbEntity
  8
Bıçak2
  6
ByLayer
 62
  256
370
   -1
100
AcDbLine
 10
273.7609328271799
 20
0.5530522229696195
 11
274.351382273097
 21
1.492702453128695
  0
LINE
  5
17D
100
AcDbEntity
  8
Bıçak2
  6
ByLayer
 62
  256
370
   -1
100
AcDbLine
 10
272.7496091577357
 20
0.5679183137941366
 11
273.7609328271799
 21
0.5530522229696195
  0
LINE
  5
17E
100
AcDbEntity
  8
Bıçak2
  6
ByLayer
 62
  256
370
   -1
100
AcDbLine
 10
274.8441696955102
 20
0.6094374185291757
 11
275.9531553884584
 21
0.5679183137941624
  0
LINE
  5
17F
100
AcDbEntity
  8
Bıçak2
  6
ByLayer
 62
  256
370
   -1
100
AcDbLine
 10
274.351382273097
 20
1.492702453128695
 11
274.8441696955102
 21
0.6094374185291757
  0
LINE
  5
180
100
AcDbEntity
  8
Bıçak2
  6
ByLayer
 62
  256
370
   -1
100
AcDbLine
 10
275.434619141427
 20
-0.3004806299808488
 11
275.9531553884583
 21
-1.281649964875003
  0
LINE
  5
181
100
AcDbEntity
  8
Bıçak2
  6
ByLayer
 62
  256
370
   -1
100
AcDbLine
 10
275.9531553884584
 20
0.5679183137941624
 11
275.434619141427
 21
-0.3004806299808488
  0
LINE
  5
182
100
AcDbEntity
  8
Bıçak2
  6
ByLayer
 62
  256
370
   -1
100
AcDbLine
 10
273.8585948506839
 20
-1.323169069609981
 11
272.7496091577357
 21
-1.281649964875024
  0
LINE
  5
183
100
AcDbEntity
  8
Bıçak2
  6
ByLayer
 62
  256
370
   -1
100
AcDbLine
 10
274.351382273097
 20
-2.206434104209468
 11
273.8585948506839
 21
-1.323169069609981
  0
LINE
  5
184
100
AcDbEntity
  8
Bıçak2
  6
ByLayer
 62
  256
370
   -1
100
AcDbLine
 10
273.2681454047669
 20
-0.4132510210998914
 11
272.7496091577357
 21
0.5679183137941366
  0
LINE
  5
185
100
AcDbEntity
  8
Bıçak2
  6
ByLayer
 62
  256
370
   -1
100
AcDbLine
 10
272.7496091577357
 20
-1.281649964875024
 11
273.2681454047669
 21
-0.4132510210998914
  0
LINE
  5
186
100
AcDbEntity
  8
Bıçak2
  6
ByLayer
 62
  256
370
   -1
100
AcDbLine
 10
275.9531553884583
 20
-1.281649964875003
 11
274.941831719014
 21
-1.266783874050397
  0
LINE
  5
187
100
AcDbEntity
  8
Bıçak2
  6
ByLayer
 62
  256
370
   -1
100
AcDbLine
 10
274.941831719014
 20
-1.266783874050397
 11
274.351382273097
 21
-2.206434104209468
  0
ARC
  5
188
100
AcDbEntity
  8
Bıçak2
  6
ByLayer
 62
  256
370
   -1
100
AcDbCircle
 10
199.5516740643873
 20
42.45611146719698
 40
34.08104946409905
100
AcDbArc
 50
250.4939967615684
 51
287.9103468573896
  0
ARC
  5
189
100
AcDbEntity
  8
Bıçak2
  6
ByLayer
 62
  256
370
   -1
100
AcDbCircle
 10
199.5516740643873
 20
-43.06512908876886
 40
34.08104946409905
100
AcDbArc
 50
72.08965314261029
 51
109.5060032384315
  0
LINE
  5
18A
100
AcDbEntity
  8
Bıçak2
  6
ByLayer
 62
  256
370
   -1
100
AcDbLine
 10
249.7018047750622
 20
6.603653125527494
 11
249.7018047750622
 21
10.02666770013112
  0
LINE
  5
18B
100
AcDbEntity
  8
Bıçak2
  6
ByLayer
 62
  256
370
   -1
100
AcDbLine
 10
251.2018047750622
 20
6.603653125527527
 11
251.2018047750622
 21
10.02666770013121
  0
ARC
  5
18C
100
AcDbEntity
  8
Bıçak2
  6
ByLayer
 62
  256
370
   -1
100
AcDbCircle
 10
250.4518047750622
 20
6.60365312552748
 40
0.75
100
AcDbArc
 50
179.9997159880883
 51
0.000125014883530938
  0
ARC
  5
18D
100
AcDbEntity
  8
Bıçak2
  6
ByLayer
 62
  256
370
   -1
100
AcDbCircle
 10
250.4518047750622
 20
10.02666770013116
 40
0.75
100
AcDbArc
 50
180
 51
360
  0
ARC
  5
18E
100
AcDbEntity
  8
Bıçak2
  6
ByLayer
 62
  256
370
   -1
100
AcDbCircle
 10
252.9518047750622
 20
7.103653125527496
 40
0.75
100
AcDbArc
 50
179.9997159880883
 51
0.000125014883530938
  0
ARC
  5
18F
100
AcDbEntity
  8
Bıçak2
  6
ByLayer
 62
  256
370
   -1
100
AcDbCircle
 10
255.4518047750623
 20
7.603653125527571
 40
0.75
100
AcDbArc
 50
179.9997159880883
 51
0.000125014883530938
  0
ARC
  5
190
100
AcDbEntity
  8
Bıçak2
  6
ByLayer
 62
  256
370
   -1
100
AcDbCircle
 10
257.9518047750621
 20
8.103653125527494
 40
0.75
100
AcDbArc
 50
179.9997159880883
 51
0.000125014883530938
  0
ARC
  5
191
100
AcDbEntity
  8
Bıçak2
  6
ByLayer
 62
  256
370
   -1
100
AcDbCircle
 10
260.4518047750621
 20
8.60365312552751
 40
0.75
100
AcDbArc
 50
179.9997159880883
 51
0.000125014883530938
  0
ARC
  5
192
100
AcDbEntity
  8
Bıçak2
  6
ByLayer
 62
  256
370
   -1
100
AcDbCircle
 10
262.9518047750622
 20
9.10365312552746
 40
0.75
100
AcDbArc
 50
179.9997159880883
 51
0.000125014883530938
  0
ARC
  5
193
100
AcDbEntity
  8
Bıçak2
  6
ByLayer
 62
  256
370
   -1
100
AcDbCircle
 10
265.4518047750622
 20
9.603653125527442
 40
0.75
100
AcDbArc
 50
179.9997159880883
 51
0.000125014883530938
  0
ARC
  5
194
100
AcDbEntity
  8
Bıçak2
  6
ByLayer
 62
  256
370
   -1
100
AcDbCircle
 10
252.9518047750622
 20
10.02666770013115
 40
0.75
100
AcDbArc
 50
180
 51
360
  0
ARC
  5
195
100
AcDbEntity
  8
Bıçak2
  6
ByLayer
 62
  256
370
   -1
100
AcDbCircle
 10
255.4518047750622
 20
10.0266677001311
 40
0.75
100
AcDbArc
 50
180
 51
360
  0
ARC
  5
196
100
AcDbEntity
  8
Bıçak2
  6
ByLayer
 62
  256
370
   -1
100
AcDbCircle
 10
257.9518047750622
 20
10.02666770013112
 40
0.75
100
AcDbArc
 50
180
 51
360
  0
ARC
  5
197
100
AcDbEntity
  8
Bıçak2
  6
ByLayer
 62
  256
370
   -1
100
AcDbCircle
 10
260.4518047750621
 20
10.02666312489955
 40
0.75
100
AcDbArc
 50
180
 51
360
  0
ARC
  5
198
100
AcDbEntity
  8
Bıçak2
  6
ByLayer
 62
  256
370
   -1
100
AcDbCircle
 10
265.4518047750621
 20
10.0266677001312
 40
0.75
100
AcDbArc
 50
180
 51
360
  0
LINE
  5
199
100
AcDbEntity
  8
Bıçak2
  6
ByLayer
 62
  256
370
   -1
100
AcDbLine
 10
252.2018047750622
 20
7.103653125527546
 11
252.2018047750623
 21
10.0266677001312
  0
LINE
  5
19A
100
AcDbEntity
  8
Bıçak2
  6
ByLayer
 62
  256
370
   -1
100
AcDbLine
 10
253.7018047750622
 20
7.103653125527509
 11
253.7018047750622
 21
10.02666770013119
  0
LINE
  5
19B
100
AcDbEntity
  8
Bıçak2
  6
ByLayer
 62
  256
370
   -1
100
AcDbLine
 10
254.7018047750623
 20
7.603653125527529
 11
254.7018047750622
 21
10.02666770013121
  0
LINE
  5
19C
100
AcDbEntity
  8
Bıçak2
  6
ByLayer
 62
  256
370
   -1
100
AcDbLine
 10
256.2018047750622
 20
7.603653125527525
 11
256.2018047750622
 21
10.02666770013115
  0
LINE
  5
19D
100
AcDbEntity
  8
Bıçak2
  6
ByLayer
 62
  256
370
   -1
100
AcDbLine
 10
257.2018047750622
 20
8.103653125527545
 11
257.2018047750622
 21
10.02666770013117
  0
LINE
  5
19E
100
AcDbEntity
  8
Bıçak2
  6
ByLayer
 62
  256
370
   -1
100
AcDbLine
 10
258.7018047750621
 20
8.10365312552754
 11
258.7018047750621
 21
10.02666770013117
  0
LINE
  5
19F
100
AcDbEntity
  8
Bıçak2
  6
ByLayer
 62
  256
370
   -1
100
AcDbLine
 10
259.7018047750621
 20
8.603653125527467
 11
259.701804775062
 21
10.02666770013115
  0
LINE
  5
1A0
100
AcDbEntity
  8
Bıçak2
  6
ByLayer
 62
  256
370
   -1
100
AcDbLine
 10
261.201804775062
 20
8.603653125527556
 11
261.2018047750621
 21
10.02666770013115
  0
LINE
  5
1A1
100
AcDbEntity
  8
Bıçak2
  6
ByLayer
 62
  256
370
   -1
100
AcDbLine
 10
262.2018047750622
 20
9.103653125527575
 11
262.2018047750621
 21
10.02666770013123
  0
LINE
  5
1A2
100
AcDbEntity
  8
Bıçak2
  6
ByLayer
 62
  256
370
   -1
100
AcDbLine
 10
263.701804775062
 20
9.103653125527515
 11
263.7018047750621
 21
10.02666770013114
  0
LINE
  5
1A3
100
AcDbEntity
  8
Bıçak2
  6
ByLayer
 62
  256
370
   -1
100
AcDbLine
 10
264.7018047750622
 20
9.603653125527559
 11
264.7018047750622
 21
10.02666770013118
  0
LINE
  5
1A4
100
AcDbEntity
  8
Bıçak2
  6
ByLayer
 62
  256
370
   -1
100
AcDbLine
 10
266.201804775062
 20
9.603653125527499
 11
266.2018047750621
 21
10.02666770013109
  0
LINE
  5
1A5
100
AcDbEntity
  8
Bıçak2
  6
ByLayer
 62
  256
370
   -1
100
AcDbLine
 10
251.2018047750622
 20
10.02666770013117
 11
252.2018047750623
 21
10.0266677001312
  0
LINE
  5
1A6
100
AcDbEntity
  8
Bıçak2
  6
ByLayer
 62
  256
370
   -1
100
AcDbLine
 10
253.7018047750709
 20
10.02666770013115
 11
254.7018047750594
 21
10.02666770013112
  0
LINE
  5
1A7
100
AcDbEntity
  8
Bıçak2
  6
ByLayer
 62
  256
370
   -1
100
AcDbLine
 10
256.2018047750622
 20
10.02666770013115
 11
257.2018047750621
 21
10.02666770013116
  0
LINE
  5
1A8
100
AcDbEntity
  8
Bıçak2
  6
ByLayer
 62
  256
370
   -1
100
AcDbLine
 10
258.7018047750679
 20
10.02666770013113
 11
259.701804775062
 21
10.02666770013115
  0
ARC
  5
1A9
100
AcDbEntity
  8
Bıçak2
  6
ByLayer
 62
  256
370
   -1
100
AcDbCircle
 10
262.9518047750621
 20
10.02666770013111
 40
0.75
100
AcDbArc
 50
180
 51
360
  0
LINE
  5
1AA
100
AcDbEntity
  8
Bıçak2
  6
ByLayer
 62
  256
370
   -1
100
AcDbLine
 10
263.7018047750621
 20
10.02666770013114
 11
264.7018047750622
 21
10.02666770013118
  0
LINE
  5
1AB
100
AcDbEntity
  8
Bıçak2
  6
ByLayer
 62
  256
370
   -1
100
AcDbLine
 10
261.2018047750621
 20
10.02666770013115
 11
262.2018047750621
 21
10.02666770013123
  0
LINE
  5
1AC
100
AcDbEntity
  8
Bıçak2
  6
ByLayer
 62
  256
370
   -1
100
AcDbLine
 10
249.7018047750622
 20
-7.212670747099434
 11
249.7018047750622
 21
-10.63568532170305
  0
LINE
  5
1AD
100
AcDbEntity
  8
Bıçak2
  6
ByLayer
 62
  256
370
   -1
100
AcDbLine
 10
251.2018047750623
 20
-7.212670747099411
 11
251.2018047750622
 21
-10.63568532170302
  0
ARC
  5
1AE
100
AcDbEntity
  8
Bıçak2
  6
ByLayer
 62
  256
370
   -1
100
AcDbCircle
 10
250.4518047750622
 20
-7.212670747099392
 40
0.75
100
AcDbArc
 50
359.9998749851165
 51
180.0002840119117
  0
ARC
  5
1AF
100
AcDbEntity
  8
Bıçak2
  6
ByLayer
 62
  256
370
   -1
100
AcDbCircle
 10
250.4518047750622
 20
-10.63568532170314
 40
0.75
100
AcDbArc
 50
360
 51
180
  0
ARC
  5
1B0
100
AcDbEntity
  8
Bıçak2
  6
ByLayer
 62
  256
370
   -1
100
AcDbCircle
 10
252.9518047750622
 20
-7.712670747099403
 40
0.75
100
AcDbArc
 50
359.9998749851165
 51
180.0002840119117
  0
ARC
  5
1B1
100
AcDbEntity
  8
Bıçak2
  6
ByLayer
 62
  256
370
   -1
100
AcDbCircle
 10
255.4518047750622
 20
-8.212670747099388
 40
0.75
100
AcDbArc
 50
359.9998749851165
 51
180.0002840119117
  0
ARC
  5
1B2
100
AcDbEntity
  8
Bıçak2
  6
ByLayer
 62
  256
370
   -1
100
AcDbCircle
 10
257.9518047750622
 20
-8.712670747099432
 40
0.75
100
AcDbArc
 50
359.9998749851165
 51
180.0002840119117
  0
ARC
  5
1B3
100
AcDbEntity
  8
Bıçak2
  6
ByLayer
 62
  256
370
   -1
100
AcDbCircle
 10
260.4518047750622
 20
-9.212670747099475
 40
0.75
100
AcDbArc
 50
359.9998749851165
 51
180.0002840119117
  0
ARC
  5
1B4
100
AcDbEntity
  8
Bıçak2
  6
ByLayer
 62
  256
370
   -1
100
AcDbCircle
 10
262.9518047750622
 20
-9.712670747099461
 40
0.75
100
AcDbArc
 50
359.9998749851165
 51
180.0002840119117
  0
ARC
  5
1B5
100
AcDbEntity
  8
Bıçak2
  6
ByLayer
 62
  256
370
   -1
100
AcDbCircle
 10
265.4518047750621
 20
-10.21267074709947
 40
0.75
100
AcDbArc
 50
359.9998749851165
 51
180.0002840119117
  0
ARC
  5
1B6
100
AcDbEntity
  8
Bıçak2
  6
ByLayer
 62
  256
370
   -1
100
AcDbCircle
 10
252.9518047750622
 20
-10.63568532170305
 40
0.75
100
AcDbArc
 50
360
 51
180
  0
ARC
  5
1B7
100
AcDbEntity
  8
Bıçak2
  6
ByLayer
 62
  256
370
   -1
100
AcDbCircle
 10
255.4518047750622
 20
-10.63568532170306
 40
0.75
100
AcDbArc
 50
360
 51
180
  0
ARC
  5
1B8
100
AcDbEntity
  8
Bıçak2
  6
ByLayer
 62
  256
370
   -1
100
AcDbCircle
 10
257.9518047750621
 20
-10.63568532170302
 40
0.75
100
AcDbArc
 50
360
 51
180
  0
ARC
  5
1B9
100
AcDbEntity
  8
Bıçak2
  6
ByLayer
 62
  256
370
   -1
100
AcDbCircle
 10
260.4518047750621
 20
-10.63568074647135
 40
0.75
100
AcDbArc
 50
360
 51
180
  0
ARC
  5
1BA
100
AcDbEntity
  8
Bıçak2
  6
ByLayer
 62
  256
370
   -1
100
AcDbCircle
 10
265.4518047750621
 20
-10.6356853217031
 40
0.75
100
AcDbArc
 50
360
 51
180
  0
LINE
  5
1BB
100
AcDbEntity
  8
Bıçak2
  6
ByLayer
 62
  256
370
   -1
100
AcDbLine
 10
252.2018047750622
 20
-7.712670747099422
 11
252.2018047750622
 21
-10.63568532170307
  0
LINE
  5
1BC
100
AcDbEntity
  8
Bıçak2
  6
ByLayer
 62
  256
370
   -1
100
AcDbLine
 10
253.7018047750622
 20
-7.712670747099421
 11
253.7018047750622
 21
-10.63568532170307
  0
LINE
  5
1BD
100
AcDbEntity
  8
Bıçak2
  6
ByLayer
 62
  256
370
   -1
100
AcDbLine
 10
254.7018047750622
 20
-8.21267074709943
 11
254.7018047750622
 21
-10.63568532170308
  0
LINE
  5
1BE
100
AcDbEntity
  8
Bıçak2
  6
ByLayer
 62
  256
370
   -1
100
AcDbLine
 10
256.2018047750622
 20
-8.21267074709943
 11
256.2018047750622
 21
-10.63568532170308
  0
LINE
  5
1BF
100
AcDbEntity
  8
Bıçak2
  6
ByLayer
 62
  256
370
   -1
100
AcDbLine
 10
257.2018047750622
 20
-8.712670747099473
 11
257.2018047750622
 21
-10.6356853217031
  0
LINE
  5
1C0
100
AcDbEntity
  8
Bıçak2
  6
ByLayer
 62
  256
370
   -1
100
AcDbLine
 10
258.7018047750622
 20
-8.712670747099384
 11
258.701804775062
 21
-10.6356853217031
  0
LINE
  5
1C1
100
AcDbEntity
  8
Bıçak2
  6
ByLayer
 62
  256
370
   -1
100
AcDbLine
 10
259.7018047750621
 20
-9.212670747099427
 11
259.7018047750621
 21
-10.63568532170308
  0
LINE
  5
1C2
100
AcDbEntity
  8
Bıçak2
  6
ByLayer
 62
  256
370
   -1
100
AcDbLine
 10
261.2018047750622
 20
-9.212670747099427
 11
261.201804775062
 21
-10.63568532170301
  0
LINE
  5
1C3
100
AcDbEntity
  8
Bıçak2
  6
ByLayer
 62
  256
370
   -1
100
AcDbLine
 10
262.201804775062
 20
-9.712670747099438
 11
262.201804775062
 21
-10.63568532170306
  0
LINE
  5
1C4
100
AcDbEntity
  8
Bıçak2
  6
ByLayer
 62
  256
370
   -1
100
AcDbLine
 10
263.7018047750621
 20
-9.712670747099438
 11
263.7018047750621
 21
-10.63568532170306
  0
LINE
  5
1C5
100
AcDbEntity
  8
Bıçak2
  6
ByLayer
 62
  256
370
   -1
100
AcDbLine
 10
264.701804775062
 20
-10.21267074709945
 11
264.7018047750621
 21
-10.63568532170311
  0
LINE
  5
1C6
100
AcDbEntity
  8
Bıçak2
  6
ByLayer
 62
  256
370
   -1
100
AcDbLine
 10
266.2018047750621
 20
-10.21267074709943
 11
266.2018047750621
 21
-10.63568532170305
  0
LINE
  5
1C7
100
AcDbEntity
  8
Bıçak2
  6
ByLayer
 62
  256
370
   -1
100
AcDbLine
 10
251.2018047750622
 20
-10.63568532170302
 11
252.2018047750622
 21
-10.63568532170307
  0
LINE
  5
1C8
100
AcDbEntity
  8
Bıçak2
  6
ByLayer
 62
  256
370
   -1
100
AcDbLine
 10
253.7018047750709
 20
-10.63568532170301
 11
254.7018047750593
 21
-10.63568532170304
  0
LINE
  5
1C9
100
AcDbEntity
  8
Bıçak2
  6
ByLayer
 62
  256
370
   -1
100
AcDbLine
 10
256.2018047750622
 20
-10.63568532170308
 11
257.2018047750621
 21
-10.63568532170306
  0
LINE
  5
1CA
100
AcDbEntity
  8
Bıçak2
  6
ByLayer
 62
  256
370
   -1
100
AcDbLine
 10
258.7018047750678
 20
-10.63568532170304
 11
259.7018047750621
 21
-10.63568532170308
  0
ARC
  5
1CB
100
AcDbEntity
  8
Bıçak2
  6
ByLayer
 62
  256
370
   -1
100
AcDbCircle
 10
262.9518047750621
 20
-10.63568532170308
 40
0.75
100
AcDbArc
 50
360
 51
180
  0
LINE
  5
1CC
100
AcDbEntity
  8
Bıçak2
  6
ByLayer
 62
  256
370
   -1
100
AcDbLine
 10
263.7018047750621
 20
-10.63568532170306
 11
264.7018047750621
 21
-10.63568532170311
  0
LINE
  5
1CD
100
AcDbEntity
  8
Bıçak2
  6
ByLayer
 62
  256
370
   -1
100
AcDbLine
 10
261.201804775062
 20
-10.63568532170301
 11
262.201804775062
 21
-10.63568532170306
  0
LINE
  5
1CE
100
AcDbEntity
  8
Bıçak2
  6
ByLayer
 62
  256
370
   -1
100
AcDbLine
 10
266.2018047750621
 20
10.02666770013109
 11
271.8321241007391
 21
10.02666770013117
  0
LINE
  5
1CF
100
AcDbEntity
  8
Bıçak2
  6
ByLayer
 62
  256
370
   -1
100
AcDbLine
 10
266.2018047750621
 20
-10.63568532170305
 11
271.8321241007392
 21
-10.6356853217031
  0
LINE
  5
1D0
100
AcDbEntity
  8
Bıçak2
  6
ByLayer
 62
  256
370
   -1
100
AcDbLine
 10
236.4772643752465
 20
10.02666639490456
 11
249.7018047750622
 21
10.02666528051817
  0
LINE
  5
1D1
100
AcDbEntity
  8
Bıçak2
  6
ByLayer
 62
  256
370
   -1
100
AcDbLine
 10
236.4772643752465
 20
-10.63568401647641
 11
249.7018047750622
 21
-10.63568290208999
  0
ARC
  5
1D2
100
AcDbEntity
  8
Bıçak2
  6
ByLayer
 62
  256
370
   -1
100
AcDbCircle
 10
210.159745908573
 20
0.2512147288559588
 40
5
100
AcDbArc
 50
91.45752406822071
 51
106.4979781141679
  0
LINE
  5
1D3
100
AcDbEntity
  8
Bıçak2
  6
ByLayer
 62
  256
370
   -1
100
AcDbLine
 10
217.9893322916801
 20
5.116057973592059
 11
217.9893322916801
 21
10.02666770013118
  0
ARC
  5
1D4
100
AcDbEntity
  8
Bıçak2
  6
ByLayer
 62
  256
370
   -1
100
AcDbCircle
 10
212.4304263867431
 20
-88.99077175524187
 40
94.27086950098467
100
AcDbArc
 50
86.61945712360288
 51
91.45752406822081
  0
LINE
  5
1D5
100
AcDbEntity
  8
Bıçak2
  6
ByLayer
 62
  256
370
   -1
100
AcDbLine
 10
210.0325666567708
 20
10.02666770013119
 11
217.9893322916801
 21
10.02666770013118
  0
LINE
  5
1D6
100
AcDbEntity
  8
Bıçak2
  6
ByLayer
 62
  256
370
   -1
100
AcDbLine
 10
210.0325666567705
 20
10.02666770013116
 11
210.0325666567711
 21
5.249597010945923
  0
LINE
  5
1D7
100
AcDbEntity
  8
Bıçak2
  6
ByLayer
 62
  256
370
   -1
100
AcDbLine
 10
217.9893322916801
 20
-5.725075595163969
 11
217.9893322916801
 21
-10.63568532170304
  0
ARC
  5
1D8
100
AcDbEntity
  8
Bıçak2
  6
ByLayer
 62
  256
370
   -1
100
AcDbCircle
 10
212.4304263867431
 20
88.38175413366996
 40
94.27086950098467
100
AcDbArc
 50
268.5424759317792
 51
273.3805428763969
  0
LINE
  5
1D9
100
AcDbEntity
  8
Bıçak2
  6
ByLayer
 62
  256
370
   -1
100
AcDbLine
 10
210.032566656771
 20
-10.63568532170301
 11
217.9893322916855
 21
-10.63568532170301
  0
LINE
  5
1DA
100
AcDbEntity
  8
Bıçak2
  6
ByLayer
 62
  256
370
   -1
100
AcDbLine
 10
210.0325666567711
 20
-5.858614632517807
 11
210.0325666567704
 21
-10.63568532170304
  0
ARC
  5
1DB
100
AcDbEntity
  8
Bıçak2
  6
ByLayer
 62
  256
370
   -1
100
AcDbCircle
 10
250.3416533601224
 20
13.15376600977059
 40
8.673647187205027
100
AcDbArc
 50
245.1008859383895
 51
285.261479636114
  0
ARC
  5
1DC
100
AcDbEntity
  8
Bıçak2
  6
ByLayer
 62
  256
370
   -1
100
AcDbCircle
 10
250.3416533601225
 20
-13.76278363134251
 40
8.673647187205027
100
AcDbArc
 50
74.73852036388587
 51
114.8991140616105
  0
LINE
  5
1DD
100
AcDbEntity
  8
Bıçak2
  6
ByLayer
 62
  256
370
   -1
100
AcDbLine
 10
220.9880026275799
 20
-10.63568719817832
 11
236.4772643752465
 21
-10.6356840164764
  0
LINE
  5
1DE
100
AcDbEntity
  8
Bıçak2
  6
ByLayer
 62
  256
370
   -1
100
AcDbLine
 10
220.98800262758
 20
10.0266677001312
 11
236.4772615632626
 21
10.0266677001312
  0
LINE
  5
1DF
100
AcDbEntity
  8
Bıçak2
  6
ByLayer
 62
  256
370
   -1
100
AcDbLine
 10
220.98800262758
 20
10.0266677001312
 11
220.9880026275801
 21
4.890881006913659
  0
LINE
  5
1E0
100
AcDbEntity
  8
Bıçak2
  6
ByLayer
 62
  256
370
   -1
100
AcDbLine
 10
220.98800262758
 20
-5.499898628485582
 11
220.9880026275799
 21
-10.63568719817832
  0
ARC
  5
1E1
100
AcDbEntity
  8
Bıçak2
  6
ByLayer
 62
  256
370
   -1
100
AcDbCircle
 10
212.4304263867431
 20
-88.99077175524187
 40
94.27086950098467
100
AcDbArc
 50
71.96106740669434
 51
84.79172191187075
  0
ARC
  5
1E2
100
AcDbEntity
  8
Bıçak2
  6
ByLayer
 62
  256
370
   -1
100
AcDbCircle
 10
212.4304263867431
 20
88.38175413366996
 40
94.27086950098467
100
AcDbArc
 50
275.2082780881291
 51
288.0389325933056
  0
ARC
  5
1E3
100
AcDbEntity
  8
Bıçak2
  6
ByLayer
 62
  256
370
   -1
100
AcDbCircle
 10
241.3129792935853
 20
-0.3045088107859705
 40
1
100
AcDbArc
 50
288.038932593303
 51
71.96106740669396
  0
LINE
  5
1E4
100
AcDbEntity
  8
Bıçak2
  6
ByLayer
 62
  256
370
   -1
100
AcDbLine
 10
236.4772615632626
 20
10.0266677001312
 11
246.6898589119204
 21
5.286329779575215
  0
LINE
  5
1E5
100
AcDbEntity
  8
Bıçak2
  6
ByLayer
 62
  256
370
   -1
100
AcDbLine
 10
246.6898589119205
 20
-5.895347401147137
 11
236.4772643752465
 21
-10.6356840164764
  0
ARC
  5
1E6
100
AcDbEntity
  8
Bıçak2
  6
ByLayer
 62
  256
370
   -1
100
AcDbCircle
 10
280.4019321503701
 20
-27.93370505400507
 40
33.64100953858192
100
AcDbArc
 50
95.98106656370179
 51
122.1716696480225
  0
ARC
  5
1E7
100
AcDbEntity
  8
Bıçak2
  6
ByLayer
 62
  256
370
   -1
100
AcDbCircle
 10
280.4019321503701
 20
27.32468743243323
 40
33.64100953858192
100
AcDbArc
 50
237.8283303519777
 51
264.0189334362982
  0
ARC
  5
1E8
100
AcDbEntity
  8
Bıçak2
  6
ByLayer
 62
  256
370
   -1
100
AcDbCircle
 10
263.0219718900163
 20
-0.3045088107860007
 40
1
100
AcDbArc
 50
122.1716696480234
 51
237.8283303519762
  0
LINE
  5
1E9
100
AcDbEntity
  8
Bıçak2
  6
ByLayer
 62
  256
370
   -1
100
AcDbLine
 10
271.8321241007392
 20
10.02666770013122
 11
276.8965451124704
 21
10.02666770013121
  0
LINE
  5
1EA
100
AcDbEntity
  8
Bıçak2
  6
ByLayer
 62
  256
370
   -1
100
AcDbLine
 10
271.8321241007392
 20
-10.6356853217031
 11
276.8965451124704
 21
-10.63568532170312
  0
LINE
  5
1EB
100
AcDbEntity
  8
Bıçak2
  6
ByLayer
 62
  256
370
   -1
100
AcDbLine
 10
252.6247699039191
 20
4.78599842363678
 11
271.8321241007392
 21
10.02666770013122
  0
LINE
  5
1EC
100
AcDbEntity
  8
Bıçak2
  6
ByLayer
 62
  256
370
   -1
100
AcDbLine
 10
252.6247699039191
 20
-5.395016045208706
 11
271.8321241007392
 21
-10.6356853217031
  0
LINE
  5
1ED
100
AcDbEntity
  8
Bıçak2
  6
ByLayer
 62
  256
370
   -1
100
AcDbLine
 10
276.8965451124704
 20
10.02666770013121
 11
276.8965451124704
 21
5.524175699107261
  0
LINE
  5
1EE
100
AcDbEntity
  8
Bıçak2
  6
ByLayer
 62
  256
370
   -1
100
AcDbLine
 10
276.8965451124704
 20
-6.133193320679094
 11
276.8965451124704
 21
-10.63568532170312
  0
ELLIPSE
  5
1EF
100
AcDbEntity
  8
Bıçak2
  6
ByLayer
 62
  256
370
   -1
100
AcDbEllipse
 10
92.28743532569723
 20
1.835151562797535
 30
0
 11
1.730551284886605
 21
-9.416295868036606e-16
 31
0
 40
0.7869419691160815
 41
4.635786115508132
 42
7.827349643733541
  0
MTEXT
  5
1F0
100
AcDbEntity
  8
Etiket
  6
ByLayer
 62
  256
370
   -1
100
AcDbMText
 10
133.9212205237717
 20
77.04435698491096
 30
0
 40
5
 41
158.0277829206515
 71
    1
 72
    1
  1
Çizen: Mustafa Halil ( @AcikKaynakci )\P__________\P\PReferans Calisma;\P * Sanatci: Nebojsa Nikodijevic\P * Calismanin Adi: M48 Cyclone\P * https://www.artstation.com/artwork/WDXeN
  7
standard
210
0
220
0
230
1
 50
0
 73
    2
 44
1
  0
ENDSEC
  0
SECTION
  2
OBJECTS
  0
DICTIONARY
  5
C
330
0
100
AcDbDictionary
281
    1
  3
ACAD_GROUP
350
D
  3
ACAD_IMAGE_DICT
350
1F1
  0
DICTIONARY
  5
D
330
C
100
AcDbDictionary
281
    1
  0
IMAGEDEF_REACTOR
  5
54
330
55
100
AcDbRasterImageDefReactor
 90
    2
330
55
  0
DICTIONARY
  5
1F1
330
C
100
AcDbDictionary
281
    1
  3
nebojsa-nikodijevic_
350
53
  0
IMAGEDEF
  5
53
102
{ACAD_REACTORS
330
54
102
}
100
AcDbRasterImageDef
 90
    0
  1
/depom/LibreCAD/Bıçak/Nebojsa Nikodijevic - M48 Cyclone/nebojsa-nikodijevic_.png
 10
1000
 20
87
 11
1
 21
1
280
    1
281
    0
  0
PLOTSETTINGS
  5
1F2
100
AcDbPlotSettings
  6
1x1
 40
0
 41
0
 42
0
 43
0
  0
ENDSEC
  0
EOF
