999
dxfrw 0.6.3
  0
SECTION
  2
HEADER
  9
$ACADVER
  1
AC1021
  9
$DWGCODEPAGE
  3
ANSI_1252
  9
$INSBASE
 10
0
 20
0
 30
0
  9
$EXTMIN
 10
88.43020939835111
 20
486.3275745440293
 30
0
  9
$EXTMAX
 10
1311.569790601649
 20
1056.327574544029
 30
0
  9
$LIMMIN
 10
0
 20
0
  9
$LIMMAX
 10
420
 20
297
  9
$ORTHOMODE
 70
    0
  9
$REGENMODE
 70
    1
  9
$FILLMODE
 70
    1
  9
$QTEXTMODE
 70
    0
  9
$MIRRTEXT
 70
    0
  9
$LTSCALE
 40
1
  9
$ATTMODE
 70
    0
  9
$TEXTSIZE
 40
2.5
  9
$TRACEWID
 40
15.68
  9
$TEXTSTYLE
  7
STANDARD
  9
$CLAYER
  8
turkuaz
  9
$CELTYPE
  6
BYLAYER
  9
$CECOLOR
 62
  256
  9
$CELTSCALE
 40
1
  9
$DISPSILH
 70
    0
  9
$DIMSCALE
 40
1
  9
$DIMASZ
 40
2.5
  9
$DIMEXO
 40
0.625
  9
$DIMDLI
 40
3.75
  9
$DIMRND
 40
0
  9
$DIMDLE
 40
0
  9
$DIMEXE
 40
1.25
  9
$DIMTP
 40
0
  9
$DIMTM
 40
0
  9
$DIMTXT
 40
2.5
  9
$DIMCEN
 40
2.5
  9
$DIMTSZ
 40
0
  9
$DIMTOL
 70
    0
  9
$DIMLIM
 70
    0
  9
$DIMTIH
 70
    0
  9
$DIMTOH
 70
    0
  9
$DIMSE1
 70
    0
  9
$DIMSE2
 70
    0
  9
$DIMTAD
 70
    1
  9
$DIMZIN
 70
    8
  9
$DIMBLK
  1

  9
$DIMASO
 70
    1
  9
$DIMSHO
 70
    1
  9
$DIMPOST
  1

  9
$DIMAPOST
  1

  9
$DIMALT
 70
    0
  9
$DIMALTD
 70
    3
  9
$DIMALTF
 40
0.03937
  9
$DIMLFAC
 40
1
  9
$DIMTOFL
 70
    1
  9
$DIMTVP
 40
0
  9
$DIMTIX
 70
    0
  9
$DIMSOXD
 70
    0
  9
$DIMSAH
 70
    0
  9
$DIMBLK1
  1

  9
$DIMBLK2
  1

  9
$DIMSTYLE
  2
STANDARD
  9
$DIMCLRD
 70
    0
  9
$DIMCLRE
 70
    0
  9
$DIMCLRT
 70
    0
  9
$DIMTFAC
 40
1
  9
$DIMGAP
 40
0.625
  9
$DIMJUST
 70
    0
  9
$DIMSD1
 70
    0
  9
$DIMSD2
 70
    0
  9
$DIMTOLJ
 70
    0
  9
$DIMTZIN
 70
    8
  9
$DIMALTZ
 70
    0
  9
$DIMALTTZ
 70
    0
  9
$DIMUPT
 70
    0
  9
$DIMDEC
 70
    2
  9
$DIMTDEC
 70
    2
  9
$DIMALTU
 70
    2
  9
$DIMALTTD
 70
    3
  9
$DIMTXSTY
  7
STANDARD
  9
$DIMAUNIT
 70
    0
  9
$DIMADEC
 70
    0
  9
$DIMALTRND
 40
0
  9
$DIMAZIN
 70
    0
  9
$DIMDSEP
 70
   44
  9
$DIMATFIT
 70
    3
  9
$DIMFRAC
 70
    0
  9
$DIMLDRBLK
  1
STANDARD
  9
$DIMLUNIT
 70
    2
  9
$DIMLWD
 70
   -2
  9
$DIMLWE
 70
   -2
  9
$DIMTMOVE
 70
    0
  9
$DIMFXL
 40
1
  9
$DIMFXLON
 70
    0
  9
$DIMJOGANG
 40
0.7854
  9
$DIMTFILL
 70
    0
  9
$DIMTFILLCLR
 70
    0
  9
$DIMARCSYM
 70
    0
  9
$DIMLTYPE
  6

  9
$DIMLTEX1
  6

  9
$DIMLTEX2
  6

  9
$LUNITS
 70
    2
  9
$LUPREC
 70
    4
  9
$SKETCHINC
 40
1
  9
$FILLETRAD
 40
0
  9
$AUNITS
 70
    0
  9
$AUPREC
 70
    2
  9
$MENU
  1
.
  9
$ELEVATION
 40
0
  9
$PELEVATION
 40
0
  9
$THICKNESS
 40
0
  9
$LIMCHECK
 70
    0
  9
$CHAMFERA
 40
0
  9
$CHAMFERB
 40
0
  9
$CHAMFERC
 40
0
  9
$CHAMFERD
 40
0
  9
$SKPOLY
 70
    0
  9
$USRTIMER
 70
    1
  9
$ANGBASE
 50
0
  9
$ANGDIR
 70
    0
  9
$PDMODE
 70
   34
  9
$PDSIZE
 40
0
  9
$PLINEWID
 40
0
  9
$SPLFRAME
 70
    0
  9
$SPLINETYPE
 70
    2
  9
$SPLINESEGS
 70
    8
  9
$HANDSEED
  5
20000
  9
$SURFTAB1
 70
    6
  9
$SURFTAB2
 70
    6
  9
$SURFTYPE
 70
    6
  9
$SURFU
 70
    6
  9
$SURFV
 70
    6
  9
$UCSBASE
  2

  9
$UCSNAME
  2

  9
$UCSORG
 10
0
 20
0
 30
0
  9
$UCSXDIR
 10
1
 20
0
 30
0
  9
$UCSYDIR
 10
0
 20
1
 30
0
  9
$UCSORTHOREF
  2

  9
$UCSORTHOVIEW
 70
    0
  9
$UCSORGTOP
 10
0
 20
0
 30
0
  9
$UCSORGBOTTOM
 10
0
 20
0
 30
0
  9
$UCSORGLEFT
 10
0
 20
0
 30
0
  9
$UCSORGRIGHT
 10
0
 20
0
 30
0
  9
$UCSORGFRONT
 10
0
 20
0
 30
0
  9
$UCSORGBACK
 10
0
 20
0
 30
0
  9
$PUCSBASE
  2

  9
$PUCSNAME
  2

  9
$PUCSORG
 10
0
 20
0
 30
0
  9
$PUCSXDIR
 10
1
 20
0
 30
0
  9
$PUCSYDIR
 10
0
 20
1
 30
0
  9
$PUCSORTHOREF
  2

  9
$PUCSORTHOVIEW
 70
    0
  9
$PUCSORGTOP
 10
0
 20
0
 30
0
  9
$PUCSORGBOTTOM
 10
0
 20
0
 30
0
  9
$PUCSORGLEFT
 10
0
 20
0
 30
0
  9
$PUCSORGRIGHT
 10
0
 20
0
 30
0
  9
$PUCSORGFRONT
 10
0
 20
0
 30
0
  9
$PUCSORGBACK
 10
0
 20
0
 30
0
  9
$USERI1
 70
    0
  9
$USERI2
 70
    0
  9
$USERI3
 70
    0
  9
$USERI4
 70
    0
  9
$USERI5
 70
    0
  9
$USERR1
 40
0
  9
$USERR2
 40
0
  9
$USERR3
 40
0
  9
$USERR4
 40
0
  9
$USERR5
 40
0
  9
$WORLDVIEW
 70
    1
  9
$SHADEDGE
 70
    3
  9
$SHADEDIF
 70
   70
  9
$TILEMODE
 70
    1
  9
$MAXACTVP
 70
   64
  9
$PINSBASE
 10
0
 20
0
 30
0
  9
$PLIMCHECK
 70
    0
  9
$PEXTMIN
 10
0
 20
0
 30
0
  9
$PEXTMAX
 10
0
 20
0
 30
0
  9
$GRIDMODE
 70
    1
  9
$SNAPSTYLE
 70
    0
  9
$PLIMMIN
 10
0
 20
0
  9
$PLIMMAX
 10
297
 20
210
  9
$UNITMODE
 70
    0
  9
$VISRETAIN
 70
    1
  9
$PLINEGEN
 70
    0
  9
$PSLTSCALE
 70
    1
  9
$TREEDEPTH
 70
 3020
  9
$CMLSTYLE
  2
Standard
  9
$CMLJUST
 70
    0
  9
$CMLSCALE
 40
20
  9
$PROXYGRAPHICS
 70
    1
  9
$MEASUREMENT
 70
    1
  9
$CELWEIGHT
370
   -1
  9
$ENDCAPS
280
    0
  9
$JOINSTYLE
280
    0
  9
$LWDISPLAY
290
    0
  9
$INSUNITS
 70
    4
  9
$HYPERLINKBASE
  1

  9
$STYLESHEET
  1

  9
$XEDIT
290
    1
  9
$CEPSNTYPE
380
    0
  9
$PSTYLEMODE
290
    1
  9
$EXTNAMES
290
    1
  9
$PSVPSCALE
 40
1
  9
$OLESTARTUP
290
    0
  9
$SORTENTS
280
  127
  9
$INDEXCTL
280
    0
  9
$HIDETEXT
280
    1
  9
$XCLIPFRAME
290
    0
  9
$HALOGAP
280
    0
  9
$OBSCOLOR
 70
  257
  9
$OBSLTYPE
280
    0
  9
$INTERSECTIONDISPLAY
280
    0
  9
$INTERSECTIONCOLOR
 70
  257
  9
$DIMASSOC
280
    1
  9
$PROJECTNAME
  1

  9
$CAMERADISPLAY
290
    0
  9
$LENSLENGTH
 40
50
  9
$CAMERAHEIGHT
 40
0
  9
$STEPSPERSEC
 40
2
  9
$STEPSIZE
 40
50
  9
$3DDWFPREC
 40
2
  9
$PSOLWIDTH
 40
5
  9
$PSOLHEIGHT
 40
80
  9
$LOFTANG1
 40
1.570796326794897
  9
$LOFTANG2
 40
1.570796326794897
  9
$LOFTMAG1
 40
0
  9
$LOFTMAG2
 40
0
  9
$LOFTPARAM
 70
    7
  9
$LOFTNORMALS
280
    1
  9
$LATITUDE
 40
1
  9
$LONGITUDE
 40
1
  9
$NORTHDIRECTION
 40
0
  9
$TIMEZONE
 70
-8000
  9
$LIGHTGLYPHDISPLAY
280
    1
  9
$TILEMODELIGHTSYNCH
280
    1
  9
$SOLIDHIST
280
    1
  9
$SHOWHIST
280
    1
  9
$DWFFRAME
280
    2
  9
$DGNFRAME
280
    0
  9
$REALWORLDSCALE
290
    1
  9
$INTERFERECOLOR
 62
    1
  9
$CSHADOW
280
    0
  9
$SHADOWPLANELOCATION
 40
0
  0
ENDSEC
  0
SECTION
  2
CLASSES
  0
ENDSEC
  0
SECTION
  2
TABLES
  0
TABLE
  2
VPORT
  5
8
330
0
100
AcDbSymbolTable
 70
    1
  0
VPORT
  5
31
330
2
100
AcDbSymbolTableRecord
100
AcDbViewportTableRecord
  2
*ACTIVE
 70
    0
 10
0
 20
0
 11
1
 21
1
 12
660.2912079105815
 22
588.8331291908138
 13
0
 23
0
 14
10
 24
10
 15
10
 25
10
 16
0
 26
0
 36
1
 17
0
 27
0
 37
0
 40
812.9516488119036
 41
1.527397260273973
 42
50
 43
0
 44
0
 50
0
 51
0
 71
    0
 72
  100
 73
    1
 74
    3
 75
    0
 76
    1
 77
    0
 78
    0
281
    0
 65
    1
110
0
120
0
130
0
111
1
121
0
131
0
112
0
122
1
132
0
 79
    0
146
0
348
10020
 60
    7
 61
    5
292
1
282
    1
141
0
142
0
 63
  250
421
3358443
  0
ENDTAB
  0
TABLE
  2
LTYPE
  5
5
330
0
100
AcDbSymbolTable
 70
    4
  0
LTYPE
  5
14
330
5
100
AcDbSymbolTableRecord
100
AcDbLinetypeTableRecord
  2
ByBlock
 70
    0
  3

 72
   65
 73
    0
 40
0
  0
LTYPE
  5
15
330
5
100
AcDbSymbolTableRecord
100
AcDbLinetypeTableRecord
  2
ByLayer
 70
    0
  3

 72
   65
 73
    0
 40
0
  0
LTYPE
  5
16
330
5
100
AcDbSymbolTableRecord
100
AcDbLinetypeTableRecord
  2
Continuous
 70
    0
  3
Solid line
 72
   65
 73
    0
 40
0
  0
LTYPE
  5
32
330
5
100
AcDbSymbolTableRecord
100
AcDbLinetypeTableRecord
  2
DOT
 70
    0
  3
Dot . . . . . . . . . . . . . . . . . . . . . .
 72
   65
 73
    2
 40
6.35
 49
0
 74
    0
 49
-6.35
 74
    0
  0
LTYPE
  5
33
330
5
100
AcDbSymbolTableRecord
100
AcDbLinetypeTableRecord
  2
DOTTINY
 70
    0
  3
Dot (.15x) .....................................
 72
   65
 73
    2
 40
0.9525
 49
0
 74
    0
 49
-0.9525
 74
    0
  0
LTYPE
  5
34
330
5
100
AcDbSymbolTableRecord
100
AcDbLinetypeTableRecord
  2
DOT2
 70
    0
  3
Dot (.5x) .....................................
 72
   65
 73
    2
 40
3.175
 49
0
 74
    0
 49
-3.175
 74
    0
  0
LTYPE
  5
35
330
5
100
AcDbSymbolTableRecord
100
AcDbLinetypeTableRecord
  2
DOTX2
 70
    0
  3
Dot (2x) .  .  .  .  .  .  .  .  .  .  .  .  .
 72
   65
 73
    2
 40
12.7
 49
0
 74
    0
 49
-12.7
 74
    0
  0
LTYPE
  5
36
330
5
100
AcDbSymbolTableRecord
100
AcDbLinetypeTableRecord
  2
DASHED
 70
    0
  3
Dashed _ _ _ _ _ _ _ _ _ _ _ _ _ _ _ _ _
 72
   65
 73
    2
 40
19.05
 49
12.7
 74
    0
 49
-6.35
 74
    0
  0
LTYPE
  5
37
330
5
100
AcDbSymbolTableRecord
100
AcDbLinetypeTableRecord
  2
DASHEDTINY
 70
    0
  3
Dashed (.15x) _ _ _ _ _ _ _ _ _ _ _ _ _ _ _ _ _
 72
   65
 73
    2
 40
2.8575
 49
1.905
 74
    0
 49
-0.9525
 74
    0
  0
LTYPE
  5
38
330
5
100
AcDbSymbolTableRecord
100
AcDbLinetypeTableRecord
  2
DASHED2
 70
    0
  3
Dashed (.5x) _ _ _ _ _ _ _ _ _ _ _ _ _ _ _ _ _
 72
   65
 73
    2
 40
9.524999999999999
 49
6.35
 74
    0
 49
-3.175
 74
    0
  0
LTYPE
  5
39
330
5
100
AcDbSymbolTableRecord
100
AcDbLinetypeTableRecord
  2
DASHEDX2
 70
    0
  3
Dashed (2x) ____  ____  ____  ____  ____  ___
 72
   65
 73
    2
 40
38.09999999999999
 49
25.4
 74
    0
 49
-12.7
 74
    0
  0
LTYPE
  5
3A
330
5
100
AcDbSymbolTableRecord
100
AcDbLinetypeTableRecord
  2
DASHDOT
 70
    0
  3
Dash dot __ . __ . __ . __ . __ . __ . __ . __
 72
   65
 73
    4
 40
25.4
 49
12.7
 74
    0
 49
-6.35
 74
    0
 49
0
 74
    0
 49
-6.35
 74
    0
  0
LTYPE
  5
3B
330
5
100
AcDbSymbolTableRecord
100
AcDbLinetypeTableRecord
  2
DASHDOTTINY
 70
    0
  3
Dash dot (.15x) _._._._._._._._._._._._._._._.
 72
   65
 73
    4
 40
3.81
 49
1.905
 74
    0
 49
-0.9525
 74
    0
 49
0
 74
    0
 49
-0.9525
 74
    0
  0
LTYPE
  5
3C
330
5
100
AcDbSymbolTableRecord
100
AcDbLinetypeTableRecord
  2
DASHDOT2
 70
    0
  3
Dash dot (.5x) _._._._._._._._._._._._._._._.
 72
   65
 73
    4
 40
12.7
 49
6.35
 74
    0
 49
-3.175
 74
    0
 49
0
 74
    0
 49
-3.175
 74
    0
  0
LTYPE
  5
3D
330
5
100
AcDbSymbolTableRecord
100
AcDbLinetypeTableRecord
  2
DASHDOTX2
 70
    0
  3
Dash dot (2x) ____  .  ____  .  ____  .  ___
 72
   65
 73
    4
 40
50.8
 49
25.4
 74
    0
 49
-12.7
 74
    0
 49
0
 74
    0
 49
-12.7
 74
    0
  0
LTYPE
  5
3E
330
5
100
AcDbSymbolTableRecord
100
AcDbLinetypeTableRecord
  2
DIVIDE
 70
    0
  3
Divide ____ . . ____ . . ____ . . ____ . . ____
 72
   65
 73
    6
 40
31.75
 49
12.7
 74
    0
 49
-6.35
 74
    0
 49
0
 74
    0
 49
-6.35
 74
    0
 49
0
 74
    0
 49
-6.35
 74
    0
  0
LTYPE
  5
3F
330
5
100
AcDbSymbolTableRecord
100
AcDbLinetypeTableRecord
  2
DIVIDETINY
 70
    0
  3
Divide (.15x) __..__..__..__..__..__..__..__.._
 72
   65
 73
    6
 40
4.7625
 49
1.905
 74
    0
 49
-0.9525
 74
    0
 49
0
 74
    0
 49
-0.9525
 74
    0
 49
0
 74
    0
 49
-0.9525
 74
    0
  0
LTYPE
  5
40
330
5
100
AcDbSymbolTableRecord
100
AcDbLinetypeTableRecord
  2
DIVIDE2
 70
    0
  3
Divide (.5x) __..__..__..__..__..__..__..__.._
 72
   65
 73
    6
 40
15.875
 49
6.35
 74
    0
 49
-3.175
 74
    0
 49
0
 74
    0
 49
-3.175
 74
    0
 49
0
 74
    0
 49
-3.175
 74
    0
  0
LTYPE
  5
41
330
5
100
AcDbSymbolTableRecord
100
AcDbLinetypeTableRecord
  2
DIVIDEX2
 70
    0
  3
Divide (2x) ________  .  .  ________  .  .  _
 72
   65
 73
    6
 40
63.5
 49
25.4
 74
    0
 49
-12.7
 74
    0
 49
0
 74
    0
 49
-12.7
 74
    0
 49
0
 74
    0
 49
-12.7
 74
    0
  0
LTYPE
  5
42
330
5
100
AcDbSymbolTableRecord
100
AcDbLinetypeTableRecord
  2
BORDER
 70
    0
  3
Border __ __ . __ __ . __ __ . __ __ . __ __ .
 72
   65
 73
    6
 40
44.45
 49
12.7
 74
    0
 49
-6.35
 74
    0
 49
12.7
 74
    0
 49
-6.35
 74
    0
 49
0
 74
    0
 49
-6.35
 74
    0
  0
LTYPE
  5
43
330
5
100
AcDbSymbolTableRecord
100
AcDbLinetypeTableRecord
  2
BORDERTINY
 70
    0
  3
Border (.15x) __.__.__.__.__.__.__.__.__.__.__.
 72
   65
 73
    6
 40
6.6675
 49
1.905
 74
    0
 49
-0.9525
 74
    0
 49
1.905
 74
    0
 49
-0.9525
 74
    0
 49
0
 74
    0
 49
-0.9525
 74
    0
  0
LTYPE
  5
44
330
5
100
AcDbSymbolTableRecord
100
AcDbLinetypeTableRecord
  2
BORDER2
 70
    0
  3
Border (.5x) __.__.__.__.__.__.__.__.__.__.__.
 72
   65
 73
    6
 40
22.225
 49
6.35
 74
    0
 49
-3.175
 74
    0
 49
6.35
 74
    0
 49
-3.175
 74
    0
 49
0
 74
    0
 49
-3.175
 74
    0
  0
LTYPE
  5
45
330
5
100
AcDbSymbolTableRecord
100
AcDbLinetypeTableRecord
  2
BORDERX2
 70
    0
  3
Border (2x) ____  ____  .  ____  ____  .  ___
 72
   65
 73
    6
 40
88.89999999999999
 49
25.4
 74
    0
 49
-12.7
 74
    0
 49
25.4
 74
    0
 49
-12.7
 74
    0
 49
0
 74
    0
 49
-12.7
 74
    0
  0
LTYPE
  5
46
330
5
100
AcDbSymbolTableRecord
100
AcDbLinetypeTableRecord
  2
CENTER
 70
    0
  3
Center ____ _ ____ _ ____ _ ____ _ ____ _ ____
 72
   65
 73
    4
 40
50.8
 49
31.75
 74
    0
 49
-6.35
 74
    0
 49
6.35
 74
    0
 49
-6.35
 74
    0
  0
LTYPE
  5
47
330
5
100
AcDbSymbolTableRecord
100
AcDbLinetypeTableRecord
  2
CENTERTINY
 70
    0
  3
Center (.15x) ___ _ ___ _ ___ _ ___ _ ___ _ ___
 72
   65
 73
    4
 40
7.619999999999999
 49
4.7625
 74
    0
 49
-0.9525
 74
    0
 49
0.9525
 74
    0
 49
-0.9525
 74
    0
  0
LTYPE
  5
48
330
5
100
AcDbSymbolTableRecord
100
AcDbLinetypeTableRecord
  2
CENTER2
 70
    0
  3
Center (.5x) ___ _ ___ _ ___ _ ___ _ ___ _ ___
 72
   65
 73
    4
 40
28.575
 49
19.05
 74
    0
 49
-3.175
 74
    0
 49
3.175
 74
    0
 49
-3.175
 74
    0
  0
LTYPE
  5
49
330
5
100
AcDbSymbolTableRecord
100
AcDbLinetypeTableRecord
  2
CENTERX2
 70
    0
  3
Center (2x) ________  __  ________  __  _____
 72
   65
 73
    4
 40
101.6
 49
63.5
 74
    0
 49
-12.7
 74
    0
 49
12.7
 74
    0
 49
-12.7
 74
    0
  0
ENDTAB
  0
TABLE
  2
LAYER
  5
2
330
0
100
AcDbSymbolTable
 70
    1
  0
LAYER
  5
10
330
2
100
AcDbSymbolTableRecord
100
AcDbLayerTableRecord
  2
0
 70
    1
 62
    3
  6
CONTINUOUS
370
   50
390
F
  0
LAYER
  5
4A
330
2
100
AcDbSymbolTableRecord
100
AcDbLayerTableRecord
  2
ref
 70
    1
 62
    7
  6
CONTINUOUS
370
    0
390
F
  0
LAYER
  5
4B
330
2
100
AcDbSymbolTableRecord
100
AcDbLayerTableRecord
  2
taranmis
 70
    1
 62
    2
  6
CONTINUOUS
370
   18
390
F
  0
LAYER
  5
4C
330
2
100
AcDbSymbolTableRecord
100
AcDbLayerTableRecord
  2
turkuaz
 70
    0
 62
    4
  6
CONTINUOUS
370
    0
390
F
  0
ENDTAB
  0
TABLE
  2
STYLE
  5
3
330
0
100
AcDbSymbolTable
 70
    3
  0
STYLE
  5
4D
330
2
100
AcDbSymbolTableRecord
100
AcDbTextStyleTableRecord
  2
Standard
 70
    0
 40
0
 41
1
 50
0
 71
    0
 42
1
  3
txt
  4

  0
ENDTAB
  0
TABLE
  2
VIEW
  5
6
330
0
100
AcDbSymbolTable
 70
    0
  0
ENDTAB
  0
TABLE
  2
UCS
  5
7
330
0
100
AcDbSymbolTable
 70
    0
  0
ENDTAB
  0
TABLE
  2
APPID
  5
9
330
0
100
AcDbSymbolTable
 70
    1
  0
APPID
  5
12
330
9
100
AcDbSymbolTableRecord
100
AcDbRegAppTableRecord
  2
ACAD
 70
    0
  0
APPID
  5
4E
330
9
100
AcDbSymbolTableRecord
100
AcDbRegAppTableRecord
  2
LibreCad
 70
    0
  0
ENDTAB
  0
TABLE
  2
DIMSTYLE
  5
A
330
0
100
AcDbSymbolTable
 70
    1
100
AcDbDimStyleTable
 71
    1
  0
DIMSTYLE
105
4F
330
A
100
AcDbSymbolTableRecord
100
AcDbDimStyleTableRecord
  2
Standard
 70
    0
 40
1
 41
2.5
 42
0.625
 43
0.38
 44
1.25
 45
0
 46
0
 47
0
 48
0
 49
1
140
2.5
141
0.09
142
0
143
25.4
144
1
145
0
146
1
147
0.625
148
0
 71
    0
 72
    0
 73
    0
 74
    1
 75
    0
 76
    0
 77
    0
 78
    8
 79
    0
170
    0
171
    2
172
    0
173
    0
174
    0
175
    0
176
    0
177
    0
178
    0
179
    0
271
    2
272
    4
273
    2
274
    2
275
    0
276
    0
277
    2
278
   44
279
    0
280
    0
281
    0
282
    0
283
    1
284
    0
285
    0
286
    0
288
    0
289
    3
340
STANDARD
341

371
   -2
372
   -2
  0
ENDTAB
  0
TABLE
  2
BLOCK_RECORD
  5
1
330
0
100
AcDbSymbolTable
 70
    2
  0
BLOCK_RECORD
  5
1F
330
1
100
AcDbSymbolTableRecord
100
AcDbBlockTableRecord
  2
*Model_Space
 70
    0
280
    1
281
    0
  0
BLOCK_RECORD
  5
1E
330
1
100
AcDbSymbolTableRecord
100
AcDbBlockTableRecord
  2
*Paper_Space
 70
    0
280
    1
281
    0
  0
ENDTAB
  0
ENDSEC
  0
SECTION
  2
BLOCKS
  0
BLOCK
  5
20
330
1F
100
AcDbEntity
  8
0
100
AcDbBlockBegin
  2
*Model_Space
 70
    0
 10
0
 20
0
 30
0
  3
*Model_Space
  1

  0
ENDBLK
  5
21
330
1F
100
AcDbEntity
  8
0
100
AcDbBlockEnd
  0
BLOCK
  5
1C
330
1B
100
AcDbEntity
  8
0
100
AcDbBlockBegin
  2
*Paper_Space
 70
    0
 10
0
 20
0
 30
0
  3
*Paper_Space
  1

  0
ENDBLK
  5
1D
330
1F
100
AcDbEntity
  8
0
100
AcDbBlockEnd
  0
ENDSEC
  0
SECTION
  2
ENTITIES
  0
HATCH
  5
50
100
AcDbEntity
  8
turkuaz
  6
ByLayer
 62
  256
370
   -1
100
AcDbHatch
 10
0
 20
0
 30
0
210
0
220
0
230
1
  2
SOLID
 70
    1
 71
    0
 91
    1
 92
    0
 93
    2
 72
    2
 10
1026.569790601649
 20
771.3275745440293
 40
275
 50
0
 51
360
 73
    1
 72
    2
 10
1026.569790601649
 20
771.3275745440293
 40
285
 50
0
 51
360
 73
    1
 97
    0
 75
    0
 76
    1
 98
    0
  0
HATCH
  5
51
100
AcDbEntity
  8
turkuaz
  6
ByLayer
 62
  256
370
   -1
100
AcDbHatch
 10
0
 20
0
 30
0
210
0
220
0
230
1
  2
SOLID
 70
    1
 71
    0
 91
    1
 92
    0
 93
    2
 72
    2
 10
998.9172583605929
 20
708.9877474347549
 40
1.991514348490468
 50
0
 51
360
 73
    1
 72
    2
 10
998.5164274298699
 20
709.3832040123685
 40
0.6408385555025035
 50
0
 51
360
 73
    1
 97
    0
 75
    0
 76
    1
 98
    0
  0
HATCH
  5
52
100
AcDbEntity
  8
turkuaz
  6
ByLayer
 62
  256
370
   -1
100
AcDbHatch
 10
0
 20
0
 30
0
210
0
220
0
230
1
  2
SOLID
 70
    1
 71
    0
 91
    1
 92
    0
 93
    4
 72
    2
 10
995.8002001271987
 20
705.5165444330152
 40
6.416354780475508
 50
129.1233997957449
 51
143.6992328810891
 73
    1
 72
    2
 10
1003.655062795833
 20
714.3719631190316
 40
13.97304544375936
 50
201.2166534982703
 51
321.853259248778
 73
    1
 72
    2
 10
1006.427250446963
 20
702.8950219772109
 40
8.695614258592736
 50
19.10517985026448
 51
32.77386541195876
 73
    1
 72
    2
 10
1003.632110731271
 20
715.7918056839208
 40
13.00815284555778
 50
39.01891396316174
 51
155.9680162121103
 73
    0
 97
    0
 75
    0
 76
    1
 98
    0
  0
HATCH
  5
53
100
AcDbEntity
  8
turkuaz
  6
ByLayer
 62
  256
370
   -1
100
AcDbHatch
 10
0
 20
0
 30
0
210
0
220
0
230
1
  2
SOLID
 70
    1
 71
    0
 91
    1
 92
    0
 93
    3
 72
    2
 10
1114.028185792404
 20
658.3495466111995
 40
18.37701904484492
 50
67.49525533135522
 51
147.7736668219626
 73
    1
 72
    2
 10
1111.860406948976
 20
698.0063170281493
 40
32.71718557050403
 50
245.8639214119762
 51
286.6080088582122
 73
    1
 72
    2
 10
1118.123154221443
 20
670.9385993146402
 40
5.281752211533464
 50
305.7859992516622
 51
56.1895215476146
 73
    1
 97
    0
 75
    0
 76
    1
 98
    0
  0
HATCH
  5
54
100
AcDbEntity
  8
turkuaz
  6
ByLayer
 62
  256
370
   -1
100
AcDbHatch
 10
0
 20
0
 30
0
210
0
220
0
230
1
  2
SOLID
 70
    1
 71
    0
 91
    1
 92
    0
 93
    2
 72
    2
 10
1061.90425983114
 20
1017.710909532026
 40
405.2150263301761
 50
264.062703200673
 51
280.0223174753958
 73
    1
 72
    2
 10
1072.456454038858
 20
721.8298805687823
 40
119.3154789350961
 50
59.82776334268037
 51
116.0872159812508
 73
    0
 97
    0
 75
    0
 76
    1
 98
    0
  0
HATCH
  5
55
100
AcDbEntity
  8
turkuaz
  6
ByLayer
 62
  256
370
   -1
100
AcDbHatch
 10
0
 20
0
 30
0
210
0
220
0
230
1
  2
SOLID
 70
    1
 71
    0
 91
    1
 92
    0
 93
    4
 72
    2
 10
1019.933733847095
 20
907.1446103247663
 40
163.6142458818467
 50
347.2733951607057
 51
79.81645157231172
 73
    0
 72
    2
 10
1048.690493673171
 20
890.8889665110005
 40
144.7811915488732
 50
270.0675087813216
 51
355.636767891819
 73
    1
 72
    2
 10
1021.918655222219
 20
819.7073843739888
 40
181.4020001536742
 50
340.6294472469606
 51
42.59352560081631
 73
    0
 72
    2
 10
1034.646997574234
 20
833.0455396336383
 40
181.9948460376937
 50
311.5932082813894
 51
37.24318415417639
 73
    1
 97
    0
 75
    0
 76
    1
 98
    0
  0
HATCH
  5
56
100
AcDbEntity
  8
turkuaz
  6
ByLayer
 62
  256
370
   -1
100
AcDbHatch
 10
0
 20
0
 30
0
210
0
220
0
230
1
  2
SOLID
 70
    1
 71
    0
 91
    1
 92
    0
 93
   10
 72
    2
 10
921.7858271237653
 20
792.706071972879
 40
65.53017823760487
 50
300.3806935639291
 51
339.5587878922916
 73
    0
 72
    2
 10
1006.785709830376
 20
821.9877888582332
 40
24.44744933361509
 50
195.1652714787799
 51
245.5010117783422
 73
    1
 72
    2
 10
1013.79669583896
 20
876.6673517772642
 40
78.81425195537952
 50
257.432782376458
 51
304.8690679605523
 73
    1
 72
    2
 10
1029.0711908936
 20
853.1420619281608
 40
50.78848817515674
 50
305.9040181745988
 51
9.300785919751613
 73
    1
 72
    2
 10
1027.419238396486
 20
808.6226733633348
 40
73.89605466663109
 50
314.4764375080051
 51
32.4219369150587
 73
    0
 72
    2
 10
1019.995569601279
 20
799.0188025530975
 40
75.98098993624822
 50
336.7315554651013
 51
28.28717401460202
 73
    1
 72
    2
 10
1019.192209247346
 20
860.1357796140092
 40
72.21703277958963
 50
20.34703973801706
 51
122.1452683170067
 73
    0
 72
    2
 10
992.0076566201915
 20
809.1075423716825
 40
15.12309852817132
 50
138.0064897274897
 51
187.9506731860783
 73
    0
 72
    2
 10
945.301045663464
 20
808.0928170596428
 40
31.88060112412597
 50
5.591979604170276
 51
38.0108393685335
 73
    1
 72
    2
 10
851.1600043245753
 20
758.1753772989882
 40
138.0580677139728
 50
30.24989824111875
 51
41.26906348253438
 73
    1
 97
    0
 75
    0
 76
    1
 98
    0
  0
HATCH
  5
57
100
AcDbEntity
  8
turkuaz
  6
ByLayer
 62
  256
370
   -1
100
AcDbHatch
 10
0
 20
0
 30
0
210
0
220
0
230
1
  2
SOLID
 70
    1
 71
    0
 91
    1
 92
    0
 93
    5
 72
    2
 10
1112.258261323997
 20
652.620334610785
 40
57.11128406947489
 50
275.8638374265333
 51
26.60086389577911
 73
    0
 72
    1
 10
1163.324172368636
 20
627.0474681847212
 11
1154.601021311804
 21
615.7396797777174
 72
    2
 10
1083.85253981063
 20
524.5710946662329
 40
115.3995604235648
 50
52.18788622102387
 51
90.00296209375281
 73
    1
 72
    2
 10
1106.650449838423
 20
557.5615314573538
 40
85.5060254748585
 50
254.5324123722287
 51
302.5554254493694
 73
    0
 72
    2
 10
1103.381290335253
 20
655.6716166797693
 40
55.73776129661317
 50
332.1486659280453
 51
74.6956994010086
 73
    1
 97
    0
 75
    0
 76
    1
 98
    0
  0
HATCH
  5
58
100
AcDbEntity
  8
turkuaz
  6
ByLayer
 62
  256
370
   -1
100
AcDbHatch
 10
0
 20
0
 30
0
210
0
220
0
230
1
  2
SOLID
 70
    1
 71
    0
 91
    1
 92
    0
 93
    2
 72
    2
 10
1034.44632407652
 20
848.5298015988687
 40
243.2853719516978
 50
223.4958562427229
 51
268.81912265355
 73
    1
 72
    2
 10
997.0207396878591
 20
763.8448695765667
 40
161.8277975029525
 50
78.44633856229854
 51
149.2386825414285
 73
    0
 97
    0
 75
    0
 76
    1
 98
    0
  0
HATCH
  5
59
100
AcDbEntity
  8
turkuaz
  6
ByLayer
 62
  256
370
   -1
100
AcDbHatch
 10
0
 20
0
 30
0
210
0
220
0
230
1
  2
SOLID
 70
    1
 71
    0
 91
    1
 92
    0
 93
    4
 72
    2
 10
881.5674783119623
 20
677.1738240828346
 40
45.64736828199315
 50
128.8929803695413
 51
212.4456825612619
 73
    1
 72
    2
 10
913.845653760627
 20
709.4175751218093
 40
90.72671981772189
 50
218.7059401046154
 51
253.5156934004669
 73
    1
 72
    2
 10
924.4890146512211
 20
704.3267165525981
 40
89.62563708031769
 50
113.953321322987
 51
142.110165194256
 73
    0
 72
    2
 10
901.8797057253385
 20
681.6435979659871
 40
57.99102184731204
 50
146.081158247063
 51
212.3828538690448
 73
    0
 97
    0
 75
    0
 76
    1
 98
    0
  0
HATCH
  5
5A
100
AcDbEntity
  8
turkuaz
  6
ByLayer
 62
  256
370
   -1
100
AcDbHatch
 10
0
 20
0
 30
0
210
0
220
0
230
1
  2
SOLID
 70
    1
 71
    0
 91
    1
 92
    0
 93
    2
 72
    2
 10
1002.746303181143
 20
704.5709223327589
 40
23.99815456971092
 50
227.8203028419885
 51
323.9722833460376
 73
    1
 72
    2
 10
1003.673555809685
 20
695.5924029783441
 40
19.18140514684946
 50
15.53293684500418
 51
152.6744769669697
 73
    0
 97
    0
 75
    0
 76
    1
 98
    0
  0
HATCH
  5
5B
100
AcDbEntity
  8
turkuaz
  6
ByLayer
 62
  256
370
   -1
100
AcDbHatch
 10
0
 20
0
 30
0
210
0
220
0
230
1
  2
SOLID
 70
    1
 71
    0
 91
    1
 92
    0
 93
    4
 72
    2
 10
997.5592945423122
 20
696.6287094237261
 40
28.68493127473744
 50
204.8287472456646
 51
300.3428595237179
 73
    0
 72
    2
 10
971.6467876861034
 20
644.7618490768822
 40
86.62237062863299
 50
297.8028810266429
 51
310.7421291812462
 73
    0
 72
    2
 10
969.9993849885536
 20
661.8247891785776
 40
75.78843766327256
 50
39.85314468094936
 51
60.013461259232
 73
    1
 72
    2
 10
995.3314377130102
 20
707.1826731186709
 40
23.85228762436997
 50
58.26316629803124
 51
176.4159902084166
 73
    1
 97
    0
 75
    0
 76
    1
 98
    0
  0
HATCH
  5
5C
100
AcDbEntity
  8
turkuaz
  6
ByLayer
 62
  256
370
   -1
100
AcDbHatch
 10
0
 20
0
 30
0
210
0
220
0
230
1
  2
SOLID
 70
    1
 71
    0
 91
    1
 92
    0
 93
    8
 72
    2
 10
943.5902324124611
 20
843.7663521375597
 40
80.32452642697278
 50
177.0232737439104
 51
254.5131093173648
 73
    0
 72
    2
 10
859.6079596220217
 20
876.3985223980355
 40
76.91167465519439
 50
324.3964758688262
 51
18.41881997622908
 73
    0
 72
    2
 10
878.0883009311311
 20
891.7312868205674
 40
67.38059724980351
 50
36.02997102723024
 51
75.37432891902688
 73
    0
 72
    2
 10
896.9055552921457
 20
813.3807606381213
 40
13.27638145738116
 50
97.80716887441369
 51
164.4792291544066
 73
    1
 72
    2
 10
910.6673155535075
 20
812.5115402631542
 40
26.91964541787213
 50
189.4542398164295
 51
259.9659872564177
 73
    0
 72
    2
 10
894.6091467588348
 20
868.4805915623931
 40
31.57829126724647
 50
291.0996120894746
 51
9.352553298082675
 73
    1
 72
    1
 10
925.7676701288453
 20
873.6123457224797
 11
917.0945605308864
 21
905.4635930391217
 72
    2
 10
951.24447748548
 20
822.7712029842705
 40
89.46646411359575
 50
112.4394176689404
 51
169.1611871420805
 73
    1
 97
    0
 75
    0
 76
    1
 98
    0
  0
HATCH
  5
5D
100
AcDbEntity
  8
turkuaz
  6
ByLayer
 62
  256
370
   -1
100
AcDbHatch
 10
0
 20
0
 30
0
210
0
220
0
230
1
  2
SOLID
 70
    1
 71
    0
 91
    1
 92
    0
 93
    2
 72
    2
 10
945.5950344674334
 20
848.0144441236848
 40
62.10908258236942
 50
122.2451041514363
 51
190.1151576642093
 73
    1
 72
    2
 10
1013.936109390671
 20
817.8441247287998
 40
130.9096777464402
 50
188.4613219661134
 51
219.1784162182409
 73
    0
 97
    0
 75
    0
 76
    1
 98
    0
  0
HATCH
  5
5E
100
AcDbEntity
  8
turkuaz
  6
ByLayer
 62
  256
370
   -1
100
AcDbHatch
 10
0
 20
0
 30
0
210
0
220
0
230
1
  2
SOLID
 70
    1
 71
    0
 91
    1
 92
    0
 93
    8
 72
    2
 10
962.5377910227746
 20
856.1641960391885
 40
25.45958365729356
 50
199.0895202293923
 51
277.7997758188092
 73
    0
 72
    2
 10
985.1614386424203
 20
988.4861977909717
 40
108.7998344629459
 50
259.8525965901267
 51
283.25420965821
 73
    1
 72
    2
 10
1000.317357917444
 20
910.1490289639557
 40
29.25103124363946
 50
289.5511908250846
 51
2.246260786420931
 73
    1
 72
    2
 10
957.4189310646865
 20
892.802856074183
 40
74.45992053818746
 50
345.619680482649
 51
37.82087989792959
 73
    0
 72
    2
 10
987.6462865648735
 20
874.3998266474632
 40
39.50059216431551
 50
43.63012939393278
 51
109.0328437432772
 73
    0
 72
    2
 10
976.9051634878851
 20
877.3330909984686
 40
40.33126711587547
 50
266.9578287820315
 51
352.0201144177838
 73
    1
 72
    2
 10
997.4322807214419
 20
932.7128806442895
 40
63.99454707147905
 50
72.3402581713212
 51
108.6414213151207
 73
    0
 72
    2
 10
964.2414592155651
 20
835.2209819918116
 40
38.99300528798278
 50
70.93713928478455
 51
131.3542962721453
 73
    1
 97
    0
 75
    0
 76
    1
 98
    0
  0
HATCH
  5
5F
100
AcDbEntity
  8
taranmis
  6
ByLayer
 62
  256
370
   -1
100
AcDbHatch
 10
0
 20
0
 30
0
210
0
220
0
230
1
  2
SOLID
 70
    1
 71
    0
 91
    1
 92
    0
 93
    4
 72
    2
 10
369.0139161501177
 20
457.4678802956191
 40
163.6142458818467
 50
347.2733951607057
 51
79.81645157231172
 73
    0
 72
    2
 10
397.7706759761938
 20
441.2122364818534
 40
144.7811915488732
 50
270.0675087813216
 51
355.636767891819
 73
    1
 72
    2
 10
370.9988375252418
 20
370.0306543448417
 40
181.4020001536742
 50
340.6294472469606
 51
42.59352560081631
 73
    0
 72
    2
 10
383.7271798772562
 20
383.3688096044912
 40
181.9948460376937
 50
311.5932082813894
 51
37.24318415417639
 73
    1
 97
    0
 75
    0
 76
    1
 98
    0
  0
HATCH
  5
60
100
AcDbEntity
  8
taranmis
  6
ByLayer
 62
  256
370
   -1
100
AcDbHatch
 10
0
 20
0
 30
0
210
0
220
0
230
1
  2
SOLID
 70
    1
 71
    0
 91
    1
 92
    0
 93
   10
 72
    2
 10
270.8660094267879
 20
343.0293419437318
 40
65.53017823760487
 50
300.3806935639291
 51
339.5587878922916
 73
    0
 72
    2
 10
355.8658921333986
 20
372.3110588290861
 40
24.44744933361509
 50
195.1652714787799
 51
245.5010117783422
 73
    1
 72
    2
 10
362.8768781419827
 20
426.9906217481171
 40
78.81425195537952
 50
257.432782376458
 51
304.8690679605523
 73
    1
 72
    2
 10
378.1513731966229
 20
403.4653318990137
 40
50.78848817515674
 50
305.9040181745988
 51
9.300785919751613
 73
    1
 72
    2
 10
376.4994206995092
 20
358.9459433341876
 40
73.89605466663109
 50
314.4764375080051
 51
32.4219369150587
 73
    0
 72
    2
 10
369.075751904302
 20
349.3420725239504
 40
75.98098993624822
 50
336.7315554651013
 51
28.28717401460202
 73
    1
 72
    2
 10
368.2723915503691
 20
410.459049584862
 40
72.21703277958963
 50
20.34703973801706
 51
122.1452683170067
 73
    0
 72
    2
 10
341.0878389232142
 20
359.4308123425354
 40
15.12309852817132
 50
138.0064897274897
 51
187.9506731860783
 73
    0
 72
    2
 10
294.3812279664866
 20
358.4160870304956
 40
31.88060112412597
 50
5.591979604170276
 51
38.0108393685335
 73
    1
 72
    2
 10
200.240186627598
 20
308.4986472698411
 40
138.0580677139728
 50
30.24989824111875
 51
41.26906348253438
 73
    1
 97
    0
 75
    0
 76
    1
 98
    0
  0
HATCH
  5
61
100
AcDbEntity
  8
taranmis
  6
ByLayer
 62
  256
370
   -1
100
AcDbHatch
 10
0
 20
0
 30
0
210
0
220
0
230
1
  2
SOLID
 70
    1
 71
    0
 91
    1
 92
    0
 93
    5
 72
    2
 10
461.3384436270196
 20
202.9436045816378
 40
57.11128406947489
 50
275.8638374265333
 51
26.60086389577911
 73
    0
 72
    1
 10
512.4043546716583
 20
177.370738155574
 11
503.6812036148268
 21
166.0629497485702
 72
    2
 10
432.9327221136526
 20
74.89436463708569
 40
115.3995604235648
 50
52.18788622102387
 51
90.00296209375281
 73
    1
 72
    2
 10
455.7306321414453
 20
107.8848014282066
 40
85.5060254748585
 50
254.5324123722287
 51
302.5554254493694
 73
    0
 72
    2
 10
452.4614726382751
 20
205.9948866506221
 40
55.73776129661317
 50
332.1486659280453
 51
74.6956994010086
 73
    1
 97
    0
 75
    0
 76
    1
 98
    0
  0
HATCH
  5
62
100
AcDbEntity
  8
taranmis
  6
ByLayer
 62
  256
370
   -1
100
AcDbHatch
 10
0
 20
0
 30
0
210
0
220
0
230
1
  2
SOLID
 70
    1
 71
    0
 91
    1
 92
    0
 93
    2
 72
    2
 10
383.526506379543
 20
398.8530715697216
 40
243.2853719516978
 50
223.4958562427229
 51
268.81912265355
 73
    1
 72
    2
 10
346.1009219908818
 20
314.1681395474195
 40
161.8277975029525
 50
78.44633856229854
 51
149.2386825414285
 73
    0
 97
    0
 75
    0
 76
    1
 98
    0
  0
HATCH
  5
63
100
AcDbEntity
  8
taranmis
  6
ByLayer
 62
  256
370
   -1
100
AcDbHatch
 10
0
 20
0
 30
0
210
0
220
0
230
1
  2
SOLID
 70
    1
 71
    0
 91
    1
 92
    0
 93
    4
 72
    2
 10
230.647660614985
 20
227.4970940536874
 40
45.64736828199315
 50
128.8929803695413
 51
212.4456825612619
 73
    1
 72
    2
 10
262.9258360636496
 20
259.7408450926621
 40
90.72671981772189
 50
218.7059401046154
 51
253.5156934004669
 73
    1
 72
    2
 10
273.5691969542437
 20
254.6499865234509
 40
89.62563708031769
 50
113.953321322987
 51
142.110165194256
 73
    0
 72
    2
 10
250.9598880283611
 20
231.9668679368399
 40
57.99102184731204
 50
146.081158247063
 51
212.3828538690448
 73
    0
 97
    0
 75
    0
 76
    1
 98
    0
  0
HATCH
  5
64
100
AcDbEntity
  8
taranmis
  6
ByLayer
 62
  256
370
   -1
100
AcDbHatch
 10
0
 20
0
 30
0
210
0
220
0
230
1
  2
SOLID
 70
    1
 71
    0
 91
    1
 92
    0
 93
    2
 72
    2
 10
351.826485484166
 20
254.8941923036117
 40
23.99815456971092
 50
227.8203028419885
 51
323.9722833460376
 73
    1
 72
    2
 10
352.7537381127076
 20
245.9156729491969
 40
19.18140514684946
 50
15.53293684500418
 51
152.6744769669697
 73
    0
 97
    0
 75
    0
 76
    1
 98
    0
  0
HATCH
  5
65
100
AcDbEntity
  8
taranmis
  6
ByLayer
 62
  256
370
   -1
100
AcDbHatch
 10
0
 20
0
 30
0
210
0
220
0
230
1
  2
SOLID
 70
    1
 71
    0
 91
    1
 92
    0
 93
    4
 72
    2
 10
346.6394768453348
 20
246.951979394579
 40
28.68493127473744
 50
204.8287472456646
 51
300.3428595237179
 73
    0
 72
    2
 10
320.7269699891261
 20
195.085119047735
 40
86.62237062863299
 50
297.8028810266429
 51
310.7421291812462
 73
    0
 72
    2
 10
319.0795672915763
 20
212.1480591494304
 40
75.78843766327256
 50
39.85314468094936
 51
60.013461259232
 73
    1
 72
    2
 10
344.4116200160328
 20
257.5059430895238
 40
23.85228762436997
 50
58.26316629803124
 51
176.4159902084166
 73
    1
 97
    0
 75
    0
 76
    1
 98
    0
  0
HATCH
  5
66
100
AcDbEntity
  8
taranmis
  6
ByLayer
 62
  256
370
   -1
100
AcDbHatch
 10
0
 20
0
 30
0
210
0
220
0
230
1
  2
SOLID
 70
    1
 71
    0
 91
    1
 92
    0
 93
    8
 72
    2
 10
292.6704147154837
 20
394.0896221084125
 40
80.32452642697278
 50
177.0232737439104
 51
254.5131093173648
 73
    0
 72
    2
 10
208.6881419250443
 20
426.7217923688884
 40
76.91167465519439
 50
324.3964758688262
 51
18.41881997622908
 73
    0
 72
    2
 10
227.1684832341538
 20
442.0545567914202
 40
67.38059724980351
 50
36.02997102723024
 51
75.37432891902688
 73
    0
 72
    2
 10
245.9857375951683
 20
363.7040306089741
 40
13.27638145738116
 50
97.80716887441369
 51
164.4792291544066
 73
    1
 72
    2
 10
259.7474978565301
 20
362.834810234007
 40
26.91964541787213
 50
189.4542398164295
 51
259.9659872564177
 73
    0
 72
    2
 10
243.6893290618574
 20
418.8038615332459
 40
31.57829126724647
 50
291.0996120894746
 51
9.352553298082675
 73
    1
 72
    1
 10
274.8478524318679
 20
423.9356156933326
 11
266.174742833909
 21
455.7868630099746
 72
    2
 10
300.3246597885027
 20
373.0944729551233
 40
89.46646411359575
 50
112.4394176689404
 51
169.1611871420805
 73
    1
 97
    0
 75
    0
 76
    1
 98
    0
  0
HATCH
  5
67
100
AcDbEntity
  8
taranmis
  6
ByLayer
 62
  256
370
   -1
100
AcDbHatch
 10
0
 20
0
 30
0
210
0
220
0
230
1
  2
SOLID
 70
    1
 71
    0
 91
    1
 92
    0
 93
    2
 72
    2
 10
294.675216770456
 20
398.3377140945376
 40
62.10908258236942
 50
122.2451041514363
 51
190.1151576642093
 73
    1
 72
    2
 10
363.016291693694
 20
368.1673946996526
 40
130.9096777464402
 50
188.4613219661134
 51
219.1784162182409
 73
    0
 97
    0
 75
    0
 76
    1
 98
    0
  0
HATCH
  5
68
100
AcDbEntity
  8
taranmis
  6
ByLayer
 62
  256
370
   -1
100
AcDbHatch
 10
0
 20
0
 30
0
210
0
220
0
230
1
  2
SOLID
 70
    1
 71
    0
 91
    1
 92
    0
 93
    8
 72
    2
 10
311.6179733257972
 20
406.4874660100414
 40
25.45958365729356
 50
199.0895202293923
 51
277.7997758188092
 73
    0
 72
    2
 10
334.2416209454429
 20
538.8094677618245
 40
108.7998344629459
 50
259.8525965901267
 51
283.25420965821
 73
    1
 72
    2
 10
349.3975402204665
 20
460.4722989348085
 40
29.25103124363946
 50
289.5511908250846
 51
2.246260786420931
 73
    1
 72
    2
 10
306.4991133677091
 20
443.1261260450358
 40
74.45992053818746
 50
345.619680482649
 51
37.82087989792959
 73
    0
 72
    2
 10
336.7264688678962
 20
424.723096618316
 40
39.50059216431551
 50
43.63012939393278
 51
109.0328437432772
 73
    0
 72
    2
 10
325.9853457909078
 20
427.6563609693214
 40
40.33126711587547
 50
266.9578287820315
 51
352.0201144177838
 73
    1
 72
    2
 10
346.5124630244646
 20
483.0361506151423
 40
63.99454707147905
 50
72.3402581713212
 51
108.6414213151207
 73
    0
 72
    2
 10
313.3216415185877
 20
385.5442519626645
 40
38.99300528798278
 50
70.93713928478455
 51
131.3542962721453
 73
    1
 97
    0
 75
    0
 76
    1
 98
    0
  0
HATCH
  5
69
100
AcDbEntity
  8
taranmis
  6
ByLayer
 62
  256
370
   -1
100
AcDbHatch
 10
0
 20
0
 30
0
210
0
220
0
230
1
  2
SOLID
 70
    1
 71
    0
 91
    1
 92
    0
 93
    8
 72
    2
 10
655.0393959431258
 20
5.130333330631657
 40
133.552063654229
 50
343.5996365606314
 51
66.05187517975153
 73
    1
 72
    2
 10
669.9529993938874
 20
31.77650543365299
 40
103.1845732967135
 50
67.61450657491461
 51
117.15489377585
 73
    1
 72
    2
 10
378.2694857832446
 20
526.2646005495978
 40
471.1402624639402
 50
58.72505267120903
 51
116.2518117822893
 73
    0
 72
    2
 10
230.639179357851
 20
256.4243786044075
 40
164.3511087803085
 50
111.6980396715171
 51
256.9710017182475
 73
    0
 72
    2
 10
221.4011903617831
 20
240.1538186314408
 40
178.5700785424194
 50
98.96085521934138
 51
239.3674647104765
 73
    1
 72
    2
 10
376.3002697955097
 20
536.780902879838
 40
513.0403011045673
 50
241.3621265182798
 51
299.7353966162946
 73
    1
 72
    2
 10
675.0776230068384
 20
-4.474900254942199
 40
105.5245048769856
 50
245.1704783648728
 51
295.0485325495623
 73
    0
 72
    2
 10
667.623760408862
 20
-13.69376593047765
 40
117.0668802501174
 50
296.4433857926086
 51
9.282911318729305
 73
    0
 97
    0
 75
    0
 76
    1
 98
    0
  0
IMAGE
  5
6C
100
AcDbEntity
  8
ref
  6
ByLayer
 62
  256
370
   -1
100
AcDbRasterImage
 10
0
 20
0
 30
0
 11
1
 21
0
 31
0
 12
6.123233995736766e-17
 22
1
 32
0
 13
920
 23
540
340
6A
 70
    1
280
    0
281
   50
282
   50
283
    0
360
6B
  0
ARC
  5
6D
100
AcDbEntity
  8
0
  6
ByLayer
 62
  256
370
   -1
100
AcDbCircle
 10
-369.0139161501177
 20
457.4678802956191
 40
163.6142458818467
100
AcDbArc
 50
167.2733951607057
 51
259.8164515723117
  0
ARC
  5
6E
100
AcDbEntity
  8
0
  6
ByLayer
 62
  256
370
   -1
100
AcDbCircle
 10
-383.7271798772562
 20
383.3688096044912
 40
181.9948460376937
100
AcDbArc
 50
142.7568158458236
 51
228.4067917186107
  0
ARC
  5
6F
100
AcDbEntity
  8
0
  6
ByLayer
 62
  256
370
   -1
100
AcDbCircle
 10
-397.7706759761938
 20
441.2122364818534
 40
144.7811915488732
100
AcDbArc
 50
184.363232108181
 51
269.9324912186784
  0
ARC
  5
70
100
AcDbEntity
  8
0
  6
ByLayer
 62
  256
370
   -1
100
AcDbCircle
 10
-370.9988375252418
 20
370.0306543448417
 40
181.4020001536742
100
AcDbArc
 50
160.6294472469606
 51
222.5935256008163
  0
ARC
  5
71
100
AcDbEntity
  8
0
  6
ByLayer
 62
  256
370
   -1
100
AcDbCircle
 10
-461.3384436270196
 20
202.9436045816378
 40
57.11128406947489
100
AcDbArc
 50
95.86383742653332
 51
206.6008638957791
  0
ARC
  5
72
100
AcDbEntity
  8
0
  6
ByLayer
 62
  256
370
   -1
100
AcDbCircle
 10
-452.4614726382751
 20
205.9948866506221
 40
55.73776129661317
100
AcDbArc
 50
105.3043005989914
 51
207.8513340719547
  0
ARC
  5
73
100
AcDbEntity
  8
0
  6
ByLayer
 62
  256
370
   -1
100
AcDbCircle
 10
-455.7306321414453
 20
107.8848014282066
 40
85.5060254748585
100
AcDbArc
 50
74.53241237222871
 51
122.5554254493694
  0
ARC
  5
74
100
AcDbEntity
  8
0
  6
ByLayer
 62
  256
370
   -1
100
AcDbCircle
 10
-432.9327221136526
 20
74.89436463708569
 40
115.3995604235648
100
AcDbArc
 50
89.99703790624719
 51
127.8121137789761
  0
LINE
  5
75
100
AcDbEntity
  8
0
  6
ByLayer
 62
  256
370
   -1
100
AcDbLine
 10
-503.6812036148268
 20
166.0629497485702
 11
-512.4043546716583
 21
177.370738155574
  0
ARC
  5
76
100
AcDbEntity
  8
0
  6
ByLayer
 62
  256
370
   -1
100
AcDbCircle
 10
-463.1083680954267
 20
208.6728165820523
 40
18.37701904484492
100
AcDbArc
 50
32.22633317803736
 51
112.5047446686448
  0
ARC
  5
77
100
AcDbEntity
  8
0
  6
ByLayer
 62
  256
370
   -1
100
AcDbCircle
 10
-460.940589251999
 20
248.3295869990021
 40
32.71718557050403
100
AcDbArc
 50
253.3919911417878
 51
294.1360785880238
  0
ELLIPSE
  5
78
100
AcDbEntity
  8
0
  6
ByLayer
 62
  256
370
   -1
100
AcDbEllipse
 10
-469.3819869570601
 20
221.2633497927771
 30
0
 11
-0
 21
-4.612273170802759
 31
0
 40
0.5340712734844044
 41
3.245773509670144
 42
6.15287165273221
  0
ARC
  5
79
100
AcDbEntity
  8
0
  6
ByLayer
 62
  256
370
   -1
100
AcDbCircle
 10
-421.3527255877411
 20
277.3099645729224
 40
123.8899625249353
100
AcDbArc
 50
240.9529523954518
 51
297.2124050340222
  0
ARC
  5
7A
100
AcDbEntity
  8
0
  6
ByLayer
 62
  256
370
   -1
100
AcDbCircle
 10
-410.9844421341625
 20
568.0341795028791
 40
405.2150263301761
100
AcDbArc
 50
259.9776825246042
 51
275.9372967993269
  0
ARC
  5
7B
100
AcDbEntity
  8
0
  6
ByLayer
 62
  256
370
   -1
100
AcDbCircle
 10
-230.647660614985
 20
227.4970940536874
 40
45.64736828199315
100
AcDbArc
 50
327.5543174387381
 51
51.10701963045863
  0
ARC
  5
7C
100
AcDbEntity
  8
0
  6
ByLayer
 62
  256
370
   -1
100
AcDbCircle
 10
-250.9598880283611
 20
231.9668679368399
 40
57.99102184731204
100
AcDbArc
 50
326.0811582470629
 51
32.38285386904477
  0
ARC
  5
7D
100
AcDbEntity
  8
0
  6
ByLayer
 62
  256
370
   -1
100
AcDbCircle
 10
-262.9258360636496
 20
259.7408450926621
 40
90.72671981772189
100
AcDbArc
 50
286.4843065995331
 51
321.2940598953846
  0
ARC
  5
7E
100
AcDbEntity
  8
0
  6
ByLayer
 62
  256
370
   -1
100
AcDbCircle
 10
-273.5691969542437
 20
254.6499865234509
 40
89.62563708031769
100
AcDbArc
 50
293.953321322987
 51
322.110165194256
  0
ARC
  5
7F
100
AcDbEntity
  8
0
  6
ByLayer
 62
  256
370
   -1
100
AcDbCircle
 10
-383.526506379543
 20
398.8530715697216
 40
243.2853719516978
100
AcDbArc
 50
271.18087734645
 51
316.5041437572771
  0
ARC
  5
80
100
AcDbEntity
  8
0
  6
ByLayer
 62
  256
370
   -1
100
AcDbCircle
 10
-346.1009219908818
 20
314.1681395474196
 40
161.8277975029525
100
AcDbArc
 50
258.4463385622985
 51
329.2386825414285
  0
ARC
  5
81
100
AcDbEntity
  8
0
  6
ByLayer
 62
  256
370
   -1
100
AcDbCircle
 10
-346.6394768453348
 20
246.9519793945791
 40
28.68493127473744
100
AcDbArc
 50
24.82874724566463
 51
120.3428595237179
  0
ARC
  5
82
100
AcDbEntity
  8
0
  6
ByLayer
 62
  256
370
   -1
100
AcDbCircle
 10
-344.4116200160328
 20
257.5059430895238
 40
23.85228762436997
100
AcDbArc
 50
3.58400979158335
 51
121.7368337019687
  0
ARC
  5
83
100
AcDbEntity
  8
0
  6
ByLayer
 62
  256
370
   -1
100
AcDbCircle
 10
-319.0795672915763
 20
212.1480591494305
 40
75.78843766327256
100
AcDbArc
 50
119.986538740768
 51
140.1468553190506
  0
ARC
  5
84
100
AcDbEntity
  8
0
  6
ByLayer
 62
  256
370
   -1
100
AcDbCircle
 10
-320.7269699891261
 20
195.085119047735
 40
86.62237062863299
100
AcDbArc
 50
117.8028810266428
 51
130.7421291812462
  0
ARC
  5
85
100
AcDbEntity
  8
0
  6
ByLayer
 62
  256
370
   -1
100
AcDbCircle
 10
-351.826485484166
 20
254.8941923036117
 40
23.99815456971092
100
AcDbArc
 50
216.0277166539624
 51
312.1796971580115
  0
ARC
  5
86
100
AcDbEntity
  8
0
  6
ByLayer
 62
  256
370
   -1
100
AcDbCircle
 10
-352.7537381127076
 20
245.9156729491969
 40
19.18140514684946
100
AcDbArc
 50
195.5329368450042
 51
332.6744769669697
  0
ARC
  5
87
100
AcDbEntity
  8
0
  6
ByLayer
 62
  256
370
   -1
100
AcDbCircle
 10
-349.5763858424761
 20
247.9777414573199
 40
15.53480154871874
100
AcDbArc
 50
34.5825501720721
 51
166.8341122355776
  0
ARC
  5
88
100
AcDbEntity
  8
0
  6
ByLayer
 62
  256
370
   -1
100
AcDbCircle
 10
-352.6686180699709
 20
260.6488106330191
 40
10.92669816278101
100
AcDbArc
 50
206.2798304990683
 51
271.6436427899258
  0
ARC
  5
89
100
AcDbEntity
  8
0
  6
ByLayer
 62
  256
370
   -1
100
AcDbCircle
 10
-357.4667138668115
 20
270.3731883060209
 40
21.26990296269754
100
AcDbArc
 50
283.9052159919284
 51
329.3109002383532
  0
ARC
  5
8A
100
AcDbEntity
  8
0
  6
ByLayer
 62
  256
370
   -1
100
AcDbCircle
 10
-352.4867711398123
 20
265.262655623323
 40
12.47394980588523
100
AcDbArc
 50
221.233737531005
 51
339.1237295994306
  0
ARC
  5
8B
100
AcDbEntity
  8
0
  6
ByLayer
 62
  256
370
   -1
100
AcDbCircle
 10
-270.8660094267879
 20
343.0293419437317
 40
65.53017823760487
100
AcDbArc
 50
120.380693563929
 51
159.5587878922916
  0
ARC
  5
8C
100
AcDbEntity
  8
0
  6
ByLayer
 62
  256
370
   -1
100
AcDbCircle
 10
-355.8658921333986
 20
372.3110588290861
 40
24.44744933361509
100
AcDbArc
 50
294.4989882216578
 51
344.8347285212201
  0
ARC
  5
8D
100
AcDbEntity
  8
0
  6
ByLayer
 62
  256
370
   -1
100
AcDbCircle
 10
-362.8768781419827
 20
426.9906217481171
 40
78.81425195537952
100
AcDbArc
 50
235.1309320394477
 51
282.567217623542
  0
ARC
  5
8E
100
AcDbEntity
  8
0
  6
ByLayer
 62
  256
370
   -1
100
AcDbCircle
 10
-378.1513731966229
 20
403.4653318990138
 40
50.78848817515674
100
AcDbArc
 50
170.6992140802484
 51
234.0959818254012
  0
ARC
  5
8F
100
AcDbEntity
  8
0
  6
ByLayer
 62
  256
370
   -1
100
AcDbCircle
 10
-376.4994206995092
 20
358.9459433341876
 40
73.89605466663109
100
AcDbArc
 50
134.4764375080051
 51
212.4219369150587
  0
ARC
  5
90
100
AcDbEntity
  8
0
  6
ByLayer
 62
  256
370
   -1
100
AcDbCircle
 10
-369.075751904302
 20
349.3420725239503
 40
75.98098993624822
100
AcDbArc
 50
151.712825985398
 51
203.2684445348986
  0
ARC
  5
91
100
AcDbEntity
  8
0
  6
ByLayer
 62
  256
370
   -1
100
AcDbCircle
 10
-368.2723915503691
 20
410.459049584862
 40
72.21703277958963
100
AcDbArc
 50
200.3470397380171
 51
302.1452683170066
  0
ARC
  5
92
100
AcDbEntity
  8
0
  6
ByLayer
 62
  256
370
   -1
100
AcDbCircle
 10
-200.240186627598
 20
308.4986472698411
 40
138.0580677139728
100
AcDbArc
 50
138.7309365174656
 51
149.7501017588812
  0
ARC
  5
93
100
AcDbEntity
  8
0
  6
ByLayer
 62
  256
370
   -1
100
AcDbCircle
 10
-311.6179733257972
 20
406.4874660100414
 40
25.45958365729356
100
AcDbArc
 50
19.08952022939236
 51
97.79977581880927
  0
ARC
  5
94
100
AcDbEntity
  8
0
  6
ByLayer
 62
  256
370
   -1
100
AcDbCircle
 10
-334.2416209454431
 20
538.8094677618246
 40
108.7998344629458
100
AcDbArc
 50
256.74579034179
 51
280.1474034098734
  0
ARC
  5
95
100
AcDbEntity
  8
0
  6
ByLayer
 62
  256
370
   -1
100
AcDbCircle
 10
-349.3975402204665
 20
460.4722989348084
 40
29.25103124363944
100
AcDbArc
 50
177.753739213579
 51
250.4488091749155
  0
ARC
  5
96
100
AcDbEntity
  8
0
  6
ByLayer
 62
  256
370
   -1
100
AcDbCircle
 10
-306.4991133677092
 20
443.1261260450358
 40
74.45992053818739
100
AcDbArc
 50
165.619680482649
 51
217.8208798979296
  0
ARC
  5
97
100
AcDbEntity
  8
0
  6
ByLayer
 62
  256
370
   -1
100
AcDbCircle
 10
-336.4496191763118
 20
425.1543118634956
 40
39.99870042169921
100
AcDbArc
 50
223.8035856161651
 51
289.2062999655092
  0
ARC
  5
98
100
AcDbEntity
  8
0
  6
ByLayer
 62
  256
370
   -1
100
AcDbCircle
 10
-325.9853457909077
 20
427.6563609693214
 40
40.33126711587546
100
AcDbArc
 50
187.979885582216
 51
273.0421712179685
  0
ARC
  5
99
100
AcDbEntity
  8
0
  6
ByLayer
 62
  256
370
   -1
100
AcDbCircle
 10
-346.5124630244646
 20
483.0361506151424
 40
63.99454707147909
100
AcDbArc
 50
252.3402581713212
 51
288.6414213151207
  0
ARC
  5
9A
100
AcDbEntity
  8
0
  6
ByLayer
 62
  256
370
   -1
100
AcDbCircle
 10
-313.3216415185877
 20
385.5442519626644
 40
38.99300528798278
100
AcDbArc
 50
48.64570372785463
 51
109.0628607152154
  0
ARC
  5
9B
100
AcDbEntity
  8
0
  6
ByLayer
 62
  256
370
   -1
100
AcDbCircle
 10
-292.6704147154837
 20
394.0896221084126
 40
80.32452642697278
100
AcDbArc
 50
357.0232737439105
 51
74.51310931736481
  0
ARC
  5
9C
100
AcDbEntity
  8
0
  6
ByLayer
 62
  256
370
   -1
100
AcDbCircle
 10
-208.6881419250443
 20
426.7217923688884
 40
76.91167465519439
100
AcDbArc
 50
144.3964758688262
 51
198.4188199762291
  0
ARC
  5
9D
100
AcDbEntity
  8
0
  6
ByLayer
 62
  256
370
   -1
100
AcDbCircle
 10
-227.1684832341538
 20
442.0545567914202
 40
67.38059724980351
100
AcDbArc
 50
216.0299710272302
 51
255.3743289190269
  0
ARC
  5
9E
100
AcDbEntity
  8
0
  6
ByLayer
 62
  256
370
   -1
100
AcDbCircle
 10
-245.9857375951683
 20
363.7040306089741
 40
13.27638145738116
100
AcDbArc
 50
15.52077084559338
 51
82.19283112558631
  0
ARC
  5
9F
100
AcDbEntity
  8
0
  6
ByLayer
 62
  256
370
   -1
100
AcDbCircle
 10
-259.7474978565301
 20
362.834810234007
 40
26.91964541787213
100
AcDbArc
 50
9.454239816429473
 51
79.96598725641769
  0
ARC
  5
A0
100
AcDbEntity
  8
0
  6
ByLayer
 62
  256
370
   -1
100
AcDbCircle
 10
-243.6893290618574
 20
418.8038615332459
 40
31.57829126724647
100
AcDbArc
 50
170.6474467019173
 51
248.9003879105254
  0
LINE
  5
A1
100
AcDbEntity
  8
0
  6
ByLayer
 62
  256
370
   -1
100
AcDbLine
 10
-274.8478524318679
 20
423.9356156933325
 11
-266.174742833909
 21
455.7868630099747
  0
ARC
  5
A2
100
AcDbEntity
  8
0
  6
ByLayer
 62
  256
370
   -1
100
AcDbCircle
 10
-300.3246597885027
 20
373.0944729551233
 40
89.46646411359575
100
AcDbArc
 50
10.83881285791954
 51
67.56058233105958
  0
ARC
  5
A3
100
AcDbEntity
  8
0
  6
ByLayer
 62
  256
370
   -1
100
AcDbCircle
 10
-294.675216770456
 20
398.3377140945376
 40
62.10908258236942
100
AcDbArc
 50
349.8848423357907
 51
57.75489584856371
  0
ARC
  5
A4
100
AcDbEntity
  8
0
  6
ByLayer
 62
  256
370
   -1
100
AcDbCircle
 10
-363.016291693694
 20
368.1673946996525
 40
130.9096777464402
100
AcDbArc
 50
8.461321966113422
 51
39.17841621824093
  0
CIRCLE
  5
A5
100
AcDbEntity
  8
0
  6
ByLayer
 62
  256
370
   -1
100
AcDbCircle
 10
-347.9974406636155
 20
259.3110174056077
 40
1.991514348490468
  0
ARC
  5
A6
100
AcDbEntity
  8
0
  6
ByLayer
 62
  256
370
   -1
100
AcDbCircle
 10
-294.3812279664866
 20
358.4160870304956
 40
31.88060112412597
100
AcDbArc
 50
141.9891606314665
 51
174.4080203958297
  0
ARC
  5
A7
100
AcDbEntity
  8
0
  6
ByLayer
 62
  256
370
   -1
100
AcDbCircle
 10
-341.0878389232142
 20
359.4308123425354
 40
15.12309852817132
100
AcDbArc
 50
318.0064897274897
 51
7.950673186078381
  0
SPLINE
  5
A8
100
AcDbEntity
  8
ref
  6
ByLayer
 62
  256
370
   -1
100
AcDbSpline
210
0
220
0
230
0
 70
    8
 71
    2
 72
   27
 73
   24
 74
    0
 42
1e-07
 43
1e-07
 40
0
 40
0
 40
0
 40
0.04545454545454546
 40
0.09090909090909091
 40
0.1363636363636364
 40
0.1818181818181818
 40
0.2272727272727273
 40
0.2727272727272727
 40
0.3181818181818182
 40
0.3636363636363636
 40
0.4090909090909091
 40
0.4545454545454545
 40
0.5
 40
0.5454545454545454
 40
0.5909090909090909
 40
0.6363636363636364
 40
0.6818181818181818
 40
0.7272727272727273
 40
0.7727272727272727
 40
0.8181818181818182
 40
0.8636363636363636
 40
0.9090909090909091
 40
0.9545454545454546
 40
1
 40
1
 40
1
 10
-197.2072486879841
 20
417.0381150432084
 30
0
 10
-92.88192583324877
 20
365.8610010761979
 30
0
 10
-35.00601383635509
 20
269.7696206809949
 30
0
 10
-60.44671195251687
 20
170.969374752574
 30
0
 10
-151.0562575967095
 20
101.6398143981773
 30
0
 10
-288.7189358653453
 20
91.7416138891041
 30
0
 10
-484.7842171233294
 20
133.7753187122539
 30
0
 10
-656.8486662896701
 20
164.3074622102797
 30
0
 10
-781.096796890567
 20
165.6521675663458
 30
0
 10
-858.0585974945858
 20
130.4386907190495
 30
0
 10
-906.4748184613484
 20
7.346023848685014
 30
0
 10
-848.2937239931374
 20
131.7070189931316
 30
0
 10
-763.2719129574253
 20
150.6427736145538
 30
0
 10
-650.3952706049795
 20
142.6039642587599
 30
0
 10
-481.9443740915031
 20
109.0750428912711
 30
0
 10
-325.9011163627243
 20
73.73421971941636
 30
0
 10
-234.1722224242132
 20
71.22970035015916
 30
0
 10
-160.8889054402014
 20
81.87644588236832
 30
0
 10
-77.37599125651829
 20
122.2011309119254
 30
0
 10
-28.3656937905964
 20
204.3405885235909
 30
0
 10
-27.70869550946401
 20
289.8915565718665
 30
0
 10
-75.37486517068888
 20
357.4513780744903
 30
0
 10
-149.1976259816389
 20
405.7190305439779
 30
0
 10
-197.451436675588
 20
417.1816858964303
 30
0
  0
ARC
  5
A9
100
AcDbEntity
  8
0
  6
ByLayer
 62
  256
370
   -1
100
AcDbCircle
 10
-655.0393959431258
 20
5.130333330631657
 40
133.552063654229
100
AcDbArc
 50
113.9481248202485
 51
196.4003634393686
  0
ARC
  5
AA
100
AcDbEntity
  8
0
  6
ByLayer
 62
  256
370
   -1
100
AcDbCircle
 10
-667.623760408862
 20
-13.69376593047764
 40
117.0668802501174
100
AcDbArc
 50
116.4433857926086
 51
189.2829113187293
  0
ARC
  5
AB
100
AcDbEntity
  8
0
  6
ByLayer
 62
  256
370
   -1
100
AcDbCircle
 10
-230.639179357851
 20
256.4243786044075
 40
164.3511087803085
100
AcDbArc
 50
291.6980396715171
 51
76.97100171824752
  0
ARC
  5
AC
100
AcDbEntity
  8
0
  6
ByLayer
 62
  256
370
   -1
100
AcDbCircle
 10
-378.2694857832446
 20
526.2646005495978
 40
471.1402624639402
100
AcDbArc
 50
238.725052671209
 51
296.2518117822893
  0
ARC
  5
AD
100
AcDbEntity
  8
0
  6
ByLayer
 62
  256
370
   -1
100
AcDbCircle
 10
-376.3002697955097
 20
536.780902879838
 40
513.0403011045673
100
AcDbArc
 50
240.2646033837054
 51
298.6378734817202
  0
ARC
  5
AE
100
AcDbEntity
  8
0
  6
ByLayer
 62
  256
370
   -1
100
AcDbCircle
 10
-221.4011903617831
 20
240.1538186314409
 40
178.5700785424194
100
AcDbArc
 50
300.6325352895235
 51
81.03914478065862
  0
ARC
  5
AF
100
AcDbEntity
  8
0
  6
ByLayer
 62
  256
370
   -1
100
AcDbCircle
 10
-669.9529993938874
 20
31.77650543365298
 40
103.1845732967135
100
AcDbArc
 50
62.84510622415003
 51
112.3854934250854
  0
ARC
  5
B0
100
AcDbEntity
  8
0
  6
ByLayer
 62
  256
370
   -1
100
AcDbCircle
 10
-675.0776230068384
 20
-4.474900254942199
 40
105.5245048769856
100
AcDbArc
 50
65.17047836487278
 51
115.0485325495623
  0
ARC
  5
B1
100
AcDbEntity
  8
ref
  6
ByLayer
 62
  256
370
   -1
100
AcDbCircle
 10
213.9094620016224
 20
254.3808345075351
 40
163.4320420417091
100
AcDbArc
 50
97.14304661833853
 51
292.4414460008452
  0
ARC
  5
B2
100
AcDbEntity
  8
ref
  6
ByLayer
 62
  256
370
   -1
100
AcDbCircle
 10
203.7655675834557
 20
237.781734550535
 40
179.0522464088768
100
AcDbArc
 50
93.25878729109584
 51
293.0066064045394
  0
ARC
  5
B3
100
AcDbEntity
  8
ref
  6
ByLayer
 62
  256
370
   -1
100
AcDbCircle
 10
545.0284313052786
 20
-889.5284075603861
 40
1000
100
AcDbArc
 50
77.46833350690257
 51
105.7406017173331
  0
ARC
  5
B4
100
AcDbEntity
  8
ref
  6
ByLayer
 62
  256
370
   -1
100
AcDbCircle
 10
725.4132862707321
 20
-55.32716426557414
 40
172.3540229449584
100
AcDbArc
 50
358.5619203605256
 51
77.18882051360573
  0
ARC
  5
B5
100
AcDbEntity
  8
ref
  6
ByLayer
 62
  256
370
   -1
100
AcDbCircle
 10
723.9019219020945
 20
-84.7873120054021
 40
175.6190464880177
100
AcDbArc
 50
8.228444700881026
 51
77.46833350690257
  0
ARC
  5
B6
100
AcDbEntity
  8
ref
  6
ByLayer
 62
  256
370
   -1
100
AcDbCircle
 10
538.8461049578929
 20
-869.748086843574
 40
1007.870897644247
100
AcDbArc
 50
77.11297858158835
 51
105.0996075632317
  0
ARC
  5
B7
100
AcDbEntity
  8
taranmis
  6
ByLayer
 62
  256
370
   -1
100
AcDbCircle
 10
369.0139161501177
 20
457.4678802956191
 40
163.6142458818467
100
AcDbArc
 50
280.1835484276883
 51
12.72660483929426
  0
ARC
  5
B8
100
AcDbEntity
  8
taranmis
  6
ByLayer
 62
  256
370
   -1
100
AcDbCircle
 10
383.7271798772562
 20
383.3688096044912
 40
181.9948460376937
100
AcDbArc
 50
311.5932082813894
 51
37.24318415417639
  0
ARC
  5
B9
100
AcDbEntity
  8
taranmis
  6
ByLayer
 62
  256
370
   -1
100
AcDbCircle
 10
397.7706759761938
 20
441.2122364818534
 40
144.7811915488732
100
AcDbArc
 50
270.0675087813216
 51
355.636767891819
  0
ARC
  5
BA
100
AcDbEntity
  8
taranmis
  6
ByLayer
 62
  256
370
   -1
100
AcDbCircle
 10
370.9988375252418
 20
370.0306543448417
 40
181.4020001536742
100
AcDbArc
 50
317.4064743991837
 51
19.37055275303938
  0
ARC
  5
BB
100
AcDbEntity
  8
taranmis
  6
ByLayer
 62
  256
370
   -1
100
AcDbCircle
 10
461.3384436270196
 20
202.9436045816378
 40
57.11128406947489
100
AcDbArc
 50
333.3991361042209
 51
84.13616257346668
  0
ARC
  5
BC
100
AcDbEntity
  8
taranmis
  6
ByLayer
 62
  256
370
   -1
100
AcDbCircle
 10
452.4614726382751
 20
205.9948866506221
 40
55.73776129661317
100
AcDbArc
 50
332.1486659280453
 51
74.6956994010086
  0
ARC
  5
BD
100
AcDbEntity
  8
taranmis
  6
ByLayer
 62
  256
370
   -1
100
AcDbCircle
 10
455.7306321414453
 20
107.8848014282066
 40
85.5060254748585
100
AcDbArc
 50
57.44457455063064
 51
105.4675876277713
  0
ARC
  5
BE
100
AcDbEntity
  8
taranmis
  6
ByLayer
 62
  256
370
   -1
100
AcDbCircle
 10
432.9327221136526
 20
74.89436463708569
 40
115.3995604235648
100
AcDbArc
 50
52.18788622102387
 51
90.00296209375281
  0
LINE
  5
BF
100
AcDbEntity
  8
taranmis
  6
ByLayer
 62
  256
370
   -1
100
AcDbLine
 10
503.6812036148268
 20
166.0629497485702
 11
512.4043546716583
 21
177.370738155574
  0
ARC
  5
C0
100
AcDbEntity
  8
taranmis
  6
ByLayer
 62
  256
370
   -1
100
AcDbCircle
 10
463.1083680954267
 20
208.6728165820523
 40
18.37701904484492
100
AcDbArc
 50
67.49525533135522
 51
147.7736668219626
  0
ARC
  5
C1
100
AcDbEntity
  8
taranmis
  6
ByLayer
 62
  256
370
   -1
100
AcDbCircle
 10
460.940589251999
 20
248.3295869990021
 40
32.71718557050403
100
AcDbArc
 50
245.8639214119762
 51
286.6080088582122
  0
ELLIPSE
  5
C2
100
AcDbEntity
  8
taranmis
  6
ByLayer
 62
  256
370
   -1
100
AcDbEllipse
 10
469.3819869570601
 20
221.2633497927771
 30
0
 11
-0
 21
4.612273170802757
 31
0
 40
0.5340712734844044
 41
3.271906308037169
 42
6.179004451099233
  0
ARC
  5
C3
100
AcDbEntity
  8
taranmis
  6
ByLayer
 62
  256
370
   -1
100
AcDbCircle
 10
421.3527255877411
 20
277.3099645729224
 40
123.8899625249353
100
AcDbArc
 50
242.7875949659778
 51
299.0470476045482
  0
ARC
  5
C4
100
AcDbEntity
  8
taranmis
  6
ByLayer
 62
  256
370
   -1
100
AcDbCircle
 10
410.9844421341625
 20
568.0341795028791
 40
405.2150263301761
100
AcDbArc
 50
264.062703200673
 51
280.0223174753958
  0
ARC
  5
C5
100
AcDbEntity
  8
taranmis
  6
ByLayer
 62
  256
370
   -1
100
AcDbCircle
 10
230.647660614985
 20
227.4970940536874
 40
45.64736828199315
100
AcDbArc
 50
128.8929803695413
 51
212.4456825612619
  0
ARC
  5
C6
100
AcDbEntity
  8
taranmis
  6
ByLayer
 62
  256
370
   -1
100
AcDbCircle
 10
250.9598880283611
 20
231.9668679368399
 40
57.99102184731204
100
AcDbArc
 50
147.6171461309552
 51
213.918841752937
  0
ARC
  5
C7
100
AcDbEntity
  8
taranmis
  6
ByLayer
 62
  256
370
   -1
100
AcDbCircle
 10
262.9258360636496
 20
259.7408450926621
 40
90.72671981772189
100
AcDbArc
 50
218.7059401046154
 51
253.5156934004669
  0
ARC
  5
C8
100
AcDbEntity
  8
taranmis
  6
ByLayer
 62
  256
370
   -1
100
AcDbCircle
 10
273.5691969542437
 20
254.6499865234509
 40
89.62563708031769
100
AcDbArc
 50
217.889834805744
 51
246.046678677013
  0
ARC
  5
C9
100
AcDbEntity
  8
taranmis
  6
ByLayer
 62
  256
370
   -1
100
AcDbCircle
 10
383.526506379543
 20
398.8530715697216
 40
243.2853719516978
100
AcDbArc
 50
223.4958562427229
 51
268.81912265355
  0
ARC
  5
CA
100
AcDbEntity
  8
taranmis
  6
ByLayer
 62
  256
370
   -1
100
AcDbCircle
 10
346.1009219908818
 20
314.1681395474195
 40
161.8277975029525
100
AcDbArc
 50
210.7613174585715
 51
281.5536614377015
  0
ARC
  5
CB
100
AcDbEntity
  8
taranmis
  6
ByLayer
 62
  256
370
   -1
100
AcDbCircle
 10
346.6394768453348
 20
246.951979394579
 40
28.68493127473744
100
AcDbArc
 50
59.65714047628207
 51
155.1712527543354
  0
ARC
  5
CC
100
AcDbEntity
  8
taranmis
  6
ByLayer
 62
  256
370
   -1
100
AcDbCircle
 10
344.4116200160328
 20
257.5059430895238
 40
23.85228762436997
100
AcDbArc
 50
58.26316629803123
 51
176.4159902084166
  0
ARC
  5
CD
100
AcDbEntity
  8
taranmis
  6
ByLayer
 62
  256
370
   -1
100
AcDbCircle
 10
319.0795672915763
 20
212.1480591494304
 40
75.78843766327256
100
AcDbArc
 50
39.85314468094936
 51
60.013461259232
  0
ARC
  5
CE
100
AcDbEntity
  8
taranmis
  6
ByLayer
 62
  256
370
   -1
100
AcDbCircle
 10
320.7269699891261
 20
195.085119047735
 40
86.62237062863299
100
AcDbArc
 50
49.25787081875382
 51
62.19711897335717
  0
ARC
  5
CF
100
AcDbEntity
  8
taranmis
  6
ByLayer
 62
  256
370
   -1
100
AcDbCircle
 10
351.826485484166
 20
254.8941923036117
 40
23.99815456971092
100
AcDbArc
 50
227.8203028419885
 51
323.9722833460376
  0
ARC
  5
D0
100
AcDbEntity
  8
taranmis
  6
ByLayer
 62
  256
370
   -1
100
AcDbCircle
 10
352.7537381127076
 20
245.9156729491969
 40
19.18140514684946
100
AcDbArc
 50
207.3255230330303
 51
344.4670631549958
  0
ARC
  5
D1
100
AcDbEntity
  8
taranmis
  6
ByLayer
 62
  256
370
   -1
100
AcDbCircle
 10
349.5763858424761
 20
247.9777414573199
 40
15.53480154871874
100
AcDbArc
 50
13.16588776442239
 51
145.4174498279279
  0
ARC
  5
D2
100
AcDbEntity
  8
taranmis
  6
ByLayer
 62
  256
370
   -1
100
AcDbCircle
 10
352.6686180699709
 20
260.6488106330191
 40
10.92669816278101
100
AcDbArc
 50
268.3563572100742
 51
333.7201695009317
  0
ARC
  5
D3
100
AcDbEntity
  8
taranmis
  6
ByLayer
 62
  256
370
   -1
100
AcDbCircle
 10
357.4667138668115
 20
270.3731883060209
 40
21.26990296269754
100
AcDbArc
 50
210.6890997616468
 51
256.0947840080716
  0
ARC
  5
D4
100
AcDbEntity
  8
taranmis
  6
ByLayer
 62
  256
370
   -1
100
AcDbCircle
 10
352.4867711398123
 20
265.262655623323
 40
12.47394980588523
100
AcDbArc
 50
200.8762704005694
 51
318.766262468995
  0
ARC
  5
D5
100
AcDbEntity
  8
taranmis
  6
ByLayer
 62
  256
370
   -1
100
AcDbCircle
 10
270.8660094267879
 20
343.0293419437318
 40
65.53017823760487
100
AcDbArc
 50
20.44121210770842
 51
59.61930643607095
  0
ARC
  5
D6
100
AcDbEntity
  8
taranmis
  6
ByLayer
 62
  256
370
   -1
100
AcDbCircle
 10
355.8658921333986
 20
372.3110588290861
 40
24.44744933361509
100
AcDbArc
 50
195.1652714787799
 51
245.5010117783422
  0
ARC
  5
D7
100
AcDbEntity
  8
taranmis
  6
ByLayer
 62
  256
370
   -1
100
AcDbCircle
 10
362.8768781419827
 20
426.9906217481171
 40
78.81425195537952
100
AcDbArc
 50
257.432782376458
 51
304.8690679605523
  0
ARC
  5
D8
100
AcDbEntity
  8
taranmis
  6
ByLayer
 62
  256
370
   -1
100
AcDbCircle
 10
378.1513731966229
 20
403.4653318990137
 40
50.78848817515674
100
AcDbArc
 50
305.9040181745988
 51
9.300785919751613
  0
ARC
  5
D9
100
AcDbEntity
  8
taranmis
  6
ByLayer
 62
  256
370
   -1
100
AcDbCircle
 10
376.4994206995092
 20
358.9459433341876
 40
73.89605466663109
100
AcDbArc
 50
327.5780630849413
 51
45.52356249199484
  0
ARC
  5
DA
100
AcDbEntity
  8
taranmis
  6
ByLayer
 62
  256
370
   -1
100
AcDbCircle
 10
369.075751904302
 20
349.3420725239504
 40
75.98098993624822
100
AcDbArc
 50
336.7315554651013
 51
28.28717401460202
  0
ARC
  5
DB
100
AcDbEntity
  8
taranmis
  6
ByLayer
 62
  256
370
   -1
100
AcDbCircle
 10
368.2723915503691
 20
410.459049584862
 40
72.21703277958963
100
AcDbArc
 50
237.8547316829934
 51
339.652960261983
  0
ARC
  5
DC
100
AcDbEntity
  8
taranmis
  6
ByLayer
 62
  256
370
   -1
100
AcDbCircle
 10
200.240186627598
 20
308.4986472698411
 40
138.0580677139728
100
AcDbArc
 50
30.24989824111875
 51
41.26906348253438
  0
ARC
  5
DD
100
AcDbEntity
  8
taranmis
  6
ByLayer
 62
  256
370
   -1
100
AcDbCircle
 10
311.6179733257972
 20
406.4874660100414
 40
25.45958365729356
100
AcDbArc
 50
82.20022418119073
 51
160.9104797706077
  0
ARC
  5
DE
100
AcDbEntity
  8
taranmis
  6
ByLayer
 62
  256
370
   -1
100
AcDbCircle
 10
292.6704147154837
 20
394.0896221084125
 40
80.32452642697278
100
AcDbArc
 50
105.4868906826352
 51
182.9767262560896
  0
ARC
  5
DF
100
AcDbEntity
  8
taranmis
  6
ByLayer
 62
  256
370
   -1
100
AcDbCircle
 10
208.6881419250443
 20
426.7217923688884
 40
76.91167465519439
100
AcDbArc
 50
341.5811800237709
 51
35.60352413117383
  0
ARC
  5
E0
100
AcDbEntity
  8
taranmis
  6
ByLayer
 62
  256
370
   -1
100
AcDbCircle
 10
227.1684832341538
 20
442.0545567914202
 40
67.38059724980351
100
AcDbArc
 50
284.6256710809731
 51
323.9700289727697
  0
ARC
  5
E1
100
AcDbEntity
  8
taranmis
  6
ByLayer
 62
  256
370
   -1
100
AcDbCircle
 10
245.9857375951683
 20
363.7040306089741
 40
13.27638145738116
100
AcDbArc
 50
97.80716887441369
 51
164.4792291544066
  0
ARC
  5
E2
100
AcDbEntity
  8
taranmis
  6
ByLayer
 62
  256
370
   -1
100
AcDbCircle
 10
259.7474978565301
 20
362.834810234007
 40
26.91964541787213
100
AcDbArc
 50
100.0340127435823
 51
170.5457601835705
  0
ARC
  5
E3
100
AcDbEntity
  8
taranmis
  6
ByLayer
 62
  256
370
   -1
100
AcDbCircle
 10
243.6893290618574
 20
418.8038615332459
 40
31.57829126724647
100
AcDbArc
 50
291.0996120894746
 51
9.352553298082675
  0
LINE
  5
E4
100
AcDbEntity
  8
taranmis
  6
ByLayer
 62
  256
370
   -1
100
AcDbLine
 10
274.8478524318679
 20
423.9356156933326
 11
266.174742833909
 21
455.7868630099746
  0
ARC
  5
E5
100
AcDbEntity
  8
taranmis
  6
ByLayer
 62
  256
370
   -1
100
AcDbCircle
 10
300.3246597885027
 20
373.0944729551233
 40
89.46646411359575
100
AcDbArc
 50
112.4394176689404
 51
169.1611871420805
  0
ARC
  5
E6
100
AcDbEntity
  8
taranmis
  6
ByLayer
 62
  256
370
   -1
100
AcDbCircle
 10
294.675216770456
 20
398.3377140945376
 40
62.10908258236942
100
AcDbArc
 50
122.2451041514363
 51
190.1151576642093
  0
ARC
  5
E7
100
AcDbEntity
  8
taranmis
  6
ByLayer
 62
  256
370
   -1
100
AcDbCircle
 10
363.016291693694
 20
368.1673946996526
 40
130.9096777464402
100
AcDbArc
 50
140.8215837817591
 51
171.5386780338866
  0
CIRCLE
  5
E8
100
AcDbEntity
  8
taranmis
  6
ByLayer
 62
  256
370
   -1
100
AcDbCircle
 10
347.9974406636155
 20
259.3110174056077
 40
1.991514348490468
  0
ARC
  5
E9
100
AcDbEntity
  8
taranmis
  6
ByLayer
 62
  256
370
   -1
100
AcDbCircle
 10
294.3812279664866
 20
358.4160870304956
 40
31.88060112412597
100
AcDbArc
 50
5.591979604170276
 51
38.0108393685335
  0
ARC
  5
EA
100
AcDbEntity
  8
taranmis
  6
ByLayer
 62
  256
370
   -1
100
AcDbCircle
 10
341.0878389232142
 20
359.4308123425354
 40
15.12309852817132
100
AcDbArc
 50
172.0493268139217
 51
221.9935102725103
  0
ARC
  5
EB
100
AcDbEntity
  8
taranmis
  6
ByLayer
 62
  256
370
   -1
100
AcDbCircle
 10
313.3216415185877
 20
385.5442519626645
 40
38.99300528798278
100
AcDbArc
 50
70.93713928478455
 51
131.3542962721453
  0
ARC
  5
EC
100
AcDbEntity
  8
taranmis
  6
ByLayer
 62
  256
370
   -1
100
AcDbCircle
 10
346.5124630244646
 20
483.0361506151423
 40
63.99454707147905
100
AcDbArc
 50
251.3585786848793
 51
287.6597418286788
  0
ARC
  5
ED
100
AcDbEntity
  8
taranmis
  6
ByLayer
 62
  256
370
   -1
100
AcDbCircle
 10
325.9853457909078
 20
427.6563609693214
 40
40.33126711587547
100
AcDbArc
 50
266.9578287820315
 51
352.0201144177838
  0
ARC
  5
EE
100
AcDbEntity
  8
taranmis
  6
ByLayer
 62
  256
370
   -1
100
AcDbCircle
 10
336.7264688678962
 20
424.723096618316
 40
39.50059216431551
100
AcDbArc
 50
250.9671562567228
 51
316.3698706060672
  0
ARC
  5
EF
100
AcDbEntity
  8
taranmis
  6
ByLayer
 62
  256
370
   -1
100
AcDbCircle
 10
306.4991133677091
 20
443.1261260450358
 40
74.45992053818746
100
AcDbArc
 50
322.1791201020704
 51
14.38031951735099
  0
ARC
  5
F0
100
AcDbEntity
  8
taranmis
  6
ByLayer
 62
  256
370
   -1
100
AcDbCircle
 10
349.3975402204665
 20
460.4722989348085
 40
29.25103124363946
100
AcDbArc
 50
289.5511908250846
 51
2.246260786420931
  0
ARC
  5
F1
100
AcDbEntity
  8
taranmis
  6
ByLayer
 62
  256
370
   -1
100
AcDbCircle
 10
334.2416209454429
 20
538.8094677618245
 40
108.7998344629459
100
AcDbArc
 50
259.8525965901267
 51
283.25420965821
  0
ARC
  5
F2
100
AcDbEntity
  8
taranmis
  6
ByLayer
 62
  256
370
   -1
100
AcDbCircle
 10
655.0393959431258
 20
5.130333330631657
 40
133.552063654229
100
AcDbArc
 50
343.5996365606314
 51
66.05187517975153
  0
ARC
  5
F3
100
AcDbEntity
  8
taranmis
  6
ByLayer
 62
  256
370
   -1
100
AcDbCircle
 10
667.623760408862
 20
-13.69376593047765
 40
117.0668802501174
100
AcDbArc
 50
350.7170886812707
 51
63.55661420739136
  0
ARC
  5
F4
100
AcDbEntity
  8
taranmis
  6
ByLayer
 62
  256
370
   -1
100
AcDbCircle
 10
230.639179357851
 20
256.4243786044075
 40
164.3511087803085
100
AcDbArc
 50
103.0289982817525
 51
248.3019603284829
  0
ARC
  5
F5
100
AcDbEntity
  8
taranmis
  6
ByLayer
 62
  256
370
   -1
100
AcDbCircle
 10
378.2694857832446
 20
526.2646005495978
 40
471.1402624639402
100
AcDbArc
 50
243.7481882177107
 51
301.274947328791
  0
ARC
  5
F6
100
AcDbEntity
  8
taranmis
  6
ByLayer
 62
  256
370
   -1
100
AcDbCircle
 10
376.3002697955097
 20
536.780902879838
 40
513.0403011045673
100
AcDbArc
 50
241.3621265182798
 51
299.7353966162946
  0
ARC
  5
F7
100
AcDbEntity
  8
taranmis
  6
ByLayer
 62
  256
370
   -1
100
AcDbCircle
 10
221.4011903617831
 20
240.1538186314408
 40
178.5700785424194
100
AcDbArc
 50
98.96085521934138
 51
239.3674647104765
  0
ARC
  5
F8
100
AcDbEntity
  8
taranmis
  6
ByLayer
 62
  256
370
   -1
100
AcDbCircle
 10
669.9529993938874
 20
31.77650543365299
 40
103.1845732967135
100
AcDbArc
 50
67.61450657491461
 51
117.15489377585
  0
ARC
  5
F9
100
AcDbEntity
  8
taranmis
  6
ByLayer
 62
  256
370
   -1
100
AcDbCircle
 10
675.0776230068384
 20
-4.474900254942199
 40
105.5245048769856
100
AcDbArc
 50
64.95146745043772
 51
114.8295216351272
  0
ARC
  5
FA
100
AcDbEntity
  8
turkuaz
  6
ByLayer
 62
  256
370
   -1
100
AcDbCircle
 10
1019.933733847095
 20
907.1446103247663
 40
163.6142458818467
100
AcDbArc
 50
280.1835484276883
 51
12.72660483929426
  0
ARC
  5
FB
100
AcDbEntity
  8
turkuaz
  6
ByLayer
 62
  256
370
   -1
100
AcDbCircle
 10
1034.646997574234
 20
833.0455396336383
 40
181.9948460376937
100
AcDbArc
 50
311.5932082813894
 51
37.24318415417639
  0
ARC
  5
FC
100
AcDbEntity
  8
turkuaz
  6
ByLayer
 62
  256
370
   -1
100
AcDbCircle
 10
1048.690493673171
 20
890.8889665110005
 40
144.7811915488732
100
AcDbArc
 50
270.0675087813216
 51
355.636767891819
  0
ARC
  5
FD
100
AcDbEntity
  8
turkuaz
  6
ByLayer
 62
  256
370
   -1
100
AcDbCircle
 10
1021.918655222219
 20
819.7073843739888
 40
181.4020001536742
100
AcDbArc
 50
317.4064743991837
 51
19.37055275303938
  0
ARC
  5
FE
100
AcDbEntity
  8
turkuaz
  6
ByLayer
 62
  256
370
   -1
100
AcDbCircle
 10
1112.258261323997
 20
652.620334610785
 40
57.11128406947489
100
AcDbArc
 50
333.3991361042209
 51
84.13616257346668
  0
ARC
  5
FF
100
AcDbEntity
  8
turkuaz
  6
ByLayer
 62
  256
370
   -1
100
AcDbCircle
 10
1103.381290335253
 20
655.6716166797693
 40
55.73776129661317
100
AcDbArc
 50
332.1486659280453
 51
74.6956994010086
  0
ARC
  5
100
100
AcDbEntity
  8
turkuaz
  6
ByLayer
 62
  256
370
   -1
100
AcDbCircle
 10
1106.650449838423
 20
557.5615314573538
 40
85.5060254748585
100
AcDbArc
 50
57.44457455063064
 51
105.4675876277713
  0
ARC
  5
101
100
AcDbEntity
  8
turkuaz
  6
ByLayer
 62
  256
370
   -1
100
AcDbCircle
 10
1083.85253981063
 20
524.5710946662329
 40
115.3995604235648
100
AcDbArc
 50
52.18788622102387
 51
90.00296209375281
  0
LINE
  5
102
100
AcDbEntity
  8
turkuaz
  6
ByLayer
 62
  256
370
   -1
100
AcDbLine
 10
1154.601021311804
 20
615.7396797777174
 11
1163.324172368636
 21
627.0474681847212
  0
ARC
  5
103
100
AcDbEntity
  8
turkuaz
  6
ByLayer
 62
  256
370
   -1
100
AcDbCircle
 10
1114.028185792404
 20
658.3495466111995
 40
18.37701904484492
100
AcDbArc
 50
67.49525533135522
 51
147.7736668219626
  0
ARC
  5
104
100
AcDbEntity
  8
turkuaz
  6
ByLayer
 62
  256
370
   -1
100
AcDbCircle
 10
1111.860406948976
 20
698.0063170281493
 40
32.71718557050403
100
AcDbArc
 50
245.8639214119762
 51
286.6080088582122
  0
ARC
  5
105
100
AcDbEntity
  8
turkuaz
  6
ByLayer
 62
  256
370
   -1
100
AcDbCircle
 10
1061.90425983114
 20
1017.710909532026
 40
405.2150263301761
100
AcDbArc
 50
264.062703200673
 51
280.0223174753958
  0
ARC
  5
106
100
AcDbEntity
  8
turkuaz
  6
ByLayer
 62
  256
370
   -1
100
AcDbCircle
 10
881.5674783119623
 20
677.1738240828346
 40
45.64736828199315
100
AcDbArc
 50
128.8929803695413
 51
212.4456825612619
  0
ARC
  5
107
100
AcDbEntity
  8
turkuaz
  6
ByLayer
 62
  256
370
   -1
100
AcDbCircle
 10
901.8797057253385
 20
681.6435979659871
 40
57.99102184731204
100
AcDbArc
 50
147.6171461309552
 51
213.918841752937
  0
ARC
  5
108
100
AcDbEntity
  8
turkuaz
  6
ByLayer
 62
  256
370
   -1
100
AcDbCircle
 10
913.845653760627
 20
709.4175751218093
 40
90.72671981772189
100
AcDbArc
 50
218.7059401046154
 51
253.5156934004669
  0
ARC
  5
109
100
AcDbEntity
  8
turkuaz
  6
ByLayer
 62
  256
370
   -1
100
AcDbCircle
 10
924.4890146512211
 20
704.3267165525981
 40
89.62563708031769
100
AcDbArc
 50
217.889834805744
 51
246.046678677013
  0
ARC
  5
10A
100
AcDbEntity
  8
turkuaz
  6
ByLayer
 62
  256
370
   -1
100
AcDbCircle
 10
1034.44632407652
 20
848.5298015988687
 40
243.2853719516978
100
AcDbArc
 50
223.4958562427229
 51
268.81912265355
  0
ARC
  5
10B
100
AcDbEntity
  8
turkuaz
  6
ByLayer
 62
  256
370
   -1
100
AcDbCircle
 10
997.0207396878591
 20
763.8448695765667
 40
161.8277975029525
100
AcDbArc
 50
210.7613174585715
 51
281.5536614377015
  0
ARC
  5
10C
100
AcDbEntity
  8
turkuaz
  6
ByLayer
 62
  256
370
   -1
100
AcDbCircle
 10
997.5592945423122
 20
696.6287094237261
 40
28.68493127473744
100
AcDbArc
 50
59.65714047628207
 51
155.1712527543354
  0
ARC
  5
10D
100
AcDbEntity
  8
turkuaz
  6
ByLayer
 62
  256
370
   -1
100
AcDbCircle
 10
995.3314377130102
 20
707.1826731186709
 40
23.85228762436997
100
AcDbArc
 50
58.26316629803123
 51
176.4159902084166
  0
ARC
  5
10E
100
AcDbEntity
  8
turkuaz
  6
ByLayer
 62
  256
370
   -1
100
AcDbCircle
 10
969.9993849885536
 20
661.8247891785776
 40
75.78843766327256
100
AcDbArc
 50
39.85314468094936
 51
60.013461259232
  0
ARC
  5
10F
100
AcDbEntity
  8
turkuaz
  6
ByLayer
 62
  256
370
   -1
100
AcDbCircle
 10
971.6467876861034
 20
644.7618490768822
 40
86.62237062863299
100
AcDbArc
 50
49.25787081875382
 51
62.19711897335717
  0
ARC
  5
110
100
AcDbEntity
  8
turkuaz
  6
ByLayer
 62
  256
370
   -1
100
AcDbCircle
 10
1002.746303181143
 20
704.5709223327589
 40
23.99815456971092
100
AcDbArc
 50
227.8203028419885
 51
323.9722833460376
  0
ARC
  5
111
100
AcDbEntity
  8
turkuaz
  6
ByLayer
 62
  256
370
   -1
100
AcDbCircle
 10
1003.673555809685
 20
695.5924029783441
 40
19.18140514684946
100
AcDbArc
 50
207.3255230330303
 51
344.4670631549958
  0
ARC
  5
112
100
AcDbEntity
  8
turkuaz
  6
ByLayer
 62
  256
370
   -1
100
AcDbCircle
 10
921.7858271237653
 20
792.706071972879
 40
65.53017823760487
100
AcDbArc
 50
20.44121210770842
 51
59.61930643607095
  0
ARC
  5
113
100
AcDbEntity
  8
turkuaz
  6
ByLayer
 62
  256
370
   -1
100
AcDbCircle
 10
1006.785709830376
 20
821.9877888582332
 40
24.44744933361509
100
AcDbArc
 50
195.1652714787799
 51
245.5010117783422
  0
ARC
  5
114
100
AcDbEntity
  8
turkuaz
  6
ByLayer
 62
  256
370
   -1
100
AcDbCircle
 10
1013.79669583896
 20
876.6673517772642
 40
78.81425195537952
100
AcDbArc
 50
257.432782376458
 51
304.8690679605523
  0
ARC
  5
115
100
AcDbEntity
  8
turkuaz
  6
ByLayer
 62
  256
370
   -1
100
AcDbCircle
 10
1029.0711908936
 20
853.1420619281608
 40
50.78848817515674
100
AcDbArc
 50
305.9040181745988
 51
9.300785919751613
  0
ARC
  5
116
100
AcDbEntity
  8
turkuaz
  6
ByLayer
 62
  256
370
   -1
100
AcDbCircle
 10
1027.419238396486
 20
808.6226733633348
 40
73.89605466663109
100
AcDbArc
 50
327.5780630849413
 51
45.52356249199484
  0
ARC
  5
117
100
AcDbEntity
  8
turkuaz
  6
ByLayer
 62
  256
370
   -1
100
AcDbCircle
 10
1019.995569601279
 20
799.0188025530975
 40
75.98098993624822
100
AcDbArc
 50
336.7315554651013
 51
28.28717401460202
  0
ARC
  5
118
100
AcDbEntity
  8
turkuaz
  6
ByLayer
 62
  256
370
   -1
100
AcDbCircle
 10
1019.192209247346
 20
860.1357796140092
 40
72.21703277958963
100
AcDbArc
 50
237.8547316829934
 51
339.652960261983
  0
ARC
  5
119
100
AcDbEntity
  8
turkuaz
  6
ByLayer
 62
  256
370
   -1
100
AcDbCircle
 10
851.1600043245753
 20
758.1753772989882
 40
138.0580677139728
100
AcDbArc
 50
30.24989824111875
 51
41.26906348253438
  0
ARC
  5
11A
100
AcDbEntity
  8
turkuaz
  6
ByLayer
 62
  256
370
   -1
100
AcDbCircle
 10
962.5377910227746
 20
856.1641960391885
 40
25.45958365729356
100
AcDbArc
 50
82.20022418119073
 51
160.9104797706077
  0
ARC
  5
11B
100
AcDbEntity
  8
turkuaz
  6
ByLayer
 62
  256
370
   -1
100
AcDbCircle
 10
943.5902324124611
 20
843.7663521375597
 40
80.32452642697278
100
AcDbArc
 50
105.4868906826352
 51
182.9767262560896
  0
ARC
  5
11C
100
AcDbEntity
  8
turkuaz
  6
ByLayer
 62
  256
370
   -1
100
AcDbCircle
 10
859.6079596220217
 20
876.3985223980355
 40
76.91167465519439
100
AcDbArc
 50
341.5811800237709
 51
35.60352413117383
  0
ARC
  5
11D
100
AcDbEntity
  8
turkuaz
  6
ByLayer
 62
  256
370
   -1
100
AcDbCircle
 10
878.0883009311311
 20
891.7312868205674
 40
67.38059724980351
100
AcDbArc
 50
284.6256710809731
 51
323.9700289727697
  0
ARC
  5
11E
100
AcDbEntity
  8
turkuaz
  6
ByLayer
 62
  256
370
   -1
100
AcDbCircle
 10
896.9055552921457
 20
813.3807606381213
 40
13.27638145738116
100
AcDbArc
 50
97.80716887441369
 51
164.4792291544066
  0
ARC
  5
11F
100
AcDbEntity
  8
turkuaz
  6
ByLayer
 62
  256
370
   -1
100
AcDbCircle
 10
910.6673155535075
 20
812.5115402631542
 40
26.91964541787213
100
AcDbArc
 50
100.0340127435823
 51
170.5457601835705
  0
ARC
  5
120
100
AcDbEntity
  8
turkuaz
  6
ByLayer
 62
  256
370
   -1
100
AcDbCircle
 10
894.6091467588348
 20
868.4805915623931
 40
31.57829126724647
100
AcDbArc
 50
291.0996120894746
 51
9.352553298082675
  0
LINE
  5
121
100
AcDbEntity
  8
turkuaz
  6
ByLayer
 62
  256
370
   -1
100
AcDbLine
 10
925.7676701288453
 20
873.6123457224797
 11
917.0945605308864
 21
905.4635930391217
  0
ARC
  5
122
100
AcDbEntity
  8
turkuaz
  6
ByLayer
 62
  256
370
   -1
100
AcDbCircle
 10
951.24447748548
 20
822.7712029842705
 40
89.46646411359575
100
AcDbArc
 50
112.4394176689404
 51
169.1611871420805
  0
ARC
  5
123
100
AcDbEntity
  8
turkuaz
  6
ByLayer
 62
  256
370
   -1
100
AcDbCircle
 10
945.5950344674334
 20
848.0144441236848
 40
62.10908258236942
100
AcDbArc
 50
122.2451041514363
 51
190.1151576642093
  0
ARC
  5
124
100
AcDbEntity
  8
turkuaz
  6
ByLayer
 62
  256
370
   -1
100
AcDbCircle
 10
1013.936109390671
 20
817.8441247287998
 40
130.9096777464402
100
AcDbArc
 50
140.8215837817591
 51
171.5386780338866
  0
CIRCLE
  5
125
100
AcDbEntity
  8
turkuaz
  6
ByLayer
 62
  256
370
   -1
100
AcDbCircle
 10
998.9172583605929
 20
708.9877474347549
 40
1.991514348490468
  0
ARC
  5
126
100
AcDbEntity
  8
turkuaz
  6
ByLayer
 62
  256
370
   -1
100
AcDbCircle
 10
945.301045663464
 20
808.0928170596428
 40
31.88060112412597
100
AcDbArc
 50
5.591979604170276
 51
38.0108393685335
  0
ARC
  5
127
100
AcDbEntity
  8
turkuaz
  6
ByLayer
 62
  256
370
   -1
100
AcDbCircle
 10
992.0076566201915
 20
809.1075423716825
 40
15.12309852817132
100
AcDbArc
 50
172.0493268139217
 51
221.9935102725103
  0
ARC
  5
128
100
AcDbEntity
  8
turkuaz
  6
ByLayer
 62
  256
370
   -1
100
AcDbCircle
 10
964.2414592155651
 20
835.2209819918116
 40
38.99300528798278
100
AcDbArc
 50
70.93713928478455
 51
131.3542962721453
  0
ARC
  5
129
100
AcDbEntity
  8
turkuaz
  6
ByLayer
 62
  256
370
   -1
100
AcDbCircle
 10
997.4322807214419
 20
932.7128806442895
 40
63.99454707147905
100
AcDbArc
 50
251.3585786848793
 51
287.6597418286788
  0
ARC
  5
12A
100
AcDbEntity
  8
turkuaz
  6
ByLayer
 62
  256
370
   -1
100
AcDbCircle
 10
976.9051634878851
 20
877.3330909984686
 40
40.33126711587547
100
AcDbArc
 50
266.9578287820315
 51
352.0201144177838
  0
ARC
  5
12B
100
AcDbEntity
  8
turkuaz
  6
ByLayer
 62
  256
370
   -1
100
AcDbCircle
 10
987.6462865648735
 20
874.3998266474632
 40
39.50059216431551
100
AcDbArc
 50
250.9671562567228
 51
316.3698706060672
  0
ARC
  5
12C
100
AcDbEntity
  8
turkuaz
  6
ByLayer
 62
  256
370
   -1
100
AcDbCircle
 10
957.4189310646865
 20
892.802856074183
 40
74.45992053818746
100
AcDbArc
 50
322.1791201020704
 51
14.38031951735099
  0
ARC
  5
12D
100
AcDbEntity
  8
turkuaz
  6
ByLayer
 62
  256
370
   -1
100
AcDbCircle
 10
1000.317357917444
 20
910.1490289639557
 40
29.25103124363946
100
AcDbArc
 50
289.5511908250846
 51
2.246260786420931
  0
ARC
  5
12E
100
AcDbEntity
  8
turkuaz
  6
ByLayer
 62
  256
370
   -1
100
AcDbCircle
 10
985.1614386424203
 20
988.4861977909717
 40
108.7998344629459
100
AcDbArc
 50
259.8525965901267
 51
283.25420965821
  0
ARC
  5
12F
100
AcDbEntity
  8
turkuaz
  6
ByLayer
 62
  256
370
   -1
100
AcDbCircle
 10
1072.456454038858
 20
721.8298805687823
 40
119.3154789350961
100
AcDbArc
 50
243.9127840187492
 51
300.1722366573196
  0
ARC
  5
130
100
AcDbEntity
  8
turkuaz
  6
ByLayer
 62
  256
370
   -1
100
AcDbCircle
 10
1118.123154221443
 20
670.9385993146402
 40
5.281752211533464
100
AcDbArc
 50
305.7859992516622
 51
416.1895215476146
  0
ARC
  5
131
100
AcDbEntity
  8
turkuaz
  6
ByLayer
 62
  256
370
   -1
100
AcDbCircle
 10
995.8002001271987
 20
705.5165444330152
 40
6.416354780475508
100
AcDbArc
 50
129.1233997957449
 51
143.6992328810891
  0
ARC
  5
132
100
AcDbEntity
  8
turkuaz
  6
ByLayer
 62
  256
370
   -1
100
AcDbCircle
 10
1003.655062795833
 20
714.3719631190316
 40
13.97304544375936
100
AcDbArc
 50
201.2166534982703
 51
321.853259248778
  0
ARC
  5
133
100
AcDbEntity
  8
turkuaz
  6
ByLayer
 62
  256
370
   -1
100
AcDbCircle
 10
1003.632110731271
 20
715.7918056839208
 40
13.00815284555778
100
AcDbArc
 50
204.0319837878897
 51
320.9810860368382
  0
ARC
  5
134
100
AcDbEntity
  8
turkuaz
  6
ByLayer
 62
  256
370
   -1
100
AcDbCircle
 10
1006.427250446963
 20
702.8950219772109
 40
8.695614258592736
100
AcDbArc
 50
19.10517985026448
 51
32.77386541195876
  0
CIRCLE
  5
135
100
AcDbEntity
  8
turkuaz
  6
ByLayer
 62
  256
370
   -1
100
AcDbCircle
 10
998.5164274298699
 20
709.3832040123685
 40
0.6408385555025035
  0
ARC
  5
136
100
AcDbEntity
  8
turkuaz
  6
ByLayer
 62
  256
370
  100
100
AcDbCircle
 10
1001.391048314781
 20
698.7542306895253
 40
15.19042910918484
100
AcDbArc
 50
35.62433307644973
 51
129.3887367482781
  0
CIRCLE
  5
137
100
AcDbEntity
  8
turkuaz
  6
ByLayer
 62
  256
370
   -1
100
AcDbCircle
 10
1026.569790601649
 20
771.3275745440293
 40
275
  0
CIRCLE
  5
138
100
AcDbEntity
  8
turkuaz
  6
ByLayer
 62
  256
370
   -1
100
AcDbCircle
 10
1026.569790601649
 20
771.3275745440293
 40
285
  0
ARC
  5
139
100
AcDbEntity
  8
turkuaz
  6
ByLayer
 62
  256
370
   -1
100
AcDbCircle
 10
380.066266152905
 20
907.1446103247663
 40
163.6142458818467
100
AcDbArc
 50
167.2733951607057
 51
259.8164515723117
  0
ARC
  5
13A
100
AcDbEntity
  8
turkuaz
  6
ByLayer
 62
  256
370
   -1
100
AcDbCircle
 10
365.3530024257664
 20
833.0455396336383
 40
181.9948460376937
100
AcDbArc
 50
142.7568158458236
 51
228.4067917186105
  0
ARC
  5
13B
100
AcDbEntity
  8
turkuaz
  6
ByLayer
 62
  256
370
   -1
100
AcDbCircle
 10
351.3095063268288
 20
890.8889665110005
 40
144.7811915488732
100
AcDbArc
 50
184.363232108181
 51
269.9324912186784
  0
ARC
  5
13C
100
AcDbEntity
  8
turkuaz
  6
ByLayer
 62
  256
370
   -1
100
AcDbCircle
 10
378.0813447777808
 20
819.7073843739888
 40
181.4020001536742
100
AcDbArc
 50
160.6294472469606
 51
222.5935256008163
  0
ARC
  5
13D
100
AcDbEntity
  8
turkuaz
  6
ByLayer
 62
  256
370
   -1
100
AcDbCircle
 10
287.741738676003
 20
652.620334610785
 40
57.11128406947489
100
AcDbArc
 50
95.86383742653332
 51
206.6008638957791
  0
ARC
  5
13E
100
AcDbEntity
  8
turkuaz
  6
ByLayer
 62
  256
370
   -1
100
AcDbCircle
 10
296.6187096647475
 20
655.6716166797693
 40
55.73776129661317
100
AcDbArc
 50
105.3043005989914
 51
207.8513340719547
  0
ARC
  5
13F
100
AcDbEntity
  8
turkuaz
  6
ByLayer
 62
  256
370
   -1
100
AcDbCircle
 10
293.3495501615773
 20
557.5615314573538
 40
85.5060254748585
100
AcDbArc
 50
74.53241237222871
 51
122.5554254493694
  0
ARC
  5
140
100
AcDbEntity
  8
turkuaz
  6
ByLayer
 62
  256
370
   -1
100
AcDbCircle
 10
316.1474601893701
 20
524.5710946662329
 40
115.3995604235648
100
AcDbArc
 50
89.99703790624719
 51
127.8121137789761
  0
LINE
  5
141
100
AcDbEntity
  8
turkuaz
  6
ByLayer
 62
  256
370
   -1
100
AcDbLine
 10
245.3989786881957
 20
615.7396797777174
 11
236.6758276313644
 21
627.0474681847212
  0
ARC
  5
142
100
AcDbEntity
  8
turkuaz
  6
ByLayer
 62
  256
370
   -1
100
AcDbCircle
 10
285.9718142075958
 20
658.3495466111995
 40
18.37701904484492
100
AcDbArc
 50
32.22633317803741
 51
112.5047446686448
  0
ARC
  5
143
100
AcDbEntity
  8
turkuaz
  6
ByLayer
 62
  256
370
   -1
100
AcDbCircle
 10
288.1395930510237
 20
698.0063170281493
 40
32.71718557050403
100
AcDbArc
 50
253.3919911417878
 51
294.1360785880238
  0
ARC
  5
144
100
AcDbEntity
  8
turkuaz
  6
ByLayer
 62
  256
370
   -1
100
AcDbCircle
 10
338.0957401688602
 20
1017.710909532026
 40
405.2150263301761
100
AcDbArc
 50
259.9776825246042
 51
275.937296799327
  0
ARC
  5
145
100
AcDbEntity
  8
turkuaz
  6
ByLayer
 62
  256
370
   -1
100
AcDbCircle
 10
518.4325216880377
 20
677.1738240828346
 40
45.64736828199315
100
AcDbArc
 50
327.5543174387381
 51
51.10701963045868
  0
ARC
  5
146
100
AcDbEntity
  8
turkuaz
  6
ByLayer
 62
  256
370
   -1
100
AcDbCircle
 10
498.1202942746615
 20
681.6435979659871
 40
57.99102184731204
100
AcDbArc
 50
326.0811582470629
 51
32.38285386904477
  0
ARC
  5
147
100
AcDbEntity
  8
turkuaz
  6
ByLayer
 62
  256
370
   -1
100
AcDbCircle
 10
486.154346239373
 20
709.4175751218093
 40
90.72671981772189
100
AcDbArc
 50
286.4843065995331
 51
321.2940598953846
  0
ARC
  5
148
100
AcDbEntity
  8
turkuaz
  6
ByLayer
 62
  256
370
   -1
100
AcDbCircle
 10
475.5109853487789
 20
704.3267165525981
 40
89.62563708031769
100
AcDbArc
 50
293.953321322987
 51
322.1101651942561
  0
ARC
  5
149
100
AcDbEntity
  8
turkuaz
  6
ByLayer
 62
  256
370
   -1
100
AcDbCircle
 10
365.5536759234797
 20
848.5298015988687
 40
243.2853719516978
100
AcDbArc
 50
271.18087734645
 51
316.5041437572771
  0
ARC
  5
14A
100
AcDbEntity
  8
turkuaz
  6
ByLayer
 62
  256
370
   -1
100
AcDbCircle
 10
402.9792603121409
 20
763.8448695765667
 40
161.8277975029525
100
AcDbArc
 50
258.4463385622985
 51
329.2386825414285
  0
ARC
  5
14B
100
AcDbEntity
  8
turkuaz
  6
ByLayer
 62
  256
370
   -1
100
AcDbCircle
 10
402.4407054576878
 20
696.6287094237261
 40
28.68493127473744
100
AcDbArc
 50
24.82874724566461
 51
120.3428595237179
  0
ARC
  5
14C
100
AcDbEntity
  8
turkuaz
  6
ByLayer
 62
  256
370
   -1
100
AcDbCircle
 10
404.6685622869898
 20
707.1826731186709
 40
23.85228762436997
100
AcDbArc
 50
3.584009791583401
 51
121.7368337019687
  0
ARC
  5
14D
100
AcDbEntity
  8
turkuaz
  6
ByLayer
 62
  256
370
   -1
100
AcDbCircle
 10
430.0006150114464
 20
661.8247891785776
 40
75.78843766327256
100
AcDbArc
 50
119.986538740768
 51
140.1468553190506
  0
ARC
  5
14E
100
AcDbEntity
  8
turkuaz
  6
ByLayer
 62
  256
370
   -1
100
AcDbCircle
 10
428.3532123138966
 20
644.7618490768822
 40
86.62237062863299
100
AcDbArc
 50
117.8028810266428
 51
130.7421291812462
  0
ARC
  5
14F
100
AcDbEntity
  8
turkuaz
  6
ByLayer
 62
  256
370
   -1
100
AcDbCircle
 10
397.2536968188566
 20
704.5709223327589
 40
23.99815456971092
100
AcDbArc
 50
216.0277166539624
 51
312.1796971580115
  0
ARC
  5
150
100
AcDbEntity
  8
turkuaz
  6
ByLayer
 62
  256
370
   -1
100
AcDbCircle
 10
396.326444190315
 20
695.5924029783441
 40
19.18140514684946
100
AcDbArc
 50
195.5329368450042
 51
332.6744769669697
  0
ARC
  5
151
100
AcDbEntity
  8
turkuaz
  6
ByLayer
 62
  256
370
   -1
100
AcDbCircle
 10
478.2141728762347
 20
792.706071972879
 40
65.53017823760487
100
AcDbArc
 50
120.380693563929
 51
159.5587878922916
  0
ARC
  5
152
100
AcDbEntity
  8
turkuaz
  6
ByLayer
 62
  256
370
   -1
100
AcDbCircle
 10
393.2142901696241
 20
821.9877888582332
 40
24.44744933361509
100
AcDbArc
 50
294.4989882216578
 51
344.8347285212201
  0
ARC
  5
153
100
AcDbEntity
  8
turkuaz
  6
ByLayer
 62
  256
370
   -1
100
AcDbCircle
 10
386.20330416104
 20
876.6673517772642
 40
78.81425195537952
100
AcDbArc
 50
235.1309320394477
 51
282.567217623542
  0
ARC
  5
154
100
AcDbEntity
  8
turkuaz
  6
ByLayer
 62
  256
370
   -1
100
AcDbCircle
 10
370.9288091063997
 20
853.1420619281608
 40
50.78848817515674
100
AcDbArc
 50
170.6992140802484
 51
234.0959818254012
  0
ARC
  5
155
100
AcDbEntity
  8
turkuaz
  6
ByLayer
 62
  256
370
   -1
100
AcDbCircle
 10
372.5807616035136
 20
808.6226733633348
 40
73.89605466663109
100
AcDbArc
 50
134.4764375080051
 51
212.4219369150587
  0
ARC
  5
156
100
AcDbEntity
  8
turkuaz
  6
ByLayer
 62
  256
370
   -1
100
AcDbCircle
 10
380.0044303987206
 20
799.0188025530978
 40
75.98098993624822
100
AcDbArc
 50
151.712825985398
 51
203.2684445348987
  0
ARC
  5
157
100
AcDbEntity
  8
turkuaz
  6
ByLayer
 62
  256
370
   -1
100
AcDbCircle
 10
380.8077907526535
 20
860.1357796140092
 40
72.21703277958963
100
AcDbArc
 50
200.3470397380169
 51
302.1452683170066
  0
ARC
  5
158
100
AcDbEntity
  8
turkuaz
  6
ByLayer
 62
  256
370
   -1
100
AcDbCircle
 10
548.8399956754247
 20
758.1753772989882
 40
138.0580677139728
100
AcDbArc
 50
138.7309365174656
 51
149.7501017588812
  0
ARC
  5
159
100
AcDbEntity
  8
turkuaz
  6
ByLayer
 62
  256
370
   -1
100
AcDbCircle
 10
437.4622089772254
 20
856.1641960391885
 40
25.45958365729356
100
AcDbArc
 50
19.08952022939228
 51
97.79977581880927
  0
ARC
  5
15A
100
AcDbEntity
  8
turkuaz
  6
ByLayer
 62
  256
370
   -1
100
AcDbCircle
 10
456.4097675875389
 20
843.7663521375599
 40
80.32452642697278
100
AcDbArc
 50
357.0232737439105
 51
74.51310931736481
  0
ARC
  5
15B
100
AcDbEntity
  8
turkuaz
  6
ByLayer
 62
  256
370
   -1
100
AcDbCircle
 10
540.3920403779783
 20
876.3985223980355
 40
76.91167465519439
100
AcDbArc
 50
144.3964758688262
 51
198.4188199762291
  0
ARC
  5
15C
100
AcDbEntity
  8
turkuaz
  6
ByLayer
 62
  256
370
   -1
100
AcDbCircle
 10
521.9116990688689
 20
891.7312868205674
 40
67.38059724980351
100
AcDbArc
 50
216.0299710272303
 51
255.3743289190269
  0
ARC
  5
15D
100
AcDbEntity
  8
turkuaz
  6
ByLayer
 62
  256
370
   -1
100
AcDbCircle
 10
503.0944447078543
 20
813.3807606381213
 40
13.27638145738116
100
AcDbArc
 50
15.52077084559341
 51
82.19283112558631
  0
ARC
  5
15E
100
AcDbEntity
  8
turkuaz
  6
ByLayer
 62
  256
370
   -1
100
AcDbCircle
 10
489.3326844464925
 20
812.5115402631542
 40
26.91964541787213
100
AcDbArc
 50
9.454239816429498
 51
79.9659872564177
  0
ARC
  5
15F
100
AcDbEntity
  8
turkuaz
  6
ByLayer
 62
  256
370
   -1
100
AcDbCircle
 10
505.3908532411652
 20
868.4805915623931
 40
31.57829126724647
100
AcDbArc
 50
170.6474467019173
 51
248.9003879105254
  0
LINE
  5
160
100
AcDbEntity
  8
turkuaz
  6
ByLayer
 62
  256
370
   -1
100
AcDbLine
 10
474.2323298711547
 20
873.6123457224795
 11
482.9054394691136
 21
905.463593039122
  0
ARC
  5
161
100
AcDbEntity
  8
turkuaz
  6
ByLayer
 62
  256
370
   -1
100
AcDbCircle
 10
448.75552251452
 20
822.7712029842705
 40
89.46646411359575
100
AcDbArc
 50
10.83881285791948
 51
67.56058233105961
  0
ARC
  5
162
100
AcDbEntity
  8
turkuaz
  6
ByLayer
 62
  256
370
   -1
100
AcDbCircle
 10
454.4049655325666
 20
848.0144441236848
 40
62.10908258236942
100
AcDbArc
 50
349.8848423357907
 51
57.75489584856371
  0
ARC
  5
163
100
AcDbEntity
  8
turkuaz
  6
ByLayer
 62
  256
370
   -1
100
AcDbCircle
 10
386.0638906093286
 20
817.8441247287998
 40
130.9096777464402
100
AcDbArc
 50
8.461321966113397
 51
39.17841621824088
  0
CIRCLE
  5
164
100
AcDbEntity
  8
turkuaz
  6
ByLayer
 62
  256
370
   -1
100
AcDbCircle
 10
401.0827416394071
 20
708.9877474347549
 40
1.991514348490468
  0
ARC
  5
165
100
AcDbEntity
  8
turkuaz
  6
ByLayer
 62
  256
370
   -1
100
AcDbCircle
 10
454.698954336536
 20
808.0928170596428
 40
31.88060112412597
100
AcDbArc
 50
141.9891606314665
 51
174.4080203958297
  0
ARC
  5
166
100
AcDbEntity
  8
turkuaz
  6
ByLayer
 62
  256
370
   -1
100
AcDbCircle
 10
407.9923433798085
 20
809.1075423716825
 40
15.12309852817132
100
AcDbArc
 50
318.0064897274897
 51
7.950673186078279
  0
ARC
  5
167
100
AcDbEntity
  8
turkuaz
  6
ByLayer
 62
  256
370
   -1
100
AcDbCircle
 10
435.7585407844349
 20
835.2209819918116
 40
38.99300528798278
100
AcDbArc
 50
48.64570372785471
 51
109.0628607152155
  0
ARC
  5
168
100
AcDbEntity
  8
turkuaz
  6
ByLayer
 62
  256
370
   -1
100
AcDbCircle
 10
402.5677192785581
 20
932.7128806442897
 40
63.99454707147905
100
AcDbArc
 50
252.3402581713212
 51
288.6414213151207
  0
ARC
  5
169
100
AcDbEntity
  8
turkuaz
  6
ByLayer
 62
  256
370
   -1
100
AcDbCircle
 10
423.0948365121149
 20
877.3330909984686
 40
40.33126711587547
100
AcDbArc
 50
187.9798855822162
 51
273.0421712179685
  0
ARC
  5
16A
100
AcDbEntity
  8
turkuaz
  6
ByLayer
 62
  256
370
   -1
100
AcDbCircle
 10
412.3537134351265
 20
874.3998266474632
 40
39.50059216431551
100
AcDbArc
 50
223.6301293939328
 51
289.0328437432772
  0
ARC
  5
16B
100
AcDbEntity
  8
turkuaz
  6
ByLayer
 62
  256
370
   -1
100
AcDbCircle
 10
442.5810689353135
 20
892.802856074183
 40
74.45992053818746
100
AcDbArc
 50
165.619680482649
 51
217.8208798979296
  0
ARC
  5
16C
100
AcDbEntity
  8
turkuaz
  6
ByLayer
 62
  256
370
   -1
100
AcDbCircle
 10
399.6826420825562
 20
910.1490289639557
 40
29.25103124363946
100
AcDbArc
 50
177.7537392135791
 51
250.4488091749154
  0
ARC
  5
16D
100
AcDbEntity
  8
turkuaz
  6
ByLayer
 62
  256
370
   -1
100
AcDbCircle
 10
414.8385613575797
 20
988.4861977909717
 40
108.7998344629459
100
AcDbArc
 50
256.74579034179
 51
280.1474034098733
  0
ARC
  5
16E
100
AcDbEntity
  8
turkuaz
  6
ByLayer
 62
  256
370
   -1
100
AcDbCircle
 10
327.5435459611417
 20
721.8298805687823
 40
119.3154789350961
100
AcDbArc
 50
239.8277633426804
 51
296.0872159812508
  0
ARC
  5
16F
100
AcDbEntity
  8
turkuaz
  6
ByLayer
 62
  256
370
   -1
100
AcDbCircle
 10
281.8768457785575
 20
670.9385993146402
 40
5.281752211533464
100
AcDbArc
 50
123.8104784523854
 51
234.2140007483377
  0
ARC
  5
170
100
AcDbEntity
  8
turkuaz
  6
ByLayer
 62
  256
370
   -1
100
AcDbCircle
 10
404.1997998728013
 20
705.5165444330152
 40
6.416354780475508
100
AcDbArc
 50
36.3007671189109
 51
50.87660020425505
  0
ARC
  5
171
100
AcDbEntity
  8
turkuaz
  6
ByLayer
 62
  256
370
   -1
100
AcDbCircle
 10
396.3449372041667
 20
714.3719631190316
 40
13.97304544375936
100
AcDbArc
 50
218.146740751222
 51
338.7833465017296
  0
ARC
  5
172
100
AcDbEntity
  8
turkuaz
  6
ByLayer
 62
  256
370
   -1
100
AcDbCircle
 10
396.367889268729
 20
715.7918056839208
 40
13.00815284555778
100
AcDbArc
 50
219.0189139631617
 51
335.9680162121103
  0
ARC
  5
173
100
AcDbEntity
  8
turkuaz
  6
ByLayer
 62
  256
370
   -1
100
AcDbCircle
 10
393.5727495530368
 20
702.8950219772109
 40
8.695614258592736
100
AcDbArc
 50
147.2261345880412
 51
160.8948201497355
  0
CIRCLE
  5
174
100
AcDbEntity
  8
turkuaz
  6
ByLayer
 62
  256
370
   -1
100
AcDbCircle
 10
401.4835725701301
 20
709.3832040123683
 40
0.6408385555025035
  0
CIRCLE
  5
175
100
AcDbEntity
  8
turkuaz
  6
ByLayer
 62
  256
370
   -1
100
AcDbCircle
 10
373.4302093983511
 20
771.3275745440293
 40
275
  0
CIRCLE
  5
176
100
AcDbEntity
  8
turkuaz
  6
ByLayer
 62
  256
370
   -1
100
AcDbCircle
 10
373.4302093983511
 20
771.3275745440293
 40
285
  0
ARC
  5
177
100
AcDbEntity
  8
turkuaz
  6
ByLayer
 62
  256
370
   -1
100
AcDbCircle
 10
398.6089516852194
 20
698.7542306895251
 40
15.19042910918484
100
AcDbArc
 50
50.61126325172186
 51
144.3756669235503
  0
ENDSEC
  0
SECTION
  2
OBJECTS
  0
DICTIONARY
  5
C
330
0
100
AcDbDictionary
281
    1
  3
ACAD_GROUP
350
D
  3
ACAD_IMAGE_DICT
350
178
  0
DICTIONARY
  5
D
330
C
100
AcDbDictionary
281
    1
  0
IMAGEDEF_REACTOR
  5
6B
330
6C
100
AcDbRasterImageDefReactor
 90
    2
330
6C
  0
DICTIONARY
  5
178
330
C
100
AcDbDictionary
281
    1
  3
r1
350
6A
  0
IMAGEDEF
  5
6A
102
{ACAD_REACTORS
330
6B
102
}
100
AcDbRasterImageDef
 90
    0
  1
/home/halil/Masast/Rhino/r1.jpg
 10
920
 20
540
 11
1
 21
1
280
    1
281
    0
  0
ENDSEC
  0
EOF
